<?xml version="1.0" encoding="utf-8"?>
<!-- Generator: Adobe Illustrator 16.0.0, SVG Export Plug-In . SVG Version: 6.00 Build 0)  -->
<!DOCTYPE svg PUBLIC "-//W3C//DTD SVG 1.1//EN" "http://www.w3.org/Graphics/SVG/1.1/DTD/svg11.dtd">
<svg version="1.1" id="Layer_1" xmlns="http://www.w3.org/2000/svg" xmlns:xlink="http://www.w3.org/1999/xlink" x="0px" y="0px"
	 width="90px" height="90px" viewBox="0 0 90 90" enable-background="new 0 0 90 90" xml:space="preserve">
<path d="M74.892,23.236c-3.005-0.141-6.229,2.103-8.568,3.715c-3.246,2.236-6.034,5.066-8.461,8.162
	c-1.142,1.455-2.203,2.977-3.15,4.566c-0.723,1.213-0.763,2.571-2.247,2.134c-4.458-1.315-9.209-1.437-13.712-0.266
	c-1.823,0.474-1.926,0.917-2.814-0.721c-0.861-1.588-1.863-3.1-2.935-4.553c-2.396-3.248-5.157-6.23-8.399-8.649
	c-1.896-1.415-11.1-7.789-12.005-2.214c-0.414,2.55,1.019,5.417,2.089,7.628c1.617,3.341,3.517,6.637,5.796,9.574
	c0.66,0.851,6.211,6.056,6.015,6.591c-0.572,1.403-1.611,2.598-2.163,4.049c-0.725,1.909-1.108,3.95-1.121,5.993
	c-0.044,6.937,4.441,12.11,10.642,14.646c9.941,4.066,26.014,2.837,31.364-7.957c2.718-5.484,1.652-11.533-1.582-16.51
	c-0.417-0.642,4.474-5.125,5.196-6.004c1.989-2.421,3.646-5.076,5.138-7.827C75.087,33.541,80.729,23.508,74.892,23.236z
	 M68.483,39.526c-0.587,1.956-3.467,4.219-4.862,5.632c-1.158,1.173-4.488,2.964-3.017,4.708c3.389,3.955,4.665,9.529,2.452,14.372
	c0.498-1.504,0.872-4.026-0.386-5.289c-1.705-1.712-4.257,0.766-5.143,2.145c-1.134,1.764-1.946,4.366-0.842,6.336
	c0.97,1.729,2.565,1.253,3.878,0.27c-6.918,7.202-22.177,7.05-29.939,1.417c3.93,0.95,3.221-5.347,1.749-7.343
	c-0.819-1.109-2.267-2.167-3.714-1.86c-2.425,0.513-1.967,3.913-1.352,5.577c-1.882-3.228-2.105-7.277-0.952-10.793
	c0.592-1.806,1.557-3.493,2.857-4.883c1.352-1.444-0.819-2.494-1.829-3.445c-1.39-1.31-6.421-5.302-6.031-7.403
	c0.315-1.703-0.231-3.781-0.131-5.545c0.09-1.565,0.403-2.928,0.859-4.407c4.261,2.334,7.871,7.158,10.418,11.169
	c0.606,0.956,2.119,5.289,3.482,4.867c2.986-0.924,5.709-1.838,8.887-1.838c3.015,0,5.985,0.645,8.802,1.696
	c1.536,0.58,3.107-3.897,3.788-4.945c2.632-4.054,6.008-8.479,10.223-11.002c0.62,1.736,0.893,3.522,0.913,5.365
	C68.611,35.751,68.89,38.172,68.483,39.526z"/>
</svg>
