<?xml version="1.0" encoding="utf-8"?>
<!-- Generator: Adobe Illustrator 16.0.0, SVG Export Plug-In . SVG Version: 6.00 Build 0)  -->
<!DOCTYPE svg PUBLIC "-//W3C//DTD SVG 1.1//EN" "http://www.w3.org/Graphics/SVG/1.1/DTD/svg11.dtd">
<svg version="1.1" id="Layer_1" xmlns="http://www.w3.org/2000/svg" xmlns:xlink="http://www.w3.org/1999/xlink" x="0px" y="0px"
	 width="90px" height="90px" viewBox="0 0 90 90" enable-background="new 0 0 90 90" xml:space="preserve">
<g>
	<path d="M38.706,43.442c-2.356-0.971-5.339-2.624-7.955-2.701c-0.838-0.025-0.61,1.637-0.324,2.064
		c0.425,0.636,1.548,0.91,2.197,1.175c2.882,1.176,5.769,2.395,8.688,3.476c1.413,0.523,0.881-0.638,0.478-1.466
		C41.105,44.582,40.125,44.027,38.706,43.442z"/>
	<path d="M66.445,39.256c-0.436-0.471-1.124-0.747-1.702-0.983c-0.95-0.39-0.376-1.092-0.209-1.987
		c0.285-1.53,0.611-3.098,0.698-4.656c0.154-2.754-0.924-5.489-1.992-7.971c-0.387-0.9-1.075-3.533-2.003-3.93
		c-1.21-0.518-2.897-0.432-4.192-0.582c-3.089-0.357-6.015-1.396-8.989-2.274c-1.591-0.47-3.801-0.68-5.185-1.606
		c-1.512-1.013-3.593-4.106-5.305-4.265c-0.533-0.05,0.201,5.073-0.682,4.672c-1.626-0.738-3.565-1.657-4.958-2.78
		c-0.53-0.431-0.985,5.517-1.233,6.04c-0.312,0.657-2.963-4.216-3.325-3.19c-1.591,4.513-3.495,10.192-3.593,15.021
		c-0.034,1.707,0.054,3.406,0.386,5.085c0.238,1.207,0.638,1.547-0.314,2.327c-1.872,1.531-2.973,2.984-2.833,5.572
		c0.151,2.805,1.557,5.544,3.553,7.484c0.702,0.684,2.123,1.283,2.466,2.244c0.588,1.646,0.985,3.363,1.549,5.02
		c0.394,1.158,0.838,2.309,1.516,3.334c0.772,1.168,2.151,2.132,2.74,3.381c0.827,1.755-2.108,1.727-2.67,2.945
		c-0.696,1.508-0.868,2.133-1.3,3.711c-1.209,4.414,8.218,5.384,12.134,5.55c5.501,0.233,11.586-0.021,16.875-1.833
		c1.981-0.679,2.77-1.821,2.136-3.776c-0.406-1.257-0.959-3.833-2.101-4.632c-0.448-0.313-1.449,0.029-1.718-0.469
		c-0.519-0.961,0.249-1.711,0.854-2.369c0.987-1.071,1.936-2.176,2.62-3.471c0.901-1.705,1.454-3.591,2.018-5.426
		c0.788-2.567,1.541-2.948,3.31-4.9C67.553,47.719,69.419,42.469,66.445,39.256z M55.769,69.288
		c1.234-0.907,1.991,2.048,2.106,3.254c0.149,1.563-6.558,2.553-7.701,2.667c-1.339,0.134-8.443,0.313-13.705-0.369
		c-3.495-0.453-5.536-1.521-5.26-2.589c0.254-0.984,0.381-1.366,0.851-2.271c0.399-0.77,0.638-1.336,1.685-0.839
		c0.888,0.422,1.703,0.74,2.48,0.983c1.219,0.381,2.065,0.566,3.761,0.863C44.988,71.864,51.45,71.636,55.769,69.288z
		 M34.438,67.719c-0.154-0.74-0.011-0.783,0.079-1.525c0.208-1.715-1.317-2.813-2.324-4.007c-1.955-2.317-2.747-5.395-3.51-8.276
		c-0.445-1.677-0.553-1.699-2.002-2.695c-1.448-0.996-2.551-2.47-3.292-4.049c-0.677-1.442-1.132-3.114-0.924-4.719
		c0.228-1.753,1.294-2.142,2.432-3.261c0.977,3.653,1.154,7.005,3.104,10.272c0.947-4.1-0.991-7.079,0.322-11.188
		c0.525-1.644,1.071-3.281,1.588-4.929c0.544-1.733,1.279-2.252,2.793-3.205c2.229-1.402,7.745,1.657,9.762,2.55
		c2.309,1.021,2.815,0.518,5.141-0.468c1.872-0.793,3.794-1.524,5.771-2.011c3.147-0.775,4.975,0.825,5.924,3.727
		c0.693,2.121,1.916,4.568,1.892,6.831c-0.019,1.766-0.106,3.53-0.16,5.296c-0.018,0.596,0.216,2.006,0.138,2.563
		c0.122-0.87,0.817-1.383,1.071-2.399c0.582-2.328,1.124-4.666,1.678-7.001c5.713,2.477,1.101,10.002-2.208,12.313
		c-0.901,0.629-0.888,1.797-1.177,2.79c-0.464,1.594-0.988,3.176-1.573,4.729c-0.99,2.626-4.155,4.334-4.469,6.933
		c0.043,0.655,0.142,1.313,0.246,1.961c-0.678,0.517-1.566,0.731-2.29,1.009c-1.244,0.472-5.076,1.164-7.295,1.133
		C42.521,70.057,35.202,68.073,34.438,67.719z"/>
	<path d="M58.265,40.653c-2.66,0.515-5.442,1.773-7.919,2.849c-1.247,0.541-2.453,1.25-3.043,2.531
		c-0.682,1.48-0.545,1.86,0.998,1.244c2.966-1.185,5.942-2.344,8.903-3.543c0.373-0.15,0.76-0.288,1.118-0.473
		C59.013,42.904,59.383,40.437,58.265,40.653z"/>
</g>
</svg>
