<?xml version="1.0" encoding="utf-8"?>
<!-- Generator: Adobe Illustrator 16.0.0, SVG Export Plug-In . SVG Version: 6.00 Build 0)  -->
<!DOCTYPE svg PUBLIC "-//W3C//DTD SVG 1.1//EN" "http://www.w3.org/Graphics/SVG/1.1/DTD/svg11.dtd">
<svg version="1.1" id="Layer_1" xmlns="http://www.w3.org/2000/svg" xmlns:xlink="http://www.w3.org/1999/xlink" x="0px" y="0px"
	 width="90px" height="90px" viewBox="0 0 90 90" enable-background="new 0 0 90 90" xml:space="preserve">
<path d="M69.795,55.648c-1.266-0.951-1.628-1.359-2.237-2.524c-0.305-0.584-0.627-1.171-0.717-1.306s-0.341-0.532-0.558-0.884
	c-1.204-1.953-2.783-3.688-4.38-4.813c-0.452-0.318-0.624-0.484-0.595-0.577c0.022-0.071,0.153-0.418,0.289-0.77
	c0.234-0.603,0.419-1.19,0.689-2.187c1.707-6.295,0.143-12.354-3.673-14.225c-0.436-0.214-0.483-0.266-0.726-0.791
	c-0.964-2.088-3.214-4.281-7.046-6.871c-1.836-1.24-2.152-1.911-1.296-2.751c0.541-0.531,1.033-0.666,2.656-0.732
	c1.8-0.074,2.339-0.328,2.764-1.305c1.411-3.241-4.399-6.533-10.259-5.813c-2.65,0.325-5.033,1.534-6.847,3.474l-0.646,0.69
	l-0.506-0.156c-2.176-0.672-4.752-0.297-6.344,0.924c-1.385,1.063-1.309,3.079,0.152,4.024c0.644,0.416,0.642,0.392,0.101,1.678
	c-0.947,2.252-2,3.878-2.668,4.122c-1.583,0.578-2.517,1.158-3.592,2.233c-1.785,1.784-3.085,4.656-3.352,7.404
	c-0.104,1.065-0.115,1.102-0.385,1.195c-0.876,0.306-2.311,1.508-3.017,2.528c-2.82,4.079-1.809,11.127,2.166,15.103
	c0.996,0.995,0.946,0.858,0.626,1.737c-3.648,9.997,5.711,20.528,20.726,23.32c10.884,2.023,21.188-2.017,28.9-11.333
	C73.969,62.276,73.899,58.729,69.795,55.648z M35.703,45.413l-0.018-0.023c-2.924-3.756-4.368-9.618-3.22-13.068
	c0.567-1.704,1.872-2.86,3.673-3.257c0.427-0.094,0.838-0.14,1.255-0.14c1.958,0,4.365,1.061,8.31,3.659
	c2.833,1.866,4.213,2.685,5.543,2.685c0.721,0,1.316-0.247,1.803-0.488c1.02-0.505,1.899-1.292,2.687-2.405
	c0.139-0.196,0.433-0.613,0.606-0.806c0.038,0.006,0.085,0.016,0.146,0.028c1.105,0.233,1.913,1.095,2.403,2.558
	c1.038,3.101,0.224,8.74-1.612,11.173c-0.197,0.261-0.797,1.055-0.472,1.945c0.139,0.382,0.488,0.878,1.361,1.076
	c1.491,0.34,4.059,2.521,6.172,6.507c0.938,1.771,1.484,2.406,3.242,3.78c1.129,0.882,1.663,1.566,1.733,2.221
	c0.093,0.873-0.575,2.115-2.168,4.029c-5.656,6.794-12.79,10.385-20.629,10.385c-3.729,0-7.541-0.822-11.333-2.444
	c-5.771-2.468-9.737-6.035-11.167-10.043c-0.933-2.613-0.731-5.23,0.605-7.789c0.361-0.692,0.647-1.239,0.444-1.918
	c-0.199-0.667-0.733-0.979-1.422-1.38c-2.879-1.679-4.632-6.786-3.475-10.121c0.556-1.603,1.967-2.722,3.432-2.722
	c1.86,0,5.125,4.606,5.65,10.728c0.118,1.373,0.821,1.661,1.39,1.661c0.642,0,1.061-0.405,1.695-1.018
	c0.927-0.896,1.631-1.353,2.428-1.573l0.024-0.007c0.729-0.202,1.417-0.394,1.67-1.157C36.716,46.713,36.269,46.14,35.703,45.413z
	 M29.122,27.089c1.044-0.289,2.4-2.121,3.582-4.842c1.28-2.945,1.239-3.545-0.333-4.856c-0.349-0.292-0.261-0.491,0.354-0.8
	c1.438-0.723,3.498-0.439,4.782,0.658c0.482,0.412,0.628,0.402,0.865-0.058c1.353-2.627,3.902-4.313,7.149-4.728
	c0.576-0.073,2.462,0.034,3.2,0.182c1.735,0.349,3.561,1.244,3.856,1.893c0.146,0.318-0.002,0.382-1.036,0.444
	c-2.802,0.168-4.49,1.493-4.64,3.644c-0.111,1.587,0.56,2.666,2.46,3.958c4.021,2.733,6.034,4.712,6.677,6.576
	c-1.024,0.082-1.575,0.858-2.261,1.829c-0.56,0.791-1.129,1.313-1.793,1.641c-0.399,0.198-0.583,0.238-0.737,0.238
	c-0.633,0-1.919-0.771-4.223-2.288c-4.429-2.918-7.129-4.055-9.63-4.055c-0.593,0-1.172,0.063-1.771,0.195
	c-2.621,0.577-4.602,2.342-5.434,4.843c-1.361,4.088,0.11,10.579,3.351,14.969c-0.71,0.272-1.38,0.678-2.093,1.269
	c-0.919-5.65-4.108-11.347-7.845-11.347c-0.079,0-0.156,0.007-0.234,0.011c0.007-0.184,0.012-0.408,0.022-0.69
	C23.538,31.548,25.889,27.984,29.122,27.089z"/>
</svg>
