<?xml version="1.0" encoding="utf-8"?>
<!-- Generator: Adobe Illustrator 16.0.0, SVG Export Plug-In . SVG Version: 6.00 Build 0)  -->
<!DOCTYPE svg PUBLIC "-//W3C//DTD SVG 1.1//EN" "http://www.w3.org/Graphics/SVG/1.1/DTD/svg11.dtd">
<svg version="1.1" id="Layer_1" xmlns="http://www.w3.org/2000/svg" xmlns:xlink="http://www.w3.org/1999/xlink" x="0px" y="0px"
	 width="90px" height="90px" viewBox="0 0 90 90" enable-background="new 0 0 90 90" xml:space="preserve">
<path d="M76.639,43.577c-0.324-0.499-3.15-0.093-3.202,0.079c0.438-1.469,0.522-3.916,0.442-5.017
	c-0.125-1.708-0.429-3.406-0.896-5.054c-0.442-1.558-0.785-3.258-1.833-4.496c-1.275-1.506-0.922-1.151,0.037-2.486
	c0.299-0.416,0.425-0.894,0.604-1.563c0.553-2.071-0.2-4.844-3.021-3.562c-0.688,0.313-1.807,1.347-1.892,0.28
	c-0.063-0.782-0.282-1.246-0.813-1.839c-2.116-2.367-4.35-4.518-7.417-5.546c-1.682-0.563-3.488-0.814-5.259-0.678
	c-0.864,0.066-3.188,1.207-3.826,0.867c-2.553-1.36-2.809-1.933-3.641-4.673c-0.375-1.239-1.135-1.747-2.564-1.718
	c-1.796,0.037-2.192,0.901-2.625,2.293c-0.301,0.971-0.422,2.316-0.469,3.378c-0.029,0.659-2.664-0.07-3.234-0.047
	c-3.672,0.147-7.235,1.174-10.292,3.23c-2.584,1.738-4.614,4.348-5.364,7.348c-0.786,3.144-2.531,4.969-3.177,9.183
	c-0.333,2.173-2.365,3.078-4.354,3.19c-1.885,0.106-6.15,1.166-3.448,4.482c0.953,1.169,1.723,1.546,3.048,2.217
	c0.764,0.387,2.594,0.458,2.597,0.866c0.021,3.265,0.26,6.782,2.061,9.589c1.14,1.775,1.386,3.961,2.645,5.761
	c0.598,0.854,3.72,3.081,3.759,3.878c0.102,2.039-5.354,5.773-1.506,7.709c1.055,0.531,3.555-0.566,3.784-0.135
	c0.87,1.633,1.898,3.087,3.054,4.532c0.711,0.889,1.232,1.942,2.524,1.992c0.75,0.028,1.544-0.072,2.096-0.639
	c0.236-0.243,0.605-1.563,0.573-2.219c2.939,1.732,6.154,3.557,9.669,3.54c1.766-0.009,3.518-0.372,5.153-1.032
	c1.018-0.411,3.116-2.337,4.077-2.337c-0.32,0,0.711,2.051,0.976,2.283c0.878,0.771,2.257,0.738,3.109-0.016
	c1.681-1.486,2.905-3.232,4.025-5.156c0.339-0.583,0.57-1.561,1.031-2.043c0.422-0.442,2.102,0.189,2.636,0.273
	c2.359,0.367,2.985-2.669,2.188-3.75c-1.021-1.382-3.132-3.155-1.407-4.783c2.11-1.99,3.323-4.941,3.819-7.808
	c0.143-0.828,0.424-0.646,1.233-1.014c1.414-0.644,2.952-1.295,3.862-2.557C76.489,48.876,77.563,45,76.639,43.577z M74.495,46.724
	c-0.375,1.308-1.032,2.534-2.081,3.423c-0.667,0.565-3.844,1.384-4.01,1.96c-0.445,1.548-0.217,3-0.991,4.571
	c-0.184,0.373-2.348,3.945-2.876,3.501c-0.273-0.23,1.721-3.528,1.889-3.937c0.672-1.636,0.821-3.239,1.139-4.95
	c0.022-0.12,7.17-2.56,5.671-3.977c-0.412-0.389-2.443,0.304-3.208-0.048c-0.872-0.4-0.512-1.048-0.219-1.797
	c1.022-2.621,1.116-5.573,0.699-8.329c-0.424-2.798-1.406-5.605-3.106-7.89c-0.263-0.354-1.941-1.81-1.514-2.208
	c0.573-0.534,1.915-0.56,2.226-1.413c0.078-0.215-2.519-0.714-2.794-0.806c-0.945-0.316-1.327-0.825-1.917-1.622
	c-0.796-1.076-1.853-1.947-3.019-2.597c-0.352-0.196-4.03-1.448-4.029-1.458c0.044-0.655,4.3,0.488,4.356,0.156
	c0.174-1.029-3.893-2.146-4.588-2.28c-1.768-0.34-3.943-0.273-5.37,0.978c-0.702,0.615-0.718,0.948-1.472,0.243
	c-0.534-0.499-1.249-0.836-1.883-1.178c-0.951-0.513-1.919-1.08-2.686-1.854c-0.257-0.259-1.036-1.775-1.318-1.775
	c-0.922,0,0.274,3.967-0.146,4.107c-0.741,0.247-2.288-0.457-3.077-0.538c-1.31-0.134-2.636-0.103-3.941,0.064
	c-2.333,0.298-4.636,1.02-6.688,2.177c-1.051,0.593-2.042,1.307-2.897,2.162c-0.142,0.142-1.746,2.178-1.547,2.212
	c0.76,0.13,3.183-1.751,4.003-2.068c0.456-0.176,3.038-1.119,3.493-0.586c-0.179-0.209-5.443,3.71-5.938,4.156
	c-1.943,1.752-3.278,3.877-4.188,6.344c-0.826,2.237-0.8,4.13-2.533,5.909c-0.861,0.884-1.862,1.626-3.021,2.069
	c-0.312,0.119-2.265,0.327-2.396,0.659c-0.377,0.958,4.927,0.954,4.898,1.977c-0.087,3.107-0.233,5.097,1.167,8.084
	c0.523,1.116,1.693,3.131,2.167,4.25c0.66,1.56,0.5,2.923,1.417,4.375c1.204,1.906,4.103,3.177,3.5,5.62
	c-0.063,0.253-1.323,2.834-1.136,2.834c0.755,0.001,2.022-1.021,2.408,0.13c0.248,0.74,2.795,6.766,2.851,4.096
	c0.017-0.794,0.549-2.859,0.128-3.596c-0.589-1.03-0.693-1.192-1.208-2.292c-0.2-0.425-0.848-1.062,0.099-1.57
	c0.541-0.29-2.267-3.356-2.375-3.659c2.139,1.279,4.386,3.06,7.001,2.372c3.936-1.036,5.445,2.987,8.76,4.152
	c1.543,0.542,2.913-1.474,4.038-2.258c1.402-0.977,2.409-2.15,4.219-2.15c0.891,0,1.592,0.494,2.46,0.494
	c0.785,0,1.465-0.374,2.193-0.602c1.509-0.477,3.611-1.644,4.667-2.832c-0.271,1.201-1.976,2.81-1.937,3.946
	c0.036,1.02-0.168,1.591-0.792,2.523c-0.567,0.848-1.879,2.786-1.948,3.875c-0.02,0.312,0.386,2.506,0.736,2.469
	c1.288-0.135,2.564-4.361,2.92-5.313c0.247-0.659,0.654-1.792,1.698-1.075c0.182,0.125,1.116,0.668,1.21,0.334
	c0.09-0.32-2.013-3.353-0.624-4.468c0.24-0.193,0.707,2.461,0.88,2.842c0.441,0.97,1.172,1.764,1.835,2.583
	c1.447,1.79-0.654,0.796-1.711,0.377c-2.983-1.183-2.311-0.566-3.448,2.056c-0.402,0.927-2.976,5.83-4.052,5.613
	c-0.574-0.116-0.525-3.829-1.028-4.606c0.021,0.034-3.861,3.052-4.555,3.485c-4.495,2.81-9.817,2.141-14.052-0.821
	c-0.771-0.539-3.742-3.558-3.75-1.664c-0.002,0.532-0.025,3.939-0.651,3.403c-1.81-1.551-3.381-4.119-4.147-6.36
	c-0.743-2.18-3.999,1.433-4.535,0.408c-0.248-0.473,2.018-2.802,2.284-3.269c0.485-0.852,1.531-3.667,0.247-4.2
	c-4.115-1.707-5.027-6.465-6.786-9.998c-1.071-2.152-1.552-4.608-1.417-7.006c0.019-0.333,0.472-1.926,0.008-2.178
	c-0.864-0.47-2.079-0.467-3.011-0.838c-0.422-0.168-4.038-2.252-2.977-2.461c1.801-0.356,3.566-0.013,5.245-0.959
	c3.745-2.111,2.922-5.979,4.791-9.391c1.48-2.702,1.269-5.643,3.851-8.231c3-3.007,7.405-4.542,11.599-4.64
	c0.82-0.019,4.448,0.855,4.49-0.167c0.026-0.638,0.356-5.612,1.27-5.454c0.544,0.094,0.88,2.454,1.083,2.939
	c0.339,0.81,0.878,1.449,1.585,1.966c0.941,0.688,2.011,1.17,3.01,1.763c1.13,0.671,2.067-0.5,3.244-0.798
	c2.651-0.672,5.602,0.055,7.883,1.481c1.152,0.721,2.109,1.75,3.041,2.725c1.22,1.277,0.325,0.595,0.194,1.224
	c-0.181,0.87,1.771,2.234,2.418,2.444c0.71,0.231,1.539,0.48,2.296,0.31c0.595-0.134,0.914-0.741,1.452-0.875
	c0.673-0.167-0.906,2.783-1.09,2.969c-1.488,1.507-0.974,1.34,0.159,3.103c1.699,2.644,2.605,5.777,2.827,8.896
	c0.104,1.46,0.08,2.937-0.114,4.389c-0.086,0.645-1.125,3.115-0.694,3.603C71.947,47.89,75.389,43.598,74.495,46.724z
	 M29.019,52.767c1.224,2.018,2.813,4.279,5.345,4.583c2.101,0.252,6.043-1.311,7.409,0.998c0.11,0.185,0.947,2.591,1.294,2.15
	c0.54-0.688,0.661-1.823,1.084-2.607c1.403-2.599,3.983-4.514,6.089-6.502c0.445-0.419,4.249-4.152,4.128-4.451
	c0.4,0.992-0.93,3.571-1.377,4.458c-0.693,1.373-2.624,1.797-3.501,3.149c-0.383,0.59-2.33,3.382-0.578,2.636
	c1.435-0.612,3.304,0.03,4.799,0.097c3.12,0.14,4.923-2.279,6.483-4.701c0.555-0.861,1.702-2.258,0.042-2.17
	c-1.015,0.054-4.934,1.378-5.61,0.789c-0.205-0.178,1.854-2.64,2.036-2.954c0.641-1.104,0.53-2.226,1.513-0.832
	c0.669,0.949,6.545-1.172,7.614-1.396c1.824-0.383,1.987-0.128,1.342,1.771c-0.528,1.555-1.233,3.058-1.997,4.509
	c-0.444,0.843-1.339,3.141-2.222,3.582l-0.001,0.001c-1.337,1.861-3.084,3.314-5.09,4.428c-0.787,0.438-1.655,0.842-2.533,1.063
	c-1.07,0.269-2.49-0.531-3.696-0.392c-2.491,0.288-4.626,2.745-6.492,4.23c-0.77,0.613-3.891-2.262-4.712-2.872
	c-1.024-0.76-1.855-1.417-3.213-1.417c-1.253,0-2.562,0.76-3.779,0.348c-2.92-0.988-5.332-3.187-7.128-5.63
	c-1.808-2.458-4.193-6.216-4.473-9.331c-0.07-0.778,4.625,0.524,5.208,0.659c1.708,0.395,3.427,0.765,5.124,1.203
	c0.995,0.257,1.177-0.413,1.105,1.093c-0.061,1.281-0.195,1.595-1.5,1.362c-0.554-0.098-3.346-0.833-3.805-0.279
	C27.608,50.728,28.839,52.47,29.019,52.767z M36.367,50.78c0.266-0.238,2.192-2.284,2.378-2.034c0.314,0.42-0.586,3.795-0.833,3.795
	C36.868,52.542,35.29,51.745,36.367,50.78z M41.131,56.538c-1.739-0.03-0.662-2.853-0.133-3.367
	c-0.08,0.078,0.839-0.911,0.964-0.564C42.06,52.878,41.002,56.535,41.131,56.538z"/>
</svg>
