<?xml version="1.0" encoding="utf-8"?>
<!-- Generator: Adobe Illustrator 16.0.0, SVG Export Plug-In . SVG Version: 6.00 Build 0)  -->
<!DOCTYPE svg PUBLIC "-//W3C//DTD SVG 1.1//EN" "http://www.w3.org/Graphics/SVG/1.1/DTD/svg11.dtd">
<svg version="1.1" id="Layer_1" xmlns="http://www.w3.org/2000/svg" xmlns:xlink="http://www.w3.org/1999/xlink" x="0px" y="0px"
	 width="90px" height="90px" viewBox="0 0 90 90" enable-background="new 0 0 90 90" xml:space="preserve">
<g>
	<path fill="#222120" d="M40.878,54.823c-4.373-2.951-6.771-6.736-7.263-11.466c-0.104-1.002-0.187-1.044-0.804-0.408
		c-0.24,0.247-0.534,0.581-0.654,0.741c-0.347,0.463-0.596,0.384-0.676-0.216c-0.221-1.654-2.47,2.502-2.632,4.865l-0.045,0.653
		l0.818,0.795c3.151,3.061,10.093,6.739,11.431,6.057C41.682,55.524,41.651,55.345,40.878,54.823z"/>
	<path fill="#222120" d="M70.975,50.202l-3.31-2.92c0.375-3.118,0.463-5.829,0.203-7.005c-0.592-2.68-2.845-7.653-5.865-12.946
		c-0.736-1.29-1.102-1.903-2.285-3.835c-1.89-3.085-8.775-12.151-9.306-12.254c-0.199-0.038-0.271,0.181-0.49,1.474
		c-0.364,2.149-0.436,2.159-1.562,0.227c-0.633-1.088-2.383-3.921-2.78-4.502c-0.318-0.466-0.494-0.545-0.697-0.316
		c-0.167,0.188-1.247,1.927-2.773,4.468c-1.386,2.307-1.381,2.306-1.742,0.195c-0.327-1.915-0.324-1.913-1.459-0.567
		c-3.311,3.924-7.109,9.167-9.396,12.967c-3.29,5.467-6.035,11.161-6.975,14.467l-0.222,0.78l0.005,2.379
		c0.003,1.747,0.039,2.637,0.134,3.353c0.02,0.151,0.043,0.328,0.067,0.515l-3.182,3.441c-1.203,1.502-1.673,4.484-1.092,6.923
		c1.036,4.342,4.158,8.665,6.796,9.41c0.353,0.1,0.392,0.139,0.694,0.69c0.818,1.488,2.758,4.23,4.099,5.792
		c0.323,0.376,0.729,0.854,0.9,1.062c1.74,2.1,3.484,3.774,6.122,5.874c0.616,0.491,2.267,1.455,3.042,1.775l0.663,0.275l4.4,0.022
		l4.401,0.022l0.64-0.204c0.808-0.257,2.632-1.267,3.388-1.876c1.829-1.473,3.069-2.567,3.978-3.512
		c0.783-0.814,1.792-1.932,2.11-2.338c0.104-0.133,0.491-0.589,0.858-1.014c0.853-0.984,2.015-2.521,2.817-3.726
		c0.346-0.52,0.724-1.084,0.84-1.256c0.116-0.171,0.358-0.581,0.538-0.91c0.304-0.556,0.348-0.602,0.631-0.649
		c0.32-0.054,1.352-0.665,2.113-1.251c1.986-1.528,4.038-5.136,4.767-8.381C72.567,54.519,72.106,51.652,70.975,50.202z
		 M66.434,62.448c-0.809,0.922-1.303,1.248-2.936,1.935l-0.54,0.228l-0.46,0.857c-2.955,5.508-9.916,12.861-13.55,14.154L48.363,80
		h-3.197c-3.665,0-3.548-0.153-4.954-0.881C36.641,77.27,29.947,69.92,27.713,65.47c-0.42-0.838-0.409-0.869-1.15-1.135
		c-1.974-0.708-3.352-2.142-4.73-4.868c-1.769-3.498-1.788-6.334-0.055-8.153c0.317-0.333,0.576-0.643,0.576-0.683
		c0-0.018,0.301-0.296,0.64-0.633c0.112,0.409,0.25,0.482,0.532,0.575c0.513,0.17,0.412-0.076,1.717,4.171
		c0.722,2.35,0.734,2.37,1.088,1.872c0.262-0.368,0.263-0.662,0.005-1.873c-0.906-4.246-1.23-7.663-0.836-8.794
		c0.273-0.785,1.031-1.417,1.985-1.658c0.412-0.104,0.446-0.186,0.511-1.208c0.23-3.62,2.147-6.812,4.629-7.707
		c3.908-1.41,7.408,0.771,11.723,7.305c0.389,0.589,0.702,0.987,0.778,0.987c0.076,0,0.465-0.503,0.979-1.266
		c3.905-5.79,6.655-7.762,10.21-7.325c3.326,0.409,5.582,3.482,5.952,8.107c0.081,1.009,0.075,1,0.688,1.155
		c2.29,0.583,2.508,2.846,0.996,10.342l-0.279,1.382l0.173,0.359c0.376,0.778,0.442,0.685,1.159-1.654
		c1.298-4.236,1.234-4.085,1.802-4.238c0.156-0.042,0.254-0.081,0.327-0.178c0.353,0.321,1.003,0.623,1.416,1.028
		C70.742,53.536,69.763,58.654,66.434,62.448z"/>
	<path fill="#222120" d="M59.493,43.499c-0.51-0.565-0.714-0.56-0.717,0.019c-0.002,0.59-0.352,0.615-0.767,0.054
		c-0.648-0.876-1.135-1.211-1.264-0.872c-0.042,0.11-0.076,0.294-0.076,0.41c0,1.484-0.851,4.352-1.793,6.045
		c-1.007,1.81-3.444,4.313-5.562,5.715c-0.854,0.565-0.509,1.185,0.609,1.091c2.075-0.173,8.183-3.704,10.754-6.217l0.773-0.755
		l-0.048-0.69C61.297,46.783,60.383,44.484,59.493,43.499z"/>
</g>
</svg>
