<?xml version="1.0" encoding="utf-8"?>
<!-- Generator: Adobe Illustrator 16.0.0, SVG Export Plug-In . SVG Version: 6.00 Build 0)  -->
<!DOCTYPE svg PUBLIC "-//W3C//DTD SVG 1.1//EN" "http://www.w3.org/Graphics/SVG/1.1/DTD/svg11.dtd">
<svg version="1.1" id="Layer_1" xmlns="http://www.w3.org/2000/svg" xmlns:xlink="http://www.w3.org/1999/xlink" x="0px" y="0px"
	 width="90px" height="90px" viewBox="0 0 90 90" enable-background="new 0 0 90 90" xml:space="preserve">
<path d="M67.82,50.519c-0.611-0.495-0.607-0.469-0.184-1.666c1.618-4.565,0.783-10.337-2.129-14.72
	c-2.521-3.794-6.098-6.68-11.917-9.615c-5.413-2.73-6.393-4.116-5.565-7.865c0.566-2.564,0.476-3.636-0.389-4.622
	c-0.731-0.832-2.476-1.225-4.168-0.938c-2.157,0.366-8.063,3.793-11.358,6.591c-9.688,8.229-15.09,22.835-11.971,32.368l0.271,0.828
	l-0.649,0.652c-3.872,3.885-0.926,12.346,4.705,13.514c0.262,0.054,0.502,0.15,0.536,0.212c0.033,0.063,0.223,0.466,0.421,0.896
	c2.801,6.079,8.545,9.986,15.906,10.82c10.119,1.147,19.308-3.866,22.214-12.119l0.149-0.422l0.681-0.256
	c2.32-0.873,4.255-3.088,5.208-5.965C70.588,55.164,69.916,52.219,67.82,50.519z M27.901,54.437
	c-0.027-1.519-0.014-3.18,0.032-3.864c0.258-3.864,4.092-8.104,8.501-9.401c0.327-0.096,0.918-0.275,1.314-0.398
	c0.846-0.262,1.913-0.448,3.68-0.642c0.95-0.104,1.994-0.154,3.078-0.154c2.715,0,5.68,0.315,8.027,0.889
	c1.604,0.392,1.66,0.428,1.742,1.114c0.417,3.467,2.833,6.807,6.328,8.75c0.382,0.212,0.829,0.523,0.992,0.691l0.297,0.304
	l0.064,1.184c0.036,0.651,0.083,2.033,0.105,3.071c0.022,1.038,0.077,1.984,0.122,2.102c0.072,0.191,0.164,0.281,0.264,0.281
	c0.202,0,0.438-0.374,0.616-1.042c0.098-0.367,0.298-0.938,0.446-1.268c0.147-0.33,0.327-0.924,0.4-1.32
	c0.073-0.396,0.206-0.882,0.297-1.08c0.091-0.198,0.241-0.648,0.334-1c0.126-0.476,0.221-0.679,0.458-0.679
	c0.15,0,0.358,0.081,0.667,0.226c2.49,1.166,2.623,4.761,0.289,7.813c-0.988,1.292-2.002,1.91-3.543,2.158
	c-0.31,0.05-0.705,0.421-0.705,0.662c0,0.26-0.917,2.408-1.374,3.22c-3.14,5.572-8.799,8.629-15.924,8.629
	c-0.271,0-0.546-0.004-0.822-0.014c-7.879-0.255-13.488-3.932-16.251-10.656c-0.514-1.25-0.461-1.206-1.518-1.26
	c-3.929-0.2-6.834-6.619-4.194-9.264c0.586-0.587,1.127-0.88,1.598-0.88c0.515,0,0.947,0.349,1.268,1.044
	c0.216,0.468,0.753,1.256,1.223,1.793c0.157,0.18,0.494,0.607,0.749,0.95c0.501,0.674,0.901,1.022,1.163,1.022
	c0.102,0,0.183-0.053,0.241-0.161C27.923,57.152,27.934,56.224,27.901,54.437z M22.154,39.853
	c1.842-10.521,8.79-19.886,18.395-24.796c2.906-1.486,3.935-1.813,4.88-1.556c0.776,0.211,0.853,0.54,0.525,2.248
	c-1.055,5.495,0.181,7.701,5.929,10.587c6.177,3.103,9.359,5.601,11.793,9.261c2.56,3.849,3.216,8.55,1.798,12.855
	c-0.149,0.451-0.31,1.042-0.42,1.525c-0.018,0-0.035-0.002-0.054-0.002c-0.563,0-1.079,0.193-1.489,0.544l-0.187-0.191l-0.297-0.304
	c-0.487-0.499-1.354-0.987-1.451-1.042c-2.937-1.632-4.973-4.407-5.314-7.241c-0.052-0.434-0.174-1.452-1.209-2.113
	c-0.519-0.331-1.125-0.479-2.043-0.704c-2.46-0.601-5.56-0.946-8.502-0.946c-1.18,0-2.29,0.056-3.296,0.167
	c-1.903,0.208-3.078,0.417-4.054,0.719c-0.396,0.123-0.974,0.298-1.287,0.39c-2.482,0.73-4.871,2.263-6.727,4.316
	c-1.913,2.115-3.051,4.555-3.206,6.871c-0.024,0.362-0.04,0.95-0.047,1.642c-0.915-1.313-2.133-1.473-2.667-1.473
	c-0.087,0-0.175,0.005-0.263,0.012C21.588,47.259,21.371,44.325,22.154,39.853z"/>
</svg>
