<?xml version="1.0" encoding="utf-8"?>
<!-- Generator: Adobe Illustrator 16.0.0, SVG Export Plug-In . SVG Version: 6.00 Build 0)  -->
<!DOCTYPE svg PUBLIC "-//W3C//DTD SVG 1.1//EN" "http://www.w3.org/Graphics/SVG/1.1/DTD/svg11.dtd">
<svg version="1.1" id="Layer_1" xmlns="http://www.w3.org/2000/svg" xmlns:xlink="http://www.w3.org/1999/xlink" x="0px" y="0px"
	 width="90px" height="90px" viewBox="0 0 90 90" enable-background="new 0 0 90 90" xml:space="preserve">
<g>
	<path d="M71.876,59.539c-1.476,0.572-1.415,0.572-1.304-0.021c0.292-1.576-0.552-3.279-1.967-3.973
		c-0.56-0.275-0.552-0.981,0.014-1.117c0.911-0.218,2.825-1.427,3.814-2.41c2.869-2.853,3.61-6.118,1.551-6.836
		c-0.392-0.137-0.42-1.671-0.948-2.114c-0.327-0.274-1.971-0.573-1.964-0.6c0.804-3.509,0.113-7.354-1.469-10.55
		c-1.198-2.421-3.119-4.628-5.167-5.939c-1.348-0.863-2.885-1.53-4.461-1.833c-0.16-0.031-3.499-0.39-3.498-0.487
		c0.045-2.92,1.655-5.864,1.413-8.794c-0.174-2.126-2.454-2.213-3.755-1.137c-1.33,1.099-2.575,2.315-3.848,3.479
		c-1.22-1.26-2.422-2.537-3.653-3.786c-0.718-0.729-1.327-1.422-2.397-1.42c-0.425,0-0.702,0.047-0.948,0.159
		c-1.042,0.473-1.937,1.801-2.712,2.6c-0.801,0.826-1.604,1.649-2.407,2.471c-1.098-1.007-2.168-2.047-3.289-3.028
		c-0.936-0.819-1.854-1.552-3.108-1.006c-1.179,0.514-1.406,1.369-0.976,3.682c0.402,2.161,1.171,4.577,1.198,6.767
		c-0.001-0.073-4.93,1.05-5.525,1.307c-5.857,2.525-9.759,9.944-8.714,16.566c0.087,0.55,0.159,1.018,0.159,1.04
		s-0.26,0.042-0.579,0.045c-0.676,0.006-1.34,0.292-1.744,0.847c-0.409,0.561-0.151,1.498-0.754,1.818
		c-2.489,1.321,0.043,6.396,4.298,8.612c0.853,0.444,0.837,0.676,1.072,1.542l-0.503,0.331c-1.251,0.822-1.899,2.466-1.556,3.945
		c0.161,0.69-1.242-0.042-1.45-0.116c-0.758-0.267-1.521-0.463-2.255-0.033c-0.726,0.425-1.014,0.902-1.284,2.471
		C12.253,67.282,15.26,71,20.315,71h0.779l0.374,0.741c2.931,5.045,12.111,5.7,17.939,1.233l0.51-0.366
		c1.375,0.407,2.897,0.917,4.341,0.888c1.405-0.027,2.901-0.488,4.225-0.929l0.716,0.537c5.906,4.398,14.875,3.756,17.812-1.277
		l0.356-0.609l1.095-0.041c4.338-0.164,6.976-2.873,6.975-7.162C75.435,60.124,74.24,58.622,71.876,59.539z M34.385,18.024
		c0.952,0.888,2.498,3.043,3.95,3.043c0.92,0,1.905-1.473,2.477-2.065c1.134-1.174,2.283-2.335,3.4-3.525
		c0.94,0.911,1.841,1.864,2.749,2.806c0.811,0.84,1.688,2.156,2.78,2.646c1.362,0.61,3.778-2.426,4.552-3.142
		c-0.417,2.424-0.812,4.857-1.295,7.27c-3.438,0.204-6.261,1.615-8.52,4.189c-2.185-2.686-5.548-4.209-9.001-4.209
		c-0.731-2.286-0.899-4.885-1.341-7.244C34.231,17.88,34.316,17.959,34.385,18.024z M17.46,48.412
		C17.41,48.336,18.614,50.151,17.46,48.412c-0.05-0.076-0.096-0.146-0.138-0.21c0.657,0.114,1.84,0.36,2.275-0.346
		c0.497-0.806-0.604-1.571-1.01-2.141c0.942,0.039,2.837-0.169,2.85-1.454c0.008-0.702-0.395-1.526-0.589-2.193
		c-0.262-0.9-0.253-1.779-0.252-2.711c0-4.492,2.117-8.671,5.526-10.907c2.05-1.345,4.315-1.688,6.724-1.832
		c1.173-0.07,2.122-0.06,3.288,0.056c1.039,0.103,2.22,0.711,3.231,0.682c0.825,0.082,1.773,0.969,2.383,1.459
		c0.676,0.544,1.786,2.353,2.677,2.353c0.951,0,1.775-1.477,2.391-2.057c0.671-0.631,1.424-1.203,2.293-1.531
		c0.778-0.294,1.562-0.555,2.38-0.711c0.713-0.136,1.781-0.052,2.438-0.401c1.007,0.348,2.376,0.105,3.442,0.212
		c0.99,0.099,1.976,0.27,2.927,0.565c1.816,0.566,3.37,1.629,4.645,3.032c1.381,1.521,2.216,3.035,2.979,5.401
		c0.482,1.493,0.533,3.163,0.422,4.716c-0.087,1.216-1.242,3.545-0.512,4.584c0.549,0.783,1.75,0.721,2.59,0.711
		c-0.427,0.585-1.365,1.28-0.989,2.111c0.096,0.211,0.354,0.565,1.011,0.565c0.263,0,0.605-0.048,1.207-0.171
		c-0.675,1.138-1.678,2.174-2.836,2.824c-0.846,0.475-1.729,0.63-2.603,1.006c-0.003-0.001-0.006-0.003-0.01-0.004l-0.014-0.021
		c-0.567-0.149-1.154-0.146-1.737-0.141c-1.573,0.003-1.925,0.094-2.825,1.221c-0.258,0.326-0.531,0.64-0.814,0.943
		c0.063-0.271,0.109-0.5,0.143-0.699c0.083-0.491,0.28-1.64-0.683-2.146c-2.04-1.083-3.94-2.229-5.602-3.861
		c-0.78-0.767-1.403-1.618-2.057-2.487c-0.399-0.53-0.635-1.315-1.302-1.569c-0.314-0.121-0.795-0.17-1.095,0.014
		c-0.22,0.137-0.354,0.374-0.461,0.602c-0.346,0.729,0.08,2.291,0.644,3.627c-1.249-0.703-2.371-1.651-3.296-2.743
		c-0.637-0.751-1.208-2.505-2.201-2.819c-0.236-0.096-0.472-0.099-0.709-0.009c-1.075,0.308-1.595,1.937-2.264,2.737
		c-0.931,1.115-2.039,2.082-3.301,2.798c0.161-0.434,0.425-1.537,0.498-1.669c0.365-0.664,0.277-1.442,0.088-2.129
		c-0.076-0.277-0.246-0.475-0.479-0.599L38.555,43h-0.198c-0.838,0-1.704,1.451-2.128,2.021c-0.786,1.055-1.641,2.053-2.606,2.95
		c-0.882,0.819-1.855,1.53-2.896,2.135c-0.875,0.509-2.6,0.951-2.767,2.132c-0.044,0.313,0.055,1.068,0.188,1.791
		c-0.262-0.29-0.514-0.589-0.754-0.896c-1.197-1.516-2.874-1.292-4.638-1.341C20.528,51.731,18.657,50.216,17.46,48.412z
		 M67.71,60.801c0.627,0.694,0.181,0.201,0.001,0.002c0.878,0.975,0.24,2.179-1.135,2.14c-1.228-0.035-0.884,0.883-1.84,1.299
		c-1.1,0.479-1.575-0.336-1.975-1.204c-0.185-0.401-1.337-0.183-1.702-0.269C60.462,62.627,60,62.176,60,61.589v-0.557l0.598-0.364
		c1.063-1.02-1.308-2.02-0.005-3.218L61.127,57h0.742c1.253,0,1.127-1.215,2.407-1.327c0.176-0.015,0.324-0.004,0.328-0.011
		c0.188-0.313,1.335,2.08,1.77,1.915c1.359-0.517,2.471,1.382,1.311,2.236C67.338,60.066,67.347,60.4,67.71,60.801z M61.942,56.018
		c0.038-0.039,0.077-0.078,0.115-0.117c-0.022,0.04-0.042,0.079-0.06,0.116C61.979,56.018,61.959,56.018,61.942,56.018z
		 M62.833,55.067c0.281-0.319,0.527-0.679,0.821-0.987c0.426-0.055,0.875-0.024,1.305-0.02c-0.011,0.149-0.043,0.325-0.11,0.555
		c-0.277-0.057-0.6-0.037-0.88-0.024l-0.044,0.077C63.472,54.738,63.115,54.885,62.833,55.067z M27.709,60.406
		C27.739,60.432,27.729,60.424,27.709,60.406c0.304,0.267,0.471,0.762,0.625,1.131l-0.188,0.482c-0.58,1.479-2.234,0.039-2.5,1.504
		c-0.213,1.18-2.117,1.121-2.449-0.076c-0.143-0.517-0.149-0.521-0.933-0.462c-1.479,0.11-2.14-0.979-1.328-2.187
		c0.416-0.62,0.417-0.573-0.013-0.991c-1.079-1.049-0.239-2.582,1.247-2.275c0.529,0.109,0.666,0.044,0.748-0.361
		c0.213-1.046,0.407-1.315,1.029-1.424c0.806-0.142,1.465,0.232,1.903,1.079l0.16,0.31l0.453-0.048
		c0.776-0.083,1.791,0.352,1.908,0.818C28.549,58.617,27.205,59.968,27.709,60.406z M23.342,54.01
		c0.632,0.018,1.395-0.084,1.999,0.097c0.604,0.542,1.068,1.301,1.633,1.888c-0.122-0.013-0.243-0.018-0.365-0.016
		c-0.17-0.235-0.379-0.471-0.546-0.634c-0.714-0.698-1.611-0.881-2.567-0.622C23.405,54.467,23.358,54.214,23.342,54.01z
		 M30.287,73.031c-2.606,0-5.982-0.963-6.771-3.802c-0.41-1.476-1.472-1.109-2.68-1.028c-1.528,0.103-3.142-0.353-4.107-1.607
		c-0.824-1.071-1.05-2.542-0.635-4.146c1.111,0.357,2.164,0.557,3.333,0.47c0.007,0.017,0.012,0.033,0.02,0.049
		c0.305,0.615,0.861,1.061,1.509,1.273c0.355,0.116,0.731,0.165,1.104,0.158c0.2,0.328,0.452,0.626,0.753,0.867
		c1.394,1.115,3.26,0.512,4.082-0.977c0.796-0.053,1.606-0.338,2.165-0.928c1.909,3.031,5.719,5.345,8.814,7.045
		C35.847,72.058,33.064,73.031,30.287,73.031z M48.563,68.849c-1.029,0.26-1.926,0.85-2.994,1.043
		c-1.089,0.197-2.196,0.124-3.27-0.129c-1.885-0.446-3.617-1.33-5.228-2.386c-1.802-1.183-3.758-2.459-5.243-4.032
		c-0.72-0.762-1.342-1.673-1.563-2.714c-0.11-0.519-0.124-1.049-0.265-1.563c-0.119-0.435-0.512-0.773-0.53-1.182
		c0.459,0.148,0.963,0.062,1.311-0.285c0.444-0.445,0.358-1.03,0.208-1.595c-0.284-1.067-0.645-2.024-0.8-3.129
		c1.808-0.951,3.5-1.966,4.999-3.372c0.017,0.148,0.059,0.272,0.101,0.365c0.808,1.786,3.703-0.128,4.772-0.676
		c1.703-0.871,3.431-2.648,4.41-4.276c1.561,2.375,4.165,4.483,6.681,5.333c0.81,0.273,1.996,0.602,2.471-0.398
		c0.063-0.132,0.098-0.262,0.112-0.387c1.486,1.347,3.251,2.558,5.062,3.439c-0.187,1.133-1.471,3.539-0.696,4.566
		c0.216,0.286,0.546,0.453,0.909,0.461c-0.998,0.692-0.835,2.351-1.269,3.367c-0.509,1.194-1.321,2.092-2.298,2.937
		c-1.979,1.709-4.349,3.556-6.792,4.573C48.656,68.81,48.636,68.819,48.563,68.849z M69.765,67.977
		c-0.587,0.145-1.201,0.193-1.804,0.193c-0.659,0-1.479-0.295-2.119-0.112c-0.887,0.254-0.964,1.545-1.373,2.218
		c-1.073,1.768-3.219,2.474-5.164,2.723c-3.054,0.393-6.431-0.708-8.792-2.65c1.429-0.788,2.765-1.715,4.083-2.675
		c1.769-1.289,3.71-2.69,4.778-4.66c0.347,0.546,0.903,0.924,1.524,1.091c0.556,0.149,0.691-0.05,1.008,0.458
		c0.205,0.328,0.477,0.612,0.799,0.826c1.334,0.887,3.12,0.343,3.887-1.016c0.96,0.03,1.802-0.24,2.387-1.038
		c0.089-0.122,0.163-0.258,0.224-0.402c1.083,0.076,2.132-0.123,3.153-0.475c0.008,0.046,0.017,0.091,0.024,0.135
		C72.869,65.265,71.792,67.479,69.765,67.977z"/>
	<path d="M25.583,58.118c-0.542-0.296-1.654-0.371-2.187-0.146c-2.372,0.999-1.88,4.451,0.671,4.718
		C26.787,62.974,27.966,59.418,25.583,58.118z M25.491,60.41c-0.274,1.196-2.071,1.315-2.235,0.02
		c-0.021-0.165-0.08-0.991,0.792-1.231c0.288-0.029,0.674,0.002,0.948,0.109C25.604,59.602,25.545,60.176,25.491,60.41z"/>
	<path d="M65.445,58.098c0.385,0.195,0.738,0.375-0.001-0.001c-0.872-0.442-0.419-0.212-0.001,0
		c-1.676-0.849-3.719,0.348-3.715,2.177c0.005,2.124,2.861,3.264,4.306,1.719C67.26,60.681,66.988,58.883,65.445,58.098z
		 M65.389,60.47C65.314,60.761,65.366,60.559,65.389,60.47c-0.267,1.034-1.735,1.252-2.148,0.208c-0.146-0.37-0.142-0.915,0.3-1.352
		c0.351-0.167,1.038-0.219,1.39-0.027c0.615,0.34,0.508,0.979,0.459,1.169C65.399,60.431,65.403,60.414,65.389,60.47z"/>
</g>
</svg>
