<?xml version="1.0" encoding="utf-8"?>
<!-- Generator: Adobe Illustrator 16.0.0, SVG Export Plug-In . SVG Version: 6.00 Build 0)  -->
<!DOCTYPE svg PUBLIC "-//W3C//DTD SVG 1.1//EN" "http://www.w3.org/Graphics/SVG/1.1/DTD/svg11.dtd">
<svg version="1.1" id="Layer_1" xmlns="http://www.w3.org/2000/svg" xmlns:xlink="http://www.w3.org/1999/xlink" x="0px" y="0px"
	 width="90px" height="90px" viewBox="0 0 90 90" enable-background="new 0 0 90 90" xml:space="preserve">
<path d="M68.895,65.526c0.355-0.854,0.771-1.304,0.574-2.838c-0.078-0.606-0.822-1.891-0.472-2.408
	c1.574-2.324,1.928-4.788,1.688-7.56c-0.247-2.86-1.165-5.626-2.221-8.278c-0.438-1.102-1.586-2.804-1.473-4.044
	c0.152-1.652,0.578-3.313,0.841-4.953c0.447-2.772,1.178-5.326,0.011-7.979c-1.228-2.79-2.464-5.462-4.458-7.803
	c-3.943-4.628-9.602-7.444-15.59-8.258c-10.602-1.441-21.49,3.397-26.152,13.3c-1.414,3.009-1.909,5.086-1.574,8.396
	c0.165,1.632,0.369,3.261,0.667,4.875c0.293,1.59-1.141,2.714-2.165,3.895c-1.012,1.166-2.053,2.328-3.147,3.416
	c-0.974,0.967-2.551,1.65-3.244,2.845c-1.715,2.958,2.852,3.31,4.55,3.233c-0.044,1.566,0.273,3.121,0.76,4.604
	c0.25,0.758,2.045,4.181,1.567,4.484c-3.581,2.273-1.499,5.769,0.172,8.691c0.728,1.274,1.492,2.575,2.387,3.742
	c1.297,1.692,2.735,0.969,4.359,0.201c3.568-1.688,7.671-2.201,11.576-2.382c7.762-0.361,15.283,0.631,23.158,2.714
	c1.573,0.416,4.08,1.496,5.729,1.084c1.246-0.312,2.457-1.883,3.092-2.924C72.281,67.063,67.726,67.979,68.895,65.526z
	 M64.757,60.715c-0.423-2.222-3.13,1.202-3.531,1.592c-1.548,1.502-2.199,1.838-4.285,2.37c0.73-1.443,1.653-2.727-0.128-4.583
	c-1.213-1.265-2.396,0.163-2.958,0.844c-1.292,1.563-2.034,1.617-3.852,2.844c0.302-0.99,0.431-1.191,0.591-2
	c0.358-1.81-0.695-2.201-2.219-1.844c0.919-5.048,0.903-11.006-0.531-15.938c1.969-0.094,3.182-0.064,4.875-0.219
	c2.021-0.185,4.304-0.367,6.313-0.656c0.983-0.142,5.063-1.008,5.731-0.021c0.305,0.449,0.04,0.36,0.258,0.875
	C67.208,49.154,69.796,56.308,64.757,60.715z M67.288,63.936c-0.305,1.806-0.594,1.283-2.147,0.923
	c-1.415-0.328-1.461-0.4-2.77-0.771c0.557-0.53,0.507-0.516,1.148-1.309c0.893,1.475,2.59-0.233,3.229-0.914
	C67.148,62.796,67.466,62.899,67.288,63.936z M53.182,15.943c2.32,1.217,4.743,2.372,6.609,4.26
	c-0.688,0.442-2.157,0.965-1.962,2.035c0.245,1.336,2.212,0.325,2.839-0.002c1.723-0.897,3.636,4.984,4.06,6.303
	c-1.921,0.541-3.881,0.978-5.87,1.172c-1.194,0.117-1.782,0.475-2.364-0.662c-0.393-0.767-0.795-1.528-1.219-2.277
	c-1.687-2.98-3.539-6.016-6.441-7.914C50.131,17.794,51.597,15.114,53.182,15.943z M46.873,13.375
	c1.392,0.19,2.812,0.585,4.158,0.984c-0.843,0.59-1.127,1.297-1.863,2.008c-1.301,1.259-0.896,1.995-2.98,0.851
	c-2.533-1.389-5.979-2.613-8.798-3.172C40.711,13.257,43.485,12.909,46.873,13.375z M23.471,28.212
	c0.383-1.042,0.921-2.028,1.355-3.05c0.604-1.425,0.703-1.725,2.173-1.215c2.138,0.737,4.188,1.711,6.32,2.442
	c0.844,0.289,3.026-0.065,1.696-1.249c-1.973-1.753-5.284-2.635-7.667-3.694c1.894-2.308,6.075-6.09,9.323-5.763
	c3.574,0.36,7.681,2.259,10.662,4.171c3.315,2.125,5.498,5.527,7.301,8.969c0.438,0.835,0.859,1.678,1.287,2.517
	c1.184,0.035,2.368-0.025,3.543-0.172c2.028-0.253,3.977-0.948,5.987-1.21c0.001,0.771-0.218,3.73-1.017,4.169
	c-1.571,0.861-4.096,0.857-5.842,1.226c-3.859,0.818-7.861,0.696-11.681,1.459c-1.468,0.293-1.795,1.924-0.094,1.974
	c1.684,0.05,3.441-0.339,5.114-0.509c1.859-0.189,3.724-0.329,5.582-0.526c2.175-0.231,4.631-1.079,6.795-0.963
	c-0.074,1.912-0.154,3.419-2.265,3.737c-1.771,0.266-3.737,0.67-5.523,0.791c-4.132,0.278-8.317,0.872-12.46,0.872
	c-3.043,0-6.011,0.167-8.977-0.507c-1.178-0.269-2.262-0.057-2.93-1.117c-0.739-1.173-2.089-1.188-3.293-1.194
	c-0.966-0.006-2.144,0.181-3.079-0.113c-1.763-0.554-1.642-0.747-1.997-2.461C23.238,34.14,22.502,30.841,23.471,28.212z
	 M37.047,46.734c0.844,0.495,4.5,2.415,3.976-0.279c-0.35-1.795-3.018-2.641-4.461-3.201c2.709,0.503,5.903,0.141,8.657,0.083
	c1.282-0.027,1.325,1.114,1.506,2.42c0.239,1.733,0.329,3.518,0.461,5.262c-4.368-0.125-8.133-0.457-12.349-1.741
	c-0.931-0.284-1.881-0.502-2.808-0.801c-0.998-0.321-0.661-1.464-0.311-2.79C32.25,43.683,35.782,45.986,37.047,46.734z
	 M31.319,49.506c2.754,0.677,5.168,1.617,7.951,2.18c2.69,0.542,5.279,0.308,7.975,0.497c0.053,1.928-0.105,3.872-0.286,5.79
	c-0.107,1.143,0.132,1.936-1.226,1.662c-0.949-0.192-1.908-0.253-2.867-0.379c-1.492-0.197-3.627-0.548-4.929-1.036
	c-0.434-1.145,0.147-1.056-5.316-2.105C30.967,55.795,31.31,50.977,31.319,49.506z M16.421,48.34
	c2.704-2.345,4.854-4.946,6.976-7.805c1.371,0.606,2.753,1.337,4.295,1.318c0.91-0.012,3.175-0.686,2.715,1.021
	c-0.88,3.265-1.526,5.901-1.313,9.345c0.236,3.827,0.923,6.238,2.455,9.684c-3.221-1.528-5.455-3.715-6.893-8.278
	c-0.308-0.976-1.671-4.767-2.624-2.023c-0.595,1.711-1.145,3.097-0.845,5.305c-1.026-2.325-1.74-3.509-1.421-6.115
	C20.123,47.883,19.104,47.676,16.421,48.34z M23.406,60.531c-0.389-1.247-0.277-2.795,0.012-4.11
	c0.613,2.297,1.226,3.329,3.036,4.525C25.608,60.722,24.135,60.62,23.406,60.531z M68.097,69.835L68.097,69.835
	c-1.529,4.086-4.45,1.958-7.527,1.223c-4.025-0.96-8.139-1.638-12.257-2.029c-7.138-0.678-15.947-1.16-22.64,1.893
	c-1.384,0.631-1.699,1.432-2.818-0.005c-1.09-1.4-2.073-2.903-2.819-4.508c-0.475-1.019-1.385-2.788-0.287-3.795
	c2.151,0.166,4.021-0.047,6.173,0.115c1.215,0.092,3.678,0.328,4.655,0.91c0.715,0.425,2.483,1.498,3.335,1.498
	c2.136,0-1.134-5.706-1.297-6.313c4.528,0.764,9.129,1.225,13.637,2.06c-0.27,0.827,0.558,1.937,1.905,1.555
	c-0.823,1.671-1.656,5.406,0.262,4.582c2.898-1.247,5.294-2.121,6.716-3.938c-0.271,1.12-2.428,2.886-0.628,3.809
	c0.747,0.383,2.424-0.038,3.135-0.281c1.543-0.527,1.874-0.822,3.462-0.667C62.693,66.099,68.769,68.027,68.097,69.835
	C68.104,69.814,68.107,69.806,68.097,69.835z"/>
</svg>
