<?xml version="1.0" encoding="utf-8"?>
<!-- Generator: Adobe Illustrator 16.0.0, SVG Export Plug-In . SVG Version: 6.00 Build 0)  -->
<!DOCTYPE svg PUBLIC "-//W3C//DTD SVG 1.1//EN" "http://www.w3.org/Graphics/SVG/1.1/DTD/svg11.dtd">
<svg version="1.1" id="Layer_1" xmlns="http://www.w3.org/2000/svg" xmlns:xlink="http://www.w3.org/1999/xlink" x="0px" y="0px"
	 width="90px" height="90px" viewBox="0 0 90 90" enable-background="new 0 0 90 90" xml:space="preserve">
<path d="M55.277,33.296c0.017-0.161,0.034-0.323,0.05-0.484c1.366,0.192,2.735,0.212,4.099-0.02
	c1.788-0.304,3.189-1.473,4.843-1.881c1.112-0.274,2.391,0.232,3.621-0.18c1.339-0.448,3.337-1.194,4.47-1.991
	c2.521-1.773,2.565-4.924-0.302-6.037c-2.875-1.116-5.644-3.064-7.958-5.078c-1.188-1.033-2.235-2.391-3.885-2.671
	c-2.077-0.352-3.22,1.479-4.523,2.723c-0.32,0.305-3.59,3.082-3.766,2.755c-0.737-1.378-0.78-2.777-1.913-4.021
	c-2.071-2.274-5.443-2.825-8.336-2.106c-1.62,0.402-3.069,1.325-4.053,2.682c-0.383,0.528-1.081,3.299-1.42,3.459
	c-1.041,0.488-4.669-3.926-5.435-4.599c-1.999-1.755-4.165-0.636-5.759,0.964c-1.792,1.797-3.965,3.277-6.154,4.546
	c-1.471,0.853-4.475,1.356-4.802,3.269c-0.448,2.617,1.647,4.591,4.07,5.067c1.063,0.21,1.847,1.008,2.951,1.233
	c0.922,0.189,2.065-0.221,2.888-0.015c1.017,0.254,2.003,1.105,3.036,1.447c1.399,0.461,2.88,0.676,4.353,0.602
	c1.902-0.097,1.676-0.522,2.051,1.374c0.272,1.371,0.708,2.813,1.506,3.978c0.349,0.507-2.399,4.229-2.806,5.078
	c-0.306,0.641-2.083,0.849-2.673,1.076c-1.394,0.536-2.744,1.191-4.038,1.936c-4.727,2.72-8.411,6.813-9.869,12.148
	c-1.031,3.772-0.928,9.683,3.835,10.789c5.542,1.286,6.354-4.96,7.489-8.726c-0.283,4.416,1.994,8.691,6.598,9.604
	c1.83,0.362,2.062,1.066,3.648,2.168c1.959,1.36,4.347,2.034,6.719,2.085c2.17,0.047,4.364-0.423,6.296-1.42
	c1.771-0.913,2.707-2.468,4.629-2.788c4.688-0.78,6.739-4.677,6.95-9.084c0.893,3.927,2.336,9.541,7.589,8.087
	c4.67-1.293,4.545-7.45,3.451-11.147c-1.863-6.297-6.878-10.698-12.772-13.224c-0.896-0.385-2.733-0.586-3.457-1.234
	c-0.703-0.63-1.049-2.269-1.604-3.075c-0.538-0.781-1.348-1.367-1.354-2.138C54.456,36.86,55.088,35.123,55.277,33.296z
	 M38.891,25.481c-0.282-0.704,1.091,0.053,1.396,0.053c1.302-0.071,2.152-1.423,3.117-2.14c0.89-0.66,1.464,0.091,2.146,0.722
	c1.527,1.416,1.76,1.179,3.679,1.058c-0.11-0.13-1.524,2.688-1.38,3.526c0.25,1.458-2.843,0.048-3.703,0.048
	c-0.569,0-3.75,0.933-3.82,0.423c-0.11-0.8,0.17-1.651-0.222-2.406C39.831,26.245,39.079,25.97,38.891,25.481
	C38.814,25.29,38.907,25.524,38.891,25.481z M36.006,31.626c-0.001-0.547,1.129-5.716,2.456-4.612c0.835,0.7,0.248,1.843,0.565,2.79
	c0.437,1.305,1.835,1.083,2.854,0.732c1.198-0.415,2.546-0.506,3.78-0.196c0.958,0.24,1.991,0.862,2.936,0.189
	c1.094-0.777,0.07-4.94,2.184-3.183c1.898,1.578,2.025,4.019,1.583,6.262c-0.249,1.259-0.669,2.408-1.393,3.48
	c-0.73,1.083-1.768-0.025-2.908-0.322c-2.921-0.761-6.599-0.81-9.353,0.579C36.749,38.335,36.009,32.951,36.006,31.626
	C36,29.247,36.012,34.103,36.006,31.626z M51.537,23.838c2.302-1.089,4.396-2.802,6.22-4.557c2.34-2.255,2.309-1.679,4.735,0.399
	c1.887,1.615,3.954,2.903,6.065,4.182c1,0.606,2.188,0.89,3.165,1.48c0.09,0.859-1.19,1.534-1.832,1.757
	c-0.618,0.214-1.354,0.021-1.83,0.471c-0.657,0.62-1.294,0.88-2.202,0.928c-1.861,0-2.103-0.286-3.767,0.672
	c-0.976,0.563-2.113,1.037-3.236,1.157c-1.345,0.145-2.966,0.085-4.203-0.53c-1.183-0.588-0.846-0.806-1.613-1.941
	C52.241,26.522,49.127,24.979,51.537,23.838C53.5,22.909,51.108,24.041,51.537,23.838z M39.014,20.354
	c0.76-2.944,4.106-4.35,6.906-3.382c3.239,1.117,3.354,3.974,3.577,6.942c-0.972,0.026-1.511,0.627-2.273-0.01
	c-1.168-0.976-2.8-3.073-4.428-1.602c-0.517,0.461-2.031,2.27-2.725,1.862c-0.74-0.437-1.322,0.173-1.29-0.809
	C38.813,22.39,38.77,21.296,39.014,20.354C39.479,18.553,38.904,20.779,39.014,20.354z M33.97,29.645
	c-2.57,1.316-5.755,0.807-8.15-0.661c-1.885-1.155-3.958,0.272-5.604-1.424c-0.281-0.29-5.439-1.624-3.171-2.388
	c1.852-0.63,3.531-1.774,5.153-2.843c2.04-1.345,3.775-3.529,5.839-4.713c0.975-0.559,3.925,3.067,4.862,3.767
	c0.974,0.729,1.993,1.489,3.066,2.062c0.533,0.285,1.112,0.586,1.703,0.73c-0.079,0.58-0.355,0.997-0.29,1.608
	c-0.425,0.736-1.489,1.234-1.97,2.096C34.948,28.703,35.068,29.486,33.97,29.645z M44.208,55.012c1.8,0,2.484-1.056,3.949-1.665
	c1.162-0.233,3.067,0.687,4.123,1.094c2.324,0.896,5.377,2.869,6.146,5.374c0.825,2.688-0.184,6.12-2.942,7.197
	c-1.037,0.404-2.51,0.03-3.436,0.469c-1.192,0.564-2.058,2.292-3.375,2.976c2.766-3.411-1.145-5.149-3.816-6.956
	c-1.177-0.796-3.201,1.713-4.138,2.289c-2.091,1.286-2.732,2.54-0.9,4.748c-1.341-0.68-2.285-2.553-3.586-2.983
	c-1.292-0.427-2.573-0.12-3.826-0.838c-2.451-1.405-3.329-5.001-2.074-7.483c1.147-2.269,3.854-4.097,6.183-4.953
	c0.537-0.197,3.658-0.652,3.812-0.96C41.762,53.966,42.415,55.012,44.208,55.012z M40.077,67.794
	c0.646-0.464,4.175-2.973,4.425-2.733c1.119,1.075,4.357,2.102,3.614,3.649C46.48,72.112,40.68,71.812,40.077,67.794
	C40.21,67.698,40.082,67.823,40.077,67.794z M27.672,57.527c0.577-1.605,1.587-3.141,2.885-4.253
	c0.819,2.095-3.565,3.047-3.056,4.793C27.558,57.887,27.615,57.707,27.672,57.527C28.186,56.098,27.431,58.201,27.672,57.527z
	 M57.811,54.246c0.011-0.269,0.04-0.536,0.088-0.801c0.537-0.532,2.516,3.771,2.67,3.862C60.234,57.107,57.758,54.383,57.811,54.246
	C57.833,54.188,57.785,54.312,57.811,54.246z M55.664,48.996c0.224,1.831,0.229,3.813,0.048,5.647
	c-1.528-1.396-5.794-3.146-7.873-2.67c2.489-5.083-9.464-5.349-7.218-0.032c-2.254-0.448-6.069,1.338-7.825,2.686
	c-0.93-6.113,0.914-13.146,6.55-16.021c1.707-0.86,3.816-0.987,5.689-0.877c1.152,0.068,2.313,0.253,3.409,0.626
	c0.669,0.228,1.444,0.838,2.168,0.838c0.549,1.141,2.351,2.089,3.069,3.336C54.814,44.498,55.39,46.756,55.664,48.996
	C55.78,49.946,55.117,44.528,55.664,48.996z"/>
</svg>
