<?xml version="1.0" encoding="utf-8"?>
<!-- Generator: Adobe Illustrator 16.0.0, SVG Export Plug-In . SVG Version: 6.00 Build 0)  -->
<!DOCTYPE svg PUBLIC "-//W3C//DTD SVG 1.1//EN" "http://www.w3.org/Graphics/SVG/1.1/DTD/svg11.dtd">
<svg version="1.1" id="Layer_1" xmlns="http://www.w3.org/2000/svg" xmlns:xlink="http://www.w3.org/1999/xlink" x="0px" y="0px"
	 width="90px" height="90px" viewBox="0 0 90 90" enable-background="new 0 0 90 90" xml:space="preserve">
<g>
	<path d="M77.453,45c-1.1-2.276-4.177-3.851-6.031-5.511c-0.778-0.697-5.532-4.186-4.608-4.79c1.574-1.03,4.393-1.995,4.594-4.131
		c0.247-2.628-3.681-3.183-5.483-3.708c-3.274-0.954-6.67-1.508-10.088-1.282c-1.22,0.08-2.707,0.857-3.483-0.31
		c-0.76-1.141-1.591-2.212-2.474-3.263c-1.943-2.313-4.167-4.78-6.636-6.554c-2.843-2.041-3.379,1.645-3.903,3.3
		c0.305-0.963-10.419-6.188-11.788-6.527c-4.841-1.189-3.018,6.867-2.802,9.319c0.216,2.456,0.492,4.908,0.87,7.346
		c0.207,1.304-3.707,0.797-4.707,0.858c-1.715,0.105-4.077-0.003-5.646,0.805c-1.751,0.907-0.912,3.27,0.061,4.359
		c1.129,1.266,2.495,2.294,3.845,3.306c1.278,0.957-1.577,2.405-2.329,3.048c-1.566,1.337-3.125,2.672-4.716,3.979
		c-2.332,1.916-0.655,4.056,1.185,5.415c1.689,1.249,3.531,2.272,5.378,3.268c0.995,0.537,2.144,0.962,3.078,1.596
		c0.343,0.232-0.246,2.556-0.292,2.893c-0.237,1.731-1.113,4.809,0.923,5.857c1.288,0.664,2.507-0.33,3.385-1.192
		c-0.007,0.502,0.355,1.424-0.021,1.78c-0.624,0.59-1.245,1.183-1.792,1.848c-1.134,1.379-2.073,3.163-1.597,4.994
		c0.866,3.326,5.041,4.892,7.94,5.93c3.211,1.149,6.599,2.113,9.993,2.516c0.973,0.115,2.14,0.278,3.035-0.234
		c1.388-0.794,0.647-4.245,0.1-3.976c0.501-0.246,2.804,0.686,3.169,0.091c-4.265,6.94,9.092,2.973,11.945,2.058
		c4.618-1.479,12.567-5.276,7.782-11.084c-0.931-1.129-2.226-1.681-2.022-3.175c0.175-1.288-0.224-3.136,0.347-4.315
		c0.162-0.336,2.282,0.12,2.886-0.146c0.968-0.428,1.23-1.438,1.095-2.41c-0.137-0.979-0.979-1.895,0.073-2.467
		c1.474-0.8,2.885-1.709,4.252-2.678C75,50.372,78.968,48.048,77.453,45z M26.79,72.539c-3.536-2.571,1.405-5.806,3.55-7.391
		c0.82,1.335,0.264,1.501,0.039,2.983c-0.104,0.684-0.024,1.533,0.229,2.212c0.798,2.64,3.512,4.473,5.676,5.894
		C33.076,75.468,29.499,74.509,26.79,72.539z M32.055,67.816c0.377,0.483,0.816,0.93,1.449,1.053
		c0.509,0.092,0.943-0.05,1.307-0.425c0.425,0.402,0.859,0.794,1.305,1.175c0.515,0.438,2.072,1.712,2.079,1.754
		c0.367,2.238,1.689,4.089,3.161,5.748C38.551,75.113,30.557,72.754,32.055,67.816z M40.209,70.323
		c-1.73-1.19-4.636-2.826-5.13-4.966c-0.654-2.83-1.036-5.637-1.135-8.544c-0.017-0.511-0.311-3.006,0.118-3.266
		c1.394,0.247,2.729,0.747,4.051,1.234c1.232,0.454,5.769,2.087,4.137-1.36c-0.172-0.766,1.137-2.574,1.068-1.998
		c0.547,1.826,1.915,5.938,4.292,3.152c0.565,2.736,7.063-0.833,8.556-1.085c0.174,2.647-0.073,5.365-0.396,7.994
		c-0.335,2.729-0.521,5.159-2.842,6.812c-1.912,1.361-3.905,2.77-6.015,3.805C44.367,73.354,42.365,71.811,40.209,70.323z
		 M48.481,77.397c0.484-0.586,2.223-1.886,2.223-2.781c0-1.052,1.216-3.403,2.011-3.959c0.744-0.521,1.504-1.021,2.223-1.577
		c1.017-0.786,1.946-0.102,2.925-1.136C59.073,73.363,51.378,74.755,48.481,77.397z M63.808,72.155
		c-2.742,2.245-6.59,3.155-9.937,4.054c2.438-1.48,6.229-4.376,5.702-7.702c-0.224-1.478-0.629-2.006,0.188-3.325
		C61.42,66.422,66.588,69.88,63.808,72.155z M74.939,47.38c-2.405,2.057-5.152,3.796-7.89,5.373
		c-1.164,0.671-1.877,0.81-1.343,2.206c0.077,0.202,0.861,2.275,0.341,2.205c-2.437-0.231-1.708-1.175-3.263,1.296
		c-1.039,1.656-0.002,3.972-0.927,5.521c-0.299,0.473-1.75-1.262-2.246-1.212c-0.325,0.033-1.441,2.332-1.678,2.696
		c-0.221,0.34-1.935,2.873-1.759,1.169c0.245-2.383,0.998-4.715,1.192-7.143c0.147-1.839,0.817-5.069,0.065-6.854
		c-0.603-1.418-3.464,0.026-4.406,0.318c-0.26,0.081-4.064,1.487-4.064,1.234c0-1.288,3.979-1.832,4.776-1.981
		c1.9-0.355,2.913-0.236,1.104-1.782c-0.425-0.363-3.474-3.815-3.804-3.582c-0.598,0.422-0.951,1.696-1.348,2.346
		c-0.731,1.198-1.498,2.385-2.349,3.503c-3.163,4.159-2.739-4.89-3.608-4.359c-0.864,0.526-2.523,5.307-3.326,2.833
		c-0.159-0.489-0.838-4.168-1.026-4.099c-0.903,0.325-1.938,1.871-2.637,2.524c-0.346,0.323-3.037,2.051-1.783,2.365
		c0.439,0.109,6.909,1.499,6.207,2.378c-0.281,0.354-4.166-1.407-4.574-1.522c-2.346-0.668-4.33-0.963-4.08,2.091
		c0.205,2.5,0.197,4.975,0.533,7.47c0.058,0.426,1.178,5.051,0.668,5.098c-0.885,0.082-2.495-3.616-2.816-4.301
		c-0.551-1.237-1.825,0.868-2.479,0.844c-1.599-0.058,0.913-8.255-2.759-4.316c-0.402,0.438-2.48,3.228-2.202,1.114
		c0.2-1.523,0.363-3.053,0.71-4.551c0.389-1.681,0.008-2.155-1.498-2.868c-2.17-1.027-4.277-2.244-6.313-3.516
		c-0.459-0.287-3.742-2.035-2.817-2.747c1.583-1.199,3.09-2.493,4.586-3.796c1.498-1.304,2.988-2.618,4.539-3.858
		c1.477-1.177-0.981-2.142-1.958-2.938c-1.286-1.052-2.616-2.153-3.711-3.409c-0.911-1.046,2.333-0.924,2.815-0.968
		c1.961-0.178,3.92-0.262,5.889-0.239c1.442,0.016,2.867,0.593,2.545-1.277c-0.621-3.545-1.013-7.088-1.295-10.675
		c-0.056-0.709-0.887-5.188-0.027-5.427c1.283-0.356,4.403,2.01,5.494,2.63c2.689,1.528,5.38,3.186,7.698,5.242
		c3.037,2.693,0.743-6.013,2.292-4.637c2.754,2.446,5.297,5.181,7.536,8.105c0.665,0.868,1.312,2.626,2.638,2.43
		c2.175-0.322,4.328-0.52,6.53-0.384c3.156,0.195,6.255,1.026,9.191,2.14c1.235,0.468-0.464,1.281-0.979,1.603
		c-1.451,0.907-2.891,1.837-4.371,2.696c-1.084,0.628,0.853,1.646,1.323,2.04c1.66,1.391,3.283,2.823,4.896,4.269
		c1.614,1.444,3.217,2.9,4.838,4.337C75.018,45.903,76.164,46.332,74.939,47.38z M49.684,51.899
		c0.638-0.912,1.217-1.865,1.723-2.856c0.592,0.646,1.22,1.262,1.867,1.853C52.06,51.154,50.829,51.407,49.684,51.899z
		 M39.06,51.471c-0.519-0.092-1.153-0.252-1.781-0.487c0.453-0.409,0.898-0.825,1.338-1.248C38.734,50.321,38.882,50.9,39.06,51.471
		z"/>
	<path d="M27.512,57.64c-0.387,0.574,1.672,3.738,2.392,3.603c0.312-0.059-0.793-3.405-0.857-3.675
		C28.668,56.02,28.303,56.463,27.512,57.64z"/>
	<path d="M62.501,55.388c-1.086-0.475-1.17,0.319-1.361,1.488c-0.084,0.515-1.124,4.277-0.948,4.298
		c0.866,0.104,1.782-2.823,2.074-3.299C62.987,56.696,64.045,56.312,62.501,55.388z"/>
</g>
</svg>
