<?xml version="1.0" encoding="utf-8"?>
<!-- Generator: Adobe Illustrator 16.0.0, SVG Export Plug-In . SVG Version: 6.00 Build 0)  -->
<!DOCTYPE svg PUBLIC "-//W3C//DTD SVG 1.1//EN" "http://www.w3.org/Graphics/SVG/1.1/DTD/svg11.dtd">
<svg version="1.1" id="Layer_1" xmlns="http://www.w3.org/2000/svg" xmlns:xlink="http://www.w3.org/1999/xlink" x="0px" y="0px"
	 width="90px" height="90px" viewBox="0 0 90 90" enable-background="new 0 0 90 90" xml:space="preserve">
<g id="svgg_2_">
	<path id="path1_1_" fill="none" stroke="#000000" stroke-width="1.6" stroke-miterlimit="10" d="M63,38.792
		c-0.397,0.228-1.352,0.784-2.122,1.235s-1.562,0.909-1.761,1.017c-0.198,0.108-0.869,0.492-1.49,0.853
		c-0.621,0.361-1.434,0.826-1.805,1.034c-0.373,0.207-1.083,0.615-1.581,0.905c-0.496,0.291-1.146,0.667-1.444,0.834
		c-0.754,0.426-0.952,0.645-1.012,1.117c-0.066,0.522-0.297,0.763-1.083,1.123c-0.746,0.343-3.431,1.253-4.785,1.624l-0.92,0.251
		l-0.706-0.148c-1.422-0.299-3.134-0.891-4.82-1.667c-0.867-0.4-1.167-0.699-1.167-1.165c0-0.438-0.123-0.619-0.611-0.899
		c-0.235-0.134-0.752-0.434-1.149-0.667c-0.639-0.373-1.871-1.084-4.605-2.657c-1.208-0.695-2.547-1.471-4.044-2.341
		c-1.929-1.122-1.858-1.184-1.316,1.17c0.205,0.891,0.402,1.821,0.438,2.068c0.063,0.438,0.105,0.488,1.561,1.896
		c5.483,5.304,9.468,9.243,9.586,9.479c0.076,0.151,0.199,0.54,0.272,0.862c0.073,0.323,0.24,1.034,0.371,1.58
		c0.226,0.948,0.479,2.069,0.846,3.748c0.093,0.421,0.254,1.112,0.357,1.535c0.222,0.903,0.931,3.974,1.23,5.327
		c0.115,0.521,0.372,1.619,0.569,2.438c0.197,0.82,0.428,1.836,0.512,2.257c0.084,0.423,0.234,0.951,0.333,1.174
		c0.099,0.224,0.217,0.663,0.263,0.975c0.046,0.313,0.165,0.728,0.264,0.924c0.1,0.195,0.24,0.63,0.312,0.966
		c0.366,1.719,0.457,1.828,1.539,1.828c1.081,0,1.25-0.187,1.633-1.794c0.076-0.317,0.219-0.737,0.318-0.932
		c0.1-0.194,0.258-0.686,0.353-1.092c0.095-0.406,0.271-1.124,0.39-1.596c0.231-0.906,0.522-2.155,1.24-5.327
		c0.242-1.068,0.544-2.388,0.671-2.935c0.127-0.546,0.311-1.358,0.406-1.806c0.096-0.447,0.215-0.955,0.264-1.129
		c0.083-0.287,0.479-2.02,1.189-5.191c0.145-0.646,0.308-1.346,0.363-1.556c0.104-0.39,0.605-0.896,7.935-8.021
		c0.72-0.7,1.771-1.723,2.336-2.272c0.902-0.877,1.021-1.027,0.971-1.226c-0.032-0.13,0.035-0.588,0.159-1.07
		C64.151,38.051,64.158,38.126,63,38.792"/>
	<path id="path2" fill="#06060C" d="M41.827,12.202c-11.016,1.132-20.155,9.277-22.845,20.358c-0.104,0.431,0.166,0.312-3.25,1.437
		c-2.757,0.908-2.892,0.98-3.308,1.758c-0.161,0.302-0.168,0.679-0.168,8.307v7.99l0.195,0.423c0.323,0.698,0.649,0.863,3.711,1.882
		c3.114,1.036,2.956,0.958,3.239,1.597c0.177,0.399,1.52,3.292,2.381,5.127c0.14,0.298,0.538,1.151,0.884,1.896
		c0.346,0.745,0.817,1.753,1.046,2.24c0.229,0.487,0.417,0.916,0.417,0.954c0,0.233,1.299,1.462,8.083,7.641
		c1.636,1.49,3.981,3.632,5.212,4.76c1.76,1.613,2.314,2.072,2.599,2.148c0.553,0.149,10.089,0.083,10.36-0.072
		c0.2-0.114,0.863-0.706,3.773-3.369c2.539-2.324,6.912-6.315,8.442-7.705c0.817-0.742,1.909-1.778,2.426-2.303l0.941-0.953
		l2.376-5.147c2.584-5.597,2.631-5.697,2.781-5.821c0.056-0.046,1.331-0.493,2.832-0.991c4.485-1.489,4.003-0.215,3.97-10.49
		l-0.025-7.799l-0.2-0.373c-0.406-0.76-0.353-0.734-4.18-2.004l-2.664-0.884l-0.416-1.439c-1.327-4.6-3.422-8.218-6.652-11.487
		c-2.081-2.107-5.52-4.523-7.665-5.387c-0.29-0.117-0.811-0.332-1.159-0.478c-0.607-0.256-2.351-0.841-3.386-1.136
		C49.188,12.203,44.804,11.896,41.827,12.202 M47.901,14.542c0.833,0.103,1.727,0.244,1.986,0.315s0.736,0.193,1.059,0.271
		c1.308,0.319,3.289,1.044,3.997,1.462l0.292,0.172l-0.012,0.806c-0.007,0.443-0.061,0.968-0.121,1.167
		c-0.06,0.198-0.143,0.666-0.184,1.038c-0.162,1.433-0.286,2.439-0.452,3.657c-0.095,0.695-0.2,1.508-0.234,1.806
		c-0.034,0.298-0.113,0.689-0.176,0.869c-0.11,0.313-0.213,1.048-0.4,2.833c-0.241,2.315-0.475,3.936-0.636,4.404
		c-0.212,0.615-0.368,3.154-0.2,3.257c0.289,0.179,0.729-1.061,0.883-2.486c0.068-0.631,0.19-1.301,0.27-1.49
		c0.273-0.641,0.481-1.424,0.679-2.556c0.109-0.621,0.298-1.434,0.42-1.806c0.122-0.373,0.318-1.232,0.437-1.909
		c0.117-0.677,0.311-1.511,0.43-1.851c0.119-0.341,0.244-0.822,0.278-1.071c0.137-1,0.463-2.394,0.724-3.093
		c0.08-0.211,0.204-0.754,0.277-1.207c0.206-1.276,0.247-1.287,1.538-0.413c4.148,2.804,8.129,8.204,9.218,12.501
		c0.123,0.484,0.301,1.123,0.397,1.421c0.096,0.298,0.219,0.772,0.274,1.055c0.168,0.874,0.438,1.056,2.526,1.702
		c3.552,1.101,4.282,1.393,4.481,1.791c0.176,0.354,0.122,13.87-0.056,14.037c-0.162,0.151-0.086,0.124-3.377,1.238
		c-3.094,1.048-2.872,0.882-3.751,2.796c-0.354,0.769-0.827,1.764-1.049,2.212c-0.223,0.447-0.404,0.847-0.402,0.887
		c0.001,0.042-0.144,0.367-0.323,0.723c-0.178,0.356-0.424,0.912-0.545,1.234c-0.121,0.323-0.313,0.729-0.427,0.903
		c-0.113,0.174-0.462,0.885-0.776,1.58c-1.07,2.373-1.067,2.369-2.155,3.352c-0.543,0.491-1.754,1.604-2.691,2.473
		c-2.537,2.354-4.325,3.98-4.753,4.322c-0.21,0.167-0.747,0.655-1.193,1.083c-0.447,0.429-1.422,1.328-2.167,1.996
		c-0.745,0.668-1.639,1.486-1.986,1.816c-0.911,0.866-0.737,0.838-5.05,0.813c-4.304-0.025-3.97,0.045-5.153-1.086
		c-0.397-0.38-1.006-0.933-1.353-1.229c-0.347-0.296-1.038-0.928-1.535-1.405c-0.897-0.86-1.876-1.746-2.982-2.7
		c-0.317-0.273-0.989-0.882-1.494-1.354s-1.35-1.262-1.878-1.756s-1.695-1.559-2.592-2.365c-1.71-1.539-1.932-1.819-2.301-2.89
		c-0.098-0.284-0.294-0.723-0.435-0.974c-0.141-0.251-0.489-0.965-0.774-1.585c-0.561-1.221-0.863-1.867-1.568-3.349
		c-0.25-0.526-0.564-1.217-0.698-1.535c-0.134-0.318-0.335-0.741-0.448-0.94c-0.112-0.198-0.318-0.658-0.458-1.021
		c-0.292-0.759-0.65-1.132-1.235-1.284c-0.211-0.054-0.893-0.276-1.513-0.494c-0.621-0.216-1.312-0.441-1.536-0.499
		c-0.482-0.126-2.342-0.876-2.504-1.01c-0.153-0.127-0.167-13.798-0.015-14.083c0.122-0.226,1.002-0.633,1.998-0.923
		c0.411-0.12,1.235-0.382,1.831-0.583c0.596-0.2,1.323-0.431,1.616-0.512c0.859-0.237,1.319-1,1.319-2.189
		c0-1.213,2.111-5.904,3.747-8.329c1.453-2.154,6.084-6.441,6.805-6.3c0.213,0.042,0.824,1.896,1.019,3.095
		c0.097,0.596,0.293,1.451,0.437,1.901c0.143,0.45,0.364,1.367,0.493,2.039c0.128,0.671,0.312,1.445,0.408,1.72
		c0.097,0.275,0.242,0.861,0.323,1.303c0.246,1.353,0.594,2.933,0.73,3.319c0.071,0.202,0.23,0.953,0.354,1.669
		s0.309,1.49,0.413,1.719c0.395,0.874,0.552,1.443,0.672,2.441c0.127,1.047,0.238,1.345,0.409,1.09
		c0.124-0.185,0.024-1.044-0.194-1.664c-0.129-0.369-0.205-0.931-0.269-2.019c-0.117-1.967-0.217-2.799-0.437-3.646
		c-0.099-0.381-0.226-1.112-0.281-1.625c-0.057-0.513-0.14-1.205-0.187-1.537s-0.085-0.803-0.085-1.045
		c0-0.242-0.057-0.64-0.126-0.885c-0.069-0.245-0.152-0.668-0.184-0.942c-0.031-0.273-0.114-0.761-0.183-1.083
		c-0.139-0.651-0.262-1.642-0.413-3.341c-0.056-0.621-0.187-1.472-0.292-1.891c-0.106-0.419-0.194-1.048-0.197-1.396l-0.005-0.632
		l0.361-0.204c0.318-0.18,1.24-0.56,2.708-1.117c0.249-0.094,0.713-0.216,1.031-0.271c0.318-0.055,0.725-0.157,0.903-0.225
		c0.368-0.142,1.632-0.377,2.897-0.541C43.528,14.306,46.17,14.33,47.901,14.542 M25.076,56.795
		c-0.083,0.133,0.358,1.416,0.881,2.569c0.248,0.545,0.542,1.256,0.654,1.581c0.112,0.324,0.313,0.853,0.446,1.175
		c0.132,0.323,0.346,0.842,0.473,1.152c0.217,0.529,0.383,0.708,2.591,2.796c3.174,3,3.193,3.018,4.481,4.19
		c0.621,0.565,1.383,1.28,1.695,1.589c1.541,1.529,2.606,2.384,2.692,2.16c0.047-0.122-0.503-1.531-0.87-2.225
		c-0.279-0.53-0.808-1.715-0.808-1.811c0-0.05-0.158-0.404-0.351-0.788c-0.193-0.383-0.455-0.945-0.583-1.248
		c-0.127-0.303-0.553-1.219-0.947-2.035l-0.716-1.485l-1.284-1.08c-0.707-0.594-1.433-1.194-1.614-1.333
		c-0.181-0.139-0.716-0.576-1.188-0.97c-2.083-1.742-3.435-2.844-4.063-3.315c-0.373-0.278-0.811-0.622-0.974-0.761
		C25.274,56.684,25.166,56.65,25.076,56.795 M64.791,56.878c-0.157,0.096-0.319,0.231-0.361,0.301
		c-0.042,0.07-0.198,0.205-0.347,0.299c-0.276,0.174-0.874,0.658-2.182,1.768c-0.406,0.344-0.984,0.817-1.285,1.05
		c-0.302,0.234-1.039,0.831-1.637,1.328c-1.331,1.104-2.341,1.925-2.91,2.368c-0.324,0.253-0.514,0.51-0.783,1.06
		c-0.47,0.962-1.903,4.117-1.903,4.19c0,0.031-0.178,0.422-0.396,0.87c-0.939,1.932-1.14,2.369-1.14,2.494
		c0,0.073-0.078,0.285-0.173,0.473c-0.252,0.496-0.368,0.861-0.287,0.911c0.189,0.117,2.119-1.57,5.017-4.384
		c0.747-0.726,1.521-1.455,1.719-1.62c0.199-0.166,0.79-0.71,1.313-1.208c0.523-0.5,1.468-1.388,2.1-1.976
		c0.63-0.587,1.146-1.13,1.146-1.206c0-0.076,0.2-0.591,0.443-1.145c0.244-0.553,0.566-1.351,0.717-1.773
		c0.263-0.735,0.49-1.297,1.107-2.731C65.448,56.791,65.405,56.503,64.791,56.878"/>
</g>
</svg>
