<?xml version="1.0" encoding="utf-8"?>
<!-- Generator: Adobe Illustrator 16.0.0, SVG Export Plug-In . SVG Version: 6.00 Build 0)  -->
<!DOCTYPE svg PUBLIC "-//W3C//DTD SVG 1.1//EN" "http://www.w3.org/Graphics/SVG/1.1/DTD/svg11.dtd">
<svg version="1.1" id="Layer_1" xmlns="http://www.w3.org/2000/svg" xmlns:xlink="http://www.w3.org/1999/xlink" x="0px" y="0px"
	 width="90px" height="90px" viewBox="0 0 90 90" enable-background="new 0 0 90 90" xml:space="preserve">
<g>
	<path d="M74.305,34.807c-0.594-0.084-3.726,0.416-3.615-0.31c0.296-1.963,0.231-3.982-0.213-5.918
		c-0.878-3.835-3.346-6.991-6.251-9.543c-5.731-5.037-13.115-8.096-20.792-8.034c-6.833,0.055-13.688,2.657-19.013,6.912
		c-2.45,1.958-4.615,4.346-6.045,7.155c-0.773,1.521-1.298,3.146-1.517,4.84c-0.104,0.805,0.308,5.087-0.44,5.029
		c-2.472-0.193-5.223-0.259-5.399,2.947c-0.232,4.198,1.477,8.277,2.938,12.122c2.622,6.905,5.925,15.344,12.152,19.764
		c1.406,0.999,2.007,1.4,2.666,2.999c0.626,1.519,2.168,2.357,3.665,2.84c1.86,0.6,3.867,0.723,5.805,0.554
		c2.005-0.174,4.539-1.598,6.474-0.989c2.784,0.875,5.616,1.396,8.528,0.752c1.393-0.309,2.744-0.905,3.787-1.896
		c1.331-1.266,1.235-2.791,2.828-3.802c3.362-2.127,5.107-4.971,7.145-8.243c0.956-1.535,2.271-2.775,3.19-4.354
		c1.138-1.95,2.115-4.006,2.992-6.085C74.316,48.873,80.16,35.675,74.305,34.807z M22.969,24.582
		c6.226-7.307,16.135-11.476,25.7-9.609c8.852,1.727,20.15,9.248,18.531,19.539c-3.417-1.273-7.396-2.084-11.042-2.27
		c2.842-1.386,4.423-4.701,3.882-7.757c-0.622-3.508-3.211-5.369-6.477-6.191c-7.413-1.865-11.638,8.791-5.855,13.158
		c-2.72,0.012-5.44,0-8.16-0.003c6.159-5.348-0.055-14.576-7.416-12.528c-6.14,1.708-7.292,10.055-1.812,13.352
		c-1.894,0.095-3.934,0.543-5.788,0.933c-1.248,0.263-2.983,0.46-4.122,1.004C19.645,29.359,19.974,28.097,22.969,24.582z
		 M33.805,34.448c5.47-0.254,10.44-0.672,15.941-0.359c5.788,0.326,11.176,1.751,16.834,2.723c-0.271,1.37-3.144,0.138-4.405-0.047
		c-2.124-0.311-4.262-0.512-6.39-0.795c-4.085-0.544-8.127-0.738-12.247-0.758c-3.831-0.019-7.729-0.147-11.502,0.644
		c-2.057,0.432-4.158,0.556-6.244,0.77c-1.04,0.106-2.079,0.237-3.104,0.439c-1.12,0.221-1.925,1.098-2.228-0.274
		c2.165-0.227,4.168-1.188,6.317-1.498C29.115,34.956,31.441,34.561,33.805,34.448z M32.482,20.764
		c3.74-1.373,5.936,1.117,7.601,4.018c0,2.832-1.429,6.376-4.626,6.376C29.038,31.89,25.846,23.2,32.482,20.764z M47.776,28.606
		c-3.075-6.089,4.117-10.955,9.035-6.388C62.531,27.53,51.136,35.269,47.776,28.606z M74.44,39.682
		c-0.849,6.238-3.542,13.214-7.182,18.331c-2.111,2.97-3.808,6.353-6.559,8.8c-1.244,1.106-3.128,1.677-4.248,2.813
		c-1.003,1.018-0.259,2.453-1.879,3.341c-3.501,1.919-6.959,0.65-10.482-0.316c-1.315-0.362-3.027,0.826-4.311,1.085
		c-1.986,0.401-4.053,0.462-6.019-0.078c-1.194-0.328-2.688-0.913-3.162-2.179c-0.205-0.547,0.026-1.079-0.154-1.601
		c-0.213-0.616-1.447-0.979-1.948-1.257c-3.512-1.946-5.981-5.411-7.541-9.032c-1.869-4.341-4.104-8.354-5.685-12.829
		c-0.384-1.088-3.592-9.347-1.14-9.641c0.782-0.094,4.867,0.161,4.478,1.245c-0.408,1.133,1.133,2.332,1.763,2.99
		c1.693,1.768-3.734,4.855-0.127,6.832c2.374,1.302,6.7-2.125,4.924-4.653c-0.789-1.123-1.659-1.5-0.879-2.941
		c0.31-0.572,0.731-1.119,0.944-1.739c0.793-0.59,3.022-0.594,3.998-0.741c8.602-1.3,17.56-1.204,26.186-0.196
		c1.792,0.209,3.578,0.468,5.355,0.778c1.334,0.233,1.81,1.246,2.267,2.549c0.368,1.049-0.636,1.391-1.115,2.155
		c-0.791,1.259,0.047,3.044,0.979,3.962c1.813,1.784,5.229,1.419,5.093-1.619c-0.05-1.108-0.618-1.712-1.243-2.542
		c-1.14-1.516,0.5-1.539,0.892-2.876c0.57-1.943,0.843-2.284,2.854-2.901C72.843,36.697,74.859,36.596,74.44,39.682z"/>
	<path d="M62.473,53.031c-0.656-0.616-2.937-3.89-3.803-2.936c-1.641,1.804-3.063,3.878-4.563,5.799
		c-0.639-2.928-0.068-4.926-3.188-6.471c-0.626-0.31-1.695-0.087-2.386-0.087c-0.421,0-1.684-2.106-2.241-2.483
		c-1.097-0.742-2.438-0.958-3.714-0.614c-0.754,0.202-1.428,0.66-1.977,1.204c-0.28,0.277-1.184,1.994-1.531,1.994
		c-1.921,0-3.508-0.186-4.768,1.613c-1.067,1.523-0.657,3.077-1.061,4.745c-1.476-1.933-2.895-4.011-4.555-5.79
		c-0.774-0.829-3.305,2.682-3.983,3.248c-1.702,1.423-5.99-7.363-7.407-6.631c-0.279,0.144,3.466,7.46,3.665,7.87
		c1.088,2.245,1.998,4.751,3.365,6.84c0.701,1.072,2.398-2.057,2.769-2.519c0.63-0.785,1.236-2.311,2.126-1.187
		c1.456,1.84,2.697,3.872,4.021,5.809c1.071,1.563,2.867-0.042,4.223-0.686c1.067-0.508,2.2-0.96,3.227-1.55
		c0.752,0.271,1.528,0.547,2.323,0.644c1.388,0.17,2.526-0.139,3.802-0.636c0.938,0.638,2.098,1.041,3.116,1.525
		c0.952,0.452,2.43,1.52,3.543,1.535c0.703,0.009,2.046-2.798,2.374-3.279c0.419-0.617,1.92-3.752,2.813-3.867
		c1.057-0.135,3.086,3.554,3.8,4.285c0.811,0.832,1.624-2.017,1.871-2.521c0.471-0.959,6.405-11.769,5.777-12.295
		C69.079,47.526,64.014,54.479,62.473,53.031z"/>
</g>
</svg>
