<?xml version="1.0" encoding="utf-8"?>
<!-- Generator: Adobe Illustrator 16.0.0, SVG Export Plug-In . SVG Version: 6.00 Build 0)  -->
<!DOCTYPE svg PUBLIC "-//W3C//DTD SVG 1.1//EN" "http://www.w3.org/Graphics/SVG/1.1/DTD/svg11.dtd">
<svg version="1.1" id="Layer_1" xmlns="http://www.w3.org/2000/svg" xmlns:xlink="http://www.w3.org/1999/xlink" x="0px" y="0px"
	 width="90px" height="90px" viewBox="0 0 90 90" enable-background="new 0 0 90 90" xml:space="preserve">
<path d="M78.71,43.848c-9.203-8.572-11.729-23.399-25.424-26.665c-5.992-1.429-13.401-1.1-18.944,1.68
	c-2.079,1.045-3.96,1.505-5.841,3.046c-3.105,2.543-5.792,5.666-8.051,8.974c-1.844,2.699-3.381,5.577-4.005,8.807
	c-0.192,0.997-2.235-0.683-2.961-0.937c-1.184-0.415-2.342-0.355-3.108,0.739c-1.33,1.901,1.13,4.827,2.037,6.356
	c1.896,3.194,3.32,6.638,5.277,9.804c1.218,1.969,2.601,4.017,4.487,5.408c2.263,1.67,3.737,4.179,5.507,6.384
	c3.967,4.943,11.64,7.02,17.69,5.911c2.109-0.387,4.228-0.882,6.193-1.755c1.651-0.732,2.827-1.918,4.328-2.844
	c1.893-1.167,4.01-1.908,5.888-3.159c1.931-1.286,3.752-2.735,5.453-4.312c3.316-3.075,6.14-6.608,9.079-10.032
	C78.266,48.981,81.758,46.87,78.71,43.848z M43.928,19.721c6.021-0.443,12.096,0.684,16.656,4.852
	c4.799,4.385,6.954,10.441,10.681,15.602c-1.378-0.146-2.947,1.075-4.052,1.834c-0.15-7.197-6.438-14.029-11.347-18.396
	c-1.257-1.118-2.856-2.549-4.626-2.549c-2.558,0-3.72,2.2-5.707,3.361c-0.968,0.566-3.828,0.115-5.063,0.278
	c-1.401,0.186-3.371-2.313-4.602-3.063C38.432,20.22,42.729,19.994,43.928,19.721z M68.417,44.05
	c-2.936,4.862-2.991,6.855-6.539,11.328c1.007-2.618,1.053-2.461,1.622-5.203C64.177,46.919,65.682,45.514,68.417,44.05z
	 M22.938,57.542c-3.104-4.241-5.382-8.703-8.105-13.167c2.209,0.938,5.459,1.958,5.959,5.237
	C21.263,52.701,21.805,54.606,22.938,57.542z M25.144,60.229c1.45-0.69-0.69-5.827-1.061-6.97c-0.911-2.795-0.835-5.821-3.083-8
	c-1.007-0.976-2.058-1.076-2.346-2.51c-0.275-1.366-0.115-2.779,0.276-4.106c0.67-2.269,1.952-4.37,3.267-6.315
	c2.462-3.643,5.686-7.96,9.682-10.038c1.019-0.53,3.054,1.224,3.851,1.854c0.884,0.699,1.692,1.683,2.614,2.325
	c1.045,0.729,2.224,0.382,3.688,0.375c1.88-0.009,2.923,0.128,4.031-0.25c0.951-0.324,1.626-1.317,2.406-1.938
	c1.931-1.534,2.774-1.736,4.781-0.313c3.415,2.424,7.305,6.344,9.344,10.092c0.959,1.763,1.834,3.086,2.125,4.781
	c0.185,1.07,0.312,1.635,0.365,3.26c0.035,1.056-0.081,1.401-0.915,2.189c-0.572,0.541-1.188,1.062-1.627,1.717
	c-1.51,2.254-1.498,4.692-2.25,7.25c-0.648,2.395-0.482,2.966-1.44,5.133c0.271-1.396,0.279-1.763,0.44-3.174
	c0.201-1.764,0.396-2.405,0.646-4.112c0.486-3.315-3.496-1.099-4.354-0.396c0.881-3.77,0.587-5.446,0.083-9.158
	c-0.339-1.95-0.977-4.145-1.375-6.083c-0.411-2.004-2.8-2.264-4.333-1.875c-2.516,0.639-4.685,2.299-7.125,3.042
	c-1.713,0.521-4.605-1.772-6.208-2.334c-1.241-0.436-4.279-1.215-5.083,0.542c-0.966,2.112-1.754,4.961-2.042,7.25
	c-0.44,3.554-0.777,4.926-0.453,8.814c-1.185-0.605-0.819-0.464-1.963-1.135c-1.233-0.729-1.99,0.523-1.6,2.354
	c0.763,3.572-0.15,6.501,1.025,9.867C25.778,61.507,25.747,61.166,25.144,60.229z M54.14,65.647
	c-2.959,3.548-8.32,4.866-12.749,4.664c-4.224-0.193-8.436-1.912-11.213-5.194c-2.761-3.263-1.385-8.158-2.02-11.468
	c1.721,1.128,4.102,2.081,3.186-3.587c1.936,0.755,8.007,5.324,9.061,2.969c0.934-2.093-6.43-5.617-7.695-6.136
	c-1.801-0.734-1.627-1.689-1.313-3.515c0.357-2.07,0.806-3.778,1.437-5.789c0.314-1.004,0.539-1.341,1.523-1.137
	c1.302,0.269,1.961,0.561,3.189,1.063c1.624,0.665,3.497,2.09,5.331,1.741c1.013-0.193,9.041-4.261,9.325-2.89
	c0.261,1.283,2.673,9.099,1.056,9.876c-2.246,1.08-8.487,3.301-9.159,6.103c-0.775,3.229,8.044-1.309,9.148-1.561
	c-0.186,0.951-1.461,3.658,0.463,3.653c1.137,0.252,2.754-1.154,3.582-1.689C56.585,56.978,56.521,62.792,54.14,65.647z
	 M75.873,46.961c-1.924,1.972-3.603,4.161-5.396,6.249c-3.833,4.464-8.107,8.72-13.379,11.458c0.734-1.125,1.798-2.027,2.365-3.27
	c0.729-1.587,2.789-2.412,3.809-3.901c1.741-2.555,3.313-5.212,4.712-7.972c0.681-1.342,1.218-2.777,2.067-4.027
	c0.704-1.036,2.058-2.733,2.248-3.947c1.024,1.305,2.125,2.55,3.298,3.723C76.66,46.336,76.627,45.872,75.873,46.961z"/>
</svg>
