<?xml version="1.0" encoding="utf-8"?>
<!-- Generator: Adobe Illustrator 16.0.0, SVG Export Plug-In . SVG Version: 6.00 Build 0)  -->
<!DOCTYPE svg PUBLIC "-//W3C//DTD SVG 1.1//EN" "http://www.w3.org/Graphics/SVG/1.1/DTD/svg11.dtd">
<svg version="1.1" id="Layer_1" xmlns="http://www.w3.org/2000/svg" xmlns:xlink="http://www.w3.org/1999/xlink" x="0px" y="0px"
	 width="90px" height="90px" viewBox="0 0 90 90" enable-background="new 0 0 90 90" xml:space="preserve">
<path d="M69.795,55.648c-2.393-1.798-3.304-4.829-5.239-7.074c-0.306-0.354-3.322-2.795-3.249-3.03
	c0.499-1.618,1.105-3.147,1.394-4.833c0.545-3.187,0.389-6.79-1.29-9.64c-0.668-1.134-1.606-2.124-2.798-2.708
	c-0.996-0.489-1.652-2.406-2.426-3.264c-1.097-1.215-2.375-2.261-3.688-3.23c-0.849-0.626-3.464-1.797-3.406-3.108
	c0.114-2.563,4.923-0.666,5.872-2.848c1.13-2.596-2.194-4.495-4.161-5.179c-3.574-1.241-7.764-0.97-10.952,1.149
	c-0.687,0.457-1.891,2.213-2.638,2.381c-1.034,0.232-2.671-0.583-3.896-0.404c-1.392,0.203-3.228,0.827-3.784,2.269
	c-0.237,0.613-0.211,1.309,0.072,1.902c0.245,0.514,1.376,1.035,1.406,1.538c0.076,1.256-1.33,3.277-2.03,4.271
	c-0.78,1.108-1.913,1.259-3.019,1.946c-2.911,1.81-4.634,5.374-4.958,8.707c-0.141,1.452-0.897,1.304-1.957,2.191
	c-1.085,0.91-1.889,2.023-2.386,3.352c-1.136,3.027-0.751,6.552,0.535,9.468c0.622,1.41,1.481,2.724,2.573,3.815
	c1.141,1.14,0.627,1.494,0.25,2.939c-0.667,2.552-0.497,5.244,0.406,7.716c3.936,10.783,18.389,15.818,28.919,14.776
	c6.354-0.629,12.235-3.519,16.94-7.785C70.707,66.957,76.234,60.482,69.795,55.648z M29.122,27.089
	c2.051-0.567,3.28-4.04,3.959-5.741c0.33-0.824,0.787-1.893,0.359-2.77c-0.532-1.091-2.165-1.655-0.065-2.236
	c1.17-0.323,2.494-0.122,3.538,0.487c1.763,1.027,1.466-0.065,2.689-1.427c1.687-1.876,4.315-3.024,6.84-2.957
	c0.775,0.021,6.993,1.065,6.161,2.336c-0.296,0.451-2.664,0.414-3.271,0.656c-1.147,0.455-2.059,1.342-2.34,2.568
	c-0.73,3.188,2.597,4.642,4.684,6.237c1.678,1.284,3.646,2.84,4.363,4.917c-2.04,0.163-2.551,3.07-4.515,3.663
	c-1.119,0.338-2.855-1.173-3.683-1.709c-3.089-2-6.586-4.589-10.447-4.589c-10.902,0-8.008,14.381-3.854,20.007
	c-0.769,0.295-1.461,0.745-2.093,1.269c-0.621-3.815-3.011-11.59-8.079-11.336C23.52,32.662,25.021,28.225,29.122,27.089z
	 M63.98,68.218c-5.278,4.831-12.149,7.509-19.333,6.985c-7.022-0.512-15.413-3.824-19.396-9.952
	c-2.037-3.134-2.379-6.903-0.628-10.256c0.789-1.513,0.488-2.446-0.978-3.298c-1.4-0.816-2.366-2.272-2.983-3.736
	c-1.13-2.682-1.613-7.176,1.523-8.757c2.545-1.283,4.321,1.767,5.256,3.683c0.742,1.521,1.255,3.153,1.559,4.816
	c0.2,1.091-0.027,3.54,1.643,3.54c1.526,0,2.601-2.17,4.123-2.591c1.687-0.808,2.263-1.537,0.938-3.239
	c-2.815-3.621-6.67-13.789-0.305-16.133c5.986-2.204,10.094,5.308,15.447,5.964c1.223,0.149,2.438-0.461,3.365-1.208
	c0.417-0.336,1.884-2.521,2.279-2.438c3.303,0.697,3.03,5.934,2.675,8.395c-0.212,1.468-0.581,2.952-1.245,4.284
	c-0.509,1.022-1.806,2.199-0.89,3.401c0.579,0.76,1.986,0.929,2.778,1.508c1.43,1.046,2.577,2.481,3.532,3.959
	c0.852,1.318,1.443,2.826,2.525,3.985c1.015,1.086,2.675,1.837,3.311,3.229C70.305,62.837,65.493,66.833,63.98,68.218z"/>
</svg>
