<?xml version="1.0" encoding="utf-8"?>
<!-- Generator: Adobe Illustrator 16.0.0, SVG Export Plug-In . SVG Version: 6.00 Build 0)  -->
<!DOCTYPE svg PUBLIC "-//W3C//DTD SVG 1.1//EN" "http://www.w3.org/Graphics/SVG/1.1/DTD/svg11.dtd">
<svg version="1.1" id="Layer_1" xmlns="http://www.w3.org/2000/svg" xmlns:xlink="http://www.w3.org/1999/xlink" x="0px" y="0px"
	 width="90px" height="90px" viewBox="0 0 90 90" enable-background="new 0 0 90 90" xml:space="preserve">
<path d="M75.671,37.158c0.794-2.225-1.31-3.609-2.946-4.63c-1.541-0.962-5.697-1.9-5.913-3.841
	c-0.575-5.176-2.264-9.915-6.531-13.219c-4.524-3.504-10.321-4.537-15.884-4.464c-5.966,0.078-11.965,1.454-16.355,5.87
	c-1.806,1.815-2.882,3.749-3.636,6.188c-0.39,1.264-0.952,2.625-1.094,3.938c-0.25,2.313,0.375,1.906-2.282,2.94
	c-3.879,1.51-10.951,4.613-6.416,9.37c0.978,1.026,2.65,2.181,4.026,3.127c2.018,1.387,1.984,1.38,1.671,1.948
	c-1.649,2.997-3.646,5.806-4.71,9.093c-1.336,4.127-1.813,9.008,0.375,12.932c2.432,4.363,6.8,5.611,10.656,8.257
	c1.572,1.079,2.978,2.292,4.923,1.177c2.342-1.344,3.848-4.437,4.751-6.854c1.066-2.853,1.319-5.965,0.682-8.946
	c-0.173-0.812-3.176-6.877-3.885-8.044c1.021,0.479,4.042,1.917,4.5,2.063c1.953,0.619,4.537,1.315,6.589,1.46
	c1.674,0.117,3.531-0.555,5.115-0.984c0.728-0.198,7.324-2.332,7.567-2.976c-0.362,0.958-1.759,2.729-2.188,3.479
	c-0.787,1.377-1.435,2.836-1.897,4.354c-0.909,2.984-1.086,6.219-0.208,9.232c0.807,2.77,2.412,5.341,4.959,6.829
	c2.328,1.36,4.292-0.396,6.363-1.57c5.177-2.936,9.928-5.969,11.062-12.226c0.809-4.464-0.434-10.582-3.341-14.251
	c0.065,0.082,0.375,0.474-0.001-0.002c-0.913-1.148-1.524-2.903-2.115-4.244C69.58,43.325,75.229,38.398,75.671,37.158z
	 M15.422,36.115c0.497-1.976,5.948-3.783,7.469-4.507c-0.215,3.475-0.741,6.584-1.497,10.014
	C20.161,40.949,14.942,38.029,15.422,36.115z M24.132,70.728c-1.857-0.962-4.033-2.272-5.191-4.078
	c-1.19-1.85-2.149-3.564-2.154-5.809c0.965,0.308,2.107-0.058,3.107,0.046c1.434,0.149,2.624,0.704,3.649,1.715
	c0.843,0.83,1.407,2.021,1.61,3.178C25.494,67.721,24.4,68.941,24.132,70.728z M34.812,60.615c-1.91-0.361-3.816-0.266-4.662-2.45
	c-0.753-1.946,0.325-3.06,1.485-4.397C32.706,56.032,33.948,57.798,34.812,60.615z M47.266,52.731
	c-5.259,1.239-11.824-1.422-15.897-4.769c-0.924-4.089-1.563-8.529-0.97-12.685c1.825,0.887,4.606,0.832,6.585,0.969
	c3.103,0.214,6.209,0.248,9.319,0.232c1.12-0.005,2.244-0.006,3.363-0.063c0.307-0.016,3.172-0.79,2.954-0.97
	c1.506,1.229,4.739,0.485,6.289-0.224c0.062,0.428,0.271,9.514-0.271,11.333C58.21,50.072,50.05,52.076,47.266,52.731z
	 M55.924,70.483c-0.668-1.108-0.937-2.225-1.348-3.421c-0.513-1.491-0.37-3.481-0.178-5.018c2.101,1.13,4.738-0.342,5.766,2.771
	c0.448,1.355,0.067,2.886-0.968,3.875C58.25,69.595,56.756,69.426,55.924,70.483z M73.038,59.06
	C73.047,58.962,73.05,58.93,73.038,59.06L73.038,59.06z M73,59.352c0-0.003,0-0.007,0-0.011C73,59.345,73,59.349,73,59.352z
	 M73,59.458c-0.168,1.754-0.446,3.413-1.229,5.025c-0.863-0.979-2.392-1.406-3.375-2.296c-1.032-0.932-1.731-2.031-1.902-3.412
	c-0.188-1.52,0.202-3.081,1.136-4.301c1.015-1.325,2.563-1.583,3.701-2.667C72.465,54.206,73.257,56.77,73,59.458z M70.354,49.813
	c-0.583,0.438-0.718,0.699-1.679,1.22c-2.955,1.599-4.655,4.883-4.131,8.22c0.251,1.597,0.999,3.096,2.127,4.254
	c0.633,0.65,4.056,2.148,3.62,2.807c-1.447,2.185-4.313,3.779-6.625,5.042c-1.849,1.01-4.5,3.938-6.437,1.104
	c-0.384-0.563,1.82-1.304,2.126-1.457c1.373-0.685,2.369-2.015,2.787-3.475c0.731-2.554-0.483-5.386-2.868-6.569
	c-0.91-0.451-1.934-0.649-2.946-0.611c-1.249,0.041-1.288-0.427-0.829-1.514c1.152-2.728,2.588-4.972,3.833-7.688
	c2.313-5.041,1.899-10.553,1.638-15.563c-0.056-1.063-0.892-6.92-2.458-7.158c0.25,0.037,0.719,4.688-1.008,5.185
	c-0.92,0.265-1.899,0.432-2.858,0.432c-1.448,0-1.33-2.148-1.627-3.229c-0.757-2.743-1.097-1.143-1.363,0.813
	c-0.42,3.085-1.518,2.818-4.375,2.849c-3.476,0.036-6.953,0.01-10.421-0.24c-1.17-0.084-5.185-0.346-5.89-1.514
	c-0.293-0.485,0.266-4.328-0.253-4.328c-1.436,0-2.134,5.508-2.264,6.376c-0.444,2.964-0.302,5.895,0.125,8.853
	c0.211,1.469,0.502,2.929,0.761,4.389c0.204,1.148,0.649,2.229,1.008,3.333c0.382,1.174-1.302,2.099-1.81,3.078
	c-1.114,2.144-0.656,4.801,1.083,6.471c0.917,0.882,2.116,1.418,3.373,1.584c1.917,0.253,2.207,0.401,1.915,2.495
	c-0.36,2.588-1.842,7.394-4.313,8.781c-0.873,0.49-2.916-1.196-3.594-1.656c-0.511-0.347-0.562-0.375-0.859-0.75
	c0.406-1.031,0.625-1.68,0.894-2.814c0.766-3.226-0.672-6.328-3.209-8.298c-1.326-1.029-3.13-1.357-4.772-1.388
	c-2.569-0.047-2.293,0.153-1.897-1.969c1.008-5.407,4.414-8.502,5.931-13.722c2.906-10,0.104-22.888,10.682-27.601
	c6.873-3.062,17.983-2.925,24.386,1.257c5.714,3.731,6.379,10.756,6.688,16.995c0.16,3.227,0.947,5.903,1.947,9.07
	c0.406,1.287,1.13,2.693,1.75,3.875C69.001,47.625,69.943,48.913,70.354,49.813z M68.49,40.983
	c-0.809-3.079-1.633-5.832-1.733-9.034c1.681,1.321,5.474,2.167,6.646,3.945C74.146,37.021,69.32,40.464,68.49,40.983z"/>
</svg>
