<?xml version="1.0" encoding="utf-8"?>
<!-- Generator: Adobe Illustrator 16.0.0, SVG Export Plug-In . SVG Version: 6.00 Build 0)  -->
<!DOCTYPE svg PUBLIC "-//W3C//DTD SVG 1.1//EN" "http://www.w3.org/Graphics/SVG/1.1/DTD/svg11.dtd">
<svg version="1.1" id="Layer_1" xmlns="http://www.w3.org/2000/svg" xmlns:xlink="http://www.w3.org/1999/xlink" x="0px" y="0px"
	 width="90px" height="90px" viewBox="0 0 90 90" enable-background="new 0 0 90 90" xml:space="preserve">
<g>
	<path d="M56.345,39.411c0.012-0.454-0.314-0.819-0.508-1.038c-0.67-0.753-1.33-1.713-1.962-2.854
		c-0.614-1.11-1.028-1.79-1.766-1.79c-0.171,0-0.752,0.056-1.015,0.777c-0.048,0.129-0.167,0.495-0.254,0.773
		c-0.314,1-0.885,2.199-1.525,3.206c-0.247,0.389-0.524,0.825-0.353,1.311c-0.6,0.194-0.892,0.429-1.628,1.094
		c-0.721,0.649-1.269,1.087-2.025,1.615c-0.738,0.514-0.843,1.182-0.747,1.784c-1.599-0.896-3.215-2.281-4.248-3.667l-0.076-0.103
		c-0.393-0.529-0.648-0.803-1.05-0.989c0.159-0.447-0.058-0.875-0.208-1.17c-0.156-0.308-0.461-1.152-0.621-1.779
		c-0.103-0.4-0.161-0.716-0.35-1.877c-0.146-0.902-0.846-0.948-0.985-0.948c-0.654,0-0.953,0.56-1.299,1.208
		c-0.544,1.018-1.125,1.924-1.726,2.693l-0.079,0.1c-0.328,0.417-0.622,0.792-0.619,1.212c-1.411,0.362-1.411,1.324-1.414,4.91
		c-0.001,3.459,0.218,8.993,0.618,9.953c0.085,0.203,0.291,0.497,0.579,0.846c-0.002,0.126,0.002,0.305,0.015,0.563
		c0.02,0.412,0.066,0.957,0.104,1.215c0.062,0.426,0.095,0.745,0.236,2.273c0.038,0.413,0.146,0.95,0.276,1.367l0.244,0.786
		l0.397,0.126c0.148,0.047,0.228,0.1,0.527,0.5c0.191,0.255,0.467,0.583,0.603,0.687c0.877,0.681,2.318,1.371,3.505,1.68
		c0.413,0.107,0.962,0.252,1.22,0.323c0.915,0.248,2.447,0.391,4.203,0.391h0c2.071,0,4.042-0.192,5.275-0.513
		c0.568-0.147,1.062-0.267,1.167-0.286c1.275-0.228,3.442-1.662,3.93-2.599c0.12-0.23,0.174-0.264,0.176-0.267
		c0.001,0,0.032,0.001,0.118,0.052l0.457,0.27l0.188-0.415c0.056-0.123,0.099-0.341,0.101-0.508c0.001-0.095,0.05-0.339,0.114-0.521
		c0.079-0.224,0.143-0.588,0.146-0.83c0.002-0.199,0.03-0.492,0.062-0.638c0.225-1.056,0.388-2.352,0.418-3.304
		c0.003-0.091,0.002-0.178-0.016-0.258c0.276-0.322,0.482-0.594,0.548-0.75c0.352-0.849,0.516-5.192,0.57-7.019
		c0.184-6.228-0.105-6.614-0.296-6.87C57.146,39.829,56.801,39.587,56.345,39.411z M52.335,36.448
		c0.41,0.736,0.834,1.406,1.269,2.006c-0.054-0.001-0.11-0.001-0.167-0.001c-0.684,0-1.432,0.032-2.069,0.086
		C51.744,37.851,52.079,37.127,52.335,36.448z M36.616,37.02c0,0.002,0.001,0.004,0.001,0.006c0.092,0.362,0.246,0.853,0.408,1.299
		c-0.343-0.035-0.795-0.065-1.222-0.083C36.081,37.858,36.352,37.451,36.616,37.02z M33.788,40.697
		c0.067-0.015,0.147-0.027,0.188-0.035c0.025-0.004,0.164-0.024,0.526-0.024c0.771,0,1.852,0.088,2.461,0.2l0.22,0.041
		c0.652,0.12,1.082,0.199,1.242,0.277c0.065,0.032,0.134,0.116,0.371,0.435l0.079,0.106c1.327,1.781,3.499,3.562,5.531,4.536
		c0.608,0.291,0.968,0.405,1.286,0.405c0.379,0,0.709-0.17,0.907-0.466c0.36-0.541,0.099-1.171-0.042-1.511
		c-0.164-0.394-0.211-0.589-0.225-0.679c0.001-0.001,0.002-0.001,0.003-0.002c0.824-0.574,1.421-1.05,2.202-1.754
		c0.766-0.69,0.766-0.69,1.814-0.932c1.235-0.285,2.494-0.442,3.542-0.442c1.162,0,1.749,0.188,1.958,0.301
		c0.227,1.657-0.071,10.861-0.403,12.143c-0.281,0.375-1.563,1.752-2.479,2.601c-3.453,3.199-5.278,4.125-8.138,4.127l-0.012,0.898
		v-0.898c-2.255,0-3.761-0.58-5.967-2.298c-1.81-1.409-4.368-4.007-4.69-4.587c-0.192-0.638-0.482-4.843-0.479-9.258
		C33.685,42.407,33.686,41.118,33.788,40.697z"/>
	<path d="M71.155,66.539c-2.54-2.435-4.198-5.925-5.086-9.29c-0.812-3.078-0.535-6.181-0.381-9.322
		c1.567,0.254,2.585-1.438,2.233-2.808c-0.269-1.044-1.51-1.715-2.232-2.454c-0.115-3.04-0.291-6.084-0.858-9.078
		c-0.54-2.849-1.568-5.344-3.019-7.849c-1.433-2.473-3.233-4.542-5.638-6.112c-1.365-0.894-2.853-1.64-4.412-2.128
		c-1.162-0.363-3.141-0.911-4.151,0.061l-0.198,0.191l-5.656,0.037l-0.198-0.206c-0.95-0.987-2.773-0.461-3.904-0.143
		c-1.512,0.426-2.95,1.102-4.277,1.937c-2.589,1.63-4.873,3.911-6.291,6.639c-2.683,5.163-3.065,10.772-3.437,16.462
		c-0.78,0.769-1.896,1.431-2.258,2.507c-0.478,1.42,0.541,2.779,2.02,2.779h0.236c0.119,2.1,0.256,4.215,0.16,6.318
		c-0.103,2.248-0.8,4.441-1.707,6.488c-1.045,2.358-2.429,4.373-4.19,6.242c-0.664,0.704-0.906,1.53-0.618,2.486
		c0.292,0.969,1.271,1.21,2.178,1.21c2.494-0.011,5.054-0.459,7.32-1.529c0.802-0.378,1.559-1.135,2.381-1.408
		c0.727-0.242,1.542-0.307,2.296-0.407c1.123-0.147,2.251-0.262,3.382-0.335c0.48-0.031,1.422-0.23,1.892-0.072
		c1.885,0.632,3.821,1.182,5.819,1.287c2.362,0.125,4.7,0.092,7.019-0.396c0.911-0.191,1.799-0.451,2.68-0.749
		c0.523-0.177,0.962-0.135,1.518-0.117c2.182,0.071,4.627,0.176,6.728,0.82c0.625,0.192,1.178,0.666,1.767,0.948
		c1.042,0.498,2.138,0.885,3.247,1.202c1.512,0.432,3.17,0.845,4.756,0.754C72.6,70.372,72.536,67.862,71.155,66.539
		C68.034,63.545,71.905,67.258,71.155,66.539z M25.637,44.32c-0.007,0.01-0.015,0.021-0.021,0.032c-0.002,0-0.004-0.001-0.006-0.001
		C25.617,44.341,25.628,44.33,25.637,44.32C25.63,44.33,25.628,44.33,25.637,44.32z M67.715,67.551
		c-2.103-0.447-4.125-1.222-5.945-2.367c-1.456-0.917-2.336-2.148-2.87-3.771c-0.282-0.859-0.575-1.661-0.657-2.574
		c-0.035-0.387-0.146-1.016-0.568-1.183c-0.358-0.141-0.571,0.224-0.621,0.524c-0.124,0.771-0.647,1.374-0.891,2.117
		c-0.137,0.417-0.42,0.758-0.573,1.167c-0.16,0.432-0.607,0.72-0.745,1.154c-0.439,1.38-3.129,2.042-4.295,2.366
		c-2.633,0.731-5.436,0.925-8.15,0.637c-1.303-0.138-2.594-0.395-3.849-0.777c-1.048-0.32-2.214-0.625-3.057-1.357
		c-1.507-1.309-2.029-3.167-2.869-4.9c-0.291-0.6-0.35-1.489-0.831-1.971c-0.441-0.442-0.653,0.355-0.691,0.646
		c-0.11,0.843-0.084,1.659-0.329,2.48c-0.328,1.095-0.577,2.202-1.061,3.245c-1.467,3.167-5.656,4.624-8.915,4.832
		c2.108-2.285,3.552-5.27,4.587-8.176c1.193-3.351,1.221-6.814,1.053-10.334c0.63,1.071,1.798,2.826,3.046,3.238
		c0.485,0.16,1.026-0.078,1.219-0.559c0.257-0.647-0.167-1.53-0.322-2.167c-0.32-1.323-0.628-2.652-0.896-3.987
		c-0.166-0.824-0.176-2.881-1.387-2.881c-0.707,0.012-1.698,0.632-2.212,1.087c0.347-0.415,0.407-0.905,0.446-1.429
		c0.09-1.229,0.109-2.462,0.199-3.691c0.107-1.485,0.248-2.997,0.54-4.458c0.32-1.593,0.92-3.111,1.26-4.685
		c0.215-0.996,0.415-1.841,0.913-2.761c0.587-1.083,1.348-2.08,2.19-2.976c1.598-1.702,3.567-3.065,5.734-3.937
		c0.511-0.205,2.41-1.11,2.834-0.619c0.735,0.853,1.314,1.017,2.427,0.958c1.066-0.056,2.138-0.054,3.206-0.059
		c0.865-0.004,1.847,0.096,2.691-0.14c0.483-0.135,0.551-0.485,0.888-0.781c0.536-0.473,2.354,0.428,2.891,0.645
		c2.255,0.907,4.273,2.366,5.876,4.189c1.598,1.817,2.539,3.813,3.29,6.079c0.775,2.342,1.273,4.658,1.508,7.117
		c0.139,1.449,0.192,2.899,0.261,4.353c0.034,0.702-0.004,1.626,0.435,2.228c-0.7-0.43-2.466-1.537-2.943-0.242
		c-0.541,1.469-0.663,3.169-1.012,4.696c-0.209,0.916-1.359,3.484-0.162,4.065c1.295,0.631,3.166-2.041,3.692-2.891
		c-0.138,1.75-0.355,3.673-0.072,5.419c0.23,1.414,0.598,2.767,0.935,4.156c0.346,1.427,1.135,2.875,1.801,4.181
		c0.782,1.532,1.783,2.985,2.893,4.296C68.39,67.7,68.038,67.62,67.715,67.551C67.005,67.399,68.038,67.62,67.715,67.551z
		 M27.147,45.665c0-0.123,0-0.257,0.004-0.345c0.08-0.051,0.211-0.122,0.371-0.203c0.238,1.28,0.52,2.547,0.811,3.816
		C27.576,47.847,27.147,46.695,27.147,45.665C27.147,45.542,27.147,46.695,27.147,45.665z M62.513,45.582
		c-0.059,1.333-0.521,2.587-1.313,3.659c0.302-1.297,0.563-2.603,0.831-3.908C62.192,45.413,62.355,45.494,62.513,45.582
		C62.51,45.657,62.396,45.517,62.513,45.582z"/>
</g>
</svg>
