<?xml version="1.0" encoding="utf-8"?>
<!-- Generator: Adobe Illustrator 16.0.0, SVG Export Plug-In . SVG Version: 6.00 Build 0)  -->
<!DOCTYPE svg PUBLIC "-//W3C//DTD SVG 1.1//EN" "http://www.w3.org/Graphics/SVG/1.1/DTD/svg11.dtd">
<svg version="1.1" id="Layer_1" xmlns="http://www.w3.org/2000/svg" xmlns:xlink="http://www.w3.org/1999/xlink" x="0px" y="0px"
	 width="90px" height="90px" viewBox="0 0 90 90" enable-background="new 0 0 90 90" xml:space="preserve">
<g>
	<path d="M73.524,44.922c-0.509-1.205-2.031-3.062-2.856-3.485c-0.176-0.09-0.428-0.266-0.56-0.391
		c-0.739-0.698-3.31-1.587-5.439-1.878c-1.227-0.168-2.4-0.609-2.324-0.873c0.9-3.106,0.23-9.006-1.3-11.47
		c-0.128-0.206-0.325-0.537-0.437-0.735c-0.857-1.515-3.464-2.874-5.52-2.878l-0.3,0v-3.203v-3.203l0.266-0.266
		c0.955-0.955,1.157-3.04,0.442-4.541c-1.104-2.313-4.96-2.704-6.52-0.659c-0.264,0.345-0.229,0.354-0.802-0.203
		c-1.509-1.467-4.07-1.521-5.616-0.117l-0.51,0.463l-0.29-0.326c-0.861-0.967-2.598-1.368-4.171-0.962
		c-2.624,0.678-3.571,4.009-1.8,6.33l0.281,0.368v6.318v6.318l-0.34,0.172c-1.067,0.541-2.698,1.927-3.38,2.871
		c-0.264,0.365-0.617,0.826-0.785,1.022c-0.167,0.197-0.386,0.525-0.484,0.728c-0.099,0.204-0.271,0.514-0.383,0.689
		c-0.112,0.176-0.336,0.572-0.5,0.88c-1.016,1.921-2.477,3.009-4.351,3.241c-1.678,0.208-4.059,0.917-4.817,1.436
		c-0.11,0.075-0.27,0.162-0.354,0.193c-0.907,0.329-2.871,2.25-3.505,3.428c-0.121,0.224-0.268,0.483-0.328,0.575
		c-0.774,1.193-1.115,6.055-0.586,8.367c0.297,1.303,0.563,2.238,0.719,2.535c0.074,0.141,0.134,0.309,0.134,0.371
		c0,0.133,0.294,0.809,0.701,1.613c0.156,0.309,0.354,0.705,0.44,0.881s0.252,0.445,0.368,0.598c0.116,0.154,0.337,0.482,0.491,0.73
		c0.154,0.25,0.45,0.682,0.658,0.961c0.208,0.281,0.471,0.637,0.584,0.791c0.781,1.059,4.057,4.297,5.138,5.08
		c0.244,0.176,0.756,0.576,1.139,0.891s0.819,0.635,0.968,0.711c0.15,0.076,0.402,0.252,0.56,0.389s0.464,0.35,0.68,0.473
		c0.215,0.123,0.562,0.338,0.769,0.48c0.207,0.141,0.614,0.4,0.905,0.576s0.65,0.398,0.798,0.494s0.659,0.379,1.135,0.629
		c0.476,0.25,0.901,0.484,0.945,0.518c0.044,0.035,0.782,0.412,1.64,0.84c1.571,0.781,1.816,0.957,2.043,1.475
		c0.066,0.15,0.23,0.42,0.363,0.6c0.133,0.178,0.357,0.512,0.498,0.742c0.226,0.367,0.504,0.752,1.215,1.674
		c0.107,0.139,0.438,0.418,0.737,0.621c0.299,0.205,0.633,0.441,0.743,0.529c1.37,1.084,5.887,1.32,8.2,0.43
		c1.096-0.424,2.818-1.832,3.115-2.551c0.073-0.176,0.236-0.428,0.362-0.561c0.127-0.133,0.335-0.438,0.464-0.68
		c0.129-0.242,0.371-0.664,0.538-0.939l0.304-0.498l1.529-0.77c0.841-0.424,1.766-0.9,2.054-1.063c0.29-0.16,0.938-0.518,1.44-0.797
		c0.916-0.506,1.117-0.631,1.818-1.113c0.207-0.143,0.52-0.336,0.696-0.432c0.176-0.094,0.464-0.287,0.64-0.43
		c0.176-0.141,0.531-0.391,0.79-0.553c0.259-0.164,0.68-0.467,0.937-0.672s0.664-0.514,0.906-0.684
		c0.242-0.172,0.693-0.539,1.003-0.818c0.31-0.277,0.752-0.648,0.984-0.82c0.487-0.365,2.342-2.24,2.623-2.652
		c0.105-0.154,0.506-0.629,0.891-1.055s0.754-0.906,0.822-1.066c0.066-0.16,0.266-0.455,0.443-0.656
		c0.177-0.201,0.322-0.406,0.322-0.457c0-0.049,0.127-0.287,0.282-0.527C74.315,55.057,75.104,48.664,73.524,44.922z M52.897,26.762
		l0.255-0.076l0.662-0.121c0.386-0.071,0.753-0.107,1.09-0.107c1.35,0,3.044,0.475,4.168,4.182c0.523,1.724,0.531,5.281,0.017,7.463
		c-0.321,1.363-0.094,1.985,1.01,2.773c1.099,0.784,2.535,1.283,4.391,1.525c3.247,0.424,6.078,2.67,6.445,5.115
		c0.109,0.721,0.109,4.082,0,4.729c-1.06,6.309-7.517,12.807-17.715,17.826c-1.613,0.795-2.001,1.068-2.822,2.422
		c-2.013,3.316-2.581,3.559-5.203,3.559c-2.541,0-3.491-0.514-4.622-2.496c-1.231-2.16-1.681-2.596-3.699-3.598
		c-7.737-3.838-13.234-8.443-15.896-13.318c-0.611-1.119-1.071-2.238-1.405-3.42l-0.213-0.754l-0.032-2.309
		c-0.041-3.002,0.061-3.361,0.79-4.49c1.073-1.66,3.996-3.293,5.9-3.296c1.07-0.001,2.884-0.634,4.045-1.41
		c1.013-0.677,2.429-2.278,2.914-3.293c1.19-2.495,2.879-4.388,4.756-5.331c0.199-0.1,0.528-0.232,0.819-0.349
		c0.238-0.095,0.464-0.186,0.648-0.27c0.214-0.057,0.69-0.154,1.464-0.278c0.45-0.072,1.187-0.205,1.642-0.297
		c0.507-0.103,1.141-0.156,2.188-0.185c2.071-0.056,2.376-0.102,3.424-1.125c0.91-0.889,2.543-2.038,3.361-2.364
		c0.814-0.325,1.108-0.465,1.449-0.627L52.897,26.762z M48.389,16.426c0.215-0.29,0.259-0.304,0.401-0.133
		c0.115,0.139,0.066,1.494-0.097,2.669c-0.122,0.879-0.187,0.7-0.36-0.986L48.2,16.682L48.389,16.426z M41.915,16.523l0.191-0.203
		l0.139,0.171c0.099,0.123,0.128,0.266,0.103,0.505c-0.02,0.184-0.075,0.748-0.123,1.254c-0.139,1.478-0.187,1.61-0.307,0.84
		C41.702,17.696,41.701,16.751,41.915,16.523z M39.383,12.257c1.358,0.342,1.673,2.181,0.531,3.099
		c-0.409,0.329-0.437,0.491-0.327,1.954c0.695,9.322,4.113,9.449,4.88,0.181c0.139-1.67,0.142-1.652-0.327-2.169
		c-1.505-1.662,0.033-3.92,2.001-2.939c1.108,0.552,1.263,1.817,0.348,2.842l-0.444,0.498l0.051,1.044
		c0.256,5.256,1.691,8.666,3.088,7.337c0.961-0.914,1.781-4.268,1.863-7.62l0.021-0.846l-0.334-0.434
		c-1.295-1.68,0.252-3.756,2.109-2.831c1.173,0.585,1.302,1.825,0.302,2.915l-0.517,0.563v4.75c0,2.325,0.002,3.518,0.023,4.152
		l-0.469,0.134l-0.312,0.146c-0.322,0.154-0.578,0.274-1.333,0.576c-1.063,0.425-2.902,1.703-4.017,2.792
		c-0.363,0.355-0.445,0.423-0.547,0.454c-0.222,0.068-0.772,0.083-1.534,0.103c-1.17,0.031-1.904,0.096-2.532,0.224
		c-0.432,0.088-1.131,0.214-1.559,0.282c-0.591,0.094-1.381,0.232-1.788,0.355l-0.072,0.021l-0.068,0.033
		c-0.062,0.029-0.146,0.065-0.237,0.104c0.026-1.191,0.045-3.491,0.052-6.69l0.017-7.468l-0.451-0.405
		C36.198,13.974,37.317,11.737,39.383,12.257z"/>
	<path d="M38.715,54.355c-0.451-0.324-0.896-0.463-1.466-0.463c-0.414,0-0.92,0.074-1.561,0.188
		c-0.658,0.121-1.635,0.189-2.749,0.189c-2.164,0-3.849-0.238-4.182-0.402c-0.149-0.08-0.419-0.27-0.557-0.391
		c-0.062-0.055-0.127-0.111-0.196-0.164c-0.02-0.078-0.043-0.156-0.065-0.234c-0.096-0.328-0.386-1.324-1.268-1.324
		c-0.506,0-1.043,0.395-1.043,1.121c0,0.441,0.233,1.107,0.615,1.488c0.066,0.227,0.183,0.418,0.26,0.543
		c0.431,0.697,1.542,1.533,2.361,2.035c4.696,2.887,6.829,5.387,9.923,11.633c2.224,4.488,3.305,5.705,6.678,5.713h0.026
		c3.141-0.002,4.275-1.389,6.816-6.512c2.661-5.365,4.858-7.924,9.042-10.533c0.799-0.498,1.539-1.041,1.979-1.455
		c0.753-0.707,1.071-1.172,1.148-1.549c0.196-0.184,0.312-0.43,0.403-0.621c0.285-0.604,0.309-1.039,0.078-1.414
		c-0.211-0.342-0.567-0.545-0.951-0.545c-0.321,0-0.62,0.137-0.844,0.389c-0.262,0.293-0.409,0.738-0.402,1.195
		c-0.136,0.088-0.277,0.201-0.431,0.334c-0.742,0.643-2.331,0.926-4.75,0.84l-2.861-0.387c-0.562-0.105-0.921-0.148-1.238-0.148
		c-0.681,0-1.163,0.213-1.66,0.535c-1.567,0.711-3.996,1.135-6.519,1.135C42.705,55.551,40.312,55.115,38.715,54.355z
		 M36.044,56.047c0.436-0.076,0.919-0.154,1.204-0.154c0.181,0,0.208,0.016,0.334,0.113l0.08,0.063l0.09,0.045
		c0.282,0.139,0.583,0.266,0.899,0.385c-0.159,0.354-0.364,0.912-0.69,1.76c-1.278,3.324-1.15,3.336-2.573-0.254
		c-0.328-0.828-0.546-1.4-0.717-1.793C35.146,56.178,35.619,56.127,36.044,56.047z M52.73,56.199l0.069-0.031l0.064-0.043
		c0.333-0.223,0.434-0.244,0.617-0.244c0.187,0,0.454,0.035,0.895,0.117l1.229,0.168c-0.199,0.477-0.481,1.174-0.777,1.924
		c-1.364,3.459-1.279,3.445-2.478,0.4c-0.359-0.914-0.58-1.492-0.753-1.844C52.002,56.512,52.382,56.361,52.73,56.199z"/>
</g>
</svg>
