<?xml version="1.0" encoding="utf-8"?>
<!-- Generator: Adobe Illustrator 16.0.0, SVG Export Plug-In . SVG Version: 6.00 Build 0)  -->
<!DOCTYPE svg PUBLIC "-//W3C//DTD SVG 1.1//EN" "http://www.w3.org/Graphics/SVG/1.1/DTD/svg11.dtd">
<svg version="1.1" id="Layer_1" xmlns="http://www.w3.org/2000/svg" xmlns:xlink="http://www.w3.org/1999/xlink" x="0px" y="0px"
	 width="90px" height="90px" viewBox="0 0 90 90" enable-background="new 0 0 90 90" xml:space="preserve">
<g>
	<path d="M77.766,46.423c-0.106-1.257-0.319-1.471-3.419-3.417l-2.064-1.298l-0.016-1.321c-0.143-11.712-6.841-20.334-17.788-22.898
		l-0.681-0.16v-0.451c0-1.021-0.601-2.024-1.429-2.386c-0.395-0.173-13.431-0.29-14.086-0.126c-1.075,0.268-1.632,0.961-1.838,2.284
		l-0.101,0.651l-0.964,0.24C24.214,20.32,18.294,28.063,17.706,40.655l-0.051,1.101l-0.63,0.404
		c-0.346,0.222-1.338,0.852-2.205,1.399c-2.974,1.878-3.084,2.208-1.921,5.753c0.349,1.063,0.951,2.902,1.338,4.087
		c2.428,7.422,1.873,6.958,7.793,6.539l0.801-0.057l0.658,1.357c4.319,8.909,14.419,14.498,23.951,13.255
		c8.913-1.162,15.764-5.986,19.284-13.577l0.478-1.031l0.659,0.052c0.363,0.029,1.513,0.078,2.557,0.11l1.898,0.06l0.476-0.228
		c1.104-0.529,0.851,0.048,3.403-7.754C77.889,46.947,77.828,47.171,77.766,46.423z M70.58,56.007
		c-0.162-0.01-0.355-0.021-0.589-0.038c-0.699-0.05-1.681-0.109-2.373-0.146l0.041-0.084c0.828-1.69,1.791-4.182,2.062-5.332
		c0.062-0.266,0.191-0.756,0.282-1.069c0.219-0.762,0.534-2.414,0.722-3.765c0.917,0.581,2.103,1.341,2.749,1.783
		c-0.013,0.04-0.024,0.075-0.034,0.101c-0.168,0.499-0.925,2.792-1.688,5.111C71.247,54.101,70.832,55.303,70.58,56.007z
		 M65.245,54.671c0.117-0.844,0.186-1.653,0.187-2.28c0.008-4.435-2.501-8.646-5.964-10.013c-1.947-0.769-2.459-0.876-4.215-0.882
		l-1.719-0.007l-1.442,0.5c-2.938,1.019-5.641,3.232-7.081,5.75c-1.74-3.059-5.638-5.842-8.854-6.235
		c-0.451-0.055-0.903-0.082-1.348-0.082c-2.712,0-5.232,1.036-7.097,2.918c-2.048,2.067-3.16,4.976-3.131,8.193
		c0.005,0.57,0.075,1.298,0.188,2.065c-0.412-0.851-0.792-1.689-0.88-1.926c-0.118-0.315-0.339-0.903-0.492-1.309
		c-0.57-1.509-1.126-3.828-1.485-6.205c-0.183-1.202-0.294-1.708-0.398-1.979c0.1-0.354,0.132-0.781,0.122-1.347
		c-0.002-0.108-0.004-0.227-0.005-0.356c-0.018-2.049,0.325-5.434,0.516-6.001c0.096-0.253,0.416-1.371,0.429-1.418
		c1.911-6.665,7.415-11.606,14.366-12.896l0.339-0.062c0.388-0.072,0.713-0.133,0.992-0.19c0.009,0.061,0.018,0.119,0.028,0.176
		c0.223,1.299,0.47,2.972,0.562,3.808c0.307,2.771,0.769,3.232,0.942,3.405c0.385,0.387,0.578,0.579,6.95,0.579
		c2.293,0,2.545-0.065,2.73-0.113c1.397-0.362,1.561-1.544,1.75-2.912c0.099-0.717,0.255-1.769,0.348-2.346
		c0.182-1.14,0.301-1.968,0.376-2.579c0.154,0.033,0.316,0.065,0.483,0.099c1.607,0.318,4.281,1.176,4.726,1.431
		c0.278,0.182,0.85,0.427,0.915,0.454c4.138,1.751,8.046,6.346,9.293,10.925c0.109,0.397,0.277,0.976,0.377,1.286
		c0.244,0.764,0.537,2.926,0.596,5.431c0.055,2.311,0.098,2.529,0.115,2.611c0.005,0.029,0.012,0.059,0.018,0.086
		c-0.181,0.458-0.248,1.008-0.309,1.505c-0.152,1.255-0.494,3.127-0.704,3.851c-0.104,0.36-0.241,0.886-0.314,1.195
		c-0.204,0.865-1.062,3.14-1.863,4.776L65.245,54.671z M62.794,52.387c-0.002,1.637-0.557,4.484-0.945,5.255
		c-0.17,0.338-0.361,0.962-0.438,1.245c-0.088,0.322-0.228,0.664-0.273,0.745c-0.177,0.302-0.437,0.884-0.602,1.305
		c-0.667,1.698-3.953,4.92-6.696,6.118c-0.252,0.11-0.612,0.291-0.84,0.441c-0.101,0.051-0.428,0.196-0.842,0.348
		c-0.456,0.166-1.123,0.426-1.448,0.571c-0.152,0.069-0.674,0.239-1.143,0.354c-0.342,0.083-1.075,0.273-1.402,0.411
		c-0.438,0.182-1.835,0.371-3.417,0.371c-1.085,0-1.801-0.093-2.111-0.18c-0.373-0.104-1.211-0.328-1.869-0.499
		c-0.643-0.167-1.414-0.421-1.703-0.545c-0.394-0.168-0.958-0.383-1.272-0.467c-2.556-0.679-7.473-4.891-8.352-7.151
		c-0.134-0.345-0.374-0.883-0.553-1.2c-0.077-0.137-0.205-0.441-0.252-0.604c-0.097-0.329-0.32-0.949-0.479-1.357
		c-0.445-1.144-0.928-3.733-0.94-5.038c-0.023-2.507,0.817-4.75,2.367-6.313c1.366-1.378,3.221-2.136,5.224-2.136
		c0.338,0,0.685,0.021,1.029,0.063c2.503,0.306,5.952,2.897,7.097,5.335c0.309,0.658,0.883,1.883,2.076,1.883
		c1.181,0,1.74-1.181,2.041-1.815c1.015-2.145,3.387-4.171,5.903-5.044l1.019-0.354l1.27,0.005c1.375,0.006,1.551,0.025,3.256,0.699
		C60.913,45.783,62.8,49.103,62.794,52.387z M20.93,52.297c0.152,0.402,0.373,0.988,0.49,1.301c0.152,0.407,0.633,1.446,1.008,2.217
		c0.007,0.013,0.014,0.026,0.02,0.04c-0.96,0.061-2.194,0.113-3.042,0.121c-0.51-1.435-1.664-5.003-2.846-8.674
		c0.362-0.253,0.976-0.633,1.497-0.955l0.486-0.3c0.279-0.173,0.536-0.332,0.765-0.473C19.694,48.116,20.3,50.628,20.93,52.297z
		 M49.435,19.496c0.008,0.125-0.001,0.755-0.457,3.595c-0.095,0.592-0.255,1.669-0.356,2.401c-0.042,0.306-0.08,0.548-0.113,0.728
		c-0.336,0.013-0.894,0.023-1.755,0.023c-1.912,0-3.964-0.049-5.029-0.1c-0.081-0.382-0.172-0.916-0.242-1.538
		c-0.099-0.896-0.351-2.6-0.585-3.964c-0.064-0.373-0.111-0.901-0.111-1.125c0-0.278-0.026-0.734-0.064-1.158
		c0.684-0.019,1.721-0.033,3.218-0.033c2.316,0,4.33,0.033,5.536,0.077C49.431,18.744,49.396,19.159,49.435,19.496z"/>
	<path d="M44.727,31.236c-4.298,0-4.477,0.18-4.869,0.572c-0.392,0.392-0.588,0.588-0.594,5.179
		c-0.006,4.511,0.203,4.769,0.491,5.124l0.561,0.693l4.653,0.027c0.992,0.006,1.757,0.011,2.35,0.011c1.95,0,2.538,0,3.141-0.604
		c0.421-0.421,0.534-0.533,0.541-5.165c0.007-4.52-0.128-4.704-0.396-5.07C50.198,31.446,50.045,31.236,44.727,31.236z
		 M48.315,40.197c-0.374,0.008-0.798,0.008-0.996,0.008c-0.589,0-1.35-0.005-2.334-0.01l-3.024-0.019
		c-0.083-1.502-0.083-4.695,0.001-6.252c0.589-0.028,1.502-0.051,2.766-0.051c1.606,0,2.84,0.036,3.598,0.077
		C48.382,35.523,48.377,38.672,48.315,40.197z"/>
</g>
</svg>
