<?xml version="1.0" encoding="utf-8"?>
<!-- Generator: Adobe Illustrator 16.0.0, SVG Export Plug-In . SVG Version: 6.00 Build 0)  -->
<!DOCTYPE svg PUBLIC "-//W3C//DTD SVG 1.1//EN" "http://www.w3.org/Graphics/SVG/1.1/DTD/svg11.dtd">
<svg version="1.1" id="Layer_1" xmlns="http://www.w3.org/2000/svg" xmlns:xlink="http://www.w3.org/1999/xlink" x="0px" y="0px"
	 width="90px" height="90px" viewBox="0 0 90 90" enable-background="new 0 0 90 90" xml:space="preserve">
<path d="M77.984,27.409c-0.782-3.646-5.189-2.569-7.789-1.87c-6.384,1.717-12.79,4.39-18.524,7.681
	c-2.136,1.226-2.738,2.371-2.776,4.955c-0.008,0.522,0.52,3.929,0.045,3.88c-1.768-0.182-3.453-0.397-5.24-0.271
	c-1.016,0.072-3.084,1.033-2.846-0.445c0.277-1.717,0.387-3.555,0.022-5.269c-0.524-2.47-3.492-3.426-5.519-4.43
	c-5.37-2.661-11.263-5.277-17.156-6.487c-3.903-0.801-6.57,0.238-6.262,4.604c0.467,6.596,3.198,13.736,6.011,19.661
	c0.668,1.407,1.6,3.836,3.241,4.392c1.983,0.671,4.532,0.72,6.574,0.319c-4.512,22.362,38.922,21.259,34.568,0.005
	c1.812,0.461,4.479,0.356,6.254-0.226c2.219-0.729,3.324-4.068,4.116-5.961c1.652-3.948,3.067-8.033,4.162-12.172
	C77.535,33.249,78.552,30.053,77.984,27.409z M66.938,44.375c-0.458,1.089-2.957,7.16-3.947,7.16c-0.651,0-4.663-1.074-4.31,0.277
	c0.714,2.729,1.971,5.347,0.455,8.144c-1.02-6.945-9.505,3.294-4.094,5.045c-2.625,1.833-6.517,2.702-9.147,2.815
	c-3.334,0.144-7.312-0.315-10.912-2.339c5.596-0.202-2.94-12.227-4.63-6.358c-0.357-1.072-0.259-1.838-0.145-2.952
	c0.104-1.026,1.285-3.923,0.879-4.752c-0.69-1.391-3.914,1.074-4.639-0.272c-0.939-1.744-1.702-3.597-2.497-5.409
	c-1.268-2.892-3.257-6.272-3.729-9.432c1.079,0.052,1.924,1.236,3.018,1.236c0.791-0.538-0.61-2.55-0.313-3.435
	c1.118-0.224,3.916,1.05,4.967,1.562c2.641,1.282,5.148,2.222,7.012,3.272c0.95,0.535,1.967,1.372,2.844,2.021
	c0.855,0.633-0.366,2.897-0.445,3.769c-0.132,1.458,2.073,0.815,2.695,0.647c1.991-0.536,4.034-0.953,6.094-0.844
	c1.181,0.063,6.487,1.868,6.352,0.242c-0.048-0.585-0.919-3.222-0.511-3.542c0.623-0.488,1.35-0.867,2.033-1.259
	c2.263-1.297,4.573-2.516,6.907-3.681c1.371-0.685,4.457-2.388,5.986-2.169c0.168,0.981-0.791,1.934-0.674,2.971
	c0.062,0.546,2.904-0.771,3.333-0.771C69.704,38.408,67.74,42.462,66.938,44.375z"/>
</svg>
