<?xml version="1.0" encoding="utf-8"?>
<!-- Generator: Adobe Illustrator 16.0.0, SVG Export Plug-In . SVG Version: 6.00 Build 0)  -->
<!DOCTYPE svg PUBLIC "-//W3C//DTD SVG 1.1//EN" "http://www.w3.org/Graphics/SVG/1.1/DTD/svg11.dtd">
<svg version="1.1" id="Layer_1" xmlns="http://www.w3.org/2000/svg" xmlns:xlink="http://www.w3.org/1999/xlink" x="0px" y="0px"
	 width="90px" height="90px" viewBox="0 0 90 90" enable-background="new 0 0 90 90" xml:space="preserve">
<g id="svgg_14_">
	<path id="path1_3_" d="M38.329,39.063c-5.966,0.604-6.564,8.249-8.159,12.653c-0.482,1.333-1.093,2.895-2.665,3.141
		c-0.898,0.141-1.742-0.197-1.667,0.986c0.103,1.557,0.813,0.973,2.058,0.95c5.429-0.1,13.056,2.897,15.38-4.147
		C44.665,48.434,45.336,38.353,38.329,39.063 M18.38,44.656c-0.838,1.993,0.066,5.527,0.589,7.487
		c0.353,1.323,0.699,2.934,1.498,4.077c0.494,0.707,2.69,1.121,3.511,1.405c1.728,0.597-0.317-1.883-0.557-2.398
		c-0.783-1.682-1.079-3.463-1.917-5.128C21.188,49.47,18.628,44.069,18.38,44.656 M39.018,47.252
		c1.249,1.303,1.439,3.427,1.46,5.124c0.007,0.556-0.795,3.222-2.061,1.916c-0.852-0.879-0.982-1.787-1.095-3.207
		C37.273,50.476,37.438,45.604,39.018,47.252"/>
	<path id="path2_1_" fill="#04040F" d="M45.894,18.132c-7.01,0.546-13.745,2.96-19.447,7.083c-1.288,0.932-2.51,1.942-3.688,3.008
		c-0.515,0.465-2.441-0.679-2.999-0.873c-2.001-0.698-6.235-1.911-7.79,0.432c-1.225,1.844-0.528,4.714-0.047,6.644
		c0.472,1.892,1.1,3.742,1.801,5.56c0.571,1.477,0.043,2.308,0.055,3.865c0.025,3.278,1.21,7.122,2.39,10.171
		c0.753,1.945-0.309,1.043-0.708,2.542c-0.604,2.271,0.451,3.464,1.713,4.516c1.46,1.216,2.213,1.06,3.422,2.375
		c3.016,3.281,8.414,4.983,13.101,5.09c3.52,0.082,7.01-0.72,10.327-1.835c3.351-1.127,6.371-1.535,9.933-1.339
		c3.643,0.201,7.212,1.049,10.622,2.331c1.801,0.677,6.534,4.19,8.237,1.842c1.556-2.145,0.074-6.947-0.635-9.148
		c-0.563-1.748-1.295-3.445-2.201-5.044c-0.62-1.094-2.353-3.209-3.274-4.334c-0.104-0.126,6.758,2.431,7.405,2.497
		c3.142,0.321,3.471-3.042,3.208-4.688c-1.114-6.978-4.729-13.473-10.687-17.45c-1.284-0.858-0.355-0.913,0.793-1.359
		c1.044-0.405,2.646-0.772,3.182-1.91c1.325-2.817-2.545-4.65-4.425-5.749C60.056,18.781,52.907,17.586,45.894,18.132
		 M53.229,20.396c4.29,0.432,8.736,1.916,12.363,4.258c0.491,0.317,2.896,1.448,2.896,2.133c0,0.728-2.313,1.377-2.82,1.651
		c-1.677,0.91-4.703,2.42-1.996,3.769c4.006,2,6.318,4.773,8.651,8.573c1.11,1.81,1.597,3.919,2.276,5.898
		c0.627,1.891,1.647,5.828-1.803,4.009c-1.971-1.039-4.344-1.75-6.464-2.133c-1.518-0.274-2.007-0.143-3.521,0.227
		c-1.536,0.374,0.251,1.839,0.661,2.187c3.257,2.766,5.867,6.906,6.828,11.086c0.191,0.826,1.714,5.71,0.541,5.844
		c-0.721,0.082-2.024-0.945-2.685-1.242c-1.146-0.514-2.315-0.932-3.494-1.355c-4.845-1.743-9.636-2.364-14.777-2.187
		c-4.193,0.146-8.225,1.787-12.256,2.863c-4.45,1.179-10.738-0.09-14.367-2.849c-0.999-0.76-1.721-1.959-2.813-2.568
		c-1.062-0.591-2.648-1.173-2.876-2.585c-0.211-1.295,1.801-1.237,1.283-2.659c-0.44-1.214-0.965-2.396-1.308-3.646
		c-0.58-2.121-1.454-4.614-1.542-6.817c-0.025-0.65-0.225-1.711,0.082-2.295c0.763-1.456,0.1-2.104-0.31-3.488
		c-0.635-2.143-1.495-4.193-2.017-6.379c-0.647-2.711-0.643-4.4,2.481-3.998c1.937,0.249,3.977,1.121,5.73,1.971
		c1.85,0.894,4.056-2.459,5.564-3.424C35.464,22.126,43.631,19.44,53.229,20.396"/>
</g>
</svg>
