<?xml version="1.0" encoding="utf-8"?>
<!-- Generator: Adobe Illustrator 16.0.0, SVG Export Plug-In . SVG Version: 6.00 Build 0)  -->
<!DOCTYPE svg PUBLIC "-//W3C//DTD SVG 1.1//EN" "http://www.w3.org/Graphics/SVG/1.1/DTD/svg11.dtd">
<svg version="1.1" id="Layer_1" xmlns="http://www.w3.org/2000/svg" xmlns:xlink="http://www.w3.org/1999/xlink" x="0px" y="0px"
	 width="90px" height="90px" viewBox="0 0 90 90" enable-background="new 0 0 90 90" xml:space="preserve">
<g>
	<path d="M38.706,43.442c-4.792-1.975-7.947-2.98-8.26-2.635c-0.298,0.33-0.353,1.37-0.098,1.862c0.25,0.482,0.532,0.624,4,2.002
		c1.891,0.751,3.726,1.486,4.078,1.634c0.352,0.146,0.892,0.358,1.2,0.47s0.758,0.29,1,0.396c1.831,0.813,2.034,0.606,1.165-1.182
		C41.11,44.593,40.725,44.274,38.706,43.442z"/>
	<path d="M66.445,39.256c-0.462-0.499-1.619-0.966-2.262-1.199c0.408-1.937,0.848-4.488,1.01-5.962
		c0.304-2.762-0.692-6.066-3.633-12.055c-0.172-0.353-0.395-0.417-2.111-0.615c-0.915-0.105-2.305-0.267-3.089-0.357
		c-0.887-0.104-1.718-0.252-2.2-0.393c-0.426-0.125-1.891-0.557-3.254-0.96c-1.364-0.404-3.578-1.058-4.92-1.454
		c-1.342-0.396-2.59-0.773-2.774-0.839c-0.41-0.147-0.085,0.114-4.637-3.744c-0.798-0.676-1.084-0.812-1.18-0.561
		c-0.027,0.069-0.048,1.062-0.048,2.205c0,2.205-0.028,2.388-0.364,2.388c-0.161,0-4.699-2.529-5.056-2.817
		c-0.192-0.156-0.491-0.001-0.535,0.278c-0.051,0.325-0.337,3.086-0.476,4.603c-0.13,1.42-0.385,1.691-0.86,0.917
		c-0.101-0.165-0.351-0.534-0.555-0.82c-0.203-0.286-0.667-0.942-1.031-1.46c-0.655-0.931-0.833-1.074-1.033-0.833
		c-0.083,0.1-0.726,2.28-1.407,4.773c-0.162,0.594-0.345,1.242-0.405,1.439c-0.157,0.513-0.871,3.391-1.111,4.48
		c-0.754,3.415-0.709,3.109-0.748,5.001c-0.037,1.799,0.18,3.825,0.58,5.398c0.052,0.204,0.132,0.593,0.195,0.938l-2.193,1.795
		c-2.777,3-1.066,9.528,3.355,12.798c1.256,0.93,1.218,0.886,1.446,1.653c2.097,7.075,2.282,7.464,4.953,10.417
		c0.81,0.896,0.879,1.042,0.807,1.713c-0.069,0.646-0.172,0.732-0.94,0.789c-1.109,0.081-1.278,0.309-2.348,3.141
		c-0.126,0.335-0.239,0.639-0.339,0.917c-0.189,0.46-0.34,0.861-0.407,1.254c-0.366,1.379-0.04,1.758,1.123,2.338
		c0.17,0.102,0.329,0.179,0.451,0.236c3.082,1.473,8.802,2.387,14.929,2.387c1.882,0,3.703-0.089,5.413-0.265
		c1.725-0.179,3.698-0.563,5.413-1.057c1.038-0.298,1.793-0.579,2.347-0.853c0.821-0.376,1.367-0.759,1.574-1.124
		c0.237-0.42,0.293-0.665-0.036-1.682c-0.022-0.084-0.047-0.169-0.076-0.258c-0.149-0.461-0.433-1.206-1.056-2.839l-0.012-0.028
		c-0.074-0.196-0.169-0.445-0.306-0.693c-0.52-1.145-0.85-1.281-1.709-1.291c-0.652-0.007-0.751-0.088-0.866-0.703
		c-0.117-0.631-0.013-0.832,0.985-1.915c2.671-2.897,3.156-3.902,5.211-10.796c0.226-0.759,0.196-0.723,1.583-1.89
		C67.978,48.175,69.221,42.255,66.445,39.256z M56.1,69.116c0.003-0.002,0.005-0.003,0.008-0.005c0.001,0,0.001-0.001,0.001-0.001
		c0.414-0.225,0.654-0.353,0.822-0.353c0.017,0,0.032,0.004,0.048,0.007c0.155,0.057,0.281,0.278,0.473,0.755
		c0.133,0.349,0.25,0.656,0.355,0.932c0.058,0.154,0.12,0.319,0.188,0.499c0.085,0.227,0.163,0.428,0.23,0.609
		c0.047,0.128,0.09,0.243,0.126,0.346c0.19,0.538,0.257,0.854,0.146,1.084c-0.146,0.193-0.54,0.416-1.101,0.645
		c-0.154,0.058-0.325,0.12-0.515,0.19c-0.136,0.051-0.278,0.099-0.42,0.147c-0.785,0.255-1.728,0.504-2.722,0.715
		c-1.939,0.391-4.163,0.631-6.472,0.723c-0.628,0.021-1.259,0.036-1.892,0.036c-3.336,0-6.676-0.292-9.453-0.816
		c-1.089-0.215-2.114-0.471-3.038-0.77c-0.48-0.155-0.875-0.284-1.197-0.401c-0.193-0.079-0.377-0.16-0.551-0.243
		c-0.153-0.073-0.279-0.139-0.381-0.204c-0.366-0.287-0.345-0.628-0.116-1.272c0.038-0.097,0.078-0.199,0.125-0.313
		c0.161-0.391,0.409-1.037,0.588-1.53c0.084-0.221,0.156-0.412,0.204-0.542c0.008-0.021,0.015-0.041,0.022-0.062
		c0.136-0.331,0.265-0.583,0.334-0.641c0.035-0.028,0.064-0.051,0.093-0.07c0.183-0.081,0.435,0.015,0.895,0.235
		c0.388,0.187,0.659,0.294,0.841,0.325c0.029,0.006,0.054,0.01,0.071,0.01c0.145,0,0.31,0.095,0.489,0.278
		c0.301,0.312,0.489,0.388,1.373,0.555c0.337,0.064,0.788,0.205,1.001,0.313c0.515,0.261,0.84,0.341,1.995,0.488
		c0.532,0.067,1.117,0.177,1.3,0.241c0.877,0.31,3.369,0.476,5.669,0.476c1.885,0,3.641-0.111,4.276-0.348
		c0.553-0.206,1.325-0.375,2.026-0.445c0.308-0.03,0.794-0.146,1.08-0.255c0.286-0.11,0.809-0.305,1.16-0.434
		c0.352-0.129,0.7-0.306,0.773-0.393c0.073-0.086,0.213-0.157,0.312-0.157c0.054,0,0.191-0.049,0.363-0.125
		C55.765,69.29,55.92,69.214,56.1,69.116z M61.713,51.539c-0.604,0.422-0.686,0.546-0.775,1.18c-0.176,1.24-2.048,6.87-2.575,7.743
		c-0.457,0.756-1.57,2.119-2.67,3.27c-0.369,0.386-0.801,0.872-0.96,1.08l-0.29,0.379l0.051,0.801
		c0.027,0.408,0.134,1.26,0.246,1.961c-0.292,0.085-0.571,0.233-0.802,0.438c-0.067,0.033-0.177,0.082-0.304,0.129
		c-0.363,0.133-0.894,0.331-1.184,0.442c-0.152,0.058-0.5,0.14-0.665,0.156c-0.837,0.084-1.744,0.284-2.425,0.538
		c-0.277,0.095-1.534,0.247-3.718,0.247c-2.499,0-4.612-0.2-5.137-0.385c-0.48-0.169-1.514-0.304-1.63-0.319
		c-1.105-0.142-1.205-0.192-1.474-0.328c-0.407-0.206-1.025-0.383-1.427-0.459c-0.301-0.057-0.459-0.093-0.541-0.115
		c-0.406-0.411-0.811-0.604-1.155-0.688c0.472-2.326,0.377-2.635-0.891-4.056c-1.719-1.925-2.18-2.532-2.641-3.482
		c-0.63-1.297-2.194-6.229-2.32-7.313c-0.069-0.597-0.144-0.702-0.655-0.929c-4.535-2.006-7.143-9.714-3.925-11.853
		c0.477-0.317,0.812-0.555,1.05-0.789c0.026,0.099,0.053,0.2,0.079,0.291c0.155,0.546,0.553,2.037,0.883,3.313
		c1.113,4.291,2.049,7.55,2.262,7.874l0.134,0.204l0.064-0.238c0.035-0.132,0.01-1.118-0.055-2.199
		c-0.304-5.003-0.438-7.449-0.438-8.017c0-0.656-0.078-0.383,1.457-5.104c0.265-0.814,0.618-1.925,0.784-2.468
		c0.213-0.693,0.368-1.056,0.522-1.216c0.205-0.214,1.999-1.451,2.432-1.677c0.887-0.463,5.784,1.026,10.365,3.154
		c1.177,0.546,1.059,0.548,2.32-0.039c4.805-2.238,9.37-3.587,10.376-3.067c1.517,0.785,2.779,1.917,2.783,2.497
		c0,0.058,0.197,0.706,0.438,1.44c0.24,0.733,0.766,2.357,1.169,3.607l0.733,2.272l-0.012,1.127
		c-0.006,0.62-0.045,1.992-0.086,3.048c-0.139,3.576-0.187,6.726-0.1,6.64c0.171-0.168,1.218-4.17,2.217-8.479
		c0.245-1.057,0.515-2.19,0.6-2.521c0.031-0.12,0.065-0.269,0.097-0.404l0.82,0.437C68.123,42.083,66.58,48.139,61.713,51.539z"/>
	<path d="M58.265,40.653c-0.56,0.108-3.471,1.104-5.2,1.777c-0.44,0.171-1.318,0.513-1.952,0.758c-2.733,1.06-3.679,1.943-4.171,3.9
		c-0.19,0.754-0.092,0.768,1.358,0.188c0.597-0.238,2.129-0.847,3.405-1.353c5.221-2.07,6.344-2.522,6.617-2.663
		C59.232,42.791,59.182,40.476,58.265,40.653z"/>
</g>
</svg>
