<?xml version="1.0" encoding="utf-8"?>
<!-- Generator: Adobe Illustrator 16.0.0, SVG Export Plug-In . SVG Version: 6.00 Build 0)  -->
<!DOCTYPE svg PUBLIC "-//W3C//DTD SVG 1.1//EN" "http://www.w3.org/Graphics/SVG/1.1/DTD/svg11.dtd">
<svg version="1.1" id="Layer_1" xmlns="http://www.w3.org/2000/svg" xmlns:xlink="http://www.w3.org/1999/xlink" x="0px" y="0px"
	 width="90px" height="90px" viewBox="0 0 90 90" enable-background="new 0 0 90 90" xml:space="preserve">
<path d="M71.689,40.802c-0.649-0.791,0.084-1.659,0.055-2.722c-0.048-1.748-0.867-3.398-1.71-4.888
	c-1.992-3.521-4.305-6.846-6.331-10.343c-0.658-1.135-1.507-2.969-2.876-3.396c-1.382-0.43-2.165,0.594-3.306-0.607
	c-1.919-2.021-4.244-6.137-7.282-6.409c-1.989-0.179-1.49,0.761-3.293-0.513c-1.554-1.097-2.963-1.142-4.517-0.019
	c-0.382,0.276-1.052,1.168-1.523,0.93c-0.602-0.305-1.211-0.459-1.893-0.377c-1.95,0.236-3.634,2.542-4.938,3.83
	c-0.583,0.577-2.809,3.51-3.459,3.296c-1.489-0.489-2.596-0.167-3.526,1.085c-2.503,3.369-4.66,7.17-6.765,10.798
	c-0.989,1.705-2.105,3.521-2.558,5.46c-0.212,0.907,0.543,3.145,0.064,3.668c-2.233,2.442-2.019,6.774-1.654,9.813
	c0.386,3.208,2.765,5.166,5.186,6.99c1.174,0.885,1.536,2.964,2.458,4.228c1.169,1.602,2.605,2.979,3.9,4.474
	c2.466,2.848,4.363,6.576,7.349,8.928c2.925,2.304,6.787,1.498,10.213,1.63c3.425,0.133,7.143,0.373,9.712-2.327
	c2.897-3.044,5.302-6.72,7.999-9.957c1.448-1.738,3.675-3.774,4.332-5.998c0.583-1.971,3.697-3.065,4.834-4.817
	C74.029,50.681,74.199,43.457,71.689,40.802z M23.451,55.62c-1.524-1.405-3.614-2.202-4.369-4.297
	c-0.545-1.514-0.261-3.22-0.251-4.803c-0.018-0.895,0.896-5.355,2.422-3.395c1.257,1.615,2.538,2.868,2.466,5.014
	C23.635,50.632,23.306,53.124,23.451,55.62z M56.946,58.304c0.304,0.718,0.495,1.474,0.729,2.216
	c-0.777,0.773-1.385,1.698-2.202,2.434c-0.977,1.417,0.115,4.699-0.437,6.54c-0.596,1.99-2.475,4.034-4.571,4.401
	c-2.551,0.447-5.315,0.013-7.901,0.082c-2.312,0.061-4.646,0.244-6.376-1.556c-2.15-2.236-2.283-4.56-2.128-7.522
	c0.094-1.794-0.37-1.907-1.37-3.231c-0.341-0.452-0.739-1.188-1.29-1.429c0.29-0.58,0.583-1.159,0.805-1.77
	c1.176-3.247-2.106-1.28-3.456-2.743c-2.391-2.592-1.417-5.063-1.072-8.234c1.344,3.076,4.41,4.868,7.022,6.743
	c2.841,2.04,6.427,4.672,8.885,0.515c0.766-1.297-0.696-1.71-1.679-1.623c-1.382,0.124-2.319-0.034-3.301-1.128
	c-2.467-2.747-4.152-6.383-5.121-9.909c0.697,0.862,1.777,3.35,2.893,3.627c0.91,0.227,1.489-0.963,2.333-1.047
	c1.093-0.108,2.357,3.343,2.832,4.122c0.742,1.218,1.954,4.523,3.216,5.174c0.559,0.289,4.932-8.398,5.694-9.256
	c0.825-0.931,2.042,1.843,3.169,0.868c0.84-0.726,1.452-1.793,1.98-2.758c-1.164,3.354-2.572,6.999-5.245,9.48
	c-1.287,1.195-2.209,0.647-3.729,0.8c-1.955,0.198-0.76,2.014,0.08,2.672c2.876,2.253,4.472,0.749,7.26-1.103
	c2.832-1.881,6.273-3.895,7.699-7.142c0.266,1.918,0.537,3.842,0.537,5.783c-0.515,1.009-1.692,3.438-3.136,3.194
	C57.638,56.262,56.007,56.08,56.946,58.304z M52.81,36.524c-0.894,0.702-1.434,2.171-2.076,3.083
	c-0.748,1.063-0.93,1.368-1.957,0.51c-0.833-0.695-1.746-1.602-2.432-2.348c-1.121-1.142-1.439-1.418-2.689-0.206
	c-0.653,0.633-3.07,3.914-3.987,2.945c-0.994-1.052-1.463-2.482-2.409-3.562c-1.192-1.361-3.755,0.966-4.483,2.035
	c-0.208-1.723-0.308-3.474-0.128-5.204c0.09-0.863,0.251-1.721,0.522-2.546c0.392-1.194,0.853-0.718,1.775-0.193
	c1.261,0.718,4.683,4.542,4.969,1.186c1.322,0.942,2.879,3.969,4.457,4.284c1.593,0.319,3.815-3.502,5.057-4.33
	c0.342,3.332,4.911-1.367,6.428-1.726c0.967,2.659,1.028,5.559,0.747,8.345C56.188,38.16,53.599,35.903,52.81,36.524z
	 M51.902,41.389c-0.027-0.795,0.13-1.046,0.466-1.318c0.6-0.649,1.856-0.846,2.144,0.719C54.867,42.72,52.047,42.656,51.902,41.389z
	 M46.979,46.077c-3.197,3.187-7.76-2.497-3.927-4.873C46.25,39.222,49.396,43.334,46.979,46.077z M37.609,41.208
	c-0.448,1.561-2.76,1.117-2.511-0.489C35.383,38.893,38.076,39.579,37.609,41.208z M64.779,53.953
	c-0.113,3.72-2.211,6.595-4.789,9.114c-0.638-1.788-1.104-3.632-1.792-5.402c3.4,1.281,5.501-3.478,5.34-6.052
	c-0.03-0.478-0.74-9.187-2.541-6.212c-0.653,1.079-0.817,2.227-1.645,3.248c-1.254,1.546-2.962,2.634-4.569,3.772
	c-1.172,0.83-2.41,1.564-3.566,2.409c-1.654,1.208-2.146,1.011-3.712-0.208c5.797,0.953,9.181-9.714,10.043-13.783
	c0.698-3.297,1.005-7.472-0.34-10.661c-1.158-2.744-5.215,0.581-6.399,1.735c-0.491-4.077-5.091,2.317-6.196,3.197
	c-0.82-0.637-5.661-7.227-6.076-3.175c-1.223-1.139-3.642-3.342-5.496-2.721c-2.308,0.772-1.88,6.948-1.763,8.722
	c0.253,3.834,1.684,7.859,3.63,11.153c1.445,2.447,3.546,5.999,6.878,5.536c-1.53,1.189-1.63,1.242-3.282,0.402
	c-1.736-0.883-3.273-2.126-4.847-3.261c-1.283-0.925-2.576-1.878-3.594-3.101c-0.737-0.885-1.238-3.294-2.249-3.728
	c-1.971-0.844-2.238,7.162-2.085,8.234c0.321,2.264,2.674,5.178,5.143,4.586c-0.831,1.62-1.364,3.375-1.864,5.119
	c-2.546-3.239-4.418-5.042-4.219-9.377c0.16-3.458,1.121-6.604-1.198-9.5c-2.457-3.069-3.393-5.727-1.507-9.274
	c2.025-3.809,4.422-7.4,6.763-11.019c0.31,3.148,2.546,0.244,3.434-0.84c1.847-2.255,3.923-4.324,6.032-6.332
	c-0.214,2.039,0.724,2.681,2.239,1.214c1.453-1.407,3.465-4.476,5.42-2.772c1.149,1.001,5.738,6.438,5.073,1.614
	c1.885,1.731,3.675,3.566,5.359,5.495c0.806,0.923,3.714,5.257,4.099,1.663c2.399,3.685,4.742,7.411,6.823,11.286
	c1.118,2.081,1.867,3.138,0.633,5.206c-0.431,0.723-1.943,3.48-2.874,4.459C63.906,45.938,64.859,51.297,64.779,53.953z
	 M70.551,50.145c-0.345,2.668-2.577,3.745-4.466,5.313c0.113-1.897,0.013-3.8-0.159-5.69c-0.103-1.139-0.684-2.471-0.218-3.595
	c0.395-0.953,2.887-4.7,4.043-3.482C71.247,44.266,70.803,48.196,70.551,50.145z"/>
</svg>
