<?xml version="1.0" encoding="utf-8"?>
<!-- Generator: Adobe Illustrator 16.0.0, SVG Export Plug-In . SVG Version: 6.00 Build 0)  -->
<!DOCTYPE svg PUBLIC "-//W3C//DTD SVG 1.1//EN" "http://www.w3.org/Graphics/SVG/1.1/DTD/svg11.dtd">
<svg version="1.1" id="Layer_1" xmlns="http://www.w3.org/2000/svg" xmlns:xlink="http://www.w3.org/1999/xlink" x="0px" y="0px"
	 width="90px" height="90px" viewBox="0 0 90 90" enable-background="new 0 0 90 90" xml:space="preserve">
<path d="M72.481,65.529c-4.803-4.027-5.3-10.385-5.642-16.213c1.561-0.008,4.693,0.144,4.22-2.381
	c-0.459-2.441-4.021-3.062-4.603-5.758c-0.988-4.584,1.803-2.763,1.624-5.028c-0.115-1.462-1.028-1.823-0.609-2.985
	c3.092-3.646,3.212-9.463,0.697-13.442c-0.97-1.535-3.635-4.559-5.723-3.402c-2.106,1.166-0.737,3.862-0.8,5.472
	c-1.179-1.672-3.155-1.074-5.142-2.253c-1.743-1.034-3.703-1.741-5.736-1.867c-2.073-0.126-3.934,1.227-5.824,1.109
	c-1.589-0.1-2.985-1.085-4.679-1.121c-2.063-0.043-4.104,0.496-5.936,1.428c-1.019,0.519-1.764,1.132-2.786,1.369
	c-2.075-0.644-2.692,0.405-3.783,1.492c-0.03-1.651,0.927-4.979-0.549-5.796c-2.024-1.12-4.709,2.353-5.635,3.967
	c-1.411,2.461-1.831,5.475-1.29,8.248c0.26,1.327,0.747,2.612,1.472,3.756c0.524,0.827,1.298,1.177,0.728,2.184
	c-0.663,1.167-1.137,1.612-0.299,2.85c0.313,0.464,1.479,0.559,1.625,0.813c-0.012,1.747-0.342,4.022-1.545,5.325
	c-1.237,1.341-4.164,2.699-3.318,4.936c0.535,1.414,3.021,1.071,4.228,1.108c-0.44,4.436-0.354,9.075-2.813,12.988
	c-0.951,1.515-7.181,6.383-2.306,7.279c2.742,0.504,6.206,0.071,8.782-0.97c1.349-0.546,1.562-0.833,3.219-0.828
	c1.278,0.004,2.557,0.037,3.831,0.124c1.332,0.092,1.809,0.967,2.852,1.728c3.645,2.657,8.896,2.854,13.128,1.717
	c1.957-0.524,3.46-1.51,4.961-2.837c0.878-0.776,6.712-1.019,7.158-0.602c2.23,2.084,7.629,2.313,10.44,1.538
	C75.234,68.703,73.213,66.34,72.481,65.529z M42.042,21.294c2.138,0.622,2.83,1.235,4.997,0.285c1.921-0.841,4.056-0.814,5.968-0.01
	c1.249,0.525,3.256,1.462,4.701,2.66c-0.256,1.784-0.896,4.023-2.707,4.688c-3.479,1.274-6.438-3.136-10.052,1.272
	c-2.318-2.672-4.712-2.291-7.48-1.189c-3.063,1.219-4.885-1.815-5.199-4.535C35.462,22.261,37.817,20.063,42.042,21.294z
	 M23.189,28.696c-0.89-2.919-0.09-6.888,2.124-9.092c-0.565,2.439-0.795,5.684,0.881,7.739c1.181,1.448,2.359-2.28,3.636-3.472
	c0.014,3.972,2.915,8.17,7.052,7.57c1.724-0.25,3.727-1.705,5.44-0.812c1.077,0.561,2.467,3.44,3.788,1.515
	c2.551-3.702,6.604,0.519,10.169-1.313c1.565-0.804,2.55-2.399,3.252-3.979c0.656-1.478,0.731-2.438,0.803-2.77
	c1.322,1.37,0.916,3.198,2.332,2.876c2.409-0.548,2.016-5.618,1.584-7.459c2.75,2.5,3.429,6.428,2.388,9.399
	c-0.411,1.176-1.09,2.263-2.008,3.109c-1.377,1.271-0.991,1.604-0.05,3.008c-1.147-0.331-2.913-0.948-3.816,0.2
	c-0.797,1.014-0.773,2.015-2.046,2.642c-0.246-2.74-3.285-6.752-6.513-5.569c-1.447,0.53-0.677,2.639-2.305,3.207
	c-0.765,0.267-2.473,0.227-2.796,0.004c-0.542-0.374-0.76-0.553-1.168-1.019c-0.61-0.697-1.464-0.329-1.856,0.226
	c-0.971,1.372-3.857,1.282-5.069,0.095c-1.835-5.458-7.185-0.846-7.839,3.027c-1.035-0.473-1.29-1.179-1.76-2.149
	c-0.752-1.553-2.772-1.166-4.112-0.628c0.722-1.047,1.52-1.667,0.408-2.818C24.603,31.088,23.675,30.289,23.189,28.696z
	 M44.795,42.127c-1.625-0.5-1.963-5.051,0.185-5.051C47.475,37.076,46.014,42.503,44.795,42.127z M28.313,65.641
	c1.18-1.678,1.367-3.705,1.551-5.717c1.153,2.13,1.882,3.838,3.595,5.58C31.652,65.386,29.703,65.5,28.313,65.641z M31.953,59.405
	c-0.479-0.858-1.109-2.709-2.37-2.717c-1.791,0-1.975,4.088-2.098,4.74c-0.097,0.513-0.751,2.853-1.646,3.802
	c-1.041,1.104-2.974,1.016-4.408,1.13c2.71-3.03,3.902-6.918,4.507-10.863c0.407-2.655,2.186-9.501-1.952-9.401
	c2.36-2.403,2.979-4.393,2.968-7.757c-0.006-0.533-0.001-1.066,0.016-1.6c1.046-0.184,0.744,0.55,1.294,1.31
	c0.673,0.928,2.678,2.567,3.955,2.023c1.063-0.453,0.929-1.698,1.344-2.572c0.42-0.885,1.245-2.478,2.875-2.938
	c-0.02,0.006,1.104,1.65,1.36,1.875c1.086,0.948,2.266,1.317,3.696,1.274c-1.193,1.516-2.931,3.935-4.953,4.718
	c-1.763,0.683-4.465,1.716-4.538,3.88c-0.095,2.768,0.441,5.752,0.853,8.397c0.489,3.151,1.08,6.345,2.086,9.376
	C33.787,62.631,32.856,61.021,31.953,59.405z M37.953,66.375c1.173,1.646,5.416,1.621,7.167,1.621c2.428,0,5.544-0.162,7.27-2.136
	C51.178,69.566,39.368,70.266,37.953,66.375z M53.621,62.479c-0.195,0.678-2.543,1.006-2.945,1.646
	c-1.183,2.171-6.589,1.547-8.476,1.262c-0.721-0.109-1.791-0.291-2.435-0.651c-0.681-0.381-0.807-1.104-1.484-1.453
	c-1.354-0.696-1.244,0.817-1.772-0.997c-0.378-1.297-0.689-2.613-0.935-3.941c2.17,2.186,5.981,5.228,9.195,5.354
	c3.306,0.13,7.81-3.234,9.901-5.616C54.395,59.563,54.039,61.029,53.621,62.479z M54.815,53.798
	c-1.034,2.369-2.805,4.048-4.956,5.428c-2.887,1.853-4.757,2.851-7.883,1.096c-4.912-2.757-7.498-6.039-7.855-11.761
	c-0.044-0.709-0.298-1.762,0.025-2.435c0.677-0.706,1.478-1.111,2.39-1.457c1.651-0.626,3.183-0.2,3.082-1.766
	c1.097-0.924,1.891-1.858,2.756-3.017c0.236,1.178,0.841,3.087,2.194,3.401c1.873,0.435,2.645-2.15,2.854-3.515
	c0.728,0.869,1.53,1.686,2.37,2.447c0.395,0.357,0.35,0.969,0.552,1.382c0.404,0.784,1.52,0.665,2.234,0.832
	c1.177,0.274,2.522,1.162,3.422,1.962C56.154,48.976,55.851,51.426,54.815,53.798z M59.469,65.563
	c-1.089,0.002-1.606,0.193-2.844,0.359c1.461-1.867,2.407-3.525,3.521-5.5c0.271,1.921,0.403,3.461,1.541,5.079
	C60.933,65.504,60.19,65.556,59.469,65.563z M63.414,64.263c-1.064-1.904-1.332-4.137-1.649-6.259
	c-0.441-2.92-2.51-0.375-3.137,0.768c-0.979,1.783-2.046,4.277-3.381,5.313c0.716-1.728,1.55-6.257,1.896-8.595
	c0.428-2.893,0.982-5.788,1.012-8.726c0.025-2.553-2.603-3.407-4.704-4.289c-1.811-0.759-3.775-3.076-5.051-4.744
	c2.154,0.043,4.444-1.075,5.038-3.294c2.646,0.278,2.797,3.141,3.375,4.875c0.344,1.031,1.84,1.186,3.718-0.131
	c0.767-0.538,1.181-1.413,1.66-2.216c0.602-1.007,0.833,2.287,0.851,2.617c0.149,2.816,0.671,4.497,2.677,6.503
	c-3.601-0.783-2.149,5.812-1.967,7.759c0.425,4.521,1.651,9.089,4.766,12.529C66.485,66.227,64.495,66.195,63.414,64.263z"/>
</svg>
