<?xml version="1.0" encoding="utf-8"?>
<!-- Generator: Adobe Illustrator 16.0.0, SVG Export Plug-In . SVG Version: 6.00 Build 0)  -->
<!DOCTYPE svg PUBLIC "-//W3C//DTD SVG 1.1//EN" "http://www.w3.org/Graphics/SVG/1.1/DTD/svg11.dtd">
<svg version="1.1" id="Layer_1" xmlns="http://www.w3.org/2000/svg" xmlns:xlink="http://www.w3.org/1999/xlink" x="0px" y="0px"
	 width="90px" height="90px" viewBox="0 0 90 90" enable-background="new 0 0 90 90" xml:space="preserve">
<g>
	<path d="M31.734,41.361"/>
	<path d="M72.469,60.75c-0.969-1-0.75-3.578-1.33-5.708c-0.497-1.825-1.274-2.391-3.139-2.212c0-0.825,0-1.651,0-2.477
		c0.161-0.237,1.4-0.338,1.726-0.582c1.415-1.061,0.588-2.663-0.493-3.778c-1.877-1.937,0.62-1.192,1.24-1.823
		c1.62-1.646-0.527-4.875-1.306-6.462c6.375,0.229-2.557-10.604-4.063-12.376c-2.775-3.266-6.388-6.336-10.861-6.576
		c-0.787-0.042-1.564,0.026-2.347,0.096c-0.677,0.061-2.276-1.83-2.915-2.281c-3.041-2.146-6.232-2.43-9.822-2.883
		c-1.659-0.21-3.317-0.426-4.978-0.627c-1.606-0.195-3.023-0.729-4.608-0.224c-3.014,0.959-0.133,4.917,0.177,6.371
		c0.006,0.029-4.207,0.862-4.594,0.988c-2.144,0.698-4.154,1.764-5.975,3.088c-1.091,0.792-1.662,1.901-1.14,3.32
		c0.538,1.46,2.06,1.062,3.025,1.599c-0.345-0.191-3.921,3.635-4.172,3.965c-1.479,1.939-2.604,4.09-3.34,6.414
		c-0.39,1.23-0.691,3.08,0.153,4.272c0.786,1.11,2.124-0.354,1.961,1.52c-0.349,4.011,1.007,9.535,3.414,12.736
		c0.814,1.084,2.013,0.673,2.839,1.643c1.229,1.443,4.839,3.075,5.048,4.637c0.319,2.39,0.798,4.8,1.725,7.04
		c0.805,1.945,3.448,0.7,4.63-0.746c0.171-0.208,4.256,2.537,4.8,2.785c2.169,0.99,4.425,1.366,6.781,1.188
		c2.435-0.185,4.466-0.9,6.469-2.281c0.255-0.177,1.944-1.284,2.413-1.878c0.576,1.341,1.743,3.472,3.934,2.259
		c1.365-0.756,1.975-4.345,2.448-6.491c0.527,0.648,5.43,4.417,5.904,4.73c1.485,0.981,5.028,3.66,6.87,2.14
		c1.408-1.161,0.924-4.614,1.041-6.217C74.108,64.246,73.596,61.203,72.469,60.75z M29.948,67.28
		c-0.489-1.707-0.675-3.477-0.951-5.228c-0.378-1.025-0.487-0.901-1.207-1.645c0.236,0.236,0.792,0.216,1.065,0.568
		c0.379,0.486,0.489,1.283,0.768,1.831c0.414,0.817,2.984,3.368,2.991,3.358C31.24,65.967,31.292,71.964,29.948,67.28z
		 M53.911,64.238c-2.245,2.023-4.471,4.474-7.479,5.316c-3.693,1.034-7.031-0.188-9.904-2.519c-2.692-2.185-4.158-4.354-5.987-7.197
		c-0.746-1.159-0.939-3.798-1.107-5.154c-0.297-2.404-0.317-4.119,0.263-6.471c0.409,0.932,1.009,2.478,1.773,3.505
		c1.151,1.547,3.765,3.708,5.808,3.963c2.688,0.329,1.812-3.403,3.239-3.435c2.102-0.047,2.257-2.286,1.553-3.765
		c1.082,0.007,1.851-0.132,2.932-0.166c-0.318,1.858,0.719,4.215,2.494,3.834c2.199-0.472,4.333-2.075,6.411-2.914
		c6.001-2.424,0.501,7.889,2.876,10.639C55.258,61.12,55.472,62.842,53.911,64.238z M42.406,45.045
		c1.281-2.889,2.531-5.545,4.698-7.628c0.994,2.708,1.821,4.838,3.712,7.051C47.678,44.832,45.564,45.104,42.406,45.045z
		 M56.533,69.472c-0.616-0.242-1.058-2.497-1.512-3.201c1.75-1.416,2.588-4.671,3.74-5.401
		C57.981,61.649,56.969,69.484,56.533,69.472z M28.313,45.75c-0.217,0.591-0.874,2.504-0.914,2.727
		c-0.283,1.54-0.363,3.115-0.282,4.679c0.039,0.739,0.558,6.244,0.991,6.388c-2.835-0.938-2.587-7.131-3.016-9.438
		c-0.313-1.681-1.459,0.606-1.808,1.138c-0.856,1.712-0.575,2.424-0.531,4.845c-0.726-0.885-0.824-2.105-1.608-0.79
		c-0.437,0.733-0.973-0.619-1.086-0.873c-1.043-2.347-1.721-4.645-2.203-7.163c-0.485-2.514,0.392-5.842,2.251-7.658
		c2.813-2.75-1.765-0.583-2.859,0.205c-0.344,0.248-2.032,2.06-1.905,0.678c0.12-1.298,0.839-2.772,1.395-3.944
		c1.323-2.79,3.519-5.276,6.146-6.904c1.179-0.73,5.924-2.157,2.17-2.792c-0.848-0.143-4.247-0.456-4.656-1.265
		c-0.46-0.909,3.313-2.485,3.932-2.727c2.775-1.084,4.473-1.473,7.44-1.603c1.942-0.085,0.849-2.076,0.42-2.752
		c-0.791-1.249-2.729-4.021-0.836-3.635c3.034,0.618,6.349,0.817,9.432,1.139c2.983,0.307,5.438,1.036,7.821,2.915
		c0.836,0.66,1.762,2.483,2.954,2.233c1.538-0.322,3.411-0.33,4.909,0.179c3.005,1.025,5.526,3.532,7.492,5.938
		c0.603,0.736,5.818,7.514,5.144,8.091c-0.331,0.282-7.146-2.866-4.197,0.206c1.154,1.203,2.167,2.678,2.904,4.172
		c0.14,0.284,1.764,3.071,0.264,2.553c-0.887-0.306-2.89-1.587-3.768-1.091c-0.345,0.194,1.451,3.316,1.662,3.731
		c0.188,0.372,2.061,3.102,1.917,3.22c-0.542,0.447-3.052-0.288-2.731,0.664c0.077-0.054-1.744-0.4-1.903-0.419
		c-2.05-0.234-2.459,4.729-3.125,6.375c-0.417,0.823-1.283,2.825-1.501,2.354c-0.219-0.473-0.104-0.886-0.031-1.281
		c0.328-1.756,0.336-3.56,0.379-5.344c0.053-2.163-0.41-3.281-2.668-3.79c-2.058-0.464-4.822,1.519-6.589,2.353
		c-0.504,0.242-1.242,0.634-1.81,0.719c-0.868,0.13-0.571-1.027-0.389-1.167c0.894-0.687,2.144-1.041,3.181-1.424
		c0.675-0.249,2.913-0.5,3.347-1.21c0.464-0.759-2.962-4.73-3.389-5.543c-0.57-1.088-1.872-5.806-3.563-5.438
		c-1.737,0.379-3.78,3.737-4.688,5.063c-0.959,1.404-4.555,7.246-2.677,8.709c0.26,0.202,0.757,0.71,0.68,1.111
		c-0.119,0.622-0.85-0.171-1.378-0.049c-1.642,0.401-0.75,4.822-2.562,3.423c-1.934-1.493-3.779-3.384-4.502-5.747
		c-0.468-1.53-0.395-5.475-0.233-6.148C30.563,42,28.847,44.521,28.313,45.75z M63.721,50.489c3.067,0.2-2.616,6.741-2.492,6.624
		C62.598,55.15,62.797,52.938,63.721,50.489z M70.146,68.021c-3.233-1.69-6.19-4.052-8.432-6.94c1.02-0.653,1.941-1.467,2.759-2.357
		c1.155-1.26,1.604-1.607,3.317-1.936c0.156,0.867,0.437,1.705,0.634,2.563c-1.038-0.078-2.321-0.656-3.325-0.272
		c-1.076,0.412-1.523,1.848-0.675,2.704c0.915,0.922,6.181,2.036,6.065,2.702C70.287,65.655,70.197,66.833,70.146,68.021z"/>
</g>
</svg>
