<?xml version="1.0" encoding="utf-8"?>
<!-- Generator: Adobe Illustrator 16.0.0, SVG Export Plug-In . SVG Version: 6.00 Build 0)  -->
<!DOCTYPE svg PUBLIC "-//W3C//DTD SVG 1.1//EN" "http://www.w3.org/Graphics/SVG/1.1/DTD/svg11.dtd">
<svg version="1.1" id="Layer_1" xmlns="http://www.w3.org/2000/svg" xmlns:xlink="http://www.w3.org/1999/xlink" x="0px" y="0px"
	 width="90px" height="90px" viewBox="0 0 90 90" enable-background="new 0 0 90 90" xml:space="preserve">
<path d="M71.689,40.802l-0.397-0.42l0.222-0.667c0.977-2.942-1.346-6.27-2.742-8.664c-1.376-2.358-2.83-4.671-4.32-6.958
	c-0.854-1.311-1.74-3.266-2.967-4.28c-0.852-0.704-1.811-0.428-2.755-0.224c-0.756,0.163-2.171-1.969-2.624-2.437
	c-1.456-1.506-3.178-3.674-5.147-4.545c-0.615-0.272-1.633-0.238-2.239,0.074l-0.468,0.241c-1.215-0.926-2.715-2.344-4.366-1.803
	c-1.036,0.34-1.929,1.144-2.751,1.831l-0.456-0.231c-0.715-0.362-1.76-0.38-2.442-0.041c-1.311,0.652-2.456,1.963-3.495,2.961
	c-1.341,1.289-2.629,2.629-3.844,4.037l-0.563-0.185c-0.975-0.319-2.102-0.125-2.648,0.457c-0.843,0.899-1.475,2.083-2.143,3.109
	c-1.22,1.876-2.411,3.771-3.579,5.68c-1.107,1.809-2.212,3.628-3.158,5.529c-0.861,1.732-1.586,3.541-0.976,5.47l0.202,0.64
	l-0.402,0.439c-1.363,1.492-1.956,5.405-1.453,9.593c0.438,3.649,3.05,5.363,5.821,7.47c0.76,3.313,3.572,5.738,5.723,8.222
	c2.333,2.695,4.253,5.851,6.745,8.387c2.119,2.157,5.312,2.354,8.16,2.171c3.437-0.221,7.411,0.77,10.597-0.942
	c1.15-0.618,1.962-1.519,2.751-2.546c1.264-1.645,2.48-3.316,3.794-4.923c2.123-2.596,4.357-5.128,6.377-7.803
	c0.48-0.636,0.954-1.295,1.182-2.067c0.316-1.069,1.544-1.659,2.366-2.311c1.146-0.909,2.283-1.922,2.892-3.283
	c0.722-1.612,0.718-3.486,0.718-5.217C73.303,44.098,72.795,41.972,71.689,40.802z M55.472,62.954l-0.25,0.225
	c-0.018,2.444,0.624,5.615-0.831,7.665c-1.984,2.796-3.008,3.283-6.649,3.163c-2.385-0.079-3.812-0.079-6.12-0.001
	c-3.64,0.122-4.738-0.396-6.694-3.156c-1.555-2.195-0.729-5.142-0.842-7.701c-0.348-0.35-0.695-0.7-1.042-1.051
	c-0.404-0.407-1.127-1.633-1.644-1.859c0.39-0.781,1.438-2.755,0.954-3.553c-0.677-1.116-1.899,0.141-2.775-0.269
	c-0.833-0.401-2.33-2.492-2.465-3.441c-0.257-1.816,0.369-3.696,0.563-5.484c1.217,2.785,3.852,4.497,6.263,6.201
	c1.255,0.887,2.554,1.883,3.928,2.582c0.715,0.364,1.289,0.954,2.145,0.954c1.026,0,1.766-0.847,2.528-1.419
	c0.999-0.75,1.387-1.407,1.187-2.008c-0.431-1.289-2.485-0.351-3.446-0.65c-1.583-0.493-2.393-2.151-3.293-3.396
	c-1.613-2.233-2.777-5.017-3.505-7.665c0.796,0.985,1.503,2.006,2.209,3.063c1.36,2.033,2.782-2.047,3.917,0.225
	c1.309,2.614,3.044,5.067,4.454,7.638c0.604,1.101,0.857,1.232,1.172,0.604c0.794-1.585,1.841-3.161,2.77-4.677
	c0.797-1.301,1.427-3.085,2.447-4.233c0.229-0.259,0.5-0.223,0.965,0.127c0.419,0.316,0.961,0.54,1.321,0.926
	c0.731,0.783,2.556-2.382,2.863-2.942c-0.807,2.327-1.671,4.849-3.166,6.847c-1.292,1.729-2.557,4.129-5.084,3.495
	c-0.771-0.193-1.433,0.022-1.703,0.541c-0.2,0.385-0.144,0.849,0.154,1.274c0.248,0.354,2.446,1.999,2.87,2.146
	c1.319,0.459,2.721-0.832,3.771-1.477c1.03-0.632,2.027-1.308,3.023-1.995c2.351-1.621,5.016-3.427,6.2-6.124
	c0.27,1.95,0.537,3.802,0.537,5.783c-0.593,1.161-1.378,2.512-2.572,3.153c-0.896,0.358-2.059-1.021-2.778,0.164
	c-0.313,0.515-0.122,1.167,0.094,1.678c0.315,0.746,0.487,1.45,0.729,2.216C56.896,61.294,56.295,62.212,55.472,62.954z
	 M18.665,47.689c-0.004-4.05,0.627-5.627,2.12-5.271c0.107,0.518,0.617,0.917,0.896,1.351c0.42,0.655,0.928,1.271,1.451,1.847
	c0.645,0.709,0.576,1.611,0.546,2.523c-0.083,2.494-0.37,4.983-0.226,7.481c-0.187-0.172-0.414-0.347-0.69-0.537
	C19.197,52.652,18.668,51.698,18.665,47.689C18.66,43.639,18.668,51.698,18.665,47.689z M65.085,44.698
	c-0.945,0.809-0.907,2.125-0.765,3.251c0.191,1.512,0.326,3.032,0.382,4.555c0.054,1.486,0.359,3.868-0.44,5.232
	c-0.291,0.495-0.687,0.937-1.046,1.381c-1.049,1.301-2.032,2.781-3.227,3.949c-0.641-1.794-1.101-3.625-1.792-5.402
	c0.622,0.234,1.469,0.366,2.083,0.038c1.586-0.85,2.518-2.515,3.322-4.047c0-2.072-0.208-4.036-0.515-6.078
	c-0.115-0.762-0.027-2.412-0.955-2.726c-1.203-0.407-1.536,1.687-1.879,2.395c-1.094,2.258-3.488,3.769-5.472,5.174
	c-0.847,0.599-1.739,1.331-2.665,1.799c-0.709,0.36-2.143,1.759-2.967,1.586c-0.241-0.131-1.063-0.73-1.646-1.184
	c2.821,0.464,4.42-1.875,5.879-3.884c1.275-1.755,2.339-3.9,3.049-5.951c1.604-4.637,2.226-9.123,0.996-13.934
	c-0.457-1.783-1.317-2.112-2.99-1.381c-1.29,0.563-2.62,1.455-3.631,2.44c-0.083-0.685-0.402-1.065-0.814-1.574
	c-1.002,0.485-1.786,0.981-2.612,1.746c-0.564,0.522-1.11,1.066-1.631,1.632c-0.378,0.41-0.708,1.05-1.138,1.393
	c-0.711-0.553-1.253-1.581-1.893-2.24c-0.708-0.729-1.485-1.554-2.393-2.038c-1.063-0.566-1.681,0.034-1.79,1.104
	c-1.512-1.409-5.922-4.849-6.601-1.131c-0.202,1.105-0.579,2.071-0.658,3.209c-0.09,1.307-0.086,2.616,0,3.923
	c0.154,2.333,0.841,4.589,1.599,6.79c0.72,2.093,1.801,4.161,3.067,5.974c1.439,2.061,2.998,4.32,5.843,3.925
	c-0.455,0.354-0.921,0.829-1.429,1.104c-0.636,0.346-1.322-0.432-1.853-0.702c-1.467-0.747-2.859-1.828-4.192-2.79
	c-2.399-1.731-4.874-3.391-5.781-6.354c-0.19-0.622-0.618-1.163-1.349-0.983c-0.81,0.198-0.792,1.395-0.854,2.036
	c-0.197,2.048-0.893,4.163-0.599,6.235c0.201,1.418,1.99,3.903,3.243,4.506c0.569,0.274,1.305,0.222,1.899,0.08
	c-0.816,1.592-1.371,3.401-1.864,5.119c-1.03-1.311-2.201-2.507-3.196-3.845c-1.392-1.87-1.041-4.923-0.941-7.081
	c0.102-2.206,0.965-5.44-0.703-7.276c-1.222-1.344-2.016-2.725-2.785-4.336c-0.888-1.86-0.68-2.929,0.241-4.731
	c2.116-4.138,4.702-8.004,7.223-11.901c0.054,0.551,0.192,1.524,1.037,1.524c0.835-0.031,1.379-1.114,1.85-1.692
	c0.728-0.896,1.458-1.797,2.249-2.638c1.403-1.491,2.847-2.954,4.331-4.366c-0.06,0.568-0.232,1.479,0.215,1.939
	c0.151,0.154,0.354,0.24,0.571,0.24c0.584,0,1.074-0.598,1.453-0.965c0.746-0.722,1.489-1.447,2.266-2.136
	c0.577-0.511,1.187-1.106,1.883-1.459c1.034,0.358,2.201,1.768,2.984,2.494c0.656,0.608,1.974,2.611,3.041,1.95
	c0.187-0.115,0.549-0.34,0.319-2.006c1.882,1.729,3.678,3.57,5.359,5.495c0.792,0.907,1.481,2.016,2.355,2.838
	c0.994,0.933,1.65-0.309,1.743-1.175c2.788,4.281,5.452,8.542,7.768,13.09c0.51,1,0.519,1.533,0.046,2.592
	C67.481,41.302,66.697,43.315,65.085,44.698C64.153,45.496,65.379,44.446,65.085,44.698z M47.07,45.999
	c-0.62,0.655-1.5,1.047-2.357,1.047c-0.651,0-1.281-0.233-1.784-0.644c-0.84-0.687-1.322-1.579-1.358-2.511
	c-0.032-0.849,0.321-1.669,0.992-2.308c1.841-1.751,5.231-0.621,5.382,2.022C47.996,44.498,47.685,45.348,47.07,45.999
	C46.451,46.654,47.685,45.348,47.07,45.999z M46.357,37.782c-1.584-1.612-1.155-1.72-3.927,0.987
	c-1.149,1.122-2.146,2.052-2.217,2.067c-0.499,0.107-1.613-1.844-1.87-2.22c-0.361-0.529-1.299-2.633-2.27-2.127
	c-0.973,0.506-2.678,1.584-3.296,2.493c-0.328-2.71-0.425-5.97,0.694-8.541c1.006,0.216,1.994,0.879,2.8,1.493
	c0.731,0.557,1.982,2.067,2.997,1.679c0.543-0.164,0.58-0.591,0.625-1.131c0.007-0.086,0.015-0.172,0.022-0.258
	c0.929,0.662,1.753,1.527,2.504,2.379c0.655,0.742,1.3,2.196,2.515,1.885c0.88-0.226,1.502-1.483,2.114-2.12
	c0.729-0.76,1.499-1.603,2.38-2.19c0.002,0.019,0.004,0.04,0.005,0.061c0.153,1.81,1.42,1.513,2.5,0.536
	c1.068-0.965,2.508-1.987,3.923-2.322c0.962,2.647,1.027,5.571,0.747,8.345c-0.612-0.94-1.95-1.545-2.85-2.162
	c-0.605-0.416-0.894-0.328-1.392,0.425c-0.33,0.499-2.182,3.708-2.733,3.708C49.441,40.769,47.992,39.447,46.357,37.782
	C44.773,36.17,47.992,39.447,46.357,37.782z M37.61,41.208c-0.116,0.405-0.443,0.908-0.982,0.989c-0.672,0.1-1.326-0.232-1.502-0.92
	c-0.131-0.512,0.009-1.211,0.794-1.642c0.425-0.234,1.148,0.175,1.458,0.44C37.708,40.358,37.714,40.845,37.61,41.208
	C37.494,41.613,37.714,40.845,37.61,41.208z M51.936,40.669c0.103-0.235,0.62-0.859,0.826-0.995
	c0.599-0.251,1.237,0.095,1.555,0.612c0.121,0.197,0.372,0.718,0.083,1.291c-0.268,0.53-0.709,0.641-1.033,0.641
	c-0.444-0.007-0.884-0.199-1.17-0.544C52.033,41.475,51.857,41.142,51.936,40.669C52.039,40.434,51.857,41.142,51.936,40.669z
	 M20.639,42.009C20.503,42.009,20.503,42.009,20.639,42.009C20.606,42.009,20.639,42.009,20.639,42.009z M66.085,55.458
	c0.113-1.894,0.012-3.803-0.159-5.69c-0.086-0.955-0.819-3.246,0.07-4.007c0.52-0.445,0.953-1.033,1.359-1.579
	c0.353-0.475,1.091-1.189,1.194-1.756c0.01-0.003,0.018-0.005,0.028-0.008c1.424-0.423,2.086,1.213,2.084,5.151
	c-0.002,4.224-0.323,4.812-4.106,7.531C66.372,55.231,66.217,55.348,66.085,55.458C66.215,53.273,66.217,55.348,66.085,55.458z"/>
</svg>
