<?xml version="1.0" encoding="utf-8"?>
<!-- Generator: Adobe Illustrator 16.0.0, SVG Export Plug-In . SVG Version: 6.00 Build 0)  -->
<!DOCTYPE svg PUBLIC "-//W3C//DTD SVG 1.1//EN" "http://www.w3.org/Graphics/SVG/1.1/DTD/svg11.dtd">
<svg version="1.1" id="Layer_1" xmlns="http://www.w3.org/2000/svg" xmlns:xlink="http://www.w3.org/1999/xlink" x="0px" y="0px"
	 width="90px" height="90px" viewBox="0 0 90 90" enable-background="new 0 0 90 90" xml:space="preserve">
<path id="path0_4_" fill="#050504" d="M42.748,18.118c-6.247,0.572-11.95,3.282-16.479,7.829c-1.835,1.841-2.168,2.473-1.931,3.658
	c0.201,1.002,0.337,1.121,3.011,2.639c1.938,1.102,6.69,3.801,9.119,5.182c0.792,0.45,2.124,1.206,2.96,1.68
	c0.837,0.474,2.042,1.159,2.681,1.521c0.638,0.363,2.096,1.19,3.24,1.838c3.174,1.798,3.239,1.836,3.215,1.912
	c-0.013,0.039-0.615,0.421-1.339,0.848s-1.91,1.13-2.637,1.561c-0.726,0.432-1.788,1.063-2.359,1.401
	c-3.794,2.247-7.771,4.604-12.038,7.129c-5.423,3.21-5.56,3.307-5.786,4.115c-0.392,1.396-0.098,2.003,1.979,4.079
	c13.958,13.953,37.946,8.389,44.163-10.244C76.702,34.818,62.093,16.346,42.748,18.118 M47.269,20.431
	C63.61,21.834,73.896,38.41,67.895,53.667c-6.387,16.238-27.577,20.518-39.926,8.062c-1.034-1.043-1.246-1.356-1.088-1.607
	c0.042-0.065,5.834-3.534,12.872-7.708c7.037-4.173,12.912-7.658,13.056-7.745c0.549-0.33,0.396-0.487-1.54-1.58
	c-1.176-0.664-4.754-2.693-6.88-3.901c-0.484-0.275-1.69-0.959-2.681-1.521c-2.558-1.451-4.538-2.575-6.199-3.52
	c-4.926-2.8-6.189-3.517-7.12-4.039c-1.831-1.027-1.812-0.989-0.98-1.928C32.125,22.85,39.939,19.801,47.269,20.431"/>
</svg>
