<?xml version="1.0" encoding="utf-8"?>
<!-- Generator: Adobe Illustrator 16.0.0, SVG Export Plug-In . SVG Version: 6.00 Build 0)  -->
<!DOCTYPE svg PUBLIC "-//W3C//DTD SVG 1.1//EN" "http://www.w3.org/Graphics/SVG/1.1/DTD/svg11.dtd">
<svg version="1.1" id="Layer_1" xmlns="http://www.w3.org/2000/svg" xmlns:xlink="http://www.w3.org/1999/xlink" x="0px" y="0px"
	 width="90px" height="90px" viewBox="0 0 90 90" enable-background="new 0 0 90 90" xml:space="preserve">
<path d="M69.893,61.905c-0.392,0.342-1.058,0.762-1.606,0.712c-0.364-0.032-0.123-0.758-0.081-0.965
	c0.366-1.824,1.064-3.563,1.549-5.355c0.408-1.514,0.704-3.072,0.688-4.645c-0.009-0.776-0.817-3.23-0.166-3.68
	c2.512-1.729,3.796-4.18,4.178-7.2c0.17-1.342,0.389-3.103-0.162-4.389c-0.368-0.858-1.696-1.285-2.568-0.994
	c0.36-0.096,0.307-2.499,0.266-2.837c-0.165-1.336-1.152-1.765-2.395-1.778c-1.748-0.019-2.803-1.103-4.026-2.255
	c-2.143-2.019-4.2-4.396-6.78-5.878c-0.441-0.254-2.085-0.676-2.036-1.229c0.132-1.488,0.527-2.997,0.785-4.468
	c0.36-2.055,2.062-6.569-1.251-6.968c-1.581-0.191-4.889,4.256-5.441,3.894c-1.781-1.165-2.772-3.395-4.563-4.549
	c-1.446-0.934-2.625,0.13-3.574,1.08c-0.904,0.905-1.776,1.847-2.651,2.783c-0.237,0.254-0.62,0.968-0.973,0.661
	c-0.601-0.52-1.181-1.064-1.764-1.605C35.985,11,34.529,9.3,32.607,10.402c-1.392,0.798-0.589,3.443-0.389,4.626
	c0.354,2.095,0.818,4.182,1.094,6.29c0.083,0.63-2.336,1.242-2.91,1.575c-2.461,1.429-4.506,3.533-6.55,5.479
	c-1.112,1.058-2.134,2.295-3.751,2.37c-2.725,0.127-3.005,2.15-2.404,4.457l0.05,0.189H17.12c-3.141,0-2.351,4.486-1.926,6.518
	c0.291,1.385,0.811,2.732,1.64,3.887c0.382,0.53,0.826,1.017,1.325,1.438c0.47,0.397,1.452,0.702,1.276,1.387
	c-0.706,2.763-0.369,5.448,0.413,8.144c0.469,1.611,1.063,3.194,1.401,4.841c0.367,1.786-1.188,0.608-2.02,0.026
	c-1.081-0.755-2.612-0.474-3.291,0.675s-0.097,3.225,0.296,4.389c0.759,2.254,2.275,4.169,4.225,5.519
	c4.266,2.953,10.022,3.2,14.839,1.597c2.403-0.8,4.641-2.08,6.545-3.752l0.502-0.44c0.726,0.159,1.451,0.281,2.196,0.295
	c0.892,0.017,2.29-0.532,3.015,0.074c1.612,1.351,3.281,2.515,5.232,3.333c3.438,1.444,7.334,1.859,10.987,1.073
	c3.263-0.703,6.407-2.433,8.276-5.267c1.071-1.625,1.696-3.598,1.737-5.545C73.837,61.395,71.468,60.525,69.893,61.905
	C69.227,62.486,71.364,60.616,69.893,61.905z M59.594,43.589c-0.975-1.267-2.178-2.188-2.987-3.615
	c-0.544-0.961-1.13-3.633-2.758-2.685c-1.118,0.651-2.032,1.936-3.087,2.729c-1.225,0.922-2.517,1.77-3.861,2.506
	c-0.655,0.359-1.49,0.918-2.276,0.785c-1.327-0.224-2.624-0.957-3.781-1.607c-1.362-0.768-2.694-1.637-3.857-2.686
	c-0.977-0.881-2.299-2.081-3.095-0.292c-0.331,0.745-0.649,1.492-1.076,2.19c-0.664,1.09-1.83,1.842-2.449,2.897
	c-1.34,0.648-1.979,1.363-1.291,2.939c0.487,1.116,0.756,2.458,1.119,3.631c0.657,2.121,1.879,4.342,3.365,5.984
	c-0.3,0.041-0.668,0.104-0.996,0.256c-0.579-0.973-2.063-1.449-2.311-2.542c-0.272-1.195-0.718-2.529-1.134-3.686
	c-0.354-0.979-0.065-2.622-1.045-3.245c-1.249-0.796-2.352,0.776-2.833,1.711l-0.403,0.784v2.738
	c0.412,0.811,0.781,1.691,1.379,2.386c-1.353,0.753-2.142,1.846-2.496,2.982c-0.604-1.976-1.356-4.015-1.309-6.111
	c0.037-1.588,1.122-3.251,0.927-4.787c-0.166-1.312-2.272-1.593-3.143-2.398c-1.354-1.258-1.741-3.223-1.898-4.983
	c1.116,0.279,3.506,0.359,4.071-0.98c0.288-0.684-0.094-1.244-0.413-1.814c-0.438-0.784-0.788-1.644-1.006-2.517
	c1.517-0.144,2.781-1.06,3.899-2.025c1.684-1.452,3.197-3.089,4.901-4.521c1.081-0.908,2.235-1.767,3.543-2.322
	c1.187-0.504,2.517-0.522,3.547-1.324c1.208-0.121,2.636,0.214,3.776,0.614c1.437,0.505,3.345,2.052,4.891,1.423
	c1.857-0.754,3.611-1.618,5.608-1.973c0.629-0.112,1.499-0.293,2.117-0.052c0.669,0.262,1.267,0.632,1.98,0.85
	c2.447,0.744,4.242,2.62,6.049,4.34c2.021,1.924,4.266,4.729,7.261,4.978c-0.331,1.201-1.957,3.253-1.372,4.478
	c0.579,1.21,2.966,1.17,4.02,0.85c-0.137,1.735-0.521,3.604-1.818,4.861c-1.073,1.039-3.554,1.296-3.188,3.212
	c0.307,1.608,0.974,2.982,0.882,4.664c-0.113,2.106-0.878,4.134-1.479,6.134c-0.302-1.362-1.135-2.49-2.317-3.122
	c0.748-0.755,1.22-1.677,1.754-2.584v-3.061c-0.511-1.016-1.403-2.936-2.824-2.602c-1.262,0.296-1.059,2.204-1.334,3.145
	c-0.37,1.261-0.906,2.518-1.22,3.785c-0.361,1.463-1.876,1.561-2.695,2.791c-0.261-0.185-0.549-0.279-0.773-0.332
	c1.637-1.709,3.029-4.365,3.606-6.652C60.24,47.826,62.128,44.682,59.594,43.589C59.432,43.379,60.151,43.83,59.594,43.589z
	 M29.424,71.385c-3.843,0-8.545-1.699-9.94-5.648c2.575,0.796,5.467-0.211,5.305-3.263c2.582,2.679,7.193,1.437,8.206-2.072
	c1.688,2.701,4.06,5.167,6.833,6.795C37.063,69.861,33.288,71.385,29.424,71.385z M27.752,53.652
	c-0.467-0.476-0.729-1.135-1.027-1.722v-1.829c0.084-0.164,0.167-0.33,0.255-0.492c0.167,1.089,0.521,2.27,0.853,3.322
	c0.338,1.076,0.689,2.335,1.444,3.191c0.883,1.001,2.014,1.238,2.032,2.825c0.012,1.095-0.563,2.209-1.531,2.748
	c-2.138,1.191-4.803-0.669-4.342-3.062c0.256-1.323,1.271-1.973,2.369-2.578C28.846,55.481,28.438,54.353,27.752,53.652
	C27.523,53.42,28.256,54.166,27.752,53.652z M61.895,56.693l0.035,0.011c3.067,1.002,2.104,5.745-1.051,5.745
	c-1.694,0-3.087-1.529-2.926-3.223c0.073-0.763,0.44-1.521,1.033-2.012c0.596-0.496,1.365-0.631,1.834-1.288
	C61.015,56.405,61.499,56.563,61.895,56.693z M61.469,54.314c0.422-1.592,1.169-3.099,1.406-4.751
	c0.089,0.148,0.166,0.308,0.241,0.464v2.097C62.621,52.96,62.179,53.644,61.469,54.314C61.54,54.046,61.52,54.268,61.469,54.314z
	 M56.264,60.896c1.096,3.58,6.036,4.691,8.404,1.672c-0.119,2.962,2.752,3.932,5.258,3.205c-1.298,3.367-4.86,5.133-8.271,5.515
	c-4.369,0.487-8.726-1.026-11.942-3.99C52.403,65.888,54.555,63.347,56.264,60.896C56.347,61.169,56.202,60.984,56.264,60.896z
	 M34.11,12.737c0.375-0.822,4.474,4.909,5.532,4.021c1.767-1.483,3.114-3.43,4.833-4.969c0.898-0.806,1.329,0.122,2.001,0.821
	c1.056,1.1,2.096,2.215,3.154,3.311c0.281,0.291,0.688,0.877,1.106,0.998c0.239,0.069,0.605-0.371,0.753-0.501
	c1.041-0.911,2.035-1.875,3.048-2.816c0.08-0.073,1.227-1.274,1.414-0.904c0.188,0.371-0.067,1.148-0.127,1.518
	c-0.447,2.746-1.119,5.487-1.458,8.25c-1.305-0.927-3.472-0.372-4.879-0.002c-1.686,0.442-3.181,1.354-4.824,1.843
	c-1.627-0.675-3.137-1.586-4.891-1.928c-1.148-0.224-2.987-0.719-4.045,0.063c-0.202-1.646-0.587-3.282-0.868-4.916
	c-0.114-0.665-0.232-1.331-0.353-1.994C34.38,14.824,33.808,13.402,34.11,12.737C34.26,12.41,34.045,12.882,34.11,12.737z
	 M46.466,67.021c-1.489,0.395-2.51,0.289-3.952-0.213l0,0c-1.628-0.996-3.34-1.782-4.702-3.16c-1.632-1.649-2.764-3.411-3.836-5.434
	c1.092-0.144,2.495-0.754,1.767-2.124c-0.571-1.072-1.579-1.901-2.19-2.981c-1.333-2.354-1.948-4.856-2.854-7.376
	c2.151-0.931,3.754-3.587,4.657-5.658c1.498,1.453,3.32,2.619,5.154,3.595c1.315,0.7,3.215,1.796,4.778,1.526
	c1.63-0.28,3.218-1.378,4.572-2.263c1.544-1.009,3.109-2.112,4.39-3.449c0.981,2.203,2.648,4.734,4.786,5.933
	c-0.778,2.481-1.201,5.539-2.826,7.668c-0.661,0.869-1.412,1.764-2.024,2.659c-0.879,1.286,0.17,2.233,1.414,2.437
	c-1.111,2.278-2.73,4.022-4.582,5.723C49.731,65.086,48.182,66.566,46.466,67.021C44.924,67.431,46.667,66.969,46.466,67.021z"/>
</svg>
