<?xml version="1.0" encoding="utf-8"?>
<!-- Generator: Adobe Illustrator 16.0.0, SVG Export Plug-In . SVG Version: 6.00 Build 0)  -->
<!DOCTYPE svg PUBLIC "-//W3C//DTD SVG 1.1//EN" "http://www.w3.org/Graphics/SVG/1.1/DTD/svg11.dtd">
<svg version="1.1" id="Layer_1" xmlns="http://www.w3.org/2000/svg" xmlns:xlink="http://www.w3.org/1999/xlink" x="0px" y="0px"
	 width="90px" height="90px" viewBox="0 0 90 90" enable-background="new 0 0 90 90" xml:space="preserve">
<path d="M79.971,49.172c0.029-5.109-2.316-7.368-5.4-11.297c0.59-1.93,1.911-4.838,0.227-6.562c-0.678-0.693-1.38-0.765-2.266-0.531
	c-0.809,0.213-1.688,0.729-2.188,0.875c-0.265,0.077-3.686-8.21-4.22-8.978c-1.769-2.542-4.222-4.66-6.854-6.274
	c-4.854-2.976-10.399-3.763-15.985-3.646c-5.313,0.111-10.828,1.943-15.015,5.245c-2.315,1.827-4.296,4.142-5.792,6.683
	c-1.919,3.259-2.449,7.174-4.666,10.273c-1.888,2.638-4.581,4.812-6.1,7.702c-1.286,2.447-1.753,5.379-1.711,8.119
	c0.098,6.382,4.464,11.109,10.168,13.469c1.104,0.457,2.362,0.926,3.554,0.501c1.27-0.453,1.058-1.313,2.431-0.672
	c0.908,0.424,1.527,3,1.97,3.934c0.786,1.661,1.658,3.299,2.66,4.841c1.056,1.623,4.109,5.445,6.142,2.847
	c0.925-1.181,0.388-1.735,0.033-3.053c-0.116-0.433-2.15-5.082-1.792-5.438c0.142-0.143,3.667,2.64,3.946,2.808
	c1.649,0.993,3.552,1.954,5.512,2.049c2.165,0.105,4.191-0.937,6.019-1.977c0.309-0.175,3.81-2.641,3.919-2.526
	c0.399,0.4-1.958,4.792-2.066,5.287c-0.406,1.868,0.67,4.383,2.97,3.531c2.196-0.814,3.718-3.608,4.806-5.529
	c0.634-1.119,1.209-2.273,1.753-3.438c0.351-0.75,0.782-2.844,1.548-3.267c1.667-0.921,1.917,0.878,3.782,0.74
	c2.131-0.158,4.406-1.539,6.124-2.728C77.712,59.229,80,56.099,80,50.969C80.005,50.25,79.994,49.672,79.971,49.172z M52.96,17.531
	c-0.508,0.355-0.789,0.862-1.133,1.358c-0.516,0.746-0.928,1.412-1.411,2.18c-0.719,1.14-0.979,0.806-1.888,0.984
	c-1.789-0.002-3.574,0.009-5.361-0.063c-1.647-0.066-2.882-0.103-3.292-0.584c-1.034-1.212-1.583-2.926-2.928-3.859
	C42.09,15.828,47.8,15.947,52.96,17.531z M45.877,34.356c-0.581-0.384-1.292-0.396-1.872-0.001c0.854-1.846-2.834-4.709-4.346-5.23
	c-2.348-0.809-6.741,1.653-8.627,2.887c1.667-1.94,3.807-3.256,6.072-4.385c2.471-1.235,1.2-3.546,0.774-5.626
	c1.101,1.695,2.185,3.302,3.324,4.968c0.835,1.221,2.195,4.883,4.054,4.524c1.395-0.269,2.715-3.2,3.415-4.307
	c1.141-1.8,2.096-2.99,3.234-4.785c-0.301,1.537-1.494,3.695,0.192,4.819c2.392,1.593,4.878,2.587,6.789,4.856
	c-2.095-1.399-5.551-3.246-8.168-3.014C49.002,29.217,44.931,32.435,45.877,34.356z M41.703,24.203
	c1.703-0.156,3.562-0.102,4.83-0.102c0.759,0,0.675-0.134,1.507,0.261c-1.187,1.573-2.226,2.583-3.04,4.387
	C44.134,27,42.68,25.48,41.703,24.203z M24.5,60.281c-1.766-1.266-1.703-2.277-2.51-2.877c-0.966-0.717,0.094,5.208,0.682,5.033
	c-0.283,0.084-1.374-0.301-1.554-0.373c1.339-0.8-1.402-2.886-1.532-4.17c-0.242-2.402,0.638-5.542,1.977-7.483
	c0.435,1.678,1.096,3.126,2.634,4.159c1.013,0.68,1.332,4.167,2.332,6.376C26.042,60.709,25.077,60.854,24.5,60.281z M55.559,62.59
	c-3.157,2.715-8.557,7.219-12.869,5.26c-2.464-1.118-4.783-2.616-6.94-4.242c-0.781-0.589-2.106-1.567-2.362-2.612
	c-0.403-1.639-0.605-3.32-0.745-4.999c-0.245-2.935-0.499-5.891-0.642-8.832c-0.096-1.971-0.201-2.151,1.803-2.02
	c1.252,0.083,2.47,0.353,3.68,0.667c0.823,0.278,9.112,6.469,9.346,3.101c1.449,0.572,5.972,2.098,7.369,0.648
	c1.389-1.44-3.569-2.927-4.325-3.416c1.475-0.343,2.35,0.075,3.802,0.338c1.473,0.266,2.631,0.266,4.118,0.308
	c-0.038,3.141-0.352,6.21-0.667,9.333C56.899,58.359,56.729,61.583,55.559,62.59z M33.226,42.851
	c0.481-0.834,0.889-1.701,1.242-2.596c0.415,0.959,0.906,1.883,1.465,2.767C35.034,42.922,34.131,42.847,33.226,42.851z
	 M68.811,62.063c-1.442,0.617-1.85,0.341-0.932-0.959c0.668-1.229,1.879-4.301,0.109-3.726c-0.259,0.084-1.586,2.108-1.84,2.369
	c-1,1.028-1.911,0.575-3.18,1.184c0.743-1.481,1.88-5.826,2.365-6.128c0.999-0.622,1.831-1.101,2.385-2.178
	c0.202-0.392,0.867-1.377,0.883-1.924c1.075,1.757,1.698,3.443,1.68,5.549C70.27,57.667,67.553,61.367,68.811,62.063z
	 M66.033,51.143c0.354-1.422,0.51-2.398,0.832-3.828C67.094,47.925,67.469,49.859,66.033,51.143z M71.969,58.793
	c1.184-2.65,0.288-5.366-0.961-7.796c-0.591-1.149-0.96-2.645-2.008-3.465c-0.022-1.208-0.806-3.63-2.459-3.63
	c-1.781,0-1.938,4.095-2.176,5.225c-0.438,2.079-0.775,3.896-1.516,5.892c-1.704,4.596-3.12,9.103-5.468,13.448
	c0.95-3.994,1.593-7.991,1.976-12.083c0.224-2.398,0.441-4.805,0.579-7.21c0.131-2.294,0.757-4.548-2.302-4.483
	c-2.116,0.045-3.894-0.299-5.945-0.708c-1.761-0.351-3.338-2.017-4.718-3.23c-1.604-1.41-2.866-0.575-2.256,1.478
	c0.606,2.049,1.789,3.824,3.5,5.114c-1.652-0.515-3.09-1.406-4.474-2.421c-1.215-0.891-2.002-0.754-2.194,0.789
	c-1.334-0.915-2.84-1.878-3.451-2.882c-0.949-1.559-1.672-4.326-2.981-5.565c-1.797-1.701-3.634,5.558-4.591,6.482
	c-1.188,1.146-0.784,2.986-0.66,4.459c0.204,2.434,0.272,4.876,0.567,7.302c0.529,4.364,0.985,8.625,2.053,12.895
	c-1.902-3.473-3.499-7.188-4.746-10.938c-1.24-3.73-1.858-7.583-2.893-11.399c-0.517-1.907-1.861-2.993-3.167-0.842
	c-0.43,0.708-0.58,1.492-0.597,2.308c-0.562,0.433-1.169,1.611-1.514,2.193c-1.6,2.698-2.887,5.295-2.594,8.255
	c-2.553-1.964-3.612-5.401-3.236-9.722c0.361-4.162,3.918-7.021,6.295-10.092c2.725-3.521,3.531-7.782,5.636-11.608
	c2.075-3.773,5.72-6.787,9.676-8.412c-0.394,1.688,0.477,4.555,0.921,6.183c0.328,1.203,0,1.484-1.063,1.922
	c-1.307,0.538-2.88,1.619-3.969,2.516c-0.531,0.437-5.904,6.813-2.641,6.703c1.459-0.049,3.091-1.166,4.281-1.885
	c1.438-0.868,4.063-2.614,5.833-2.333c0.83,0.132,1.563,1.028,2.167,1.542c0.4,0.331,0.668,0.64,1.042,1
	c-0.447,0.901-1.022,1.419-1.584,2.25c-1.841,2.725,0.244,3.967,2.455,1.87c0.702-0.667,1.415-1.339,2.157-1.961
	c0.94,0.725,1.725,1.625,2.641,2.377c0.565,0.464,1.557,1.294,2.281,0.568c0.899-0.899-0.279-2.652-0.764-3.375
	c-0.654-0.978-1.479-1.501-0.521-2.438c0.774-0.755,0.854-0.971,1.75-1.583c1.4-0.954,6.171,1.54,7.292,2.292
	c0.977,0.654,2.957,1.631,3.938,1.583c2.151-0.104-0.343-3.624-0.922-4.328c-1.836-2.236-4.055-3.525-6.531-4.938
	c-1.672-0.953,0.984-5.391,0.444-8.005c4.057,1.685,7.497,4.803,9.707,8.585c1.217,2.082,2.078,4.408,2.854,6.684
	c0.814,2.392,1.745,3.127,4.401,2.018c-0.23,0.983-1.057,1.978-1.057,2.982c0,0.981,1.158,1.87,1.75,2.518
	c1.59,1.743,3.068,3.686,3.692,6.001C77.122,51.417,75.701,55.955,71.969,58.793z"/>
</svg>
