<?xml version="1.0" encoding="utf-8"?>
<!-- Generator: Adobe Illustrator 16.0.0, SVG Export Plug-In . SVG Version: 6.00 Build 0)  -->
<!DOCTYPE svg PUBLIC "-//W3C//DTD SVG 1.1//EN" "http://www.w3.org/Graphics/SVG/1.1/DTD/svg11.dtd">
<svg version="1.1" id="Layer_1" xmlns="http://www.w3.org/2000/svg" xmlns:xlink="http://www.w3.org/1999/xlink" x="0px" y="0px"
	 width="90px" height="90px" viewBox="0 0 90 90" enable-background="new 0 0 90 90" xml:space="preserve">
<path d="M74.449,50.021c-0.561-1.901-0.761-2.534-1.071-3.384c-0.531-1.454-1.277-3.586-1.479-4.224
	c-0.19-0.601-0.374-1.291-1.226-4.618c-1.164-4.542-1.9-6.142-3.583-7.781c-0.868-0.846-1.479-1.227-2.419-1.51
	c-0.706-0.212-1.12-0.583-1.525-1.368c-0.163-0.314-1.234-1.396-1.28-1.442l-0.982-0.99l-0.133-0.795
	c-0.199-1.188-0.599-2.749-0.874-3.406c-0.115-0.275-0.232-0.596-0.271-0.722c-0.058-0.196-0.184-0.458-0.292-0.61
	c-0.039-0.055-0.068-0.112-0.08-0.142c-0.011-0.088-0.062-0.271-0.304-0.636c-0.092-0.138-0.156-0.251-0.182-0.302
	c-0.026-0.104-0.123-0.283-0.485-0.792c-0.23-0.321-0.563-0.79-0.738-1.041c-0.492-0.702-2.271-2.443-2.975-2.911
	c-0.322-0.216-0.662-0.469-0.765-0.562C52.059,11.224,47.792,10,44.075,10c-0.7,0-1.351,0.046-1.937,0.136
	c-2.104,0.325-4.78,1.2-5.842,1.912c-0.083,0.057-0.223,0.124-0.281,0.142c-0.256,0.079-0.714,0.449-0.734,0.465
	c-0.213,0.173-0.528,0.399-0.688,0.494c-0.76,0.454-2.639,2.255-3.241,3.107c-0.176,0.248-0.468,0.656-0.649,0.907
	c-0.191,0.264-0.451,0.668-0.578,0.899c-0.276,0.503-0.754,1.399-0.864,1.755c-0.033,0.106-0.146,0.407-0.26,0.685
	c-0.273,0.658-0.685,2.238-0.88,3.381l-0.132,0.771l-1.112,1.118c-0.599,0.603-1.322,1.392-1.48,1.666
	c-0.113,0.195-0.294,0.48-0.396,0.623c-0.036,0.049-0.099,0.137-0.15,0.211c-0.116,0.039-0.335,0.109-0.633,0.199
	c-3.302,0.991-4.772,3.341-6.291,10.055c-0.689,3.047-0.936,3.938-1.648,5.955c-3.263,9.244-3.843,12.823-2.821,17.406
	c0.865,3.88,2.646,6.063,5.604,6.873c0.77,0.211,1.532,0.317,2.266,0.317c2.003,0,3.81-0.771,5.372-2.29l0.361-0.352l0.033,0.021
	c1.95,1.174,5.387,2.345,8.554,2.913c0.407,0.072,1.26,0.251,1.901,0.397c2.003,0.457,4.497,0.709,7.022,0.709
	c2.512,0,4.899-0.249,6.724-0.703c0.436-0.108,1.015-0.235,1.292-0.283c3.574-0.616,7.493-1.904,9.114-2.996
	c0.021-0.015,0.07-0.047,0.111-0.072c0.069,0.063,0.172,0.173,0.229,0.233c1.463,1.564,3.452,2.427,5.599,2.427c0,0,0,0,0,0
	c2.862,0,5.43-1.549,6.704-4.041C76.306,61.204,76.339,56.431,74.449,50.021z M62.076,43.672c0.027,0.163,0.136,0.487,0.241,0.72
	c0.105,0.233,0.248,0.729,0.316,1.104c0.293,1.604,0.435,2.293,0.511,2.488c0.1,0.255,0.495,2.26,0.495,2.513
	c0,0.1,0.107,0.593,0.237,1.095s0.331,1.397,0.445,1.989c0.114,0.591,0.292,1.345,0.394,1.675c0.784,2.521-0.295,6.208-2.063,7.047
	c-0.271,0.129-0.908,0.524-1.414,0.879c-2.302,1.612-5.01,2.634-8.8,3.32c-0.638,0.115-1.484,0.295-1.88,0.398
	c-1.496,0.392-3.814,0.587-6.129,0.587c-2.316,0-4.629-0.196-6.111-0.588c-0.396-0.104-1.26-0.285-1.92-0.401
	c-3.745-0.662-6.833-1.849-9.022-3.467c-0.398-0.295-0.943-0.644-1.21-0.775c-1.782-0.878-2.775-4.542-1.958-7.221
	c0.125-0.408,0.317-1.207,0.428-1.775c0.111-0.569,0.274-1.298,0.361-1.619c0.088-0.321,0.233-1.017,0.322-1.544
	c0.089-0.528,0.238-1.23,0.33-1.561c0.226-0.812,0.376-1.443,0.515-2.16c0.063-0.33,0.24-1.014,0.393-1.52
	c0.152-0.507,0.333-1.118,0.4-1.36c0.071-0.254,0.125-0.412,0.224-0.545c0.45-0.181,0.913-0.412,1.388-0.696
	c0.066,0.246,0.173,0.493,0.329,0.738c0.027,0.096,0.079,0.169,0.163,0.225c0.55,0.705,1.38,1.066,2.477,1.066
	c0.149,0,0.314-0.006,0.517-0.018c2.316-0.13,5.387-1.431,7.689-3.247c0.247-0.148,0.482-0.301,0.696-0.459
	c1.73-1.278,2.832-2.421,3.378-3.503c0.001-0.003,0.003-0.006,0.005-0.009c0.18-0.216,0.358-0.431,0.528-0.642
	c0.324,0.439,0.675,0.87,1.047,1.29c0.525,0.747,1.338,1.625,1.96,2.08c0.176,0.13,0.5,0.383,0.72,0.564
	c0.39,0.321,0.826,0.616,1.302,0.888c2.466,1.722,5.154,2.883,7.392,3.036c0.236,0.017,0.42,0.026,0.607,0.026
	c1.266,0,1.973-0.579,2.349-1.079c0.113-0.076,0.175-0.176,0.195-0.3c0.131-0.231,0.22-0.465,0.271-0.698
	c0.553,0.322,1.095,0.58,1.621,0.777C61.972,43.152,62.02,43.334,62.076,43.672z M58.315,37.675
	c-0.588-0.597-0.92-0.889-1.104-0.889c-0.17,0-0.212,0.251-0.213,0.745c0,0.762,0.189,1.729,0.566,2.892
	c0.26,0.801,0.37,1.18,0.242,1.348c-0.298-0.023-0.644-0.059-1.039-0.104c-0.752-0.086-1.454-0.193-2.113-0.317
	c-3.154-1.139-6.804-3.948-8.795-6.974c-0.771-1.172-1.109-1.692-1.429-1.692c-0.257,0-0.503,0.337-0.954,0.943
	c-1.45,1.95-3.463,4.2-4.268,4.771c-0.137,0.097-0.52,0.395-0.852,0.662c-1.15,0.927-2.575,1.716-3.931,2.223
	c-1.111,0.234-2.291,0.394-3.478,0.453c-0.168-0.197-0.014-0.632,0.392-1.52c0.239-0.521,0.324-0.995,0.431-2.405
	c0.051-0.67,0.029-1.006-0.178-1.006c-0.211,0-0.613,0.348-1.327,1.045c-2.104,2.055-3.99,3.17-5.297,3.17
	c-0.309,0-0.585-0.063-0.825-0.188c-0.606-0.321-0.583-2.15,0.055-4.455c0.128-0.462,0.308-1.213,0.4-1.669
	c0.092-0.455,0.242-0.974,0.333-1.151c0.091-0.179,0.216-0.468,0.278-0.645c0.209-0.593,0.838-1.556,1.234-1.89
	c0.213-0.18,0.686-0.747,1.052-1.262c0.755-1.063,1.466-1.857,2.479-2.77c0.385-0.347,0.809-0.8,0.942-1.007
	c0.283-0.442,0.927-0.873,2.324-1.556c0.857-0.418,1.371-0.576,2.438-0.747c0.319-0.052,1.045-0.074,1.861-0.074
	c1.357,0,2.96,0.063,3.34,0.164c0.588,0.156,1.856,0.67,2.673,1.082c0.309,0.155,0.533,0.238,0.781,0.238
	c0.319,0,0.678-0.137,1.304-0.431c1.565-0.735,3.375-1.112,5.266-1.112c0.86,0,1.737,0.078,2.616,0.235
	c1.708,0.307,3.935,1.446,4.44,2.271c0.11,0.181,0.612,0.713,1.115,1.185c0.989,0.926,1.849,1.914,2.478,2.846
	c0.218,0.323,0.554,0.729,0.746,0.899c0.865,0.772,1.643,2.475,2.118,4.632c0.155,0.704,0.351,1.586,0.435,1.96
	c0.233,1.037,0.292,2.59,0.112,2.925c-0.192,0.356-0.554,0.523-1.036,0.523C62.597,41.023,60.364,39.753,58.315,37.675z
	 M50.903,21.147c-2.247,0-4.42,0.463-6.287,1.34c-0.088,0.041-0.162,0.075-0.225,0.103c-0.865-0.416-2.13-0.936-2.896-1.14
	c-0.802-0.213-2.824-0.245-3.958-0.245c-0.01,0-0.018,0-0.028,0c0.589-0.983,2.07-1.665,4.058-1.806c1.08-0.077,2.088-0.115,3-0.115
	c3.751,0,6.026,0.63,6.791,1.873C51.207,21.153,51.055,21.147,50.903,21.147z M44.525,12.909c0.698,0,1.41,0.05,2.116,0.147
	c4.028,0.56,8.126,3.541,9.966,7.249c0.425,0.855,0.711,1.569,0.938,2.423c-1.234-0.668-2.62-1.132-3.603-1.309
	c-0.337-0.061-0.677-0.107-1.016-0.147c-0.596-2.278-3.339-3.389-8.358-3.389c-0.944,0-1.986,0.04-3.099,0.119
	c-2.88,0.204-4.956,1.451-5.499,3.239c-0.402,0.024-0.587,0.054-0.674,0.067c-1.307,0.21-2.033,0.435-3.111,0.961
	c-0.292,0.143-0.566,0.281-0.823,0.418C33.042,16.835,38.187,12.909,44.525,12.909z M21.201,66.172c-1.75,0-3.303-1-4.154-2.675
	c-1.224-2.408-1.436-6.68-0.503-10.157c0.109-0.409,0.291-1.105,0.402-1.547c0.26-1.033,0.941-3.16,1.55-4.842
	c0.804-2.221,1.348-3.945,1.617-5.128c0.133-0.588,0.311-1.336,0.396-1.669c0.085-0.334,0.282-1.179,0.438-1.883
	c0.369-1.67,0.81-3.046,1.316-4.128c-0.007,0.032-0.013,0.063-0.018,0.086c-0.08,0.397-0.249,1.1-0.361,1.505
	c-1.06,3.829-0.678,6.257,1.136,7.217c0.587,0.311,1.242,0.468,1.948,0.468c0.116,0,0.234-0.007,0.352-0.016
	c-0.083,0.285-0.195,0.662-0.294,0.989c-0.148,0.491-0.351,1.254-0.433,1.681c-0.129,0.673-0.27,1.262-0.484,2.032
	c-0.107,0.384-0.268,1.14-0.366,1.722c-0.088,0.52-0.223,1.149-0.289,1.391c-0.098,0.36-0.269,1.121-0.388,1.733
	c-0.099,0.509-0.28,1.264-0.388,1.615c-0.944,3.097,0.046,7.72,2.73,9.096C24.458,65.241,22.917,66.172,21.201,66.172z
	 M69.814,65.636c-0.682,0.354-1.402,0.534-2.139,0.534c-1.673,0-3.218-0.927-4.195-2.496c2.643-1.397,3.678-5.952,2.762-8.894
	c-0.076-0.245-0.239-0.924-0.351-1.504c-0.12-0.621-0.329-1.558-0.467-2.087c-0.109-0.421-0.177-0.743-0.193-0.841
	c-0.057-0.663-0.421-2.442-0.582-2.907c-0.058-0.191-0.206-0.942-0.442-2.233c-0.077-0.421-0.245-1.063-0.434-1.478
	c-0.047-0.104-0.095-0.245-0.116-0.319c0.09,0.005,0.181,0.013,0.268,0.013c1.39,0,2.538-0.651,3.149-1.785
	c0.8-1.485,0.145-4.464,0.117-4.59c-0.083-0.372-0.278-1.25-0.432-1.95c-0.042-0.192-0.09-0.393-0.142-0.597
	c0.531,1.188,1.003,2.731,1.471,4.725c0.744,3.171,1.104,4.379,2.261,7.604c0.918,2.558,1.462,4.313,1.94,6.264
	C73.73,58.972,72.712,64.129,69.814,65.636z"/>
</svg>
