<?xml version="1.0" encoding="utf-8"?>
<!-- Generator: Adobe Illustrator 16.0.0, SVG Export Plug-In . SVG Version: 6.00 Build 0)  -->
<!DOCTYPE svg PUBLIC "-//W3C//DTD SVG 1.1//EN" "http://www.w3.org/Graphics/SVG/1.1/DTD/svg11.dtd">
<svg version="1.1" id="Layer_1" xmlns="http://www.w3.org/2000/svg" xmlns:xlink="http://www.w3.org/1999/xlink" x="0px" y="0px"
	 width="90px" height="90px" viewBox="0 0 90 90" enable-background="new 0 0 90 90" xml:space="preserve">
<g>
	<path d="M73.74,54.288c0.093-3.229,0.214-6.956-0.577-10.114c-0.418-1.668-2.055-2.149-3.467-2.786
		c-0.59-0.266-1.612-0.431-1.7-1.114c-0.103-0.795-0.771-2.491-0.258-3.175c3.771-5.035,3.62-12.663,0.831-18.121
		c-1.189-2.327-3.188-5.615-6.079-3.715c-0.904,0.594-8.74,7.341-8.106,7.975c-0.573-0.542-0.368-1.934-1.052-2.617
		c-0.833-0.831-2.199-0.855-3.292-0.855c-2.648-0.001-2.758-3.331-5.333-3.299c-2.351,0.029-2.591,3.316-4.871,3.302
		c-1.234-0.008-2.43-0.023-3.544,0.626c-1.08,0.629-0.954,1.786-1.664,2.451c0.442-0.414-6.375-6.552-7.126-7.092
		c-3.598-2.586-5.66,0.726-7.137,3.915c-1.368,2.952-1.917,6.28-1.625,9.518c0.144,1.593,0.494,3.169,1.068,4.664
		c0.407,1.06,2.025,2.87,1.873,3.937c-0.115,0.803-0.049,2.69-0.883,3.044c-1.058,0.45-2.098,0.953-3.126,1.465
		c-1.844,0.919-1.798,3.21-1.95,5.076c-0.271,3.337-0.433,6.924,0.072,10.245c0.112,0.734,0.292,1.553,0.863,2.078
		c0.982,0.903-0.231,1.609-0.667,2.707c-0.967,2.435,1.835,3.11,3.483,3.809c3.669,1.557,7.269,3.267,10.979,4.729
		c5.012,1.975,10.285,3.673,15.739,3.309c5.196-0.347,10.548-2.119,15.246-4.296c3.559-1.649,7.499-2.89,10.915-4.792
		c2.728-1.52-1.132-4.454,0.074-5.319C73.833,58.831,73.697,55.759,73.74,54.288z M49.493,22.043
		c2.604,0.053,2.194,0.29,2.467,0.653c0.18,0.4,0.894,3.557,0.901,3.555c-0.879,0.131-1.609,0.535-2.348,0.518
		c-0.647-1.574-1.028-3.224-1.954-4.686C48.871,22.066,49.182,22.053,49.493,22.043z M43.017,22.973
		c0.67-0.742,1.196-1.605,1.825-2.38c4.855,6.374,6.466,16.656,0.778,23.192c-0.748,0.859-0.783,0.787-1.541-0.055
		c-0.667-0.741-1.226-1.576-1.697-2.452c-1.178-2.191-1.842-4.662-2.068-7.133C40.003,30.747,40.578,25.662,43.017,22.973z
		 M36.648,24.74c0.695-2.98,1.209-2.749,4.324-2.74c-0.676,1.027-1.176,2.193-1.613,3.338c-0.639,1.673-1.332,1.244-3.057,0.785
		C36.431,25.666,36.547,25.205,36.648,24.74z M23.633,21.141c0.661-1.427,1.143-3.113,2.637-1.956
		c1.491,1.154,2.828,2.498,4.049,3.931c2.425,2.845,4.09,5.429,8.173,5.516c-0.651,3.418-0.392,7.007,0.655,10.321
		c0.676,2.141,2.886,7.772,5.748,7.772c2.787,0,5.015-5.346,5.636-7.412c1.012-3.363,1.08-7.228,0.37-10.682
		c4.294-0.067,6.144-3.071,8.731-6.028c1.062-1.214,2.199-2.363,3.477-3.352c1.507-1.167,1.789-0.021,2.568,1.51
		c1.523,2.997,1.937,6.63,1.276,9.914c-0.308,1.531-0.872,3.04-1.803,4.304c-1.416,1.923-0.865,2.861-0.573,5.083
		c-2.195-1.685-7.896,2.305-9.553,3.619c-1.647,1.306-3.122,2.818-4.497,4.404c-0.373,0.431-2.466,2.753-1.865,3.669
		c-0.994-1.267-2.201-2.312-3.797-2.312c-1.087,0-1.991,0.536-2.672,1.353C41.646,51.452,40,53.294,40,54.121
		c0-0.452,0-0.905,0-1.357c0-1.01,0.399-0.428,0.792-1.268c0.789-1.69-3.107-4.844-4.13-5.839c-1.876-1.824-3.982-3.456-6.364-4.566
		c-1.229-0.573-4.054-1.987-5.388-1.043c0.157-1.174,0.946-2.812,0.31-3.92c-0.775-1.352-1.761-2.334-2.273-3.868
		C21.764,28.717,22.067,24.521,23.633,21.141z M62.687,42.071c-1.671,4.186-5.865,4.737-9.718,6.415
		C55.651,45.571,58.803,43.102,62.687,42.071z M24.842,47.681c1.574,0.566,5.463,2.129,12.016,4.666
		C37.616,52.64,38,52.547,38,53.376c0,0.721,0.303,1.569-0.541,1.647c-2.276,0.21-4.554,0.394-6.831,0.587
		c-3.11,0.263-5.62,0.918-8.058-1.468c-0.469-0.847-0.208-2.413-0.208-3.429C22.364,49.295,23.727,48.443,24.842,47.681z
		 M24.572,43.297c0.007-0.371,0.035-0.644,0.1-1.012c0.487,1.327,1.097,2.828,2.08,3.875c-0.615-0.231-1.459-0.718-2.163-0.609
		C24.584,44.82,24.585,44.027,24.572,43.297z M26.828,42.065c3.836,0.943,7.049,3.582,9.683,6.418
		C32.656,46.801,28.833,46.292,26.828,42.065z M19.049,52.075c0.023-2.182-0.098-4.589,0.402-6.729
		c0.986-0.518,2.005-0.985,3.026-1.43c0,0.983,0.027,1.967-0.007,2.95c-0.306,0.286-0.693,0.536-0.958,0.859
		c-1.26,1.099-1.249,2.229-1.231,3.825c0.003,1.055,0.02,2.111,0.03,3.166c0.003,0.352,0.654,0.504,0.686,0.806
		c-0.292,0.748-0.64,1.472-0.958,2.208C18.422,56.884,19.032,53.705,19.049,52.075z M26.407,65.514
		c-2.144-0.949-4.273-1.938-6.446-2.822c1.127-1.885,1.917-3.867,2.769-5.885c3.556,2.554,10.425,0.703,14.575,0.326
		c-1.946,1.698-4.188,3.078-6.56,4.092C28.898,62.014,25.976,62.804,26.407,65.514z M61.196,65.743
		c-1.76,2.647-7.203,3.572-10.096,4.315c-3.211,0.825-6.423,1.131-9.706,0.591c-3.556-0.585-8.944-1.523-11.739-3.942
		c-0.603-0.521-1.735-1.836-0.5-2.332c1.998-0.8,3.679-1.725,5.544-2.829c3.677-2.175,6.18-4.921,8.453-8.47
		c0.878-1.372,2.114-2.29,3.302-0.618c2.31,3.249,4.179,6.06,7.594,8.319c1.784,1.179,3.708,2.148,5.715,2.885
		C61.158,64.174,62.205,64.226,61.196,65.743z M63.704,65.234c0.684-3.093-3.957-3.722-5.883-4.693
		c-3.055-1.541-5.258-3.022-7.195-5.885c-0.566-0.836-1.179-1.887-1.905-2.828c0.169,0.185,0.471,0.3,0.968,0.3
		c1.083,0,2.235-0.878,3.2-1.319c1.801-0.823,3.643-1.557,5.471-2.317c3.359-1.398,5.237-2.454,6.453-6.149
		c0.39,3.056-0.27,6.177,0.339,9.224c0.772,3.87,2.416,7.716,4.365,11.125C67.549,63.463,65.63,64.372,63.704,65.234z
		 M71.423,56.982c-0.182,1.104-0.677,1.26-1.58,1.805c-0.965-2.807-2.374-5.397-2.773-8.387c-0.342-2.558,0.115-5.16-0.093-7.724
		c2.879,1.43,4.154,1.229,4.386,4.464C71.59,50.31,71.943,53.828,71.423,56.982z"/>
	<path d="M31.215,30.825c2.111-1.241-0.931-3.936-1.735-5.215c-0.899-1.43-4.642-6.475-5.671-2.311
		c-0.759,3.069-0.664,7.052,0.768,9.92C26.091,36.248,29.434,31.877,31.215,30.825z M25.775,24.115
		c0.701,0.595,3.827,5.24,3.578,5.387c-1.126,0.671-2.151,1.494-3.072,2.425C25.284,29.546,25.328,26.612,25.775,24.115z"/>
	<path d="M48.217,57.536c-2.966-1.657-10.282-0.19-6.665,4.18c2.022,2.442,3.637,3.106,5.971,0.795
		C48.749,61.298,50.426,58.77,48.217,57.536z M46.135,60.792c-0.154,0.163-0.103,0.109-0.009,0.01
		c-0.541,0.575-0.986,1.389-1.695,0.758c-0.623-0.554-1.374-1.297-1.682-2.092c1.011-0.62,3.341-0.584,4.356-0.036
		C46.96,59.935,46.469,60.44,46.135,60.792z"/>
	<path d="M58.278,30.826c1.886,1.111,5.19,5.495,6.71,2.27c1.181-2.509,1.324-5.976,0.952-8.678
		c-0.479-3.474-2.994-3.018-4.798-0.53C60.233,25.142,56.172,29.591,58.278,30.826z M61.884,26.559
		c0.53-0.855,1.081-1.863,1.896-2.49c0.531,2.38,0.322,5.592-0.564,7.862c-1.006-1.006-2.08-1.824-3.298-2.559
		C60.688,28.522,61.282,27.529,61.884,26.559z"/>
</g>
</svg>
