<?xml version="1.0" encoding="utf-8"?>
<!-- Generator: Adobe Illustrator 16.0.0, SVG Export Plug-In . SVG Version: 6.00 Build 0)  -->
<!DOCTYPE svg PUBLIC "-//W3C//DTD SVG 1.1//EN" "http://www.w3.org/Graphics/SVG/1.1/DTD/svg11.dtd">
<svg version="1.1" id="Layer_1" xmlns="http://www.w3.org/2000/svg" xmlns:xlink="http://www.w3.org/1999/xlink" x="0px" y="0px"
	 width="90px" height="90px" viewBox="0 0 90 90" enable-background="new 0 0 90 90" xml:space="preserve">
<path d="M77.537,45.536c-0.763-5.821-4.639-10.193-8.652-14.165l-0.3-0.984c-2.283-7.506-8.698-13.1-16.11-15.303
	c-7.84-2.331-17.081-0.893-23.58,4.175c-3.635,2.834-6.382,6.754-7.758,11.156l-0.3,0.96c-2.963,2.817-5.713,5.892-7.386,9.67
	c-1.632,3.683-1.899,8-0.744,11.861c1.066,3.563,3.431,6.722,6.776,8.427c0.72,0.367,1.474,0.596,2.22,0.891
	c0.729,0.288,1.291,1.057,1.841,1.579c1.63,1.542,3.411,2.925,5.339,4.075c2.648,1.578,5.551,2.685,8.56,3.343
	c0.463,0.102,1.185,0.104,1.582,0.398c0.288,0.214,0.397,0.685,0.54,0.995c0.184,0.399,0.399,0.708,0.836,0.842
	c0.782,0.24,1.685,0.184,2.491,0.192c1.555,0.015,3.112,0.03,4.667-0.007c0.642-0.015,1.462,0.029,2.037-0.316
	c0.408-0.246,0.584-0.739,0.776-1.149l0.3-0.64c3.396-0.639,6.638-1.676,9.66-3.377c1.735-0.977,3.368-2.132,4.87-3.439
	c0.74-0.645,1.418-1.349,2.127-2.026c0.44-0.42,0.91-0.538,1.473-0.737C75.494,59.582,78.409,52.19,77.537,45.536
	C76.961,41.14,78.549,53.258,77.537,45.536z M25.666,26.644c4.46-6.753,12.563-10.482,20.604-9.933
	c7.824,0.535,16.09,4.907,19.052,12.536c0.326,0.704-0.297,1.054-0.77,1.542c-0.483,0.499-0.993,1.004-1.224,1.676
	c-0.301,0.88-0.324,1.871-0.418,2.788c-0.177,1.731-0.509,3.475-0.591,5.214c-1.285,0.411-2.433,1.187-3.742,1.579
	c-1.561,0.467-3.099,1.021-4.691,1.375c-3.104,0.692-6.188,0.961-9.362,0.999c-3.189,0.037-6.296-0.371-9.376-1.216
	c-1.455-0.399-2.917-0.847-4.314-1.415c-1.12-0.455-2.255-0.958-3.431-1.254c-0.054-1.012-0.28-2.018-0.396-3.024
	c-0.143-1.234-0.248-2.471-0.42-3.703c-0.096-0.68-0.111-1.508-0.559-2.069c-0.569-0.714-1.343-1.265-1.871-2.013
	C24.306,29.246,25.188,27.368,25.666,26.644C26.492,25.392,25.188,27.368,25.666,26.644z M43.713,64.058
	c0.828-0.035,1.66-0.028,2.488-0.037c-0.161,0.186-0.801,0.074-1,0.061C44.713,64.05,44.194,64.127,43.713,64.058
	C43.973,64.047,43.757,64.064,43.713,64.058z M46.353,60.915c-0.016,0.147-0.032,0.3-0.054,0.458
	c-0.77,0.152-1.793-0.049-2.591-0.068c-0.324-0.572-0.121-1.36-0.452-1.973c-0.384-0.712-1.168-1.198-1.813-1.651
	c-1.438-1.012-2.86-2.061-4.267-3.117c-2.992-2.245-6.271-4.229-9.039-6.753c-0.103-2.015-0.266-3.699-0.506-5.234
	c1.28,0.687,2.698,1.036,4.05,1.547c1.407,0.534,2.979,1.019,4.468,1.252c2.961,0.463,5.845,0.921,8.854,0.921
	c3.059,0,6.125-0.288,9.108-0.973c1.455-0.334,2.854-0.84,4.276-1.288c1.344-0.423,2.857-0.768,4.025-1.589
	c-0.105,1.071-0.253,2.138-0.354,3.211c-0.062,0.646,0.082,1.829-0.396,2.362c-0.613,0.685-1.614,1.152-2.351,1.702
	c-1.083,0.808-2.141,1.651-3.231,2.45c-2.017,1.479-4.068,2.879-6.028,4.438c-0.885,0.703-2.046,1.206-2.833,2.001
	C46.6,59.24,46.444,60.069,46.353,60.915C46.337,61.062,46.461,59.919,46.353,60.915z M20.145,54.252
	c0.073-0.992,0.913-1.866,1.935-1.866c0.956,0,1.401,1.283,1.812,1.946c0.649,1.053,0.813,2.193,1.84,2.962
	c1.082,0.812,1.997,1.847,3.008,2.745c2.068,1.838,4.518,3.054,7.017,4.194c0.891,0.407,1.813,0.827,2.347,1.693
	c0.495,0.8,0.872,1.8,1.252,2.661c-4.222-0.982-8.097-2.394-11.56-5.079c-1.733-1.343-3.309-2.912-4.745-4.564
	c-0.573-0.659-1.117-1.34-1.637-2.042C20.867,56.167,20.073,55.232,20.145,54.252C20.214,53.319,20.082,55.108,20.145,54.252z
	 M54.408,64.042c1.794-0.76,3.501-1.683,5.076-2.833c1.6-1.168,2.919-2.645,4.485-3.845c1.449-1.109,1.55-3.194,2.745-4.542
	c1.28-1.444,3.141,0.717,2.711,2.146c-0.268,0.889-0.931,1.687-1.502,2.398c-0.589,0.732-1.136,1.511-1.738,2.229
	c-0.641,0.764-1.476,1.426-2.201,2.111c-0.816,0.771-1.676,1.496-2.579,2.162c-3.216,2.37-6.985,3.971-10.922,4.642
	c0.443-0.967,0.683-2.212,1.415-3.007C52.563,64.784,53.527,64.416,54.408,64.042C54.592,63.964,52.905,64.68,54.408,64.042z
	 M74.208,52.968c-0.294,0.482-0.456,1.084-0.721,1.593c-0.338,0.649-0.709,1.248-1.192,1.801c-1.051,1.202-2.346,2.141-3.785,2.82
	c0.46-0.567,0.921-1.394,1.517-1.797c0.693-0.47,1.104-1.252,1.273-2.056c0.332-1.589-0.242-3.348-1.62-4.264
	c-1.374-0.912-3.203-0.854-4.335,0.395c-0.474,0.523-0.789,1.2-0.915,1.895c-0.143,0.794-0.736,1.499-0.961,2.298
	c-0.157,0.295-0.567,0.516-0.83,0.706c-0.439,0.317-0.826,0.676-1.217,1.051c-0.671,0.644-1.492,1.11-2.25,1.646
	c-0.998,0.707-2.052,1.338-3.063,2.026c-0.657,0.447-1.318,0.889-1.988,1.317c-0.769,0.491-1.689,0.717-2.461,1.229
	c-0.759,0.503-1.374,1.18-1.742,2.019c-0.239,0.545-0.404,1.119-0.646,1.665c-0.247,0.558-0.605,1.14-0.743,1.739
	c-0.102,0.441-0.022,1.664-0.59,1.905c-0.669,0.284-1.628,0.143-2.33,0.143c-1.216-0.001-2.522,0.141-3.719-0.061
	c-0.342-0.058-0.763-1.21-0.702-1.475c0.19-0.837-0.462-1.854-0.813-2.562c-0.429-0.863-0.728-1.798-1.373-2.533
	c-0.581-0.663-1.337-1.122-2.132-1.485c-1.872-0.851-3.508-2.029-5.213-3.171c-0.857-0.574-1.714-1.147-2.573-1.718
	c-0.503-0.333-0.911-0.779-1.354-1.188c-0.463-0.428-1.082-0.795-1.487-1.271c-0.211-0.296-0.258-0.83-0.427-1.166
	c-0.201-0.399-0.521-0.756-0.594-1.196c-0.152-0.925-0.763-1.842-1.547-2.353l-0.645-0.42c-0.592-0.013-1.197-0.059-1.787,0.01
	c-1.055,0.122-1.916,0.923-2.4,1.828c-0.922,1.722-0.773,4.162,1.055,5.206c0.412,0.564,0.835,1.12,1.277,1.661
	c-0.05-0.014-0.093-0.022-0.129-0.025c-0.847-0.226-1.746-1.06-2.414-1.592c-0.93-0.74-1.705-1.718-2.28-2.754
	c-1.274-2.293-1.717-4.719-1.669-7.332c0.043-2.365,0.578-4.498,1.716-6.567c1.119-2.035,2.597-3.732,4.063-5.512
	c0.047,2.871,0.058,5.743,1.087,8.471c0.183,0.484,0.567,1.806,1.256,1.806c0.706,0,0.366-0.921,0.228-1.254
	c-0.195-0.507-0.164-1.143-0.223-1.675c-0.188-1.747-0.341-3.446-0.328-5.212c0.013-1.818,0.13-3.846,0.885-5.519
	c1.507,0.682,1.526,1.99,1.779,3.439c0.299,1.713,0.576,3.445,0.999,5.133c-0.888,0.627-0.424,2.51-0.284,3.382
	c0.185,1.156,0.315,2.348,0.385,3.515c0.077,1.285,0.682,1.916,1.72,2.595c1.188,0.778,2.313,1.675,3.46,2.514
	c2.317,1.697,4.628,3.404,6.943,5.103c0.962,0.706,1.944,1.392,2.862,2.154c0.521,0.419,0.549,0.665,0.584,1.321
	c0.031,0.579,0.143,1.211,0.627,1.589c-0.699,0.596-0.396,2.081,0.295,2.568c-0.405,0.528-0.414,1.694,0.007,2.209
	c-0.426,0.556-0.12,1.319,0.361,1.727c0.354,0.3,0.861,0.289,1.3,0.3c1.103,0.029,2.855,0.261,2.855-1.305
	c0-0.347-0.056-0.633,0.128-0.92c0.36-0.562,0.334-1.471-0.103-1.986c0.299-0.748,0.929-1.603,0.458-2.471
	c0.265-0.555,0.32-1.115,0.319-1.723c0-0.851,0.25-1.024,0.896-1.517c1.401-1.067,2.833-2.092,4.253-3.132
	c2.898-2.125,5.764-4.295,8.688-6.384c1.721-1.227,1.849-1.441,1.952-3.278c0.063-1.146,0.133-2.315,0.275-3.453
	c0.11-0.888,0.478-2.387-0.525-2.92c0.279-1.857,0.72-3.688,1.025-5.542c0.238-1.443,0.365-2.141,1.66-2.929
	c0.443,0.699,0.509,1.588,0.616,2.383c0.161,1.196,0.314,2.361,0.321,3.573c0.013,2.357-0.355,4.632-0.727,6.94
	c-0.122,0.763,0.636,1.08,1.01,0.43c0.599-1.044,0.915-2.337,1.153-3.508c0.435-2.14,0.592-4.192,0.554-6.376
	c2.07,2.168,4.07,4.828,5.064,7.678c0.585,1.675,0.7,3.549,0.69,5.309C74.961,49.869,74.974,51.713,74.208,52.968
	C74.158,53.05,75.242,51.273,74.208,52.968z"/>
</svg>
