<?xml version="1.0" encoding="utf-8"?>
<!-- Generator: Adobe Illustrator 16.0.0, SVG Export Plug-In . SVG Version: 6.00 Build 0)  -->
<!DOCTYPE svg PUBLIC "-//W3C//DTD SVG 1.1//EN" "http://www.w3.org/Graphics/SVG/1.1/DTD/svg11.dtd">
<svg version="1.1" id="Layer_1" xmlns="http://www.w3.org/2000/svg" xmlns:xlink="http://www.w3.org/1999/xlink" x="0px" y="0px"
	 width="90px" height="90px" viewBox="0 0 90 90" enable-background="new 0 0 90 90" xml:space="preserve">
<g>
	<path d="M65.618,35.755c-3.255,2.157-6.931,3.354-10.548,4.745c-3.12,1.2-7.479,3.602-10.876,3.405
		c-3.362-0.195-7.026-2.118-10.191-3.16c-1.642-0.541-3.195-1.13-4.784-1.83c-1.683-0.741-3.346-1.542-4.933-2.473
		c-0.232-0.136-2.234-1.681-2.228-1.007c0.021,2.477,1.165,5.33,1.718,7.74c0.247,1.076,0.341,2.971,1.15,3.844
		c1.376,1.486,3.357,2.57,5.048,3.644c3.25,2.064,6.595,3.986,9.988,5.805c2.91,1.56,4.019,2.636,6.996,1.076
		c3.839-2.012,7.618-4.151,11.285-6.464c1.92-1.211,4.24-2.451,5.76-4.182c0.619-0.705,0.634-2.092,0.809-2.955
		c0.405-2.008,0.829-4.015,1.311-6.006c0.12-0.498,0.879-2.235,0.54-2.657C66.49,35.067,65.646,35.736,65.618,35.755
		C64.613,36.421,66.857,34.935,65.618,35.755z M35.298,51.646c-3.619,0.016-3.565-7.487-3.287-9.661
		c2.078,0.685,4.156,1.369,6.233,2.053C39.917,44.588,37.749,51.636,35.298,51.646C32.993,51.655,37.184,51.638,35.298,51.646z
		 M56.943,46.965c-0.297,1.522-1.067,4.666-3.135,4.676c-2.147,0.011-2.956-3.244-3.21-4.832c-0.438-2.743-0.151-2.602,2.134-3.48
		c1.432-0.551,2.865-1.102,4.297-1.652C57.335,43.36,57.27,45.288,56.943,46.965C55.466,54.538,57.221,45.54,56.943,46.965z"/>
	<path d="M69.074,26.839c-7.377-10.601-21.243-15.317-33.586-11.617c-11.929,3.575-20.592,14.509-21.42,26.924
		c-0.834,12.508,6.23,24.454,17.664,29.619c11.249,5.081,24.965,2.759,33.778-5.94C75.88,55.589,77.386,38.783,69.074,26.839
		C64.161,19.779,79.955,42.474,69.074,26.839z M19.271,56.567c-6.623-13.271-1.213-29.919,11.795-36.933
		c11.367-6.128,25.872-3.509,34.284,6.285c7.362,8.571,8.994,21.097,3.713,31.142c-5.269,10.021-16.164,15.968-27.441,14.892
		C32.038,71.037,23.567,65.175,19.271,56.567C14.483,46.972,28.896,75.854,19.271,56.567z"/>
</g>
</svg>
