<?xml version="1.0" encoding="utf-8"?>
<!-- Generator: Adobe Illustrator 16.0.0, SVG Export Plug-In . SVG Version: 6.00 Build 0)  -->
<!DOCTYPE svg PUBLIC "-//W3C//DTD SVG 1.1//EN" "http://www.w3.org/Graphics/SVG/1.1/DTD/svg11.dtd">
<svg version="1.1" id="Layer_1" xmlns="http://www.w3.org/2000/svg" xmlns:xlink="http://www.w3.org/1999/xlink" x="0px" y="0px"
	 width="90px" height="90px" viewBox="0 0 90 90" enable-background="new 0 0 90 90" xml:space="preserve">
<path d="M74.088,44.68V20.207c-0.498-1.032-1.033-2.009-1.865-2.817c-0.801-0.779-1.759-1.304-2.743-1.808
	c-7.858,0-15.717,0-23.575,0.001c-7.358,0-14.718,0-22.077,0.001c-1.097,0-2.194,0-3.291,0c-2.14,1.041-3.538,2.437-4.596,4.564
	c-0.005,7.863-0.01,15.726-0.014,23.588c-0.005,7.364-0.009,14.728-0.014,22.091c-0.001,1.098-0.001,2.195-0.002,3.292
	c1.051,2.16,2.456,3.571,4.612,4.639c7.865,0,15.73,0,23.596,0c7.367,0,14.732,0,22.1,0c1.098,0,2.196,0,3.293,0
	c1.01-0.61,1.936-1.013,2.773-1.898c0.767-0.81,1.304-1.724,1.804-2.708L74.088,44.68z M70.648,59.417
	c-0.039,2.188-0.028,4.376-0.036,6.564c-0.003,0.841-0.075,1.433-0.474,2.213c-0.656,1.287-1.852,1.618-3.084,2.118
	c-2.377-0.001-4.755,0.017-7.131-0.013c-0.065-3.617-0.033-7.235-0.094-10.852C63.43,59.527,67.049,59.523,70.648,59.417
	C70.636,60.119,70.64,59.417,70.648,59.417z M57.902,56.86c-1.579-0.043-3.16-0.013-4.74-0.034c-0.03-1.202-0.038-2.404-0.058-3.605
	c-0.013-0.796,0.122-1.881-0.396-2.54l-0.483-0.615c-3.763,0-7.526-0.013-11.289,0.008c-0.879,0.005-2.043-0.173-2.904,0.104
	c-0.925,0.297-1.082,1.204-1.111,2.046c-0.056,1.527-0.011,3.057-0.027,4.584c-5.828,0.066-11.654,0.198-17.484,0.117
	c-0.085-5.86-0.04-11.725-0.049-17.585c1.963-0.022,3.926,0.002,5.889,0.009l0.479-0.591c0.537-0.662,0.378-1.785,0.379-2.59
	c0.003-1.196-0.006-2.392,0.008-3.588c12.59-0.134,25.192-0.146,37.783-0.027c0.011,1.531-0.028,3.064,0.005,4.596
	c0.022,1.028,0.298,2.161,1.532,2.186c1.736,0.023,3.473-0.019,5.208,0.003c0,5.868,0.044,11.739-0.025,17.606
	C66.375,57.049,62.137,56.977,57.902,56.86C57.36,56.845,58.445,56.875,57.902,56.86z M30.091,64.894
	c0.001,2.26,0,4.263-0.015,5.392c-1.903,0.042-3.81,0.034-5.714,0.001c-1.532-0.027-2.79-0.102-3.906-1.316
	c-1.072-1.167-1.045-2.427-1.05-3.905c-0.006-1.889,0.018-3.779-0.01-5.668c3.567,0.052,7.141,0.051,10.708-0.01
	C30.078,61.223,30.091,63.059,30.091,64.894C30.092,67.154,30.09,62.007,30.091,64.894z M31.275,56.9
	c0.01-0.002,0.024-0.005,0.042-0.008C31.301,56.895,31.287,56.897,31.275,56.9z M18.004,22.23c0.406-2.085,2.052-4.235,4.282-4.495
	c2.628-0.307,5.362-0.139,8-0.143c10.701-0.02,21.403-0.001,32.104,0c1.698,0,3.397,0,5.095,0c1.1,0.439,2.088,0.756,2.96,1.611
	c0.793,0.776,1.463,1.924,1.637,3.04c0.194,1.247,0.001,2.677,0.002,3.936c0.002,3.547-0.043,7.098,0.022,10.644
	c-1.78-0.325-3.76-0.067-5.56-0.084c-0.02-1.799,0.237-3.782-0.072-5.564c-0.174-1.001-0.979-1.156-1.844-1.176
	c-0.98-0.023-1.961-0.029-2.941-0.037c-4.551-0.036-9.104-0.039-13.655-0.041c-4.965-0.002-9.929,0.003-14.893,0.024
	c-2.084,0.009-4.167,0.018-6.251,0.043c-0.777,0.009-1.841-0.145-2.579,0.15c-0.885,0.353-0.836,1.417-0.845,2.207
	c-0.018,1.462,0,2.925-0.011,4.386c-0.98,0.015-1.96,0.012-2.939,0.012c-0.836,0.001-1.771-0.095-2.594,0.1
	c0.051-2.475,0.021-4.954,0.023-7.429c0.002-1.654,0.006-3.307,0.019-4.961C17.971,23.748,17.868,22.928,18.004,22.23
	C18.392,20.238,17.973,22.392,18.004,22.23z M32.443,71.789c0.272-1.173,0.117-2.535,0.12-3.723
	c0.006-2.859-0.025-5.718,0.013-8.577c1.51-0.03,3.021-0.024,4.53-0.054c0.818-0.017,1.909,0.062,2.288-0.844
	c0.189-0.452,0.131-1.056,0.143-1.531c0.038-1.432,0.036-2.865,0.072-4.297c3.597-0.014,7.193,0,10.79,0.034
	c0.025,1.141,0.031,2.282,0.047,3.423c0.012,0.837-0.178,2.107,0.455,2.755c0.627,0.639,1.84,0.459,2.663,0.47
	c1.265,0.017,2.528,0.018,3.793,0.043c0.045,2.297,0.039,4.596,0.054,6.893c0.007,1.017,0.015,2.034,0.027,3.051
	c0.009,0.761-0.069,1.597,0.095,2.346C53.499,71.673,36.6,71.681,32.443,71.789C32.566,71.258,36.6,71.681,32.443,71.789z"/>
</svg>
