<?xml version="1.0" encoding="utf-8"?>
<!-- Generator: Adobe Illustrator 16.0.0, SVG Export Plug-In . SVG Version: 6.00 Build 0)  -->
<!DOCTYPE svg PUBLIC "-//W3C//DTD SVG 1.1//EN" "http://www.w3.org/Graphics/SVG/1.1/DTD/svg11.dtd">
<svg version="1.1" id="Layer_1" xmlns="http://www.w3.org/2000/svg" xmlns:xlink="http://www.w3.org/1999/xlink" x="0px" y="0px"
	 width="90px" height="90px" viewBox="0 0 90 90" enable-background="new 0 0 90 90" xml:space="preserve">
<path fill="#1B050F" d="M71.419,27.714c-0.263-0.417,0.733-2.506,0.774-3.243c0.106-1.919-2.247-1.689-3.437-1.705
	c-3.23-0.039-0.213-5.461-3.489-5.827c-0.709-0.08-1.027,0.38-1.555,0.701c-0.487,0.297-1.029-1.702-1.159-1.952
	c-0.86-1.644-2.366-2.424-3.81-0.915c-1.457,1.524-1.94-0.305-2.744-1.59c-1.039-1.664-2.044-1.757-3.595-0.574
	c-1.83,1.396-2.111,1.833-3.765,0.044c-0.896-0.969-2.515-3.584-4.122-3.124c-1.951,0.559-2.905,3.315-5.099,3.185
	c-2.272-0.134-4.501-0.747-6.791-0.693c-2.379,0.056-1.089,2.558-0.988,3.807c0.066,0.825-4.234,0.369-4.779,0.333
	c-1.104-0.071-2.903-0.274-3.283,1.128c-0.483,1.776,1.689,1.489,1.799,2.491c0.038,0.352-7.263,1.218-2.724,3.77
	c1.045,0.587-1.908,1.698-2.268,1.885c-1.038,0.541-4.208,1.984-2.459,3.604c0.646,0.599,3.124,0.151,2.821,1.246
	c-0.289,1.043-0.935,1.952-1.259,2.991c-0.397,1.27-0.994,3.367-0.055,4.565c1.134,1.446,3.519-1.189,3.794-0.847
	c0.622,0.774,0.521,2.384,0.727,3.327c0.556,2.541-0.67,2.107-1.896,3.96c-0.897,1.358-1.066,3.068-0.815,4.644
	c0.158,0.987,1.239,2.416-0.193,2.686c-2.201,0.409-8.26,1.143-9.009,3.822c-0.768,2.746,7.308,4.71,4.875,7.109
	c-0.759,0.748-2.007,1.472-2.102,2.648c-0.129,1.612,1.129,3.632,1.739,5.07c0.509,1.199,0.906,3.697,2.678,3.484
	c1.463-0.175,2.37-2.766,3.106-3.814c1.032-1.471,2.139-2.914,3.324-4.265c0.222-0.252,2.639-2.967,2.608-1.848
	c-0.024,0.942-0.667,1.89-0.056,2.79c1.016,1.497,3.312-0.033,4.479-0.455c1.413-0.51,3.052,1.663,4.031,2.455
	c1.365,1.106,2.838,2.054,4.501,2.648c3.573,1.277,7.482,1.042,10.85-0.756c1.737-0.927,3.221-2.239,4.709-3.51
	c1.746-1.491,2.709-0.575,4.687,0.105c1.539,0.528,2.623-0.579,2.19-2.108c-0.764-2.694,1.307-0.765,1.809-2.843
	c0.34-1.408-1.962-4.135-0.726-5.096c1.952-1.512,3.627-3.125,4.698-5.393c0.844-1.787,1.297-3.912,0.78-5.86
	c-0.536-2.022-3.075-2.626-2.701-4.643c0.103-0.554,0.213-1.207,0.359-1.766c0.256-0.984,0.827-0.307,1.545-0.31
	c2.666-0.012,0.978-3.18,0.753-4.414c-0.251-1.38,3.095-0.454,3.468-1.952C74.097,30.907,72.488,28.979,71.419,27.714z
	 M36.66,36.714c-0.293,3.431,3.853,1.65,5.411,1.001c-0.823,4.341,4.744,0.882,6.048-0.06c0.54,3.656,4.427,0.17,5.589-0.889
	c1.817,3.625,4.106,0.852,6.067-1.023c0.854,1.097,1.602,2.341,2.752,3.164c-2.077,0.414-3.629-1.239-5.895-0.058
	c-1.034,0.539-1.923,1.308-2.837,2.022c-1.54-0.124-3.047,0.332-4.572,0.438c-2.666,0.186-5.444,0.24-8.093-0.16
	c-1.271-0.192-2.583,0.026-3.585-0.78c-1.166-0.939-2.365-1.97-3.834-2.397C34.15,37.829,36.35,36.911,36.66,36.714z M30.934,36.512
	c0.156,0.583,0.51,1.123,1.061,1.401c-0.867,0.189-1.671,0.624-2.393,1.126c-0.68-0.299-1.492-0.354-2.205-0.59
	C28.284,38.417,30.237,36.981,30.934,36.512z M68.272,45.322c0.802,1.323,0.717,1.939,0.465,3.375
	c-0.38,2.179-1.558,4.098-3.13,5.626c-1.129,1.096-3.333,1.768-3.95,3.263c-0.747,1.812-1.197,3.464-2.526,4.989
	c-1.566,1.797-3.463,3.458-5.352,4.91c-3.668,2.817-8.113,3.908-12.519,2.113c-3.714-1.513-8.501-5.479-10.291-9.111
	c-0.377-0.763-0.806-3.487-1.707-3.799c-0.677-0.233-1.129,3.299-1.221,3.661c-0.454,1.79-2.403,2.984-3.572,4.293
	c-1.556,1.744-3.067,3.627-4.296,5.619c-1.229,1.991-1.347,1.365-2.084-0.513c-0.956-2.431-2.404-3.925-0.327-5.958
	c1.49-1.459,3.114-2.757,4.802-3.979c0.2-0.145,3.632-2.066,3.511-2.496c-0.228-0.803-6.836,3.33-7.289,2.996
	c-0.748-0.549-4.976-3.51-4.803-4.532c0.178-1.045,2.726-1.433,3.537-1.69c2.047-0.647,4.043-0.905,6.152-1.17
	c0.893-0.112,0.49-0.675,0.196-1.195c-0.712-1.253-1.188-2.703-1.174-4.155c0.01-1.097,0.325-2.27,1.183-3.013
	c0.743-0.644,2.207-1.171,2.514,0.104c0.403,1.696,0.407,5.796,1.702,7.089c-0.445-0.448-0.332-4.526-0.385-5.341
	c-0.076-1.19,0.889-5.421,0.062-6.233c0.812,0.538,3.614,0.704,2.734,2.011c-0.341,0.506-3.116,3.467-1.15,3.029
	c1.109-0.248,2.162-0.745,3.314-0.79c1.414-0.055,2.968,0.59,4.302,0.969c0.072,0.02,5.703,1.825,5.69,1.875
	c0.645-2.576-3.601-3.871-5.112-5.021c0.512,0.384,1.412,0.155,2.064,0.227c1.699,0.187,3.38,0.405,5.094,0.413
	c1.967,0.009,3.934-0.009,5.892-0.213c0.599-0.063,3.196,0.053,3.666-0.29c-1.448,1.136-2.819,1.881-4.453,2.678
	c-0.624,0.305-1.821,3.101-0.211,2.465c2.99-1.181,7.034-3.251,10.317-2.536c0.264,0.058,3.104,1.048,3.026,0.459
	c-0.126-0.938-1.142-1.879-1.693-2.601c-1.084-1.42,0.055-0.578,0.205-1.534c0.188-1.19,1.596-0.712,2.387-1.157
	c0.108-0.081-0.35,11.401-0.297,11.413c0.395,0.088,1.461-5.889,1.577-6.487C65.506,43.119,67.431,43.933,68.272,45.322z"/>
</svg>
