<?xml version="1.0" encoding="utf-8"?>
<!-- Generator: Adobe Illustrator 16.0.0, SVG Export Plug-In . SVG Version: 6.00 Build 0)  -->
<!DOCTYPE svg PUBLIC "-//W3C//DTD SVG 1.1//EN" "http://www.w3.org/Graphics/SVG/1.1/DTD/svg11.dtd">
<svg version="1.1" id="Layer_1" xmlns="http://www.w3.org/2000/svg" xmlns:xlink="http://www.w3.org/1999/xlink" x="0px" y="0px"
	 width="90px" height="90px" viewBox="0 0 90 90" enable-background="new 0 0 90 90" xml:space="preserve">
<g>
	<path d="M72.447,47.412c2.742-3.409,6.975-8.575,6.541-13.295c-0.319-0.933-0.36-1.657-1.198-2.111
		c-2.073-0.83-5.527,1.523-7.732,1.8c-0.034-1.977,0.215-10.886-3.65-9.753c-0.802,0.236-2.944,3.02-3.656,2.767
		c-0.48-0.173-1.104-3.282-1.301-3.748c-2.592-6.132-6.756,0.668-8.373,3.779c-0.837,1.611-0.582,2.962-2.516,2.883
		c-1.403-0.059-2.802-0.225-4.197-0.375c-1.378-0.148-2.727-0.12-4.111,0.014c-1.249,0.121-5.584,1.334-6.269,0.067
		c-1.501-2.776-2.753-7.236-6.021-8.525c-2.389-0.942-3.213,1.903-3.789,3.556c-0.093,0.268-0.913,3.021-1.104,2.907
		c-0.703-0.418-1.28-1.181-1.921-1.692c-5.067-4.04-5.48,5.782-5.096,8.795c-2.366-0.248-4.922-2.021-7.226-1.876
		c-2.232,0.141-1.851,3.004-1.457,4.543c0.52,2.033,1.519,3.945,2.576,5.744c1.008,1.716,3.276,3.428,3.938,5.227
		c-0.238-0.647-2.816,0.848-2.977,1.229c-0.644,1.529,0.326,3.439,1.035,4.767c0.832,1.557,1.783,3.086,3.01,4.364
		c0.574,0.598,1.206,1.143,1.899,1.598c1.343,0.883,1.015,0.472,0.9,1.94c-0.311,3.964,6.364,5.132,9.103,5.209
		c0.92,0.025,1.84,0.001,2.76-0.011c1.128-0.016,1.686,0.603,2.761,0.892c2.126,0.572,4.468,0.719,6.655,0.834
		c4.093,0.218,9.454,0.465,13.272-1.27c1.14-0.519,1.194-0.913,2.522-0.84c1.41,0.077,2.827,0.058,4.229-0.111
		c2.16-0.259,4.488-0.813,6.195-2.242c1.179-0.988,2.184-2.526,1.403-4.059c-0.119-0.232,3.495-3.146,3.945-3.715
		c1.265-1.596,2.286-3.584,2.803-5.554C76.131,48.358,75.077,47.537,72.447,47.412z M66.274,28.252
		c0.337,1.633,0.729,3.297,0.562,4.977c-0.11,1.104-1.436,3.378,0.454,3.791c-1.021,0.021-1.967,0.486-2.92,0.792
		c-0.059-1.042-0.277-2.106-0.51-3.124c-0.116-0.521-0.484-2.125-0.751-3.727C64.203,30.106,65.256,29.197,66.274,28.252z
		 M52.698,32.72c1.608-0.158,2.011-2.258,2.632-3.472c0.664-1.295,1.932-4.834,3.27-5.365c2,4.573,3.243,9.547,3.565,14.53
		c-4.656,1.82-9.893,2.245-14.472,4.214c-0.078-1.074-0.55-1.251,0.614-1.619c0.786-0.248,1.559-0.539,2.318-0.858
		c0.85-0.354,2.453-0.854,1.774-2.138c-0.527-0.997-2.148-1.16-3.104-1.435c-0.82-0.235-1.641-0.477-2.487-0.6
		c-0.282-1.251-0.392-2.531-0.553-3.801C48.317,32.319,50.646,32.921,52.698,32.72z M26.542,35.303c0.254-2.287,1.749-9,2.83-11.198
		c1.898,1.966,3.058,4.467,4.177,6.923c0.742,1.627,1.194,2.103,3.042,1.896c1.736-0.194,3.46-0.489,5.199-0.663
		c-0.153,0.931-0.14,1.875-0.213,2.813c-0.107,1.378-0.691,1.046-1.868,1.369c-0.958,0.264-3.603,0.7-3.982,1.856
		c-0.444,1.353,1.603,2.098,2.515,2.386c0.572,0.181,1.157,0.319,1.744,0.442c1.23,0.258,0.754,0.485,0.626,1.644
		c-4.074-1.231-8.214-2.222-12.33-3.298c-1.222-0.319-2.096-0.025-2.02-1.456C26.311,37.108,26.442,36.207,26.542,35.303z
		 M29.562,41.797c2.959,0.759,5.927,1.49,8.88,2.273c2.375,0.631,3.563,1.085,4.154-1.69c0.598-2.807-1.516-3.073-3.824-3.668
		c1.382-0.446,4.187-0.507,4.535-2.288c0.211-1.083,0.263-2.147,0.265-3.247c0.004-1.778,0.776-0.823,0.897,0.164
		c0.092,1.269,0.046,2.784,0.827,3.839c0.657,0.888,3.135,1.237,4.191,1.412c-1.899,0.722-4.061,0.72-3.825,3.217
		c0.248,2.63,1.226,3.298,3.729,2.378c2.212-0.813,4.527-1.342,6.78-2.033c1.31-0.402,2.636-0.78,3.964-1.116
		c0.982-0.25,2.566-1.153,3.494-1.119C58.368,43.607,53.182,47.456,47.802,51c-0.695-1.128-1.758-4.529-3.491-4.414
		c-1.685,0.111-2.841,3.293-3.536,4.473c-2.27-2.066-5.536-3.569-8.121-5.251c-1.434-0.935-2.843-1.907-4.279-2.839
		c-1.243-0.803-2.954-1.214-3.752-2.569C25.098,41.209,28.614,41.554,29.562,41.797z M62.202,43.26
		c-0.012,0.109-0.119,0.768-0.196,1.172c-0.131,0.928-0.346,2.484-0.458,3.378c-0.166-0.89-0.445-1.753-0.631-2.639
		C60.653,43.909,61.246,43.905,62.202,43.26z M27.509,45.471c-0.18,0.886-0.272,1.788-0.484,2.668
		c-0.204-1.445-0.581-2.864-0.706-4.321C27.293,44.466,27.629,44.87,27.509,45.471C27.485,45.588,27.36,46.204,27.509,45.471z
		 M21.438,34.919c-0.837-1.454-0.107-4.581,0.207-6.147c1.044,0.866,3.539,1.815,3.267,3.334c-0.375,2.092-0.852,4.127-1.008,6.26
		c-0.956-0.337-1.95-0.616-2.959-0.729C22.129,37.224,21.816,35.788,21.438,34.919z M23.817,62.672
		c1.175-0.407,3.272-0.69,3.673-2.12c0.52-1.854-2.383-1.896-3.458-1.982c-3.318-0.269-7.196-3.79-7.669-7.163
		c1.548-0.028,4.146,0.673,5.606-0.05c2.261-1.12-1.294-3.4-2.065-4.051c-3.34-2.818-6.049-6.6-7.297-10.812
		c2.379,0.836,4.943,1.476,7.483,1.291c-1.969,1.195,2.229,3.318,2.903,3.786c1.743,1.212,1.685,6.318,2.019,8.486
		c0.128,0.837,1.49,6.474,3.208,3.925c1.277-1.898,1.042-5.661,1.527-7.866c2.502,1.679,5.043,3.3,7.534,4.997
		c-1.468-0.23-3.297-0.02-4.431,0.213c-6.592,1.479-5.679,8.408-2.265,12.668C28.313,64.02,25.743,64.09,23.817,62.672z
		 M34.4,64.864c-0.942-1.031-0.139-4.781,0.259-6.017c1.079,1.854,1.939,3.832,2.633,5.86C36.634,64.882,34.926,65.504,34.4,64.864z
		 M39.966,63.883c-1.458,0.459-1.411-1.279-1.888-2.457c-0.506-1.249-1.732-5.016-3.476-4.935c-2.321,0.107-2.301,4.485-2.332,6.027
		c-1.815-2.55-3.88-8.158,0.875-8.925c2.013-0.324,4.18-0.121,6.211-0.121c1.699,0.001,2.095,0.026,3.024-1.479
		c0.646-1.047,1.17-2.171,1.924-3.149c0.888,1.225,1.657,3.742,2.974,4.446c0.009,0.005,0.012,0.007,0.021,0.012
		c2.623,1.403,6.685-0.876,9.258,0.789c3.196,2.067-6.372,5.645-7.221,6.036c-1.956,0.902-3.929,1.631-5.935,2.405
		C42.254,62.975,41.142,63.514,39.966,63.883z M64.98,58.119c-1.086,0.297-3.452-0.037-3.91,1.356
		c-0.594,1.81,2.905,2.312,3.919,2.653c-1.84,1.274-3.988,1.407-6.146,1.484c-1.434,0.051-4.369-0.854-5.284,0.588
		c-0.865,1.363-2.984,1.285-4.421,1.331c-2.571,0.082-5.131,0.323-7.706,0.157c5.042-1.951,11.317-3.522,15.684-6.824
		c1.63-1.233,3.062-3.567,1.82-5.576c-1.469-2.375-5.713-1.928-8.092-2.055c1.343-0.969,7.059-4.953,7.896-5.492
		c0.331,1.824,0.451,6.715,1.896,7.967c2.195,1.902,2.925-4.385,3.102-5.311c0.258-1.35,0.605-2.794,0.587-4.175
		c-0.009-0.65-0.301-2.178,0.262-2.679c0.526-0.47,6.256-3.424,3.237-4.45c2.619,0.219,5.246-0.503,7.678-1.406
		c-1.24,4.144-3.688,7.781-6.823,10.732c-0.864,0.813-4.395,3.071-1.991,4.254c1.634,0.804,3.671,0.063,5.385,0.03
		C70.666,54.127,68.775,57.081,64.98,58.119z"/>
	<path d="M46.757,57.873c3.998-3.927-2.301-4.633-5.23-3.751c-2.08,0.732-0.443,3.021,0.479,3.962
		C43.88,59.994,44.999,59.601,46.757,57.873z M42.58,55.829c1.153-0.121,2.32-0.133,3.476-0.036
		c-0.254,0.349-0.56,0.657-0.865,0.962C44.04,57.884,43.463,57.093,42.58,55.829z"/>
</g>
</svg>
