<?xml version="1.0" encoding="utf-8"?>
<!-- Generator: Adobe Illustrator 16.0.0, SVG Export Plug-In . SVG Version: 6.00 Build 0)  -->
<!DOCTYPE svg PUBLIC "-//W3C//DTD SVG 1.1//EN" "http://www.w3.org/Graphics/SVG/1.1/DTD/svg11.dtd">
<svg version="1.1" id="Layer_1" xmlns="http://www.w3.org/2000/svg" xmlns:xlink="http://www.w3.org/1999/xlink" x="0px" y="0px"
	 width="90px" height="90px" viewBox="0 0 90 90" enable-background="new 0 0 90 90" xml:space="preserve">
<g id="svgg_2_">
	<path id="path1_1_" fill="none" stroke="#000000" stroke-width="1.6" stroke-miterlimit="10" d="M63,38.792
		c-2.395,1.375-4.768,2.79-7.178,4.139c-1.017,0.565-2.012,1.168-3.025,1.74c-1.214,0.686-1.046,1.833-2.458,2.392
		c-1.84,0.729-4.072,1.787-6.046,1.575c-1.664-0.35-3.279-0.958-4.82-1.667c-0.474-0.219-1.167-0.531-1.167-1.165
		c0-0.843-1.16-1.214-1.761-1.565c-2.303-1.343-4.62-2.662-6.927-3.999c-0.611-0.354-2.441-1.904-3.244-1.749
		c-0.418,0.081,0.502,3.262,0.559,3.539c0.476,2.342,3.639,4.273,5.275,5.869c1.906,1.859,3.849,3.695,5.676,5.633
		c1.273,1.351,1.384,4.745,1.77,6.51c0.586,2.661,1.222,5.315,1.842,7.969c0.558,2.387,1.103,4.763,1.853,7.09
		c0.24,0.743,0.186,2.245,1.22,2.348c1.45,0.144,1.781-0.448,2.098-1.778c1.186-4.974,2.436-9.993,3.681-14.966
		c0.781-3.116,0.72-6.029,3.011-8.325c2.722-2.728,5.509-5.393,8.271-8.079c1.444-1.404,1.386-1.808,1.873-3.722
		C63.748,39.613,64.49,37.936,63,38.792"/>
	<path id="path2" fill="#06060C" d="M41.827,12.202c-6.422,0.66-12.424,3.804-16.712,8.616c-2.076,2.33-3.739,5.021-4.905,7.916
		c-0.902,2.239-0.503,3.947-2.837,4.723c-1.32,0.438-4.43,0.789-4.989,2.393c-0.333,0.955-0.117,2.304-0.121,3.283
		c-0.017,4.171-0.005,7.738-0.005,11.909c0,1.799,1.88,2.904,3.789,3.375c2.706,0.667,2.852,0.375,3.629,2.136
		c1.194,2.703,2.49,5.359,3.743,8.035c0.526,1.126,0.75,1.766,1.604,2.597c4.24,4.125,8.702,8.043,13.086,12.013
		c1.332,1.206,1.782,1.569,3.509,1.595c2.295,0.035,4.594,0.018,6.889-0.039c1.17-0.029,1.747,0.057,2.604-0.705
		c2.375-2.106,4.695-4.277,7.04-6.417c3.158-2.883,6.969-5.475,8.782-9.404c0.852-1.845,1.73-4.043,2.444-5.945
		c0.469-1.25,0.95-2.17,1.721-2.907c1.947-1.86,6.327-0.485,6.753-3.933c0.517-4.173,0.07-8.625,0.057-12.837
		c-0.003-1.1-0.056-2.227-0.719-3.167c-0.923-1.31-3.53-1.696-5.001-2.184c-2.055-0.682-1.81-2.364-2.577-4.369
		c-1.294-3.383-3.277-6.423-5.822-8.999c-4.483-4.539-10.519-7.269-16.865-7.712C45.23,12.055,43.516,12.028,41.827,12.202
		 M47.901,14.542c2.413,0.297,5.077,0.89,7.188,2.134c0.78,0.46-0.521,6.014-0.623,6.754c-0.334,2.443-0.596,3.809-1.013,6.675
		c-0.111,0.761-1.338,6.059-0.632,6.494c0.186,0.115,1.908-7.03,2.113-7.843c0.693-2.746,1.366-5.596,1.847-8.382
		c0.218-1.26,0.238-2.727,1.339-2.072c1.407,0.838,2.678,1.94,3.826,3.101c2.515,2.543,4.749,5.688,5.832,9.128
		c0.837,2.662,0.554,3.987,3.393,4.866c0.897,0.278,4.438,0.772,4.52,2.122c0.231,3.843,0.096,7.749,0.012,11.595
		c-0.01,0.443,0.225,1.992-0.285,2.233c-1.803,0.854-4.77,0.891-6.14,2.401c-3.09,3.405-2.982,9.232-6.487,12.399
		c-4.281,3.865-8.615,7.714-12.792,11.691c-1.317,1.252-3.367,0.823-5.05,0.813c-2.506-0.015-3.791,0.163-5.604-1.508
		c-3.776-3.48-7.565-6.953-11.384-10.387c-3.252-2.927-4.117-7.538-6.223-11.274c-0.475-0.839-0.605-2.023-1.693-2.304
		c-1.139-0.292-2.28-0.713-3.391-1.102c-1.386-0.485-2.186-0.473-2.226-1.917c-0.102-3.62-0.084-7.25-0.033-10.871
		c0.009-0.686-0.276-2.072,0.432-2.472c1.63-0.919,5.686-1.214,6.111-3.381c0.839-4.282,3.404-8.691,6.966-12.166
		c0.641-0.625,2.823-3.221,3.889-3.013c0.866,0.169,1.6,5.444,1.795,6.308c0.524,2.311,0.855,4.272,1.614,7.068
		c0.266,0.98,0.375,2.02,0.641,3c0.211,0.778,0.55,3.495,1.053,3.983c-0.009-0.008-0.285-3.336-0.31-3.747
		c-0.107-1.801-0.525-3.491-0.718-5.271c-0.326-2.957-0.888-5.841-1.305-8.788c-0.378-2.673-0.837-3.207-0.366-3.964
		c0.455-0.73,2.841-1.282,3.559-1.471C41.096,14.5,44.452,14.118,47.901,14.542 M25.076,56.795
		c-0.463,0.746,1.828,4.952,2.219,5.906c0.589,1.435,1.705,2.306,2.826,3.367c0.926,0.875,7.254,6.995,8.868,7.939
		c0.073-2.757-0.718-3.878-1.073-4.674c-0.732-1.644-0.893-2.446-2-3.875C35.11,64.417,25.1,56.756,25.076,56.795 M64.791,56.878
		c-1.506,0.919-2.781,2.339-4.174,3.418c-1.644,1.274-4.395,2.843-5.33,4.756c-0.369,0.755-4.312,8.681-3.898,8.937
		c0.853,0.529,7.935-7.111,9.058-8.168c1.636-1.539,2.379-2.535,3.199-4.62c0.327-0.832,0.63-1.668,0.979-2.492
		C64.722,58.479,65.881,56.213,64.791,56.878"/>
</g>
</svg>
