<?xml version="1.0" encoding="utf-8"?>
<!-- Generator: Adobe Illustrator 16.0.0, SVG Export Plug-In . SVG Version: 6.00 Build 0)  -->
<!DOCTYPE svg PUBLIC "-//W3C//DTD SVG 1.1//EN" "http://www.w3.org/Graphics/SVG/1.1/DTD/svg11.dtd">
<svg version="1.1" id="Layer_1" xmlns="http://www.w3.org/2000/svg" xmlns:xlink="http://www.w3.org/1999/xlink" x="0px" y="0px"
	 width="90px" height="90px" viewBox="0 0 90 90" enable-background="new 0 0 90 90" xml:space="preserve">
<path d="M79.81,50.162c-0.003-0.762-0.005-1.523-0.006-2.285c-0.002-0.695-0.316-1.506-0.511-2.168
	c-0.485-1.642-1.2-3.223-2.144-4.653c-0.776-1.178-1.813-2.082-2.675-3.181c0.386-1.26,0.694-2.53,0.844-3.841
	c0.125-1.101,0.273-2.468-0.182-3.518c-0.36-0.831-1.257-1.268-2.42-1.179c-0.662,0.05-1.274,0.231-1.705,0.765
	c-0.276,0.343-0.663,1.681-0.97,0.819c-1.435-4.034-3.138-8.032-6.313-11.041c-4.378-4.151-8.77-6.165-15.33-7.031
	c-1.087-0.143-5.856-0.142-6.965,0.001c-7.671,0.996-13.317,4.083-17.372,9.496c-0.963,1.286-1.799,2.549-2.451,4.02
	c-0.917,2.068-1.555,4.247-2.471,6.312c-0.733,1.651-1.814,2.983-2.98,4.344c-1.293,1.51-2.595,2.957-3.777,4.558
	c-2.28,3.089-3.092,9.554-1.694,13.519c0.42,1.193,0.962,2.18,1.655,3.24c1.728,2.644,6.557,5.87,9.776,6.533
	c0.782,0.161,1.672-0.022,2.316-0.496c0.249-0.184,0.386-0.501,0.633-0.668c0.199-0.135,0.608,0.148,0.776,0.227l0.616,0.288
	c0.925,2.229,1.895,4.446,3.083,6.549c1,1.771,2.244,3.922,3.953,5.115c1.798,1.257,3.486,0.633,4.04-1.493l0.127-0.484
	c-0.211-0.793-0.421-1.585-0.638-2.376c-0.186-0.679-0.374-1.356-0.549-2.038c-0.033-0.126-0.382-1.091-0.278-1.193
	c0.047-0.047,2.796,1.653,3.098,1.825c4.604,2.605,6.717,2.599,11.346-0.038c0.241-0.137,3.005-1.809,3.023-1.79
	c0.122,0.123-0.292,1.276-0.333,1.432c-0.197,0.771-0.419,1.534-0.631,2.301c-0.378,1.369-0.677,2.721,0.396,3.833
	c1.148,1.191,2.814,0.798,4.414-1.04c1.264-1.452,2.323-3.12,3.222-4.818c0.602-1.138,1.167-2.295,1.691-3.471
	c0.263-0.589,0.499-1.189,0.767-1.777c0.084-0.185,0.185-0.503,0.38-0.611c0.243-0.134,1.097-0.503,1.154-0.499
	c0.034,0.002,0.161,0.142,0.284,0.311c0.752,1.037,2.208,1.224,4.035,0.52c3.189-1.227,5.923-3.063,8.122-5.678
	c1.088-1.292,1.813-2.836,2.251-4.457C79.801,52.929,79.813,51.624,79.81,50.162z M66.541,43.901c-0.901,0-1.176,0.936-1.293,1.335
	c-0.651,2.223-0.887,4.584-1.637,6.781c0.014-0.03,0.026-0.061,0.04-0.091c-0.226,0.431-0.332,1.005-0.392,1.48
	c-0.052,0.41,0.023,0.687-0.165,1.05c-0.188,0.362-0.318,0.751-0.438,1.14c-0.48,1.556-0.947,3.108-1.446,4.656
	c-0.244,0.755-0.682,1.305-0.999,2.018c-0.338,0.761-0.613,1.563-0.919,2.338c-0.52,1.319-1.237,2.609-1.911,3.856
	c0.352-1.477,0.654-2.965,1.01-4.441c0.104-0.432,0.226-0.882,0.19-1.331c-0.029-0.391-0.081-0.541,0.013-0.926
	c0.178-0.725,0.293-1.465,0.397-2.204c0.4-2.82,0.555-5.662,0.81-8.496c0.086-0.945,0.136-1.894,0.187-2.842
	c0.045-0.837,0.311-2.11-0.113-2.884c-0.264-0.48-0.814-0.618-1.325-0.644c-0.913-0.044-1.832,0.053-2.748,0.016
	c-0.879-0.036-1.764-0.124-2.618-0.334c-0.785-0.193-1.452-0.478-2.275-0.48c-0.263-0.468-0.744-0.678-1.187-0.934
	c-0.567-0.328-1.096-0.723-1.604-1.137c-0.72-0.586-2.459-2.808-3.44-1.494c-0.35,0.468-0.22,1.028,0.038,1.895
	c0.634,2.141,1.753,3.797,3.5,5.114c-1.348-0.42-2.582-1.08-3.744-1.875c-0.687-0.47-2.753-2.386-3.349-0.725
	c-0.155,0.433,0.001,0.864,0.356,1.362c-0.788-0.541-1.474-1.215-2.266-1.744c-0.626-0.417-1.008-1.427-1.433-2.068
	c-0.938-1.416-1.488-2.968-2.254-4.469c-0.313-0.613-0.952-1.174-1.664-0.756c-0.625,0.366-0.768,1.311-0.991,1.929
	c-0.307,0.849-0.669,1.676-1.097,2.471c-0.234,0.437-0.501,0.853-0.744,1.284c-0.187,0.331-0.235,0.731-0.507,0.993
	c-0.487,0.47-0.746,0.951-0.778,1.634c-0.059,1.246,0.108,2.52,0.19,3.761c0.141,2.121,0.238,4.255,0.495,6.366
	c0.255,2.103,0.34,4.258,0.852,6.322c0.1,0.402-0.008,0.65,0.003,1.067c0.017,0.678,0.258,1.349,0.41,2.004
	c0.27,1.168,0.497,2.338,0.788,3.501c-0.947-1.729-1.799-3.478-2.499-5.325c-0.425-1.123-1.073-2.069-1.478-3.207
	c-0.28-0.794-0.504-1.608-0.77-2.406c-0.348-1.045-0.491-2.177-1.052-3.143c-0.17-0.292-0.021-0.901-0.107-1.273
	c-0.117-0.503-0.306-0.99-0.436-1.491c-0.545-2.114-0.917-4.306-1.557-6.391c-0.379-1.235-1.441-1.683-2.39-0.634
	c-0.596,0.66-0.966,1.412-1.069,2.298c-0.027,0.233-0.041,0.467-0.046,0.702c-0.153,0.118-0.27,0.277-0.358,0.447
	c-0.178,0.339-0.392,0.613-0.616,0.922c-0.973,1.34-1.533,2.859-2.268,4.32c-0.607,1.216-0.625,4.147-0.03,5.317
	c0.03,0.061,0.067,0.137,0.105,0.222c-1.906-1.433-3.741-3.58-4.11-6.035c-0.134-0.889-0.114-1.816-0.106-2.712
	c0.007-0.85-0.032-1.781,0.177-2.612c0.803-3.211,2.853-5.461,5.017-7.87c1.609-1.789,2.864-3.688,3.838-5.895
	c1.305-2.96,2.013-6.075,3.987-8.715c2.261-3.022,5.139-5.343,8.628-6.776c-0.262,1.122,0.398,2.547,0.615,3.642
	c0.118,0.597,0.234,1.195,0.384,1.786c0.159,0.627,0.519,1.461,0.44,2.121c-0.634,0.529-1.583,0.818-2.303,1.228
	c-0.744,0.423-1.469,0.884-2.158,1.395c-1.335,0.991-2.505,2.175-3.498,3.508c-2.074,2.783-1.685,3.56-1.557,3.815
	c0.751,1.497,2.475-0.355,3.2-0.923c1.397-1.094,2.853-2.01,4.503-2.68c0.775-0.314,1.567-0.56,2.374-0.778
	c0.443-0.12,1.165-0.49,1.617-0.418c0.604,0.096,1.173,0.852,1.604,1.238c0.575,0.517,1.198,1.001,1.748,1.547
	c-0.588,1.184-1.475,2.247-2.152,3.381c-0.31,0.518-0.695,1.104-0.374,1.698c0.174,0.32,0.5,0.512,0.874,0.512
	c0.151-0.002,0.271-0.026,0.413-0.071c0.807-0.256,1.586-1.147,2.205-1.69c0.562-0.492,1.093-1.024,1.665-1.504
	c1.171,0.903,2.11,2.088,3.355,2.908c0.482,0.318,1.084,0.521,1.566,0.038c0.6-0.599,0.188-1.325,0.014-1.636
	c-0.707-1.249-1.604-2.383-2.313-3.629c0.945-0.907,1.942-1.952,3.024-2.691c0.329-0.224,0.973,0.063,1.304,0.151
	c0.865,0.229,1.728,0.469,2.568,0.777c1.561,0.572,2.987,1.4,4.32,2.387c0.73,0.542,2.667,2.775,3.685,1.578
	c0.315-0.372,0.242-0.827,0.219-0.977c-0.221-1.357-2.216-4.002-3.869-5.528c-1.707-1.574-3.786-2.441-5.729-3.647
	c0.013-1.239,0.569-2.586,0.809-3.806c0.13-0.656,0.284-1.307,0.441-1.957c0.135-0.561,0.354-1.235,0.214-1.816
	c4.688,1.947,8.751,5.935,10.839,10.833c0.736,1.727,1.452,3.545,2.016,5.331c0.238,0.757,0.702,1.551,1.514,1.782
	c0.891,0.253,1.813-0.383,2.508-0.86c-0.141,0.6-0.295,1.203-0.513,1.781c-0.174,0.459-0.458,0.893-0.458,1.402
	c0,0.49,0.231,0.796,0.542,1.165c0.779,0.924,1.644,1.777,2.397,2.722c1.25,1.563,2.368,3.478,2.687,5.488
	c0.245,1.549,0.083,3.236,0.083,4.805c0,0.29-0.223,0.747-0.316,1.011c-0.241,0.682-0.552,1.339-0.924,1.959
	c-0.763,1.27-1.781,2.375-2.959,3.271c0.024-0.055,0.048-0.108,0.069-0.157c0.83-1.875,0.537-4.165-0.244-6.003
	c-0.351-0.827-0.795-1.641-1.199-2.442c-0.44-0.871-0.988-1.874-1.772-2.488c-0.024-1.303-0.364-2.29-1.033-3.041
	C67.471,44.307,67.109,43.901,66.541,43.901z M66.717,49.083c-0.195,0.811-0.555,1.632-0.957,2.316
	c0.354-1.427,0.805-3.29,1.027-4.276C66.874,47.698,66.881,48.4,66.717,49.083C66.522,49.894,66.881,48.4,66.717,49.083z
	 M37.462,45.805c0.788,0.211,1.237,0.597,1.861,1.117c0.86,0.717,1.812,1.328,2.815,1.823c0.888,0.438,4.159,2.005,4.648,0.385
	c0.022-0.074,0.036-0.146,0.041-0.216c1.488,0.587,3.063,0.932,4.661,1.02c0.838,0.046,2.729,0.313,2.941-0.835
	c0.149-0.822-0.722-1.153-1.19-1.332c-1.38-0.525-2.481-1.047-3.368-1.621c0.608-0.142,1.107-0.378,1.737-0.209
	c0.688,0.186,1.359,0.419,2.064,0.547c1.469,0.265,2.977,0.165,4.461,0.207c-0.03,2.476-0.305,4.973-0.514,7.439
	c-0.14,1.65-0.311,3.298-0.523,4.94c-0.083,0.635-0.064,1.995-0.497,2.537c-0.69,0.874-1.953,1.604-2.835,2.25
	c-1.223,0.898-2.484,1.747-3.789,2.524c-0.998,0.594-2.021,1.155-3.09,1.612c-0.616,0.263-1.36,0.604-2.049,0.564
	c-0.738-0.043-1.487-0.407-2.148-0.707c-1.125-0.51-2.208-1.114-3.264-1.753c-1.266-0.767-2.494-1.598-3.677-2.489
	c-0.582-0.439-1.147-0.899-1.715-1.356c-0.44-0.355-0.783-0.567-0.921-1.129c-0.713-2.894-0.816-6.07-1.02-9.03
	c-0.151-2.239-0.446-4.476-0.399-6.726c0.577-0.353,1.471-0.263,2.108-0.221C35.039,45.229,36.266,45.484,37.462,45.805
	C38.271,46.022,35.827,45.367,37.462,45.805z M33.226,42.851c0.484-0.839,0.845-1.588,1.242-2.596
	c0.418,0.965,0.889,1.856,1.465,2.767C35.036,42.922,34.128,42.847,33.226,42.851z M48.409,44.416
	c-0.096,0.105-0.168,0.208-0.22,0.307c-0.249-0.285-0.472-0.586-0.669-0.908C47.787,44.004,48.079,44.201,48.409,44.416
	C48.313,44.521,48.079,44.201,48.409,44.416z M24.102,51.425c-0.818-1.385-1.189-3.14-1.028-4.339
	C23.399,48.536,23.729,49.986,24.102,51.425C23.283,50.04,24.008,51.064,24.102,51.425z M22.736,52.861
	c-0.015-0.009-0.03-0.019-0.044-0.028c-0.004-0.015-0.006-0.033-0.009-0.049C22.701,52.81,22.72,52.836,22.736,52.861
	C22.722,52.852,22.72,52.836,22.736,52.861z M45.877,34.356c-0.595-0.393-1.278-0.406-1.872-0.001
	c0.129-0.278,0.193-0.525,0.195-0.792c0.007-1.117-1.305-1.876-2.048-2.538c-0.928-0.827-1.912-2.032-3.262-2.032
	c-0.557,0-1.061,0.22-1.587,0.367c-0.756,0.212-1.513,0.408-2.252,0.675c-1.404,0.506-2.77,1.159-4.02,1.977
	c1.024-1.192,2.236-2.191,3.568-3.021c0.809-0.503,1.651-0.939,2.504-1.364c0.671-0.335,1.315-0.742,1.479-1.529
	c0.271-1.302-0.446-2.837-0.704-4.097c0.491,0.756,0.924,1.618,1.521,2.295c0.113,0.13,0.243,0.25,0.396,0.334
	c0.036,0.211,0.136,0.408,0.255,0.584c0.246,0.361,0.477,0.717,0.71,1.086c0.426,0.678,0.918,1.314,1.316,2.01
	c0.426,0.746,1.056,1.419,1.404,2.205c0.608,1.367,2.457,1.343,2.962-0.088c0.258-0.685,0.863-1.28,1.247-1.898
	c0.39-0.626,0.717-1.351,1.204-1.91c0.278-0.32,0.424-0.71,0.66-1.055c0.197-0.288,0.4-0.858,0.651-1.039
	c0.797-0.571,1.284-1.731,1.797-2.539c-0.081,0.415-0.19,0.914-0.264,1.208c-0.664,2.646-0.863,3.444,0.867,4.316
	c2.35,1.184,4.57,2.535,6.281,4.565c-2.201-1.47-4.736-2.438-7.328-2.958c-1.225-0.247-1.978,0.234-2.867,1.027
	c-0.784,0.698-1.586,1.372-2.34,2.102C45.541,33.026,45.492,33.575,45.877,34.356C45.576,34.157,45.492,33.575,45.877,34.356z
	 M41.577,24.481c0.126-0.128,0.256-0.254,0.385-0.38h5.951c0.127,0.126,0.256,0.25,0.381,0.377
	c-0.599,0.794-1.149,1.707-1.677,2.552c-0.544,0.872-1.254,1.759-1.677,2.695c-0.466-0.941-1.137-1.847-1.71-2.73
	C42.694,26.167,42.176,25.265,41.577,24.481C41.609,24.448,41.742,24.697,41.577,24.481z M51.905,18.777
	c-0.865,1.249-1.634,2.56-2.474,3.825c-0.306-0.174-0.603-0.364-0.903-0.549c-1.335-0.001-2.672-0.003-4.007-0.004
	c-1.215-0.001-3.001-0.353-3.986,0.534c-0.016,0.011-0.042,0.027-0.069,0.043c-0.387-0.596-0.764-1.199-1.15-1.794
	c-0.677-1.042-1.328-2.563-2.368-3.285c5.116-1.71,10.882-1.591,16.013-0.016C52.64,17.754,52.33,18.166,51.905,18.777
	C51.446,19.439,52.33,18.166,51.905,18.777z M25.859,61.217c-0.599-0.422-1.264-0.683-1.829-1.17
	c-0.707-0.609-1.311-1.358-1.733-2.192c-0.355-0.702-0.543-0.655-0.759,0.192c-0.254,0.985,0.145,2.732,0.82,3.599
	c0.672,0.862,0.146,0.978-1.24,0.418c0.175-0.104,0.314-0.261,0.396-0.458c0.345-0.838-0.561-1.49-1.055-2.018
	c-0.504-0.54-0.68-1.235-1.009-1.883c-0.338-0.666-0.315-2.957,0.036-3.659c0.659-1.315,1.156-2.686,2.001-3.91
	c0.007,0.026,0.013,0.053,0.021,0.079c-0.017,0.066-0.028,0.134-0.032,0.206c-0.02,0.522,0.514,1.417,0.679,1.616
	c0.048,0.058,0.099,0.107,0.148,0.148c0.035,0.304,0.212,0.588,0.391,0.83c0.236,0.321,0.518,0.665,0.795,0.951
	c0.443,0.458,0.947,0.782,1.481,1.114c0.185,0.144,0.275,0.469,0.352,0.673c0.239,0.653,0.378,1.336,0.577,2.001
	c0.411,1.378,0.776,2.902,1.43,4.188C26.848,61.708,26.299,61.526,25.859,61.217C25.755,61.144,25.965,61.291,25.859,61.217z
	 M67.661,61.409c0.516-0.724,0.727-1.707,0.755-2.582c0.007-0.24-0.205-2.024-0.683-1.267c-0.672,1.064-1.25,2.028-2.282,2.801
	c-0.88,0.659-1.921,1.1-2.905,1.573c0.596-1.187,0.899-2.568,1.295-3.833c0.241-0.767,0.43-1.552,0.691-2.312
	c0.082-0.242,0.171-0.585,0.406-0.731c0.173-0.107,0.327-0.23,0.51-0.318c0.68-0.331,1.594-1.368,1.957-2.075
	c0.057-0.11,0.159-0.309,0.17-0.551c0.109-0.07,0.219-0.171,0.317-0.318c0.393-0.584,0.33-1.119,0.51-1.737
	c0.002-0.002,0.005-0.003,0.006-0.004c0.346,0.565,0.585,1.142,0.859,1.737c0.286,0.621,0.686,1.168,0.93,1.814
	c0.496,1.31,0.744,2.963,0.158,4.288c-0.311,0.701-0.573,1.323-1.093,1.899c-0.447,0.498-1.183,0.882-0.938,1.677
	c0.067,0.221,0.226,0.45,0.485,0.593C67.237,62.735,66.874,62.518,67.661,61.409C68.439,60.316,66.874,62.518,67.661,61.409z"/>
</svg>
