<?xml version="1.0" encoding="utf-8"?>
<!-- Generator: Adobe Illustrator 16.0.0, SVG Export Plug-In . SVG Version: 6.00 Build 0)  -->
<!DOCTYPE svg PUBLIC "-//W3C//DTD SVG 1.1//EN" "http://www.w3.org/Graphics/SVG/1.1/DTD/svg11.dtd">
<svg version="1.1" id="Layer_1" xmlns="http://www.w3.org/2000/svg" xmlns:xlink="http://www.w3.org/1999/xlink" x="0px" y="0px"
	 width="90px" height="90px" viewBox="0 0 90 90" enable-background="new 0 0 90 90" xml:space="preserve">
<path d="M67.363,29.418c-3.077-1.741-6.57-2.628-10.099-2.701c-1.893-0.039-3.784,0.133-5.65,0.438
	c-1.036,0.17-0.877-0.719-1.164-1.59c-0.314-0.952-0.706-1.881-1.181-2.766c-2.433-4.541-9.542-9.568-14.308-4.991l-0.508-0.089
	c-3.571-0.621-7.071,0.918-9.323,3.696c-1.186,1.463-2.011,3.196-2.492,5.013c-0.109,0.414-0.143,1.572-0.632,1.777
	c-1.06,0.443-2.022,0.827-2.935,1.559c-1.642,1.316-2.51,2.955-2.561,5.062c-0.026,1.124,0.124,2.259,0.434,3.34
	c0.372,1.303,0.237,1.032-1.018,1.494c-3.479,1.28-5.771,4.116-5.92,7.866c-0.078,1.992,0.41,3.97,1.385,5.708
	c0.508,0.905,1.139,1.74,1.861,2.485c0.715,0.738,1.123,0.821,0.63,1.787c-1.953,3.828-1.272,7.972,2.535,10.192
	c1.757,1.023,3.776,1.573,5.791,1.771c0.768,0.076,1.863-0.142,2.577,0.17c0.88,0.383,1.677,1.027,2.553,1.445
	c3.576,1.709,7.618,2.417,11.566,2.306c4.626-0.131,9.517-1.393,13.122-4.418l0.389-0.326l1.131,0.192
	c10.675,1.816,21.296-5.283,23.895-15.704C79.74,43.923,75.638,34.1,67.363,29.418z M48.554,63.76
	c-3.115-1.643-5.7-4.252-7.598-7.196c-0.968-1.503-1.768-3.119-2.342-4.813c-0.593-1.747-0.974-3.029-2.393-4.29
	c-5.376-4.776-15.175-4.452-18.242,2.838c0.167-2.035,0.827-4.004,1.857-5.764c1.161-1.986,2.818-3.393,4.316-5.089
	c0.913-1.035,1.064-2.147,1.025-3.492c-0.062-2.115-0.123-4.179,0.073-6.29c0.427-2.893,1.512-6.125,4.115-7.767
	c1.034-0.651,2.237-0.966,3.455-0.966c1.424,0,3.193,0.985,4.213-0.397c2.25-3.284,7.236,0.907,8.655,2.95
	c1.18,1.698,1.951,3.713,2.099,5.781c0.121,1.698,0.951,2.026,2.474,1.624c8.458-2.239,17.448,0.349,21.953,8.198
	c3.943,6.871,2.881,15.717-2.664,21.396c-4.808,4.926-12.84,7.063-19.254,4.143C49.707,64.357,49.128,64.063,48.554,63.76
	C43.81,61.259,50.521,64.797,48.554,63.76z M19.957,50.351c1.675-3.143,5.483-4.651,8.922-4.308c2.97,0.297,6.829,2.109,7.691,5.189
	c1.877,6.703,6.758,11.973,12.825,15.188c-5.849,4.514-14.028,4.275-20.574,1.531c-3.26-1.367-6.125-3.256-7.876-6.409
	C19.112,58.243,18.118,53.863,19.957,50.351C19.979,50.309,18.504,53.127,19.957,50.351z M23.391,30.29
	c-0.174,2.132,0.036,4.229,0,6.357c-0.029,1.77-1.884,2.817-2.953,4.024c-0.84-2.111-2.146-4.073-1.612-6.462
	C19.316,32.011,21.358,30.832,23.391,30.29C23.346,30.848,18.633,31.561,23.391,30.29z M12.354,46.635
	c0.724-3.833,4.344-4.87,7.681-5.495c-3.425,4.104-4.8,9.499-3.248,14.676C13.941,53.591,11.638,50.435,12.354,46.635
	C12.895,43.771,11.738,49.897,12.354,46.635z M16.755,57.247c0.151-0.211,0.267-0.374,0.347-0.509
	c0.861,1.996,1.358,4.157,2.502,6.081c1.06,1.782,2.484,3.297,4.178,4.491l-0.223-0.009C15.773,67.007,12.85,62.685,16.755,57.247
	C16.906,57.036,12.85,62.685,16.755,57.247z"/>
</svg>
