<?xml version="1.0" encoding="utf-8"?>
<!-- Generator: Adobe Illustrator 16.0.0, SVG Export Plug-In . SVG Version: 6.00 Build 0)  -->
<!DOCTYPE svg PUBLIC "-//W3C//DTD SVG 1.1//EN" "http://www.w3.org/Graphics/SVG/1.1/DTD/svg11.dtd">
<svg version="1.1" id="Layer_1" xmlns="http://www.w3.org/2000/svg" xmlns:xlink="http://www.w3.org/1999/xlink" x="0px" y="0px"
	 width="90px" height="90px" viewBox="0 0 90 90" enable-background="new 0 0 90 90" xml:space="preserve">
<path fill="#080608" d="M69.635,21.482c-2.315,2.052-4.634,4.099-6.946,6.153c-2.428,2.158-4.853,4.321-7.296,6.46
	c-1.29,1.13-2.53,2.333-3.867,3.405c-0.62,0.498-0.562-0.102-0.691-0.648c-0.803-3.387-1.628-6.769-2.429-10.157
	c-0.416-1.758-1.728-4.837-4.106-2.685c-0.829,0.749-0.97,2.69-1.218,3.674c-0.546,2.162-1.076,4.328-1.618,6.49
	c-0.266,1.06-0.37,2.646-0.922,3.606c0.227-0.4-13.107-11.582-14.835-13.128c-1.492-1.335-4.854-5.532-7.048-5.169
	c-4.031,0.666-0.7,6.373,0.043,8.316c1.649,4.312,3.295,8.625,4.948,12.937c0.055,0.145,0.908,1.986,0.718,2.091
	c-2.029,1.122-4.195,1.247-6.109,2.83c-2.998,2.479-4.782,6.495-3.355,10.304c0.693,1.85,2.04,3.467,3.76,4.445
	c1.843,1.047,3.14,0.622,5.065,0.622c-0.246,0,0.857,4.837,1.015,5.266c0.741,2.012,1.893,3.858,3.328,5.448
	c3.039,3.366,7.246,5.549,11.636,6.552c9.509,2.173,21.442-1.125,26.023-10.375c1.975-3.988,2.193-8.672,0.443-12.78
	c-0.757-1.776-1.383-2.481-1.383-4.403c0-1.407,0.171-2.251,0.668-3.558c1.853-4.866,3.672-9.745,5.515-14.615
	c0.828-2.186,1.655-4.372,2.48-6.559c0.48-1.272,1.571-3.065,1.461-4.447C74.607,17.751,70.954,20.313,69.635,21.482z
	 M23.339,57.123c-2.887,2.426-6.064-2.069-5.604-4.781c0.443-2.612,2.762-4.519,5.066-5.519c0.661-0.287,2.842-1.285,3.537-0.946
	c0.551-0.071,1.023,2.07,1.205,2.528c0.824,2.092,0.128,5.761,0.147,8.045C27.021,54.087,24.202,56.398,23.339,57.123z M27.583,40.5
	c4.825,9.191,9.913,18.899,14.75,28.083c-3.067-2.998-6.742-6.067-9.792-9.083c-0.619-0.613-2.402-2.108-2.41-3.094
	c-0.018-2.047-0.028-4.095-0.056-6.142C30.031,46.938,28.76,43.583,27.583,40.5z M44.648,75.417
	c-5.171-0.157-10.293-2.041-13.92-5.824c-3.434-3.582-4.063-7.657-3.03-12.32c0.386,1.436,3.822,4.231,5.221,5.611
	c2.514,2.48,5.038,4.951,7.563,7.42c1.145,1.118,3.756,5.023,5.8,4.346c0.977-0.324,1.818-1.469,2.544-2.183
	c1.432-1.408,2.854-2.824,4.279-4.239c2.12-2.104,4.241-4.208,6.364-6.309c1.274-1.262,3.018-2.516,3.951-4.056
	C66.754,68.907,53.832,75.696,44.648,75.417z M61.115,52.492c0.093,2.355,0.597,3.75-1.134,5.484
	c-3.363,3.371-6.767,6.701-10.145,10.058c4.476-8.568,8.967-17.128,13.46-25.687c-0.721,1.905-1.442,3.811-2.163,5.716
	C61.114,49.537,61.058,51.019,61.115,52.492z M45.81,70.167c-0.452-0.868-1.352-2.336-1.58-2.986c-1.297-3.32-3.406-6.5-5.063-9.652
	c-1.864-3.546-3.727-7.092-5.586-10.641c-4.005-7.644-7.918-15.348-12.031-22.934c6.135,5.45,12.68,11.297,18.76,16.809
	c1.594,1.446,1.619,0.24,2.012-1.354c0.434-1.758,0.755-3.583,1.288-5.313c0.519-1.675,0.872-3.422,1.274-5.129
	c0.316-1.339,0.754-3.936,1.394-1.295c0.788,3.252,1.366,6.6,2.327,9.804c0.231,0.78,0.338,3.655,1.174,4.016
	c0.879,0.379,3.111-2.376,3.769-2.961c5.325-4.747,10.644-9.514,16.035-14.184C62.242,39.885,53.739,54.918,45.81,70.167z"/>
</svg>
