<?xml version="1.0" encoding="utf-8"?>
<!-- Generator: Adobe Illustrator 16.0.0, SVG Export Plug-In . SVG Version: 6.00 Build 0)  -->
<!DOCTYPE svg PUBLIC "-//W3C//DTD SVG 1.1//EN" "http://www.w3.org/Graphics/SVG/1.1/DTD/svg11.dtd">
<svg version="1.1" id="Layer_1" xmlns="http://www.w3.org/2000/svg" xmlns:xlink="http://www.w3.org/1999/xlink" x="0px" y="0px"
	 width="90px" height="90px" viewBox="0 0 90 90" enable-background="new 0 0 90 90" xml:space="preserve">
<path d="M73.2,37.895c0.842-1.376,0.373-2.782-0.306-4.114c-0.667-1.31-1.422-2.581-2.35-3.724c5.522-2.846-4.5-7.669-6.437-8.549
	c5.088-3.967-6.755-6.956-8.833-7.314c-1.624-0.28-3.272-0.414-4.919-0.418c-0.659-0.002-1.317,0.017-1.976,0.055
	c-1.559,0.09-0.723,0-1.222-1.048c-0.82-1.721-3.363-1.537-4.914-1.311c-2.538,0.37-4.986,1.342-6.975,2.979
	c-1.139,0.938-2.135,2.044-2.977,3.254c-0.831,1.192-2.883,0.391-4.362,0.53c-2.875,0.271-5.777,1.432-8.152,3.072
	c-1.886,1.302-3.259,4.811,0.013,5.496c-1.204,1.874-8.5,15.49-1.561,14.334c0.061,2.778,0.559,6.087,1.617,8.664
	c0.633,1.537,1.45,2.995,2.398,4.359c0.914,1.321,2.277,2.157,3.192,3.404c1.887,2.577,3.079,5.482,5.189,8.01
	c2.083,2.493,4.33,5.117,7.292,6.587c6.794,3.369,12.874-0.956,17.147-6.026c0.01,1.766-0.613,4.146,0.535,5.691
	c1.392,1.872,4.196-0.408,5.55-1.331c0.509,1.839,1.695,5.043,4.178,3.059c0.392-0.335,0.754-0.7,1.087-1.094
	c0.824,0.463,1.752,0.288,2.6,0.029c1.113-0.341,2.61-0.539,3.48-1.379c2.078-2.001-1.26-6.568-2.174-8.496
	c-1.677-3.54-3.366-7.074-5.064-10.604c3.377,1.219,4.733-2.27,3.104-4.823c4.105,0.339,3.221-5.878,2.316-8.219
	C71.763,39.086,72.998,38.222,73.2,37.895z M52.741,65.295c-2.643,3.023-5.472,5.703-9.736,5.659
	c-3.917-0.041-6.553-2.386-9.108-5.085c-1.223-1.291-2.417-2.624-3.424-4.094c-0.497-0.725-0.947-1.482-1.313-2.281
	c-0.591-1.286,0.495-0.934,0.971-2.065c0.537-1.277,0.179-2.749,0.037-4.063c-0.249-2.288-0.285-4.592-0.5-6.882
	c1.185,0.218,1.65,0.046,1.882,1.18c0.213,1.045,1.023,1.707,1.965,2.091c1.66,0.676,3.674,1.64,5.489,1.652
	c0.807,0.006,1.511-0.642,2.261-0.553c0.875,0.103,1.55,0.702,2.473,0.506c0.454-0.101,0.844-0.323,1.169-0.667
	c0.401,0.382,0.877,0.623,1.428,0.724c1.186,0.232,2.395-0.183,3.494-0.585c1.119-0.41,1.295-0.899,2.366-0.183
	c1.036,0.694,2.028,1.462,3.141,2.034c1.552,0.799,0.241,2.834,1.321,4.331c0.36,0.498,1.211,0.579,1.04,1.21
	c-0.161,0.592-0.493,1.123-0.764,1.67C56.28,61.207,54.203,63.688,52.741,65.295z M28.672,44.234
	c0.212-0.635,0.436-1.169,0.705-1.778c0.845,0.954,1.767,1.839,2.727,2.677C31.212,44.946,29.314,44.849,28.672,44.234z
	 M65.316,56.875c1.114,1.446,1.709,3.59,2.493,5.229c0.934,1.956,1.888,3.884,2.89,5.802c0.925,1.77,0.023,2.117-1.638,2.559
	c-0.376,0.1-1.321,0.438-1.703,0.172c-0.631-0.44-0.975-1.022-1.742-0.34c-0.499,0.443-1.51,2.587-2.014,1.239
	c-0.417-1.114-0.478-2.466-1.073-3.502c-0.563-0.979-2.479,0.984-3.017,1.215c-0.471,0.202-1.05-0.532-1.346-0.162
	c-0.167,0.212-0.579,1.44-0.908,1.455c-0.188,0.008-0.154-5.03-0.154-5.492c0-2.265,0.847-3.008,1.828-4.943
	c0.268-0.529,0.496-1.085,0.624-1.666c0.165-0.755,0.626-0.708,1.168-1.253c1.124-1.129,2.132-2.34,2.985-3.688
	C64.247,54.617,64.553,55.876,65.316,56.875z M65.864,34.355c-1.282-0.403-0.478,0.791-0.059,1.234
	c1.163,1.231,2.02,2.684,2.628,4.269c0.292,0.759,1.524,6.1-0.667,4.556c-1.974-1.391-4.154-3.799-6.524-4.414
	c0.483,0,2.162,4.096,2.477,4.629c0.438,0.742,3.666,4.367,3.293,5.112c-0.708,1.06-5.436-3.864-5.947-1.834
	c-0.071,0.285-2.1,7.91-2.408,7.693c-0.915-0.641,0.037-3.658,0.099-4.576c0.097-1.444,0.325-2.922,0.327-4.369
	c0.002-1.377-1.474-1.774-2.408-2.449c-0.773-0.561-2.094-2.031-3.03-2.196c-0.457-0.08,1.202,3.286,1.346,3.619
	c0.094,0.219,2.579,4.959,2.206,5.165c-0.776,0.428-4.069-2.674-5.04-2.935c-1.181-0.317-2.088,0.317-3.143,0.723
	c-0.23,0.088-2.553,0.462-2.391,0.289c0.84-0.896,2.718-0.746,3.665-1.582c0.802-0.709-2.366-2.219-2.8-2.542
	c-2.418-1.8-4.666-3.832-6.995-5.743c-2.71-2.224-0.249,2.128,0.19,3.105c0.651,1.449,1.322,3.028,1.822,4.533
	c0.377,1.134,1.28,2.979-0.574,1.842c-2.752-1.689-5.76-3.089-8.25-5.17c-1.105-0.924-2.291-1.975-3.019-3.233
	c-0.332-0.573-1.176-2.686-2.005-1.71c-1.014,1.193-3.794,6.908-1.938,7.463c1.116,0.334,0.655,3.835,0.708,4.703
	c0.037,0.609,0.402,5.876,0.358,5.855c-1.445-0.68-1.205-7.766-2.51-7.889c-0.35-0.033-0.471,0.918-0.789,1.017
	c-0.412,0.127-1.18-1.147-1.313-1.33c-0.968-1.328-1.758-2.888-2.185-4.479c-0.458-1.705-0.457-3.513-0.052-5.227
	c0.125-0.527,1.839-4.992,1.782-4.994c-2.63-0.083-2.95,4.768-4.898,5.255c-0.798,0.2,1.788-6.708,1.957-7.057
	c0.8-1.653,1.694-3.274,2.852-4.708c0.265-0.328,3.19-3.021,2.924-3.245c-1.32-1.106-3.916,1.268-5.317,0.68
	c-0.289-0.113,3.158-2.382,3.348-2.479c2.876-1.46,5.427-1.261,8.477-0.861c1.255,0.165,1.543-0.688,2.032-1.648
	c0.614-1.206,1.719-2.291,2.747-3.148c1.079-0.9,2.342-1.588,3.674-2.033c0.705-0.235,3.884-1.155,4.449-0.348
	c-0.137-0.196-5.132,3.859-4.284,4.063c0.947,0.227,2.781-0.972,3.729-1.197c1.896-0.45,3.858-0.584,5.803-0.566
	c3.592,0.035,7.174,0.706,10.497,2.084c4.085,1.707-0.228,1.605-2.167,1.85c-1.762,0.222-4.922,0.643-1.31,1.561
	c3.259,0.828,6.464,2.054,9.375,3.763c0.9,0.529,4.785,2.947,1.487,2.558c-0.804-0.095-1.728-0.382-2.539-0.218
	c-1.02,0.206,1.187,1.728,1.444,1.98c1.021,1.005,4.927,4.889,4.256,6.642C71.027,37.054,66.516,34.56,65.864,34.355z"/>
</svg>
