<?xml version="1.0" encoding="utf-8"?>
<!-- Generator: Adobe Illustrator 16.0.0, SVG Export Plug-In . SVG Version: 6.00 Build 0)  -->
<!DOCTYPE svg PUBLIC "-//W3C//DTD SVG 1.1//EN" "http://www.w3.org/Graphics/SVG/1.1/DTD/svg11.dtd">
<svg version="1.1" id="Layer_1" xmlns="http://www.w3.org/2000/svg" xmlns:xlink="http://www.w3.org/1999/xlink" x="0px" y="0px"
	 width="90px" height="90px" viewBox="0 0 90 90" enable-background="new 0 0 90 90" xml:space="preserve">
<g>
	<g id="svgg_3_">
		<path id="path0_1_" d="M42.054,15.118c-2.499,0.313-5.235,1.575-7.068,3.259l-0.535,0.492l-0.825-0.177
			c-7.303-1.563-13.938,4.617-13.639,12.706l0.048,1.295l-0.417,0.137c-8.57,2.811-10.392,16.089-2.98,21.725
			c0.976,0.742,0.937,0.703,0.883,0.871c-0.065,0.204-0.067,1.937-0.003,2.521c0.42,3.854,3.032,6.808,6.825,7.718
			c0.673,0.162,0.745,0.197,0.787,0.389c1.12,5.1,7.918,7.852,19.392,7.849c11.706-0.002,18.789-2.761,20.048-7.809l0.142-0.571
			l0.645-0.261c3.655-1.479,5.606-4.558,5.582-8.811l-0.007-1.253l0.575-0.423c7.263-5.345,6.307-17.698-1.665-21.512
			c-0.44-0.21-0.95-0.427-1.133-0.482l-0.333-0.1l0.043-1.33c0.259-8.002-6.25-14.125-13.496-12.697
			c-1.352,0.266-1.229,0.281-1.743-0.209C50.453,15.851,46.246,14.592,42.054,15.118 M46.801,17.449
			c2.17,0.551,3.905,1.56,5.483,3.188c0.851,0.878,0.818,0.865,1.508,0.584c4.762-1.935,10.314,0.938,11.992,6.203
			c0.547,1.718,0.663,4.247,0.265,5.825c-0.228,0.903-0.221,1.041,0.052,1.1c2.457,0.533,3.757,1.19,5.19,2.625
			c4.845,4.852,3.661,13.783-2.224,16.776c-0.55,0.28-0.587,0.378-0.411,1.083c0.193,0.773,0.194,2.89,0,3.66
			c-0.655,2.613-2.491,4.438-5.126,5.099c-0.845,0.212-0.905,0.266-0.964,0.854c-0.304,3.066-2.625,4.914-7.82,6.224
			c-4.421,1.114-12.396,1.346-17.585,0.51c-6.242-1.005-9.739-3.212-9.898-6.246c-0.056-1.068-0.064-1.076-1.116-1.128
			c-2.787-0.138-5.182-1.896-6.195-4.548c-0.306-0.801-0.426-3.155-0.226-4.452c0.105-0.681,0.019-0.98-0.283-0.98
			c-0.19,0-1.552-0.966-2.153-1.527c-2.484-2.32-3.879-6.879-3.034-9.913c0.092-0.33,0.192-0.743,0.224-0.917
			c0.506-2.862,3.529-5.993,6.61-6.845c0.502-0.139,0.999-0.276,1.104-0.305c0.356-0.099,0.372-0.244,0.125-1.223
			c-0.312-1.242-0.335-3.214-0.051-4.351c0.099-0.396,0.199-0.81,0.221-0.92c0.148-0.721,0.937-2.395,1.508-3.198
			c2.417-3.401,6.439-4.807,10.179-3.556c0.449,0.15,0.853,0.273,0.897,0.273c0.044,0,0.397-0.328,0.784-0.729
			c1.647-1.705,3.801-2.876,6.079-3.306C42.994,17.11,45.779,17.189,46.801,17.449"/>
		<g>
			<path d="M51.833,32.556c0.208,0,0.246,0.241,0.377,0.892c0.336,1.674,1.591,3.516,3.264,4.787
				c0.743,0.564,0.973,1.077,0.656,1.458c-0.055,0.065-0.152,0.096-0.281,0.096c-0.577,0-1.787-0.608-2.625-1.378
				c-0.224-0.206-0.363-0.324-0.471-0.324c-0.156,0-0.247,0.243-0.435,0.816c-0.305,0.934-0.844,1.641-1.252,1.641
				c-0.299,0-1.222-0.871-1.807-1.704c-0.272-0.389-0.427-0.582-0.587-0.582c-0.158,0-0.321,0.189-0.608,0.566
				c-0.811,1.065-1.921,2.069-2.47,2.232c-0.024,0.007-0.048,0.011-0.074,0.011c-0.379,0-0.886-0.797-1.235-1.963
				c-0.158-0.529-0.256-0.786-0.405-0.786c-0.137,0-0.317,0.219-0.625,0.646c-0.811,1.12-1.923,2.108-2.352,2.108
				c-0.023,0-0.045-0.003-0.064-0.009c-0.458-0.146-1.322-1.289-1.646-2.178c-0.175-0.479-0.306-0.709-0.485-0.709
				c-0.151,0-0.336,0.165-0.61,0.482c-0.863,1-2.008,1.658-2.734,1.658c-0.215,0-0.395-0.058-0.518-0.181
				c-0.702-0.703-0.779-1.388-0.208-1.864c1.952-1.624,3.325-3.786,3.325-5.232c0-0.096,0.072-0.247,0.16-0.334
				c0.078-0.078,0.118-0.118,0.188-0.118c0.073,0,0.178,0.042,0.392,0.128c1.746,0.705,1.854,0.731,6.097,0.731
				c0.118,0,0.24,0,0.364,0l3.96,0l0.761-0.202c0.418-0.111,1.009-0.314,1.311-0.451C51.512,32.648,51.705,32.556,51.833,32.556
				 M51.833,31.156c-0.423,0-0.762,0.154-1.154,0.333l-0.064,0.029c-0.21,0.095-0.721,0.274-1.091,0.373l-0.585,0.155l-3.778,0
				h-0.363c-4.015,0-4.015,0-5.573-0.629c-0.307-0.124-0.571-0.23-0.916-0.23c-0.65,0-1.034,0.383-1.179,0.528
				c-0.275,0.275-0.569,0.768-0.569,1.324c0,0.889-1.055,2.687-2.82,4.156c-0.539,0.448-0.852,1.056-0.881,1.712
				c-0.024,0.533,0.128,1.351,0.995,2.217c0.271,0.271,0.751,0.592,1.508,0.592c0.919,0,2.026-0.51,3.001-1.35
				c0.482,0.825,1.227,1.77,2.051,2.031c0.156,0.05,0.32,0.075,0.488,0.075c0.897,0,1.88-0.838,2.582-1.591
				c0.453,0.875,1.107,1.586,2.036,1.586c0.161,0,0.32-0.023,0.474-0.069c0.88-0.263,1.923-1.249,2.649-2.076
				c0.213,0.248,0.441,0.488,0.667,0.701c0.685,0.646,1.21,0.921,1.757,0.921c1.102,0,1.813-0.938,2.216-1.725
				c0.837,0.548,1.806,0.97,2.566,0.97c0.747,0,1.171-0.377,1.358-0.602c0.35-0.422,0.509-0.95,0.448-1.487
				c-0.082-0.711-0.518-1.359-1.334-1.979c-1.396-1.061-2.47-2.611-2.739-3.948l-0.016-0.081c-0.072-0.359-0.124-0.619-0.22-0.863
				C53.036,31.438,52.361,31.156,51.833,31.156L51.833,31.156z"/>
		</g>
		<g>
			<path fill="none" stroke="#000000" stroke-width="2.6" stroke-miterlimit="10" d="M71.093,37.324
				c-1.378-1.417-2.899-2.204-4.916-2.546c-0.779-0.132-0.848-0.256-0.629-1.134c1.237-4.956-0.841-9.83-5.056-11.857
				c-1.927-0.927-4.638-1.008-6.57-0.197c-0.881,0.37-0.957,0.35-1.683-0.449c-2.575-2.836-6.453-4.124-10.314-3.427
				c-2.338,0.422-4.383,1.606-6.232,3.61c-0.461,0.5-0.466,0.5-1.556,0.128c-4.458-1.522-10.126,1.895-11.099,6.693
				c-0.058,0.286-0.148,0.628-0.201,0.76c-0.239,0.601-0.196,2.958,0.074,4.042c0.393,1.573,0.322,1.833-0.529,1.953
				c-2.358,0.33-4.904,2.012-6.123,4.045c-0.462,0.771-1.177,2.27-1.177,2.469c0,0.06-0.094,0.492-0.209,0.959
				c-0.294,1.198-0.319,3.369-0.049,4.172C14.92,46.83,15,47.142,15,47.238s0.108,0.465,0.239,0.82
				c0.862,2.337,2.442,4.204,4.389,5.185c0.835,0.42,0.916,0.613,0.694,1.66c-0.134,0.636-0.164,2.945-0.043,3.4
				c0.639,2.411,1.983,3.829,4.402,4.643c0.374,0.126,0.95,0.269,1.28,0.317c0.33,0.048,0.924,0.143,1.32,0.211
				c0.853,0.146,1.477,0.051,2.427-0.365c0.781-0.343,0.81-0.33,1.124,0.514c0.858,2.31,3.282,3.504,7.129,3.515
				c2.896,0.008,4.377-0.418,5.735-1.648c0.528-0.479,0.451-0.488,1.185,0.136c1.357,1.154,2.638,1.501,5.56,1.509
				c3.875,0.011,6.294-1.209,7.199-3.628c0.25-0.67,0.35-0.707,1.056-0.397c1.117,0.49,2.905,0.706,3.564,0.431
				c0.162-0.068,0.547-0.18,0.857-0.25c3.95-0.891,5.963-4.144,5.152-8.322c-0.209-1.076-0.189-1.127,0.581-1.538
				C74.555,50.394,75.714,42.071,71.093,37.324z M55.681,55.825c-0.176,0.057-0.589,0.225-0.918,0.375
				c-0.33,0.149-0.887,0.356-1.24,0.46c-0.354,0.104-0.912,0.281-1.242,0.395c-0.551,0.189-1.051,0.309-2.72,0.651
				c-2.479,0.507-7.611,0.423-9.68-0.158c-0.242-0.068-0.833-0.197-1.312-0.287c-1.319-0.247-4.333-1.418-5.648-2.195
				c-0.242-0.143-0.692-0.409-1-0.59c-1.499-0.883-2.387-1.729-3.071-2.929c-0.491-0.86-0.494-0.917-0.096-1.709
				c0.569-1.132,0.972-2.162,1.092-2.789c0.065-0.34,0.172-0.798,0.237-1.017c0.188-0.635,0.164-3.113-0.04-3.978
				c-0.514-2.185-0.542-2.024,0.364-2.161c1.544-0.233,2.75-0.77,3.557-1.583c0.287-0.29,0.771-0.743,1.074-1.006
				c1.324-1.151,2.188-2.649,2.486-4.313c0.184-1.025,0.387-1.114,1.477-0.648c1.505,0.644,1.464,0.64,6.04,0.64
				c4.583,0,4.573,0.001,5.994-0.612c1.19-0.514,1.347-0.432,1.584,0.828c0.339,1.8,1.378,3.32,3.269,4.782
				c0.333,0.258,0.667,0.561,0.74,0.673c0.313,0.477,1.273,0.859,2.957,1.175c0.267,0.05,0.554,0.166,0.678,0.272
				c0.242,0.208,0.25,0.116-0.15,1.722c-0.234,0.937-0.303,3.346-0.12,4.187c0.068,0.315,0.158,0.79,0.199,1.055
				c0.053,0.342,0.274,0.891,0.762,1.887c0.865,1.769,0.863,1.724,0.096,2.901C60.145,53.242,57.405,55.269,55.681,55.825z
				 M51.995,21.15c-0.023-0.026-0.048-0.052-0.072-0.079C51.947,21.098,51.972,21.124,51.995,21.15z M51.734,20.871
				c-0.028-0.029-0.057-0.058-0.086-0.087C51.677,20.813,51.706,20.841,51.734,20.871z M46.49,17.97
				c1.682,0.39,3.283,1.193,4.548,2.255c-2.041-1.704-4.9-2.643-7.666-2.497C44.412,17.655,45.462,17.732,46.49,17.97z
				 M51.459,20.601c-0.033-0.031-0.064-0.062-0.098-0.092C51.395,20.54,51.427,20.57,51.459,20.601z M51.188,20.354
				c-0.043-0.037-0.085-0.075-0.128-0.111C51.103,20.279,51.145,20.317,51.188,20.354z M36.639,20.669
				c-0.086,0.082-0.172,0.165-0.257,0.25C36.466,20.834,36.552,20.751,36.639,20.669z"/>
		</g>
	</g>
</g>
</svg>
