<?xml version="1.0" encoding="utf-8"?>
<!-- Generator: Adobe Illustrator 16.0.0, SVG Export Plug-In . SVG Version: 6.00 Build 0)  -->
<!DOCTYPE svg PUBLIC "-//W3C//DTD SVG 1.1//EN" "http://www.w3.org/Graphics/SVG/1.1/DTD/svg11.dtd">
<svg version="1.1" id="Layer_1" xmlns="http://www.w3.org/2000/svg" xmlns:xlink="http://www.w3.org/1999/xlink" x="0px" y="0px"
	 width="90px" height="90px" viewBox="0 0 90 90" enable-background="new 0 0 90 90" xml:space="preserve">
<path d="M74.211,36.384c0.555-2.2-0.398-3.751-2.396-3.899l-0.655-0.048l-0.168-0.928C69.06,20.841,59.815,14.034,49.498,12.504
	c-6.131-0.909-12.996-0.466-18.557,2.463c-5.139,2.708-9.429,6.662-11.499,12.176c-0.415,1.107-0.839,2.3-1,3.476
	c-0.091,0.669-0.015,1.99-0.892,1.904c-2.879-0.28-4.106,1.912-3.18,4.439c1.079,2.944,2.976,5.832,4.689,8.442
	c0.745,1.135,0.023,2.908-0.222,4.15c-0.347,1.762-0.725,3.519-1.105,5.272c-0.349,1.609-0.717,3.215-1.156,4.802
	c-0.408,1.474-1.354,2.885-1.442,4.433c-0.118,2.053,1.597,3.496,3.228,4.405c1.855,1.035,3.934,1.674,5.979,2.215
	c1.548,0.41,3.117,0.737,4.691,1.028c1.451,0.269,2.933,0.323,4.381,0.614c1.118,0.225,2.193,1.006,3.35,0.929
	c1.066-0.072,1.913-0.848,2-1.926c0.116-1.434-1.179-2.996-1.691-4.284c-0.367-0.921,0.702-0.806,1.452-0.892
	c1.556-0.176,3.054,0.064,4.603,0.106c1.638,0.044,3.271-0.132,4.908-0.117c0.831,0.007,1.661,0.034,2.489,0.099
	c0.494,0.039,1.809-0.062,2.109,0.438c0.379,0.628-0.648,1.711-1.002,2.145c-0.646,0.792-0.934,1.824-0.574,2.815
	c0.354,0.974,1.354,1.583,2.388,1.412c0.634-0.105,1.22-0.413,1.847-0.558c0.849-0.197,1.717-0.29,2.579-0.411
	c3.038-0.425,6.126-1.038,9.033-2.025c2.37-0.804,5.896-2.078,6.899-4.629c0.453-1.151,0.058-2.311-0.396-3.392
	c-0.56-1.334-0.933-2.693-1.283-4.096c-0.715-2.861-1.302-5.752-1.859-8.648c-0.265-1.378-0.523-2.757-0.785-4.136
	c0.692-1.162,1.453-2.282,2.174-3.426c1.228-1.951,2.191-3.904,2.757-6.142c-0.082,0.327-0.165,0.655-0.247,0.982
	C74.18,36.507,74.194,36.446,74.211,36.384C74.766,34.184,73.969,37.341,74.211,36.384z M55.574,63.732
	c-0.026,0.068-0.047,0.151-0.06,0.225c-1.597-0.432-3.394-0.593-5.035-0.734c2.508-1.602,4.702-3.704,6.76-5.836
	C56.827,59.481,56.288,61.717,55.574,63.732C55.559,63.772,55.604,63.648,55.574,63.732z M34.044,63.897
	c-0.164-1.646-0.95-3.254-1.331-4.87c1.572,1.538,3.342,3.244,5.311,4.265C37.377,63.356,35.218,63.586,34.044,63.897
	C34.044,63.896,35.218,63.586,34.044,63.897z M37.669,61.053c-1.348-0.69-2.625-2.148-3.708-3.2
	c-1.079-1.049-1.83-1.895-2.029-3.428c-0.504-3.86-0.782-7.744-1.288-11.603c2.168,0.699,4.854,1.127,4.854-1.91
	c0-0.153,0-0.307,0.004-0.46c0.902-0.096,1.895-0.226,2.79-0.241c0.477,0.323,0.646,0.871,1.245,1.075
	c0.779,0.266,1.394-0.153,2.07-0.469c0.729,0.795,1.326,1.723,2.202,2.377c1.415,1.059,2.595-1.508,3.44-2.211
	c0.597,0.105,0.98,0.493,1.643,0.37c0.648-0.12,1.152-0.587,1.578-1.061c1.084,0.093,2.176,0.067,3.26,0.147
	c-0.004,1.154-0.097,2.625,1.367,2.875c1.447,0.248,2.58-0.266,3.922-0.626c-0.033,1.028-0.277,2.042-0.379,3.064
	c-0.097,0.976-0.077,1.979-0.23,2.948c-0.282,1.789-0.393,3.651-0.771,5.421c-0.855,1.584-2.528,3.144-3.87,4.303
	c-1.605,1.388-3.216,2.523-4.954,3.718c-1.238,0.851-3.099,0.932-4.561,0.932c-1.31,0-2.679-0.104-3.923-0.542
	C39.37,62.195,38.566,61.514,37.669,61.053C37.446,60.939,37.883,61.164,37.669,61.053z M34.771,28.331
	C34.796,28.38,34.842,28.527,34.771,28.331C34.776,28.341,34.781,28.361,34.771,28.331z M48.216,35.874
	c-0.035-0.11-0.073-0.241-0.112-0.382c0.503,0.065,0.871-0.268,1.146-0.643c0.372-0.505,0.997-0.857,1.602-0.992
	c-1.561,2.233,0.92,4.481,3.077,4.633c-0.003,0.08-0.006,0.16-0.01,0.238c-0.826,0.049-1.673,0.011-2.493-0.093
	c-0.622-0.079-1.428-0.375-1.977,0.077c-0.261,0.213-0.447,0.998-0.827,0.998c-0.542,0-0.802-0.709-1.459-0.644l0.108-0.121
	C48.442,37.636,48.674,37.309,48.216,35.874C48.181,35.764,48.674,37.309,48.216,35.874z M53.802,36.784
	c-0.575-0.2-2.034-0.831-1.658-1.68c0.326-0.739,1.352-1.016,1.014-2.016c-0.595-1.759-3.599-0.868-4.566,0.015
	c-0.375-1.512-1.932-2.55-3.335-3.045c1.416-0.564,2.611-1.611,4.168-1.85c0.858-0.132,2.773-0.119,3.366,0.701
	c0.35,0.482,0.364,1.251,0.461,1.812c0.112,0.652,0.273,1.298,0.34,1.958C53.728,34.035,53.819,35.421,53.802,36.784
	C53.646,36.73,53.813,35.838,53.802,36.784z M44.508,39.625c-0.81-0.732-1.646-1.666-2.286-2.541
	c0.014-1.663,0.592-3.63,2.236-4.266c0.168,0.059,0.332,0.146,0.489,0.227c1.459,0.71,1.346,1.883,1.797,3.298
	c0.253,0.793-0.156,1.046-0.692,1.646C45.563,38.536,45.095,39.18,44.508,39.625C44.383,39.512,44.767,39.43,44.508,39.625z
	 M44.8,41.186c-0.117,0.136-0.22,0.26-0.286,0.344c-0.076-0.095-0.175-0.212-0.281-0.335C44.412,41.231,44.616,41.229,44.8,41.186
	C44.683,41.322,44.616,41.229,44.8,41.186z M51.25,26.661c-1.108-0.175-2.262-0.017-3.326,0.317c-0.639,0.2-1.257,0.468-1.852,0.775
	c-0.438,0.225-1.029,0.773-1.507,0.849c-0.789-0.26-1.535-0.921-2.33-1.242c-0.945-0.38-1.948-0.65-2.968-0.721
	c-0.938-0.064-1.641-0.036-2.523,0.267c0.467-0.904,0.9-1.505,1.347-1.904c1.192-0.872,2.798-0.989,4.036-0.171
	c0.481,0.394,0.936,0.817,1.229,1.368c0.246,0.46,0.585,0.969,1.17,0.967c0.936,0,1.355-1.229,1.894-1.814
	c0.729-0.793,1.628-1.253,2.728-1.149c1.565,0.226,2.617,1.38,3.294,2.716C52.041,26.797,51.646,26.714,51.25,26.661
	C51.143,26.644,51.646,26.714,51.25,26.661z M38.12,28.182c2.126-0.304,3.886,1.041,5.682,1.864
	c-0.757,0.261-1.662,0.764-2.279,1.265c-0.704,0.573-0.834,1.278-1.117,2.09c-0.901-0.942-4.318-2.342-4.794-0.209
	c-0.225,1.006,0.84,1.175,1.124,1.911c0.298,0.771-0.84,1.334-1.374,1.48c-0.151-1.307,0.174-2.729,0.271-4.036
	c0.083-1.113,0.069-2.827,0.776-3.786C36.733,28.616,37.81,28.243,38.12,28.182C38.121,28.182,37.81,28.243,38.12,28.182z
	 M38.287,36.069c0.261-0.802,0.141-1.598-0.308-2.212c0.649,0.135,1.294,0.56,1.598,1.162c0.245,0.486,0.629,1.006,1.253,0.87
	c-0.075,0.397-0.149,0.801-0.154,1.207c-0.012,0.518,0.033,0.645,1.077,1.809c-0.788-0.128-0.961,0.775-1.576,0.775
	c-0.559,0-0.657-1.153-1.428-1.239c-0.456-0.05-0.892,0.135-1.34,0.19c-0.731,0.091-1.486,0.117-2.225,0.119
	c-0.009-0.108-0.004-0.224-0.004-0.331C36.599,38.333,37.857,37.391,38.287,36.069z M63.622,50.375
	c0.604,6.555-2.844,12.894-7.47,17.292c0.33-0.746,0.652-1.52,0.815-2.323c0.122-0.596,0.085-1.137,0.252-1.731
	c0.36-1.287,0.871-2.635,1.028-3.965c0.175-1.469,0.705-2.989,1.007-4.448c0.227-1.093,0.398-2.198,0.664-3.283
	c0.298-1.213,0.313-2.513,0.38-3.752c0.092-1.643,0.496-3.229,0.59-4.875c0.047-0.823,0.316-2.473-0.789-2.774
	c-0.642-0.175-1.471,0.338-2.086,0.501c-0.773,0.206-1.573,0.602-2.396,0.483c-0.083-3.381,0.201-6.773-0.259-10.137
	c-0.46-3.37-2.021-8.306-6.058-8.698c-2.09-0.276-3.563,0.983-4.714,2.556c-1.42-2.624-5.205-3.369-7.477-1.41
	c-0.926,0.702-2.556,2.992-2.426,4.231c-0.716,0.875-0.708,2.209-0.806,3.271c-0.103,1.123-0.252,2.223-0.282,3.351
	c-0.014,0.492,0.022,6.905-0.199,6.905c-0.43,0.191-1.219-0.234-1.615-0.359c-0.648-0.204-1.563-0.528-2.246-0.311
	c-0.844,0.268-0.891,1.289-0.87,2.029c0.049,1.729,0.493,3.422,0.603,5.15c0.072,1.145,0.098,2.318,0.345,3.442
	c0.53,2.412,0.764,4.886,1.284,7.309c0.644,2.989,1.354,6.033,2.516,8.87c-1.136-0.863-1.804-2.25-2.915-3.075
	c-0.907-1.208-1.708-2.358-2.37-3.735c-1.428-2.972-2.264-5.888-2.18-9.21c0.043-1.707,0.225-3.404,0.254-5.111
	c0.02-1.147,0.649-3.948-0.549-4.655c-0.617-0.365-1.381-0.2-2.04-0.415c-0.64-0.208-1.438-0.499-1.895-1.009
	c-0.841-0.939-0.914-2.799-0.856-3.983c0.538-0.746,0.412-2.03,0.507-2.903c0.146-1.339,0.394-2.669,0.78-3.959
	c0.689-2.302,1.84-4.438,3.412-6.258c1.476-1.71,3.477-3.585,5.563-4.521c2.082-0.935,4.587-1.218,6.847-1.036
	c1.214,0.099,2.549,0.047,3.72,0.397c0.86,0.256,1.813,0.713,2.711,0.789c0.66,0.055,1.314-0.202,1.923-0.426
	c0.959-0.354,1.906-0.525,2.925-0.604c2.346-0.183,4.844-0.427,7.098,0.406c2.407,0.889,4.861,2.423,6.644,4.274
	c1.751,1.82,2.933,4.041,3.81,6.389c0.39,1.042,0.601,2.231,0.785,3.323c0.174,1.026-0.055,2.789,0.551,3.671
	c-0.147,1.329,0.085,2.725-0.441,3.996c-0.376,0.91-1.202,1.014-2.048,1.341c-0.545,0.21-1.215,0.137-1.703,0.458
	c-0.724,0.476-0.665,1.443-0.612,2.199c0.109,1.599,0.109,3.214,0.201,4.817 M17.52,35.997c0.52,0.145,1.033,0.328,1.523,0.554
	c0.002,0.835-0.011,1.676,0.082,2.507C18.558,38.059,17.975,37.052,17.52,35.997C17.622,36.025,17.555,36.078,17.52,35.997z
	 M20.87,58.636c1.183-1.772,2.346-3.558,3.555-5.313c0.09,1.929,0.519,3.65,1.106,5.477c-1.565,0.12-3.208,0.061-4.78,0.013
	C20.789,58.757,20.829,58.698,20.87,58.636C21.228,58.101,20.829,58.698,20.87,58.636z M20.521,56.068
	c0.608-2.772,1.354-6.398,1.739-8.512c0.424,0.571,0.84,1.148,1.292,1.697c0.283,0.345,0.761,0.698,0.859,1.144
	c0.002,0.055-0.005,0.101-0.016,0.127c-0.616,0.503-1.104,1.29-1.52,1.958C22.125,53.7,21.302,54.869,20.521,56.068
	C21.129,53.295,20.592,55.958,20.521,56.068z M24.304,46.007c-0.011,0.289-0.03,0.798-0.053,1.29
	c-1.169-1.56-2.153-3.197-3.154-4.868c0.92,0.675,2.074,1.066,3.322,1.093C24.39,43.931,24.339,45.058,24.304,46.007
	C24.293,46.296,24.339,45.058,24.304,46.007z M19.363,60.837c0.03-0.111,0.064-0.24,0.1-0.376c0.982,0.193,2.098,0.107,3.088,0.107
	c1.212,0.017,2.642-0.202,3.807,0.109c0.431,0.98,0.945,1.89,1.424,2.846c0.51,1.019,1.374,1.776,2.059,2.666
	c0.912,1.185,2.077,2.034,3.069,3.116c-4.002-0.602-8.175-1.298-11.899-2.951c-0.867-0.385-1.895-0.846-2.502-1.614
	c-0.283-0.359-0.252-0.688-0.072-1.111C18.818,62.729,19.112,61.783,19.363,60.837C19.394,60.726,19.078,61.912,19.363,60.837z
	 M35.391,16.323c5.479-1.607,11.646-1.597,17.131-0.048c-1.214,0.014-2.43,0.084-3.638,0.189c-0.691,0.06-1.382,0.146-2.053,0.331
	c-0.722,0.199-1.501,0.684-2.254,0.684c-0.727,0-1.744-0.525-2.444-0.734c-0.978-0.292-2.037-0.299-3.046-0.378
	C37.791,16.265,36.672,16.282,35.391,16.323C37.201,15.792,35.45,16.321,35.391,16.323z M68.011,58.809
	c-1.312,0.041-2.672,0.081-3.985-0.003c0.473-1.433,0.952-2.854,1.05-4.373C65.944,55.697,67.395,57.852,68.011,58.809
	C67.533,58.823,67.395,57.852,68.011,58.809z M65.184,43.45c0.803-0.118,1.204-0.204,1.644-0.386
	c-0.49,0.854-1.032,1.619-1.507,2.472C65.314,44.84,65.296,44.139,65.184,43.45C65.986,43.333,65.187,43.478,65.184,43.45z
	 M67.643,55.209c-0.748-1.101-1.492-2.207-2.243-3.304c-0.163-0.237-0.106-0.655-0.11-0.919c-0.01-0.836-0.053-1.696,0.021-2.53
	c0.486-0.547,0.925-1.112,1.331-1.721c0.65,3.347,1.309,6.694,2.05,10.022C68.343,56.24,67.994,55.724,67.643,55.209
	C67.229,54.601,68.059,55.82,67.643,55.209z M56.781,69.186c1.037-0.935,2.107-1.929,2.983-3.021
	c0.675-0.862,1.368-1.741,1.995-2.63c0.626-0.886,0.838-2.021,1.485-2.892c1.3-0.175,2.679-0.062,3.986-0.073
	c0.712-0.006,1.661,0.112,2.328-0.213c0.352,1.311,0.997,2.577,1.309,3.883c-0.617,1.426-2.939,2.169-4.243,2.652
	c-3.169,1.174-6.531,1.769-9.856,2.306C56.772,69.194,56.777,69.189,56.781,69.186C56.905,69.074,56.777,69.189,56.781,69.186z
	 M70.796,35.977c-0.155,0.33-0.397,0.805-0.714,1.398c0.014-0.376-0.014-0.775,0.07-1.144C70.361,36.127,70.57,36.039,70.796,35.977
	z"/>
</svg>
