<?xml version="1.0" encoding="utf-8"?>
<!-- Generator: Adobe Illustrator 16.0.0, SVG Export Plug-In . SVG Version: 6.00 Build 0)  -->
<!DOCTYPE svg PUBLIC "-//W3C//DTD SVG 1.1//EN" "http://www.w3.org/Graphics/SVG/1.1/DTD/svg11.dtd">
<svg version="1.1" id="Layer_1" xmlns="http://www.w3.org/2000/svg" xmlns:xlink="http://www.w3.org/1999/xlink" x="0px" y="0px"
	 width="90px" height="90px" viewBox="0 0 90 90" enable-background="new 0 0 90 90" xml:space="preserve">
<path d="M75.509,41.966c0.345-1.464-0.294-2.739-1.86-2.929c-2.496-0.304-1.91,0.426-3.336-2.096
	c-3.156-5.581-3.062-12.223-9.063-14.645c-0.809-0.325-3.361-1.108-3.641-1.967c-0.441-1.353-0.98-2.723-2.103-3.666
	c-2.069-1.742-8.508-3.086-12.226-3.478c-4.153-0.438-7.233-0.33-11.383,0.054c-1.283,0.118-2.944,0.541-3.023,2.104
	c-0.1,1.98,2.034,1.915,2.12,2.861c0.007,0.103-4.969,2.58-5.438,2.902c-2.168,1.496-4.12,3.289-5.914,5.213
	c-1.237,1.326-3.592,3.614-3.58,5.602c0.006,0.939,0.24,1.541,1.208,1.738c0.545,0.109,2.598-0.595,2.843-0.363
	c0.002,0.002-1.217,3.199-1.284,3.438c-0.529,1.871-0.058,2.405-2.004,2.275c-4.386-0.294-2.328,4.537-1.078,6.621
	c1.121,1.867,2.48,3.598,3.963,5.188c0.8,0.858,1.896,2.697,2.889,3.312c1.208,0.744,1.264,0.463,0.973,1.955
	c-0.3,1.533-0.64,3.063-1.024,4.58c-0.296,1.17-0.995,2.621-0.16,3.724c0.779,1.03,1.983,0.103,2.04,1.366
	c0.137,3.039,1.43,4.783,3.973,6.398c1.326,0.844,6.355,4.35,6.599,0.453c0.069-1.104-0.739-6.031-0.484-7.178
	c-0.006,0.025,3.436,2.513,3.833,2.738c1.774,1.016,3.57,1.361,5.559,1.691c1.594,0.266,3.455-0.136,4.971-0.619
	c2.355-0.754,3.833-2.6,5.954-3.591c-0.302,0.142-0.513,4.421-0.603,5.026c-0.273,1.871,0.842,4.391,3.238,3.475
	c2.395-0.914,4.828-2.359,6.415-4.438c0.099-0.131,0.783-1.475,0.802-1.467c1.229,0.535,2.197,1.943,3.477,2.571
	c2.072,1.019,4.773,1.464,5.693-1.161c0.443-1.271,0.478-2.675,0.336-4c-0.119-1.107-1.433-3.535-1.164-4.484
	c0.231-0.816,0.795-1.012,0.586-2.039c-0.297-1.477-1.371-2.774-2.471-3.743c-0.899-0.791-3.031-2.72-1.774-3.954
	C71.907,48.947,74.674,45.512,75.509,41.966z M21.292,47.981c-1.582-1.776-2.889-3.511-3.861-5.698
	c0.398,0.088,3.601,1.194,4.036,1.243C21.123,45.148,21.017,46.432,21.292,47.981z M54.417,61.861
	c-3.167,2.992-6.594,5.467-11.142,4.832c-2.235-0.313-4.071-1.449-5.818-2.834c-0.843-0.668-1.65-1.384-2.423-2.132
	c0.776-0.784-0.347-2.155-0.697-2.864c-1.607-3.254-2.847-6.986-3.071-10.617c-0.109-1.816-0.534-2.625,1.1-3.66
	c1.813-1.104,2.531-0.019,4.441,0.655c-0.708,0.982-2.475,4.488-0.102,4.023c1.765-0.524,3.77-1.481,5.279-2.517
	c4.208-2.898,8.236-5.764,10.835-10.334c0.705,1.201,1.502,2.336,2.33,3.453c-2.519,0.959-6.067,2.412-8.004,4.207
	c-1.479,1.37,1.281,2.775,2.563,2.176c1.717-0.808,3.515-1.488,5.313-2.09c1.207-0.401,3.222-0.846,3.227,0.965
	c0.005,1.877-0.119,3.146-0.373,5.006c-0.406,2.976-1.525,6.254-2.947,8.89C54.542,59.738,53.384,61.195,54.417,61.861z
	 M70.999,59.313c-0.266,0.093-1.706-0.452-1.813,0.026c-0.119,0.529,1.299,2.187,1.541,2.705c0.588,1.255,1.014,2.611,1.168,3.992
	c0.088,0.791,0.24,2.588-0.479,3.174c-0.699,0.57-2.513-0.534-3.091-0.914c-0.946-0.619-1.766-1.424-2.475-2.299
	c-0.386-0.476-1.762-3.344-2.31-3.344c-0.876,0-1.063,4.729-1.433,5.428c-0.818,1.56-2.887,2.47-4.354,3.289
	c-2.231,1.246-1.067-1.529-0.874-2.994c0.314-2.398,0.809-4.836,0.941-7.252c0.016-0.272,0.046-0.594-0.271-0.674
	c-0.152-0.043-0.299-0.022-0.441,0.062c-0.846,0.478-0.189-0.045-1.101-0.149c2.127-3.873,3.405-8.294,3.691-12.693
	c0.155-2.391,0.44-4.239-1.101-6.12c-1.162-1.421-2.367-2.806-3.391-4.331c-1.3-1.939-2.256-4.152-3.861-1.434
	c-1.209,2.051-2.824,3.897-4.591,5.484c-2.628,2.359-5.15,3.937-8.599,5.449c1.543-1.952,2.036-3.066,3.219-4.859
	c0.472-0.762,1.966-2.992,0.727-3.83c-1.139-0.77-3.521,0.814-4.445,1.314c-1.85,1-3.658,2.157-5.469,3.219
	c-1.244,0.729-2.649,1.555-2.652,3.198c-0.003,1.629,0.148,3.319,0.4,4.926c0.455,2.903,0.961,3.722,1.988,6.443
	c0.392,1.041,1.076,2.183,1.106,3.795c-0.216-0.2-1.401-0.962-1.506-0.152c-0.157,1.208,0.274,2.609,0.437,3.804
	c0.254,1.856,0.505,3.713,0.756,5.569c0.023,0.171,0.379,1.788,0.051,1.788c-0.921,0-2.396-1.225-3.135-1.718
	c-1.553-1.037-2.652-1.921-2.858-3.832c-0.077-0.708,0.098-6.672-0.037-6.576c-0.751,0.531-1.192,1.86-1.916,1.86
	c0.063,0,2.062-9.087,2.199-10.209c0.119-0.976,0.763-4.181-0.281-4.81c-1.167-0.702-3.015,1.394-3.712,2.451
	c-0.374-1.494-0.184-2.14-0.076-3.697c0.139-2.009,0.966-3.366-1.764-3.729c-1.712-0.228-0.71-2.028-0.364-3.505
	c0.297-1.264,0.702-2.555,1.311-3.707c0.475-0.896,4.397-4.57,3.854-5.172c-0.419-0.463-7.208,1.729-7.217,1.773
	c0.333-1.619,3.059-3.648,4.192-4.745c1.578-1.526,3.279-2.942,5.166-4.077c1.666-1.002,3.465-1.757,5.342-2.263
	c0.942-0.254,5.819-0.176,6.17-0.897c0.192-0.396-5.175-1.989-5.621-2.157c-0.426-0.16-3.741-1.183-1.833-1.343
	c6.275-0.523,12.543-0.332,18.586,1.559c2.742,0.857,4,1.617,4.791,4.591c0.471,1.771,4.883,2.378,6.453,3.511
	c1.931,1.395,2.777,4.795,3.666,6.896c0.69,1.628,1.414,3.241,2.1,4.873c0.14,0.333,1.296,2.409,1.07,2.78
	c-0.211,0.313-3.322-1.838-3.986-1.838c-0.436,0,1.021,3.594,0.566,4.35c-0.373,0.615-1.058,0.748-1.457,1.433
	c-0.435,0.737-0.895,1.459-1.322,2.2c-0.627,1.081-0.977,1.459-1.028,2.659c0.074,1.157,0.353,4.135,0.853,6.01
	c0.25,1.146,0.56,4.129,2.167,3.541c1.667-0.583,3.64-1.778,3.965-1.638C69,56.689,71.659,59.059,70.999,59.313z M37.688,41.771
	c0.564-0.552,1.417-0.889,2.065-1.223C38.636,41.972,38.594,42.406,37.688,41.771z M25.375,49.083
	c-0.134,0.952-0.353,1.938-0.563,2.875C23.706,51.032,24.456,50.377,25.375,49.083z M64.582,53.751
	c0.37-0.793,1.114-1.234,1.761-0.548c1.491,1.526,0.208,1.896-1.458,2.691C64.552,55.105,64.291,54.384,64.582,53.751z
	 M65.77,50.584c-0.668,0.604-1.275,0.941-1.945,1.539c-0.207-1.398-0.531-2.416-0.623-3.83c-0.043-0.666,0.909-1.705,1.265-2.289
	c0.551-0.906,0.799-1.709,1.835-2.047c1.91-0.621,3.835-1.179,5.786-1.651C70.743,45.459,68.289,48.304,65.77,50.584z"/>
</svg>
