<?xml version="1.0" encoding="utf-8"?>
<!-- Generator: Adobe Illustrator 16.0.0, SVG Export Plug-In . SVG Version: 6.00 Build 0)  -->
<!DOCTYPE svg PUBLIC "-//W3C//DTD SVG 1.1//EN" "http://www.w3.org/Graphics/SVG/1.1/DTD/svg11.dtd">
<svg version="1.1" id="Layer_1" xmlns="http://www.w3.org/2000/svg" xmlns:xlink="http://www.w3.org/1999/xlink" x="0px" y="0px"
	 width="90px" height="90px" viewBox="0 0 90 90" enable-background="new 0 0 90 90" xml:space="preserve">
<path id="path0_3_" d="M45.699,17.146c-3.68,0.502-7.397,1.66-10.629,3.508c-1.868,1.069-1.613,1.224-3.555,0.214
	c-1.773-0.922-3.676-1.48-5.642-1.817c-5.719-0.98-12.731,2.923-14.271,8.654c-1.569,5.843,0.486,12.608,5.483,16.251
	c1.194,0.868,2.353,1.714,3.633,2.458c0.812,0.788,0.675,0.849,0.878,2.137c0.624,3.954,2.047,7.849,4.305,11.167
	c8.293,12.188,25.42,15.88,38.089,8.179c11.285-6.86,15.747-20.928,11.279-33.224C70.973,22.85,58.149,15.448,45.699,17.146
	 M52.75,21.387c12.96,1.938,22.057,14.314,19.79,27.27C70.369,61.063,57.976,69.28,45.708,67.546
	c-6.427-0.907-12.3-4.564-16.04-9.855c-1.76-2.488-3.036-5.316-3.689-8.294c-0.332-1.512-0.503-3.058-0.506-4.606
	c-0.004-1.53-2.193-1.815-3.312-2.458c-5.501-3.161-9.986-11.178-4.523-16.511c2.228-2.175,5.282-3.07,8.335-2.479
	c1.695,0.328,3.296,1.05,4.744,1.978c2.136,1.369,2.108,2.078,4.233,0.516C40.008,22.118,46.51,20.451,52.75,21.387"/>
</svg>
