<?xml version="1.0" encoding="utf-8"?>
<!-- Generator: Adobe Illustrator 16.0.0, SVG Export Plug-In . SVG Version: 6.00 Build 0)  -->
<!DOCTYPE svg PUBLIC "-//W3C//DTD SVG 1.1//EN" "http://www.w3.org/Graphics/SVG/1.1/DTD/svg11.dtd">
<svg version="1.1" id="Layer_1" xmlns="http://www.w3.org/2000/svg" xmlns:xlink="http://www.w3.org/1999/xlink" x="0px" y="0px"
	 width="90px" height="90px" viewBox="0 0 90 90" enable-background="new 0 0 90 90" xml:space="preserve">
<g>
	<path fill="#050508" d="M22.574,50.414c-0.458-0.855-0.799,1.838-0.785,2.055c0.184,2.707,2.267,6,4.735,7.486
		c0.616,0.371,0.919,0.385,0.471-0.346c-0.611-0.994-1.265-1.951-1.82-2.98C24.104,54.643,23.624,52.377,22.574,50.414z"/>
	<path fill="#050508" d="M32.253,40.863c0.007,0.031,0.014,0.059,0.021,0.086c-0.007-0.03-0.011-0.045-0.022-0.091
		c-0.177-0.737-0.378-1.448-0.446-1.58c-0.092-0.178-0.183-0.263-0.27-0.263c-0.341,0-0.625,1.302-0.704,3.422
		c-0.059,1.576-0.08,1.541,1.058,1.687c1.099,0.142,1.274-0.104,0.933-1.161C32.686,42.543,32.43,41.599,32.253,40.863z"/>
	<path fill="#050508" d="M67.74,51.008c-0.437,0-0.876,1.828-0.994,2.125c-0.439,1.111-0.984,2.166-1.616,3.182
		c-0.639,1.027-1.435,2.004-1.934,3.113c-0.436,0.969,0.737,0.064,1.009-0.15c2.392-1.904,4.275-5.891,3.742-7.92
		C67.888,51.129,67.822,51.008,67.74,51.008z"/>
	<path fill="#050508" d="M64.841,27.518c0.732,0-0.992-2.77-3.448-5.54c0.447,0.504,1.868,2.106-0.006-0.007
		c-0.333-0.376-0.761-1.033-1.283-1.175c-0.728-0.199-1.391,0.7-2.125,0.7c-1.604,0-3.388-1.093-4.961-1.458
		c-1.457-0.337-3.179-0.658-4.513-1.337c-1.159-0.591-2.193-1.583-3.418-2.035c-1.03-0.379-2.929,1.401-3.769,1.864
		c-1.108,0.61-2.296,0.773-3.496,1.125c-1.182,0.347-2.371,0.665-3.548,1.028c-0.728,0.224-1.446,0.484-2.175,0.702
		c-0.897,0.268-1.611-0.721-2.403-0.312c-1.105,0.572-2.093,2.286-2.782,3.274c-0.202,0.29-2.296,3.347-1.063,2.805
		c2.348-1.034,4.476-2.369,6.932-3.2c2.376-0.803,4.82-1.306,7.319-1.507c4.69-0.377,9.491-0.334,14.116,0.613
		c2.167,0.444,4.286,1.112,6.285,2.063c1.001,0.476,1.954,1.03,2.899,1.609C63.745,26.94,64.396,27.518,64.841,27.518z
		 M29.626,23.448c0.225-0.269,0.435-0.511,0.608-0.699c0.167,0.089,0.344,0.169,0.538,0.229
		C30.389,23.128,30.006,23.285,29.626,23.448z M49.181,20.763c-3.256-0.252-6.552-0.153-9.801,0.135
		c2.054-0.453,3.608-1.563,5.422-2.581c1.635,0.983,3.094,2.026,4.966,2.495C49.573,20.794,49.377,20.778,49.181,20.763z
		 M59.184,22.823c0.193-0.084,0.381-0.181,0.568-0.279c0.242,0.263,0.478,0.532,0.712,0.801
		C60.044,23.162,59.618,22.987,59.184,22.823z"/>
	<path fill="#050508" d="M72.525,48.846c-0.095-0.048-0.072-0.037-0.003-0.002c-0.686-0.348-1.203-0.933-1.736-1.469
		c0.739-5.467,0.742-11.217-0.708-16.577C66.979,19.345,56.93,11.954,46.06,13.131c-2.258,0.245-4.607-0.266-6.895-0.096
		c-2.507,0.187-5.746,1.414-8.44,3.198C24.284,20.5,19.966,27.65,18.721,36.118c-0.656,4.46-0.095,9.124,1.06,13.433l-0.131,0.564
		c-1,4.305,1.332,9.09,5.893,12.094c2.703,1.781,2.895,4.926,4.004,7.742c0.609,1.545,1.719,4.984,3.61,5.496
		c1.13,0.305,2.32-0.09,2.809-1.207c0.293-0.668,0.248-1.361,0.169-2.066c-0.076-0.686,0.294-0.332,0.685-0.074
		c5.115,3.377,11.573,3.322,16.578-0.277c0.667-0.48,0.218,1.693,0.306,2.176c0.232,1.279,1.318,1.654,2.501,1.58
		c1.057-0.066,1.308-0.232,2.064-1.363c1.138-1.703,2.011-3.6,2.804-5.482c0.875-2.076,1.337-4.154,2.767-5.926
		c0.915-1.133,2.199-1.867,3.182-2.945c1.511-1.658,2.736-3.727,3.156-5.951l0.1-0.529l0.924,0.008
		c1.968,0.02,2.638-0.572,2.642-2.334C73.846,49.746,73.647,49.414,72.525,48.846z M47.885,70.244
		c-3.223,0.824-6.395,0.256-9.133-1.629c-2.16-1.484-5.578-4.592-6.651-6.045c-0.823-1.115-2.113-4.379-3.212-9.236
		c1.153,1.049,4.226,3.584,5.556,1.418c0.569-0.927,0.082-1.942-0.155-2.413c0.031,0.06,0.035,0.068-0.021-0.044
		c-0.534-1.051-1.198-3.168-1.542-4.779c0.717,1.564,2.98,2.363,3.578,0.199c0.036-0.131,0.065-0.273,0.089-0.441
		c0.343,0.002,0.682-0.016,1-0.162c1.277,1.764,10.425,7.348,11.521,3.406c0.663,0.26,1.457,0.088,1.932-0.447
		c0.58-0.652,0.399-1.465,0.341-2.248c0.709-0.07,1.375-0.383,2.081-0.453c2.331,1.541,4.595,3.861,7.541,4.195
		c-0.343,4.791-2.088,10.068-4.063,12.107C53.108,67.43,49.534,69.822,47.885,70.244z M70.383,50.939
		c-0.522-0.037-2.081-0.793-2.16-0.02c-0.077,0.768,0.203,1.756-0.043,2.473c-0.744,2.162-1.763,4.129-3.443,5.727
		c-0.725,0.691-1.784,1.074-2.438,1.795c-0.671,0.738-1.449,1.645-1.824,2.58c-0.873,2.18-1.57,4.398-2.584,6.527
		c-0.341,0.715-0.692,1.436-1.125,2.1c-0.113,0.174-0.592,0.902-0.652,0.311c-0.219-2.137,0.649-4.355,0.641-6.51
		c0.384-0.369,0.766-0.748,1.142-1.137c2.39-2.469,4.384-8.635,4.562-14.107c0.074-2.287,0.004-2.484-1.196-3.389
		c-0.311-0.232-2.607-2.42-2.762-1.39c-0.157,1.054,1.847,2.736,2.423,3.457c1.069,1.338-1.914-0.088-2.307-0.283
		c-1.667-0.83-2.949-2.059-4.487-3.053c-0.784-0.505-2.967,0.592-3.3,0.189c-0.096-0.115,0.917-0.576,0.914-0.574
		c1.281-0.604,1.328-0.721,0.637-1.609c-0.68-0.874-1.29-1.8-1.841-2.76c-0.23-0.399-0.865-1.753-1.163-0.668
		c-0.429,1.564-0.343,4.061-0.018,5.642c0.1,0.484,0.767,3.338-0.196,2.568c-1.07-0.855-1.831-1.955-2.657-3.024
		c-0.806-1.042,0.181,2.067,0.268,2.3c0.261,0.693,1.265,2.447-0.183,2.131c-1.618-0.352-3.186-0.947-4.655-1.703
		c-1.106-0.57-2.748-1.346-3.355-2.514c-0.599-1.151-1.34-2.208-1.776-3.439c-0.474-1.336-0.388-3.109-1.045-4.335
		c-0.292-0.546-0.422,0.601-0.44,0.729c-0.156,1.119-0.222,2.252-0.298,3.379c-0.046,0.667-0.466,2.43,0.493,2.666
		c0.18,0.044,1.212,0.456,1.212,0.657c0-0.011-1.727-0.223-1.841,0.669c-0.184,1.43-0.407,1.266-0.919,0.018
		c-0.403-0.982-0.515-1.052-1.789-1.119c-0.934-0.049-1.338,0.058-1.262,1.055c0.128,1.66,0.638,3.338,1.179,4.904
		c0.269,0.777,0.657,1.498,0.94,2.266c0.431,1.166-1.335-0.01-1.615-0.193c-1.218-0.793-2.229-1.773-3.025-2.992
		c-0.303-0.465-1.475-3.408-2.017-3.408c-0.102,0.09-0.14,0.207-0.113,0.355c-0.056,0.852,0.229,1.824,0.362,2.66
		c0.218,1.373,0.455,2.738,0.768,4.094c0.719,3.117,1.478,6.924,3.422,9.559c0.48,0.65,1.35,1.57,2.369,2.539
		c-0.099,1.771,0.386,3.576,0.514,5.34c0.015,0.186,0.149,0.975-0.093,1.092c-0.652,0.387-3.306-7.785-3.509-8.516
		c-0.419-1.51-1.763-2.666-3.066-3.406c-1.345-0.764-2.516-1.828-3.44-3.066c-1.526-2.043-2.73-5.07-1.575-7.561l0.23-0.494
		c-1.592-5.296-2.127-10.961-0.486-16.33c1.711-5.597,4.418-10.305,9.048-14.008c2.339-1.871,5.535-3.5,8.559-3.762
		c1.519-0.132,2.98-0.192,4.495,0.065c0.46,0.078,0.92,0.189,1.39,0.173c3.075-0.127,5.872-0.286,8.862,0.717
		c3.394,1.126,6.524,3.264,8.854,5.971c2.099,2.437,3.697,5.311,4.596,8.4c0.603,2.074,1.239,4.471,1.266,6.659
		c0.026,2.136,0.105,4.283,0.02,6.418c-0.041,1.016-0.233,1.971-0.394,2.97c-0.214,1.338,0.325,2.059,1.253,2.969
		c0.715,0.701,1.095,1.129,1.057,1.191C70.705,50.975,70.468,50.943,70.383,50.939z"/>
</g>
</svg>
