<?xml version="1.0" encoding="utf-8"?>
<!-- Generator: Adobe Illustrator 16.0.0, SVG Export Plug-In . SVG Version: 6.00 Build 0)  -->
<!DOCTYPE svg PUBLIC "-//W3C//DTD SVG 1.1//EN" "http://www.w3.org/Graphics/SVG/1.1/DTD/svg11.dtd">
<svg version="1.1" id="Layer_1" xmlns="http://www.w3.org/2000/svg" xmlns:xlink="http://www.w3.org/1999/xlink" x="0px" y="0px"
	 width="90px" height="90px" viewBox="0 0 90 90" enable-background="new 0 0 90 90" xml:space="preserve">
<g>
	<path d="M69.426,57.111c-1.351,0.568-1.285,1.08-2.581,1.751c-0.506,0.262-5.959,0.612-5.165-0.663
		c0.937-1.499,1.505-1.13,3.088-1.742c1.477-0.571,2.803-1.532,3.832-2.733c1.127-1.313,1.992-2.898,2.449-4.569
		c0.171-0.624,0.184-1.291,0.17-1.947c-0.031-1.52-1.244-0.898-1.281-1.238c1.438-2.188,2.155-7.772-1.845-6.194
		c-1.152,0.454-1.85,2.065-3.032,0.773c-1.196-1.308-1.6-3.348-2.13-4.984c-0.988-3.047-2.009-6.363-4.075-8.875
		c-1.053-1.278-2.393-2.243-4.046-2.549c-1.969-0.367-0.715-2.779-0.414-4.399c0.367-1.975,1.953-7.973-1.938-7.99
		c-1.669-0.007-2.227,0.996-3.329,2.031c-1.025,0.963-1.115,1.814-2.234,0.607c-0.967-1.044-1.938-2.086-2.982-3.053
		c-3.155-2.923-5.623,1.22-7.745,3.664c-1.354,1.562-3.882-4.148-6.459-3.25c-2.851,0.995-1.394,5.47-1.033,7.497
		c0.14,0.786,1.26,4.117,0.558,4.675c-1.754,1.393-3.558,2.616-5.141,4.22c-5.373,5.447-8.027,12.929-8.091,20.518
		c-0.069,8.298,3.019,16.706,9.093,22.475c1.763,1.673,4.855,4.625,7.508,4.437c1.766-0.126,1.142-2.133,2.973-1.27
		c1.967,0.928,4.018,1.454,6.194,1.005c1.163,0.054,1.147,0.128,2.298,0.791c1.845,1.063,3.926,1.665,6.035,1.895
		c4.312,0.471,7.587-0.157,10.857-1.782c1.439-0.716,3.981-1.353,3.292-3.208c-0.813-2.188,2.218-2.095,5.16-5.399
		c2.314-2.6,3.226-4.607,3.12-8.773C72.238,57.441,70.782,56.539,69.426,57.111z M35.648,19.359c1.839,0,4.724-4.303,5.926-5.53
		c1.629,1.563,3.084,3.308,4.723,4.856c1.878,1.775,4.497-2.059,5.828-3.279c-0.406,2.555-1.515,5.673-1.926,8.227
		c-4.227-2.749-12.191-3.047-17.429-0.574c-0.507-2.425-1.654-5.749-2.104-8.184C31.676,15.808,34.122,19.264,35.648,19.359z
		 M31.646,63.729c-0.697,2.505-0.709,5.181-0.648,7.692c-7.291-4.896-11.556-13.217-11.677-21.949
		c-0.067-4.903,0.947-9.871,3.43-14.137c2.16-3.708,5.219-7.961,9.438-9.711c1.828-0.758,2.955-1.21,4.904-1.489
		c2.067-0.296,5.377-0.761,8.171-0.024c1.739,0.458,3.487,1.232,5.174,2.101c1.557,0.978,3.243,0.727,4.761,1.677
		c4.582,2.869,4.545,18.868,12.054,16.028c-0.495,1.152-1.394,2.292-2.555,2.731c-0.705,0.267-1.894,0.631-1.77,1.62
		c0.186,1.484,3.932,0.362,4.917,0.231c-1.406,3.656-4.768,6.047-8.209,4.771c-1.286-0.479-2.619-1.338-3.307,0.426
		c-0.529,1.36-0.899,2.093-1.363,3.468c0.147-2.294,0.87-5.508-0.773-7.439c-1.805-2.123-3.712-3.523-4.932-6.12
		c-0.705-1.5,1.729-4.096,2.508-5.268c0.316-0.475,1.137-1.534,1.196-2.13c0.117-0.89-0.762-2.096-1.649-1.239
		c-1.554,1.501-2.848,3.66-4.27,5.366c-2.103,2.522-4.279,4.985-6.394,7.497c-1.955,2.322-4.607,5.771-6.089,8.419
		C32.107,60.639,32.313,61.334,31.646,63.729z M57.292,57.542c0.438-0.859,0.766-2.053,0.792-2.625
		c0.529,0.293,0.533,0.294,1.125,0.416C58.717,56.662,58.53,56.922,57.292,57.542z M58.406,64.359
		c-2.131,0.529-2.116,1.403-2.687,3.365c-0.543-1.984-0.571-2.808-2.738-3.217c1.788-0.272,2.291-1.773,2.626-3.331
		C56.023,62.785,56.708,63.937,58.406,64.359z M45.802,69.68c-1.689,1.553-4.452,2.478-6.146,2.445
		c-1.729-0.149-5.482-1.033-6.001-2.975c0.188-4.619,1.079-6.575,2.512-9.33c2.936-5.643,6.658-10.721,10.871-15.47
		c0.941,1.55,2.063,2.984,3.314,4.295c1.559,1.633,2.913,2.212,2.796,4.621c-0.099,2.009-0.068,4.068-0.404,6.061
		C52.02,63.623,47.969,67.688,45.802,69.68z M66.767,65.508c-1.468,1.258-5.86,3.68-7.553,4.151
		c-3.275,0.913-0.936,2.826,1.113,3.262c-4.756,2.148-10.702,3.151-15.146-0.14c1.925-1.039,3.271-2.825,4.742-4.427
		c0.663-0.72,2.359-2.49,3.203-1.459c0.874,1.067,0.534,3.89,2.56,4.253c0.823,0.148,1.538-0.934,1.69-1.586
		c0.328-1.404,0.381-2.942,1.844-3.23c1.566-0.309,4.888-2.608,1.292-3.305c-1.29-0.249-3.052-1.353-2.74-3.152
		c1.181-0.442,3.041,2.085,4.573,2.485c2.332,0.608,4.985,0.266,6.946-1.188C68.825,62.794,68.04,64.416,66.767,65.508z"/>
</g>
</svg>
