<?xml version="1.0" encoding="utf-8"?>
<!-- Generator: Adobe Illustrator 16.0.0, SVG Export Plug-In . SVG Version: 6.00 Build 0)  -->
<!DOCTYPE svg PUBLIC "-//W3C//DTD SVG 1.1//EN" "http://www.w3.org/Graphics/SVG/1.1/DTD/svg11.dtd">
<svg version="1.1" id="Layer_1" xmlns="http://www.w3.org/2000/svg" xmlns:xlink="http://www.w3.org/1999/xlink" x="0px" y="0px"
	 width="90px" height="90px" viewBox="0 0 90 90" enable-background="new 0 0 90 90" xml:space="preserve">
<g>
	<path d="M61.13,27.254c-2.595,1.611,2.741,5.189,3.81,6.449c0.664,0.781,1.556,2.828,2.522,3.195
		c0.548,0.208,1.263-2.284,1.371-2.604c0.646-1.909,2.098-5.892,0.991-7.861C68.45,23.987,62.792,26.223,61.13,27.254z"/>
	<path d="M74.708,31.709c0.489-2.729,1.077-6.294-0.417-8.833c-1.252-2.129-4.113-2.349-6.308-2.29
		c-3.041,0.081-6.124,0.834-8.875,2.133c-1.568,0.74-1.547,0.949-2.674,1.535c-0.393-0.012-0.974-0.106-1.326-0.16
		c-0.553-1.38-1.421-2.638-2.563-3.578c-5.384-4.436-12.366-2.918-16.042,2.542c-0.673,1-2.401,1.297-2.797,1.151
		c-3.027-1.827-7.069-3.506-10.595-3.618c-2.085-0.066-5.276,0.317-6.53,2.327c-1.534,2.46-1.092,5.884-0.636,8.564
		c0.561,3.297,2.595,6.518,1.532,9.734c-1.002,3.032-1.462,6.238-1.315,9.43c0.561,12.206,9.847,22.5,21.579,25.289
		c11.453,2.723,23.871-1.789,30.59-11.602c3.63-5.301,5.375-11.319,4.72-17.714c-0.243-2.373-1.684-4.481-0.803-6.661
		C73.325,37.298,74.203,34.533,74.708,31.709z M70.883,37.004c-0.587,1.721-1.847,3.456-1.235,5.293
		c3.954,11.89-2.993,24.743-14.082,29.646c-11.621,5.139-26.173,1.355-33.151-9.447c-3.261-5.049-4.603-11.23-3.601-17.167
		c0.513-3.039,2.054-5.171,1.021-8.179c-1.179-3.429-2.197-7.283-1.991-10.944c0.312-5.536,8.878-2.99,12.026-1.668
		c1.207,0.507,2.205,1.223,3.317,1.884c0.866,0.514,2.342-0.438,3.174-0.709c2.782-0.905,3.621-4.127,6.555-5.203
		c3.605-1.321,7.417,0.394,9.432,3.508c1.397,2.163,0.943,4.604,0.278,6.908c-0.167,0.578-0.803,3.27,0.656,3.113
		c1.106-0.142,0.552-2.418,2.021-2.717c1.348-0.274,2.861-0.779,0.664-1.796c-1.024-0.47-0.626-1.911-0.748-2.892
		c1.25,0.317,1.663,0.279,2.481-0.329c1.42-1.056,3.067-1.816,4.739-2.363c2.603-0.852,6.347-1.778,8.98-0.538
		c2.396,1.129,1.365,5.652,1.019,7.613C72.082,33.049,71.55,35.052,70.883,37.004z"/>
	<path d="M29.861,27.512c-1.931-1.456-4.935-2.254-7.334-1.944c-2.73,0.353-1.928,3.635-1.542,5.58
		c0.263,1.324,0.624,2.643,1.146,3.89c0.604,1.438,1.923-1.14,2.435-1.717c1.205-1.359,2.551-2.59,4.009-3.672
		C29.299,29.111,31.054,28.411,29.861,27.512z"/>
	<path d="M58.084,34.037c-0.928-0.138-1.486,2.785-1.882,3.448c-0.823,1.377-2.068,2.454-3.524,3.117
		c-3.128,1.423-7.13,1.051-10.064-0.649c-2.894-1.676-4.412-4.237-4.857-7.569c-0.096-0.714,0.332-3.783-0.616-4.051
		c-0.989-0.279-1.112,1.974-1.24,2.442c-1.557,5.654,2.19,11.425,7.507,13.203c3.693,1.235,8.086,1.146,11.462-0.925
		c1.718-1.053,2.833-2.447,3.4-4.395C58.469,37.973,59.379,34.221,58.084,34.037z"/>
</g>
</svg>
