<?xml version="1.0" encoding="utf-8"?>
<!-- Generator: Adobe Illustrator 16.0.0, SVG Export Plug-In . SVG Version: 6.00 Build 0)  -->
<!DOCTYPE svg PUBLIC "-//W3C//DTD SVG 1.1//EN" "http://www.w3.org/Graphics/SVG/1.1/DTD/svg11.dtd">
<svg version="1.1" id="Layer_1" xmlns="http://www.w3.org/2000/svg" xmlns:xlink="http://www.w3.org/1999/xlink" x="0px" y="0px"
	 width="90px" height="90px" viewBox="0 0 90 90" enable-background="new 0 0 90 90" xml:space="preserve">
<path d="M77.71,43.381c-9.203-8.572-11.729-23.399-25.424-26.665c-5.992-1.429-13.401-1.1-18.944,1.68
	c-2.079,1.045-3.96,1.505-5.841,3.046c-3.105,2.543-5.792,5.666-8.051,8.974c-1.844,2.699-3.381,5.577-4.005,8.807
	c-0.192,0.997-2.235-0.683-2.961-0.937c-1.184-0.415-2.342-0.355-3.108,0.739c-1.33,1.901,1.13,4.827,2.037,6.356
	c1.896,3.194,3.32,6.638,5.277,9.804c1.218,1.969,2.601,4.017,4.487,5.408c2.263,1.67,3.737,4.179,5.507,6.384
	c3.967,4.943,11.64,7.02,17.69,5.911c2.109-0.387,4.228-0.882,6.193-1.755c1.651-0.732,2.827-1.918,4.328-2.844
	c1.893-1.167,4.01-1.908,5.888-3.159c1.931-1.286,3.752-2.735,5.453-4.312c3.316-3.075,6.14-6.608,9.079-10.032
	C77.266,48.515,80.758,46.403,77.71,43.381z M42.928,19.254c6.021-0.443,12.096,0.684,16.656,4.852
	c4.799,4.385,6.954,10.441,10.681,15.602c-1.378-0.146-3.454,1.428-4.559,2.187c0.602-7.087-5.931-14.382-10.84-18.748
	c-1.257-1.118-2.856-2.549-4.626-2.549c-2.558,0-3.994,2.371-5.981,3.532c-0.968,0.566-3.914-0.03-5.148,0.133
	c-1.401,0.186-3.354-2.161-4.585-2.91C37.088,19.931,41.729,19.527,42.928,19.254z M68.727,42.222
	c-2.936,4.862-5.145,10.38-8.692,14.853c1.007-2.618,1.735-5.423,2.305-8.165C63.016,45.653,65.991,43.686,68.727,42.222z
	 M21.403,56.153c-3.104-4.241-5.039-9.114-7.763-13.578c2.121,1.27,5.878,3.018,6.383,5.653c0.587,3.069,1.177,6.057,2.311,8.992
	C21.994,56.891,21.684,56.535,21.403,56.153z M24.144,59.762c1.45-0.69-1.175-5.768-1.545-6.91
	c-0.911-2.795-0.571-5.768-2.819-7.946c-1.007-0.976-1.837-1.189-2.125-2.623c-0.275-1.366-0.115-2.779,0.276-4.106
	c0.67-2.269,1.952-4.37,3.267-6.315c2.462-3.643,5.686-7.96,9.682-10.038c1.019-0.53,3.063,0.907,3.859,1.538
	c0.884,0.699,1.741,1.501,2.663,2.144c1.045,0.729,2.319,0.209,3.478,0.175c1.156-0.034,2.709,0.381,3.817,0.003
	c0.951-0.324,1.845-1.347,2.625-1.967c1.931-1.534,3.085-1.9,5.092-0.477c3.415,2.424,7.546,6.738,9.293,10.631
	c0.694,1.541,1.989,3.102,2.28,4.797c0.185,1.07,0.255,2.267,0.098,3.344c-0.153,1.045,0.308,1.039-0.526,1.827
	c-0.572,0.541-1.096,1.137-1.534,1.792c-1.51,2.254-1.716,5.217-2.468,7.774c-0.648,2.395-1.588,4.696-2.546,6.863
	c0.271-1.396,0.388-2.814,0.549-4.226c0.201-1.764,0.967-3.402,1.193-5.112c0.383-2.888-4.734,0.861-5.363,1.175
	c1.125-3.588,1.081-6.999,0.577-10.711c-0.339-1.95-0.799-3.874-1.197-5.813c-0.411-2.004-2.284-1.606-3.817-1.218
	c-2.516,0.639-4.686,2.053-7.126,2.796c-1.713,0.521-4.459-1.555-6.062-2.116c-1.241-0.436-4.327-1.842-5.131-0.085
	c-0.966,2.112-1.394,4.676-1.682,6.965c-0.44,3.554-0.865,6.715,0.23,10.27c-1.185-0.605-2.238-1.42-3.382-2.091
	c-1.233-0.729-2.772-0.126-1.867,1.42c1.874,3.203,0.55,7.586,2.091,11.044C25.292,61.704,24.747,60.699,24.144,59.762z
	 M53.14,65.181c-2.95,3.555-8.32,4.866-12.749,4.664c-4.224-0.193-8.483-1.872-11.213-5.194c-3.228-3.927-1.915-8.119-3.278-12.574
	c1.721,1.128,6.647,4.643,4.435-1.689c1.749,0.109,8.017,4.533,9.07,2.178c0.934-2.093-6.43-5.617-7.695-6.136
	c-1.801-0.734-1.627-1.689-1.313-3.515c0.357-2.07,0.668-4.144,1.299-6.154c0.314-1.004,0.072-1.113,1.057-0.909
	c1.302,0.269,2.565,0.698,3.794,1.2c1.624,0.665,3.497,2.09,5.331,1.741c1.013-0.193,9.041-4.261,9.325-2.89
	c0.261,1.283,2.673,9.099,1.056,9.876c-2.246,1.08-8.487,3.301-9.159,6.103c-0.775,3.229,8.044-1.309,9.148-1.561
	c-0.186,0.951-1.461,3.658,0.463,3.653c1.137,0.252,3.164-1.438,3.992-1.974C55.349,56.385,56.262,61.421,53.14,65.181z
	 M74.873,46.494c-1.924,1.972-3.603,4.161-5.396,6.249c-3.833,4.464-8.107,8.72-13.379,11.458c0.734-1.125,1.798-2.027,2.365-3.27
	c0.729-1.587,2.789-2.412,3.809-3.901c1.741-2.555,3.313-5.212,4.712-7.972c0.681-1.342,1.218-2.777,2.067-4.027
	c0.704-1.036,2.058-2.733,2.248-3.947c1.024,1.305,2.125,2.55,3.298,3.723C75.66,45.869,75.627,45.405,74.873,46.494z"/>
</svg>
