<?xml version="1.0" encoding="utf-8"?>
<!-- Generator: Adobe Illustrator 16.0.0, SVG Export Plug-In . SVG Version: 6.00 Build 0)  -->
<!DOCTYPE svg PUBLIC "-//W3C//DTD SVG 1.1//EN" "http://www.w3.org/Graphics/SVG/1.1/DTD/svg11.dtd">
<svg version="1.1" id="Layer_1" xmlns="http://www.w3.org/2000/svg" xmlns:xlink="http://www.w3.org/1999/xlink" x="0px" y="0px"
	 width="90px" height="90px" viewBox="0 0 90 90" enable-background="new 0 0 90 90" xml:space="preserve">
<path d="M71.707,57.302c0.58-0.678,0.925-1.516,1.353-2.291c1.8-3.261,1.831-6.261-0.649-9.015
	c-0.453-0.503-1.003-1.194-1.576-1.559c-0.916-0.583,0.359-0.771,1.26-1.344c1.233-0.785,3.172-1.74,2.804-3.512
	c-0.442-2.125-2.949-1.052-4.218-1.866c0.182,0.116,2.151-1.42,2.394-1.642c0.758-0.692,1.192-1.794,0.754-2.782
	c-0.498-1.124-1.844-1.276-2.748-1.943c-1.083-0.797-1.875-1.92-2.539-3.073c-2.646-4.594-5.28-11.356-10.724-13.273
	c-1.3-0.458-2.927-0.768-4.287-0.441c-1.299,0.312-2.131-0.884-3.105-1.597c-2.544-1.86-5.402-3.063-8.604-2.931
	c-6.123,0.252-12.499,6.081-16.973,9.832c-1.883,1.578-3.425,4.235-5.727,5.199c-1.107,0.463-2.66-0.105-3.563,0.832
	c-0.974,1.011-0.446,2.633,0.275,3.609c0.633,0.857,1.435,1.595,2.356,2.124c1.064,0.611,1.313,0.254,0.748,1.307
	c-0.546,1.021-1.298,2.646-2.054,3.538c-0.857,1.012-2.467,0.581-2.949,2.071c-0.713,2.201,2.507,5.072,4.213,5.939
	c0.548,0.28-0.182,1.952-0.226,2.542c-0.101,1.37,0.181,2.746,0.655,4.027c0.508,1.37,1.271,2.631,2.171,3.777
	c0.896,1.139,0.911,1.032,0.925,2.216c-0.769,2.64,0.935,3.768,3.196,2.75c-0.087,0.065,1.294,2.72,1.428,2.993
	c0.752,1.537,2.138,2.637,3.837,1.857c0.604-0.277,3.984,3.155,4.704,3.674c2.144,1.545,4.498,2.529,7.143,2.77
	c5.191,0.472,9.146-2.047,12.93-5.29c0.735-0.63,0.981-0.894,1.649-1.049c0.541,0.253,1.135,0.305,1.679,0.027
	c1.98-1.012,1.738-3.609,3.071-4.987c-0.12,0.134,1.978,0.53,2.352,0.363c0.972,4.042,1.85,6.895,3.151,10.843
	c0.464,1.405,0.826,2.972,2.531,2.531c1.778-0.459,2.665-2.124,3.22-3.569c0.633-1.648,1.339-3.305,1.881-4.984
	c0.701-2.173-0.603-3.462-1.564-5.287C72.467,58.906,72.084,58.105,71.707,57.302z M21.528,46.353
	c0.3-0.899,0.335-1.206,0.817-1.037c1.196,3.893,1.468,7.143,3.81,9.695C23.5,53.313,20.598,49.737,21.528,46.353z M57.173,57.653
	c-1.349,3.084-4.723,5.642-7.307,7.665c-2.626,2.055-5.876,2.844-9.138,2.106c-2.292-0.518-4.331-2.202-6.052-3.713
	c-1.436-1.261-2.775-2.629-4.056-4.047c-0.926-1.024-1.226-2.771-2.411-3.519c1.863-0.12,0.881-2.321,0.582-3.416
	c-0.474-1.744-0.399-3.559-0.396-5.354c0.003-0.883,0.133-2.003,0.322-2.875c0.772-0.349,1.307-0.688,2.031-1.125
	c1.694,0.671,3.547,1.658,5.178,2.468c1.33,0.661,3.057,2.056,4.596,2.112c2.237,0.081,1.215-2.971,0.619-3.998
	c0.108-0.916,0.13-1.598,0.191-2.353c0.083-1.021,1.158-0.756,2.197-0.758c2.366-0.004,4.729,0.099,7.094,0.173
	c-2.34,0.764-6.932,2.448-5.834,5.955c0.713,2.281,4.057-0.161,5.153-0.732c2.356-1.228,4.759-2.521,7.293-3.346
	c0.392,3.031,0.182,6.312-0.77,9.228c-0.368,1.128-1.496,2.318-1.553,3.5c-0.072,1.508,1.565,1.656,2.603,1.24
	C57.406,57.118,57.327,57.424,57.173,57.653z M48.837,33.896c1.485,0,2.968,0.14,4.454,0.115c0.135,1.581,0.366,3.179,0.965,4.659
	c-4.134-0.256-8.277-0.371-12.419-0.292c0.257-0.958,0.582-1.898,0.964-2.813c0.557-1.335,0.531-1.832,1.948-1.764
	C46.109,33.866,47.475,33.896,48.837,33.896z M45.25,31.438c0.624-0.884,1.42-1.773,2.33-2.363c1.357-0.878,1,0.776,1.962,1.383
	c1.559,0.984,1.687-1.058,2.697-1.283c0.733,0.152,0.697,1.831,0.702,2.35C50.401,31.546,47.791,31.529,45.25,31.438z
	 M58.023,40.179c-1.398-0.285-2.34-4.463-2.461-5.522c-0.27-2.365,0.163-9.247-4.344-7.594c-1.238,0.454-1.95-0.953-3.563-0.5
	c-1.64,0.459-2.659,1.415-3.719,2.688c-2.594,3.112-4.308,7.291-4.844,11.281c-0.769-1.161-1.168-5.575-2.946-5.325
	c-1.515,0.213-3.553,3.386-4.629,4.52c-0.827,0.872-0.892,0.879-1.962,1.47c-0.8,0.442-1.653,0.855-2.413,1.359
	c-1.519,1.007-1.008,6.965-0.894,8.757c-0.56-1.594-1.938-7.875-2.813-8.313c-0.956-0.478-1.658-0.56-2.688-0.927
	c-1.146-0.407-2.096-1.21-2.878-2.124c2.268-1.181,2.999-4.116,4.315-6.112c0.614-0.93,2.162-2.316,0.986-3.472
	c-0.954-0.938-2.425-1.115-3.528-2.006c2.744-0.619,3.891-2.717,5.782-4.555c2.209-2.146,4.7-4.055,7.233-5.8
	c4.864-3.353,9.445-6.44,15.013-2.912c1.108,0.703,2.021,1.558,3.012,2.404c1.447,1.236,2.374,0.26,3.981,0.26
	c2.583,0,3.643,1.322,5.278,3.088c3.663,3.955,4.934,10.76,9.735,13.558c-1.274,0.583-5.501-1.148-4.593,1.813
	c0.588,1.917,2.751,3.941,4.579,4.638c-1.038,0.514-2.074,1.105-3.19,1.249c-1.048,0.135-2.163-0.022-3.007,0.742
	c-0.968,0.877-1.13,3.1-1.406,4.281c-0.429,1.83-2.464,5.524-3.594,7.031c1.188-4.156,1.223-9.253,1.281-10.719
	C59.671,42.113,59.566,40.495,58.023,40.179z M63.708,52.367c-0.226,0.676-2.866,2.403-3.537,2.783
	c2.675-2.56,3.978-6.287,4.505-9.874c2.345,1.633-0.16,5.667-0.947,7.054C63.756,52.283,63.791,52.221,63.708,52.367z
	 M71.117,64.469c-0.42,1.457-1.447,3.65-1.781,5.275c-0.698-2.722-1.281-6.44-2.12-9.102c-0.567-1.801-1.857-5.318-1.736-5.789
	c0.211-0.822,0.356-1.228,0.78-1.895c1.024,2.771,2.178,5.501,3.581,8.103C70.455,62.202,71.493,63.165,71.117,64.469z
	 M70.016,53.172c-0.669-1.022-0.99-2.098-1.843-2.991c-0.757-0.792-0.042-3.126-0.441-4.506c1.013,1.322,2.103,2.59,3.318,3.73
	C72.245,50.528,70.706,51.823,70.016,53.172z"/>
</svg>
