<?xml version="1.0" encoding="utf-8"?>
<!-- Generator: Adobe Illustrator 16.0.0, SVG Export Plug-In . SVG Version: 6.00 Build 0)  -->
<!DOCTYPE svg PUBLIC "-//W3C//DTD SVG 1.1//EN" "http://www.w3.org/Graphics/SVG/1.1/DTD/svg11.dtd">
<svg version="1.1" id="Layer_1" xmlns="http://www.w3.org/2000/svg" xmlns:xlink="http://www.w3.org/1999/xlink" x="0px" y="0px"
	 width="90px" height="90px" viewBox="0 0 90 90" enable-background="new 0 0 90 90" xml:space="preserve">
<path d="M75.509,42.073c0.345-1.464-0.294-2.739-1.861-2.929c-2.495-0.303-2.212,0.575-3.336-2.095
	c-2.086-4.955-3.693-12.265-8.907-14.846c-0.781-0.387-3.516-0.907-3.795-1.766c-0.441-1.352-0.966-2.739-2.102-3.666
	c-3.001-2.451-8.508-3.085-12.226-3.477c-4.153-0.438-8.354-0.231-12.504,0.151c-1.283,0.119-2.516,0.432-2.594,1.994
	c-0.1,1.98,2.725,1.927,2.811,2.874c0.007,0.102-4.969,2.579-5.438,2.902c-2.168,1.496-4.12,3.289-5.914,5.213
	c-1.237,1.326-3.823,3.402-3.811,5.389c0.006,0.94,0.471,1.753,1.438,1.95c0.545,0.11,2.598-0.594,2.843-0.363
	c0.002,0.002-1.217,3.2-1.284,3.438c-0.529,1.871-0.058,2.405-2.004,2.275c-4.386-0.294-2.328,4.537-1.078,6.621
	c1.121,1.868,2.48,3.598,3.963,5.189c0.8,0.858,1.896,2.697,2.889,3.311c1.208,0.745,1.264,0.463,0.973,1.955
	c-0.3,1.534-0.64,3.064-1.024,4.581c-0.296,1.169-0.995,2.62-0.16,3.723c0.779,1.03,1.983,0.103,2.04,1.366
	c0.137,3.039,1.43,4.783,3.973,6.399c1.326,0.844,6.659,4.492,6.902,0.596c0.069-1.104-1.593-6.574-0.788-7.32
	c-0.019,0.018,3.436,2.513,3.833,2.739c1.774,1.015,3.57,1.361,5.559,1.691c1.594,0.266,3.455-0.136,4.971-0.62
	c2.355-0.753,3.833-2.599,5.954-3.59c-0.302,0.142-0.55,4.786-0.639,5.392c-0.274,1.872,0.316,4.25,2.713,3.334
	c2.395-0.914,5.391-2.584,6.978-4.662c0.099-0.13,0.783-1.474,0.801-1.466c1.229,0.534,2.198,1.943,3.477,2.571
	c2.072,1.018,4.774,1.464,5.693-1.162c0.444-1.27,0.478-2.674,0.336-3.999c-0.119-1.108-1.432-3.535-1.163-4.484
	c0.231-0.817,0.794-1.012,0.586-2.04c-0.298-1.476-1.372-2.774-2.472-3.743c-0.899-0.791-3.03-2.72-1.774-3.954
	C71.906,49.055,74.674,45.619,75.509,42.073z M21.564,48.397c-1.582-1.776-3.162-3.819-4.133-6.008
	c0.398,0.089,4.078,1.422,4.264,1.245C21.191,45.152,21.289,46.848,21.564,48.397z M54.417,61.969
	c-3.167,2.992-6.594,5.467-11.142,4.832c-2.235-0.313-4.071-1.449-5.818-2.834c-0.843-0.668-1.65-1.384-2.423-2.132
	c0.776-0.784-0.347-2.156-0.697-2.864c-1.607-3.254-2.847-6.986-3.071-10.617c-0.109-1.817-0.534-2.625,1.1-3.66
	c1.813-1.104,2.9-0.313,4.811,0.36c-0.417,0.668-3.569,5.24-0.471,4.318c1.765-0.525,3.77-1.481,5.279-2.516
	c4.209-2.899,8.236-5.764,10.836-10.334c0.705,1.2,1.501,2.335,2.329,3.452c-2.518,0.959-6.067,2.412-8.003,4.207
	c-1.48,1.371,1.281,2.776,2.563,2.176c1.717-0.807,3.514-1.488,5.313-2.089c1.207-0.402,3.226-1.502,3.231,0.308
	c0.005,1.877-0.123,3.802-0.377,5.662c-0.406,2.976-1.525,6.254-2.948,8.89C54.541,59.846,53.384,61.303,54.417,61.969z
	 M70.998,59.421c-0.266,0.093-1.706-0.452-1.813,0.026c-0.118,0.529,1.299,2.187,1.542,2.705c0.588,1.255,1.013,2.611,1.167,3.992
	c0.088,0.791,0.241,2.588-0.479,3.174c-0.699,0.57-2.513-0.534-3.091-0.913c-0.946-0.62-1.765-1.424-2.475-2.3
	c-0.385-0.475-1.761-3.343-2.309-3.343c-0.876,0-1.064,4.728-1.432,5.428c-0.819,1.559-2.887,2.469-4.355,3.288
	c-2.232,1.246-1.067-1.529-0.874-2.993c0.314-2.399,0.808-4.836,0.942-7.252c0.015-0.273,0.045-0.594-0.272-0.674
	c-0.152-0.044-0.299-0.023-0.442,0.061c-0.845,0.477-0.189-0.045-1.1-0.15c2.127-3.873,3.405-8.293,3.691-12.692
	c0.156-2.391,0.441-4.24-1.1-6.121c-1.162-1.42-2.368-2.805-3.391-4.331c-1.3-1.939-2.256-4.152-3.861-1.433
	c-1.21,2.051-2.825,3.897-4.591,5.484c-2.628,2.36-5.79,4.706-9.158,5.917c1.191-1.787,2.307-3.624,3.49-5.417
	c0.472-0.761,2.253-2.902,1.013-3.739c-1.139-0.77-3.368,1.079-4.293,1.579c-1.85,1-3.685,2.093-5.496,3.154
	c-1.244,0.729-2.774,1.354-2.777,2.998c-0.003,1.629,0.148,3.32,0.4,4.926c0.455,2.903,1.68,5.57,2.707,8.292
	c0.392,1.041,0.875,1.118,0.388,1.946c-0.216-0.2-1.401-0.962-1.506-0.152c-0.157,1.208,0.274,2.609,0.437,3.804
	c0.254,1.856,0.505,3.713,0.756,5.569c0.023,0.171,0.379,1.788,0.051,1.788c-0.921,0-2.396-1.225-3.135-1.718
	c-1.553-1.037-2.652-1.921-2.858-3.832c-0.077-0.708,0.128-6.576-0.037-6.576c-0.857,0-1.192,1.86-1.916,1.86
	c0.063,0,1.921-9.115,2.058-10.237c0.119-0.975,0.903-4.152-0.141-4.781c-1.167-0.702-2.836,2.514-3.146,3.261
	c-0.374-1.494-0.75-2.949-0.643-4.507c0.139-2.009,0.966-3.367-1.764-3.729c-1.712-0.228-0.71-2.028-0.364-3.505
	c0.297-1.264,0.702-2.554,1.311-3.706c0.475-0.897,4.397-4.571,3.854-5.173c-0.419-0.463-7.208,1.729-7.217,1.774
	c0.333-1.619,3.059-3.648,4.192-4.745c1.578-1.527,3.279-2.943,5.166-4.077c1.666-1.002,3.465-1.757,5.342-2.263
	c0.942-0.254,5.819-0.176,6.17-0.898c0.192-0.395-5.175-1.989-5.621-2.157c-0.426-0.16-3.741-1.182-1.833-1.342
	c6.275-0.524,12.543-0.333,18.586,1.558c2.743,0.857,4,1.617,4.791,4.591c0.471,1.771,4.883,2.378,6.453,3.511
	c1.931,1.394,2.778,4.795,3.666,6.895c0.691,1.628,1.414,3.242,2.1,4.873c0.14,0.333,1.296,2.41,1.071,2.781
	c-0.211,0.313-3.323-1.839-3.987-1.839c-0.436,0,1.022,3.594,0.567,4.35c-0.374,0.615-1.058,0.748-1.458,1.433
	c-0.434,0.737-0.894,1.459-1.322,2.2c-0.626,1.081-0.976,1.459-1.028,2.659c0.074,1.158,0.219,5.16,1.332,5.81
	c-0.008,0.951-0.009,4.173,1.598,3.586c0.532-0.193,3.064-2.067,3.389-1.926C68.335,56.354,71.658,59.166,70.998,59.421z
	 M37.922,41.478c0.564-0.551,1.625-0.881,2.273-1.214C39.424,41.541,39.38,42.269,37.922,41.478z M26.085,48.882
	c-0.134,0.952-0.371,2.338-0.581,3.276C24.397,51.232,25.141,49.88,26.085,48.882z M64.158,54.181
	c0.37-0.794,1.523-1.544,2.184-0.87c1.864,1.9-0.285,2.816-1.951,3.612C64.256,56.26,63.867,54.814,64.158,54.181z M65.77,50.691
	c-0.668,0.604-1.219,1.294-1.889,1.891c-0.207-1.398-0.587-2.767-0.679-4.182c-0.043-0.665,0.91-1.704,1.265-2.289
	c0.55-0.906,0.799-1.709,1.835-2.046c1.91-0.622,3.834-1.179,5.786-1.652C70.742,45.567,68.288,48.411,65.77,50.691z"/>
</svg>
