<?xml version="1.0" encoding="utf-8"?>
<!-- Generator: Adobe Illustrator 16.0.0, SVG Export Plug-In . SVG Version: 6.00 Build 0)  -->
<!DOCTYPE svg PUBLIC "-//W3C//DTD SVG 1.1//EN" "http://www.w3.org/Graphics/SVG/1.1/DTD/svg11.dtd">
<svg version="1.1" id="Layer_1" xmlns="http://www.w3.org/2000/svg" xmlns:xlink="http://www.w3.org/1999/xlink" x="0px" y="0px"
	 width="90px" height="90px" viewBox="0 0 90 90" enable-background="new 0 0 90 90" xml:space="preserve">
<path d="M65.977,42.113c-1.389-0.348-0.726-1.088,0.145-1.95c1.384-1.368,2.557-2.952,3.432-4.691
	c1.515-3.009,2.179-6.594,1.246-9.884c-0.683-2.41-3.036-6.207-5.996-5.891c-1.794,0.192-2.413,2.015-1.66,3.502
	c0.727,1.438-0.048,2.838-0.921,3.994c-0.178-2.142-1.208-4.978-3.947-3.335c-0.322-1.403-0.648-3.169-1.807-4.162
	c-0.674-0.577-1.656-0.676-2.468-0.364c-0.309,0.119-1.397,0.999-1.582,1.376c-0.356-0.601-1.838-2.343-2.315-2.938
	c-0.951-1.186-2.081-2.328-2.825-3.663c-0.95-1.704-0.931-5.5-4.115-3.782c-1.099,0.593-1.004,1.83-1.241,2.88
	c-0.197,0.878-0.807,1.611-1.35,2.3c-1.4,1.777-2.829,3.524-4.181,5.338c-2.047-1.876-4.641-1.126-5.149,0.656
	c-0.208,0.731-0.4,1.455-0.636,2.173c-0.075,0.228-1.532-0.21-1.824-0.187c-2.564,0.206-1.138,2.384-2.24,3.571
	c-0.181,0.195-1.108-2.239-1.119-2.399c-0.112-1.653,1.494-3.274-0.34-4.588c-2.739-1.961-5.972,2.527-6.773,4.675
	c-1.141,3.056-0.778,6.515,0.424,9.493c0.691,1.712,1.67,3.304,2.865,4.71c0.785,0.924,1.945,1.659,2.161,2.924
	c-12.287,2.977-4.094,17.616-0.34,24.582c4.043,7.503,11.165,16.179,20.748,11.304c0.732-0.372,3.697,1.012,4.67,1.107
	c2.384,0.233,5.04,0.083,7.168-1.117c3.714-2.094,6.358-5.977,8.468-9.564c2.918-4.964,5.42-10.521,6.919-16.091
	C72.609,47.577,70.731,43.304,65.977,42.113z M66.997,25.952c1.769,3.976-1.014,9.122-3.81,11.93
	c-0.807-1.388-0.862-3.196-2.086-4.168C63.576,31.706,66.199,29.155,66.997,25.952z M61.11,42.708
	c-1.196,0.652-2.182,2.257-2.588,3.633c-0.07,0.232-0.139,0.464-0.209,0.696c-2.692-1.174-5.547-0.509-8.235-1.584
	c2.546-1.273,3.954-3.829,6.228-5.401c0.635-0.386,2.243-1.446,3.007-0.802C60.269,40.055,59.659,42.598,61.11,42.708z
	 M29.412,35.518c0.729-0.541,1.48-1.362,1.584-2.323c0.186-1.707-1.159-3.872-1.217-5.717c0.755,0.683,1.916,1.164,3.081,1.164
	c0.953,0,0.766-4.069,1.054-5.161c0.371,1.054,1.442,2.995,2.782,2.995c1.266,0,1.505-2.594,2.02-3.438
	c1.65-2.707,4.404-4.789,5.744-7.679c1.033,2.428,3.61,5.329,5.431,7.259c0.912,0.968,0.696,2.364,1.783,3.117
	c1.443,1,2.947-1.299,3.329-2.262c0.247,0.88,0.453,1.618,0.476,2.542c0.023,0.902-0.396,2.191-0.081,3.051
	c0.617,1.69,3.311-1.276,3.666-1.602c-0.016,1.511-1.887,5.411-0.848,6.461c0.066,0.647,0.54,1.055,1.032,1.4
	c1.236,0.866-0.167,0.117,0.144,0.702c0.369,0.693,0.705,1.414,1.121,2.081c-3.393-3.668-8.892,6.313-12.451,6.338
	c1.651-1.499,2.73-3.26,3.908-5.12c1.195-1.884,1.356-4.206,3.272-5.629c0.905-0.672,0.764-1.753-0.273-2.235
	c-1.317-0.613-2.309,0.396-3.478,0.696c-1.034,0.265-2.102-0.057-3.076,0.458c-1.113,0.587-2.545,0.903-3.793,0.903
	c-1.297,0-2.922-0.153-4.048-0.87c-0.924-0.587-2.03-0.257-3.056-0.458c-1.034-0.202-1.677-0.825-2.787-0.825
	c-1.225,0-2.42,1.203-1.201,2.219c1.61,1.342,2.006,2.871,2.93,4.73c1.141,2.295,2.493,4.405,4.4,6.144
	c-3.253-0.044-9.476-10.133-12.542-6.226C28.726,37.572,28.952,35.858,29.412,35.518z M47.117,43.41
	c-1.394,1.267-2.533,0.64-4.36,0.934c-0.319-0.716-1.503-1.431-2.042-2.004c-0.987-1.05-1.79-2.293-2.445-3.571
	c-1.082-2.108-1.083-4.175-2.521-5.55c0.888,0.292,0.634,0.418,1.506,0.59c0.761,0.15,1.689-0.084,2.409,0.167
	c2.035,0.712,3.754,1.385,5.996,1.137c1.518-0.168,2.965-1.179,4.453-1.179c1.684,0,2.157-0.604,3.667-0.997
	c-2,1.969-2.274,4.556-3.721,6.889C49.239,41.15,48.271,42.362,47.117,43.41z M29.594,39.313c0.614-0.524,2.379,0.333,2.876,0.666
	c2.265,1.594,3.771,4.269,6.347,5.48c-2.677,1.096-5.56,0.372-8.21,1.581C30.011,45.313,29.31,44,27.944,42.86
	C29.241,42.561,28.597,40.163,29.594,39.313z M21.903,26.058c0.59,3.049,3.616,5.769,5.912,7.657
	c-0.782,0.594-1.492,1.44-1.096,2.488c-0.295,0.58-0.672,1.124-1.005,1.682C22.661,35.083,20.209,30.209,21.903,26.058z
	 M67.594,51.757c-2.198,7.157-5.491,14.921-10.642,20.483c-1.668,1.801-3.458,2.907-5.954,2.974c-1.381,0.036-2.84-0.001-4.13-0.556
	c-1.429-0.615-2.387-1.815-3.923-0.556c-2.146,1.761-6.419,1.574-8.673,0.128C29.236,71,26.253,64.175,23.991,58.917
	c-1.195-2.78-3.199-6.455-3.195-9.562c0.004-3.04,3.312-3.94,5.823-3.94c2.199,0,1.071,4.293,3.531,4.293
	c0.878,0,1.712-0.685,2.565-0.87c1.261-0.272,2.647-0.322,3.925-0.449c1.771-0.176,3.092-1.025,4.832-1.341
	c2.992-0.544,4.953-0.451,7.778,0.544c0.578,0.204,1.955,0.603,2.563,0.672c1.234,0.141,1.819,0.304,2.891,0.384
	c1.377,0.103,2.725,0.999,4.045,0.999c1.72,0,1.86-2.211,2.334-3.402c0.765-1.92,4.942-0.419,6.047,0.628
	C68.529,48.2,68.092,50.136,67.594,51.757z"/>
</svg>
