<?xml version="1.0" encoding="utf-8"?>
<!-- Generator: Adobe Illustrator 16.0.0, SVG Export Plug-In . SVG Version: 6.00 Build 0)  -->
<!DOCTYPE svg PUBLIC "-//W3C//DTD SVG 1.1//EN" "http://www.w3.org/Graphics/SVG/1.1/DTD/svg11.dtd">
<svg version="1.1" id="Layer_1" xmlns="http://www.w3.org/2000/svg" xmlns:xlink="http://www.w3.org/1999/xlink" x="0px" y="0px"
	 width="90px" height="90px" viewBox="0 0 90 90" enable-background="new 0 0 90 90" xml:space="preserve">
<g>
	<path d="M44.654,35.255c3.795,0,4.664-5.702,0.875-6.573C40.78,27.589,39.91,35.255,44.654,35.255z"/>
	<path d="M70.951,49.819c-0.318-0.275-2.101-1.04-2.165-1.314c-0.299-1.284-0.109-2.781-0.168-4.093
		c-0.14-3.1-0.252-6.377-0.973-9.402c-1.397-5.87-5.712-9.59-11.34-11.355c-1.297-0.406-2.021-1.716-3.078-2.535
		c-1.25-0.97-2.681-1.697-4.188-2.171c-3.268-1.028-6.723-0.815-9.89,0.442c-1.792,0.712-5.876-2.819-7.251-3.733
		c-2.471-1.644-5.157-2.76-8.043-1.399c-2.552,1.203-3.722,3.953-3.731,6.658c-0.005,1.513,0.92,2.466-0.672,2.903
		c-1.527,0.42-2.595,1.368-3.271,2.795c-1.19,2.513-0.588,5.393,1.098,7.521c0.965,1.219,2.23,2.179,3.616,2.87
		c1.432,0.714,0.51,2.851,0.384,4.283c-0.065,0.738,0.01,7.228-0.389,7.342c-3.334,0.982-4.736,4.84-4.309,7.993
		c0.405,2.982,1.969,5.882,4.182,7.911c1.135,1.041,2.033,1.476,2.802,2.838c0.879,1.559,2.06,2.934,3.394,4.121
		c2.258,2.008,4.894,3.325,7.586,4.639c2.834,1.36,5.012,2.94,8.268,3.418c2.914,0.427,6.043-0.142,8.745-1.262
		c1.33-0.552,2.463-1.759,3.77-2.219c1.691-0.604,3.289-1.467,4.773-2.473c2.525-1.713,5.014-3.953,6.402-6.718
		c1.025-1.465,2.679-2.292,3.867-3.724C73.287,59.638,74.917,53.248,70.951,49.819C70.391,49.335,75.163,53.461,70.951,49.819z
		 M60.081,29.388c2.065,1.354,3.788,3.994,4.244,6.416c-2.569,0.103-5.148,0.038-7.719,0.081c0.846-2.802,0.666-5.863-0.442-8.567
		C57.542,27.848,58.849,28.58,60.081,29.388C61.981,30.634,58.734,28.505,60.081,29.388z M55.915,38.512
		c1.271-2.464,7.801,0.636,9.981-1.075c0.132,1.246,0.129,2.502,0.266,3.747c-1.481-0.619-3.819-0.166-5.458-0.193
		c-2.128-0.035-4.284-0.001-6.405-0.091C54.924,40.167,55.474,39.369,55.915,38.512C56.057,38.236,55.486,39.346,55.915,38.512z
		 M62.599,42.957c0.927,0.055,2.359-0.435,2.389,0.664c0.033,1.216-0.004,2.432,0.012,3.647c0,1.045-0.145,2.577,0.437,3.525
		c-0.598,1.71-0.41,3.754-0.785,5.538c-0.718-0.65-1.564-1.208-2.253-1.884c0.017-1.202,0.313-2.437,0.384-3.644
		C62.938,48.207,62.963,45.539,62.599,42.957C62.833,42.971,63.002,45.818,62.599,42.957z M58.722,45.676
		c-2.445-1.953-5.651-1.586-8.045,0.258c0.717-1.404,1.897-3.147,3.485-3.076c0.869,0.038,1.751-0.076,2.614-0.032
		C57.333,43.889,58.381,44.438,58.722,45.676C57.616,44.792,58.521,44.944,58.722,45.676z M43.149,21.86
		c12.464-2.073,16.487,17.927,4.018,20.216c-5.256,0.964-10.845-1.539-12.32-7.057C33.248,29.04,37.02,22.888,43.149,21.86
		C43.684,21.771,40.353,22.329,43.149,21.86z M27.21,53.732c0.449,0.97-1.578,2.058-2.167,2.615
		c-0.711-3.004-0.49-5.726-0.482-8.715c0.013-1.34-0.011-2.683,0.061-4.021c0.051-0.951,1.611-0.527,2.477-0.57
		C26.636,46.566,26.723,50.215,27.21,53.732z M27.252,41.014c-1.112,0.044-2.774-0.292-3.75,0.285
		c0.178-1.245,0.349-2.496,0.426-3.753c1.458,0.914,4.131,0.47,5.822,0.448c1.054-0.014,2.107-0.053,3.156-0.154
		c0.31-0.03,1.942,2.792,2.376,3.269C32.652,41.294,29.896,40.938,27.252,41.014C27.054,41.021,27.456,41.008,27.252,41.014z
		 M32.157,43.726c0.667-1.216,1.923-0.638,3.104-0.696c1.81-0.089,2.942,1.169,3.767,2.903c-2.411-1.829-5.606-2.235-8.052-0.247
		C31.189,44.931,31.598,44.272,32.157,43.726z M19.091,28.979c0.714-3.329,3.273-0.841,5.218-0.841c1.922,0,0.918-2.269,0.483-3.141
		c-0.809-1.621-1.642-3.737-1.022-5.562c2.053-6.042,9.477,2.402,12.956,3.024c0,0.351-2.927,3.498-3.391,4.555
		c-1.202,2.743-1.396,5.882-0.558,8.755c-2.325,0.125-4.686,0.091-7.014,0.042c-0.929-0.02-0.712-0.956-1.605-1.329
		c-0.928-0.388-1.8-0.571-2.629-1.19C20.343,32.406,18.739,30.619,19.091,28.979C19.479,27.169,18.736,30.631,19.091,28.979z
		 M22.822,51.406C22.815,51.985,22.82,51.406,22.822,51.406C22.822,51.406,22.821,51.406,22.822,51.406z M65.388,62.992
		c-1.856,1.141-2.502,3.566-4.002,5.135c-2.357,2.467-5.189,3.479-8.043,5.145c-4.94,2.882-10.829,4.654-15.911,0.632
		c-2.166-1.713-4.995-2.457-7.223-4.175c-1.013-0.781-1.962-1.661-2.758-2.666c-0.82-1.036-1.187-2.462-2.118-3.381
		c-1.877-1.851-3.739-2.821-4.815-5.429c-0.878-2.13-1.111-5.973,1.934-6.536c0.208,1.851,0.023,5.103,1.267,6.664
		c1.177,1.478,4.392-1.788,5.194-2.818c1.199-1.538-1.799-13.228,1.159-12.425c-0.787,1.064-2.396,4.941-0.537,5.752
		c1.073,0.468,1.77-0.845,2.397-1.432c0.939-0.878,2.17-1.333,3.454-1.108c1.699,0.296,4.296,3.829,5.714,3.154
		c1.914-0.909-0.612-5.189-1.412-6.175c3.273,1.471,7.25,1.352,10.477-0.178c-0.914,1.103-3.261,4.75-1.802,6.16
		c1.297,1.255,3.557-1.995,4.614-2.517c1.084-0.533,2.331-0.68,3.467-0.209c1.196,0.494,1.691,1.729,2.773,2.277
		c2.846,1.443,1.019-4.941,0.328-5.82c1.349,0.004,1.149,0.188,1.253,1.54c0.127,1.661,0.137,3.334,0.078,4.999
		c-0.103,2.926-1.196,5.101,1.238,7.128c1.178,0.981,3.444,3.624,4.286,0.767c0.558-1.896,0.508-3.868,0.865-5.791
		C72.95,53.268,68.416,61.132,65.388,62.992C64.402,63.598,68.659,60.982,65.388,62.992z"/>
	<path d="M61.414,57.205c-2.285,0-4.917,1.333-7.204,1.717c-1.686,0.421-1.8,0.656-2.21,2.404c0,5.008-7.311,6.025-10.744,4.32
		C39.486,64.767,38,63.09,38,61.024c-0.483-1.714-0.953-1.795-2.747-2.144c-2.056-0.357-4.317-0.703-6.256-1.51
		c-3.485-1.457-3.135,4.359-2,6.009c0.777,1.13,1.625,1.043,1.856,2.383c0.244,1.42,1.181,2.616,2.459,3.259
		c1.017,0.511,2.188,0.663,3.307,0.479c1.479-0.244,1.352,1.021,2.581,1.887c1.923,1.356,4.641,1.372,6.702,0.324
		c1.708-0.868,3.472,0.915,5.614,0.708c0.97-0.095,1.942-0.368,2.769-0.898c0.847-0.543,1.377-2.159,2.2-1.798
		c2.079,0.91,4.688-0.539,5.713-2.403c0.099-0.181,0.635-2.455,0.535-2.415c1.098-0.42,1.902-1.368,2.318-2.446
		C63.593,61.057,63.726,57.205,61.414,57.205z M43.329,69.328c-1.471,1.036-4.479,1.154-5.478-0.659
		c-1.214-2.207-1.128-2.044-3.586-1.485c-2.116,0.48-2.88-1.17-3.104-2.896c-0.261-2.005-3.585-1.911-2.664-4.589
		c1.164,0.358,2.335,0.672,3.521,0.949c1.255,0.294,3.275,0.109,3.524,1.406c0.776,4.051,4.63,6.567,8.558,6.814
		C43.843,69.022,43.586,69.175,43.329,69.328C42.654,69.804,43.563,69.164,43.329,69.328z M59.871,62.644
		c-1.673,0.549-1.369,1.566-1.653,3.033c-0.396,2.051-3.036,1.412-4.308,1.024c-1.95-0.596-1.775,1.679-2.776,2.563
		c-1.883,1.66-3.875,0.376-5.743-0.39c3.422-0.185,7.095-1.979,8.402-5.323c0.276-0.705,0.45-1.475,0.478-2.232
		c0.569-0.119,1.144-0.211,1.713-0.328c1.661-0.342,3.317-0.739,4.922-1.288C61.129,60.7,61.061,62.256,59.871,62.644
		C58.552,63.076,60.781,62.347,59.871,62.644z"/>
</g>
</svg>
