<?xml version="1.0" encoding="utf-8"?>
<!-- Generator: Adobe Illustrator 16.0.0, SVG Export Plug-In . SVG Version: 6.00 Build 0)  -->
<!DOCTYPE svg PUBLIC "-//W3C//DTD SVG 1.1//EN" "http://www.w3.org/Graphics/SVG/1.1/DTD/svg11.dtd">
<svg version="1.1" id="Layer_1" xmlns="http://www.w3.org/2000/svg" xmlns:xlink="http://www.w3.org/1999/xlink" x="0px" y="0px"
	 width="90px" height="90px" viewBox="0 0 90 90" enable-background="new 0 0 90 90" xml:space="preserve">
<path d="M65.977,42.113c-0.394-0.099-0.755-0.194-0.803-0.213c-0.299-0.115,0.163-0.96,0.948-1.737
	c6.429-6.355,6.854-15.894,0.884-19.856c-2.538-1.685-5.177,0.292-3.862,2.893c0.534,1.057,0.354,2.214-0.542,3.464l-0.379,0.53
	l-0.093-0.936c-0.198-1.997-0.77-2.691-2.28-2.768c-0.614-0.031-0.743-0.012-1.133,0.167l-0.441,0.202l-0.137-0.573
	c-0.424-1.769-1.19-3.543-1.73-4.005c-1.205-1.031-3.313-0.507-3.741,0.93c-0.209,0.703-0.158,0.718-0.885-0.267
	c-0.752-1.019-1.535-2.012-2.799-3.55c-1.789-2.177-2.036-2.621-2.166-3.886c-0.192-1.873-1.431-2.842-3.076-2.404
	c-1.079,0.287-1.569,0.973-1.715,2.404c-0.135,1.317-0.326,1.643-2.57,4.378c-0.691,0.843-1.664,2.078-2.161,2.746l-0.904,1.213
	l-0.167-0.515c-0.659-2.034-3.418-2.177-4.396-0.228c-0.383,0.764-0.828,1.991-1.058,2.923c-0.238,0.964-0.164,0.88-0.593,0.666
	c-0.523-0.262-1.483-0.289-2.093-0.06c-0.905,0.339-1.26,0.973-1.428,2.547c-0.05,0.47-0.102,0.866-0.114,0.88
	c-0.061,0.065-0.841-1.225-0.963-1.593c-0.257-0.773-0.208-1.695,0.124-2.306c1.206-2.223-1.084-4.404-3.328-3.17
	c-6.487,3.565-6.305,13.649,0.365,20.186c0.688,0.675,0.77,0.786,0.889,1.221l0.131,0.479l-0.289,0.075
	c-0.158,0.041-0.522,0.134-0.809,0.206c-3.549,0.892-5.805,3.844-5.655,7.399c0.087,2.054,1.797,7.144,4.112,12.24
	c4.258,9.372,8.735,15.02,13.156,16.596c2.579,0.919,7.358,0.657,9.697-0.531l0.39-0.198l0.725,0.313
	c3,1.294,7.906,1.3,10.474,0.014c5.035-2.522,10.384-10.635,14.58-22.113c1.296-3.546,1.683-5.079,1.674-6.64
	C71.795,45.598,69.704,43.046,65.977,42.113z M50.999,75.214c-0.205,0.005-0.404,0.008-0.598,0.008
	c-2.115,0-3.436-0.333-4.555-1.148c-0.395-0.288-0.866-0.594-1.462-0.594c-0.598,0-1.044,0.299-1.438,0.622
	c-0.838,0.688-2.77,1.168-4.695,1.168c-1.101,0-2.105-0.157-2.829-0.442c-4-1.575-8.971-9.138-12.972-19.739
	c-0.71-1.882-1.654-4.523-1.653-5.735c0.003-2.27,1.661-3.578,4.929-3.887c0.379-0.036,0.663-0.053,0.894-0.053
	c0.744,0,0.898,0,1.572,1.98l0.019,0.056c0.429,1.261,0.769,2.258,1.94,2.258c0.441,0,0.795-0.171,1.244-0.388l0.032-0.015
	c1.038-0.501,1.672-0.642,4.159-0.678l2.006-0.028l0.769-0.363c0.262-0.124,0.715-0.313,0.99-0.412
	c0.35-0.127,0.862-0.346,1.166-0.498c0.156-0.078,0.544-0.202,0.956-0.277c0.456-0.083,1.112-0.217,1.463-0.299
	c0.323-0.076,0.84-0.119,1.417-0.119c0.747,0,1.511,0.072,2.045,0.193c0.514,0.116,1.127,0.25,1.368,0.299
	c0.113,0.022,0.455,0.137,0.696,0.247c0.332,0.153,0.792,0.343,1.049,0.434c0.162,0.057,0.587,0.24,0.913,0.399l0.893,0.436
	l1.569-0.029c2.021-0.038,3.395,0.154,4.493,0.639c0.507,0.224,0.908,0.401,1.371,0.401c1.301,0,1.626-1.103,2.076-2.629
	c0.468-1.584,0.698-1.584,1.463-1.584c0.168,0,0.357,0.009,0.58,0.027c3.955,0.325,4.811,1.729,5.114,2.916
	c0.265,1.035,0.178,1.783-0.939,5.069c-2.435,7.162-6.146,14.259-9.454,18.081C55.176,74.315,53.698,75.142,50.999,75.214z
	 M32.906,29.744c0.272,0,0.519-0.121,0.676-0.332c0.263-0.352,0.183-0.781,0.084-1.117c-0.054-0.181-0.13-0.453-0.169-0.602
	c-0.159-0.599-0.064-2.716,0.15-3.33c0.089-0.256,0.188-0.584,0.267-0.885c0.025,0.071,0.051,0.146,0.078,0.229
	c0.253,0.77,1.059,1.855,1.759,2.369c0.282,0.207,0.591,0.397,0.945,0.397c0.854,0,1.076-0.912,1.254-1.644
	c0.192-0.785,0.72-1.826,1.03-2.166c0.154-0.169,0.624-0.802,0.901-1.186c0.852-1.178,1.316-1.77,1.987-2.533
	c0.757-0.862,2.047-2.417,2.59-3.588c0.486,1.142,2.166,3.136,2.921,4.003c0.475,0.544,1.596,1.996,1.904,2.466
	c0.183,0.278,0.443,0.618,0.605,0.791c0.271,0.287,0.804,1.317,1,2.017c0.186,0.663,0.496,1.772,1.442,1.772
	c0.622,0,1.145-0.506,1.89-1.439c0.229-0.287,0.513-0.797,0.66-1.186c0.042-0.113,0.082-0.215,0.119-0.309
	c0.077,0.273,0.169,0.571,0.248,0.795c0.195,0.551,0.318,1.949,0.161,3.453c-0.125,1.185-0.046,1.313,0.055,1.479
	c0.14,0.225,0.387,0.36,0.66,0.36c0.174,0,0.706,0,2.434-1.626c0.15-0.142,0.331-0.312,0.503-0.47
	c-0.012,1.085-0.243,2.977-0.572,3.606c-0.542,1.037-0.798,1.714-0.602,2.326c0.071,0.221,0.191,0.392,0.327,0.529
	c0.074,0.727,0.646,1.129,1.032,1.4c0.186,0.13,0.324,0.236,0.426,0.321l-0.282,0.381l0.692,1.317
	c0.176,0.333,0.319,0.588,0.429,0.764c-0.542-0.586-1.164-0.683-1.513-0.683c-0.332,0-0.68,0.078-1.033,0.232
	c-0.207,0.09-0.594,0.229-0.842,0.304c-0.318,0.094-0.781,0.309-1.051,0.536c-0.138,0.116-0.368,0.285-0.494,0.36
	c-0.351,0.214-1.257,1.138-1.295,1.177c-2.391,2.441-3.219,3.193-4.024,3.657c-0.232,0.134-0.548,0.336-0.72,0.46
	c-0.196,0.143-0.779,0.29-1.479,0.294c0.656-0.596,1.535-1.524,1.941-2.075c0.51-0.69,1.187-1.643,1.516-2.263
	c0.125-0.235,0.331-0.593,0.451-0.782c0.146-0.231,0.33-0.597,0.38-0.84c0.022-0.076,0.151-0.382,0.333-0.719
	c0.183-0.341,0.427-0.867,0.518-1.171c0.341-1.144,1.065-2.173,2.041-2.898c0.223-0.166,0.596-0.443,0.648-0.896
	c0.05-0.43-0.216-0.745-0.329-0.88c-0.339-0.403-0.798-0.616-1.325-0.616c-0.508,0-1.064,0.201-1.654,0.599
	c-0.737,0.497-1.268,0.632-2.465,0.632c-0.891,0-1.096,0.024-1.671,0.329c-0.396,0.209-0.95,0.39-2.281,0.742
	c-0.396,0.105-0.919,0.161-1.513,0.161c-1.529,0-3.269-0.374-4.048-0.87c-0.551-0.35-0.749-0.361-1.71-0.361
	c-1.435,0-1.926-0.177-2.674-0.71c-0.417-0.296-0.945-0.459-1.49-0.459c-0.808,0-1.457,0.352-1.654,0.897
	c-0.079,0.218-0.193,0.783,0.454,1.322c1.205,1.004,1.213,1.022,1.35,1.311c0.127,0.269,0.335,0.651,0.472,0.871
	c0.089,0.142,0.22,0.444,0.27,0.621c0.142,0.501,0.745,1.783,1.196,2.621c0.103,0.191,0.31,0.594,0.461,0.899
	c0.17,0.342,0.538,0.937,0.836,1.354c0.275,0.383,0.65,0.907,0.833,1.166c0.266,0.374,1.219,1.401,1.912,2.032
	c-0.798-0.011-1.436-0.217-1.559-0.33c-0.171-0.159-0.498-0.375-0.732-0.508c-0.622-0.352-1.47-1.101-3.129-2.763
	c-0.695-0.696-1.85-1.813-2.185-2.039c-0.22-0.147-0.441-0.314-0.497-0.365c-0.41-0.368-2.415-1.039-2.951-1.039
	c-0.569,0-1.08,0.295-1.49,0.817c0.58-0.931,1.025-1.709,0.811-2.493c0.071-0.058,0.164-0.13,0.286-0.221
	c0.646-0.479,1.207-0.897,1.273-1.627c0.583-0.645,0.229-1.507,0.023-2.004c-0.661-1.595-0.833-2.382-0.921-4.21
	c-0.003-0.072-0.006-0.138-0.008-0.199c0.097,0.088,0.209,0.191,0.339,0.314C31.86,29.433,32.442,29.744,32.906,29.744z
	 M58.522,46.342c-0.069,0.234-0.142,0.482-0.209,0.696c-1.429-0.623-3.089-0.872-5.474-0.828l-0.991,0.019l-0.373-0.182
	c-0.337-0.164-0.86-0.397-1.167-0.505c-0.056-0.02-0.137-0.051-0.23-0.088c0.101-0.05,0.196-0.107,0.284-0.171
	c0.13-0.095,0.408-0.272,0.595-0.38c0.949-0.546,1.798-1.31,4.325-3.89c0.514-0.524,0.939-0.902,1.023-0.96
	c0.185-0.112,0.472-0.321,0.667-0.485c0.074-0.063,0.343-0.204,0.549-0.265c0.304-0.091,0.745-0.25,1.003-0.362
	c0.176-0.077,0.335-0.115,0.474-0.115c0.775,0,1.025,1.466,1.083,1.915c0.144,1.104,0.25,1.91,1.029,1.969
	c-0.297,0.162-0.359,0.283-0.366,0.582C59.542,43.755,58.966,44.836,58.522,46.342z M27.944,42.86c0.665-0.153,0.738-1,0.787-1.58
	c0.136-1.62,0.771-2.467,1.061-2.467c0.319,0.023,1.752,0.514,2.052,0.701c0.146,0.126,0.42,0.325,0.626,0.463
	c0.158,0.111,0.987,0.875,1.977,1.867c1.803,1.807,2.668,2.562,3.431,2.993c0.204,0.115,0.42,0.271,0.47,0.316
	c0.128,0.119,0.289,0.219,0.469,0.304c-0.103,0.042-0.201,0.081-0.283,0.11c-0.343,0.124-0.87,0.343-1.197,0.498l-0.299,0.141
	l-1.487,0.021c-2.405,0.034-3.519,0.161-4.945,0.811c-0.04-0.116-0.082-0.239-0.124-0.361l-0.019-0.056
	c-0.551-1.617-1.063-2.82-2.285-3.333C28.172,43.12,28.098,42.989,27.944,42.86z M42.757,44.344
	c-0.114-0.256-0.332-0.481-0.625-0.637c-0.279-0.188-1.685-1.587-2.045-2.093c-0.185-0.26-0.561-0.787-0.836-1.171
	c-0.253-0.353-0.583-0.884-0.72-1.16c-0.158-0.317-0.375-0.739-0.483-0.941c-0.489-0.906-0.991-2.021-1.082-2.339
	c-0.086-0.304-0.271-0.726-0.429-0.979c-0.109-0.175-0.29-0.509-0.395-0.729c-0.253-0.533-0.435-0.712-1.412-1.53
	c0.251,0,0.497,0.073,0.675,0.2c1.056,0.752,1.838,0.97,3.486,0.97c0.735,0,0.735,0,0.958,0.143
	c1.181,0.752,3.262,1.089,4.799,1.089c0.723,0,1.353-0.07,1.872-0.208c1.465-0.389,2.067-0.589,2.576-0.858
	c0.314-0.166,0.314-0.166,1.017-0.166c1.478,0,2.267-0.212,3.247-0.872c0.465-0.313,0.746-0.36,0.872-0.36c0,0,0,0,0,0
	c-1.13,0.896-1.971,2.128-2.377,3.491c-0.047,0.156-0.231,0.578-0.41,0.909c-0.016,0.03-0.392,0.732-0.463,1.069
	c-0.015,0.054-0.098,0.245-0.199,0.403c-0.14,0.221-0.362,0.606-0.505,0.875c-0.225,0.424-0.724,1.166-1.405,2.087
	c-0.434,0.588-1.628,1.814-2.13,2.187c-0.341,0.253-0.52,0.454-0.611,0.622c-0.553-0.073-1.168-0.114-1.781-0.114
	C43.911,44.232,43.312,44.254,42.757,44.344z M63.465,37.604c-0.077,0.077-0.176,0.176-0.278,0.277
	c-0.308-0.53-0.521-0.878-0.633-1.032c-0.041-0.065-0.18-0.305-0.348-0.624l-0.027-0.051c0.096-0.263,0.124-0.545,0.078-0.826
	c-0.107-0.659-0.583-1.18-1.156-1.635c3.305-2.68,5.278-5.28,5.896-7.761C68.422,29.156,66.993,34.061,63.465,37.604z
	 M26.719,36.203c-0.083,0.163-0.244,0.445-0.549,0.932c-0.124,0.198-0.297,0.483-0.456,0.75c-0.047-0.043-0.098-0.089-0.15-0.139
	c-2.534-2.351-4.091-5.586-4.167-8.655c-0.028-1.124,0.145-2.146,0.507-3.034c0.223,1.151,0.723,2.083,1.704,3.369
	c0.893,1.17,3.014,3.332,4.207,4.287c0,0,0,0,0.001,0.001C27.204,34.179,26.267,35.006,26.719,36.203z"/>
</svg>
