<?xml version="1.0" encoding="utf-8"?>
<!-- Generator: Adobe Illustrator 16.0.0, SVG Export Plug-In . SVG Version: 6.00 Build 0)  -->
<!DOCTYPE svg PUBLIC "-//W3C//DTD SVG 1.1//EN" "http://www.w3.org/Graphics/SVG/1.1/DTD/svg11.dtd">
<svg version="1.1" id="Layer_1" xmlns="http://www.w3.org/2000/svg" xmlns:xlink="http://www.w3.org/1999/xlink" x="0px" y="0px"
	 width="90px" height="90px" viewBox="0 0 90 90" enable-background="new 0 0 90 90" xml:space="preserve">
<g>
	<path d="M69.719,55.887c-1.351,0.568-1.578,2.305-2.874,2.976c-0.506,0.262-5.959,0.612-5.165-0.663
		c0.937-1.499,1.505-1.13,3.088-1.742c1.477-0.571,2.803-1.532,3.832-2.733c1.127-1.313,1.992-2.898,2.449-4.569
		c0.171-0.624,0.286-1.301,0.17-1.947c-0.092-0.513-0.847-0.993-0.884-1.333c0.605-1.75,1.758-7.678-2.242-6.1
		c-1.152,0.454-1.85,2.065-3.032,0.773c-1.196-1.308-1.6-3.348-2.13-4.984c-0.988-3.047-2.009-6.363-4.075-8.875
		c-1.053-1.278-2.393-2.243-4.046-2.549c-1.969-0.367-0.715-2.779-0.414-4.399c0.367-1.975,2.722-8.649-1.169-8.667
		c-1.669-0.007-2.995,1.673-4.098,2.708c-1.025,0.963-1.115,1.814-2.234,0.607c-0.967-1.044-1.938-2.086-2.982-3.053
		c-3.155-2.923-5.618,0.776-7.74,3.221c-1.354,1.562-4.371-4.229-6.948-3.331c-2.851,0.995-0.909,5.994-0.549,8.021
		c0.14,0.786,1.26,4.117,0.558,4.675c-1.754,1.393-3.558,2.616-5.141,4.22c-5.373,5.447-8.027,12.929-8.091,20.518
		c-0.069,8.298,3.019,16.706,9.093,22.475c1.763,1.673,4.855,4.625,7.508,4.437c1.766-0.126,1.142-2.133,2.973-1.27
		c1.967,0.928,4.018,1.454,6.194,1.005c1.163,0.054,1.147,0.128,2.298,0.791c1.845,1.063,3.926,1.665,6.035,1.895
		c4.312,0.471,8.794-0.543,12.656-2.462c1.439-0.716,3.743-2.132,3.306-4.063c-0.332-1.463,2.455-2.756,3.348-3.865
		c2.183-2.711,3.519-5.832,3.413-9.998C72.531,56.217,71.075,55.314,69.719,55.887z M35.648,19.359c1.839,0,4.724-4.303,5.926-5.53
		c1.629,1.563,3.084,3.308,4.723,4.856c1.878,1.775,3.909-1.259,5.24-2.479c-0.406,2.555-0.962,5.083-1.373,7.637
		c-4.927-2.548-12.402-3.157-17.289-0.291c-0.507-2.425-0.839-4.881-1.288-7.315C32.596,17.169,34.122,19.264,35.648,19.359z
		 M31.688,64.104c-1.084,2.363-0.752,4.806-0.691,7.317c-7.291-4.896-11.556-13.217-11.677-21.949
		c-0.067-4.903,0.947-9.871,3.43-14.137c2.16-3.708,6.269-8.61,10.56-9.881c1.78-0.526,3.124-1.665,5.092-1.597
		c2.046,0.071,4.93-0.535,6.861,0.253c1.664,0.683,3.472,1.536,5.174,2.101c1.557,0.978,3.243,0.727,4.761,1.677
		c4.582,2.869,4.666,19.123,12.175,16.283c-0.495,1.152-1.515,2.037-2.676,2.477c-0.705,0.267-1.894,0.631-1.77,1.62
		c0.186,1.484,3.435,1.167,4.42,1.036c-1.412,2.926-4.271,5.242-7.712,3.966c-1.286-0.479-2.619-1.338-3.307,0.426
		c-0.529,1.36-1.124,2.732-1.588,4.107c0.147-2.294,1.095-6.147-0.549-8.079c-1.805-2.123-3.89-3.883-5.109-6.479
		c-0.705-1.5,1.906-3.736,2.686-4.908c0.316-0.475,1.137-1.534,1.196-2.13c0.117-0.89-0.762-2.096-1.649-1.239
		c-1.554,1.501-2.848,3.66-4.27,5.366c-2.103,2.522-4.279,4.985-6.394,7.497c-1.955,2.322-3.734,5.003-5.216,7.651
		C32.98,59.871,32.516,62.302,31.688,64.104z M56.625,58.141c0.438-0.859,1.244-3.059,1.271-3.631
		c0.529,0.293,1.09,0.501,1.682,0.623C59.085,56.462,57.863,57.521,56.625,58.141z M58.406,64.359
		c-2.131,0.529-2.116,1.403-2.687,3.365c-0.543-1.984-0.571-2.808-2.738-3.217c1.788-0.272,2.291-1.773,2.626-3.331
		C56.023,62.785,56.708,63.937,58.406,64.359z M39.656,72.125c-1.729-0.149-6.1-1.895-6.618-3.836
		c0.858-3.164,1.696-5.714,3.129-8.469c2.936-5.643,6.658-10.721,10.871-15.47c0.941,1.55,2.063,2.984,3.314,4.295
		c1.559,1.633,2.913,2.212,2.796,4.621c-0.099,2.009-0.011,4.079-0.404,6.061c-0.226,1.133-2.087,4.182-0.784,5.011
		c-2.138-0.227-4.626,4.105-6.158,5.342C44.016,71.12,41.35,72.157,39.656,72.125z M66.767,65.508
		c-1.468,1.258-5.86,3.68-7.553,4.151c-3.275,0.913-0.936,2.826,1.113,3.262c-4.756,2.148-11.062,2.934-15.506-0.357
		c1.925-1.039,3.63-2.607,5.102-4.209c0.663-0.72,2.357-3.448,3.7-1.907c0.905,1.041,0.037,4.338,2.063,4.701
		c0.823,0.148,1.245-0.707,1.397-1.359c0.328-1.404,0.276-3.292,1.739-3.58c1.566-0.309,5.285-2.485,1.689-3.182
		c-1.29-0.249-4.141-1.081-3.346-3.182c1.181-0.442,3.646,2.114,5.179,2.515c2.332,0.608,4.985,0.266,6.946-1.188
		C68.825,62.794,68.04,64.416,66.767,65.508z"/>
</g>
</svg>
