<?xml version="1.0" encoding="utf-8"?>
<!-- Generator: Adobe Illustrator 16.0.0, SVG Export Plug-In . SVG Version: 6.00 Build 0)  -->
<!DOCTYPE svg PUBLIC "-//W3C//DTD SVG 1.1//EN" "http://www.w3.org/Graphics/SVG/1.1/DTD/svg11.dtd">
<svg version="1.1" id="Layer_1" xmlns="http://www.w3.org/2000/svg" xmlns:xlink="http://www.w3.org/1999/xlink" x="0px" y="0px"
	 width="90px" height="90px" viewBox="0 0 90 90" enable-background="new 0 0 90 90" xml:space="preserve">
<g>
	<path d="M72.005,45.795C79.943,31.196,60.746,9.052,41.96,11.137C28.227,12.662,15,25.967,15,38.257
		c0,2.703,0.661,5.351,1.889,7.568c0.518,0.937,0.513,0.827,0.072,1.458c-2.992,4.281-0.737,11.676,4.621,15.152
		c0.512,0.333,0.563,0.395,0.932,1.127c1.839,3.657,5.394,6.723,10.512,9.069c0.668,0.306,1.323,0.646,1.455,0.754
		c5.148,4.245,14.479,4.331,19.693,0.181c0.346-0.275,0.905-0.588,1.652-0.924c5.06-2.274,8.69-5.401,10.538-9.074L66.75,62.8
		l0.785-0.523c5.184-3.454,7.317-10.772,4.376-15.003C71.48,46.654,71.473,46.774,72.005,45.795z M66.761,45.27
		c-0.783-1.047-2.701-2.463-3.823-2.623c-0.063-0.009-0.126-0.013-0.189-0.013c-0.838,0-1.361,0.746-1.682,1.307
		c-0.321,0.562-1.105,1.232-1.34,1.312c-0.091,0.03-0.364,0.101-0.918,0.101c-0.87,0-1.875-0.179-2.339-0.415
		c-0.223-0.114-0.743-0.343-1.116-0.499c-1.648-0.686-2.438-1.035-2.613-1.125c-0.221-0.115-0.845-0.354-1.21-0.487
		c-0.458-0.167-1.027-0.378-1.243-0.463c-0.339-0.133-1.499-0.411-2.195-0.565l-1.758-0.389l-3.864-0.004l-1.887,0.424
		c-0.192,0.043-1.893,0.428-2.242,0.589c-0.102,0.047-0.558,0.226-1.066,0.409c-0.441,0.158-1.059,0.403-1.328,0.538
		c-0.189,0.095-0.466,0.208-0.587,0.246c-0.247,0.077-0.72,0.289-1.04,0.449c-0.302,0.152-0.794,0.365-1.074,0.466
		c-0.34,0.123-0.799,0.315-1.044,0.438c-0.59,0.294-1.226,0.449-1.84,0.449c-1.133,0-2.105-0.524-2.601-1.403
		c-0.413-0.73-1.052-1.149-1.755-1.149c-0.306,0-0.604,0.079-0.887,0.235c-1.004,0.553-2.459,1.884-3.115,2.849
		c-0.001,0.001-0.002,0.003-0.003,0.005c-0.238-0.258-0.596-0.497-0.821-0.634c-1.01-0.618-1.746-1.787-2.128-3.38
		c-0.092-0.381-0.247-0.966-0.346-1.304c-0.25-0.858-0.269-4.073-0.027-4.914c0.117-0.409,0.291-1.125,0.386-1.596
		c0.09-0.444,0.226-0.908,0.275-1.021c0.096-0.214,0.292-0.708,0.449-1.123c0.241-0.639,0.776-1.74,1.469-3.021
		c0.254-0.47,0.721-1.177,1.609-2.441c0.157-0.224,0.465-0.619,0.672-0.864c0.227-0.268,0.616-0.743,0.867-1.058
		c0.542-0.68,2.675-2.807,3.408-3.398c0.327-0.263,0.759-0.612,0.961-0.776c0.89-0.72,2.663-1.931,3.719-2.539
		c1.527-0.88,2.646-1.398,4.994-2.309c0.584-0.227,3.072-0.874,3.75-0.976c0.261-0.039,0.849-0.12,1.305-0.18
		c0.509-0.066,1.154-0.102,1.866-0.102c1.678,0,3.448,0.188,4.405,0.469c0.335,0.098,0.834,0.225,1.102,0.267
		c1.257,0.196,5.364,1.89,6.462,2.664c0.233,0.165,0.569,0.37,0.78,0.477c1.912,0.967,5.836,4.248,7.636,6.382
		c3.167,3.756,4.928,7.198,5.71,11.157c0.316,1.599,0.088,5.276-0.202,5.853c-0.097,0.182-0.315,0.825-0.38,1.017
		c-0.52,1.543-0.949,2.05-1.607,2.491c-0.481,0.322-0.834,0.583-1.064,0.834C67.115,45.744,66.904,45.46,66.761,45.27z
		 M23.666,46.598c0.004,0.006,0.009,0.011,0.013,0.018c0.015,0.023,0.014,0.07,0.002,0.123
		C23.692,46.682,23.687,46.633,23.666,46.598z M23.634,46.869c-0.078,0.145-0.097,0.159-0.153,0.066
		C23.528,46.966,23.587,46.956,23.634,46.869z M23.632,46.561c-0.019-0.014-0.043-0.021-0.072-0.022
		c0.001-0.001,0.002-0.002,0.002-0.003C23.586,46.535,23.609,46.542,23.632,46.561z M66.06,60.485
		c-0.974,0.643-0.989,0.66-1.504,1.728c-1.645,3.41-5.486,6.621-10.256,8.574c-0.364,0.148-0.832,0.405-1.04,0.57
		c-4.924,3.897-12.449,3.941-17.182,0.1c-0.222-0.18-0.654-0.434-0.96-0.563c-5.211-2.21-8.688-5.1-10.502-8.725
		c-0.438-0.876-0.579-1.027-1.406-1.51c-2.244-1.31-4.277-4.092-4.975-6.809c-0.771-2.997,0.159-5.49,2.465-6.612
		c0.071-0.035,0.138-0.067,0.199-0.099c0.182,0.229,0.466,0.438,0.814,0.438h0c0.03,0.002,0.137,0.014,0.232,0.033
		c0.076,0.015,0.167,0.03,0.274,0.03c0.041,0,0.077-0.006,0.115-0.01l0.024,0.257c0.34,3.644,1.558,7.703,2.193,7.31
		c0.232-0.144,2.929-2.975,2.929-3.075c0-0.061-0.123-0.637-0.273-1.281c-0.267-1.143-0.314-1.412-0.563-3.224
		c-0.092-0.67-0.192-1.893-0.235-2.755c0.793,1.349,2.265,2.152,3.955,2.152c0.86,0,1.743-0.214,2.553-0.618
		c0.193-0.096,0.593-0.263,0.875-0.365c0.339-0.123,0.886-0.36,1.246-0.541c0.332-0.166,0.696-0.319,0.8-0.352
		c0.217-0.067,0.573-0.215,0.828-0.342c0.163-0.082,0.676-0.292,1.152-0.463c0.42-0.151,0.97-0.359,1.184-0.456
		c0.157-0.057,0.92-0.259,1.934-0.487l1.713-0.385l3.511,0.004l1.588,0.352c0.989,0.219,1.807,0.435,1.957,0.492
		c0.229,0.09,0.803,0.304,1.279,0.477c0.49,0.179,0.933,0.359,1.022,0.404c0.396,0.205,2.043,0.895,2.732,1.182
		c0.42,0.175,0.857,0.372,1.003,0.446c0.799,0.407,2.116,0.59,3.066,0.59c0.578,0,1.056-0.061,1.42-0.181
		c0.728-0.24,1.73-1.217,2.185-1.967c0.036,1.434-0.119,4.44-0.342,6.235c-0.07,0.563-0.105,1.111-0.079,1.218
		c0.042,0.167,2.784,2.744,3.128,2.939c0.602,0.342,1.382-2.875,1.635-6.74c0.023-0.354,0.049-0.693,0.072-0.96
		c0.223,0.079,0.449,0.121,0.646,0.121c0.21,0,0.399-0.044,0.561-0.132c0.149-0.082,0.267-0.198,0.351-0.334
		c0.023,0.013,0.046,0.024,0.071,0.038C72.813,49.451,71.469,56.916,66.06,60.485z"/>
	<path d="M60.12,54.48c-1.726,0.511-4.313,1.067-6.775,1.457c-0.503,0.08-0.522,0.133-0.538,1.5c-0.071,6.29-8.975,9.24-14.26,4.725
		c-1.434-1.225-2.187-2.93-2.187-4.953c0-1.262,0.207-1.096-1.775-1.431c-2.268-0.385-4.979-1.007-6.041-1.388l-0.897-0.321
		l-0.201,0.158c-0.126,0.1-0.26,0.347-0.357,0.664c-0.647,2.095,0.198,4.289,1.865,4.844c0.674,0.224,0.718,0.285,0.652,0.905
		c-0.28,2.617,2.592,4.529,5.315,3.538c1.076-0.391,1.149-0.374,1.331,0.321c0.758,2.902,4.888,3.86,7.763,1.801
		c0.55-0.394,0.702-0.4,1.156-0.054c2.705,2.065,6.891,1.25,7.758-1.51c0.286-0.91,0.323-0.928,1.22-0.613
		c2.901,1.02,5.492-0.546,5.492-3.32c0-0.796,0.063-0.923,0.52-1.032c1.633-0.393,2.667-2.711,2.09-4.692
		C61.932,53.987,61.858,53.966,60.12,54.48z M27.095,56.255c-0.006,0.557,0.057,1.125,0.199,1.539
		C27.148,57.374,27.087,56.809,27.095,56.255z M27.583,54.361c-0.063,0.041-0.121,0.109-0.173,0.199
		c0.088-0.161,0.192-0.258,0.31-0.262c0.007,0,0.058,0.015,0.134,0.04C27.68,54.288,27.661,54.312,27.583,54.361z M37.204,65.95
		c-0.408-0.41-0.624-0.847-0.843-1.713c0.306,1.205,1.104,2.082,2.137,2.571C38.012,66.6,37.569,66.317,37.204,65.95z"/>
	<path d="M42.52,19.659c-5.486,0.542-10.347,7.938-8.599,13.083c0.752,2.215,1.787,2.908,3.634,2.437
		c0.371-0.095,1.199-0.242,1.84-0.326c0.641-0.085,1.489-0.199,1.885-0.253c2.298-0.314,7.743-0.028,10.191,0.536
		c1.855,0.427,2.711,0.038,3.482-1.585c1.409-2.965,0.627-6.887-2.008-10.067C50.235,20.212,47.409,19.176,42.52,19.659z
		 M52.265,31.545c-1.288,1.512-1.551,1.754-1.755,1.619c-0.183-0.122-0.697-1.208-1.993-4.214c-1.144-2.653-0.961-2.58-2.545-1.019
		c-1.526,1.505-1.323,1.505-2.78,0.006c-1.493-1.535-1.377-1.559-2.27,0.479c-0.27,0.616-0.742,1.696-1.049,2.4
		c-1.217,2.785-1.155,2.737-2.124,1.665c-1.771-1.961-1.729-1.696-0.567-3.604c0.368-0.605,1.382-2.288,2.253-3.74
		c2.077-3.463,1.858-3.282,2.763-2.3c0.314,0.341,0.902,1.003,1.307,1.472c1.167,1.353,0.984,1.395,2.735-0.62
		c1.684-1.937,1.485-1.94,2.681,0.048c0.411,0.682,1.094,1.816,1.519,2.52C53.313,31.014,53.141,30.517,52.265,31.545z"/>
</g>
</svg>
