<?xml version="1.0" encoding="utf-8"?>
<!-- Generator: Adobe Illustrator 16.0.0, SVG Export Plug-In . SVG Version: 6.00 Build 0)  -->
<!DOCTYPE svg PUBLIC "-//W3C//DTD SVG 1.1//EN" "http://www.w3.org/Graphics/SVG/1.1/DTD/svg11.dtd">
<svg version="1.1" id="Layer_1" xmlns="http://www.w3.org/2000/svg" xmlns:xlink="http://www.w3.org/1999/xlink" x="0px" y="0px"
	 width="90px" height="90px" viewBox="0 0 90 90" enable-background="new 0 0 90 90" xml:space="preserve">
<path d="M71.625,47.409c-0.108-0.136-2.171-4.294-2.145-4.32c0.014-0.015,0.439-0.304,0.945-0.644
	c4.411-2.963,6.154-5.468,5.165-7.421c-0.6-1.184-3.021-2.813-7.041-4.738l-1.479-0.708l-0.042-0.324
	c-0.022-0.179-0.097-0.846-0.165-1.484c-1.272-11.945-9.797-17.62-25.038-16.666c-10.091,0.632-16.257,4.872-18.358,12.626
	c-0.367,1.354-0.882,4.499-0.882,5.385c0,0.059-0.279,0.234-0.62,0.391c-5.126,2.354-8.09,4.24-8.725,5.554
	c-1.045,2.162,1.322,5.082,6.845,8.448c0.242,0.147,0.42,0.314,0.42,0.393c0,0.213-0.828,1.73-2.111,3.87
	c-1.595,2.66-2.486,4.549-2.971,6.298c-2.588,9.339,0.025,15.021,8.893,19.34c1.764,0.859,2.195,1.119,3.196,1.93
	c2.726,2.203,5.375,0.684,8.034-4.608c2.593-5.161,2.368-10.847-0.63-15.919c-0.625-1.059-1.338-2.46-1.28-2.518
	c0.024-0.023,0.365,0.105,0.757,0.287c2.388,1.108,4.402,1.746,8.647,2.741c1.506,0.353,1.83,0.32,5.266-0.523
	c2.708-0.666,5.12-1.529,7.26-2.599c0.385-0.192,0.7-0.312,0.7-0.265c0,0.179-0.769,1.691-1.579,3.108
	c-3.945,6.901-3.511,14.334,1.122,19.18c2.469,2.583,3.812,2.759,6.257,0.821c0.76-0.602,1.12-0.813,2.608-1.534
	c3.745-1.813,5.728-3.306,7.677-5.779c2.796-3.548,3.654-9.121,2.148-13.966C74.068,52.374,72.084,47.988,71.625,47.409z
	 M70.106,66.264c-1.084,1.637-4.56,4.113-7.273,5.183c-0.634,0.25-1.591,0.828-2.127,1.284c-0.675,0.574-1.004,0.834-1.312,0.834
	c-0.247,0-0.481-0.167-0.87-0.475c-1.114-0.881-1.352-1.347-0.779-1.527c0.176-0.056,0.588-0.183,0.917-0.283
	c2.391-0.73,4.034-3.471,3.643-6.073c-0.436-2.9-2.771-4.864-5.744-4.864c-0.077,0-0.155,0.002-0.233,0.005
	c-0.208,0.007-0.374,0.011-0.505,0.011c-0.34,0-0.45-0.026-0.475-0.09c-0.109-0.282,0.639-2.052,1.48-3.505
	c1.638-2.83,2.079-3.809,2.981-6.633c0.684-2.138,0.779-3.08,0.815-3.373c0.05-0.408,0.201-1.028,0.208-1.509
	c0.003-0.222,0.088-0.328,0.108-0.717c0.063-1.186-0.002-0.471,0.125-1.921c0.358-4.097-0.022-8.402-0.984-11.127
	c-0.107-0.305-0.274-0.773-0.37-1.043c-0.271-0.76-1.001-1.985-1.2-2.016c-0.013-0.002-0.026-0.004-0.038-0.004
	c-0.181,0-0.169,0.259,0.033,1.24c0.368,1.782,0.292,3.184-0.194,3.611c-0.363,0.318-2.332,0.751-3.49,0.767
	c-0.063,0.001-0.122,0.002-0.177,0.002c-0.794,0-0.89-0.105-1.05-0.831c-0.667-3.017-1.033-4.08-1.406-4.08
	c-0.215,0-0.296,0.313-0.444,1.72c-0.125,1.185-0.216,1.652-0.523,2.688c-0.235,0.792-0.273,0.812-1.66,0.882
	c-0.833,0.043-2.551,0.063-4.358,0.063c-1.981,0-4.07-0.025-5.219-0.073c-2.939-0.125-5.608-0.349-6.76-0.567
	c-0.462-0.088-1.088-0.191-1.392-0.229c-0.432-0.055-0.598-0.116-0.76-0.278l-0.208-0.209v-2.377c0-1.856,0-2.357-0.149-2.357
	c-0.056,0-0.133,0.07-0.24,0.166c-1.319,1.184-2.608,7.567-2.287,11.326c0.323,3.778,0.461,4.169,0.561,4.732
	c0.208,1.183,0.186,1.146,0.233,1.467c0.083,0.566,0.216,1.269,0.325,1.767c0.058,0.264,0.088,0.794,0.792,2.789
	c0.514,1.457,0.538,1.317-0.364,2.188c-3.754,3.631-1.34,9.546,3.96,9.704c1.073,0.032,1.046,0.01,1.047,0.88
	c0.002,2.987-1.373,6.613-3.489,9.196c-0.543,0.663-0.881,0.971-1.25,0.971c-0.282,0-0.583-0.18-1.007-0.518
	c-0.694-0.553-1.809-1.265-2.504-1.598c-0.515-0.248-0.516-0.29-0.031-1.31c1.264-2.656,0.987-5.604-0.757-8.064
	c-0.515-0.726-0.857-1.063-1.878-1.856c-1.144-0.888-2.913-1.388-4.772-1.388c-0.465,0-0.937,0.031-1.405,0.096
	c-0.052,0.008-0.099,0.012-0.14,0.012c-0.312,0-0.325-0.236-0.168-1.202c0.531-3.27,1.217-4.997,3.481-8.769
	c1.567-2.611,1.816-2.887,2.381-4.499c0.238-0.68,0.259-0.792,0.34-1.128c0.052-0.217,0.085-0.603,0.106-0.727
	c0.075-0.449,0.579-2.305,0.811-4.297c0.069-0.594,0.176-1.477,0.238-1.96c0.063-0.49,0.124-1.835,0.14-3.036l0.007-0.595
	l0.031-0.85l0.063-0.825l0.092-0.328c0.071-0.521,0.136-0.598,0.195-1.167c0.847-8.178,3.381-12.147,9.876-14.558
	c1.463-0.543,4.033-1.023,6.645-1.242c0.402-0.033,1.152-0.048,2.03-0.048c1.812,0,4.167,0.063,5.117,0.161
	c6.296,0.646,10.707,2.941,13.073,6.807c1.515,2.474,2.045,4.429,2.496,9.188c0.115,1.216,0.147,0.987,0.189,1.313
	c0.021,0.171,0.075,0.191,0.096,0.506c0.016,0.232-0.006,0.05,0.037,0.901c0.025,0.491,0.064,1.289,0.088,1.773
	c0.087,1.798,0.546,4.499,0.985,5.803c0.169,0.504,0.333,1.031,0.364,1.171c0.07,0.319,0.123,0.447,0.162,0.684
	c0.055,0.335,0.114,0.364,0.183,0.664c0.043,0.189,0.104,0.501,0.12,0.556c0.12,0.402,1.218,2.839,1.966,4.162
	c0.596,1.055,1.383,2.705,1.359,2.854c-0.017,0.11-0.223,0.245-0.704,0.459c-6.527,2.906-6.462,11.828,0.107,14.646
	C70.439,65.808,70.423,65.786,70.106,66.264z M67.415,32.272c4.129,2.034,6.131,3.328,6.131,3.962c0,0.899-2.359,3.067-5.313,4.918
	c-0.02-0.076-0.038-0.145-0.058-0.236c-0.073-0.337-0.364-1.209-0.422-1.381c-0.383-1.139-0.804-3.647-0.883-5.263
	c-0.023-0.485-0.063-1.285-0.088-1.776c-0.015-0.295-0.021-0.453-0.024-0.547C66.954,32.047,67.172,32.153,67.415,32.272z
	 M15.422,36.115c0.177-0.705,2.792-2.282,7.469-4.507l-0.01,0.13l-0.003,0.041l-0.001,0.041l-0.03,0.85l-0.001,0.021v0.022
	l-0.008,0.595c-0.015,1.204-0.077,2.446-0.124,2.808c-0.062,0.489-0.17,1.378-0.24,1.982c-0.159,1.364-0.459,2.68-0.64,3.466
	c-0.023,0.1-0.042,0.186-0.061,0.268C18.641,40.124,15.188,37.05,15.422,36.115z M18.941,66.649
	c-0.127-0.197-0.342-0.494-0.479-0.657c-0.324-0.39-1.131-2.013-1.204-2.422c-0.031-0.177-0.15-0.555-0.265-0.841
	c-0.183-0.457-0.205-0.555-0.208-1.889c0.227,0.072,0.47,0.11,0.723,0.11c0.131,0,0.266-0.01,0.412-0.03
	c0.372-0.051,0.753-0.077,1.132-0.077c1.418,0,2.777,0.371,3.546,0.968c0.915,0.71,1.108,0.918,1.474,1.435
	c1.315,1.854,1.528,4.06,0.583,6.048c-0.248,0.521-0.453,0.956-0.524,1.434c-0.932-0.482-1.646-0.9-2.089-1.226
	C20.395,68.294,19.422,67.399,18.941,66.649z M34.812,60.615c-0.325-0.062-0.654-0.072-0.978-0.082l-0.077-0.002
	c-1.705-0.051-3.054-0.936-3.607-2.366c-0.521-1.347-0.156-2.805,0.978-3.901l0.139-0.134c0.164-0.156,0.334-0.322,0.494-0.507
	c0.354,0.749,0.729,1.477,1.108,2.146C34.05,57.858,34.652,59.359,34.812,60.615z M47.266,52.731
	c-2.633,0.62-2.732,0.618-5.76-0.124c-4.258-1.044-7.646-2.598-10.137-4.645c-0.032-0.143-0.05-0.243-0.063-0.319
	c-0.016-0.088-0.029-0.16-0.042-0.223c-0.092-0.419-0.22-1.086-0.3-1.631c-0.009-0.063-0.015-0.109-0.021-0.157
	c-0.027-0.208-0.055-0.423-0.221-1.365c-0.015-0.086-0.031-0.169-0.048-0.257c-0.087-0.45-0.218-1.13-0.49-4.299
	c-0.101-1.186-0.021-2.776,0.216-4.434c0.392,0.19,0.794,0.269,1.184,0.317c0.231,0.029,0.811,0.123,1.271,0.211
	c1.263,0.24,3.964,0.47,7.049,0.601c1.098,0.046,3.13,0.075,5.304,0.075c0.953,0,3.294-0.007,4.46-0.066
	c0.862-0.043,1.484-0.075,2.099-0.401c0.335-0.179,0.585-0.4,0.775-0.637c0.026,0.023,0.052,0.046,0.08,0.068
	c0.728,0.594,1.573,0.594,2.028,0.594c0.063,0,0.132,0,0.204-0.001c0.464-0.007,2.667-0.181,4.056-0.816
	c0.313,2.171,0.384,4.743,0.168,7.213c-0.084,0.957-0.088,1.018-0.099,1.311c-0.004,0.118-0.01,0.292-0.03,0.68
	c-0.002,0.032-0.002,0.032-0.016,0.093c-0.034,0.143-0.09,0.38-0.095,0.699c-0.002,0.153-0.058,0.471-0.099,0.702
	c-0.035,0.195-0.071,0.398-0.094,0.594l-0.005,0.042c-0.016,0.133-0.048,0.399-0.148,0.857
	C55.854,49.823,52.139,51.585,47.266,52.731z M54.577,67.063c-0.305-0.888-0.366-3.514-0.178-5.018
	c0.381,0.205,0.854,0.313,1.424,0.313c0.148,0,0.331-0.004,0.574-0.013c0.055-0.002,0.11-0.003,0.164-0.003
	c2,0,3.478,1.24,3.766,3.161c0.243,1.617-0.808,3.423-2.25,3.863c-0.333,0.103-0.753,0.231-0.933,0.288
	c-0.508,0.16-0.924,0.452-1.221,0.829c-0.539-0.894-0.949-1.795-1.097-2.509C54.774,67.719,54.661,67.309,54.577,67.063z M73,59.458
	c-0.052,0.546-0.095,1.166-0.095,1.379c0.001,0.22-0.101,0.688-0.233,1.08c-0.129,0.381-0.29,0.893-0.357,1.138
	c-0.135,0.485-0.317,0.962-0.543,1.429c-0.397-0.451-0.956-0.691-1.501-0.925l-0.068-0.029c-2.333-1.001-3.737-3.046-3.753-5.469
	c-0.017-2.421,1.355-4.48,3.671-5.512c0.328-0.146,0.814-0.362,1.212-0.741c0.576,1.218,0.971,2.182,1.053,2.602
	c0.03,0.154,0.157,0.604,0.281,1C72.989,56.444,73.127,58.123,73,59.458z"/>
</svg>
