<?xml version="1.0" encoding="utf-8"?>
<!-- Generator: Adobe Illustrator 16.0.0, SVG Export Plug-In . SVG Version: 6.00 Build 0)  -->
<!DOCTYPE svg PUBLIC "-//W3C//DTD SVG 1.1//EN" "http://www.w3.org/Graphics/SVG/1.1/DTD/svg11.dtd">
<svg version="1.1" id="Layer_1" xmlns="http://www.w3.org/2000/svg" xmlns:xlink="http://www.w3.org/1999/xlink" x="0px" y="0px"
	 width="90px" height="90px" viewBox="0 0 90 90" enable-background="new 0 0 90 90" xml:space="preserve">
<path d="M68.641,66.06c0.795-1.676,0.842-3.137,0.229-4.882l-0.163-0.463l0.288-0.425c2.4-3.532,1.975-7.995,0.846-11.897
	c-0.581-2.011-1.355-3.96-2.178-5.884c-0.183-0.429-0.368-0.857-0.554-1.285c-0.248-0.569-0.075-1.072,0.027-1.676
	c0.23-1.367,0.476-2.732,0.695-4.101c0.205-1.272,0.403-2.547,0.587-3.823c0.169-1.171,0.32-2.192-0.19-3.297
	c-0.788-1.707-1.461-3.491-2.382-5.133c-1.83-3.264-4.495-6.022-7.642-8.04c-5.726-3.671-13.02-4.785-19.669-3.477
	c-7.402,1.456-13.669,6.181-16.894,13.03c-0.444,0.945-0.778,1.937-1.267,2.862c-0.603,1.143-0.602,2.309-0.491,3.573
	c0.229,2.617,0.501,5.229,1.041,7.803c-1.12,1.509-2.332,2.949-3.611,4.326c-1.237,1.332-2.465,2.796-4.027,3.758
	c-1.131,0.695-1.936,2.062-0.973,3.287c0.982,1.252,3.003,1.114,4.414,1.05c-0.087,3.115,1.245,6.191,2.606,8.911l-0.559,0.354
	c-1.132,0.717-1.944,1.678-1.805,3.084c0.191,1.915,1.32,3.794,2.256,5.43c0.508,0.89,1.044,1.763,1.616,2.613
	c0.47,0.698,0.999,1.63,1.757,2.05c0.843,0.468,1.783,0.072,2.566-0.324c1.076-0.544,2.142-1.031,3.304-1.37
	c4.894-1.43,10.149-1.607,15.211-1.399c5.118,0.209,10.225,0.852,15.214,2.023c2.052,0.481,4.038,1.169,6.074,1.696
	c1.477,0.381,2.183-0.073,3.13-1.167c0.872-1.008,2.236-2.253,2.104-3.722C70.082,68.214,67.973,67.469,68.641,66.06
	C69.436,64.384,68.058,67.29,68.641,66.06z M67.288,63.936c-0.083,0.492-0.303,0.999-0.55,1.487
	c-0.813,0.422-2.063-0.15-2.919-0.228c-1.225-0.11-2.494-0.135-3.721-0.063c1.219-0.763,2.293-1.687,3.102-2.702
	c0.873,1.443,2.813-0.716,3.442-1.385C67.018,61.919,67.453,62.969,67.288,63.936C67.205,64.428,67.453,62.969,67.288,63.936z
	 M57.353,59.261c-1.196-1.665-3.331,2.164-3.979,2.84c-1.438,1.499-3.18,2.561-5.104,3.314c0.782-1.507,1.656-3.091,2.009-4.763
	c0.139-0.659,0.344-1.801-0.541-2.048c-0.736-0.206-1.188,0.532-1.484,1.073c0.473-2.598,0.642-5.391,0.521-8.025
	c-0.064-1.392-0.282-2.768-0.364-4.158c-0.043-0.727-0.086-1.455-0.189-2.176c-0.08-0.559-0.326-1.027-0.481-1.561
	c1.332-0.441,2.813-0.125,4.185-0.162c1.665-0.045,3.317-0.401,4.965-0.62c1.736-0.23,3.485-0.45,5.195-0.836
	c0.588-0.132,1.274-0.321,1.877-0.181c0.47,0.109,0.607,0.85,0.747,1.24l-0.016,0.007l0.054,0.122l-0.001,0.001
	c2.29,5.358,5.278,12.785,0.014,17.389c-0.181-0.95-1.186-0.762-1.749-0.319c-0.688,0.542-1.157,1.304-1.782,1.911
	c-1.537,1.492-3.538,2.567-5.61,3.095c0.534-1.056,1.267-1.96,1.601-3.116C57.453,61.466,57.909,60.035,57.353,59.261
	C57.131,58.952,57.953,60.095,57.353,59.261z M23.943,60.568c-0.497-1.594-0.711-3.303-0.525-4.146
	c1.046,2.4,2.861,4.538,5.153,5.996C27.014,61.87,25.557,60.949,23.943,60.568C23.446,58.974,24.992,60.815,23.943,60.568z
	 M24.148,53.621c-0.129-0.8,0.024-1.917-0.53-2.587c-0.79-0.954-1.568,0.356-1.773,1.022c-0.68,2.203-0.383,4.419-0.08,6.646
	c-1.031-2.337-1.908-4.812-2.027-7.387c-0.044-0.95,0.659-2.573-0.295-3.237c-0.866-0.603-2.116,0.039-3.021,0.263
	c1.286-1.115,2.519-2.301,3.682-3.546c1.248-1.337,2.212-2.801,3.294-4.259c1.134,0.501,2.152,1.034,3.394,1.252
	c1.215,0.213,2.368-0.168,3.562-0.039c0.924,0.101,0.309,1.37,0.107,1.9c-0.464,1.221-0.793,2.369-0.881,3.682
	c-0.176,2.585-0.15,5.279,0.299,7.834c0.239,1.359,0.838,2.607,1.211,3.927c0.182,0.646,0.312,1.275,0.599,1.887
	c0.313,0.663,0.711,1.283,1.009,1.953c-0.985-0.339-1.847-0.929-2.732-1.469c-0.964-0.587-1.867-1.237-2.664-2.041
	C25.73,57.842,24.572,55.816,24.148,53.621C24.141,53.574,24.729,56.624,24.148,53.621z M32.099,56.013
	c-0.163-0.074-0.323-0.177-0.491-0.237c-0.59-2.035-0.556-4.236-0.541-6.333c2.753,0.677,5.422,1.681,8.204,2.243
	c1.269,0.256,2.556,0.41,3.847,0.491c0.674,0.042,1.351,0.065,2.026,0.074c0.698,0.009,1.406-0.117,2.102-0.068
	c0.036,1.321-0.031,2.644-0.149,3.959c-0.104,1.167-0.104,2.507-0.468,3.623c-0.593-0.029-1.195-0.224-1.791-0.289
	c-0.657-0.072-1.314-0.135-1.971-0.221c-1.509-0.199-3.027-0.326-4.536-0.542l-0.059-0.156c-0.084-0.222-0.25-0.298-0.462-0.387
	c-0.654-0.273-1.331-0.5-1.997-0.744C34.57,56.973,33.311,56.545,32.099,56.013z M37.055,46.708
	c0.826,0.487,1.645,1.231,2.662,1.231c1.157,0,1.694-1.125,1.063-2.057c-0.938-1.388-2.719-2.046-4.218-2.628
	c1.21,0.225,2.584,0.079,3.807,0.078c1.939-0.001,3.882,0.057,5.819-0.025c-0.085,0.529,0.113,1.063,0.309,1.545
	c0.238,0.583,0.267,1.217,0.313,1.841c0.107,1.445,0.267,2.883,0.376,4.327c-1.267-0.036-2.524,0.085-3.799,0.012
	c-1.294-0.075-2.584-0.222-3.854-0.476c-2.867-0.575-5.595-1.686-8.45-2.3c0.033-1.219,0.158-2.407,0.618-3.545
	C33.685,44.859,35.356,45.708,37.055,46.708C37.164,46.773,36.075,46.131,37.055,46.708z M34.321,43.93
	c1.049,0.228,2.074,0.567,3.047,1.022c0.793,0.371,1.788,0.81,2.285,1.567c-0.671-0.155-1.231-0.495-1.813-0.844
	C36.712,44.998,35.563,44.375,34.321,43.93C35.587,44.205,34.768,44.09,34.321,43.93z M44.063,42.187
	c-1.78,0-3.561-0.013-5.342-0.012c-0.536,0-1.086,0.038-1.618-0.012c-0.69-0.063-1.345-0.331-2.017-0.483
	c-0.767-0.175-1.536-0.124-2.313-0.173c-0.326-0.716-0.637-1.271-1.445-1.511c-0.75-0.222-1.592-0.191-2.364-0.195
	c-0.814-0.005-1.63,0.021-2.442-0.019c-0.513-0.021-0.785-0.102-1.203-0.382c-0.363-0.243-0.782-0.303-1.167-0.491
	c-0.15-1.413-0.567-2.814-0.749-4.232c-0.176-1.367-0.33-2.763-0.354-4.142c-0.025-1.405,0.462-2.545,1.07-3.788
	c0.256-0.521,0.481-1.05,0.709-1.584c0.21-0.496,0.505-1.312,0.946-1.645c0.41,0.034,0.841,0.296,1.227,0.43
	c0.607,0.209,1.216,0.416,1.822,0.627c1.047,0.366,2.063,0.838,3.099,1.239c0.699,0.271,2.688,1.361,3.304,0.425l0.192-0.299
	l-0.092-0.336c-0.146-0.542-0.878-0.819-1.318-1.058c-2.163-1.175-4.412-2.101-6.657-3.098c2.03-2.474,4.79-4.308,7.717-5.555
	c1.505-0.658,3.408,0.251,4.878,0.769c1.55,0.546,3.057,1.202,4.53,1.925c2.813,1.378,5.237,2.949,7.188,5.445
	c1.75,2.242,2.976,4.79,4.261,7.31c1.489,0.044,2.954-0.061,4.425-0.298c0.896-0.145,1.788-0.318,2.677-0.503
	c0.801-0.167,1.623-0.476,2.429-0.581c0.001,0.641-0.304,1.253-0.365,1.888c-0.067,0.691,0.068,1.885-0.651,2.281
	c-0.773,0.424-1.762,0.403-2.609,0.561c-1.082,0.202-2.156,0.438-3.232,0.666c-2.019,0.428-4.043,0.742-6.09,1.007
	c-1.057,0.137-2.111,0.238-3.177,0.287c-0.995,0.047-2.23-0.016-3.159,0.393c-0.409,0.18-0.676,0.569-0.563,1.021
	c0.191,0.751,1.099,0.762,1.714,0.708c1.85-0.163,3.688-0.417,5.539-0.579c1.865-0.164,3.728-0.329,5.588-0.541
	c1.001-0.114,2.012-0.214,3.002-0.405c0.94-0.182,1.894-0.508,2.862-0.456c-0.04,1.032-0.334,2.042-0.436,3.067
	c-0.633,0.151-1.189,0.573-1.829,0.669c-0.695,0.104-1.403-0.028-2.1,0.072c-0.86,0.125-1.671,0.459-2.524,0.613
	c-0.885,0.16-1.824,0.126-2.721,0.172C51.143,41.559,47.634,42.187,44.063,42.187z M53.182,15.943
	c2.32,1.217,4.734,2.363,6.609,4.26c-0.566,0.365-1.239,0.652-1.699,1.157c-0.447,0.489-0.372,1.348,0.359,1.512
	c0.876,0.196,2.117-0.615,2.846-0.957c0.785,0.594,1.304,1.877,1.788,2.707c0.743,1.269,1.198,2.535,1.643,3.918
	c-2.51,0.707-5.231,1.267-7.847,1.275c-2.052-4.085-4.351-8.186-8.277-10.753c1.306-1.071,2.333-2.467,3.698-3.477
	C52.514,15.594,52.931,15.812,53.182,15.943C53.313,16.013,52.931,15.812,53.182,15.943z M47.324,13.426
	c1.41,0.192,2.784,0.48,4.117,0.875c-0.84,0.588-1.54,1.358-2.273,2.066c-0.516,0.499-1.141,1.383-1.81,1.687
	c-0.845-0.148-1.576-0.813-2.297-1.235c-0.742-0.436-1.578-0.736-2.372-1.062c-1.698-0.699-3.496-1.353-5.3-1.71
	C40.591,13.286,44.355,13.021,47.324,13.426C48.734,13.619,44.355,13.021,47.324,13.426z M68.097,69.835
	c-0.284,0.76-0.989,1.437-1.48,2.082c-0.639,0.842-1.243,0.677-2.166,0.316c-2.188-0.854-4.558-1.352-6.854-1.815
	c-5.111-1.031-10.317-1.663-15.534-1.733c-4.76-0.064-9.854,0.162-14.449,1.521c-0.991,0.294-1.963,0.672-2.861,1.187
	c-0.545,0.312-0.956,0.84-1.471,0.255c-1.506-1.71-2.691-3.949-3.601-6.024c-0.418-0.954-1.161-2.169-0.223-3.03
	c2.137,0.165,4.318-0.026,6.463,0.135c0.707,0.054,1.362,0.248,2.048,0.405c0.538,0.124,1.428,0.405,1.953,0.11
	c0.658,0.394,1.292,0.813,2.021,1.066c0.343,0.119,0.699,0.217,1.021,0.391c0.292,0.199,0.568,0.436,0.946,0.436
	c1.511,0,0.511-1.98,0.274-2.712l-0.013,0.003c-0.522-1.244-1.205-2.287-1.559-3.604c2.297,0.388,4.554,0.936,6.87,1.208
	c2.255,0.266,4.535,0.438,6.767,0.852c-0.206,0.633-0.494,1.405-0.318,2.078c0.196,0.76,0.98,0.92,1.579,0.493
	c-0.257,0.521-0.495,1.056-0.784,1.561c-0.293,0.509-0.819,1.034-0.676,1.677c0.302,1.351,2.066,0.425,2.813,0.15
	c2.745-1.015,5.228-2.838,6.927-5.232c-0.215,0.891-0.678,1.634-1.153,2.406c-0.419,0.68-1.034,1.646-0.568,2.453
	c0.463,0.803,1.464,0.563,2.193,0.362c1.065-0.294,2.097-0.718,3.068-1.247c0.811,0.368,1.91,0.28,2.784,0.469
	c0.989,0.213,2.049,0.446,2.957,0.908c0.596,0.303,1.036,0.78,1.529,1.216C66.945,68.479,68.308,69.271,68.097,69.835
	C67.904,70.352,68.162,69.66,68.097,69.835z"/>
</svg>
