<?xml version="1.0" encoding="utf-8"?>
<!-- Generator: Adobe Illustrator 16.0.0, SVG Export Plug-In . SVG Version: 6.00 Build 0)  -->
<!DOCTYPE svg PUBLIC "-//W3C//DTD SVG 1.1//EN" "http://www.w3.org/Graphics/SVG/1.1/DTD/svg11.dtd">
<svg version="1.1" id="Layer_1" xmlns="http://www.w3.org/2000/svg" xmlns:xlink="http://www.w3.org/1999/xlink" x="0px" y="0px"
	 width="90px" height="90px" viewBox="0 0 90 90" enable-background="new 0 0 90 90" xml:space="preserve">
<g>
	<path d="M75.414,63.158c-0.112-2.143-0.926-4.633-3.538-3.62c-0.437,0.169-1.467,0.854-1.304-0.021
		c0.289-1.559-0.535-3.271-1.967-3.973c-1.477-0.725,1.187-1.61,1.586-1.848c1.367-0.814,2.549-1.841,3.496-3.126
		c0.716-0.973,1.377-2.146,1.461-3.379c0.098-1.442-0.909-1.278-1.362-2.24c-0.493-1.046-0.308-1.858-1.584-2.206
		c-1.742-0.474-0.842-1.253-0.798-2.958c0.179-6.876-4.369-14.285-11.428-15.643c-0.861-0.166-1.758-0.205-2.627-0.325
		c-1.582-0.217-0.73-1.847-0.431-3.089c0.433-1.791,2.637-8.154-1.269-7.66c-1.265,0.16-2.187,1.211-3.076,2.021
		c-0.768,0.699-1.52,1.415-2.286,2.115c-0.732-0.756-1.458-1.518-2.187-2.277c-2.674-2.781-4.23-3.964-7.044-0.703
		c-0.531,0.616-1.115,1.187-1.682,1.769c-0.823,0.845-0.852,1.568-1.86,0.627c-1.18-1.101-2.358-2.478-3.77-3.286
		c-3.904-2.231-2.91,3.825-2.538,5.444c0.367,1.596,0.769,3.216,0.789,4.864c0,0.004-1.88,0.378-1.988,0.403
		c-2.247,0.511-4.208,0.981-6.091,2.396c-2.467,1.854-4.294,4.516-5.341,7.403c-1.105,3.05-0.729,5.597-0.66,8.71
		c-0.007-0.324-2.13,0.628-2.323,0.892c-0.375,0.515-0.113,1.478-0.754,1.818c-0.387,0.205-0.686,0.532-0.841,0.942
		c-0.866,2.279,1.606,5.052,3.171,6.354c0.753,0.626,2.236,1.09,2.736,1.929c0.732,1.229-0.619,1.356-1.234,2.319
		c-0.384,0.601-0.509,3.234-0.901,3.165c-1.13-0.201-2.134-1.125-3.324-0.428c-1.931,1.132-1.653,4.917-1.094,6.731
		c0.778,2.532,2.927,4.208,5.512,4.611c0.47,0.073,1.813-0.147,2.232,0.109c0.515,0.315,0.993,1.683,1.473,2.165
		c1.858,1.862,4.564,2.664,7.135,2.78c2.687,0.121,5.423-0.484,7.798-1.749c1.21-0.644,1.914-1.736,3.256-1.337
		c1.749,0.519,3.403,0.805,5.213,0.425c1.069-0.225,2.127-1.005,3.042-0.319c1.106,0.83,2.301,1.514,3.591,2.017
		c2.736,1.068,5.833,1.383,8.704,0.705c2.285-0.541,4.492-1.785,5.703-3.86c1.472-1.215,4.048-0.698,5.88-2.08
		C74.959,68.185,75.543,65.629,75.414,63.158z M65.674,63.265c-0.472,0.542-0.76,1.211-1.654,1.112
		c-0.971-0.107-0.797-1.337-1.551-1.539C61.356,62.542,60,63.021,60,61.311c0-0.573,0.673-0.455,0.849-1.024
		c0.171-0.552-0.352-1.094-0.547-1.561c-0.583-1.39,0.876-1.404,1.567-1.726c0.844,0,2.258-2.123,3.03-1.148
		c0.778,0.981,0.823,1.541,2.036,1.641c2.437,0.201,0.103,2.566,0.777,3.312C69.442,62.726,66.28,62.568,65.674,63.265z
		 M62.833,55.067c0.793-0.903,0.896-1.021,2.126-1.007C64.898,54.881,63.56,54.599,62.833,55.067z M38.892,20.91
		c1.97-1.052,3.807-3.819,5.32-5.433c1.226,1.188,4.069,5.537,5.925,5.532c1.688-0.004,3.053-2.202,4.156-3.222
		c-0.238,1.386-0.469,2.774-0.713,4.159c-0.122,0.692-0.249,1.384-0.38,2.075c-0.285,1.494-0.561,0.993-1.87,1.237
		c-2.69,0.503-5.054,1.938-6.852,3.987c-1.807-2.222-4.462-3.67-7.287-4.084c-0.568-0.083-1.14-0.125-1.714-0.125
		c-0.279-0.874-0.472-1.772-0.629-2.674c-0.266-1.519-0.429-3.054-0.712-4.569C35.131,18.721,37.212,21.807,38.892,20.91z
		 M17.475,48.432c-0.051-0.077-0.103-0.153-0.152-0.23c2.616,0.453,2.493-0.763,1.265-2.486c4.357,0.178,2.004-3.65,2.009-6.357
		c0-3.722,1.484-7.501,4.31-9.98c2.816-2.471,6.764-2.985,10.388-2.769c1.571,0.093,4.042,0.408,5.344,1.326
		c1.223,0.861,2.041,2.396,3.327,3.099c1.208,0.662,2.165-1.273,2.852-1.92c1.406-1.322,3.331-2.16,5.263-2.313
		c3.729-0.296,7.818-0.456,11.07,1.875c2.799,2.006,4.771,5.445,5.159,8.863c0.348,3.063-2.619,8.206,2.111,8.154
		c-1.213,1.661-1.317,3.028,1.229,2.505c-1.11,1.872-3.273,3.555-5.462,3.804c-2.645-0.694-3.73,0.262-5.376,2.023
		c0.395-1.717,0.177-2.437-1.405-3.315c-1.93-1.072-3.82-2.318-5.295-3.982c-0.845-0.953-1.934-3.541-3.353-3.573
		c-2.082-0.047-0.722,3.493-0.36,4.35c-1.252-0.705-2.368-1.648-3.296-2.743c-0.708-0.835-1.042-2.453-2.201-2.819
		c-1.306-0.533-2.151,1.477-2.648,2.268c-0.846,1.348-2.257,2.48-3.626,3.258c1.136-3.067,0.466-6.297-2.398-2.447
		c-1.513,2.029-3.305,3.806-5.502,5.085c-1.979,1.151-3.044,1.394-2.58,3.923c-1.455-1.609-2.413-2.211-4.643-2.227
		C20.92,51.785,18.907,50.578,17.475,48.432z M27.813,60.264c0.745,0.659,0.713,2.26-0.514,2.476
		c-0.435,0.077-1.061-0.089-1.416,0.266c-0.516,0.516-0.248,1.24-1.186,1.36c-1.449,0.187-1.163-1.475-2.433-1.38
		c-2.935,0.219-0.565-2.083-1.054-2.873c-0.622-1.006-1.226-3.031,0.96-2.58c1.295,0.268,0.782-2.799,2.866-1.617
		c0.426,0.242,0.676,0.644,0.894,1.065c0.135,0.261,1.142,0.125,1.347,0.178C29.963,57.85,26.781,59.368,27.813,60.264z
		 M23.342,54.01c2.075,0.058,2.22,0.518,3.632,1.985c-0.696-0.073-0.863-0.734-1.479-1.078C24.566,54.398,23.44,55.226,23.342,54.01
		z M30.287,73.031c-1.604,0-3.295-0.323-4.68-1.164c-1.43-0.869-1.514-2.852-2.7-3.579c-1.121-0.688-3.03,0.089-4.336-0.382
		c-2.294-0.827-3.054-3.232-2.478-5.458c0.355,0.114,3.331,0.473,3.353,0.519c0.687,1.386,2.158,0.976,2.953,1.897
		c0.745,0.863,1.907,1.215,2.983,0.784c0.645-0.259,1.178-0.755,1.513-1.361c0.795-0.053,1.606-0.337,2.165-0.928
		c2.02,3.206,5.577,5.267,8.814,7.045C35.765,72.125,32.997,73.031,30.287,73.031z M48.563,68.849
		c-1.943,0.491-3.351,1.374-5.453,1.069c-2.178-0.315-4.218-1.347-6.039-2.541c-1.839-1.207-3.723-2.422-5.243-4.032
		c-0.721-0.763-1.342-1.671-1.563-2.714c-0.171-0.804-0.761-1.978-0.794-2.745c2.644,0.851,1.096-3.217,0.869-4.204
		c-0.307-1.334,3.721-3.121,4.848-4.177c0.241,2.09,3.077,0.666,4.044,0.141c2.134-1.158,3.969-2.615,5.24-4.729
		c0.725,1.103,8.813,8.535,9.264,4.548c0.835,0.757,5.155,3.205,4.946,3.919c-0.294,1.007-1.886,4.5,0.328,4.548
		c-0.878,0.609-0.871,1.882-1.094,2.813c-0.277,1.157-1.069,2.164-1.908,2.976C53.891,65.768,51.305,67.734,48.563,68.849z
		 M69.765,67.977c-1.3,0.32-3.952-0.622-4.672,0.777c-0.783,1.521-1.187,2.659-2.878,3.453c-3.783,1.774-8.557,0.728-11.701-1.859
		c3.084-1.699,7.131-4.143,8.861-7.335c0.636,1.002,2.021,0.729,2.533,1.549c0.685,1.096,2.056,1.538,3.255,1.06
		c0.602-0.24,1.113-0.686,1.432-1.25c0.672,0.021,1.359-0.112,1.902-0.535c0.919-0.715,0.239-0.834,1.515-0.898
		c0.802-0.041,1.59-0.221,2.347-0.482C72.746,64.6,72.217,67.375,69.765,67.977z"/>
	<path d="M25.583,58.118c-2.726-1.488-5.236,2.532-2.616,4.199C25.758,64.092,28.524,59.723,25.583,58.118z M25.491,60.41
		c-0.296,1.292-2.313,1.22-2.243-0.208C23.322,58.71,25.827,58.95,25.491,60.41z"/>
	<path d="M65.445,58.098c-2.65-1.342-5.197,2.429-2.616,4.143C65.653,64.116,68.515,59.659,65.445,58.098z M65.375,60.578
		c-0.11,0.424-1.567,1.534-2.134,0.1C62.492,58.78,65.823,58.796,65.375,60.578z"/>
</g>
</svg>
