<?xml version="1.0" encoding="utf-8"?>
<!-- Generator: Adobe Illustrator 16.0.0, SVG Export Plug-In . SVG Version: 6.00 Build 0)  -->
<!DOCTYPE svg PUBLIC "-//W3C//DTD SVG 1.1//EN" "http://www.w3.org/Graphics/SVG/1.1/DTD/svg11.dtd">
<svg version="1.1" id="Layer_1" xmlns="http://www.w3.org/2000/svg" xmlns:xlink="http://www.w3.org/1999/xlink" x="0px" y="0px"
	 width="90px" height="90px" viewBox="0 0 90 90" enable-background="new 0 0 90 90" xml:space="preserve">
<g>
	<path d="M74.852,36h-0.21l0.155-0.22c0.666-1.346-0.109-2.229-1.23-2.941c-1.208-0.767-2.323-1.262-2.757-2.717
		c-0.338-1.135-0.524-2.3-0.905-3.423c-0.43-1.266-0.942-2.497-1.537-3.694c-0.953-1.917-2.116-3.731-3.505-5.362
		c-2.87-3.37-6.615-5.657-10.974-6.496c-1.216-0.233-2.453-0.359-3.691-0.351c-1.281,0.009-2.59,0.396-3.857,0.156
		c-1.188-0.226-2.323-0.585-3.53-0.741c-1.36-0.175-2.742-0.257-4.112-0.188c-6.267,0.315-11.374,4.291-15.323,8.86
		c-2.239,2.591-4.239,5.529-6.983,7.621c-0.969,0.739-1.973,1.355-1.794,2.717C14.727,30.211,15.48,31,16.522,31h0.355
		c-0.852,1-1.703,1.953-2.707,2.773c-0.835,0.682-1.423,1.534-1.063,2.651c0.635,1.972,3.172,1.41,4.727,1.379
		c-0.188,1.806-4.61,7.591-0.829,8.208l0.297,0.053c-0.027,2.281,0.273,4.942-0.953,6.981c-0.507,0.84-0.827,1.712-0.341,2.649
		c0.511,0.984,1.583,1.301,2.605,0.984c0.75-0.23,1.431-0.95,1.922-0.106c0.541,0.932,1.197,1.76,1.932,2.539
		c0.735,0.777-0.346,1.66-0.868,2.297c-0.808,0.982-1.529,1.994-2.178,3.088c-1.088,1.834-1.977,3.799-1.67,5.982
		c0.294,2.094,1.735,3.779,3.771,4.383c2.085,0.619,4.338,0.027,6.456-0.074c1.054-0.051,2.12-0.037,3.16,0.152
		c1.165,0.209,2.067,0.703,3.061,1.313c3.851,2.361,9.343,2.613,13.674,1.852c2.47-0.436,4.628-1.34,6.813-2.521
		c2.135-1.152,5.006-0.889,7.314-0.559c2.187,0.313,4.475,0.201,6.246-1.281c1.838-1.539,2.167-3.984,1.495-6.184
		c-0.622-2.037-1.913-4.318-3.339-5.904c-0.477-0.531-1.02-1.037-1.367-1.668c-0.457-0.826,0.433-1.479,0.861-2.152
		c0.288-0.453,0.573-0.912,0.908-1.332c0.317-0.4,0.371-0.465,0.831-0.301c0.809,0.291,1.587,0.764,2.485,0.566
		c2.837-0.623,0.883-4.078,0.693-5.766c-0.136-1.203-0.109-2.434,0.012-3.637c0.087-0.857,0.667-0.959,1.376-1.271
		c0.737-0.325,1.716-1.055,1.627-1.968c-0.015-0.153-0.384-1.854-0.481-1.796c0.005-0.003,0.011-0.006,0.016-0.009
		c0.05-0.029,0.253-0.147,0.46-0.269c-0.123,0.072-0.275,0.162-0.459,0.268c1.299-0.761,2.877-1.932,3.186-3.521
		C76.771,37.651,76.213,36,74.852,36z M32.442,73c-0.676-0.139-6.271-0.313-7.774-0.123c-1.618,0.204-3.555,0.009-4.438-1.569
		c-0.978-1.744,0.056-3.831,0.97-5.378c1.08-1.826,2.332-3.727,3.873-5.197c0.826,0.664,1.848,1.51,2.908,1.762
		c0.985,0.234,2.022-0.481,2.075-1.513c0.324,0.008,0.655-0.089,0.925-0.269c1.029,1.254,2.222,2.273,3.305,3.084
		c-0.483,0.34-1.093,0.404-1.564,0.783c-0.348,0.279-0.655,0.604-0.979,0.908c-0.009,1.248,0.186,2.455,0.527,3.654
		c0.389,1.369,0.763,2.92,1.357,4.215C33.243,73.18,32.841,73.082,32.442,73z M53.809,68.406c-0.058,0.16-0.036,0.101-0.001,0.003
		c-0.358,0.989-0.596,2.012-0.938,3.007c-0.219,0.637-0.318,1.527-0.763,2.059c-0.642,0.051-1.107,0.461-1.671,0.711
		c-0.621,0.273-1.416,0.375-2.076,0.572c-1.455,0.43-2.993,0.467-4.499,0.48c-1.365,0.014-2.747-0.049-4.078-0.377
		c-0.673-0.166-1.326-0.402-1.995-0.58c-0.73-0.193-1.355-0.654-2.098-0.822c-0.347-0.297-0.441-1.021-0.545-1.438
		c-0.153-0.617-0.339-1.174-0.596-1.758c-0.298-0.674-0.307-1.436-0.518-2.137c-0.145-0.479-0.604-1.111-0.486-1.641
		c0.615-0.287,1.579,0.17,2.099,0.484c0.808,0.486,1.537,0.959,2.433,1.281c1.886,0.678,3.829,1.254,5.85,1.254
		c1.871,0,3.743-0.4,5.48-1.084c0.876-0.346,1.724-0.768,2.521-1.268c0.704-0.443,1.452-0.85,2.323-0.672
		C54.305,67.043,54.053,67.734,53.809,68.406z M39.654,50.837c-0.083-0.06-0.162-0.116,0.005,0.005
		c0.157,0.112,0.085,0.061,0.006,0.003c1.235,0.886,2.592-0.072,3.718-0.632c1.422-0.664,2.779-1.479,4.043-2.408
		c0.551-0.404,1.03-0.861,1.678-1.107c0.692-0.262,1.42-0.418,2.132-0.615c1.533-0.423,2.993-1.23,4.585-1.424
		c0.79,0.327,1.488,0.713,2.313,0.984c-0.059,1.017-0.403,1.993-0.636,3.005c-0.276,1.197-0.716,2.104-0.944,3.227
		c-0.448,2.209-1.023,4.221-2.324,6.105c-1.249,1.813-2.985,3.201-4.83,4.371c-0.83,0.525-1.688,1.01-2.559,1.467
		c-0.904,0.477-1.952,1.219-2.998,1.256c-0.99,0.035-2.014-0.691-2.85-1.137c-1.075-0.574-2.126-1.195-3.132-1.885
		c-1.623-1.113-3.142-2.41-4.354-3.969c-2.689-3.461-3.001-8.01-3.99-12.138c-0.153-0.639-0.343-1.29-0.384-1.948
		c1.816,0.369,3.631,1.132,5.394,1.701c1.536,0.497,3.323,0.84,4.735,1.639C38.776,48.49,38.485,49.988,39.654,50.837z
		 M51.806,64.84c0.179,0.061,0.36,0.15,0.568,0.26c-0.859,0.285-1.58,0.908-2.388,1.313c-0.88,0.443-1.807,0.791-2.758,1.043
		C48.812,66.688,50.341,65.816,51.806,64.84z M39.583,67.076c-0.776-0.254-1.579-0.5-2.279-0.932c-0.65-0.4-1.248-0.854-1.984-1.09
		c0.126-0.053,0.309-0.115,0.505-0.18C36.909,65.59,38.119,66.299,39.583,67.076z M67.16,67.147
		c-0.115-0.238-0.23-0.476-0.268-0.552c0.027,0.056,0.104,0.215,0.27,0.555c0.449,0.925,0.231,0.477,0.001,0.003
		c1.129,2.33,0.547,5.392-2.419,5.733c-1.771,0.205-3.65-0.291-5.433-0.33c-1.754-0.039-3.31,0.016-4.96,0.643
		c0.41-0.969,0.547-2.012,0.868-3.008c0.271-0.842,0.638-1.643,0.823-2.512c0.176-0.822,0.237-1.789-0.314-2.49
		c-0.615-0.783-1.58-0.971-2.421-1.408c1.138-0.852,2.306-1.861,3.314-3.063c0.215,0.127,0.457,0.205,0.711,0.225
		c-0.023,0.459,0.202,0.943,0.343,1.375c0.682,0.203,1.32,0.434,2.035,0.219c1.079-0.326,2.002-1.164,2.841-1.879
		C64.454,62.632,65.957,64.668,67.16,67.147z M73.524,39.378c-0.813,0.647-1.756,1.247-2.821,1.308
		c-0.95,0.055-1.208,0.392-1.316,1.324c-0.07,0.599-0.149,1.237,0.476,1.529c0.176,0.082,1.409,0.365,1.049,0.726
		c-0.387,0.387-1.182,0.262-1.666,0.456c-0.62,0.248-0.607,1.48-0.629,2.013c-0.042,1.066-0.096,2.135-0.063,3.201
		c0.044,1.441,0.336,2.785,0.521,4.205c0.082,0.637-1.213-0.215-1.43-0.363c-0.471-0.322-1.12-1.461-1.602-0.777
		c-0.61,0.865-0.968,1.877-1.463,2.807c-0.533,1.002-1.268,1.92-2.064,2.725c-0.567,0.572-1.199,1.098-1.834,1.594
		c-0.378,0.295-1.198,1.063-1.742,0.9c0.155,0.045,1.638-2.346,1.701-2.459c0.436-0.771,0.771-1.6,0.976-2.463
		c0.061-0.26,0.497-2.34,0.038-2.34c-0.433,0-0.871,0.98-1.07,1.285c-0.654,1.004-1.24,2.055-1.945,3.025
		c-0.187,0.256-1.589,1.986-1.112,0.764c0.231-0.592,0.667-1.168,0.655-1.832c-0.01-0.563-0.612-0.869-0.972-0.391
		c-0.411,0.545-0.519,1.246-0.881,1.813c-1.217,1.9-2.978,3.391-4.813,4.672l-0.08-0.191c2.595-1.84,4.589-4.191,5.769-7.16
		c0.568-1.432,0.677-2.918,1.118-4.377c0.192-0.635,0.338-1.213,0.473-1.869c0.185-0.893,0.249-1.197,0.578-2.178
		c0.216-0.533,0.392-2.062,0.295-2.408c-0.208-0.738-1.263-0.853-1.879-1.05c-0.983-0.315-1.501-0.936-2.604-0.728
		c-1.248,0.234-2.417,0.754-3.612,1.165c-0.925,0.317-1.89,0.495-2.813,0.817c-1.119,0.391-1.932,1.171-2.896,1.83
		c-1.004,0.688-2.063,1.303-3.166,1.816c-0.451,0.211-1.589,1.148-2.104,0.777c-0.526-0.379,0.097-1.471,0.273-1.893
		c0.266-0.633,0.059-1.094-0.491-1.488c-1.254-0.903-3.015-1.224-4.462-1.696c-1.245-0.407-2.494-0.804-3.742-1.202
		c-1.057-0.336-2.564-1.14-3.694-0.851c-1.871,0.48-0.523,3.86-0.262,5.043c0.691,3.127,1.093,6.535,2.599,9.4
		c1.322,2.516,3.377,4.551,5.672,6.189c-0.117,0.021-0.247,0.051-0.387,0.084c-1.893-1.311-3.706-2.857-4.884-4.863
		c-0.257-0.439-0.595-1.986-1.328-1.746c-0.927,0.303-0.424,1.303-0.144,1.906c0.125,0.27,0.67,1.357,0.022,0.711
		c-0.578-0.578-1.069-1.242-1.504-1.93c-0.561-0.893-1.041-1.852-1.646-2.713c-0.469-0.666-0.885-1.043-0.864-0.031
		c0.032,1.666,0.47,3.129,1.38,4.541c0.296,0.457,0.621,0.896,0.957,1.326c0.03,0.039,0.601,0.695,0.232,0.588
		c-0.656-0.193-1.313-0.744-1.854-1.15c-1.747-1.316-3.144-3.02-4.229-4.912c-0.193-0.336-1.029-2.449-1.462-2.211
		c-0.17,0.094-2.11,2.098-2.229,1.432c-0.122-0.676,0.467-1.494,0.604-2.152c0.313-1.492,0.423-3.023,0.44-4.545
		c0.009-0.711-0.004-1.42-0.03-2.13c-0.019-0.511,0.063-1.151-0.59-1.217c-0.266-0.027-1.037,0.068-1.147-0.264
		c-0.105-0.315,0.137-0.765,0.261-1.041c0.377-0.836,0.87-1.616,1.252-2.451c0.59-1.29,0.796-2.739,1.083-4.121
		c0.096-0.461,0.461-1.368-0.282-1.3c-0.51,0.046-1.013,0.205-1.503,0.346c-0.601,0.173-2.331,0.855-2.813,0.374
		c0.428-0.669,1.108-1.259,1.633-1.85c1.077-1.212,2.153-2.424,3.218-3.646c0.717-0.822,1.518-1.634,2.125-2.543
		c0.371-0.557-0.548-0.146-0.733-0.06c-0.586,0.271-1.178,0.53-1.782,0.759c-0.631,0.239-2.213,0.927-2.931,0.603
		c-0.139-0.063,0.94-0.923,1.037-0.998c0.388-0.299,0.74-0.64,1.09-0.982c0.717-0.704,1.399-1.441,2.063-2.194
		c1.295-1.468,2.521-2.996,3.804-4.475c2.518-2.904,5.351-5.686,9.026-7.041c2.351-0.866,4.881-1.083,7.365-0.842
		c1.234,0.12,2.393,0.398,3.588,0.712c1.246,0.327,2.39,0.281,3.66,0.147c4.472-0.47,8.917,0.986,12.298,3.948
		c2.172,1.903,3.844,4.335,5.097,6.923c0.666,1.375,1.127,2.833,1.562,4.294c0.403,1.354,0.659,3.165,1.583,4.273
		c0.629,0.755,1.473,1.299,2.26,1.871c0.144,0.104,0.677,0.373,0.318,0.502c-0.598,0.216-1.416-0.054-2.014-0.168
		c-1.222-0.233-0.256,2.113,0.192,2.505c0.877,0.767,2.22,1.103,3.367,1.103c-0.069-0.004-0.139-0.008-0.207-0.013
		C74.377,38.459,74.052,38.959,73.524,39.378z"/>
	<path d="M53.677,41.356c-0.433-0.351-0.801-0.797-1.245-1.128c-0.049-0.036-0.101-0.053-0.153-0.053
		c-0.533,0-1.239,1.711-1.472,2.075c0.026-0.04,0.043-0.065,0.043-0.065s-0.014,0.022-0.048,0.074
		c-0.085,0.128-0.146,0.222-0.19,0.288c0.058-0.086,0.128-0.194,0.179-0.271c-0.228,0.342-0.663,0.865-0.208,0.865
		c0.063,0,0.145-0.01,0.245-0.032c1.107-0.244,2.253-0.56,3.331-0.913C54.742,42.004,53.875,41.518,53.677,41.356z"/>
	<path d="M32.958,39.244c-0.154,0-0.319,0.179-0.654,0.494c-0.509,0.479-0.995,0.995-1.542,1.433
		c-0.007,0.006-0.006,0.005-0.016,0.013c-0.069,0.055-0.184,0.146-0.184,0.146s0.052-0.041,0.183-0.146
		c-0.653,0.536,0.355,0.606,0.858,0.735c0.912,0.234,1.826,0.462,2.738,0.696c0.175,0.045,0.955,0.354,1.313,0.354
		c0.074,0,0.13-0.013,0.159-0.045c0.075-0.084-2.143-2.93-2.318-3.17C33.238,39.402,33.104,39.244,32.958,39.244z"/>
</g>
</svg>
