<?xml version="1.0" encoding="utf-8"?>
<!-- Generator: Adobe Illustrator 16.0.0, SVG Export Plug-In . SVG Version: 6.00 Build 0)  -->
<!DOCTYPE svg PUBLIC "-//W3C//DTD SVG 1.1//EN" "http://www.w3.org/Graphics/SVG/1.1/DTD/svg11.dtd">
<svg version="1.1" id="Layer_1" xmlns="http://www.w3.org/2000/svg" xmlns:xlink="http://www.w3.org/1999/xlink" x="0px" y="0px"
	 width="90px" height="90px" viewBox="0 0 90 90" enable-background="new 0 0 90 90" xml:space="preserve">
<path d="M77.479,50.143c-2.231-2.078-3.361-5.757-4.587-8.445c-0.525-1.151-0.418-2.211-0.588-3.465
	c-0.271-2.016-0.945-3.963-1.984-5.712c-2.452-4.129-6.642-6.913-10.913-8.893c-2.013-0.935-3.651-2.32-5.788-3.075
	c-2.44-0.862-5.025-1.343-7.606-1.5c-4.688-0.286-9.367,0.698-13.55,2.826c-4.333,2.204-7.733,5.58-11.752,8.224
	c-1.625,1.069-3.312,2.049-4.946,3.105c-1.713,1.106-4.051,2.142-5.379,3.704c-1.223,1.438,0.11,3.253,1.45,3.911
	c0.801,0.393,4.631,1.922,5.393,1.355c-1.574,1.173-2.092,1.436-1.78,3.678c0.153,1.103-1.638,2.557-1.825,3.787
	c-0.287,1.87,1.815,2.49,3.254,2.753c1.366,0.705,2.06,2.763,3.115,4.054c0.864,1.057-0.27,2.926-0.336,4.313
	c-0.108,2.236,0.238,4.679,1.317,6.667c0.702,1.292,1.929,2.441,3.487,1.825c1.036-0.41,1.856-1.299,2.537-2.147
	c0.324-0.403,1.847-3.289,2.206-3.289c0.697,0,2.466,1.768,3.134,2.16c1.215,0.71,2.497,1.301,3.824,1.767
	c2.675,0.939,5.52,1.364,8.352,1.297c2.938-0.07,5.855-0.668,8.597-1.721c1.124-0.432,2.839-1.785,4.015-1.816
	c0.397-0.011,1.442,2.54,1.703,2.922c1.106,1.625,3.075,1.089,4.484,0.143c0.988-0.663,1.83-1.542,2.518-2.509
	c0.784-1.103,0.986-2.855,1.789-3.816c0.809-0.968,3.979-2.723,6.687-4.751C77.439,55.145,79.406,51.938,77.479,50.143z
	 M20.562,51.584c1.353-0.105,1.63-0.136,2.733-0.376c0.277-0.061-0.775,2.46-1.006,3.107C21.114,53.166,21.282,53.047,20.562,51.584
	z M57.844,57.563c-0.246,1.365-0.441,3.688-0.972,4.112c-1.379,1.102-2.488,1.757-4.094,2.464
	c-7.129,3.137-16.463,2.254-22.123-3.418c-1.155-1.158-0.972-5.14-1.551-8.199c-0.142-0.75-0.737-2.878,0.084-3.292
	c0.827-0.417,1.206-0.411,2.093-0.667c1.479-0.425,3.667,0.587,5.164,0.96c-1.288,3.23,1.764,2.473,3.836,1.915
	c1.753-0.463,3.741-1.179,5.188-2.094c3.836-2.447,7.717-3.443,10.813-7c0.82,1.609,0.534,1.006,1.586,2.472
	c-0.742-0.44-0.676-0.711-2.771,0.302c-2.621,1.268-5.252,2.522-7.856,3.823c-1.022,0.51-1.773,1.216,0.014,1.323
	c2.122,0.126,4.94-1.227,6.992-1.799c1.061-0.296,4.482-0.558,5.129-1.527c1.387,1.896,1.096,2.776,0.344,4.969
	C58.889,54.328,58.089,56.203,57.844,57.563z M35.54,46.963c1.233-0.501,2.445-1.074,3.56-1.808
	c-0.428,0.677-0.757,1.375-1.229,2.025C37.094,48.247,36.633,47.483,35.54,46.963z M63.636,54.097
	c0.202,3.013,1.452,6.162,0.075,9.102c-0.311,0.662-2.135,3.37-2.966,2.534c-0.75-0.753-0.968-1.984-1.097-2.992
	c-0.346-2.707,0.055-5.112,1.085-7.611c1.081-2.615,2.691-5.667,1.176-8.355c-1.183-1.599-2.369-3.203-3.374-4.921
	c-0.506-0.865-1.168-3.207-2.628-2.19c-1.421,0.99-2.756,2.416-4.157,3.493c-1.383,1.063-2.669,1.861-4.219,2.656
	c-3.03,1.554-4.825,2.621-8.094,3.563c0.564-1.886,1.032-2.059,1.594-3.969c0.561-1.902-1.219-3.219-3.052-2.052
	c-1.79,1.139-3.531,1.858-5.636,2.677c-1.718,0.668-3.731,0.942-5.219,2.125c-1.226,0.975-0.304,3.326-0.062,4.602
	c0.334,1.767,0.423,3.515,0.572,5.302c0.236,2.829-1.943,5.483-3.775,7.526c-2.354-4.317,0.618-9.428,1.893-13.644
	c1.106-3.66-1.135-3.191-3.868-2.762c-1.459,0.088-3.196,0.565-4.6,0.045c1.166-2.914,4.329-5.749,6.586-7.815
	c2.607-2.316-1.594-2.291-2.963-2.332c-2.281-0.069-4.76-0.219-6.945-0.941c1.972-1.729,4.749-2.781,6.966-4.182
	c2.96-1.87,5.612-4.126,8.478-6.129c5.921-4.14,12.575-6.519,19.842-5.019c2.634,0.543,5.78,1.505,7.629,3.594
	c1.726,1.951,0.684,4.755,3.897,5.197c5.747,0.791,8.983,8.813,5.382,13.535c-0.918,1.201-2.307,2.355-2.574,3.927
	C63.296,50.741,63.521,52.415,63.636,54.097z M18.607,44.696c-0.047,0.054-0.912,1.277-0.947,1.012
	C17.522,44.697,17.617,44.444,18.607,44.696z M65.783,48.123c0.882-1.217,3.042-2.057,4.469-2.547
	c-0.367,1.873-0.9,3.721-1.713,5.452c-0.341,0.725-3.095,4.007-3.064,4.283C65.146,53.105,64.363,50.084,65.783,48.123z
	 M74.689,53.733c-2.622,2.814-5.724,4.462-8.765,6.688c0.033-0.914-0.028-1.829-0.128-2.737c-0.148-1.347,0.675-1.507,1.513-2.489
	c1.53-1.793,2.594-3.971,3.313-6.204c1.128-3.502,1.348-5.666-2.667-3.709c2.143-3.951,1.324-9.316-1.679-12.575
	c-1.652-1.793-3.323-2.332-5.632-2.748c-1.557-0.28-1.366-3.018-2.228-4.179c6.137,2.866,11.45,7.53,11.791,14.721
	c0.102,2.148,1.459,4.215,2.335,6.154c0.686,1.518,1.466,3.134,2.5,4.447C76.054,52.387,75.861,52.475,74.689,53.733z"/>
</svg>
