<?xml version="1.0" encoding="utf-8"?>
<!-- Generator: Adobe Illustrator 16.0.0, SVG Export Plug-In . SVG Version: 6.00 Build 0)  -->
<!DOCTYPE svg PUBLIC "-//W3C//DTD SVG 1.1//EN" "http://www.w3.org/Graphics/SVG/1.1/DTD/svg11.dtd">
<svg version="1.1" id="Layer_1" xmlns="http://www.w3.org/2000/svg" xmlns:xlink="http://www.w3.org/1999/xlink" x="0px" y="0px"
	 width="90px" height="90px" viewBox="0 0 90 90" enable-background="new 0 0 90 90" xml:space="preserve">
<path fill="#0F0604" d="M70.027,55.348c-2.163-1.796-2.94-4.828-4.982-6.849c-1.114-1.102-2.398-2.022-3.792-2.734
	c-1.074-0.548-0.597-1.633-0.592-2.729c0.011-2.811-0.612-5.455-1.626-8.068c-0.22-0.566,1.386-1.823,1.741-2.237
	c1.254-1.464,2.356-3.059,3.317-4.728c2.193-3.809,6.386-12.593,1.559-16.125c-4.736-3.466-10.343,3.039-13.007,6.167
	c-0.495,0.581-2.743,4.164-3.355,4.164c-1.186,0-2.999-1.261-4.219-1.572c-3.455-0.88-7.112-0.745-10.51,0.321
	c-6.529,2.048-12.595,7.53-14.562,14.18c-0.35,1.182-0.24,3.49-0.893,4.456c-0.601,0.89-1.787,1.368-2.412,2.381
	c-1.785,2.896-2.002,6.691-1.417,9.964c0.58,3.244,2.097,6.351,4.713,8.428c1.187,0.941,2.565,1.638,4.036,2.003
	c1.607,0.399,1.373,0.122,1.927,1.533c4.212,10.715,15.495,15.27,26.431,13.653c5.436-0.803,10.76-3.108,14.701-6.997
	C71.03,66.664,75.386,59.799,70.027,55.348z M22.494,39.147c0.128-1.394,0.61-2.865,1.156-4.14c0.92-2.148,2.247-4.172,3.928-5.819
	c4.239-4.154,12.114-7.993,18.006-4.977c1.137,0.58,2.375,1.357,3.543,1.829c1.544,0.624,2.65-1.393,3.412-2.382
	c2.424-3.151,5.103-6.939,8.68-8.862c4.025-2.164,3.258,3.251,2.869,5.509c-0.456,2.599-2.394,6.26-4.047,8.267
	c-1.213,1.472-2.346,2.93-3.765,4.231c-4.112-4.896-14.216-2.956-19.404-0.954c-4.835,1.865-8.796,5.217-11.248,9.792
	C24.179,40.499,22.311,41.132,22.494,39.147z M48.953,32.035c-0.996,1.058-1.496,2.489-1.758,3.892
	c-1.263-1.566-2.932-2.887-4.853-3.536C44.501,31.874,46.747,31.978,48.953,32.035z M36.592,49.686
	c-1.473,0.779-2.957,1.506-4.341,2.441c-0.543-2.375-1.833-4.669-3.209-6.655c-0.413-0.595-2.041-2.489-1.834-2.784
	c0.546-0.781,0.965-1.511,1.532-2.267c1.225-1.634,3.553-3.66,6.134-5.397C31.986,39.425,34.361,45.563,36.592,49.686z
	 M65.38,67.302c-9.194,10.115-29.779,9.96-35.553-3.708c-0.872-2.064-0.678-4.187-3.259-4.383c-2.521-0.19-4.68-1.487-6.063-3.599
	c-2.163-3.303-3.543-11.945,1.739-13.158c2.28,0.15,4.024,2.514,5.193,4.216c0.904,1.317,1.692,2.734,2.302,4.213
	c0.383,0.929,0.478,3.064,1.487,3.558c1.036,0.507,2.171-0.698,2.967-1.188c1.279-0.786,3.151-1.307,4.192-2.385
	c1.157-1.2-0.813-3.607-1.295-4.756c-0.77-1.837-1.37-3.799-1.474-5.799c-0.144-2.763,1.229-6.307,4.536-6.307
	c1.384,0,2.72,0.701,3.791,1.525c1.027,0.791,2.424,3.576,3.763,3.576c2-0.182,1.388-4.772,3.069-6.028
	c2.765-2.066,4.67,2.295,5.404,4.232c0.604,1.596,0.968,3.294,1.071,4.998c0.093,1.532-0.44,3.022-0.355,4.515
	c0.085,1.5,1.918,1.751,2.985,2.302c1.473,0.76,2.733,1.846,3.748,3.152c0.976,1.257,1.583,2.699,2.437,4.027
	c0.713,1.108,1.836,1.779,2.681,2.763C70.599,61.228,66.787,65.754,65.38,67.302z"/>
</svg>
