<?xml version="1.0" encoding="utf-8"?>
<!-- Generator: Adobe Illustrator 16.0.0, SVG Export Plug-In . SVG Version: 6.00 Build 0)  -->
<!DOCTYPE svg PUBLIC "-//W3C//DTD SVG 1.1//EN" "http://www.w3.org/Graphics/SVG/1.1/DTD/svg11.dtd">
<svg version="1.1" id="Layer_1" xmlns="http://www.w3.org/2000/svg" xmlns:xlink="http://www.w3.org/1999/xlink" x="0px" y="0px"
	 width="90px" height="90px" viewBox="0 0 90 90" enable-background="new 0 0 90 90" xml:space="preserve">
<g>
	<g>
		<path d="M72.447,47.412c2.742-3.409,6.975-8.575,6.541-13.295c-0.319-0.933-0.36-1.657-1.198-2.111
			c-2.073-0.83-5.527,1.523-7.732,1.8c-0.034-1.977,0.215-10.886-3.65-9.753c-0.802,0.236-2.944,3.02-3.656,2.767
			c-0.48-0.173-1.104-3.282-1.301-3.748c-2.592-6.132-6.756,0.668-8.373,3.779c-0.837,1.611-0.582,2.962-2.516,2.883
			c-1.403-0.059-2.802-0.225-4.197-0.375c-1.378-0.148-2.727-0.12-4.111,0.014c-1.249,0.121-5.584,1.334-6.269,0.067
			c-1.501-2.776-2.753-7.236-6.021-8.525c-2.389-0.942-3.213,1.903-3.789,3.556c-0.093,0.268-0.913,3.021-1.104,2.907
			c-0.703-0.418-1.28-1.181-1.921-1.692c-5.067-4.04-5.48,5.782-5.096,8.795c-2.366-0.248-4.922-2.021-7.226-1.876
			c-2.232,0.141-1.851,3.004-1.457,4.543c0.52,2.033,1.519,3.945,2.576,5.744c1.008,1.716,3.276,3.428,3.938,5.227
			c-0.238-0.647-2.816,0.848-2.977,1.229c-0.644,1.529,0.326,3.439,1.035,4.767c0.832,1.557,1.783,3.086,3.01,4.364
			c0.574,0.598,1.206,1.143,1.899,1.598c1.343,0.883,1.015,0.472,0.9,1.94c-0.311,3.964,6.364,5.132,9.103,5.209
			c0.92,0.025,1.84,0.001,2.76-0.011c1.128-0.016,1.686,0.603,2.761,0.892c2.126,0.572,4.468,0.719,6.655,0.834
			c4.093,0.218,9.454,0.465,13.272-1.27c1.14-0.519,1.194-0.913,2.522-0.84c1.41,0.077,2.827,0.058,4.229-0.111
			c2.16-0.259,4.488-0.813,6.195-2.242c1.179-0.988,2.184-2.526,1.403-4.059c-0.119-0.232,3.495-3.146,3.945-3.715
			c1.265-1.596,2.286-3.584,2.803-5.554C76.131,48.358,75.077,47.537,72.447,47.412z M66.274,28.252
			c0.337,1.633,0.729,3.297,0.562,4.977c-0.11,1.104-1.436,3.378,0.454,3.791c-1.021,0.021-1.967,0.486-2.92,0.792
			c-0.059-1.042-0.277-2.106-0.51-3.124c-0.116-0.521-0.484-2.125-0.751-3.727C64.203,30.106,65.256,29.197,66.274,28.252z
			 M52.698,32.72c1.608-0.158,2.011-2.258,2.632-3.472c0.664-1.295,1.932-4.834,3.27-5.365c2,4.573,3.23,9.351,3.552,14.334
			c-5.115,1.651-8.581,2.578-13.621,3.939c-0.376,0.027-0.595,0.048-0.844-0.438c-0.208-0.406,0.092-0.827,0.875-1.136
			c1.024-0.403,1.9-0.566,2.646-0.916c0.872-0.408,1.292-0.959,1.187-1.795c-0.14-1.119-1.95-1.28-3.083-1.539
			c-0.832-0.19-1.708-0.396-2.604-0.813c-0.282-1.251-0.365-2.067-0.333-3.335C48.437,32.328,50.646,32.921,52.698,32.72z
			 M26.542,35.303c0.254-2.287,1.749-9,2.83-11.198c1.898,1.966,3.058,4.467,4.177,6.923c0.742,1.627,1.194,2.103,3.042,1.896
			c1.736-0.194,3.343-0.478,5.082-0.651c0.046,0.931-0.022,1.863-0.096,2.801c-0.107,1.378-0.691,1.046-1.868,1.369
			c-0.958,0.264-3.603,0.7-3.982,1.856c-0.444,1.353,1.603,2.098,2.515,2.386c0.572,0.181,1.159,0.311,1.744,0.442
			c0.686,0.154,0.951,0.561,0.732,1.092c-0.11,0.269-0.313,0.293-1.031,0.094c-3.931-1.039-7.134-1.986-11.25-3.063
			c-1.222-0.319-2.196-0.374-2.167-1.404C26.295,36.937,26.442,36.207,26.542,35.303z M29.562,41.797
			c3.429,0.845,5.927,1.49,8.88,2.273c2.375,0.631,3.716,1.143,4.308-1.633c0.598-2.807-1.67-3.131-3.978-3.726
			c1.382-0.446,4.239-0.384,4.587-2.165c0.211-1.083,0.362-2.182,0.375-3.281c0.016-1.297,0.766-0.766,0.735,0.075
			c0.092,1.269,0.021,2.459,0.801,3.514c0.657,0.888,2.833,1.187,3.896,1.479c-2.417,0.458-3.979,1.271-3.505,3.476
			c0.417,1.939,1.278,2.829,3.119,2.41c2.513-0.572,5.137-1.374,7.39-2.065c1.31-0.402,2.669-0.799,3.969-1.231
			c1.087-0.361,2.531-0.75,3.489-1.004C58.368,43.607,53.182,47.456,47.802,51c-0.695-1.128-1.758-4.529-3.491-4.414
			c-1.685,0.111-3.098,3.109-3.793,4.289c-2.765-2.043-5.279-3.386-7.863-5.067c-1.434-0.935-2.843-1.907-4.279-2.839
			c-1.243-0.803-2.205-1.299-3.752-2.569C26.339,40.99,27.848,41.375,29.562,41.797z M62.133,43.728
			c-0.012,0.109-0.05,0.3-0.127,0.704c-0.131,0.928-0.333,3.175-0.444,4.068c-0.166-0.89-0.405-1.997-0.625-2.875
			C60.785,45.017,61.177,44.373,62.133,43.728z M27.688,46.979c-0.16,0.936-0.395,1.82-0.583,2.604
			c-0.204-1.445-0.339-3.532-0.464-4.989c0.256,0.074,0.643,0.319,1.156,0.719C28.092,45.542,27.813,46.245,27.688,46.979z
			 M21.438,34.919c-0.837-1.454-0.107-4.581,0.207-6.147c1.044,0.866,3.539,1.815,3.267,3.334c-0.375,2.092-0.852,4.127-1.008,6.26
			c-0.956-0.337-1.95-0.616-2.959-0.729C22.129,37.224,21.816,35.788,21.438,34.919z M23.817,62.672
			c1.175-0.407,3.272-0.69,3.673-2.12c0.52-1.854-2.383-1.896-3.458-1.982c-3.318-0.269-7.196-3.79-7.669-7.163
			c1.548-0.028,4.146,0.673,5.606-0.05c2.261-1.12-1.294-3.4-2.065-4.051c-3.34-2.818-6.049-6.6-7.297-10.812
			c2.379,0.836,4.943,1.476,7.483,1.291c-1.969,1.195,2.272,3.262,2.903,3.786c1.819,1.512,1.685,6.318,2.019,8.486
			c0.128,0.837,1.49,6.474,3.208,3.925c1.277-1.898,1.387-5.26,1.872-7.465c2.502,1.679,4.292,2.931,6.782,4.628
			c-1.468-0.23-2.891-0.052-4.024,0.181c-6.592,1.479-5.679,8.408-2.265,12.668C28.313,64.02,25.743,64.09,23.817,62.672z
			 M34.453,64.625c-0.625-1.141-0.028-4.964,0.25-5.563c0.859,0.484,1.518,3.55,2.212,5.578
			C36.256,64.814,34.979,65.265,34.453,64.625z M39.966,63.883c-1.458,0.459-1.411-1.279-1.888-2.457
			c-0.506-1.249-1.731-4.99-3.476-4.935c-2.435,0.077-2.43,4.431-2.332,6.027c-1.815-2.55-3.88-8.158,0.875-8.925
			c2.013-0.324,4.18-0.121,6.211-0.121c1.699,0.001,2.095,0.026,3.024-1.479c0.646-1.047,1.17-2.171,1.924-3.149
			c0.888,1.225,1.657,3.742,2.974,4.446c0.009,0.005,0.012,0.007,0.021,0.012c2.623,1.403,6.685-0.876,9.258,0.789
			c3.196,2.067-6.372,5.645-7.221,6.036c-1.956,0.902-3.929,1.631-5.935,2.405C42.254,62.975,41.142,63.514,39.966,63.883z
			 M64.98,58.119c-1.086,0.297-3.452-0.037-3.91,1.356c-0.594,1.81,2.905,2.312,3.919,2.653c-1.84,1.274-3.988,1.407-6.146,1.484
			c-1.434,0.051-4.369-0.854-5.284,0.588c-0.865,1.363-2.984,1.285-4.421,1.331c-2.571,0.082-5.131,0.323-7.706,0.157
			c5.042-1.951,11.317-3.522,15.684-6.824c1.63-1.233,3.062-3.567,1.82-5.576c-1.469-2.375-5.453-1.916-7.832-2.043
			c1.343-0.969,6.84-4.712,7.677-5.251c0.331,1.824,0.409,6.462,1.854,7.714c2.195,1.902,2.925-4.385,3.102-5.311
			c0.258-1.35,0.605-2.794,0.587-4.175c-0.009-0.65-0.301-2.178,0.262-2.679c0.526-0.47,6.256-3.424,3.237-4.45
			c2.619,0.219,5.246-0.503,7.678-1.406c-1.24,4.144-3.688,7.781-6.823,10.732c-0.864,0.813-4.395,3.071-1.991,4.254
			c1.634,0.804,3.671,0.063,5.385,0.03C70.666,54.127,68.775,57.081,64.98,58.119z"/>
	</g>
	<path d="M46.757,57.873c3.998-3.927-2.301-4.633-5.23-3.751c-2.08,0.732-0.443,3.021,0.479,3.962
		C43.88,59.994,44.999,59.601,46.757,57.873z M42.58,55.829c1.153-0.121,2.32-0.133,3.476-0.036c-0.254,0.349-0.61,0.855-0.915,1.16
		C43.99,58.082,43.463,57.093,42.58,55.829z"/>
</g>
</svg>
