<?xml version="1.0" encoding="utf-8"?>
<!-- Generator: Adobe Illustrator 16.0.0, SVG Export Plug-In . SVG Version: 6.00 Build 0)  -->
<!DOCTYPE svg PUBLIC "-//W3C//DTD SVG 1.1//EN" "http://www.w3.org/Graphics/SVG/1.1/DTD/svg11.dtd">
<svg version="1.1" id="Layer_1" xmlns="http://www.w3.org/2000/svg" xmlns:xlink="http://www.w3.org/1999/xlink" x="0px" y="0px"
	 width="90px" height="90px" viewBox="0 0 90 90" enable-background="new 0 0 90 90" xml:space="preserve">
<g>
	<path fill="#050508" d="M22.845,50.952c-0.346-0.637-0.612,0.599-0.636,0.735c-0.191,1.073,0.103,1.636,0.479,2.667
		c0.449,1.232,1.147,2.373,1.991,3.375c0.202,0.239,2.628,2.43,2.634,2.042c0.018-1.181-2.093-2.883-2.563-4.01
		C24.415,54.961,24.229,53.5,22.845,50.952z"/>
	<path fill="#050508" d="M31.535,39.016c-0.744-0.225-0.719,3.658-0.725,4.084c-0.014,1.012,0.72,1.097,1.631,1.06
		c1.178-0.048,0.028-2.573-0.188-3.296C32.125,40.172,31.742,39.078,31.535,39.016z"/>
	<path fill="#050508" d="M67.313,50.917c-0.569-0.063-1.095,2.648-1.292,3.083c-0.496,1.094-3.061,3.965-2.708,5.021
		c0.197,0.592,2.646-2.292,3.229-3.354C66.73,55.323,68.247,51.021,67.313,50.917z"/>
	<path fill="#050508" d="M61.393,21.978c-0.272-0.351-0.638-0.746-1.289-1.182c-0.499-0.334-1.11,0.344-1.586,0.563
		c-0.916,0.42-2.173-0.13-3.032-0.455c-2.013-0.761-4.135-1.081-6.141-1.835c-1.362-0.513-3.263-2.643-4.749-2.443
		c-1.271,0.171-2.208,1.313-3.28,1.904c-1.824,1.004-4.17,1.308-6.16,1.889c-1.962,0.572-2.928,0.882-4.88,0.568
		c-1.442-0.232-2.714,2.427-3.365,3.361c-0.471,0.676-0.94,1.382-1.28,2.135c-0.762,1.693,2.313-0.334,2.794-0.578
		c4.048-2.054,8.141-3.23,12.68-3.534c4.373-0.293,8.804-0.195,13.109,0.687c2.165,0.443,4.273,1.143,6.285,2.063
		c1.686,0.771,4.04,2.479,4.339,2.398C65.452,27.354,61.698,22.321,61.393,21.978z M28.875,23.891
		c0.594-1.469,1.484-1.719,2.359-1.063C30.835,22.994,29.297,23.641,28.875,23.891z M39.379,20.898
		c1.697-0.374,3.178-1.273,4.659-2.141c1.417-0.83,4.043,1.633,5.73,2.055C46.661,20.358,42.203,20.5,39.379,20.898z M59.063,22.828
		c0.56-0.501,1.375-1,1.953,0.859C60.559,23.393,59.641,23.016,59.063,22.828z"/>
	<path fill="#050508" d="M72.525,48.846c-0.634-0.408-1.583-1.402-1.609-2.499c-0.04-1.739,0.327-3.466,0.354-5.206
		c0.058-3.747-0.328-7.54-1.419-11.135c-1.641-5.407-5.04-10.273-9.772-13.41c-2.234-1.48-4.735-2.554-7.356-3.119
		c-2.928-0.631-5.676-0.198-8.616-0.287c-3.585-0.109-6.593-0.253-9.968,1.201c-2.902,1.251-5.505,3.142-7.692,5.414
		c-4.057,4.213-6.588,9.708-7.584,15.442c-0.65,3.74-0.486,7.551,0.224,11.271c0.235,1.233,0.617,2.379,0.566,3.598
		c-0.335,1.44-0.29,2.949,0.07,4.381c0.734,2.922,2.691,5.423,5.084,7.196c2.544,1.886,3.325,3.872,4.249,6.831
		c0.653,2.091,1.45,4.895,3.148,6.384c0.782,0.686,1.97,0.866,2.89,0.328c1.357-0.794,0.445-2.995,1.1-3.442
		c0.258-0.176,2.638,1.434,3.011,1.594c1.342,0.577,2.769,0.956,4.221,1.11c2.908,0.312,5.87-0.295,8.432-1.701
		c3.215-1.765,0.939-0.106,2.084,1.865c1.796,3.093,4.597-0.753,5.385-2.206c1.539-2.835,2.229-6.163,3.957-8.871
		c1.752-2.747,4.686-4.145,6.111-7.25c0.278-0.606,0.451-2.573,0.885-2.953c0.26-0.228,1.812-0.017,2.167-0.101
		C74.578,52.775,74.056,49.831,72.525,48.846z M47.885,70.244c-5.381,1.338-10.697-2.541-13.71-5.449
		c-3.242-3.129-4.308-7.14-5.286-11.461c1.2,1.092,4.208,3.613,5.556,1.418c0.991-1.613-1.371-5.604-1.718-7.236
		c0.361,0.787,1.174,1.5,2.076,1.521c0.527,0.014,0.975-0.261,1.246-0.708c0.807-1.332-0.268-0.474,1.345-1.218
		c0.924,1.276,2.639,2.186,3.981,2.928c1.643,0.908,3.632,1.913,5.563,1.855c0.747-0.022,1.486-0.297,1.835-1.003
		c0.495-1,2.605,0.053,2.481-2.283c-0.066-1.253,1.695-1.483,2.65-0.802c1.298,0.927,2.527,1.963,3.927,2.738
		c0.69,0.383,1.422,0.698,2.192,0.881c1.225,0.292,0.755,0.798,0.595,1.951c-0.249,1.788-0.655,3.561-1.228,5.273
		C57.805,63.394,52.942,68.986,47.885,70.244z M68.428,50.621c-0.374,0.159-0.318,2.998-0.541,3.573
		c-0.901,2.32-2.25,4.476-4.396,5.812c-2.334,1.454-3.169,3.848-4.081,6.302c-0.465,1.254-1.639,5.873-3.127,6.345
		c-0.405,0.129,0.252-4.503,0.308-4.871c0.164-1.075-0.055-1.634,0.736-2.42c0.653-0.65,1.236-1.313,1.723-2.099
		c2.116-3.414,3.091-7.7,3.36-11.667c0.196-2.896-0.401-4.059-2.798-5.617c-2.766-1.798,1.287,4.062,1.495,3.903
		c-0.87,0.661-4.296-1.912-4.785-2.274c-0.899-0.667-1.918-1.846-3.134-1.701c-0.414,0.049-2.03,0.702-2.361,0.302
		c-0.094-0.113,1.502-0.868,1.538-0.889c0.966-0.55-0.063-1.372-0.484-1.959c-1.023-1.425-2.449-5.012-2.754-1.237
		c-0.171,2.116,0.46,4.024,0.545,6.09c0.091,2.222-2.968-2.443-3.374-2.633c-0.079-0.037,0.449,2.461,0.622,2.855
		c1.201,2.745-1.46,1.585-3.179,0.9c-2.345-0.936-4.357-1.964-5.632-4.189c-0.746-1.302-1.401-2.539-1.643-4.035
		c-0.036-0.221-0.541-3.244-0.899-3.025c-0.804,0.491-0.49,3.835-0.594,4.655c-0.076,0.6-0.259,1.499,0.167,2.02
		c0.253,0.311,1.585,0.452,1.585,0.89c-0.454-0.153-1.069,0.032-1.313,0.097c-0.813,0.215-0.295,1.104-0.784,1.556
		c0.404-0.374-2.098-2.901-3.462-1.95c-1.521,1.06,1.383,6.778,1.866,8.09c0.378,1.024-1.091,0.14-1.368-0.034
		c-1.052-0.659-2.001-1.469-2.769-2.448c-0.542-0.691-1.661-4.111-2.521-4.111c-0.609,0.536,0.303,3.363,0.417,4.044
		c0.312,1.85,0.723,3.681,1.165,5.504c0.827,3.415,1.976,6.425,4.494,8.945c1.142,1.143,0.952,3.519,1.157,5.169
		c-0.007-0.056,0.344,2.438-0.206,1.904c-1.121-1.091-1.595-3.392-2.099-4.812c-0.5-1.409-0.816-3.019-1.491-4.357
		c-0.776-1.539-2.221-2.243-3.569-3.174c-1.453-1.004-2.66-2.361-3.515-3.905c-0.78-1.408-1.321-3.054-1.141-4.682
		c0.071-0.639,0.272-1.216,0.541-1.794c0.263-0.564-0.287-1.661-0.43-2.249c-0.978-4.013-1.291-8.234-0.456-12.302
		c1.321-6.438,4.928-12.703,10.29-16.586c3.123-2.263,6.668-3.427,10.528-3.316c3.553,0.101,7.605-0.12,11.062,0.769
		c6.993,1.798,12.457,7.848,14.44,14.664c1.163,4,1.388,7.858,1.316,12.009c-0.028,1.625-0.868,3.849-0.342,5.399
		c0.163,0.479,2.322,2.645,2.228,2.799c-0.119,0.069-0.347,0.065-0.481,0.035C69.656,50.77,68.859,50.438,68.428,50.621z"/>
</g>
</svg>
