<?xml version="1.0" encoding="utf-8"?>
<!-- Generator: Adobe Illustrator 16.0.0, SVG Export Plug-In . SVG Version: 6.00 Build 0)  -->
<!DOCTYPE svg PUBLIC "-//W3C//DTD SVG 1.1//EN" "http://www.w3.org/Graphics/SVG/1.1/DTD/svg11.dtd">
<svg version="1.1" id="Layer_1" xmlns="http://www.w3.org/2000/svg" xmlns:xlink="http://www.w3.org/1999/xlink" x="0px" y="0px"
	 width="90px" height="90px" viewBox="0 0 90 90" enable-background="new 0 0 90 90" xml:space="preserve">
<path d="M76.25,59.417c-4.947-5.148-5.1-12.408-5.374-19.042c-0.036-0.881-0.173-2.247-0.251-3.125
	c0.487-0.593,0.903-1.412,1.313-2.063c0.775-1.23,0.806-2.525,0.969-3.969c0.234-2.083-0.104-2.763-2.406-2.5
	c-1.252,0.143-1.401,0.839-1.75-0.625c-0.39-1.637-1.326-3.728-2.207-5.162c-1.698-2.769-3.938-5.19-6.607-7.046
	c-4.652-3.235-10.383-4.631-16.007-4.429c-10.005,0.36-18.365,6.082-22.179,15.418c-2.787,6.825-2.284,13.993-2.917,21.208
	c-0.295,3.36-1.749,6.42-3.52,9.327c-1.41,2.315-3.263,3.983-4.647,6.287c-0.128,0.211,1.069,1.402,1.209,1.553
	c1.155,1.251,1.748,1.425,3.393,1.81c4.158,0.971,8.485-0.013,12.107-2.269c1.239,2.986,3.856,10.341,7.629,10.926
	c2.732,0.423,2.421-2.752,1.801-4.328c-0.274-0.695-2.234-4.427-1.638-5.019c0.194-0.195,2.717,1.887,2.96,2.072
	c1.864,1.416,4.11,2.669,6.498,2.785c2.253,0.109,4.581-1,6.408-2.233c0.322-0.218,3.339-2.471,3.529-2.27
	c0.526,0.527-1.286,3.558-1.539,4.092c-0.665,1.402-1.014,3.17,0.286,4.389c3.76,3.524,8.731-8.206,9.398-10.581
	c3.944,2.556,8.833,3.706,13.287,1.912C80.287,64.809,78.854,62.125,76.25,59.417z M50.737,24.836
	c1.558,0.25,2.649,1.173,3.184,2.669c-1.143-0.66-5.073-2.334-6.192-1.001c-0.7,0.835-1.436,1.634-2.198,2.413
	c-0.466,0.477,0.377,1.442,0.651,1.989c-1.528-1.294-1.272-1.294-2.801,0c0.274-0.547,1.117-1.513,0.651-1.989
	c-0.763-0.779-1.498-1.578-2.198-2.413c-1.12-1.334-4.981,0.307-6.125,0.967c0.804-2.252,2.527-2.54,4.605-2.875
	c-1.349-2.152-2.679-4.332-3.22-6.849c2.935,3.232,5.393,6.824,7.687,10.528c2.294-3.704,4.752-7.295,7.687-10.528
	c-0.541,2.517-1.871,4.697-3.22,6.849C49.744,24.676,50.241,24.756,50.737,24.836z M46.054,22.642
	c-0.433,0.618-0.86,1.24-1.272,1.872c-0.63-0.965-1.577-1.612-1.137-2.732c0.321-0.817,0.644-1.635,0.965-2.453
	C45.091,20.434,45.572,21.538,46.054,22.642z M41.982,20.544c-1.114-1.473-2.29-2.901-3.536-4.265
	c1.805-0.494,3.669-0.752,5.537-0.819C43.316,17.155,42.649,18.85,41.982,20.544z M47.417,20.763
	c-0.773-1.774-1.547-3.548-2.32-5.322c2.05,0.007,4.101,0.244,6.089,0.75C49.851,17.647,48.602,19.183,47.417,20.763z
	 M15.792,63.052c3.799-3.708,5.866-8.68,6.61-13.875c0.363,1.585,0.295,3.548,1.794,4.555c1.229,0.826,1.565,3.916,1.991,5.206
	c0.538,1.627,0.11,1.859-0.688,2.424c-0.84,0.595-1.752,1.092-2.71,1.474C20.527,63.739,18.119,63.681,15.792,63.052z
	 M55.559,61.752c-4.324,3.719-9.02,7.42-14.689,4.354c-2.322-1.255-5.179-2.63-6.811-4.831c-1.062-1.432-1.636-8.508-1.857-11.634
	c-0.095-1.327-0.982-5.392,0.945-5.364c2.096,0.03,3.992,0.429,5.741,1.54c0.96,0.61,7.735,5.224,7.94,2.259
	c1.751,0.691,5.764,2.314,7.369,0.648c1.413-1.466-3.592-2.941-4.325-3.416c1.805-0.42,3.659,0.41,5.459,0.549
	c0.819,0.063,1.641,0.074,2.461,0.097c-0.017,1.387-0.088,2.773-0.19,4.156c-0.162,2.207-0.397,4.408-0.613,6.61
	C56.841,58.223,56.816,60.67,55.559,61.752z M33.226,42.013c0.48-0.832,0.89-1.703,1.242-2.596c0.415,0.958,0.906,1.884,1.465,2.767
	C35.034,42.084,34.131,42.009,33.226,42.013z M57.382,67.628c1.108-4.658,1.739-9.376,2.164-14.14
	c0.173-1.935,1.999-9.157-1.165-9.597c-2.238-0.312-4.447-0.299-6.691-0.746c-1.9-0.378-3.329-2.01-4.718-3.23
	c-1.497-1.317-2.814-0.401-2.256,1.478c0.6,2.025,1.809,3.839,3.5,5.114c-1.556-0.484-6.281-4.733-6.668-1.632
	c-1.693-1.162-3.191-2.155-4.06-4.07c-0.591-1.305-1.222-3.87-2.63-4.561c-1.581-0.775-3.127,4.239-3.513,5.134
	c-0.414,0.96-1.326,1.882-1.548,2.869c-0.497,2.213,0.197,5.059,0.351,7.297c0.367,5.339,1.037,10.823,2.336,16.021
	c-2.192-4.002-4.365-8.485-5.285-12.981c-0.49-2.393-0.567-4.844-0.971-7.25c-0.237-1.419-1.41-6.074-3.436-3.191
	c0.223-10.221,1.945-21.666,12.239-26.596c0.332,2.01,1.119,3.924,2.109,5.695c-3.975,1.583-4.131,5.367-3.813,9.015
	c1.984-2.205,4.123-4.178,7.367-3.999c0.829,0.964,1.316,0.892,0.707,2.137c-0.502,1.025-0.965,2.072-1.346,3.149
	c-0.317,0.854-0.608,1.72-0.913,2.579c1.972-1.155,3.888-2.289,5.637-3.78c1.749,1.491,3.665,2.625,5.637,3.78
	c-0.291-0.823-0.583-1.646-0.874-2.468c-0.291-0.824-0.623-1.63-0.987-2.424c-0.765-1.662-0.88-1.589,0.31-2.973
	c3.246-0.178,5.382,1.792,7.367,3.999c0.318-3.647,0.162-7.431-3.813-9.015c1.02-1.823,1.824-3.799,2.138-5.874
	c4.245,1.915,7.539,5.343,9.578,9.501c0.852,1.735,1.448,3.521,1.867,5.399c0.094,0.422,2.789,0.227,3.219,0.073
	c-0.754,1.748-2.515,2.525-2.352,4.343c0.207,2.297,0.295,4.578,0.326,6.882c-3.006-3.098-3.813,6.336-4.118,7.604
	C61.783,56.56,60.022,62.739,57.382,67.628z M65.794,49.87c0.354-1.422,0.51-2.398,0.832-3.828
	C66.854,46.653,67.229,48.587,65.794,49.87z M62.987,60.022c0.027-1.176,0.858-3.702,1.304-5.222
	c0.247-0.841,0.349-0.878,1.117-1.383c1.127-0.74,1.793-1.807,2.392-2.99c0.871,4.741,2.929,9.225,6.405,12.622
	C69.876,64.202,66.376,62.691,62.987,60.022z"/>
</svg>
