<?xml version="1.0" encoding="utf-8"?>
<!-- Generator: Adobe Illustrator 16.0.0, SVG Export Plug-In . SVG Version: 6.00 Build 0)  -->
<!DOCTYPE svg PUBLIC "-//W3C//DTD SVG 1.1//EN" "http://www.w3.org/Graphics/SVG/1.1/DTD/svg11.dtd">
<svg version="1.1" id="Layer_1" xmlns="http://www.w3.org/2000/svg" xmlns:xlink="http://www.w3.org/1999/xlink" x="0px" y="0px"
	 width="90px" height="90px" viewBox="0 0 90 90" enable-background="new 0 0 90 90" xml:space="preserve">
<g>
	<path fill="#222120" d="M40.878,54.823c-2.204-1.487-4.16-3.378-5.471-5.709c-0.613-1.089-1.077-2.259-1.387-3.47
		c-0.124-0.485-0.19-2.889-0.615-3.105c-0.539-0.273-1.155,1.611-1.686,1.442c-0.458-0.146-0.149-1.438-0.898-0.604
		c-0.764,0.85-1.229,2.065-1.577,3.134c-0.712,2.19-0.342,2.736,1.325,4.124c2.013,1.676,4.306,3.083,6.672,4.2
		c0.938,0.442,1.942,0.9,2.976,1.06C41.081,56.026,41.974,55.563,40.878,54.823z"/>
	<path fill="#222120" d="M70.484,49.812c-0.854-0.753-2.377-1.506-2.819-2.53c0.384-3.188,0.628-6.201-0.479-9.252
		c-2.09-5.76-5.234-11.394-8.725-16.431c-1.439-2.077-2.949-4.106-4.487-6.11c-1.021-1.33-2.104-3.216-3.491-4.209
		c-0.809-0.58,0.086,5.455-2.122,1.663c-0.651-1.12-1.337-2.22-2.023-3.318c-0.434-0.694-1.016-2.202-1.743-1.081
		c-0.861,1.328-1.669,2.691-2.484,4.048c-0.138,0.23-1.203,2.504-1.512,1.38c-0.097-0.35-0.346-3.01-0.879-2.628
		c-1.426,1.021-2.577,3.016-3.639,4.393c-4.747,6.154-8.941,12.771-12.047,19.913c-0.783,1.802-1.719,3.729-1.715,5.721
		c0.003,1.538,0.83,4.996-0.161,6.068c-1.173,1.269-2.538,2.623-3.219,4.25c-1.487,3.556-0.285,7.215,1.625,10.344
		c0.923,1.511,2.023,2.887,3.563,3.813c0.707,0.425,1.195,0.537,1.614,1.301c0.479,0.871,1.038,1.699,1.604,2.514
		c2.294,3.3,4.994,6.24,8.063,8.842c2.086,1.77,4.082,3.486,6.844,3.5c2.153,0.011,4.128,0.146,6.281,0.157
		c2.784,0.014,5.48-2.925,7.406-4.657c2.7-2.428,5.022-5.202,7.031-8.219C63.672,68.224,64,66.594,65.438,66
		c1.827-0.754,2.954-2.102,4-3.75C71.524,58.96,73.224,53.324,70.484,49.812z M66.434,62.448c-0.893,1.018-1.975,1.529-3.206,2.049
		c-0.779,0.329-1.368,2.108-1.809,2.795c-2.117,3.3-4.738,6.35-7.639,8.986C52.445,77.492,49.902,80,47.959,80
		c-2.096,0-5.709,0.125-6.83-0.405c-5.367-2.54-10.352-8.52-13.15-13.619c-0.842-1.535-1.69-1.519-3.048-2.49
		c-1.397-1-2.335-2.511-3.098-4.019c-1.836-3.631-1.712-6.611,1.161-9.468c0.167,0.607,0.951,0.715,1.204,1.422
		c0.231,0.647,1.466,5.546,1.889,5.454c1.513-0.334-2.188-10.005,0.151-11.958c1.016-0.848,1.664-0.339,1.759-1.832
		c0.091-1.439,0.449-2.87,1.085-4.167c1.035-2.11,2.801-3.691,5.197-3.923c2.05-0.198,3.911,0.771,5.425,2.073
		c1.061,0.912,1.987,1.974,2.841,3.078c0.389,0.503,1.996,3.523,2.581,3.523c0.645,0,2.343-3.204,2.75-3.728
		c1.071-1.378,2.26-2.735,3.721-3.712c2.233-1.494,5.291-1.703,7.498-0.021c1.046,0.798,1.798,1.923,2.297,3.13
		c0.576,1.391,0.305,3.545,1.019,4.746c0.278,0.469,1.4,0.492,1.831,1.007c0.58,0.694,0.664,1.693,0.672,2.558
		c0.013,1.384-0.196,2.771-0.422,4.132c-0.179,1.075-1.073,3.181-0.82,4.285c0.547,2.391,2.116-3.896,2.389-4.645
		c0.769-2.106,2.865-0.019,3.357,1.354C70.596,56.062,68.554,60.031,66.434,62.448z"/>
	<path fill="#222120" d="M58.85,43.13c-0.023,0.308-0.124,0.59-0.303,0.846c-0.612,0.043-0.961-1.23-1.561-1.396
		c-0.426-0.118-0.402,1.512-0.435,1.695c-0.289,1.675-0.847,3.392-1.675,4.879c-0.893,1.605-2.25,2.997-3.617,4.205
		c-0.623,0.55-4.119,3.199-0.976,2.546c3.18-0.66,6.43-2.957,8.942-4.913c0.595-0.464,2.26-1.519,2.201-2.35
		C61.303,46.886,60.056,44.466,58.85,43.13z"/>
</g>
</svg>
