<?xml version="1.0" encoding="utf-8"?>
<!-- Generator: Adobe Illustrator 16.0.0, SVG Export Plug-In . SVG Version: 6.00 Build 0)  -->
<!DOCTYPE svg PUBLIC "-//W3C//DTD SVG 1.1//EN" "http://www.w3.org/Graphics/SVG/1.1/DTD/svg11.dtd">
<svg version="1.1" id="Layer_1" xmlns="http://www.w3.org/2000/svg" xmlns:xlink="http://www.w3.org/1999/xlink" x="0px" y="0px"
	 width="90px" height="90px" viewBox="0 0 90 90" enable-background="new 0 0 90 90" xml:space="preserve">
<path d="M74.892,23.236c-3.005-0.141-6.229,2.103-8.568,3.715c-3.246,2.236-6.034,5.066-8.461,8.162
	c-1.142,1.455-2.203,2.977-3.15,4.566c-0.723,1.213-0.763,2.571-2.247,2.134c-4.458-1.315-9.209-1.437-13.712-0.266
	c-1.823,0.474-1.926,0.917-2.814-0.721c-0.861-1.588-1.863-3.1-2.935-4.553c-2.396-3.248-5.157-6.23-8.399-8.649
	c-1.896-1.415-11.1-7.789-12.005-2.214c-0.414,2.55,1.019,5.417,2.089,7.628c1.617,3.341,3.517,6.637,5.796,9.574
	c0.66,0.851,6.211,6.056,6.015,6.591c-0.572,1.403-1.611,2.598-2.163,4.049c-0.725,1.909-1.108,3.95-1.121,5.993
	c-0.044,6.937,4.441,12.11,10.642,14.646c9.941,4.066,26.014,2.837,31.364-7.957c2.718-5.484,1.652-11.533-1.582-16.51
	c-0.417-0.642,4.474-5.125,5.196-6.004c1.989-2.421,3.646-5.076,5.138-7.827C75.087,33.541,80.729,23.508,74.892,23.236z
	 M68.61,38.931c-0.587,1.956-3.777,4.656-5.173,6.069c-1.158,1.173-4.305,3.122-2.833,4.866c3.389,3.955,4.665,9.529,2.452,14.372
	c0.498-1.504,0.872-4.026-0.386-5.289c-1.705-1.712-4.257,0.766-5.143,2.145c-1.134,1.764-1.946,4.366-0.842,6.336
	c0.97,1.729,2.565,1.253,3.878,0.27c-6.918,7.202-22.177,7.05-29.939,1.417c3.93,0.95,3.221-5.347,1.749-7.343
	c-0.819-1.109-2.257-2.119-3.714-1.86c-1.723,0.306-2.272,2.849-1.657,4.513c-1.44-3.259-1.065-6.841-0.211-9.779
	c0.53-1.824,1.282-3.163,2.583-4.553c1.352-1.444-0.99-3.435-2-4.386c-1.39-1.31-6.999-6.82-6.996-8.958
	c0.003-2.219,0.093-1.827,0.559-3.531c0.465-1.702,0.624-2.515,1.08-3.994c4.261,2.334,7.434,6.887,10.232,10.932
	c0.645,0.931,2.369,5.315,3.732,4.894c2.986-0.924,5.684-1.612,8.861-1.612c3.015,0,6.011,0.419,8.827,1.471
	c1.536,0.58,3.273-3.735,3.954-4.783c2.632-4.054,5.947-8.333,10.162-10.856c0.62,1.736,0.787,3.215,0.808,5.058
	C68.611,35.751,69.017,37.576,68.61,38.931z"/>
</svg>
