<?xml version="1.0" encoding="utf-8"?>
<!-- Generator: Adobe Illustrator 16.0.0, SVG Export Plug-In . SVG Version: 6.00 Build 0)  -->
<!DOCTYPE svg PUBLIC "-//W3C//DTD SVG 1.1//EN" "http://www.w3.org/Graphics/SVG/1.1/DTD/svg11.dtd">
<svg version="1.1" id="Layer_1" xmlns="http://www.w3.org/2000/svg" xmlns:xlink="http://www.w3.org/1999/xlink" x="0px" y="0px"
	 width="90px" height="90px" viewBox="0 0 90 90" enable-background="new 0 0 90 90" xml:space="preserve">
<path d="M75.509,54.091c-0.682-2.656-1.764-4.939-2.923-7.417c-0.775-1.658-1.869-3.776-1.518-5.678
	c0.396-2.146,0.627-4.642-0.311-6.689c-0.847-1.852-0.761-4.096-1.496-6.031c-1.328-3.489-3.452-6.541-6.236-9.019l0.146-0.239
	c0.981-1.586-0.236-5.031-2.438-6.901c-2.639-2.24-6.646-3.5-9.631-3.027c-1.997,0.316-3.165,0.809-4.482,1.892
	c-0.635,0.522-0.857,0.945-1.025,1.746c-7.45,0-14.703,2.539-19.973,7.898c-2.837,2.886-4.636,6.364-5.533,10.305
	c-0.131,0.577-0.254,1.156-0.338,1.743c-0.13,0.92-0.517,1.646-0.746,2.529c-0.29,1.114-0.359,2.293-0.321,3.439
	c0.036,1.01,0.597,2.342,0.425,3.31c-0.389,2.155-1.344,4.059-2.285,6.013c-1.088,2.261-1.96,4.54-2.471,7.001
	c-0.86,4.129-0.267,9.209,1.485,13.024c0.621,1.354,1.835,2.325,3.374,2.698c3.979,0.963,8.05,1.501,11.877-0.39
	c0.675-0.333,1.536-0.662,2.005-1.287c0.183-0.244,0.547-1.576,0.659-1.496c2.722,1.938,5.594,3.608,8.797,4.612
	c1.123,0.352,3.263,0.416,4.441,0.132c3.227-0.778,6.484-2.553,9.063-4.634c0.127-0.127,0.27-0.228,0.429-0.303
	c-0.059,0.003,0.249,1.227,0.33,1.361c0.422,0.694,1.228,1.114,1.926,1.47c3.814,1.948,7.94,1.667,11.961,0.572
	c2.401-0.654,3.732-2.159,4.357-4.929C75.934,61.935,76.511,58.003,75.509,54.091C75.315,53.337,76.282,57.107,75.509,54.091z
	 M68.888,47.395c1.293,2.674,2.707,5.306,3.259,8.256c0.417,2.238,0.279,4.649-0.075,6.886c-0.162,1.012-0.45,3.829-1.595,4.375
	c-2.838,1.354-6.923,1.51-9.789,0.148c2.107-2.961,2.345-6.505,2.092-10.014c-0.296-4.075-2.055-7.817-2.671-11.851
	c-0.223-1.454-1.201-1.539-2.336-1.638c-0.945-0.083-1.637-0.219-2.036-0.326c-0.032-0.975,0.011-1.953-0.098-2.925
	c-0.137-1.215-1.509-2.594-2.422-1.041c-0.827,1.403-0.808,3.337-1.447,4.853c-1.498,0.498-3.273,0.622-4.823,0.724
	c-2.884,0.189-5.882-0.042-8.693-0.716C37.67,42.78,37.525,41.396,37.155,40c-0.191-0.725-0.494-1.597-1.393-1.597
	c-0.827,0-1.258,0.728-1.355,1.472c-0.149,1.108-0.088,2.241-0.128,3.355c-0.662,0.164-1.832,0.364-2.437,0.366
	c-1.674,0.006-1.841,1.272-1.939,2.029c-0.488,3.704-2.295,7.083-2.595,10.808c-0.307,3.824-0.055,7.309,2.033,10.631
	c-2.11,0.982-4.677,1.113-6.938,0.678c-1.096-0.211-2.902-0.384-3.383-1.587c-0.801-2.008-1.229-4.021-1.269-6.184
	c-0.026-1.455-0.173-3,0.181-4.416c0.511-2.049,1.203-3.872,2.109-5.779c1.151-2.42,2.334-4.875,2.737-7.556
	c3.421-2.21,7.408-3.629,11.401-4.461c2.252-0.469,4.514-0.661,6.769-1.069c2.375-0.428,5.212-0.64,7.59-0.111
	c1.814,0.404,3.695,0.432,5.518,0.833c1.922,0.421,3.811,0.815,5.69,1.38c2.587,0.777,5.291,1.852,7.527,3.368
	C67.575,43.93,68.105,45.775,68.888,47.395C69.072,47.775,68.847,47.313,68.888,47.395z M42.552,69.446
	c-2.286-1.165-4.672-2.005-6.721-3.631c-1.121-0.891-2.246-1.778-3.226-2.826c-0.497-0.531-2.037-1.834-2.034-2.64
	c0.001-0.411,0.974-1.231,2.284-1.924c1.631-0.863,3.861-1.385,5.704-1.385c1.198,0,2.035-0.365,2.925-1.163
	c0.866-0.78,1.635-1.66,2.85-1.801c0.456-0.053,0.861-0.051,1.316-0.002c1.306,0.137,2.118,1.095,3.037,1.931
	c1.118,1.02,2.325,0.913,3.739,1.114c1.42,0.202,2.733,0.564,4.08,1.041c0.863,0.305,2.738,1.142,2.985,2.125
	c0.14,0.557-1.122,1.676-1.473,2.063c-0.536,0.593-1.112,1.151-1.692,1.7c-1.107,1.049-2.307,2.018-3.623,2.784
	C49.878,68.476,45.911,71.158,42.552,69.446C42.417,69.378,43.128,69.739,42.552,69.446z M59.161,57.187
	c-2.199-1.298-4.645-1.963-7.186-2.212c-0.441-0.043-0.967,0.004-1.39-0.145c-0.516-0.182-0.94-0.79-1.331-1.144
	c-0.985-0.891-2.044-1.537-3.386-1.679c-0.602-0.07-1.173-0.073-1.773,0.005c-1.104,0.128-2.023,0.584-2.867,1.293
	c-0.867,0.728-1.467,1.657-2.669,1.657c-3.071,0.007-6.89,1.108-9.096,3.326c0.129-4.347,2.097-8.181,2.682-12.454
	c0.954-0.064,3.267-0.374,3.896-0.941c0.024-0.022,0.047-0.043,0.068-0.065c0.178,0.484,0.479,1.002,0.989,1.266
	c1.02,0.528,2.431,0.607,3.545,0.751c2.059,0.265,4.163,0.371,6.235,0.255c1.527-0.085,5.952-0.119,6.821-1.799
	c0.064-0.127,0.137-0.293,0.213-0.487c0.962,0.917,2.807,0.891,4.016,1.018c0.413,2.664,1.268,5.053,1.979,7.632
	c0.446,1.62,0.598,3.225,0.709,4.891C59.949,57.665,59.173,57.193,59.161,57.187C58.903,57.035,59.173,57.193,59.161,57.187z
	 M58.281,34.583c-0.018,0.161-0.033,0.321-0.048,0.482c-6.091-1.58-12.222-2.237-18.476-1.432c-3.22,0.416-6.632,0.764-9.694,1.915
	c-1.455,0.546-3.062,0.811-4.444,1.533c-1.196,0.624-2.431,1.195-3.632,1.823c-0.101-0.621-0.348-1.388-0.238-2.019
	c1.64-1.5,3.992-2.905,6.027-3.788c2.706-1.174,5.453-2.228,8.361-2.803c3.4-0.671,7.016-1.216,10.482-0.979
	c4.016,0.275,7.876,1.053,11.722,2.203C58.358,32.479,58.344,33.934,58.281,34.583z M22.531,30.18
	c1.164-4.968,5.123-8.974,9.291-11.608c4.277-2.703,10.076-4.019,15.113-3.508c0.934,0.095,0.913,0.12,0.913-1.067V13.02
	l0.213-0.268c0.845-1.055,3.254-1.727,5.295-1.475c3.847,0.475,7.12,2.786,7.818,5.52c0.146,0.567,0.198,0.946-0.186,1.423
	c-0.225,0.28-1.41,1.225-0.882,1.604c3.086,2.219,5.454,5.364,6.895,8.852c0.719,1.738,0.887,3.507,1.151,5.341
	c0.111,0.772,0.698,1.362,0.86,2.138c0.265,1.277,0.206,2.648-0.005,3.928h-0.228c0.228-1.39,0.403-3.203-0.155-4.543
	c-0.092-0.22-1.676-2.317-1.8-1.742c-0.364,1.722,0.005,3.542-0.479,5.278c-1.959-1.114-4.107-1.699-6.182-2.529
	c0.143-1.145,0.236-2.291,0.255-3.444c0.014-0.833,0.2-2.017-0.079-2.82c-0.191-0.548-0.993-0.632-1.466-0.774
	c-0.931-0.281-1.849-0.598-2.791-0.843c-2.026-0.524-4.093-0.85-6.169-1.085c-1.725-0.196-3.434-0.399-5.171-0.422
	c-1.625-0.021-3.271,0.266-4.886,0.453c-6.58,0.764-12.576,2.933-18.05,6.656C22.006,32.893,22.214,31.538,22.531,30.18
	C22.793,29.063,22.196,31.607,22.531,30.18z"/>
</svg>
