<?xml version="1.0" encoding="utf-8"?>
<!-- Generator: Adobe Illustrator 16.0.0, SVG Export Plug-In . SVG Version: 6.00 Build 0)  -->
<!DOCTYPE svg PUBLIC "-//W3C//DTD SVG 1.1//EN" "http://www.w3.org/Graphics/SVG/1.1/DTD/svg11.dtd">
<svg version="1.1" id="Layer_1" xmlns="http://www.w3.org/2000/svg" xmlns:xlink="http://www.w3.org/1999/xlink" x="0px" y="0px"
	 width="90px" height="90px" viewBox="0 0 90 90" enable-background="new 0 0 90 90" xml:space="preserve">
<path d="M72.958,45.448c-1.366-0.24-2.605-0.477-2.632-0.504c-0.012-0.013,0.633-0.601,1.437-1.306
	c1.943-1.706,2.254-2.317,1.863-3.661c-0.362-1.245-0.733-1.393-5.045-2.004c-1.716-0.243-3.201-0.461-3.3-0.483
	c-0.135-0.031-0.268-0.228-0.527-0.779c-2.576-5.487-9.104-9.384-16.533-9.867c-1.114-0.072-0.727,0.123-4.12-2.069
	c-0.22-0.142-1.966-1.259-3.88-2.482c-1.914-1.224-3.912-2.501-4.44-2.84c-0.528-0.339-2.58-1.651-4.56-2.916
	c-1.98-1.266-3.726-2.383-3.88-2.483c-2.434-1.59-2.363-1.559-3.48-1.552c-0.484,0.003-0.984,0.036-1.112,0.074
	c-0.811,0.243-1.414,1.606-1.174,2.657c0.048,0.209,0.775,1.793,1.616,3.52c2.301,4.726,2.471,5.077,2.471,5.12
	c0,0.021-0.283,0.056-0.629,0.076c-1.229,0.071-1.948,0.781-2.066,2.038c-0.067,0.713,0.031,1.005,1.144,3.418
	c0.549,1.192,1.018,2.245,1.042,2.339c0.053,0.212,0.59,0.114-10.09,1.83c-3,0.482-3.381,0.658-3.79,1.749
	c-0.654,1.748-0.071,2.51,3.03,3.963c1.166,0.547,2.678,1.259,3.36,1.583c0.682,0.324,2.245,1.064,3.473,1.646
	s2.245,1.094,2.259,1.138s-0.577,0.395-1.313,0.779c-0.736,0.385-2.725,1.431-4.419,2.324s-3.762,1.982-4.597,2.421
	c-2.15,1.128-2.412,1.438-2.396,2.836c0.012,1.095,0.337,1.695,1.136,2.092c0.504,0.251,1.208,0.245,10.018-0.085
	c0.814-0.03,1.504-0.044,1.533-0.03c0.059,0.026-0.461,1.25-1.437,3.383c-1.471,3.217-2.497,5.22-3.234,6.316
	c-1.329,1.977-0.483,4.094,1.637,4.095c0.923,0.001,2.388-0.792,5.661-3.066c0.638-0.442,1.211-0.81,1.274-0.814
	c0.118-0.011,0.197,0.361,2.243,10.511c0.998,4.951,1.053,5.169,1.419,5.597c0.669,0.781,1.948,1.017,2.923,0.538
	c0.757-0.372,0.898-0.609,1.414-2.37c0.052-0.176,0.088-0.138,0.385,0.4c0.181,0.326,0.448,0.709,0.595,0.851
	c0.635,0.608,3.454,1.675,5.556,2.101l1.192,0.242h2.883c2.72,0.001,2.94-0.011,3.89-0.192c2.576-0.495,5.34-1.538,5.994-2.262
	c0.895-0.99,2.952-6.555,2.952-7.985c0-0.292,0.029-0.358,0.18-0.404c0.891-0.272,1.1-0.775,2.015-4.836
	c0.421-1.869,0.797-3.473,0.836-3.563c0.072-0.167,0.191-0.205,6.089-1.956c2.83-0.841,3.28-1.219,3.279-2.751
	c-0.001-1.169-0.308-1.649-1.435-2.25c-0.413-0.22-0.741-0.437-0.729-0.479c0.012-0.044,1.413-1.315,3.113-2.825
	c3.552-3.154,3.477-3.063,3.486-4.255C75.548,46.316,75.043,45.814,72.958,45.448z M34.385,67.071
	c-0.023,0.115-0.214,0.861-0.469,1.817c-0.237,0.888-0.648,2.453-0.915,3.488c-0.045,0.174-0.089,0.344-0.131,0.51
	c-0.695-3.44-1.763-8.712-2.28-11.238l-0.004-0.02c-0.094-0.459-0.17-0.832-0.243-1.144c0.304,0.215,0.578,0.36,0.689,0.417
	c0.386,0.194,0.65,0.456,0.743,0.739c0.096,0.291,0.259,0.695,0.379,0.938c0.066,0.135,0.206,0.488,0.292,0.761
	c0.3,0.939,1.202,2.291,2.111,3.133C34.488,66.649,34.43,66.85,34.385,67.071z M54.253,76.813c-0.422,0.819-0.561,0.924-1.841,1.396
	c-4.587,1.69-8.825,1.664-13.218-0.082c-1.14-0.453-1.209-0.515-1.708-1.506c-0.579-1.15-1.673-4.411-1.693-5.043
	c-0.021-0.72,0.778-0.975,1.93-0.617c0.262,0.082,0.707,0.313,0.987,0.512c1.635,1.16,6.254,2.46,7.735,2.178
	c0.075-0.015,0.423-0.068,0.775-0.12c1.021-0.151,2.908-0.621,3.56-0.888c1.225-0.499,1.89-0.818,2.251-1.081
	c1.188-0.862,2.795-0.99,3.062-0.244C56.237,71.716,55.045,75.274,54.253,76.813z M56.876,64.171
	c-0.519,0.69-2.895,3.095-3.759,3.804c-2.475,2.03-3.75,2.794-5.154,3.081c-4.134,0.848-6.564-0.056-10.912-4.058
	c-0.445-0.409-0.942-0.8-1.104-0.868c-0.746-0.312-2.11-2.049-2.454-3.124c-0.097-0.305-0.256-0.716-0.354-0.914
	c-0.098-0.197-0.242-0.555-0.32-0.793c-0.186-0.567-0.638-1.05-1.294-1.38c-0.618-0.311-1.226-0.849-1.226-1.085
	c0-0.157,0.41-0.582,0.562-0.582c0.039,0,0.23-0.197,0.427-0.438c0.197-0.241,0.524-0.574,0.727-0.739
	c0.397-0.325,1.67-1.443,3.196-2.81c1.635-1.465,1.761-1.575,2.089-1.826c0.465-0.355,0.615-0.38,1.182-0.195
	c0.515,0.169,1.184,0.319,2.211,0.497c1.12,0.194,1.154,0.428,0.471,3.282c-0.223,0.929,0.525,0.416,1.181-0.811
	c0.152-0.286,0.394-0.691,0.537-0.901c0.142-0.209,0.375-0.552,0.517-0.76s0.391-0.612,0.552-0.898
	c0.162-0.286,0.374-0.628,0.47-0.761c0.097-0.132,0.446-0.689,0.777-1.239c1.062-1.766,1.278-2.113,1.542-2.48
	c0.143-0.197,0.323-0.486,0.402-0.64c0.078-0.153,0.244-0.406,0.367-0.56c0.123-0.154,0.298-0.448,0.388-0.654
	c0.09-0.205,0.293-0.526,0.449-0.714c0.157-0.188,0.352-0.47,0.433-0.627c0.192-0.37,0.929-1.592,1.048-1.734
	c0.251-0.303,1.229,0.497,2.017,1.649c0.319,0.467,0.734,0.973,1.588,1.935c0.381,0.43,0.804,0.971,0.938,1.203
	c0.135,0.232,0.517,0.71,0.849,1.062c1.117,1.186,0.994,1.303-1.88,1.805c-3.614,0.63-5.699,1.507-4.542,1.91
	c0.52,0.182,1.735,0.03,3.301-0.411c0.484-0.137,1.204-0.316,1.6-0.399s1.063-0.261,1.48-0.396c1.981-0.635,1.881-0.923,2.167,6.252
	C57.57,63.446,57.587,63.227,56.876,64.171z M42.512,50.212c-0.347,1.684-0.405,1.74-1.471,1.435
	c-1.274-0.366-1.941-0.654-1.941-0.838c0-0.099,0.724-0.875,1.48-1.588c0.308-0.291,0.793-0.78,1.08-1.088
	c0.287-0.308,0.634-0.676,0.772-0.819c0.683-0.707,0.829-0.256,0.438,1.348C42.736,49.206,42.575,49.904,42.512,50.212z
	 M57.937,68.013c-0.105,0-0.175-0.099-0.23-0.396c0.13,0.041,0.255,0.055,0.36,0.055c0.054,0,0.105-0.003,0.156-0.008
	C58.118,67.94,58.037,68.013,57.937,68.013z M62.3,57.789c0,0.349-1.674,1.584-1.985,1.465c-0.15-0.058-0.087-0.576,0.132-1.082
	c0.085-0.198,0.181-0.575,0.212-0.84c0.102-0.865,0.278-1.03,0.757-0.713c0.521,0.346,0.804,0.106,0.694-0.587
	c-0.238-1.501-0.184-5.1,0.082-5.394c0.369-0.407,1.27,0.2,1.717,1.157c0.422,0.903,0.386,1.86-0.139,3.6
	c-0.133,0.443-0.913,1.748-1.245,2.086C62.402,57.608,62.3,57.746,62.3,57.789z M64.508,57.758c-0.346,0.102-0.7,0.207-1.033,0.307
	c0.235-0.291,0.527-0.737,0.782-1.179c0.292,0.216,0.659,0.418,1.073,0.628C65.058,57.595,64.779,57.678,64.508,57.758z
	 M67.381,51.501c-0.644,0.56-1.415,1.251-2.101,1.886c0.064-1.21-0.226-2.412-1.321-3.337c-0.508-0.428-0.987-0.636-1.464-0.636
	c-0.611,0-1.349,0.378-1.589,1.438c-0.099,0.438-0.02,3.107,0.056,4.52c-0.788,0.044-1.257,0.659-1.396,1.832
	c-0.021,0.176-0.093,0.447-0.129,0.532c-0.176,0.407-0.43,1.161-0.231,1.777c-0.29,0.189-0.503,0.43-0.659,0.779
	c-0.014-0.398-0.033-0.835-0.053-1.317c-0.015-0.359-0.032-0.748-0.048-1.167l-0.034-0.874c-0.093-2.361-0.149-3.786-0.287-4.69
	c-0.064-0.425-0.24-1.577-1.176-1.936c0.169-0.807-0.436-1.448-0.929-1.972c-0.311-0.328-0.625-0.735-0.698-0.86
	c-0.198-0.34-0.687-0.951-1.066-1.379c-0.821-0.925-1.214-1.402-1.504-1.827c-0.192-0.28-0.663-0.822-1.007-1.19
	c-0.56-0.597-1.041-1.054-1.707-1.054c-0.406,0-0.781,0.183-1.056,0.514c-0.217,0.262-1.013,1.61-1.179,1.933
	c-0.032,0.061-0.174,0.275-0.3,0.426c-0.224,0.268-0.481,0.679-0.612,0.977c-0.059,0.134-0.188,0.344-0.24,0.41
	c-0.171,0.214-0.376,0.528-0.488,0.748c-0.042,0.081-0.188,0.321-0.314,0.496c-0.287,0.399-0.51,0.757-1.592,2.556
	c-0.35,0.581-0.656,1.065-0.722,1.157c-0.062,0.085-0.144,0.209-0.229,0.346c0.121-0.359,0.204-0.759,0.285-1.154
	c0.06-0.292,0.216-0.97,0.349-1.512c0.291-1.191,0.415-1.789,0.064-2.357c-0.237-0.383-0.651-0.611-1.107-0.611
	c-0.439,0-0.884,0.212-1.255,0.596c-0.141,0.146-0.495,0.521-0.787,0.835c-0.269,0.289-0.74,0.763-1.029,1.036
	C38,50.142,38,50.421,38,50.808c0,0.073,0.005,0.144,0.016,0.211c-0.011,0-0.021,0-0.033,0c-0.8,0-1.212,0.37-3.197,2.149
	l-0.309,0.276c-1.501,1.345-2.77,2.461-3.157,2.776c-0.26,0.213-0.64,0.599-0.884,0.898c-0.066,0.081-0.125,0.147-0.167,0.194
	c-0.516,0.268-0.974,0.829-1.055,1.358c-0.176-0.069-0.351-0.093-0.507-0.093c-0.618,0-1.066,0.355-1.82,0.951
	c-0.895,0.708-2.007,1.508-3.025,2.204c0.985-1.985,1.75-3.675,3.123-6.868c0.6-1.396,0.857-2.005,0.99-2.426
	c0.148-0.469,0.252-1.08-0.263-1.654c-0.421-0.471-1.053-0.493-2.133-0.493c-1.235,0-3.546,0.079-7.239,0.227
	c0.729-0.387,1.738-0.92,2.675-1.413c1.321-0.695,2.961-1.561,3.644-1.923c0.686-0.365,1.883-0.99,2.668-1.396
	c1.528-0.788,2.451-1.264,2.428-2.276c-0.022-0.98-0.927-1.396-2.073-1.924c-0.654-0.3-2.909-1.362-5.028-2.367
	c-2.112-1.002-4.219-2-4.682-2.218c-0.122-0.058-0.242-0.115-0.361-0.171c1.172-0.188,2.902-0.47,4.229-0.688
	c1.605-0.264,3.709-0.607,4.677-0.763l0.111-0.019c2.279-0.367,2.322-0.374,2.726-0.779c0.664-0.663,0.367-1.469,0.225-1.855
	c-0.19-0.518-0.56-1.33-1.358-3.061c-0.23-0.499-0.438-0.953-0.619-1.354c1.303,0.426,1.827,0.569,2.259,0.568
	c0.665,0,1.381-0.443,1.381-1.416c0-0.282,0-0.47-2.876-6.372c-0.554-1.137-1.036-2.134-1.436-2.967
	c0.792,0.506,1.77,1.135,2.947,1.891l0.311,0.2c0.462,0.297,1.562,1,2.443,1.563c2.422,1.545,5.168,3.303,6.996,4.479l0.509,0.328
	c5.909,3.805,5.909,3.805,6.924,3.805h0.112c3.026,0.004,6.358,0.963,9.141,2.63c2.729,1.635,4.72,3.822,5.465,6.001
	c0.529,1.549,1.045,1.782,2.851,2.037c0.505,0.071,1.529,0.219,2.276,0.327c0.502,0.072,1.114,0.161,1.602,0.231
	c-0.029,0.025-0.056,0.049-0.082,0.071l-0.707,0.615c-1.25,1.087-2.075,1.806-2.62,2.343c-0.482,0.475-1.21,1.191-0.957,2.085
	c0.258,0.908,1.135,1.052,2.151,1.218c0.109,0.018,0.225,0.037,0.346,0.058c0.655,0.111,1.477,0.255,1.826,0.318
	c0.333,0.062,1.242,0.224,2.076,0.371C69.834,49.347,68.798,50.271,67.381,51.501z"/>
</svg>
