<?xml version="1.0" encoding="utf-8"?>
<!-- Generator: Adobe Illustrator 16.0.0, SVG Export Plug-In . SVG Version: 6.00 Build 0)  -->
<!DOCTYPE svg PUBLIC "-//W3C//DTD SVG 1.1//EN" "http://www.w3.org/Graphics/SVG/1.1/DTD/svg11.dtd">
<svg version="1.1" id="Layer_1" xmlns="http://www.w3.org/2000/svg" xmlns:xlink="http://www.w3.org/1999/xlink" x="0px" y="0px"
	 width="90px" height="90px" viewBox="0 0 90 90" enable-background="new 0 0 90 90" xml:space="preserve">
<g>
	<path d="M56.345,39.411c0.031-1.189-2.266-3.617-2.901-4.639c-1.014-1.63-2.119-1.035-2.604,0.508
		c-0.382,1.216-1.476,4.226-2.403,4.739c-1.253,0.694-4.133,2.66-3.875,4.271c-1.771-0.992-2.941-2.35-4.324-3.77
		c-0.94-1.266-1.455-2.274-1.879-3.938c-0.216-0.842-0.07-2.579-1.143-2.804c-1.277-0.269-2.205,2.476-2.771,3.277
		c-1.591,2.257-2.542,2.892-2.556,5.91c-0.015,3.377-0.103,6.915,0.466,10.255c0.064,0.378,0.143,0.658,0.364,0.98
		c0.502,0.73,0.356,1.385,0.485,2.257c0.175,1.211,0.765,2.491,1.13,3.668c0.826,1.846,2.618,3.219,4.657,3.75
		c3.392,0.883,7.272,1.093,10.699,0.201c1.616-0.42,3.034-0.869,4.328-2c0.583-0.51,1.066-1.326,1.42-2.055
		c0.7-1.544,1.476-3.609,1.113-5.249c1.286-1.5,0.978-4.165,1.056-6.021C57.693,46.683,59.104,40.478,56.345,39.411z M52.335,36.448
		c0.385,0.691,0.804,1.365,1.269,2.006c-0.745-0.013-1.494,0.022-2.236,0.084C51.737,37.865,52.064,37.167,52.335,36.448z
		 M36.616,37.02c0,0.126,0.381,1.226,0.41,1.306c-0.406-0.039-0.813-0.067-1.222-0.083C36.09,37.845,36.361,37.438,36.616,37.02z
		 M55.489,53.104c-0.3,1.729-4.023,4.213-5.321,5.139c-1.054,0.752-2.208,1.361-3.488,1.615c-0.65,0.129-1.556-0.064-1.833,0.361
		c-0.112-0.177-0.394-0.19-0.84-0.223c-1.297-0.095-2.499-0.512-3.607-1.186c-2.027-1.232-3.816-2.959-5.423-4.69
		c-1.147-1.235-1.031-2.539-1.126-4.193c-0.159-2.787-0.708-6.289-0.095-9.052c-0.002-0.014,0.004-0.061,0.032-0.177
		c0.827-0.181,4.078-0.235,4.758,0.569c1.596,1.884,4.366,5.372,7.146,5.372c1.479,0,0.958-1.59,0.696-2.431
		c-0.149-0.478,2.148-2.01,2.608-2.384c0.793-0.646,6.769-1.789,6.881-0.437C56.188,45.125,56.132,49.403,55.489,53.104z"/>
	<path d="M71.154,66.538c-2.192-2.821-4.183-5.872-5.085-9.288c-0.533-2.019-0.599-4.117-0.531-6.193
		c0.034-1.044,0.099-2.086,0.15-3.129c0.839,0.136,1.599-0.322,1.996-1.047c0.718-1.314,0.058-2.466-0.974-3.332
		c-1.517-1.274-1.091-3.026-1.239-4.933c-0.328-4.242-1.152-8.271-3.191-12.041c-1.664-3.077-3.902-5.679-6.939-7.464
		c-1.524-0.896-3.204-1.629-4.947-1.972c-0.71-0.14-1.513-0.222-2.206,0.055c0.12-0.048-0.722,0.558-0.839,0.559
		c-1.69,0.011-3.38,0.022-5.07,0.033c-0.753,0.005-0.514-0.247-1.261-0.578c-1.501-0.665-3.759,0.275-5.141,0.858
		c-7.647,3.231-10.803,10.639-11.729,18.434c-0.236,1.987-0.368,3.983-0.498,5.979c-0.934,0.92-2.369,1.713-2.377,3.206
		c-0.007,1.266,1.064,2.081,2.257,2.081c0.375,0,0.308,5.656,0.278,6.318c-0.171,3.759-1.857,7.56-4.072,10.555
		c-0.853,1.154-2.613,2.389-2.561,3.968c0.074,2.246,2.595,1.961,4.173,1.81c3.771-0.363,6.508-2.774,10.121-3.251
		c1.539-0.202,3.129-0.416,4.682-0.465c2.057-0.066,4.276,1.232,6.411,1.345c1.674,0.088,3.357,0.098,5.026-0.083
		c1.813-0.196,3.635-1.125,5.419-1.194c3.306-0.127,6.326,0.374,9.265,1.782c2.093,1,6.928,3.085,9.121,1.619
		C72.564,69.385,71.547,67.016,71.154,66.538z M67.689,67.545c0.056,0.012,0.077,0.016,0.026,0.005
		c-2.932-0.624-6.573-1.896-8.157-4.643c-0.682-1.182-1.193-2.71-1.315-4.07c-0.162-1.803-0.944-0.981-1.421,0.068
		c-0.965,2.124-1.843,4.505-4.146,5.413c-2.906,1.146-6.149,1.577-9.254,1.388c-3.02-0.184-7.186-0.74-9.008-3.46
		c-0.76-1.134-1.196-2.439-1.788-3.66c-0.209-0.431-1.255-3.391-1.522-1.325c-0.367,2.807-0.794,5.94-3.075,7.902
		c-1.963,1.689-4.683,2.492-7.23,2.654c4.652-5.043,5.957-11.882,5.64-18.51c0.699,1.188,1.655,2.778,3.046,3.238
		c2.334,0.771,0.585-4.026,0.429-4.716c-0.538-2.376-0.673-6.76-4.027-3.792c0.824-0.984,0.527-3.009,0.588-4.198
		c0.078-1.503,0.201-3.012,0.438-4.498c0.515-3.215,1.369-7.245,3.331-9.885c1.759-2.368,4.188-4.253,6.925-5.354
		c0.76-0.304,1.664-0.843,2.512-0.758c0.551,0.056,0.859,0.761,1.394,0.96c0.745,0.278,1.66,0.116,2.423,0.098
		c1.535-0.035,3.334,0.257,4.829-0.16c1.16-0.323,0.89-1.191,2.333-0.718c2.798,0.919,5.375,2.557,7.321,4.77
		c2.234,2.542,3.387,5.838,4.135,9.089c0.393,1.709,0.629,3.446,0.752,5.194c0.105,1.486-0.33,4.213,0.606,5.493
		c-1.472-0.904-2.698-1.365-3.222,0.664c-0.457,1.767-0.706,3.563-1.191,5.326c-1.222,4.437,2.771,1.605,3.988-0.362
		c-0.522,6.631,1.204,12.912,5.557,18.052C68.583,67.748,67.055,67.41,67.689,67.545z M27.523,45.118
		c0.238,1.279,0.52,2.549,0.811,3.816c-0.662-0.949-1.187-2.09-1.187-3.269C27.051,45.35,27.176,45.167,27.523,45.118z
		 M62.719,45.531c-0.188,0.281-0.269,0.569-0.3,0.789c-0.245,1.107-0.538,1.999-1.219,2.92c0.302-1.297,0.563-2.604,0.831-3.908
		C62.271,45.453,62.565,45.578,62.719,45.531z"/>
</g>
</svg>
