<?xml version="1.0" encoding="utf-8"?>
<!-- Generator: Adobe Illustrator 16.0.0, SVG Export Plug-In . SVG Version: 6.00 Build 0)  -->
<!DOCTYPE svg PUBLIC "-//W3C//DTD SVG 1.1//EN" "http://www.w3.org/Graphics/SVG/1.1/DTD/svg11.dtd">
<svg version="1.1" id="Layer_1" xmlns="http://www.w3.org/2000/svg" xmlns:xlink="http://www.w3.org/1999/xlink" x="0px" y="0px"
	 width="90px" height="90px" viewBox="0 0 90 90" enable-background="new 0 0 90 90" xml:space="preserve">
<path fill="#040506" d="M75.953,43.21c-1.88-3.721-2.243-8.35-3.494-12.345c-1.475-4.71-3.014-9.669-7.011-12.893
	c-1.899-1.532-4.099-2.272-6.456-2.802c-0.473-0.105-0.698-0.581-1.062-0.88c-0.916-0.923-2.019-1.641-3.214-2.147
	c-4.959-2.103-10.731-1.044-15.77,0.2c-2.956,0.73-5.859,1.605-8.757,2.537c-1.955,0.629-5.088,1.001-6.536,2.582
	c-0.75,0.817-0.838,2.463,0.008,3.253c0.517,0.48-1.315,1.869-1.648,2.243c-1.135,1.272-2.204,2.662-3.07,4.136
	c-1.49,2.538-2.729,5.223-4.062,7.844c-0.889,1.748-3.216,4.763-0.956,6.433c1.149,0.85,1.131,0.413,0.246,1.896
	c-0.665,1.116-1.013,2.131-0.619,3.405c0.69,2.235,3.727,1.637,5.337,1.023c0.458,1.891-0.211,3.572,0.054,5.493
	c0.319,2.306,1.353,4.659,2.896,6.419c1.204,1.373,2.584,2.606,4.184,3.502c2.283,1.278,2.263,5.608,3.27,7.997
	c0.819,1.941,1.986,5.125,4.588,4.95c1.174-0.079,1.607-0.677,2.048-1.651c0.176-0.389,2.727,1.556,3.145,1.773
	c4.236,2.206,10.755,2.367,14.7-0.642c0.704-0.536,1.437-1.028,2.14-1.567c0.642-0.493,0.509,0.887,0.772,1.281
	c1.375,2.065,4.134,0.319,4.943-1.192c1.062-1.983,1.707-4.155,2.276-6.321c0.378-1.438,0.333-3.776,1.714-4.556
	c2.532-1.429,4.607-3.513,5.962-6.091c0.492-0.937,0.592-1.721,1.466-2.34c0.545-0.386,0.717-0.909,0.791-1.556
	c0.207-1.835,0.121-3.735,0.148-5.582c0.004-0.271,1.256-0.52,1.529-0.736C76.663,45.973,76.552,44.396,75.953,43.21z M22.274,52.88
	c1.342,2.363,2.424-0.617,2.67-1.74c0.526,2.992,1.315,5.973,2.413,8.808C25.096,58.417,22.712,55.624,22.274,52.88z M33.583,73.208
	c-0.727,0.259-3.38-7.048-3.518-7.67c0.855,1.498,3.239,4.531,4.476,5.712C34.527,72.316,34.167,73,33.583,73.208z M60.261,71.098
	c-0.058,0.148-0.948,2.432-1.328,1.844c-0.464-0.723-0.371-1.598-0.161-2.481c0.089-0.376,2.612-3.43,3.134-4.691
	C61.369,67.962,61.08,68.99,60.261,71.098z M61.911,58.037c-0.404,3.782-1.019,6.549-3.75,9.313
	c-2.686,2.719-5.792,6.074-9.709,6.874c-2.924,0.598-5.931,0.205-8.466-1.395c-3.339-2.106-7.657-5.519-9.07-9.322
	c-1.161-3.124-1.254-5.513-1.353-8.82c-0.06-2.011,0.849-5.271,1.875-7.292c0.303,0.467,1.178,0.521,1.667,0.688
	c0.381,0.13,0.478,1.121,0.943,2.37c0.641,1.719,2.205,2.179,2.972,0.309c0.696,2.272,1.899,3.949,4.358,2.876
	c2.315-1.01,4.406-2.79,6.091-4.646c-0.247,1.88,0.787,3.128,2.594,2.195c2.051-1.059,3.954-2.24,5.912-2.929
	c0.849-0.299,4.076-0.895,3.344-2.324c-0.653-1.274-4.534-0.076-5.568,0.253c1.584-2.644,3.24-4.765,5.281-7.391
	c0.724,3.15,3.5,7.422,3.545,9.183C62.662,51.352,62.25,54.685,61.911,58.037z M32.424,45.463c0.349-1.08,0.5-1.432,1.196-2.801
	c-0.118,0.952-0.141,2.025-0.229,2.979C32.957,45.552,32.855,45.393,32.424,45.463z M69.171,54.19
	c-0.781,2.355-2.676,4.543-4.801,5.796c1.067-2.755,1.792-5.602,2.383-8.491C67.792,52.366,69.633,52.8,69.171,54.19z M71.92,44.262
	c-1.536-1.232-0.526,2.688-0.502,3.6c0.036,1.388,0.609,3.985-0.424,5.019c-0.244-0.977-4.531-4.382-5.455-2.8
	c-1.155,1.977-1.227,5.104-1.954,7.339c0.296-2.784,0.515-5.558,0.572-8.358c0.068-3.339-1.125-5.049-2.282-8.103
	c-0.518-1.366-1.237-4.8-2.237-4.966c-1.445-0.24-2.89,2.717-3.304,3.342c-1.151,1.734-4.625,6.133-4.74,7.76
	c-0.919,0.294-0.983,0.429-2.028,0.78c-0.27-2.006-1.969-2.238-3.336-0.687c-1.472,1.671-2.535,2.623-4.354,3.781
	c-1.324,0.843-1.855,1.057-2.271,0.239c-1.448-2.849-1.135-4.614-3.635-3.396c-0.25-1.391-0.375-1.719-0.375-2.609
	c-0.001-1.894,0.063-2.125,0.016-3.922c-0.031-1.177-0.473-2.962-1.787-1.667c-1.169,1.152-2.491,2.878-3.197,4.345
	c-0.747,1.553-1.048,1.989-1.724,3.894c-0.462,1.304-1.015,2.275-1.41,4.798c-0.583-2.348-0.412-1.615-1.524-4.357
	c-1.293-3.189-2.579,2.478-2.691,2.944c-0.301-0.701-0.826-1.83-1.807-1.659c0.322-0.87-0.672-5.375-1.016-5.195
	c-1.932,1.01-5.968,3.104-4.219-0.07c0.352-0.638,3.931-6.596,3.68-6.496c-2.164,0.855-6.103,3.702-4.117-0.004
	c3.079-5.744,4.641-11.094,10.891-16.188c0.194-0.158,2.577-1.431,1.745-1.768c-0.416-0.169-3.125-0.632-1.827-1.208
	c2.343-1.041,5.108-1.706,7.559-2.432c4.275-1.266,8.572-2.924,13.055-3.062c2.523-0.077,5.096,0.032,7.344,1.375
	c1.135,0.679,2.331,2.36,3.531,2.844c1.131,0.455,2.202,0.385,3.344,0.875c5.781,2.482,7.293,8.412,9.125,13.813
	c0.92,2.709,1.19,5.637,1.917,8.398C72.804,41.691,74.923,46.671,71.92,44.262z"/>
</svg>
