<?xml version="1.0" encoding="utf-8"?>
<!-- Generator: Adobe Illustrator 16.0.0, SVG Export Plug-In . SVG Version: 6.00 Build 0)  -->
<!DOCTYPE svg PUBLIC "-//W3C//DTD SVG 1.1//EN" "http://www.w3.org/Graphics/SVG/1.1/DTD/svg11.dtd">
<svg version="1.1" id="Layer_1" xmlns="http://www.w3.org/2000/svg" xmlns:xlink="http://www.w3.org/1999/xlink" x="0px" y="0px"
	 width="90px" height="90px" viewBox="0 0 90 90" enable-background="new 0 0 90 90" xml:space="preserve">
<path d="M73.076,39.198c0.279-0.573,0.911-2.217,1.135-2.814c0.323-1.282,0.174-2.83-1.101-3.537
	c-0.989-0.548-1.863,0.068-2.074-1.097c-0.571-3.15-1.749-6.133-3.589-8.761c-3.664-5.232-9.485-8.643-15.648-10.051
	c-14.027-3.206-30.99,3.098-33.457,18.666c-0.226,1.425-1.746,0.721-2.768,1.2c-1.095,0.513-1.578,1.666-1.498,2.828
	c0.115,1.681,1.126,3.381,1.918,4.824c0.937,1.704,2.882,3.685,3.326,5.566c0.337,1.431-0.409,3.198-0.693,4.591
	c-0.417,2.053-0.851,4.104-1.324,6.145c-0.764,3.286-3.758,7.634-0.709,10.459c2.512,2.329,6.373,3.194,9.613,3.922
	c1.81,0.407,3.616,0.705,5.456,0.923c1.692,0.201,4.075,1.646,5.709,1.069c3.487-1.229-1.228-6.465,0.007-6.845
	c1.482-0.457,3.311-0.166,4.823-0.07c2.222,0.14,4.439-0.118,6.663-0.059c1.647,0.044,5.141-0.242,3.125,2.238
	c-1.768,2.174-0.916,5.565,2.38,4.393c5.396-1.919,11.324-1.46,16.495-4.389c2.083-1.179,3.705-3.02,2.858-5.538
	c-1.03-3.065-1.915-6.055-2.588-9.231c-0.379-1.786-0.728-3.578-1.068-5.371c-0.406-2.133-0.713-2.962,0.488-4.822
	C71.448,42.053,72.354,40.68,73.076,39.198z M17.52,35.997c1.756,0.542,1.412,1.321,1.605,3.061
	C18.582,38.102,17.867,36.803,17.52,35.997z M67.643,55.209c-0.841-1.236-2.331-2.683-2.354-4.223
	c-0.023-2.052,0.251-2.6,1.352-4.251c0.65,3.347,1.309,6.693,2.05,10.022C68.305,56.183,68.031,55.781,67.643,55.209z
	 M68.016,58.875c-1.327,0.041-2.663,0.016-3.99-0.069c0.47-1.424,0.953-2.865,1.05-4.373C66.069,55.88,67.064,57.399,68.016,58.875z
	 M65.32,45.536c-0.002-0.219,0.182-2.5,0.221-2.132c0.334-0.091,1.035-0.276,1.286-0.34C66.346,43.901,65.79,44.692,65.32,45.536z
	 M52.521,16.275c-1.551,0.018-3.137,0.075-4.672,0.307c-1.261,0.191-2.572,1.136-3.862,0.811c-2.934-0.739-5.523-1.167-8.597-1.07
	C40.922,14.7,46.979,14.709,52.521,16.275z M24.304,46.007c-0.016,0.43-0.033,0.859-0.053,1.289
	c-1.161-1.549-2.161-3.209-3.154-4.868c0.959,0.704,2.138,1.068,3.322,1.093C24.359,44.348,24.334,45.179,24.304,46.007z
	 M24.425,53.324c0.087,1.875,0.533,3.697,1.106,5.477c-1.591,0.122-3.188,0.061-4.78,0.013
	C21.934,57.042,23.216,55.079,24.425,53.324z M22.26,47.556c0.913,1.229,2.641,2.249,1.561,3.552c-1.247,1.502-2.234,3.325-3.3,4.96
	C21.141,53.24,21.741,50.405,22.26,47.556z M22.759,67.053c-1.255-0.449-2.674-0.942-3.726-1.79
	c-1.434-1.155-0.051-2.991,0.33-4.426c0.165-0.608,2.455-0.269,3.188-0.269c1.715,0.024,3.407-0.635,4.261,1.071
	c1.562,3.122,3.781,5.139,6.098,7.667C29.482,68.791,26.032,68.226,22.759,67.053z M34.044,63.897
	c-0.169-1.689-0.945-3.232-1.331-4.87c1.617,1.582,3.283,3.214,5.311,4.265C36.697,63.424,35.336,63.555,34.044,63.897z
	 M45.015,63.065c-2.972,0.087-4.815-0.707-7.346-2.012c-1.979-1.014-4.964-3.696-5.593-5.914c-1.097-3.864-0.91-8.334-1.433-12.316
	c1.072,0.346,2.368,0.729,3.49,0.384c1.873-0.575,0.551-2.666,2.294-2.855c0.784-0.085,1.689-0.43,2.266,0.237
	c0.43,0.497,0.851,0.873,1.576,0.765c1.086-0.161,1.021-0.947,1.866,0.079c0.538,0.653,1.281,1.84,2.193,2
	c1.143,0.201,1.985-1.404,2.588-2.108c0.499-0.582,0.759-0.142,1.388,0.012c0.877,0.213,1.63-0.448,2.166-1.043
	c1.085,0.093,2.175,0.067,3.26,0.147c-0.002,0.739-0.08,1.627,0.361,2.275c1,1.467,3.648,0.318,4.928-0.026
	c-0.103,3.184-0.642,6.479-1.075,9.639c-0.414,3.024-2.699,4.915-4.979,6.772C50.534,61.081,48.258,62.969,45.015,63.065z
	 M48.216,35.874c-0.037-0.127-0.075-0.254-0.112-0.382c0.961,0.125,1.748-1.412,2.748-1.635c-0.781,1.118-0.535,2.437,0.393,3.374
	c0.422,0.426,2.684,1.315,2.675,1.497c-1.084,0.064-3.597-0.734-4.47-0.017c-0.275,0.225-0.379,0.998-0.827,0.998
	c-0.596,0-0.819-0.707-1.459-0.644C48.152,38.064,48.66,37.265,48.216,35.874z M53.875,36.781c-0.58-0.202-1.544-0.547-1.759-1.195
	c-0.336-1.017,1.429-1.35,1.041-2.498c-0.611-1.808-3.566-0.897-4.566,0.015c-0.384-1.546-1.925-2.548-3.335-3.045
	c2.231-0.889,4.024-2.477,6.589-1.724C54.2,29.026,53.899,34.898,53.875,36.781z M44.508,39.625
	c-1.298-1.174-2.529-2.172-2.125-4.002c0.336-1.513,1.553-3.583,3.173-2.185C47.969,35.521,46.108,38.415,44.508,39.625z
	 M51.25,26.661c-1.113-0.175-2.259-0.018-3.326,0.317c-1.105,0.347-2.253,1.449-3.358,1.624c-2.688-0.885-4.759-2.748-7.821-1.696
	c0.91-1.762,2.465-3.167,4.602-2.456c1.163,0.388,2.381,3.302,3.685,2.583c1.379-0.761,1.478-2.504,3.329-2.807
	c1.846-0.301,3.318,1.186,4.081,2.692C52.02,26.79,51.233,26.658,51.25,26.661z M38.12,28.182c2.104-0.3,3.875,1.036,5.682,1.864
	c-1.811,0.624-2.78,1.588-3.396,3.355c-0.87-0.91-3.108-1.885-4.275-1.046c-1.974,1.417,2.596,3.306-0.769,4.229
	c-0.226-1.95,0.117-4.458,0.493-6.395C36.137,28.732,37.198,28.362,38.12,28.182z M38.287,36.069
	c0.242-0.745,0.161-1.57-0.308-2.212c1.139,0.237,1.775,2.267,2.851,2.031c-0.277,1.465-0.062,1.918,0.923,3.016
	c-1.03-0.168-1.35,1.537-2.211,0.188c-0.773-1.212-3.113-0.345-4.357-0.342C35.169,38.554,37.94,37.136,38.287,36.069z
	 M50.479,63.222c2.52-1.609,4.692-3.693,6.76-5.836c-0.42,2.132-0.965,4.346-1.666,6.347C55.443,64.042,51.208,63.285,50.479,63.222
	z M58.248,59.647c0.347-2.917,1.432-5.738,1.847-8.654c0.399-2.811,0.812-5.883,0.855-8.722c0.054-3.408-3.559-0.516-5.332-0.771
	c-0.122-4.991,0.596-10.363-1.646-15.022c-1.98-4.119-6.521-5.172-9.385-1.257c-2.479-4.579-9.03-2.223-9.873,2.313
	c-0.736,3.959-1.067,7.748-1.156,11.852c-0.041,1.867,0.256,2.465-1.775,1.825c-4.342-1.363-2.956,3.089-2.613,5.834
	c0.863,6.929,1.57,14.12,4.244,20.654c-3.901-2.965-6.63-8.352-7.301-13.127c-0.386-2.744-0.119-5.691,0.115-8.442
	c0.117-1.374,0.742-4.115-1.23-4.438c-2.447-0.402-3.938-1.127-4.125-3.834c-0.149-2.167,0.491-5.101,1.013-7.238
	c1.223-5.005,5.035-10.294,10.038-12.074c2.575-0.916,5.244-0.794,7.924-0.611c1.309,0.089,2.402,0.542,3.645,0.901
	c1.682,0.486,3.124-0.484,4.76-0.736c5.587-0.86,10.734,0.408,14.739,4.566c3.535,3.674,5.194,9.425,5.089,14.389
	c-0.023,1.091,0.111,2.686-0.744,3.538c-0.921,0.916-2.388,0.591-3.392,1.252c-1.476,0.971-0.494,5.56-0.411,7.016
	c0.604,6.56-2.741,14.397-7.381,18.808C57.186,65.331,57.948,62.18,58.248,59.647z M70.229,62.3c0.59,1.554,0.883,2.306-0.631,3.278
	c-1.182,0.76-2.604,1.209-3.929,1.649c-1.927,0.639-3.91,1.086-5.904,1.457c-0.611,0.114-2.711,0.687-2.983,0.501
	c1.656-1.952,4.548-4.337,5.713-7.103c0.795-1.885,1.853-1.558,3.746-1.522c0.837,0.016,1.742,0.091,2.577-0.006
	C70.08,60.408,69.784,61.129,70.229,62.3z M70.796,35.977c0.048,0.82-0.6,1.186-0.714,1.398
	C70.111,36.574,69.885,36.229,70.796,35.977z"/>
</svg>
