<?xml version="1.0" encoding="utf-8"?>
<!-- Generator: Adobe Illustrator 16.0.0, SVG Export Plug-In . SVG Version: 6.00 Build 0)  -->
<!DOCTYPE svg PUBLIC "-//W3C//DTD SVG 1.1//EN" "http://www.w3.org/Graphics/SVG/1.1/DTD/svg11.dtd">
<svg version="1.1" id="Layer_1" xmlns="http://www.w3.org/2000/svg" xmlns:xlink="http://www.w3.org/1999/xlink" x="0px" y="0px"
	 width="90px" height="90px" viewBox="0 0 90 90" enable-background="new 0 0 90 90" xml:space="preserve">
<path d="M72.481,65.529c-4.803-4.027-5.3-10.385-5.642-16.213c1.561-0.008,4.693,0.144,4.22-2.381
	c-0.459-2.441-4.246-3.022-4.603-5.758c-0.285-2.195,2.027-1.726,1.849-3.991c-0.115-1.462-1.253-2.86-0.834-4.022
	c3.092-3.646,3.212-9.463,0.697-13.442c-0.97-1.535-3.635-4.559-5.723-3.402c-2.106,1.166-0.232,4.169-0.013,5.832
	c-1.749-1.751-3.942-1.435-5.929-2.613c-1.743-1.034-3.703-1.741-5.736-1.867c-2.073-0.126-3.934,1.227-5.824,1.109
	c-1.589-0.1-2.985-1.085-4.679-1.121c-2.063-0.043-4.104,0.496-5.936,1.428c-1.019,0.519-1.764,1.132-2.786,1.369
	c-1.592-0.142-2.892,0.608-3.982,1.695c0.188-1.537,2.088-5.245-0.35-5.999c-2.21-0.684-4.709,2.353-5.635,3.967
	c-1.411,2.461-1.831,5.475-1.29,8.248c0.26,1.327,0.747,2.612,1.472,3.756c0.524,0.827,1.298,1.177,0.728,2.184
	c-0.663,1.167-1.324,3.164-0.486,4.401c0.313,0.464,1.37,0.494,1.517,0.748c-0.012,1.747-0.046,2.535-1.249,3.838
	c-1.237,1.341-4.164,2.699-3.318,4.936c0.535,1.414,3.021,1.071,4.228,1.108c-0.44,4.436-0.354,9.075-2.813,12.988
	c-0.951,1.515-7.181,6.383-2.306,7.279c2.742,0.504,6.206,0.071,8.782-0.97c1.349-0.546,1.562-0.833,3.219-0.828
	c1.278,0.004,2.557,0.037,3.831,0.124c1.332,0.092,1.809,0.967,2.852,1.728c3.645,2.657,8.896,2.854,13.128,1.717
	c1.957-0.524,3.46-1.51,4.961-2.837c0.878-0.776,6.191-1.447,7.158-0.602c2.298,2.009,7.629,2.313,10.44,1.538
	C75.234,68.703,73.213,66.34,72.481,65.529z M42.042,21.294c2.138,0.622,2.83,1.235,4.997,0.285c1.921-0.841,4.035-0.765,5.968-0.01
	c1.775,0.693,3.514,1.933,4.959,3.131c-0.256,1.784-1.188,3.829-3,4.493c-3.479,1.274-7.078-2.838-10.017,0.996
	c-2.318-2.672-4.649-1.59-7.54-0.866c-2.982,0.746-5.235-1.854-5.55-4.573C35.052,22.546,37.817,20.063,42.042,21.294z
	 M23.189,28.696c-0.89-2.919-0.304-6.484,1.91-8.688c-0.565,2.439-0.631,5.322,1.095,7.336c2.59,3.023,2.5-2.442,3.776-3.634
	c-0.381,3.78,2.774,8.332,6.911,7.732c1.724-0.25,3.727-1.705,5.44-0.812c1.077,0.561,2.467,3.44,3.788,1.515
	c2.551-3.702,6.604,0.519,10.169-1.313c1.565-0.804,2.665-2.354,3.252-3.979c0.18-0.499,0.216-3.574,0.208-3.566
	c2.217,0.454,0.348,5.034,2.508,5.034c3.307,0,3.019-6.399,2.587-8.24c2.233,2.278,2.845,5.848,1.804,8.819
	c-0.411,1.176-1.09,2.263-2.008,3.109c-1.377,1.271-0.991,1.604-0.05,3.008c-1.147-0.331-2.913-0.948-3.816,0.2
	c-0.797,1.014-0.773,2.015-2.046,2.642c-0.246-2.74-3.285-6.752-6.513-5.569c-1.447,0.53-0.677,2.639-2.305,3.207
	c-0.765,0.267-2.275,0.196-2.599-0.026c-0.542-0.374-1.224-0.813-1.632-1.279c-0.61-0.697-1.197-0.038-1.59,0.517
	c-0.971,1.372-3.857,1.282-5.069,0.095c-1.835-5.458-7.185-0.846-7.839,3.027c-1.035-0.473-1.29-1.179-1.76-2.149
	c-0.752-1.553-2.772-1.166-4.112-0.628c0.722-1.047,1.52-1.667,0.408-2.818C24.603,31.088,23.675,30.289,23.189,28.696z
	 M44.795,42.127c-1.625-0.5-1.963-5.051,0.185-5.051C47.475,37.076,46.014,42.503,44.795,42.127z M28.078,66
	c1.18-1.678,1.602-4.064,1.785-6.076c1.153,2.13,2.337,4.325,4.05,6.067C32.107,65.873,29.469,65.859,28.078,66z M31.953,59.405
	c-0.479-0.858-1.207-3.179-2.468-3.187c-1.791,0-1.877,4.558-2,5.21c-0.097,0.513-0.751,2.853-1.646,3.802
	c-1.041,1.104-2.974,1.016-4.408,1.13c2.71-3.03,3.902-6.918,4.507-10.863c0.407-2.655,2.186-9.501-1.952-9.401
	c2.36-2.403,2.979-4.393,2.968-7.757c-0.006-0.533-0.001-1.066,0.016-1.6c1.046-0.184,0.744,0.55,1.294,1.31
	c0.673,0.928,2.677,2.566,3.955,2.023c1.063-0.453,0.907-2.083,1.24-2.991c0.499-1.359,1.559-2.657,3.077-2.854
	c-0.021,0.003,1.005,1.985,1.262,2.21c1.086,0.948,2.266,1.317,3.696,1.274c-1.193,1.516-3.23,4.076-4.953,4.718
	c-1.771,0.659-4.465,1.716-4.538,3.88c-0.095,2.768,0.441,5.752,0.853,8.397c0.489,3.151,1.08,6.345,2.086,9.376
	C33.787,62.631,32.856,61.021,31.953,59.405z M37.953,66.375c1.173,1.646,5.416,1.621,7.167,1.621c2.428,0,5.544-0.162,7.27-2.136
	C51.178,69.566,39.368,70.266,37.953,66.375z M53.621,62.479c-0.195,0.678-2.543,1.006-2.945,1.646
	c-1.183,2.171-6.589,1.547-8.476,1.262c-0.721-0.109-1.47-0.261-2.113-0.621c-0.681-0.381-0.895-1.187-1.572-1.535
	c-1.354-0.696-1.478,0.869-2.006-0.945c-0.378-1.297-0.689-2.613-0.935-3.941c2.17,2.186,5.981,5.228,9.195,5.354
	c3.306,0.13,7.81-3.234,9.901-5.616C54.395,59.563,54.039,61.029,53.621,62.479z M54.815,53.798
	c-1.034,2.369-2.805,4.048-4.956,5.428c-2.887,1.853-4.757,2.851-7.883,1.096c-4.912-2.757-7.498-6.039-7.855-11.761
	c-0.044-0.709-0.368-1.924-0.045-2.597c0.677-0.706,2.066-1.063,2.932-1.515c0.858-0.447,2.329-0.161,2.261-1.586
	c1.097-0.924,2.24-1.818,3.105-2.977c0.236,1.178,0.841,3.087,2.194,3.401c1.873,0.435,2.645-2.15,2.854-3.515
	c0.728,0.869,1.53,1.686,2.37,2.447c0.395,0.357,0.35,0.969,0.552,1.382c0.404,0.784,1.52,0.665,2.234,0.832
	c1.177,0.274,2.452,1.186,3.541,1.722C56.273,48.735,55.851,51.426,54.815,53.798z M59.612,65.867
	c-1.089,0.002-2.18,0.01-3.268,0.068c1.574-1.655,2.664-3.702,3.777-5.677c0.271,1.921,0.674,4.001,1.812,5.619
	C61.18,65.881,60.203,65.891,59.612,65.867z M63.414,64.263c-1.064-1.904-1.332-4.137-1.649-6.259
	c-0.441-2.92-2.51-0.375-3.137,0.768c-0.979,1.783-2.046,4.277-3.381,5.313c0.716-1.728,1.55-6.257,1.896-8.595
	c0.428-2.893,0.982-5.788,1.012-8.726c0.025-2.553-2.603-3.407-4.704-4.289c-1.811-0.759-3.775-3.076-5.051-4.744
	c2.154,0.043,4.576-1.119,4.868-3.503c4.316,0.454,2.406,8.356,7.263,4.953c0.767-0.538,1.351-1.333,1.66-2.216
	c0.588-1.634,0.833,2.287,0.851,2.617c0.149,2.816,0.671,4.497,2.677,6.503c-3.601-0.783-2.149,5.812-1.967,7.759
	c0.425,4.521,1.651,9.089,4.766,12.529C66.485,66.227,64.495,66.195,63.414,64.263z"/>
</svg>
