<?xml version="1.0" encoding="utf-8"?>
<!-- Generator: Adobe Illustrator 16.0.0, SVG Export Plug-In . SVG Version: 6.00 Build 0)  -->
<!DOCTYPE svg PUBLIC "-//W3C//DTD SVG 1.1//EN" "http://www.w3.org/Graphics/SVG/1.1/DTD/svg11.dtd">
<svg version="1.1" id="Layer_1" xmlns="http://www.w3.org/2000/svg" xmlns:xlink="http://www.w3.org/1999/xlink" x="0px" y="0px"
	 width="90px" height="90px" viewBox="0 0 90 90" enable-background="new 0 0 90 90" xml:space="preserve">
<path d="M71.988,36.04c-1.499-5.701-4.71-10.407-9.241-13.542l-0.771-0.534l-0.052-0.662c-0.263-3.36-1.599-6.66-4.292-8.791
	c-2.77-2.191-6.421-2.77-9.857-2.413c-7.549,0.785-12.901,7.727-17.236,13.241c-3.854,4.902-8.957,8.69-12.759,13.645
	c-2.891,3.766-4.976,8.295-4.765,13.13c0.098,2.255,0.686,4.464,1.619,6.515c0.472,1.036,1.019,2.056,1.658,2.998
	c0.433,0.636,0.895,1.037,1.683,1.083c2.398,0.141,3.113-1.772,2.296-3.799c-0.527-1.31-0.822-2.712-0.84-4.125
	c-0.009-0.699,0.05-1.398,0.173-2.085c0.011-0.062,0.3-1.312,0.355-1.271c0.165,0.118,0.136,0.793,0.151,0.957
	c0.048,0.498,0.109,0.994,0.184,1.488c0.156,1.048,0.373,2.088,0.652,3.111c0.527,1.932,1.282,3.8,2.247,5.555
	c2.091,3.802,5.108,6.887,8.503,9.546c1.021,0.799,2.828,1.957,2.365,3.501c-0.449,1.5-1.99,3.032-0.723,4.602
	c1.349,1.669,3.491,0.222,4.659-0.842c0.787-0.717,1.544-1.491,2.183-2.345c0.094-0.125,0.328-0.636,0.538-0.606
	c0.37,0.051,0.781,0.838,0.996,1.091c0.69,0.81,1.419,1.193,2.502,1.04c1.163-0.164,1.902-1.084,1.902-2.245
	c0-1.106-0.786-1.992-1.347-2.88c-0.108-0.173-1.531-2.688-1.432-2.708c0.404-0.078,1.517,1.043,1.856,1.274
	c0.729,0.496,1.486,0.958,2.286,1.332c1.213,0.567,2.532,0.904,3.876,0.761c3.016-0.323,5.481-2.618,7.728-4.445
	c-0.652,1.655-1.502,3.238-2.483,4.722c-0.923,1.394-1.154,3.641,0.899,4.143c0.908,0.222,1.729,0.033,2.395-0.613
	c1.423-1.38,2.578-3.146,3.721-4.752c5.446-7.658,9.407-16.713,9.473-26.237C73.111,41.897,72.746,38.92,71.988,36.04
	C70.489,30.339,75.041,47.649,71.988,36.04z M53.343,16.553c-2.173-0.401-4.455-0.279-6.544,0.458
	c-1.882,0.665-4.209,2.325-4.062,4.604c-1.651,0.672-3.247,1.515-4.639,2.646c-0.673,0.547-1.321,1.015-1.896,1.681
	c-0.739,0.858-1.35,1.793-1.928,2.764c-0.363,0.609-0.75,1.173-1.056,1.816c-0.34,0.713-0.534,1.517-0.895,2.212
	c-0.381,0.736-0.543,1.655-0.674,2.466c-0.146,0.896-0.42,1.764-0.603,2.655c-0.746,3.637-0.556,7.487-0.325,11.164
	c0.239,3.791,1.655,7.632,3.104,11.112c0.669,1.605,1.48,3.136,2.346,4.641c0.287,0.499,0.701,0.91,0.984,1.405
	c0.244,0.428,0.411,0.895,0.669,1.322c0.499,0.826,0.981,1.77,1.607,2.504c-0.363,0.364-0.545,0.948-0.803,1.389
	c-0.298,0.508-0.623,1.001-0.971,1.477c-0.183-3.629-4.445-5.715-6.742-7.919c-3.032-2.908-5.321-6.58-6.518-10.612
	c-0.582-1.959-0.904-3.996-0.942-6.04c-0.039-2.099,0.336-4.053,0.742-6.096c0.168-0.846-0.284-1.811-1.281-1.619
	c-0.587,0.113-1.095,0.582-1.522,0.965c-1.646,1.478-2.86,3.212-3.563,5.318c-0.573,1.724-0.823,3.546-0.868,5.358
	c-0.558-4.173,0.329-8.21,2.644-11.718c1.595-2.416,3.666-4.482,5.692-6.532c2.457-2.486,5.094-4.855,7.325-7.555
	c2.542-3.075,4.929-6.268,7.92-8.937c2.381-2.123,5.055-3.779,8.3-3.994c4.023-0.267,7.955,1.395,9.286,5.441
	C57.134,17.801,55.456,16.943,53.343,16.553C52.527,16.402,55.456,16.943,53.343,16.553z M57.359,21.363
	c-2.036-0.56-3.971-1.021-6.099-1.102c-2.25-0.084-4.392,0.215-6.588,0.653c0.873-2.244,4.223-2.84,6.342-2.771
	c1.476,0.048,2.943,0.253,4.282,0.91C56.195,19.494,57.288,20.261,57.359,21.363C57.255,21.334,57.272,20.027,57.359,21.363z
	 M57.029,56.603c-0.928-0.912-1.751-2.05-2.515-3.101c-0.888-1.221-1.871-2.407-2.676-3.686c-0.59-0.939-1.235-1.832-1.783-2.8
	c-0.243-0.43-0.491-0.863-0.698-1.313c-0.242-0.527-0.645-1.028-0.831-1.573c2.218,2.092,4.861,3.489,7.607,4.741
	c0.697,0.318,1.494,0.361,2.182,0.686c0.647,0.366,1.523,0.439,2.246,0.534c0.752,0.099,1.704,0.284,2.426-0.03
	c0.738-0.321,0.871-1.177,0.426-1.811c1.016,0.542,0.594,2.907,0.557,3.784c-0.084,1.996-0.495,3.498-1.377,5.276
	c-1.635,3.297-3.849,6.173-6.674,8.553c-1.254,1.056-2.663,2.14-4.229,2.686c-1.01,0.353-1.883,0.07-2.807-0.403
	c-1.739-0.889-3.271-2.197-4.686-3.527c-1.163-1.093-2.269-2.128-3.202-3.425c-0.661-0.919-1.39-1.901-1.924-2.897
	c-0.439-0.817-0.228-2.205-0.245-3.078c-0.05-2.447-0.038-4.898,0.188-7.337c0.153-1.644,0.52-3.3,0.858-4.912
	c1.883,3.94,4.332,7.411,7.467,10.459c1.608,1.565,3.53,2.949,5.503,4.016c1.109,0.6,2.217,1.37,3.483,1.578
	C57.935,59.288,57.977,57.447,57.029,56.603C56.971,56.546,57.384,56.918,57.029,56.603z M39.854,63.301
	c0.305,0.384,0.569,0.898,0.968,1.194c-0.094,0.412-0.131,0.835-0.198,1.252C40.279,64.7,40.032,63.916,39.854,63.301
	C40.105,63.617,40.032,63.916,39.854,63.301z M70.8,48.12c-0.453,4.539-1.866,8.958-3.804,13.072
	c-1.068,2.269-2.307,4.457-3.68,6.554c-0.684,1.044-1.401,2.066-2.15,3.064c-0.291,0.387-0.894,1.505-1.423,1.633
	c-0.162,0.039,0.33-1.121,0.361-1.188c0.422-0.896,0.845-1.793,1.225-2.708c0.771-1.854,1.355-3.781,1.851-5.725
	c0.263-1.035,0.487-2.078,0.679-3.129c0.081-0.444,0.161-0.89,0.224-1.337c0.26-0.52,0.515-1.041,0.769-1.563
	c0.802-1.646,0.89-3.531,0.939-5.33c0.033-1.172,0.125-2.504-0.361-3.605c-0.453-1.025-1.67-1.52-2.59-2.049
	c-2.147-1.24-3.887-3.08-5.692-4.746c-0.516-0.476-1.499-1.514-2.271-1.211c-1.244,0.488-0.249,2.07,0.218,2.787
	c1.424,2.186,3.589,4.047,5.614,5.656c-2.78-0.396-5.525-1.67-7.896-3.14c-0.916-0.567-1.791-1.221-2.604-1.927
	c-0.629-0.548-1.207-1.153-1.809-1.73C47.982,41.1,47.5,40.58,46.878,40.58h-1.231c0.156,1.353,0.415,2.392,0.977,3.657
	c0.557,1.253,1.197,2.49,1.877,3.685c1.654,2.907,3.725,5.696,5.85,8.286c-5.751-2.999-9.966-8.045-12.759-13.818
	c-0.41-0.847-1.059-2.92-2.38-2.1c-1.164,0.723-1.183,2.876-1.375,4.029c-0.109,0.654-0.334,1.277-0.437,1.935
	c-0.153,0.977-0.229,1.967-0.288,2.954c-0.135,2.274-0.123,4.548-0.067,6.825c0.026,1.079-0.077,2.375,0.557,3.315
	c-0.602,0.71-0.024,1.757,0.086,2.548c0.142,1.014,0.457,2.002,0.763,2.975c-1.863-2.512-3.201-5.612-4.186-8.572
	c-0.593-1.781-1.115-3.621-1.521-5.453c-0.444-2.004-0.421-4.294-0.435-6.339c-0.013-1.796,0.152-3.651,0.36-5.434
	c0.082-0.7,0.148-1.566,0.433-2.212c0.399-0.906,0.406-1.989,0.694-2.938c0.425-1.396,1.052-2.735,1.825-3.967
	c0.563-0.894,1.081-1.792,1.755-2.61c0.578-0.703,1.226-1.162,1.915-1.734c0.664-0.551,1.438-0.915,2.15-1.398
	c0.611-0.415,1.3-0.578,1.95-0.919c0.884,0.139,1.833-0.35,2.695-0.519c0.999-0.195,2.001-0.252,3.014-0.318
	c1.942-0.127,3.915,0.005,5.818,0.438c1.335,0.304,2.711,0.681,4.001,1.135c0.778,0.274,1.551,0.565,2.318,0.87
	c0.746,0.295,1.483,0.783,2.231,1.028C69.678,31.474,71.6,40.106,70.8,48.12C70.076,55.365,70.989,46.218,70.8,48.12z"/>
</svg>
