<?xml version="1.0" encoding="utf-8"?>
<!-- Generator: Adobe Illustrator 16.0.0, SVG Export Plug-In . SVG Version: 6.00 Build 0)  -->
<!DOCTYPE svg PUBLIC "-//W3C//DTD SVG 1.1//EN" "http://www.w3.org/Graphics/SVG/1.1/DTD/svg11.dtd">
<svg version="1.1" id="Layer_1" xmlns="http://www.w3.org/2000/svg" xmlns:xlink="http://www.w3.org/1999/xlink" x="0px" y="0px"
	 width="90px" height="90px" viewBox="0 0 90 90" enable-background="new 0 0 90 90" xml:space="preserve">
<g>
	<path d="M70.848,43.53c-0.403-2.494-1.399-4.769-1.417-7.29c-0.024-2.85-0.246-5.705-0.782-8.507
		c-0.477-2.484-1.084-5.426-2.688-7.462c-1.556-1.975-4.013-3.512-6.135-4.8c-8.211-4.983-15.997-5.611-24.51-1.106
		c-4.279,2.265-8.394,4.868-9.884,9.673c-0.862,2.78-1.308,5.695-1.522,8.593c-0.104,1.401-0.152,2.807-0.175,4.212
		c-0.025,1.563-0.971,2.632-2.072,3.716c-1.454,1.43-4.461,2.113-4.254,4.531c0.245,2.881,3.313,0.817,4.685,1.573
		c0.391,0.215,0.127,6.729,0.245,7.6c0.181,1.319,0.44,2.628,0.793,3.913c0.029,0.106,1.351,2.561,1.608,2.091
		c-0.122,0.223-1.489,0.854-1.543,0.891c-1.057,0.715-2.006,1.599-2.792,2.604c-0.932,1.19-2.071,2.972-1.745,4.566
		c0.344,1.68,1.913,0.917,1.924,2.607c0.008,1.254-0.087,3.218,1.015,4.116c0.905,0.739,2.457,0.521,3.169-0.359
		c1.425-1.763,2.682-3.498,4.459-4.949c1.412-1.153,3.806-3.014,5.753-2.847c1.279,0.11,2.114-0.22,3.13,0.597
		c0.988,0.794,2.01,1.579,3.177,2.094c3.385,1.492,7.762,1.513,11.054-0.234c4.061-2.156,6.419-5.923,9.553-9.058
		c0.436-0.436,1.264,0.119,1.831,0.045c1.081-0.142,1.719-1.232,2.228-2.07c0.226-0.374,0.531-1.552,1.085-1.268
		c0.82,0.418,2.092,0.254,2.658-0.524C71.758,53.63,71.375,46.776,70.848,43.53z M26.007,31.19
		c0.484-5.424,1.765-9.682,6.464-12.807c4.676-3.11,9.974-5.826,15.746-5.358c5.441,0.441,11.429,4.016,15.389,7.611
		c1.965,1.783,2.584,4.599,3.084,7.11c0.567,2.847,1.376,6.572,0.892,9.474c-1.212-2.202-2.692,1.625-3.263,2.174
		c-1.107,1.064-3.202-0.354-4.398-0.686c-4.5-1.247-9.145-1.835-13.817-1.835c-4.622,0-9.313,0.839-13.741,2.11
		c-1.612,0.463-2.992,1.456-4.074-0.305c-0.455-0.741-1.559-3.304-2.694-1.556C25.954,35.195,25.832,33.144,26.007,31.19z
		 M48.494,39.468c2.091,0.164,4.148,0.413,6.232,0.608c-2.136,0.916-5.146,1.263-5.777,3.79
		C48.602,42.507,48.517,40.867,48.494,39.468z M49.103,52.989c-3.09-3.56-5.876-8.756-6.566-13.469
		c1.19-0.306,2.61-0.15,3.827-0.172c1.338-0.024,1.029,2.628,1.178,3.826C47.949,46.473,48.421,49.729,49.103,52.989z
		 M41.636,41.321c-0.966-0.377-1.888-0.853-2.844-1.253c0.812-0.049,1.628-0.14,2.417-0.345
		C41.301,40.268,41.443,40.801,41.636,41.321z M24.538,55.698c-0.685-3.473-0.838-7.099-0.184-10.589
		c0.596-3.174-3.912,1.398-4.626-0.487c-0.134-0.355,2.342-1.771,2.638-2.016c1.342-1.109,2.514-2.477,3.208-4.086
		c1.608,3.239,3.292,4.169,6.807,2.96c-0.6,2.555-1.416,5.061-1.831,7.657c-0.431,2.689-0.133,5.368,0.043,8.066
		c0.073,1.129,0.046,3.193-0.997,1.219c-0.307-0.581-2.578-5.978-2.457-6.051C25.831,53.159,25.633,61.265,24.538,55.698z
		 M24.094,71.984c-0.446,0.6-0.908,2.478-1.501,0.794c-0.361-1.028-0.084-2.227,0.086-3.265c0.1-0.617,1.095-2.674,0.81-3.202
		c-0.339-0.626-2.354,1.48-2.643,1.068c-0.727-1.038,2.363-3.755,3.014-4.235c2.184-1.612,4.896-2.497,7.56-2.881
		c-0.328,1.651,0.801,3.888,2.083,4.853C29.817,66.408,26.401,68.847,24.094,71.984z M35.49,64.693
		c-1.779,0-3.623-2.578-3.059-4.326c1.169,1.501,2.491,2.871,3.772,4.274C35.966,64.659,35.729,64.676,35.49,64.693z M61.869,55.551
		c-1.807,4.958-6.36,10.576-11.487,12.522c-5.609,2.13-10.221-1.092-14.073-4.811c-1.844-1.779-4.239-4.063-4.413-6.722
		c-0.229-3.514-0.348-6.94,0.699-10.355c0.523-1.708,0.88-3.461,1.281-5.2c1.024-0.33,3.884,1.062,4.914,1.44
		c0.906,0.333,1.802,0.695,2.721,0.988c1.234,0.394,1.063,0.708,1.508,1.868c0.438,1.143,1.851,3.361,1.92,4.025
		c0.167,1.237,3.866,6.559,5.254,6.104c1.361-0.45-1.001-9.567-1.156-11.034c0.953,0.432,4.21-1.446,5.145-1.775
		c2.006-0.707,4.437-1.954,6.488-1.212C61.83,46.083,62.47,50.709,61.869,55.551z M68.614,53.294
		c-0.898,4.423-1.22-2.049-2.155-1.688c-0.245,0.095-3.234,9.898-3.238,4.856c-0.004-5.023,0.225-9.561-1.028-14.515
		c2.741,0.826,4.371-1.174,5.372-3.449C68.968,43.472,69.659,48.163,68.614,53.294z"/>
	<path d="M30.306,35.697c1.929-1.256,4.17-1.91,6.345-2.624c4.694-1.54,10.136-1.638,14.992-0.977
		c2.352,0.32,4.669,0.895,6.905,1.689c1.87,0.664,4.968,2.592,6.206,2.59c2.47,0,0.462-9.295,0.106-10.837
		c-1.101-4.777-6.16-6.502-10.448-7.8c-4.532-1.372-8.941-1.739-13.565-0.62c-3.66,0.886-10.711,2.777-12.063,6.781
		c-1.121,3.323-1.631,7.371-1.583,10.872C27.23,36.88,28.941,36.586,30.306,35.697z M32.021,22.958
		c3.942-2.602,8.97-4.32,13.69-4.557c4.883-0.244,9.912,1.487,14.155,3.793c3.989,2.167,3.751,7.583,3.963,11.697
		c-3.141-1.543-6.435-2.795-9.879-3.458c-8.157-1.568-17.312-0.647-24.643,3.448C29.398,30.868,29.29,24.76,32.021,22.958z"/>
</g>
</svg>
