<?xml version="1.0" encoding="utf-8"?>
<!-- Generator: Adobe Illustrator 16.0.0, SVG Export Plug-In . SVG Version: 6.00 Build 0)  -->
<!DOCTYPE svg PUBLIC "-//W3C//DTD SVG 1.1//EN" "http://www.w3.org/Graphics/SVG/1.1/DTD/svg11.dtd">
<svg version="1.1" id="Layer_1" xmlns="http://www.w3.org/2000/svg" xmlns:xlink="http://www.w3.org/1999/xlink" x="0px" y="0px"
	 width="90px" height="90px" viewBox="0 0 90 90" enable-background="new 0 0 90 90" xml:space="preserve">
<g>
	<path d="M72.005,45.795c5.625-10.345-2.27-22.578-10.553-28.731c-10.93-8.119-24.426-7.609-35.045,0.842
		c-5.084,4.046-9.401,9.66-10.898,16.077c-0.78,3.342-0.688,6.886,0.567,10.105c0.669,1.718,1.472,2.109,0.551,3.724
		c-0.743,1.303-1.036,2.818-0.997,4.308c0.075,2.855,1.294,5.652,3.126,7.816c0.954,1.127,2.128,1.821,3.212,2.777
		c1.072,0.945,1.641,2.794,2.608,3.919c2.274,2.646,5.302,4.557,8.448,5.999c2.845,1.304,4.979,3.133,8.193,3.708
		c4.378,0.782,9.402,0.055,12.955-2.772c1.896-1.511,4.453-2.216,6.46-3.637c1.949-1.38,3.713-3.066,5.004-5.087
		c0.907-1.419,1.184-1.995,2.504-2.998c1.747-1.327,3.128-3.121,4.02-5.122c0.826-1.854,1.255-3.936,1.018-5.965
		C72.984,49.088,71.222,47.235,72.005,45.795 M66.761,45.27c-1.055-1.412-3.912-3.855-5.414-1.77
		c-1.732,2.406-3.399,2.022-5.992,0.939c-3.476-1.446-6.864-3.027-10.688-3.031c-3.437-0.004-6.064,1.184-9.305,2.204
		c-2.184,0.679-5.004,3.057-7.143,0.989c-1.202-1.163-1.795-2.448-3.632-1.168c-1.032,0.719-1.715,1.649-2.584,2.518
		c-1.3-1.407-2.453-1.95-2.949-4.014c-0.436-1.81-0.64-3.481-0.496-5.358c0.287-3.754,2.358-7.566,4.628-10.485
		c4.519-5.811,11.216-10.554,18.632-11.577c8.142-1.124,15.903,3.018,21.568,8.563c3.472,3.398,6.664,8.247,7.198,13.19
		c0.158,1.466,0.41,3.944-0.281,5.315c-0.411,0.773-0.541,1.666-0.981,2.434c-0.505,0.88-1.41,1.188-2.071,1.909
		C67.087,45.708,66.924,45.489,66.761,45.27 M66.06,60.485c-1.514,0.999-1.995,2.849-3.13,4.231
		c-1.454,1.77-3.285,3.218-5.247,4.386c-3.816,2.271-8.126,5.048-12.684,5.199c-4.577,0.151-7.672-2.27-11.555-4.17
		c-4.101-2.006-6.789-4.656-9.118-8.5c-0.92-1.519-3.068-2.321-4.185-3.849c-1.299-1.778-2.277-4.012-2.165-6.254
		c0.104-2.074,2.554-5.769,4.382-3.641c0.2,2.138,0.576,4.41,1.417,6.399c0.676,1.595,1.281,0.449,2.135-0.442
		c1.134-1.184,1.677-1.374,1.296-3.003c-0.458-1.961-0.698-3.97-0.798-5.979c2.29,3.894,7.238,1.445,10.257-0.065
		c2.374-1.194,5.103-1.792,7.739-1.789c2.578,0.003,5.279,0.553,7.602,1.727c3.109,1.608,8.04,3.972,10.407,0.069
		c0.046,1.861-0.083,3.746-0.271,5.596c-0.204,2.004,0.061,2.162,1.501,3.504c0.502,0.468,1.494,1.909,1.995,0.838
		c1.018-2.177,0.987-4.905,1.189-7.245c1.511,0.537,1.548-0.86,2.953,0.715c0.878,0.985,1.256,2.305,1.272,3.606
		C71.093,55.296,68.893,58.615,66.06,60.485"/>
	<path d="M60.12,54.48c-2.123,0.628-5.154,0.544-7.07,1.532c-0.519,0.268-0.26,2.094-0.372,2.637
		c-0.193,0.945-0.613,1.833-1.206,2.593c-2.572,3.298-7.656,3.922-11.244,2.055c-2.358-1.228-3.869-3.384-3.869-6.088
		c0-1.977-2.84-1.603-4.403-1.939c-0.814-0.175-3.824-1.48-4.511-1.043C26.554,54.929,26.81,57,27.152,57.89
		c0.477,1.238,1.28,1.412,2.284,2.041c0.425,0.267,0.156,1.593,0.309,2.053c0.353,1.066,1.258,1.867,2.304,2.229
		c1.267,0.438,2.284,0.076,3.508-0.248c0.803-0.212,0.866,1.161,1.212,1.655c1.296,1.852,3.97,2.149,5.95,1.38
		c1.494-0.58,1.566-1.208,3.052-0.355c0.998,0.572,2.169,0.829,3.315,0.743c1.042-0.078,2.093-0.443,2.875-1.155
		c0.546-0.497,0.806-1.991,1.348-2.263c0.617-0.31,2.287,0.529,3.097,0.438c1.092-0.123,2.117-0.687,2.702-1.633
		c0.43-0.696,0.196-2.432,0.714-2.865c0.864-0.723,1.673-0.68,2.211-1.89C62.968,55.926,62.56,53.758,60.12,54.48"/>
	<path d="M42.52,19.659c-5.052,0.5-9.171,6.27-8.953,11.149c0.103,2.303,1.257,5.067,3.988,4.37c2.445-0.624,5.09-0.764,7.6-0.688
		c2.506,0.075,5.221,0.935,7.683,0.802c2.673-0.145,2.999-4.363,2.699-6.292C54.517,22.433,48.702,19.048,42.52,19.659
		 M52.265,31.545c-0.133,0.156-1.45,2.044-1.829,1.541c-0.685-0.908-1.068-2.176-1.516-3.204c-0.166-0.38-1.05-3.425-1.839-2.97
		c-0.708,0.407-1.97,2.636-2.86,2.025c-0.504-0.347-2.105-2.824-2.719-1.774c-0.812,1.386-1.342,3.012-1.99,4.48
		c-0.299,0.677-0.654,2.035-1.475,1.156c-0.665-0.712-2.068-1.725-1.506-2.829c0.717-1.407,1.648-2.741,2.46-4.093
		c0.573-0.954,1.315-3.031,2.348-3.615c1.196-0.676,2.27,4.265,3.899,2.564c0.463-0.484,2.171-3.272,2.923-2.307
		c1.086,1.394,1.897,3.11,2.813,4.621C51.796,28.496,53.486,30.111,52.265,31.545"/>
</g>
</svg>
