<?xml version="1.0" encoding="utf-8"?>
<!-- Generator: Adobe Illustrator 16.0.0, SVG Export Plug-In . SVG Version: 6.00 Build 0)  -->
<!DOCTYPE svg PUBLIC "-//W3C//DTD SVG 1.1//EN" "http://www.w3.org/Graphics/SVG/1.1/DTD/svg11.dtd">
<svg version="1.1" id="Layer_1" xmlns="http://www.w3.org/2000/svg" xmlns:xlink="http://www.w3.org/1999/xlink" x="0px" y="0px"
	 width="90px" height="90px" viewBox="0 0 90 90" enable-background="new 0 0 90 90" xml:space="preserve">
<g>
	<path fill="#04090D" d="M33.993,29.122c0.439-0.461,1.817,0.538,2.252,0.697c1.246,0.456-0.195-2.183-0.164-2.096
		c-0.165-0.463-2.642-7.389-3.169-3.62c-0.299,2.139-1.622,5.642-0.774,7.734C32.357,32.379,33.772,29.354,33.993,29.122z"/>
	<path fill="#04090D" d="M56.153,22.941c-0.631-1.227-2.366,3.558-2.633,4.276c-0.276,0.742-0.667,1.62-0.642,2.429
		c0.031,1.009,1.673-0.522,1.991-0.62c0.646-0.198,2.34,3.277,2.5,3.068c0.577-0.757-0.099-3.165-0.22-4.027
		C56.911,26.377,56.949,24.495,56.153,22.941z"/>
	<path fill="#04090D" d="M79.578,53.672c-2.004-3.015-4.73-5.452-7.354-7.914c-1.21-1.137-2.446-2.247-3.714-3.318
		c-1.382-1.168-3.856-2.316-3.965-4.143c-0.447-7.497-1.696-14.946-3.777-22.162c-0.72-2.496-2.642-6.14-5.745-4.093
		c-2.621,1.729-4.021,5.533-5.222,8.288c-0.646,1.482-1.24,2.987-1.817,4.498c-0.343,0.897-0.679,1.798-1.018,2.697
		c-1.063-0.109-2.133-0.084-3.199-0.064c-1.558,0.027-1.292-0.62-1.807-1.944c-0.38-0.977-0.771-1.948-1.175-2.915
		c-0.809-1.932-1.672-3.842-2.608-5.716c-0.985-1.971-2.143-4.866-4.569-5.385c-3.29-0.702-4.395,3.565-5.079,5.896
		c-1.073,3.657-1.796,7.441-2.355,11.208c-0.316,2.127-0.563,4.265-0.756,6.405c-0.097,1.074-0.181,2.149-0.253,3.225
		c-0.098,1.448-0.599,1.449-1.696,2.297c-2.887,2.228-5.528,4.711-8.155,7.234c-2.238,2.149-5.003,4.585-6.038,7.61
		c-2.142,6.263,6.118,12.91,11.909,10.015c0.326,3.954,3.664,6.521,7.511,6.67c1.564,0.062,3.207-0.229,4.566-1.035
		c0.596-0.354,1.134-0.813,1.538-1.378c0.555-0.777,2.185,0.273,2.976,0.528c4.326,1.397,7.882,1.843,12.293,0.561
		c0.669-0.194,4.16-1.866,4.618-1.528c0.789,1.13,1.842,1.998,3.147,2.46c2.34,0.827,5.079,0.433,7.224-0.756
		c0.963-0.533,1.839-1.253,2.474-2.158c0.321-0.458,0.919-3.146,1.117-3.229c0.703-0.295,2.273,0.472,3.051,0.479
		c2.125,0.02,4.2-0.796,5.829-2.144C80.468,61.43,81.805,57.033,79.578,53.672z M49.436,48.031
		c0.308-5.049,0.455-10.124,1.263-15.127c0.766-4.747,3.329-9.724,5.519-13.975c1.672,5.799,2.643,11.905,3.066,17.921
		c0.085,1.208,0.072,2.42,0.128,3.63c0.024,0.604,0.077,1.207,0.157,1.808c0.191,1.373-0.544,1.273-1.696,1.88
		c-2.799,1.476-5.645,2.859-8.462,4.299C49.418,48.321,49.427,48.177,49.436,48.031z M30.077,41.107
		c0.846-3.317,0.516-7.219,1.001-10.644c0.551-3.888,1.284-7.757,2.379-11.53c2.101,4.149,4.743,9.167,5.659,13.736
		c1.025,5.112,1.037,10.591,1.282,15.786c-2.378-1.214-4.789-2.361-7.161-3.587c-1.181-0.61-2.353-1.24-3.503-1.906
		C29.84,42.346,29.931,41.717,30.077,41.107z M36.802,64.377c-3.269-1.354-7.263-2.846-8.845-6.3
		c3.295,1.544,8.561,3.204,10.183,6.806C37.689,64.727,37.244,64.558,36.802,64.377z M51.851,64.632
		c1.608-3.293,6.28-4.856,9.455-6.294C59.489,61.614,55.167,63.395,51.851,64.632z M71.366,63.497
		c-1.243-0.036-2.361-0.568-3.31-1.346c-0.835-0.686-1.622-2.266-2.629-2.645c-0.077-0.037,0.479,3.645,0.498,3.785
		c0.211,1.564,0.195,3.356-0.925,4.599c-1.234,1.37-3.45,1.912-5.222,1.696c-1.068-0.129-2.122-0.587-2.844-1.403
		c-0.284-0.32-0.889-2.128-1.333-2.035c3.493-1.393,8.333-4.15,8.765-8.341c0.083-0.809,0.537-3.311-0.803-3.288
		c-1.216,0.02-2.49,0.685-3.565,1.185c-2.718,1.265-5.336,2.783-7.868,4.385c-1.63,1.031-2.431,2.477-3.223,4.218
		c-0.207,0.453-2.657,4.817-0.794,4.407c-2.217,0.552-3.773,0.573-5.987,0.169c1.403-0.08-2.742-7.374-3.56-8.114
		c-2.996-2.713-7.585-4.529-11.287-6.064c-3.071-1.273-2.753,2.372-1.981,4.285c1.499,3.607,5.24,5.857,8.702,7.27
		c-0.489-0.046-0.802,1.078-0.923,1.287c-0.563,0.968-1.456,1.632-2.531,1.931c-1.793,0.498-3.987,0.029-5.436-1.145
		c-1.258-1.02-1.623-2.592-1.552-4.146c0.033-0.74,1.221-4.284,0.821-4.682c-0.233-0.231-2.603,2.455-2.91,2.704
		c-1.372,1.116-3.046,1.604-4.779,1.174c-2.632-0.652-5.559-3.131-5.397-6.077c0.192-3.501,4.707-6.927,7.044-9.134
		c1.558-1.472,3.181-2.857,4.809-4.25c0.951-0.813,3.735-2.166,4.187-3.382c-0.208,0.956-0.919,2.897-0.331,3.807
		c0.808,1.249,2.837,1.73,4.098,2.33c3.306,1.571,6.329,3.676,9.623,5.255c0.686,0.329,2.291,1.294,2.605,0.092
		c0.446-1.703-0.142-4.024-0.254-5.759c-0.177-2.727-0.294-5.462-0.532-8.185c-0.224-2.573-0.257-5.627-1.34-8.012
		c0.026,0.032,7.21,0.078,7.299-0.037c-0.831,1.737-0.694,3.754-0.948,5.616c-0.353,2.596-0.443,5.221-0.62,7.831
		c-0.101,1.491-1.847,9.962,1.112,8.934c2.89-1.004,5.624-3.056,8.383-4.39c1.811-0.877,4.651-1.765,6.005-3.305
		c0.699-0.796-0.13-3.413-0.173-4.434c0.11,0.947,1.751,1.539,2.433,2.154c1.139,1.026,2.347,1.984,3.507,2.99
		c2.475,2.144,4.844,4.443,7.146,6.771c1.988,2.01,3.733,4.501,2.401,7.378C76.649,61.956,73.978,63.57,71.366,63.497z"/>
</g>
</svg>
