<?xml version="1.0" encoding="utf-8"?>
<!-- Generator: Adobe Illustrator 16.0.0, SVG Export Plug-In . SVG Version: 6.00 Build 0)  -->
<!DOCTYPE svg PUBLIC "-//W3C//DTD SVG 1.1//EN" "http://www.w3.org/Graphics/SVG/1.1/DTD/svg11.dtd">
<svg version="1.1" id="Layer_1" xmlns="http://www.w3.org/2000/svg" xmlns:xlink="http://www.w3.org/1999/xlink" x="0px" y="0px"
	 width="90px" height="90px" viewBox="0 0 90 90" enable-background="new 0 0 90 90" xml:space="preserve">
<g>
	<path d="M69.841,33.263c-2.514-1.199-1.987-7.66-4.084-10.381c-3.197-4.15-6.751-4.063-11.408-4.052
		c-1.746,0.004-3.814-2.406-5.535-3.013c-2.154-0.759-4.496-0.983-6.759-0.699c-1.914,0.24-4.099,0.932-5.583,2.208
		c-2.113,1.816-2.838,1.087-5.549,1.179c-4.612,0.157-8.492,3.378-10.092,7.617c-0.727,1.926-0.722,3.737-0.835,5.746
		c-0.079,1.394-4.2,3.104-5.239,4.431c-2.632,3.363-3.397,8.068-2.221,12.144c0.694,2.407,2.098,4.589,4.102,6.112
		c1.55,1.178,0.787,3.859,1.417,5.594c1.558,4.294,6.434,3.918,7.797,7.514c1.273,3.355,5.643,4.798,8.829,5.44
		c8.001,1.612,18.946,2,26.137-2.356c3.056-1.851,3.965-5.16,6.958-7.186c3.73-2.525,1.769-6.922,4.584-9.513
		C78.447,48.446,77.635,36.992,69.841,33.263z M59.762,68.729c-6.436,4.043-30.66,6.53-32.4-3.912
		c0.903,0.04,1.311,0.03,2.337-0.387c-0.554,0.225,3.073,3.02,3.34,3.136c3.421,1.489,8.1,1.53,11.108-0.858
		c2.755,2.249,7.551,2.267,10.759,1.054c1.798-0.68,2.4-1.996,3.645-3.307c1.231,0.459,2.548,0.564,3.842,0.389
		C61.982,66.631,61.364,67.722,59.762,68.729z M70.816,50.081c-1.156,1.507-3.534,2.138-3.889,4.157
		c-0.232,1.317,0.361,2.743,0.041,4.018c-0.49,1.953-2.292,3.373-4.172,3.869c-1.732,0.457-3.935-0.946-5.414-0.052
		c-1.137,0.687-1.504,2.259-2.602,2.886c-1.774,1.011-3.994,0.979-5.96,0.821c-1.684-0.135-3.109-1.771-4.657-1.771
		c-1.372,0-2.432,1.417-3.791,1.704c-2.018,0.425-4.391,0.301-6.296-0.53c-1.642-0.713-1.8-2.931-3.4-3.42
		c-2.942-0.901-6.125,1.808-8.503-2.207c-0.96-1.624-0.534-3.131-0.446-4.839c0.105-2.044-1.638-2.761-3.011-3.861
		c-3.214-2.574-3.604-8.267-1.074-11.538c1.417-1.833,5.865-2.199,6.491-4.248c1.165-3.812-1.033-7.229,2.338-10.414
		c1.435-1.355,3.394-2.255,5.385-2.266c1.438-0.008,2.978,0.966,4.337,0.101c4.102-2.613,7.432-5.193,12.479-2.504
		c1.496,0.797,2.824,3.037,4.643,3.037c1.822,0,3.157-0.944,5.091-0.518c5.586,1.232,5.513,5.911,5.98,10.406
		c-0.674,3.701,3.735,3.223,5.775,5.319C73.204,41.356,73.464,46.63,70.816,50.081z"/>
	<path d="M61.262,45.734c-0.18-0.826-0.002-1.708,0.185-2.641c0.183-0.913,0.372-1.856,0.276-2.881
		c-0.139-1.468-1.859-1.762-2.998-1.956c-0.177-0.03-0.33-0.053-0.407-0.073c-0.356-0.119-0.581-0.313-0.98-0.673
		c-0.203-0.183-0.414-0.372-0.655-0.558c-1.395-1.079-2.257-2.187-2.635-3.389c-0.03-0.096-0.046-0.223-0.069-0.357
		c-0.112-0.659-0.411-2.41-2.081-2.41c-0.21,0-0.427,0.034-0.646,0.101c-0.279,0.085-0.54,0.172-0.792,0.256
		c-0.862,0.286-1.484,0.492-2.35,0.513l-0.723,0.019c-1.032,0.027-2.074,0.054-3.115,0.054c-1.18,0-2.199-0.037-3.09-0.11
		c-0.139-0.022-0.58-0.179-0.871-0.283c-0.762-0.271-1.55-0.55-2.193-0.55c-0.624,0-1.011,0.256-1.226,0.47
		c-0.671,0.668-0.932,1.612-1.184,2.525c-0.16,0.579-0.325,1.178-0.549,1.481c-0.617,0.836-1.572,1.772-2.491,2.442
		c-0.313,0.228-0.849,0.347-1.367,0.461c-0.885,0.196-1.888,0.418-2.459,1.325c-0.354,0.563-0.44,1.252-0.254,2.049
		c0.381,1.634,0.376,3.205-0.018,5.255c-0.126,0.661-0.339,1.217-0.545,1.754c-0.579,1.513-1.236,3.229,1.159,5.513
		c3.062,2.92,8.201,4.865,13.748,5.202c0.544,0.033,1.075,0.048,1.596,0.048c3.669,0,6.814-0.781,10.115-1.804l0.001,0.01
		l1.938-0.627c0.002-0.001,0.004-0.001,0.007-0.002l0.218-0.07l-0.003-0.009c0.107-0.045,0.203-0.094,0.288-0.146
		c2.173-0.969,4.257-2.746,5.395-4.655c0.875-1.468,0.073-3.238-0.635-4.8C61.6,46.664,61.34,46.091,61.262,45.734z M37.25,36.816
		c0.509-0.69,0.75-1.562,0.963-2.332c0.083-0.3,0.192-0.697,0.309-0.996c0.301,0.089,0.675,0.222,0.918,0.308
		c0.675,0.24,1.108,0.388,1.502,0.421c0.987,0.082,2.076,0.122,3.329,0.122c1.063,0,2.128-0.028,3.183-0.055l0.719-0.019
		c1.252-0.031,2.152-0.329,3.104-0.645c0.042-0.014,0.084-0.028,0.126-0.042c0.004,0.023,0.007,0.044,0.011,0.064
		c0.045,0.265,0.093,0.512,0.152,0.701c0.542,1.725,1.695,3.251,3.525,4.666c0.186,0.144,0.348,0.291,0.504,0.432
		c0.083,0.075,0.178,0.152,0.267,0.229c-0.406,0.013-0.969-0.147-1.229-0.282c-2.114-1.095-1.48-1.735-2.685,0.354
		c-0.746,1.293-1.453,0.574-2.203-0.286c-1.171-1.342-0.995-1.364-2.199-0.008c-0.402,0.453-1.327,1.618-2.028,1.618
		c-1.113,0-0.941-2.749-1.64-2.749c-0.967,0-1.733,3.138-3.042,2.745c-1.216-0.386-1.553-3.782-2.742-2.405
		c-0.514,0.595-3.406,2.373-3.835,1.108C35.376,38.943,36.49,37.847,37.25,36.816z M60.252,50.687
		c-0.996,1.671-3.036,3.274-4.962,3.897l-0.02,0.007v0l-0.015,0.005c-4.058,1.307-7.7,2.354-12.168,2.082
		c-3.823-0.232-9.013-1.533-12.111-4.488c-1.142-1.089-1.036-1.367-0.525-2.702c0.223-0.582,0.5-1.307,0.67-2.193
		c0.46-2.397,0.459-4.352-0.003-6.336c-0.004-0.019-0.008-0.036-0.011-0.052c0.196-0.069,0.521-0.141,0.753-0.192
		c0.42-0.093,0.9-0.209,1.38-0.396c0.033,0.057,0.049,0.11,0.088,0.169c1.283,1.954,3.534,1.171,5.034-0.122
		c1.42,2.432,3.224,2.552,5.121,0.515c1.409,2.72,3.645,1.166,5.159-0.559c1.22,1.418,2.929,2.405,4.278,0.499
		c0.759-1.074,1.645,0.369,2.927,0.369c0.488,0,0.909-0.195,1.232-0.505c0.233,0.224,0.546,0.367,0.896,0.367
		c0.236,0,0.457-0.063,0.647-0.172c0.169,0.031,0.357,0.069,0.519,0.109c-0.025,0.5-0.133,1.036-0.245,1.595
		c-0.221,1.101-0.471,2.348-0.176,3.704c0.136,0.626,0.439,1.296,0.761,2.005C59.782,48.952,60.404,50.325,60.252,50.687z"/>
</g>
</svg>
