<?xml version="1.0" encoding="utf-8"?>
<!-- Generator: Adobe Illustrator 16.0.0, SVG Export Plug-In . SVG Version: 6.00 Build 0)  -->
<!DOCTYPE svg PUBLIC "-//W3C//DTD SVG 1.1//EN" "http://www.w3.org/Graphics/SVG/1.1/DTD/svg11.dtd">
<svg version="1.1" id="Layer_1" xmlns="http://www.w3.org/2000/svg" xmlns:xlink="http://www.w3.org/1999/xlink" x="0px" y="0px"
	 width="90px" height="90px" viewBox="0 0 90 90" enable-background="new 0 0 90 90" xml:space="preserve">
<path d="M77.984,27.409c-0.779-3.632-4.482-3.463-15.358,0.697c-5.219,1.997-12.178,5.486-12.943,6.489
	c-0.784,1.029-1.016,3.814-0.554,6.682c0.146,0.908,0.211,0.844-0.708,0.697c-2.14-0.339-4.354-0.328-6.705,0.032
	c-1.118,0.171-1.011,0.254-0.862-0.669c0.479-2.971,0.222-5.822-0.616-6.819c-0.668-0.793-5.011-3.085-9.399-4.962
	c-2.821-1.205-3.023-1.288-5.337-2.152c-5.615-2.102-9.273-2.904-11.154-2.448c-3.177,0.771-3.242,4.551-0.244,14.188
	c2.499,8.029,5.112,13.664,6.734,14.518c1.074,0.565,4.768,0.855,6.628,0.521l0.301-0.054l-0.057,0.3
	c-1.803,9.479,5.403,16.115,17.497,16.115c10.8,0,18.799-7.465,17.195-16.049l-0.067-0.361l0.204,0.054
	c0.997,0.266,4.947,0.082,6.05-0.279c1.604-0.527,2.995-2.86,5.224-8.761C76.906,36.949,78.541,30.002,77.984,27.409z M62.99,51.535
	c-0.079,0-0.196-0.013-0.39-0.044c-0.292-0.046-1.166-0.158-1.95-0.251c-0.546-0.063-0.986-0.112-1.29-0.112
	c-0.248,0-0.519,0.027-0.647,0.228c-0.156,0.245-0.014,0.585,0.251,1.164c0.985,2.146,1.163,4.563,0.487,6.634
	c-0.142,0.438-0.246,0.675-0.315,0.803c-0.016-0.106-0.029-0.274-0.029-0.536c0-1.375-0.493-1.936-1.706-1.938
	c-1.686,0-3.769,2.102-4.127,4.165c-0.217,1.242-0.139,2.068,0.241,2.6c0.256,0.357,0.64,0.572,1.174,0.657
	c0.082,0.013,0.134,0.026,0.167,0.037c-0.058,0.071-0.214,0.22-0.642,0.512c-2.221,1.516-5.618,2.385-9.32,2.386
	c-2.42,0-4.867-0.37-7.075-1.071c-1.402-0.445-2.476-1.005-2.836-1.289c0.567-0.021,1.044-0.302,1.346-0.795
	c0.497-0.81,0.446-2.064-0.126-3.197c-0.117-0.231-0.257-0.535-0.312-0.678c-0.178-0.459-1-1.449-1.631-1.963
	c-0.771-0.627-1.545-0.958-2.238-0.958c-0.91,0-1.554,0.568-1.767,1.558c-0.001,0.005-0.002,0.009-0.003,0.013
	c-0.006-0.018-0.013-0.034-0.02-0.053c-0.584-1.572-0.253-4.808,0.722-7.065c0.195-0.451,0.233-0.719,0.133-0.924
	c-0.07-0.142-0.199-0.234-0.395-0.283c-0.033-0.009-0.076-0.013-0.143-0.013c-0.511,0-2.531,0.221-3.433,0.375
	c-0.164,0.028-0.338,0.043-0.431,0.044c-0.171-0.208-0.89-1.503-3.884-8.448c-1.183-2.745-2.505-6.284-2.58-6.788
	c0.263,0.013,0.969,0.361,1.48,0.625c0.789,0.405,1.243,0.611,1.537,0.611l0,0c0.189,0,0.293-0.087,0.345-0.159
	c0.18-0.249,0.074-0.7-0.248-1.683c-0.198-0.603-0.467-1.422-0.409-1.593c0.005-0.001,0.011-0.001,0.019-0.001
	c0.168,0,0.55,0.159,0.993,0.354c0.497,0.216,1.043,0.455,1.213,0.531c0.171,0.076,0.562,0.248,0.869,0.382
	c2.003,0.871,7.058,3.448,9.166,4.674c0.426,0.246,0.984,0.568,1.239,0.715c0.837,0.479,1.298,0.743,1.46,0.975
	c0.128,0.183,0.08,0.379-0.076,0.918c-0.487,1.681-0.647,2.348-0.396,2.682c0.096,0.127,0.246,0.192,0.446,0.192
	c0.242,0,0.562-0.088,1.029-0.24c1.999-0.651,4.06-0.98,6.124-0.98c2.028,0,3.947,0.318,5.706,0.947
	c0.537,0.192,1.021,0.363,1.074,0.381c0.226,0.076,0.42,0.023,0.535-0.134c0.166-0.226,0.271-0.754-0.387-2.855
	c-0.134-0.426-0.198-0.729-0.209-0.838c0.569-0.612,8.041-4.679,12.053-6.47l0.114-0.052c1.68-0.749,2.604-1.162,2.931-1.162
	c0.012,0,0.022,0.001,0.029,0.002c0.02,0.114-0.104,0.493-0.215,0.83l-0.016,0.048c-0.512,1.56-0.679,2.112-0.473,2.396
	c0.05,0.071,0.148,0.154,0.329,0.154c0.287,0,0.726-0.214,1.478-0.59c0.662-0.332,1.31-0.639,1.548-0.639c0.003,0,0.005,0,0.008,0
	c0.003,0.033-0.001,0.112-0.047,0.282c-0.186,0.683-1.412,3.919-1.959,5.169c-0.141,0.323-0.504,1.175-0.807,1.896
	c-0.305,0.725-0.688,1.606-0.854,1.967c-0.166,0.362-0.449,0.989-0.628,1.395c-1.192,2.702-1.99,4.329-2.128,4.479
	C63.086,51.521,63.07,51.535,62.99,51.535z"/>
</svg>
