<?xml version="1.0" encoding="utf-8"?>
<!-- Generator: Adobe Illustrator 16.0.0, SVG Export Plug-In . SVG Version: 6.00 Build 0)  -->
<!DOCTYPE svg PUBLIC "-//W3C//DTD SVG 1.1//EN" "http://www.w3.org/Graphics/SVG/1.1/DTD/svg11.dtd">
<svg version="1.1" id="Layer_1" xmlns="http://www.w3.org/2000/svg" xmlns:xlink="http://www.w3.org/1999/xlink" x="0px" y="0px"
	 width="90px" height="90px" viewBox="0 0 90 90" enable-background="new 0 0 90 90" xml:space="preserve">
<path d="M67.088,43.434c-0.81-0.261-0.879-0.377-0.516-0.86c0.112-0.149,0.298-0.506,0.415-0.794
	c0.117-0.288,0.421-0.857,0.677-1.265c2.426-3.864,2.574-6.982,0.392-8.26c-1.059-0.621-2.039-0.814-4.653-0.916
	c-3.776-0.147-4.249-0.297-5.314-1.677c-0.608-0.789-1.672-1.526-2.605-1.805c-0.414-0.124-0.458-0.239-0.185-0.484
	c2.856-2.557,3.78-10.88,1.431-12.883c-0.765-0.651-3.181-0.661-5.188-0.019c-0.774,0.248-0.879,0.258-0.879,0.084
	c0-0.305-1.267-2.593-1.915-3.458c-1.799-2.401-3.477-3.44-4.936-3.056c-1.689,0.446-4.429,3.212-5.714,5.768
	c-0.287,0.572-0.39,0.704-0.508,0.657c-1.024-0.404-3.683-0.605-4.518-0.344c-3.078,0.966-2.824,8.735,0.423,12.939
	c0.235,0.304,0.414,0.562,0.398,0.574c-0.016,0.012-0.257,0.071-0.536,0.131c-0.986,0.213-2.141,0.93-2.823,1.717
	c-0.493,0.427-1.033,0.956-1.542,1.503c-0.655,0.216-1.705,0.277-3.724,0.354c-2.802,0.106-4.027,0.39-4.942,1.146
	c-1.842,1.522-1.614,4.246,0.665,7.938c0.282,0.458,0.595,1.042,0.696,1.3c0.102,0.257,0.301,0.637,0.443,0.845
	c0.323,0.47,0.325,0.457-0.068,0.525c-6.659,1.159-9.906,7.949-8.095,16.924c2.567,12.714,14.274,20.9,29.89,20.9
	c15.108,0,26.561-7.628,29.63-19.735C75.679,52.529,73.1,45.373,67.088,43.434z M44.01,77.214c-0.001,0-0.001,0-0.002,0
	c-1.3,0-2.632-0.067-3.961-0.201c-13.391-1.345-22.743-10.27-22.743-21.704c0-5.423,2.169-8.246,6.632-8.63
	c0.524-0.045,1.179-0.107,1.46-0.139c0.021-0.002,0.069-0.006,0.151-0.006c0.467,0,1.137,0.125,1.379,0.228
	c0.297,0.125,0.838,0.282,1.22,0.372c0.281,0.065,0.658,0.21,0.765,0.271c1.527,0.878,2.166,1.21,2.831,1.21l0,0
	c1.03,0,1.463-0.819,1.626-1.127c0.623-1.177,3.177-3.119,5.27-3.708c2.486-0.699,3.605-0.932,5.336-0.932
	c0.574,0,1.237,0.025,2.217,0.082c1.088,0.063,1.238,0.097,1.909,0.325c0.486,0.166,1.235,0.38,1.663,0.453
	c0.359,0.062,1.992,0.746,2.534,1.117c0.198,0.136,0.59,0.396,0.873,0.578c0.494,0.319,1.798,1.626,2.018,1.984
	c0.365,0.623,0.865,0.939,1.485,0.939c0.563,0,1.081-0.274,1.752-0.662c0.412-0.237,0.809-0.404,1.181-0.495
	c0.419-0.104,1.143-0.309,1.614-0.457c0.546-0.172,1.25-0.279,1.835-0.279c0.312,0,0.496,0.033,0.555,0.052
	c0.328,0.105,0.948,0.243,1.367,0.319c3.756,0.683,5.604,3.74,5.491,9.09C70.208,68.246,59.081,77.214,44.01,77.214z M53.064,24.651
	c-1.185,1.499-2.677,2.427-3.379,2.427c-0.061,0-0.091-0.008-0.097-0.008h-0.001l-0.041-0.034c-0.731-0.612-0.806-0.612-4.775-0.641
	l-4.494-0.033l-0.783,0.416c-0.034,0.018-0.062,0.032-0.093,0.047c-0.174,0.039-0.368,0.08-0.578,0.124
	c-0.015-0.004-0.026-0.006-0.042-0.011c-0.503-0.147-2.399-1.72-2.79-2.395c-0.137-0.234-0.362-0.594-0.514-0.819
	c-0.075-0.11-0.253-0.481-0.354-0.788c-0.116-0.352-0.317-0.937-0.449-1.304c-0.308-0.855-0.299-3.382-0.125-4.15
	c0.055-0.008,0.133-0.016,0.241-0.016c0.751,0,1.934,0.341,3.013,0.868c0.545,0.267,0.899,0.43,1.288,0.43
	c1.012,0,1.244-0.947,1.47-1.863c0.062-0.252,0.18-0.538,0.221-0.607c0.151-0.232,0.365-0.648,0.489-0.921
	c0.347-0.764,1.677-2.441,2.411-3.043c0.224-0.183,0.583-0.483,0.798-0.665c0.016-0.014,0.031-0.026,0.044-0.038
	c0.375,0.289,1.506,1.491,1.799,1.993c0.169,0.289,0.437,0.726,0.597,0.973c0.112,0.173,0.274,0.516,0.334,0.705
	c0.092,0.292,0.279,0.789,0.426,1.13c0.106,0.246,0.24,0.692,0.281,0.936c0.164,0.958,0.225,1.317,0.777,1.68
	c0.155,0.102,0.4,0.237,0.733,0.237c0.457,0,0.819-0.247,1.321-0.623c0.176-0.132,0.313-0.224,0.384-0.268
	c0.163-0.054,0.419-0.167,0.887-0.409c0.633-0.326,1.632-0.521,2.232-0.521c0.085,0,0.15,0.004,0.196,0.009
	C55.128,18.542,54.628,22.672,53.064,24.651z M39.147,38.296c-0.638-0.662-1.006-1.097-1.458-1.723
	c-0.144-0.199-0.41-0.539-0.607-0.776c-0.149-0.179-0.338-0.464-0.402-0.591c-0.123-0.245-0.317-0.567-0.45-0.749
	c-0.57-0.778-1.185-2.398-1.188-2.952c-0.001-0.31-0.037-0.567-0.097-0.782c0.228-0.064,0.545-0.17,1.011-0.326
	c0.576-0.193,1.519-0.456,2.094-0.584c0.722-0.161,1.154-0.322,1.387-0.542c0.346-0.072,0.653-0.139,0.903-0.2l0.117-0.035
	c0.011-0.003,0.285-0.08,1.313-0.08c2.478,0,6.529,0.421,7.094,0.549l0.055,0.015c0.099,0.025,0.233,0.058,0.385,0.095
	c0.349,0.085,1.075,0.263,1.268,0.335l0.096,0.032c0.047,0.013,0.087,0.026,0.132,0.041c0.241,0.078,0.57,0.184,1.814,0.466
	c0.255,0.058,0.652,0.18,1.029,0.302c-0.042,0.19-0.082,0.436-0.114,0.759c-0.068,0.702-0.664,2.172-1.118,2.76
	c-0.164,0.213-0.388,0.573-0.522,0.837c-0.352,0.696-1.279,1.871-2.479,3.142c-0.995,1.054-1.508,1.775-1.308,2.457
	c-0.476-0.119-0.917-0.164-1.773-0.214c-1.029-0.06-1.734-0.085-2.357-0.085c-1.288,0-2.29,0.112-3.555,0.393
	C40.707,40.117,40.17,39.357,39.147,38.296z M55.675,35.9c0,0,1.569-0.676,2.033-0.186c-0.452,0.499-1.61,1.67-1.973,1.854
	c-0.225,0.115-0.561,0.32-0.76,0.488c-0.05,0.039-0.239,0.144-0.396,0.201c-0.252,0.091-0.75,0.295-1.131,0.465
	c-0.641,0.285-0.798,0.336-2.081,0.585c-0.194,0.038-0.42,0.084-0.641,0.134c1.325-1.409,2.291-2.652,2.722-3.504
	c0.084-0.166,0.25-0.433,0.347-0.559c0.644-0.834,1.345-2.559,1.467-3.594c0.038,0.045,0.077,0.097,0.117,0.154
	c0.468,0.67,0.56,1.44,0.266,2.225C55.37,34.889,55.38,35.475,55.675,35.9z M50.443,41.307c0.183-0.056,0.743-0.187,1.257-0.287
	c1.378-0.268,1.654-0.347,2.457-0.703c0.338-0.15,0.802-0.342,1.014-0.418c0.271-0.098,0.674-0.295,0.919-0.5
	c0.064-0.054,0.275-0.192,0.435-0.273c0.88-0.447,2.292-1.88,2.765-2.777c0.093,0.123,0.173,0.223,0.179,0.231
	c0.135,0.171,0.348,0.465,0.458,0.628c0.128,0.194,0.384,0.575,0.568,0.847c0.12,0.178,0.276,0.513,0.319,0.663l0.046,0.131
	c0.219,0.526,0.345,0.801,0.556,1.146c0.037,0.062,0.084,0.136,0.137,0.218c0.11,0.172,0.404,0.631,0.448,0.802l0.013,0.059
	c0.02,0.077,0.047,0.173,0.077,0.285c0.085,0.308,0.202,0.729,0.261,1.079l0.014,0.071c0.012,0.053,0.021,0.102,0.03,0.149
	c0.021,0.111,0.047,0.249,0.095,0.401l0.001,0.004c0.012,0.049,0.047,0.202,0.143,0.665l0.066,0.314
	c-0.736,0.035-1.536,0.171-2.202,0.381c-0.424,0.133-1.097,0.324-1.469,0.416c-0.59,0.145-1.197,0.396-1.805,0.747
	c-0.107,0.062-0.199,0.113-0.277,0.156c-0.644-0.799-1.882-1.971-2.477-2.355c-0.265-0.171-0.634-0.416-0.819-0.542
	c-0.69-0.473-2.538-1.303-3.397-1.484C50.317,41.342,50.377,41.327,50.443,41.307z M31.892,36.371c0.428,0,0.8-0.188,1.021-0.516
	c0.384-0.573,0.158-1.3-0.045-1.798c-0.14-0.341-0.173-1.139-0.064-1.495c0.065-0.141,0.305-0.528,0.506-0.829
	c0.103,1.092,0.873,2.88,1.515,3.756c0.068,0.093,0.213,0.332,0.297,0.5c0.129,0.258,0.397,0.656,0.621,0.925
	c0.169,0.203,0.413,0.514,0.532,0.681c0.489,0.677,0.904,1.171,1.572,1.866c-0.266-0.057-0.541-0.113-0.758-0.156
	c-1.111-0.223-1.519-0.399-1.618-0.447c-0.322-0.159-0.828-0.37-1.153-0.48c-0.218-0.074-0.58-0.25-0.758-0.369
	c-0.267-0.176-0.627-0.394-0.822-0.494c-0.368-0.19-0.914-0.723-1.326-1.21C31.584,36.349,31.743,36.371,31.892,36.371z
	 M31.936,39.064c0.124,0.064,0.426,0.245,0.659,0.399c0.302,0.2,0.802,0.444,1.163,0.567c0.25,0.085,0.69,0.269,0.941,0.392
	c0.416,0.205,1.104,0.405,2.047,0.593c0.787,0.158,1.426,0.3,1.539,0.334c0.024,0.007,0.044,0.012,0.067,0.019
	c-0.119,0.033-0.239,0.066-0.364,0.101c-2.456,0.691-5.405,2.773-6.559,4.585c-0.398-0.199-0.966-0.525-1.322-0.73
	c-0.381-0.219-1-0.431-1.414-0.527c-0.341-0.08-0.724-0.199-0.829-0.244c-0.482-0.205-1.165-0.336-1.755-0.39
	c0.025-0.184,0.052-0.332,0.064-0.38l0.034-0.132l0.004-0.136c0.071-2.596,1.519-5.845,2.375-7.64
	c0.169-0.229,0.312-0.408,0.377-0.476c0.036-0.038,0.077-0.081,0.121-0.128c-0.014,0.191,0.005,0.415,0.077,0.674
	C29.423,36.894,31.014,38.588,31.936,39.064z M31.003,32.86c-0.029,0.479,0.01,0.997,0.115,1.434
	c-0.638-0.277-1.202-0.232-1.592,0.085c0.002-0.086-0.009-0.177-0.037-0.27c0.041-0.056,0.085-0.115,0.132-0.177
	C29.953,33.73,30.497,33.304,31.003,32.86z M63.097,33.799c3.052-0.03,4.144,0.379,4.145,1.552c0,0.762-0.792,2.659-1.628,3.899
	c-0.107,0.158-0.239,0.372-0.371,0.594c-0.112-0.408-0.328-0.804-0.523-1.16c-0.273-0.499-0.655-1.209-0.85-1.583
	c-1.236-2.372-1.69-3.05-1.939-3.306C62.292,33.801,62.702,33.803,63.097,33.799z M25.66,33.798c0.381,0.003,0.778,0,1.136-0.006
	c-0.225,0.226-0.383,0.488-0.511,0.741c-0.35,0.693-1.504,2.841-1.842,3.431c-0.396,0.688-0.759,1.327-0.883,1.928
	c-0.125-0.214-0.261-0.442-0.391-0.654C20.483,34.841,20.976,33.765,25.66,33.798z"/>
</svg>
