<?xml version="1.0" encoding="utf-8"?>
<!-- Generator: Adobe Illustrator 16.0.0, SVG Export Plug-In . SVG Version: 6.00 Build 0)  -->
<!DOCTYPE svg PUBLIC "-//W3C//DTD SVG 1.1//EN" "http://www.w3.org/Graphics/SVG/1.1/DTD/svg11.dtd">
<svg version="1.1" id="Layer_1" xmlns="http://www.w3.org/2000/svg" xmlns:xlink="http://www.w3.org/1999/xlink" x="0px" y="0px"
	 width="90px" height="90px" viewBox="0 0 90 90" enable-background="new 0 0 90 90" xml:space="preserve">
<g>
	<path d="M77.167,43.666L77.167,43.666c0-0.277-0.322-1.072-1.295-1.32c-1.405-0.358-3.007-0.309-4.383-0.756
		c0.642-1.096,3.514-5.222,1.252-6.033c-1.458-0.523-3.007,0.283-4.513-0.403c-1.643-0.749-2.694-2.375-3.507-3.913
		c-2.074-3.924-3.752-8.012-6.854-11.284c-1.596-1.685-3.522-3.243-5.708-4.083c-1.959-0.752-4.189,0.396-6.006-0.464
		c-1.675-0.793-2.477-2.39-4.626-2.024c-2.292,0.39-4.845,1.65-6.938,2.638c-4.396,2.074-7.707,5.844-10.387,9.806
		c-1.25,1.848-2.337,3.804-3.291,5.819c-0.711,1.502-1.049,4.571-2.779,5.31c-1.257,0.537-3.574-0.454-3.813,1.549
		c-0.203,1.71,1.058,3.582,2.061,4.856c-3.873-0.842-2.777,2.704-1.408,4.776c2.361,3.573,6.174,6.259,10.123,7.893
		c-0.913,1.255-4.51,9.044-1.717,9.825c1.908,0.534,3.998-2.937,5.312-3.87c-0.208,1.331,0.099,2.686-0.057,4.022
		c-0.161,1.393-1.155,2.431-1.897,3.557c-1.458,2.214-1.921,4.64,1.467,3.912c3.182-0.683,6.553-0.237,9.702,0.404
		c1.188,0.242,5.487,1.759,6.944,0.657c1.715,1.148,7.313-0.781,8.315-0.941c2.938-0.469,5.585-0.813,8.509-0.832
		c2.344-0.016,3.163,0.001,1.964-2.206c-0.904-1.665-2.007-3.212-3.166-4.707c-1.592-2.052-2.651-2.692-1.151-5.03
		c0.725,0.656,4.166,4.438,4.466,1.725c0.209-1.888-0.385-4.193-1.063-5.943c-0.725-1.871,1.364-2.661,2.644-3.674
		c2.623-2.075,3.968-5.166,7.344-5.981C74,46.637,76.75,46.083,77.167,43.666z M43.938,16.188c1.212,1.194,1.56,2.374,2.12,3.962
		C45.48,19.253,44.623,16.861,43.938,16.188z M16.99,46.21c0.883,0.136,1.884,0.28,2.716-0.165c0.231,3.223,3.096,5.471,5.405,7.351
		C22.254,52.038,18.852,48.778,16.99,46.21z M33.274,53.637c-0.423-2.799-0.725-5.573-0.263-8.729
		c1.801,0.765,4.323,2.04,6.296,2.101c0.279,0.009,2.995-0.246,3.033-0.107c-0.496-1.807-0.793-4.416-0.035-3.758
		c1.759,1.527,3.225,3.23,5.142,4.587c1.892,1.339,2.939,0.321,2.397-1.136c1.574,0.027,4.544-0.671,5.946-1.823
		c2.286,0.521,1.503,4.456,1.32,6.047c-0.311,2.708-0.022,5.53-0.952,8.143c-1.102,3.094-5.266,5.434-8.278,6.186
		c-6.408,1.601-12.058-3.284-14.962-8.474c-0.281-0.503-0.988-1.97-1.785-1.732c-0.909,0.338-0.153,0.988-1.379,0.314
		c-1.031-0.566-2.033-1.271-2.942-2.015c-2.134-1.742-5.961-4.273-5.912-7.39c0.014-0.878,1.398-1.104,2.035-1.148
		c0.959-0.065,1.369,0.672,1.73,1.451c1.202,2.59,3.365,4.814,5.475,6.709C31,53.633,33.692,56.403,33.274,53.637z M33.27,42.684
		c0.239-1.504,0.153-6.047,1.591-7.131c0.746-0.562,4.629,7.881,4.975,8.81C37.6,43.765,35.598,42.867,33.27,42.684z M50.031,42.516
		c1.172,0.297,2.188,0.789,2.99,1.234c-1.182,0.354-2.448,0.057-3.557,0.63C49.41,43.876,49.125,42.286,50.031,42.516z
		 M25.703,60.903c0.173-0.725,0.1-0.673,0.395-1.564c0.042-0.127,0.403-0.901,0.637-1.401c0.548-0.719,1.356-1.45,1.182-2.426
		c0.744,0.481,1.54,0.87,2.331,1.267c0.528,0.74,1.072,1.63,1.519,2.409c0.468,0.815,0.88,1.439,1.516,2.125
		c-0.639,0.581-1.446,1.304-2.029,1.94c0.113-1.455,0.876-3.898-1.33-4.44C28.225,58.396,26.844,59.89,25.703,60.903z
		 M28.714,70.981c0.887-1.455,1.463-3.088,2.461-4.479c1.135-1.582,2.81-2.696,3.947-4.287c1.087,0.984,1.133,2.899,1.778,4.153
		c0.989,1.92,2.4,4.102,3.693,5.834C36.827,71.341,32.574,70.338,28.714,70.981z M44.921,74.249c-0.459-1.22-1.504-2.243-2.12-2.99
		c-1.211-1.468-2.554-3.452-3.473-5.118c3.406,1.906,7.172,2.094,10.721,0.748c-0.799,1.439-1.719,2.813-2.759,4.089
		C46.52,71.922,45.143,72.989,44.921,74.249z M60.882,70.321c-3.888,0.216-7.768,0.813-11.553,1.724
		c1.327-1.713,2.508-3.542,3.485-5.478c-0.192,2.409,2.408-0.249,2.98-0.859c0.954-1.019,0.963-0.77,2.017,0.374
		C58.997,67.369,59.947,68.849,60.882,70.321z M62.992,51.966c-0.486,0.076-0.909,0.671-1.296,0.938
		c0.491-1.813,0.532-3.893,1.561-5.519c0.853-1.347,3.323-0.795,4.633-0.948C66.801,48.689,64.964,50.475,62.992,51.966z
		 M66.688,45.367c-2.587,0.336-4.303,0.574-5.109,3.372c-0.441,1.529-0.577,3.137-1.29,4.583c-0.985,1.997-0.42,2.825,0.129,4.872
		c-1.138-0.842-2.431-0.276-3.151,0.797c0.835-3.202,0.837-6.482,1.107-9.756c0.302-3.67-0.567-4.583-3.668-6.193
		c-1.199-0.622-5.339-3.203-6.239-1.084c-0.668,1.573-0.611,2.843-0.456,4.456c-2.533-1.558-3.77-3.259-5.83-5.363
		c-1.197-1.223-1.681-2.098-1.9-0.41c-1.391-2.141-3.364-6.942-5.827-6.225c-1.972,0.574-2.151,5.632-2.377,7.168
		c-0.543,3.695-0.632,7.461-0.157,11.169c-2.235-1.74-4.44-3.814-5.87-6.285c-1.271-2.196-2.826-3.962-5.456-2.259
		c-0.363-1.789-2.434-2.653-3.116-4.294c5.022-0.165,5.161-5.956,6.888-9.142c2.325-4.289,5.378-8.217,9.437-10.987
		c1.769-1.208,3.689-2.183,5.697-2.928c1.279-0.475,2.161-1.288,2.751,0.149c0.633,1.54,1.372,3.035,2.17,4.496
		c1.126,2.062,5.965,12.115,9.132,10.922c2.336-0.88-1.032-4.145-1.66-5.072c-1.499-2.213-2.707-4.625-3.614-7.138
		c-0.488-1.351-0.903-1.666,0.783-1.872c0.813-0.1,1.547-0.098,2.313,0.188c1.479,0.552,3.268,1.895,4.583,3.406
		c2.518,2.893,4.199,6.224,5.896,9.607c1.698,3.386,4.16,6.783,8.344,6.732c-1.437,2.749-3.365,5.473,2.469,5.856
		C71.051,44.571,68.347,45.166,66.688,45.367z"/>
</g>
</svg>
