<?xml version="1.0" encoding="utf-8"?>
<!-- Generator: Adobe Illustrator 16.0.0, SVG Export Plug-In . SVG Version: 6.00 Build 0)  -->
<!DOCTYPE svg PUBLIC "-//W3C//DTD SVG 1.1//EN" "http://www.w3.org/Graphics/SVG/1.1/DTD/svg11.dtd">
<svg version="1.1" id="Layer_1" xmlns="http://www.w3.org/2000/svg" xmlns:xlink="http://www.w3.org/1999/xlink" x="0px" y="0px"
	 width="90px" height="90px" viewBox="0 0 90 90" enable-background="new 0 0 90 90" xml:space="preserve">
<g>
	<path d="M63.688,18.688c-1.302,3.606-2.514,5.813-3.219,9.125c-0.368,1.732,0.021,3.111,0.968,4.568
		c0.161,0.248,1.496,3.019,1.725,3.019c1.058,0,1.259-8.815,1.281-9.815c0.037-1.723,0.038-3.452-0.063-5.173
		C64.369,20.247,63.893,18.119,63.688,18.688z"/>
	<path d="M78.479,51.021c-1.046-0.347-0.91-1.498-2.22-1.698c-1.131-0.172-2.174-0.167-3.215-0.713
		c-2.729-1.43-4.378-4.833-5.561-7.485c-1.138-2.552-0.165-3.47,0.347-6.188c0.743-3.939,1.078-7.999,0.653-11.994
		c-0.367-3.462-1.352-5.562-2.424-8.797c-0.438-1.305-2.249-1.759-3.373-1.146c-1.238,0.675-1.77,1.932-2.458,3.084
		c-1.448,2.426-3.849,4.014-6.195,5.479c-0.294,0.184-2.184,1.753-2.563,1.355c-1.169-1.226-2.067-2.916-3.103-4.268
		c-1.221-1.596-2.042-4.779-4.694-3.704c-1.363,0.552-2.979,4.069-3.887,5.225c-0.246,0.314-1.909,3.015-2.207,2.897
		c-1.216-0.478-2.454-1.51-3.534-2.222c-2.426-1.596-4.576-3.394-5.769-6.094c-0.903-2.045-3.804-3.346-5.278-0.003
		c-1.37,3.106-2.011,5.457-2.295,8.85c-0.284,3.385-0.019,6.78,0.546,10.131c0.259,1.537,0.76,2.99,1.277,4.463
		c0.428,1.222-0.697,2.772-1.194,3.828c-1.909,4.051-3.73,6.855-8.188,7.544c-0.768,0.119-1.322,0.509-1.662,1.231
		c-0.367,0.781-1.593,0.378-2.025,1.248c-1.161,2.331,0.901,2.586,2.542,3.5c4.375,2.438,8.635,5.223,12.258,8.513
		c3.839,3.484,7.125,8.073,11.924,10.317c4.779,2.234,10.704,2.361,15.631,0.508c3.77-1.418,6.437-4.206,9.224-7.006
		c3.801-3.819,7.842-7.657,12.588-10.289c1.679-0.931,3.128-1.289,4.868-2.052C80.133,54.818,80.14,51.575,78.479,51.021z
		 M23.011,59.861c-0.922-0.8-10.98-6.819-11.033-6.666c1.351-0.648,2.266-0.207,2.432-0.467c-0.058-0.17-0.802-0.726-0.584-0.941
		c0.404-0.401,1.607-0.306,2.17-0.461c1.44-0.397,2.667-1.271,3.67-2.362c2.197-2.389,4.842-6.661,5.31-9.902
		c0.15-1.046-0.641-2.393-0.884-3.383c-0.542-2.196-0.839-4.453-0.954-6.712c-0.211-4.149,0.065-8.637,1.696-12.51
		c0.832-1.978,0.957-1.488,1.822,0.21c0.802,1.575,1.977,2.897,3.315,4.038c0.84,0.714,8.623,5.213,7.934,6.297
		c-1.959,2.236-0.811,7.749-0.155,10.266c1.081,4.156,2.478,7.794,2.267,12.16c-1.847-2.116-3.46-4.434-5.027-6.759
		c-0.808-1.199-1.521-2.445-2.207-3.719c-0.555-1.03-1.576-4.763-3.027-4.763c-1.41,0-2.176,2.28-2.601,3.304
		c-0.911,2.195-1.147,4.781-0.047,6.962c1.959,3.885,8.021,7.051,12.148,7.771C35.749,56.76,21.838,51.387,23.011,59.861z
		 M37.65,49.715c-2.814-0.997-5.431-2.69-7.585-4.748c-2.346-2.241-1.88-5.298-0.481-7.959C31.615,41.61,34.513,45.804,37.65,49.715
		z M61.444,62.537c-3.999,3.787-7.477,8.598-13.17,9.715c-6.699,1.314-11.649-1.151-16.206-5.7
		c-2.075-2.071-3.668-3.591-5.805-5.596c-1.683-1.58-0.792-3.704,1.205-4.019c4.388-0.69,12.193,0.753,14.125-4.902
		c2.042-5.976-1.596-11.907-2.392-17.668c-0.846-6.124,2.109-9.74,5.587-14.422c3.047,4.213,5.984,7.658,5.636,13.081
		c-0.374,5.829-3.432,10.927-2.946,16.934c0.421,5.237,3.313,6.29,8.938,6.79c1.722,0.153,6.657,0.333,7.375,1.708
		C64.888,60.558,62.727,61.322,61.444,62.537z M76.157,54.004c-3.495,1.32-6.854,3.438-9.69,5.857
		c0.554-8.403-13.966-2.583-16.633-8.319c0.595-0.118,1.695-0.138,2.197-0.511c-1.204,4.094,5.762,1.524,7.666,0.701
		c3.865-1.67,3.896-1.826,4.553-4.232c0.19-0.698,1.594-5.813-1.027-5.565c0.169-2.396-2.817-10.944-5.041-6.07
		c-2.252,4.936-5.319,9.317-8.74,13.502c-0.255-4.223,1.612-7.506,2.435-11.533c0.559-2.766,1.692-7.712,0.085-10.374
		c-0.792-1.311,0.365-1.856,1.587-2.672c1.901-1.271,3.89-2.389,5.66-3.849c1.076-0.887,2.053-1.89,2.825-3.056
		c0.333-0.503,1.647-3.763,2.085-2.578c2.662,7.202,3.144,15.275,0.562,22.637c-0.959,2.724,2.573,7.763,4.181,9.922
		c0.872,1.171,1.92,2.249,3.223,2.937c0.604,0.319,3.315,0.593,3.558,0.993c0.17,0.282-0.826,0.848-0.586,1.028
		c0.346,0.26,2.435-0.104,2.48,0.421C77.563,53.571,76.227,53.978,76.157,54.004z M56.896,42.521
		c1.092-1.762,1.995-3.365,2.848-5.256c0.6,1.058,0.957,2.019,1.09,3.234C60.738,41.192,57.697,42.046,56.896,42.521z"/>
	<path d="M26.871,34.42c1.288-2.608,2.731-3.854,2.046-6.773c-0.415-1.771-1.069-2.86-1.646-4.583
		c-0.356-1.063-1.001-3.843-1.867-4.572c-0.074-0.063-0.412,2.528-0.421,2.725c-0.075,1.654-0.05,3.313,0.02,4.968
		c0.074,1.742,0.201,3.484,0.414,5.216c0.082,0.671,0.185,3.667,0.815,3.987C26.441,35.493,26.886,34.39,26.871,34.42z"/>
	<path d="M49.953,57.572c-1.545-0.822-3.558,0.339-5.181,0.339c-1.97,0-5.166-1.939-5.967,1.021
		c-0.723,2.668,3.093,5.294,5.21,6.097c2.254,0.855,5.586-2.35,6.594-4.088C51.224,59.884,51.156,58.212,49.953,57.572z
		 M46.405,62.349c-1.662,1.188-2.377,0.588-3.898-0.613c-0.729-0.575-3.087-2.908-0.733-2.293c2.619,0.688,4.469-0.127,7.023-0.127
		C49.688,59.315,46.682,62.151,46.405,62.349z"/>
</g>
</svg>
