<?xml version="1.0" encoding="utf-8"?>
<!-- Generator: Adobe Illustrator 16.0.0, SVG Export Plug-In . SVG Version: 6.00 Build 0)  -->
<!DOCTYPE svg PUBLIC "-//W3C//DTD SVG 1.1//EN" "http://www.w3.org/Graphics/SVG/1.1/DTD/svg11.dtd">
<svg version="1.1" id="Layer_1" xmlns="http://www.w3.org/2000/svg" xmlns:xlink="http://www.w3.org/1999/xlink" x="0px" y="0px"
	 width="90px" height="90px" viewBox="0 0 90 90" enable-background="new 0 0 90 90" xml:space="preserve">
<path d="M75.308,39.537c-0.157-0.774-0.157-0.774-0.076-1.017c0.404-1.203,0.014-5.335-0.583-7.661
	c-0.878-3.423-2.473-6.039-6.562-10.766c-0.407-0.471-0.947-1.146-1.18-1.474c-4.322-6.107-10.227-9.156-19.145-9.886
	c-1.846-0.151-3.176-0.186-4.435-0.115c-5.093,0.283-10.71,2.302-15.028,5.401c-4.502,3.232-7.713,8.25-9.816,15.34
	c-0.167,0.563-0.495,1.463-0.715,1.967c-1.979,4.504-3.137,8.822-3.441,12.833c-0.287,3.788,0.362,6.896,1.982,9.501
	c1.195,1.921,3.254,3.79,4.688,4.254l0.272,0.089l0.463,0.726c0.939,1.472,1.795,2.548,3.157,3.966
	c1.175,1.225,1.45,2.183-0.16,4.315c-1.023,1.355-1.233,2.639-0.641,3.922c-0.004,0.009-0.009,0.02-0.015,0.029
	c-0.603,1.219-0.414,2.683,0.47,3.642c0.577,0.626,0.937,0.743,2.751,1.26c6.939,1.976,9.294,2.841,14,5.141l0.137,0.067
	c2.578,1.26,2.628,1.284,3.341,1.331l0.031,0.002c0.105,0.008,0.203,0.011,0.298,0.011l0,0c0.714,0,1.233-0.219,2.972-1.082
	c4.997-2.484,7.441-3.397,14.526-5.429c1.954-0.56,2.224-0.649,2.735-1.111c1.064-0.962,1.287-2.841,0.485-4.105l-0.071-0.111
	l0.048-0.189c0.274-1.094,0.068-2.164-0.58-3.015c-2-2.623-2.006-3.644-0.034-5.748c1.507-1.609,3.198-3.89,4.112-5.546
	c0.037-0.065,0.079-0.142,0.112-0.2c0.011-0.001,0.023-0.002,0.037-0.003c1.147-0.137,2.229-1.007,3.619-2.914
	C75.496,49.62,76.335,44.602,75.308,39.537z M70.527,43.448c-0.139-0.314-0.372-0.841-0.906-0.841c-0.792,0-0.845,0.882-0.911,1.999
	c-0.171,2.9-0.754,5.424-1.861,7.836c0.34-1.341,0.438-2.839,0.277-4.469c-0.062-0.632-0.191-1.944-1.124-1.944
	c-0.637,0-1.063,0.604-1.573,2.231c-0.614,1.959-2.039,4.444-3.581,6.293c0.012-0.038,0.024-0.075,0.037-0.112
	c0.15-0.45,0.337-1.193,0.425-1.69c0.081-0.462,0.235-1.322,0.343-1.914c0.25-1.374,0.356-4.624,0.187-5.701
	c-0.577-3.655-1.603-6.235-3.787-9.519c-0.915-1.376-1.311-1.935-1.931-1.935c-0.795,0-0.973,0.945-1.049,1.35
	c-0.112,0.598-0.205,1.52-0.315,2.663c-0.15,1.559-0.371,3.235-0.513,3.901c-0.161,0.749-0.314,1.739-0.162,2.288
	c-0.002,0.004-0.004,0.007-0.007,0.011c-0.184,0.289-0.377,0.97-0.462,1.327l-0.03,0.125c-0.021,0.091-0.043,0.184-0.065,0.271
	c-0.035-0.025-0.071-0.051-0.105-0.077l-0.092-0.067c-0.798-0.581-1.212-0.883-1.743-0.945c-0.041-0.439-0.38-0.756-0.547-0.912
	c-1.952-1.823-2.866-2.714-3.153-3.075c-0.281-0.353-0.668-0.758-1.172-0.758c-0.254,0-0.492,0.108-0.669,0.303
	c-0.374,0.413-0.568,1.285-0.304,4.125c-0.125-0.107-0.247-0.213-0.349-0.301c-3.119-2.706-6.684-6.938-8.667-10.294
	c-0.25-0.422-0.591-1-1.216-1c-0.361,0-0.642,0.206-0.847,0.386c-0.275,0.241-0.637,0.843-0.791,1.128
	c-0.911,1.692-1.203,2.251-1.422,2.72c-0.119,0.252-0.299,0.619-0.395,0.8c-0.113,0.214-0.29,0.616-0.402,0.915
	c-0.094,0.25-0.248,0.608-0.335,0.781c-0.115,0.225-0.285,0.67-0.387,1.012c-0.087,0.288-0.27,0.816-0.399,1.153
	c-0.134,0.348-0.297,0.9-0.336,1.236c-0.021,0.191-0.093,0.466-0.139,0.575c-1.097,2.577-1.118,7.675-0.103,11.541
	c-1.222-1.332-2.921-3.484-3.666-4.876c-0.116-0.217-0.263-0.484-0.354-0.621c-0.056-0.105-0.28-0.579-0.583-1.254
	c-0.677-1.507-0.818-1.819-1.413-1.819c-0.048,0-0.099,0.004-0.154,0.012c-1.012,0.144-1.011,1.149-1.009,3.155
	c0.001,1.415,0.093,2.501,0.329,3.436c-0.862-2.199-1.407-4.596-1.637-7.219c-0.033-0.379-0.111-1.266-0.855-1.266
	c-0.647,0-0.899,0.688-1.137,1.958c-0.333,1.776-0.289,3.585,0.104,5.204c-1.747-2.819-1.992-6.726-0.724-11.647
	c0.148-0.575,0.317-1.241,0.375-1.479c0.178-0.722,1.11-3.344,1.635-4.599c0.537-1.281,0.942-2.37,1.242-3.326
	c2.113-6.767,4.899-11.019,9.033-13.786c4.186-2.803,9.069-4.347,13.75-4.347c0.484,0,0.971,0.018,1.444,0.051
	c8.786,0.631,13.45,2.946,17.823,8.847c0.43,0.58,1.007,1.311,1.284,1.629C69.001,27,70.74,29.98,71.289,33.149
	c-0.557-1.092-1.176-2.069-1.719-2.693c-0.223-0.255-0.451-0.485-0.791-0.485c-0.232,0-0.446,0.117-0.572,0.312
	c-0.237,0.37-0.152,0.7,0.605,2.357c0.225,0.493,0.509,1.149,0.619,1.435c0.009,0.025,0.235,0.609,0.371,0.815
	c0.167,0.295,1.074,2.777,1.38,3.869c1.015,3.624,0.953,7.198-0.075,9.846C71.312,46.758,71.117,44.781,70.527,43.448z
	 M61.378,68.609c-0.477-0.096-1.113-0.264-1.717-0.429c-0.388-0.105-0.62-0.16-0.813-0.16c-0.094,0-0.174,0.016-0.246,0.037
	c-0.009-0.011-0.021-0.023-0.03-0.033c-0.418-0.507-1.303-1.22-1.958-1.22c-0.345,0-0.632,0.19-0.749,0.495
	c-0.152,0.397-0.021,0.843,1.105,2.059c0.69,0.743,1.527,1.517,2.238,2.066c0.195,0.151,0.435,0.337,0.648,0.509
	c-0.154,0.042-0.321,0.1-0.446,0.163c-0.039,0.02-0.185,0.066-0.296,0.086c-0.222,0.037-0.636,0.154-0.912,0.245
	c-0.281,0.094-1.089,0.343-1.801,0.554c-3.198,0.95-6.464,2.283-10.277,4.198c-0.494,0.248-0.885,0.438-1.072,0.525
	c-0.122-0.047-0.349-0.15-0.674-0.312c-0.833-0.411-3.048-1.467-4.086-1.948c-0.657-0.305-2.28-0.971-3.277-1.345
	c-1.114-0.419-1.81-0.65-3.237-1.078c-0.756-0.227-1.628-0.5-1.905-0.596c-0.298-0.104-0.97-0.303-1.51-0.446
	c-0.052-0.014-0.104-0.027-0.156-0.042c0.866-0.699,2.95-2.583,3.402-3.086c0.349-0.389,0.72-0.899,0.495-1.406
	c-0.128-0.287-0.407-0.458-0.745-0.458c-0.619,0-1.424,0.589-1.954,1.12c-0.089-0.031-0.187-0.053-0.298-0.053
	c-0.176,0-0.382,0.044-0.648,0.137c-0.37,0.131-1.481,0.348-2.167,0.436c1.353-2.146,1.69-3.765,1.168-5.564
	c-0.373-1.288-0.693-1.803-2.014-3.235c-1.307-1.42-2.397-2.948-3.28-4.599c0.231,0.332,0.495,0.666,0.798,1.013
	c0.669,0.765,2.598,2.253,3.569,2.398c0.039,0.046,0.094,0.132,0.132,0.247c0.995,3.109,3.021,6.174,5.557,8.407
	c0.881,0.775,5.537,3.708,6.825,4.299c1.54,0.707,2.828,1.178,4.114,1.178c1.722,0,3.306-0.802,5.805-2.378
	c3.728-2.352,5.696-4.044,7.523-6.465c0.923-1.224,1.487-2.197,2.411-4.164c0.2-0.426,0.42-0.89,0.49-1.036
	c0.075-0.08,0.549-0.316,0.728-0.405c0.669-0.332,1.273-0.726,1.814-1.174c-0.505,0.649-1.055,1.304-1.652,1.967
	C59.36,62.361,59.088,65.203,61.378,68.609z M32.331,57.95c0.266-0.388,0.145-0.876-0.248-1.892
	c-1.397-3.615-1.644-8.365-0.614-11.821c0.005-0.015,0.009-0.031,0.014-0.045c0.42,0.078,1.308,0.351,2.637,0.759l0.659,0.202
	c3.315,1.016,3.719,1.133,4.316,1.258c0.438,0.09,0.859,0.137,1.22,0.137c0.262,0,1.058,0,1.302-0.587
	c0.126-0.306,0.045-0.645-0.218-0.909c-0.768-0.767-6.491-2.125-8.66-2.368c-0.336-0.038-0.622-0.069-0.827-0.096
	c0.104-0.348,0.318-0.948,0.499-1.457c0.795-2.237,2.295-5.266,3.034-6.43c0.191,0.286,0.453,0.68,0.74,1.111
	c2.69,4.044,6.627,8.384,9.361,10.32c0.431,0.306,0.745,0.482,1.076,0.482h0c0.239,0,0.457-0.097,0.613-0.271
	c0.287-0.319,0.294-0.766,0.205-1.587c-0.12-1.087-0.171-1.912-0.187-2.492c0.133,0.127,0.279,0.269,0.436,0.424
	c0.659,0.649,1.391,1.355,1.752,1.691c-1.017,0.344-1.757,0.688-1.655,1.396c0.035,0.244,0.216,0.809,1.136,0.809
	c0.36,0,0.875-0.071,1.781-0.248l0.079-0.016c0.303-0.059,0.522-0.102,0.647-0.102c0.118,0,0.21,0.057,0.761,0.471l0.071,0.053
	c0.77,0.577,1.194,0.896,1.666,0.896c0.86,0,1.034-0.829,1.298-2.084l0.039-0.19c0.029-0.147,0.066-0.332,0.09-0.37
	c0.109-0.112,0.784-0.3,1.637-0.54l0.443-0.124c0.635-0.178,1.425-0.4,1.33-1.09c-0.059-0.424-0.404-0.64-1.025-0.64
	c-0.284,0-0.667,0.031-1.138,0.091l-0.179,0.023c-0.283,0.037-0.525,0.068-0.71,0.084c0.021-0.124,0.05-0.267,0.076-0.401
	l0.029-0.146c0.169-0.868,0.32-2.014,0.671-5.111c0.027-0.235,0.059-0.515,0.092-0.783c4.111,5.988,4.709,11.276,2.236,19.315
	c-0.309,1.003-0.405,1.548-0.12,1.935c0.146,0.198,0.373,0.312,0.622,0.312c0.449,0,0.906-0.338,2.035-1.506
	c1.676-1.734,3.138-3.972,4.144-6.313c-0.097,2.265-0.561,3.567-1.746,4.937c-0.725,0.837-1.571,1.47-2.518,1.882l-0.044,0.019
	c-0.984,0.429-1.064,0.604-1.689,1.959l-0.035,0.075c-2.075,4.5-4.288,6.797-9.866,10.24c-1.846,1.14-3.174,1.799-4.499,1.799
	c-1.562,0-3.323-0.886-6.229-2.631c-4.822-2.896-6.377-4.623-8.32-9.243c-0.583-1.385-0.855-2.033-1.524-2.077
	c-0.213-0.055-0.996-0.396-1.254-0.573c-2.357-1.607-3.305-3.422-3.393-6.584c1.441,2.762,3.613,5.541,5.878,7.507
	c0.764,0.663,1.103,0.865,1.454,0.865C31.964,58.273,32.19,58.155,32.331,57.95z"/>
</svg>
