<?xml version="1.0" encoding="utf-8"?>
<!-- Generator: Adobe Illustrator 16.0.0, SVG Export Plug-In . SVG Version: 6.00 Build 0)  -->
<!DOCTYPE svg PUBLIC "-//W3C//DTD SVG 1.1//EN" "http://www.w3.org/Graphics/SVG/1.1/DTD/svg11.dtd">
<svg version="1.1" id="Layer_1" xmlns="http://www.w3.org/2000/svg" xmlns:xlink="http://www.w3.org/1999/xlink" x="0px" y="0px"
	 width="90px" height="90px" viewBox="0 0 90 90" enable-background="new 0 0 90 90" xml:space="preserve">
<g>
	<path d="M19.167,45c0,0.515-0.023,4,0.47,4c0.664,0,1.327,0,1.99,0c2.029,0,4.058,0,6.086,0C28.587,49,29,49.313,29,48.435
		c0-1.289,0-2.578,0-3.866c0-6.614,0-13.229,0-19.843C22.839,29.595,19.167,37.144,19.167,45z"/>
	<path d="M70.29,39.702c-1.244-5.967-4.645-11.379-9.456-15.116C56.325,21.084,50.708,19.167,45,19.167c-1.408,0-4-0.647-4,1.136
		c0,1.403,0,2.806,0,4.208c0,4.341,0,8.682,0,13.023c0,3.476,0,6.952,0,10.428C41,49.726,42.456,49,44.07,49
		c8.02,0,16.039,0,24.058,0c0.78,0,1.561,0,2.342,0C71.396,49,70.493,40.677,70.29,39.702z"/>
	<path d="M26.209,54c-1.81,0-3.619,0-5.429,0c1.644,4.42,4.523,8.34,8.22,11.263c0-3.583,0-7.166,0-10.749
		C29,53.47,27.054,54,26.209,54z"/>
	<path d="M41.015,54C40.984,54,41,57.575,41,57.803c0,4.24,0,8.48,0,12.72C52.999,72.392,64.987,65.386,69.22,54
		c-8.332,0-16.663,0-24.994,0C43.155,54,42.085,54,41.015,54z"/>
	<path d="M45,5.917c-21.528,0-38.98,17.452-38.98,38.98c0,21.528,17.452,38.979,38.98,38.979s38.98-17.452,38.98-38.979
		C83.98,23.369,66.528,5.917,45,5.917z M45,73.672c-15.867,0-28.775-12.908-28.775-28.775S29.133,16.122,45,16.122
		S73.775,29.03,73.775,44.897S60.867,73.672,45,73.672z"/>
</g>
</svg>
