<?xml version="1.0" encoding="utf-8"?>
<!-- Generator: Adobe Illustrator 16.0.0, SVG Export Plug-In . SVG Version: 6.00 Build 0)  -->
<!DOCTYPE svg PUBLIC "-//W3C//DTD SVG 1.1//EN" "http://www.w3.org/Graphics/SVG/1.1/DTD/svg11.dtd">
<svg version="1.1" id="Layer_1" xmlns="http://www.w3.org/2000/svg" xmlns:xlink="http://www.w3.org/1999/xlink" x="0px" y="0px"
	 width="90px" height="90px" viewBox="0 0 90 90" enable-background="new 0 0 90 90" xml:space="preserve">
<path d="M69.647,28.758c-1.217-2.675-3.167-3.074-4.222-3.075c-1.181,0-2.17,0.475-3.004,0.92c-0.434,0.231-1.815,0.899-3.277,1.607
	c-0.627,0.304-1.273,0.617-1.911,0.926c0.362-0.788,0.709-1.563,1.051-2.328c0.423-0.945,0.838-1.874,1.265-2.785
	c1.056-2.251,2.65-5.653-1.624-7.79l-0.322-0.165c-0.737-0.381-1.654-0.854-2.847-0.854c-2.05,0-3.432,1.361-4.406,2.547
	c-1.307,1.589-3.503,4.456-5.44,6.985c-1.461,1.907-2.841,3.708-3.576,4.618c-1.484,1.838-4.063,4.292-6.115,5.425
	c-2.687,1.482-6.446,3.886-7.173,4.353c-2.343,1.506-3.422,3.962-3.206,7.301c0.039,0.599,0.128,1.153,0.207,1.642
	c0.069,0.428,0.172,1.063,0.137,1.299c-0.08,0.086-0.463,0.436-1.715,0.854c-0.646,0.215-1.337,0.431-1.989,0.634
	c-0.611,0.19-1.191,0.371-1.677,0.532l-0.09,0.03c-1.856,0.613-3.609,1.707-3.872,5.527c-0.02,0.293-0.09,0.624-0.171,1.008
	c-0.549,2.596-0.706,5.594,4.412,8.342c0.822,0.441,1.492,0.872,2.14,1.289c1.49,0.958,3.031,1.949,5.146,1.949
	c1.801,0,3.67-0.704,6.249-2.354c3.503-2.24,4.351-2.24,4.669-2.24l0.21,0.002l0.234,0.002c0.075,0.07,0.26,0.28,0.478,0.78
	c0.135,0.311,0.263,0.597,0.383,0.864c0.578,1.294,0.745,1.694,0.743,2.305c-0.005,1.545-0.011,3.297,1.3,4.612
	c0.79,0.793,1.853,1.195,3.156,1.195c0.496,0,1.042-0.053,1.771-0.17c2.449-0.395,10.396-2.016,13.778-3.332
	c5.805-2.258,5.181-6.382,3.987-9.722l-0.108-0.303c-1.038-2.903-1.038-2.903-0.967-6.885c0.015-0.835,0.14-1.621,0.271-2.453
	c0.555-3.492,0.66-6.625-2.951-11.118c1.423-1.105,2.721-2.131,3.846-3.02c1.463-1.157,2.619-2.07,3.258-2.531
	c0.185-0.134,0.35-0.245,0.494-0.343C70.859,33.01,70.706,31.085,69.647,28.758z M65.917,32.75c-1.5,1.083-5.25,4.167-9.75,7.583
	c6.834,6.833,4.166,9.25,4.083,13.917s0,4.75,1.25,8.25s0.75,4.75-2.25,5.917s-10.583,2.75-13.167,3.166
	c-0.524,0.084-0.949,0.132-1.294,0.132c-1.354,0-1.463-0.729-1.456-2.798c0.005-1.521-0.542-2.459-1.375-4.375s-2-2.583-3.166-2.583
	c-0.169,0-0.334-0.005-0.507-0.005c-1.024,0-2.329,0.183-6.285,2.713c-2.117,1.354-3.492,1.882-4.633,1.882
	c-1.58,0-2.719-1.015-4.75-2.242L41.76,55.52c1.384-0.692,1.762-1.351,2.055-2.021l0.08-0.177l-0.789-0.895
	c-0.044,0.088-0.084,0.178-0.124,0.27c-0.148,0.34-0.266,0.608-1.052,1.004l-21.887,9.057c-2.63-1.953-1.354-3.489-1.21-5.591
	c0.166-2.416,0.917-2.584,1.917-2.917s2.417-0.75,3.667-1.167c5.154-1.72,3.583-4.25,3.416-6.833s0.667-3.833,1.834-4.583
	s4.583-2.917,7-4.25s5.25-4,7-6.167s6.749-8.846,9-11.583c0.892-1.084,1.503-1.452,2.089-1.452c0.559,0,1.094,0.335,1.827,0.702
	c1.5,0.75,1.5,1.167,0.25,3.833s-2.4,5.48-3.916,8.417c-1.094,2.118-0.949,3.343-0.029,3.343c0.276,0,0.624-0.111,1.029-0.343
	c1.75-1,8.666-4.25,9.916-4.917c0.582-0.311,1.11-0.567,1.593-0.567c0.553,0,1.046,0.337,1.491,1.317
	C67.751,31.833,67.417,31.667,65.917,32.75z"/>
</svg>
