<?xml version="1.0" encoding="utf-8"?>
<!-- Generator: Adobe Illustrator 16.0.0, SVG Export Plug-In . SVG Version: 6.00 Build 0)  -->
<!DOCTYPE svg PUBLIC "-//W3C//DTD SVG 1.1//EN" "http://www.w3.org/Graphics/SVG/1.1/DTD/svg11.dtd">
<svg version="1.1" id="Layer_1" xmlns="http://www.w3.org/2000/svg" xmlns:xlink="http://www.w3.org/1999/xlink" x="0px" y="0px"
	 width="90px" height="90px" viewBox="0 0 90 90" enable-background="new 0 0 90 90" xml:space="preserve">
<g>
	<path d="M66.667,49.211c-0.422,0.422-3.297,3.486-3.752,3.324c-0.956-0.34-1.762-2.269-2.276-3.06
		c-1.92-2.952-7.022-6.99-10.807-6.659c2.289-0.643,3.978-7.051,1.458-8.335c-2.656-1.354-4.408,6.332-2.884,7.881
		c-0.577-0.527-2.223-0.28-2.896-0.081c2.351-1.078,2.435-7.913,0.049-8.992c-3.236-1.463-4.432,7.764-1.28,9.033
		c-1.073-0.224-2.242-0.129-3.254,0.297c2.643-1.509,0.625-7.277-1.809-8.085c-2.754-0.915-2.304,7.543,0.731,8.253
		c-1.322-0.256-3.531,1.021-4.617,1.591c-2.235,1.174-4.205,2.763-5.849,4.677c-0.671,0.78-1.455,3.764-2.938,3.018
		c-1.159-0.583-1.998-1.865-3.084-2.59c-1.771-1.182-1.188,1.06-0.901,2.149c0.64,2.43,0.516,4.981,1.237,7.413
		c0.288,0.969,0.669,1.992,1.363,2.751c0.77,0.841,1.929,0.097,2.735,0.961c0.622,0.668,0.837,1.592,1.381,2.311
		c0.923,1.222,2.004,2.328,3.214,3.267c7.59,5.892,19.596,5.161,26.476-1.38c1.295-1.231,2.284-4.027,4.057-4.538
		c2.622-0.755,3.107-3.121,3.538-5.613c0.327-1.892,0.599-3.79,0.93-5.68C67.601,50.494,67.972,48.077,66.667,49.211
		C66.667,49.212,68.477,47.638,66.667,49.211z"/>
	<path d="M50.932,29.606c-1.446-0.209-1.45-0.29-0.551-1.395c0.667-0.82,1.525-1.882,2.542-2.285c0.413-0.164,1.679,2.233,2.02,2.61
		c0.956,1.057,2.158,1.875,3.485,2.391c4.873,1.893,10.657-0.458,12.449-5.45c2.115-5.892-1.857-12.425-8.199-12.873
		c-3.212-0.227-6.375,1.185-8.318,3.766c-1.769,1.445-4.75,1.504-6.865,2.926c-2.561,1.722-4.563,4.232-5.727,7.085
		c-0.239,0.586-0.569,3.066-1.287,3.068c-1.498,0.003-3.025,0.375-4.476,0.711c-6.081,1.41-11.971,3.954-16.503,8.35
		c-7.387,7.167-8.905,18.198-2.835,26.702c11.424,16.003,38.839,16.513,52.959,4.076c6.66-5.866,9.604-15.133,5.963-23.49
		C71.396,36.173,60.835,31.031,50.932,29.606C50.26,29.509,69.212,32.237,50.932,29.606z M55.209,18.978
		c1.512-1.089,2.038-2.817,3.932-3.622c1.764-0.75,4.016-0.807,5.771-0.004c3.874,1.77,5.692,6.753,3.408,10.474
		C63.544,33.604,52.144,27.352,55.209,18.978C55.382,18.854,54.639,20.536,55.209,18.978z M63.477,70.887
		c-8.563,4.926-19.203,5.89-28.681,3.355c-8.402-2.246-16.943-7.76-19.249-16.64c-2.558-9.85,4.78-18.534,13.161-22.6
		c2.475-1.201,5.102-2.083,7.79-2.662c2.014-0.433,6.12,0.214,6.538-2.17c0.929-5.312,5.011-9.926,10.414-10.887
		c-0.102,0.371-0.478,4.172-0.389,4.146c-1.697,0.57-3.175,1.699-4.262,3.111c-0.922,1.2-1.632,2.668-1.877,4.171
		c-0.215,1.324,2.046,0.894,2.873,0.992c7.148,0.851,14.581,3.816,19.64,9.055C79.06,50.726,74.683,64.44,63.477,70.887
		C45.791,81.06,79.42,61.715,63.477,70.887z"/>
</g>
</svg>
