<?xml version="1.0" encoding="utf-8"?>
<!-- Generator: Adobe Illustrator 16.0.0, SVG Export Plug-In . SVG Version: 6.00 Build 0)  -->
<!DOCTYPE svg PUBLIC "-//W3C//DTD SVG 1.1//EN" "http://www.w3.org/Graphics/SVG/1.1/DTD/svg11.dtd">
<svg version="1.1" id="Layer_1" xmlns="http://www.w3.org/2000/svg" xmlns:xlink="http://www.w3.org/1999/xlink" x="0px" y="0px"
	 width="89.984px" height="89.994px" viewBox="0 0 89.984 89.994" enable-background="new 0 0 89.984 89.994" xml:space="preserve">
<g>
	<path d="M41.473,16.942c2.278,0,4.523,1.483,4.523,3.71l-0.019,24.402h-5.162l-0.037-19.99c0,0-3.665,11.603-5.021,15.908
		c-0.594,1.882-1.626,3.829-3.647,3.829c-0.008,0-0.015,0-0.022,0v0.014c-0.007,0-0.014,0-0.022,0c-2.021,0-3.054-1.934-3.647-3.815
		c-1.356-4.305-5.021-15.88-5.021-15.88l-0.038,20.047h-5.162l-0.019-24.458c0-2.238,2.27-3.744,4.559-3.743
		c1.84,0,3.692,0.97,4.396,3.312c1.829,6.098,4.955,15.298,4.955,15.298s3.126-9.2,4.956-15.298
		C37.75,17.921,39.621,16.942,41.473,16.942 M41.473,14.915c-3.046,0-5.487,1.831-6.372,4.779c-0.864,2.882-2.031,6.495-3.014,9.478
		c-0.981-2.982-2.149-6.596-3.013-9.478c-0.881-2.934-3.309-4.756-6.337-4.756c-1.579,0-3.174,0.529-4.374,1.452
		c-1.428,1.097-2.213,2.63-2.213,4.318l0.02,24.46l0.001,2.026h2.025h5.162h2.024l0.003-2.023l0.013-6.999
		c0.427,1.349,0.806,2.55,1.085,3.437c0.436,1.382,0.975,2.455,1.65,3.285c1.037,1.274,2.397,1.948,3.931,1.948h0.037l2.013-0.014
		V46.4c0.721-0.328,1.371-0.843,1.93-1.531c0.672-0.83,1.211-1.905,1.646-3.288c0.279-0.887,0.659-2.089,1.085-3.439l0.013,6.917
		l0.004,2.023h2.023h5.162h2.026l0.001-2.025l0.02-24.402c0-1.685-0.782-3.212-2.202-4.301
		C44.613,15.426,43.068,14.915,41.473,14.915L41.473,14.915z"/>
	<path d="M65.574,14.914c1.79,0,3.24,1.451,3.24,3.24c0,1.791-1.45,3.241-3.24,3.241s-3.241-1.45-3.241-3.241
		C62.333,16.365,63.784,14.914,65.574,14.914 M65.574,12.887c-2.904,0-5.268,2.363-5.268,5.268c0,2.905,2.363,5.269,5.268,5.269
		s5.269-2.363,5.269-5.269C70.843,15.25,68.479,12.887,65.574,12.887L65.574,12.887z"/>
	<path d="M54.312,14.914c1.79,0,3.241,1.451,3.241,3.24c0,1.791-1.451,3.241-3.241,3.241s-3.24-1.45-3.24-3.241
		C51.071,16.365,52.521,14.914,54.312,14.914 M54.312,12.887c-2.904,0-5.269,2.363-5.269,5.268c0,2.905,2.364,5.269,5.269,5.269
		c2.905,0,5.268-2.363,5.268-5.269C59.579,15.25,57.217,12.887,54.312,12.887L54.312,12.887z"/>
	<path d="M56.984,26v19h-5V26H56.984 M58.984,24h-1.97h-5.293h-1.737v2.303v18.696V47h1.737h5.293h1.97v-2.001V26.303V24L58.984,24z
		"/>
	<path d="M67.984,26v19h-5V26H67.984 M69.984,24h-1.706h-5.294h-2v2.303v18.696V47h2h5.294h1.706v-2.001V26.303V24L69.984,24z"/>
</g>
<path d="M48.926,48.937c-1.204-1.077-2.824-1.949-5.104-2.762c-0.114-0.041-11.543-3.918-17.873,10.569
	c-2.114,4.838-2.35,9.341-0.7,13.384c2.431,5.952,8.021,8.595,9.676,9.263c5.284,2.134,8.706,2.672,15.349,0.29
	c1.146,0.922,2.908,1.39,4.397,1.786l0.339,0.091c1.212,0.326,3.543,0.192,5.537-4.372l0.094-0.22
	c0.842-1.996,2.993-6.832,3.609-8.165c0.179-0.389,0.345-0.756,0.497-1.103c0.942-2.158,1.446-3.78,1.044-5.198
	c-0.457-1.61-1.111-2.021-3.016-2.869c-0.917-0.409-1.861-0.631-2.759-0.657c-2.03-5.084-2.675-5.854-4.346-7.47
	c-0.26-0.251-0.549-0.529-0.882-0.872C53.094,48.898,51.125,48.33,48.926,48.937z M52.643,52.729
	c0.357,0.364,0.666,0.664,0.943,0.932c1.398,1.351,1.819,1.759,4.044,7.435l0.46,1.177l1.238-0.254c0.623-0.129,1.436,0,2.226,0.353
	c0.335,0.149,1.117,0.498,1.236,0.6c0.013,0.022,0.046,0.1,0.116,0.349c0.148,0.53-0.349,1.998-1.381,4.223
	c-0.461,1.001-1.77,3.925-2.762,6.197c-0.354,0.809-0.666,1.534-0.889,2.062l-0.077,0.183c-0.948,2.171-1.816,2.729-2.008,2.678
	l-0.349-0.094c-0.836-0.222-3.055-0.812-3.393-1.317l-0.609-1.215l-1.268,0.485c-6.352,2.429-8.972,2.169-14.124,0.09
	c-1.38-0.558-6.034-2.753-8.02-7.617c-1.334-3.264-1.107-6.981,0.669-11.047c5.224-11.953,14.029-8.977,14.118-8.945
	c2.269,0.809,3.682,1.625,4.585,2.648l-0.261-0.273c-1.498,1.1-2.78,2.625-4.468,5.624c-2.26,4.008-1.155,7.435,0.594,8.993
	c-1.069,1.743-3.864,6.771-8.078,6.26c4.969,2.216,5.662,0.852,10.117-5.23c1.535,0.149,3.891-0.49,5.148-2.71l-0.141-1.375
	l-1.547,0.281c-0.731,1.048-2.313,2.094-3.406,1.563c-1.798-0.873-2.729-3.155-0.656-6.844c2.167-3.848,3.165-4.53,5.625-6.031
	C51.004,51.806,51.689,51.753,52.643,52.729z"/>
</svg>
