<?xml version="1.0" encoding="utf-8"?>
<!-- Generator: Adobe Illustrator 16.0.0, SVG Export Plug-In . SVG Version: 6.00 Build 0)  -->
<!DOCTYPE svg PUBLIC "-//W3C//DTD SVG 1.1//EN" "http://www.w3.org/Graphics/SVG/1.1/DTD/svg11.dtd">
<svg version="1.1" id="Layer_1" xmlns="http://www.w3.org/2000/svg" xmlns:xlink="http://www.w3.org/1999/xlink" x="0px" y="0px"
	 width="90px" height="90px" viewBox="0 0 90 90" enable-background="new 0 0 90 90" xml:space="preserve">
<path d="M79.971,49.172c0.029-5.109-2.316-7.368-5.4-11.297c0.59-1.93,1.933-6.182,0.248-7.906c-0.678-0.693-1.833-0.764-2.719-0.53
	c-0.809,0.213-1.286,1.707-1.804,1.766c-0.135,0.015-3.638-7.758-4.172-8.526c-1.769-2.542-4.222-4.66-6.854-6.274
	c-4.854-2.976-10.399-3.763-15.985-3.646c-5.313,0.111-10.828,1.943-15.015,5.245c-2.315,1.827-4.296,4.142-5.792,6.683
	c-1.919,3.259-2.449,7.174-4.666,10.273c-1.888,2.638-4.581,4.812-6.1,7.702c-1.286,2.447-1.753,5.379-1.711,8.119
	c0.098,6.382,4.464,11.109,10.168,13.469c1.104,0.457,2.362,0.926,3.554,0.501c1.27-0.453,1.058-1.313,2.431-0.672
	c0.908,0.424,1.527,3,1.97,3.934c0.786,1.661,1.658,3.299,2.66,4.841c1.056,1.623,4.109,5.445,6.142,2.847
	c0.925-1.181,0.671-2.057,0.316-3.375c-0.116-0.433-1.4-3.667-1.042-4.023c0.142-0.143,2.634,1.547,2.913,1.716
	c1.649,0.993,3.552,1.954,5.512,2.049c2.165,0.105,4.191-0.937,6.019-1.977c0.309-0.175,2.914-1.905,3.023-1.79
	c0.399,0.4-1.063,4.055-1.171,4.551c-0.406,1.868,0.67,4.383,2.97,3.531c2.196-0.814,3.718-3.608,4.806-5.529
	c0.634-1.119,1.209-2.273,1.753-3.438c0.351-0.75,0.782-2.844,1.548-3.267c1.667-0.921,1.917,0.878,3.782,0.74
	c2.131-0.158,4.406-1.539,6.124-2.728C77.712,59.229,80,56.099,80,50.969C80.005,50.25,79.994,49.672,79.971,49.172z M52.96,17.531
	c-0.508,0.355-0.789,0.862-1.133,1.358c-0.516,0.746-0.928,1.412-1.411,2.18c-0.719,1.14-0.547,1.812-1.888,0.984
	c-1.789-0.002-3.574,0.009-5.361-0.063c-1.647-0.066-2.374,1.154-3.276-0.262c-0.856-1.344-1.599-3.248-2.943-4.182
	C42.09,15.828,47.8,15.947,52.96,17.531z M45.877,34.356c-0.581-0.384-1.292-0.396-1.872-0.001c0.854-1.846-2.834-4.709-4.346-5.23
	c-2.348-0.809-6.741,1.653-8.627,2.887c1.667-1.94,3.807-3.256,6.072-4.385c2.471-1.235,1.2-3.546,0.774-5.626
	c1.101,1.695,2.185,3.302,3.324,4.968c0.835,1.221,2.195,4.883,4.054,4.524c1.395-0.269,2.495-3.162,3.195-4.269
	c1.141-1.8,2.412-3.442,3.551-5.237c-0.301,1.537-1.591,4.11,0.096,5.233c2.392,1.593,4.878,2.587,6.789,4.856
	c-2.095-1.399-5.551-3.246-8.168-3.014C49.002,29.217,44.931,32.435,45.877,34.356z M41.577,24.481
	c0.933-0.951,3.688-0.38,4.956-0.38c0.759,0,1.225-0.167,1.761,0.377c-1.187,1.573-2.539,3.443-3.354,5.247
	C44.074,27.976,42.554,25.758,41.577,24.481z M25.86,61.218l0.011,0.008c-2.496-1.304-3.074-3.222-3.881-3.821
	c-0.966-0.717,0.094,5.208,0.682,5.033c-0.283,0.084-1.374-0.301-1.554-0.373c1.339-0.8-1.739-3.968-1.869-5.252
	c-0.242-2.402,0.9-4.734,2.239-6.676c0.435,1.678,1.207,3.348,2.708,4.434c2.143,1.551,1.96,5.063,3.133,7.372
	C26.843,61.705,26.308,61.53,25.86,61.218z M55.559,62.59c-3.297,2.544-8.557,7.219-12.869,5.26
	c-2.464-1.118-4.783-2.616-6.94-4.242c-0.781-0.589-2.38-1.44-2.636-2.485c-0.403-1.639-0.605-3.32-0.745-4.999
	c-0.245-2.935-0.499-5.891-0.642-8.832c-0.096-1.971,0.072-2.278,2.076-2.146c1.252,0.083,2.47,0.353,3.68,0.667
	c0.823,0.278,9.112,6.469,9.346,3.101c1.449,0.572,5.972,2.098,7.369,0.648c1.389-1.44-3.569-2.927-4.325-3.416
	c1.475-0.343,2.35,0.075,3.802,0.338c1.473,0.266,2.974,0.165,4.461,0.207c-0.038,3.141-0.382,6.294-0.697,9.417
	C57.212,58.343,57.482,61.105,55.559,62.59z M33.226,42.851c0.481-0.834,0.889-1.701,1.242-2.596
	c0.415,0.959,0.906,1.883,1.465,2.767C35.034,42.922,34.131,42.847,33.226,42.851z M68.811,62.063
	c-1.442,0.617-1.85,0.341-0.932-0.959c0.668-1.229,1.879-4.301,0.109-3.726c-0.259,0.084-1.586,2.108-1.84,2.369
	c-1,1.028-2.334,1.578-3.603,2.187c0.743-1.481,1.018-6.024,2.393-6.876c1.001-0.62,1.913-1.317,2.467-2.394
	c0.202-0.392,0.858-2.537,1.003-2.609c1.075,1.757,2.306,4.029,2.287,6.135C70.684,57.605,67.553,61.367,68.811,62.063z M65.76,51.4
	c0.354-1.422,0.705-2.847,1.027-4.276C67.016,47.734,67.754,49.659,65.76,51.4z M71.969,58.793c1.184-2.65,0.288-5.366-0.961-7.796
	c-0.591-1.149-1.138-2.472-2.186-3.293c-0.022-1.208-0.628-3.802-2.281-3.802c-1.781,0-1.938,4.095-2.176,5.225
	c-0.438,2.079-0.775,3.896-1.516,5.892c-1.704,4.596-3.12,9.103-5.468,13.448c0.95-3.994,1.593-7.991,1.976-12.083
	c0.224-2.398,0.441-4.805,0.579-7.21c0.131-2.294,0.757-4.548-2.302-4.483c-2.116,0.045-3.894-0.299-5.945-0.708
	c-1.761-0.351-3.338-2.017-4.718-3.23c-1.604-1.41-2.866-0.575-2.256,1.478c0.606,2.049,1.789,3.824,3.5,5.114
	c-1.652-0.515-3.09-1.406-4.474-2.421c-1.215-0.891-3.811-0.988-2.263,1.183c-1.334-0.915-2.599-1.851-3.383-3.276
	c-0.88-1.599-1.672-4.326-2.981-5.565c-1.797-1.701-3.634,5.558-4.591,6.482c-1.188,1.146-0.784,2.986-0.66,4.459
	c0.204,2.434,0.272,4.876,0.567,7.302c0.529,4.364,0.985,8.625,2.053,12.895c-1.902-3.473-3.499-7.188-4.746-10.938
	c-1.24-3.73-1.858-7.583-2.893-11.399c-0.517-1.907-1.861-2.993-3.167-0.842c-0.43,0.708-0.58,1.492-0.597,2.308
	c-0.562,0.433-1.169,1.611-1.514,2.193c-1.6,2.698-3.049,5.939-1.653,9.036c-3.565-2.681-4.553-6.182-4.177-10.502
	c0.361-4.162,3.918-7.021,6.295-10.092c2.725-3.521,3.531-7.782,5.636-11.608c2.075-3.773,5.72-6.787,9.676-8.412
	c-0.394,1.688,0.706,4.497,1.201,6.109c0.454,1.479,0.053,1.674-1.288,2.284c-1.286,0.584-2.499,1.391-3.588,2.288
	c-0.531,0.437-6.829,7.493-3.565,7.383c1.459-0.049,3.33-2.274,4.521-2.993c1.438-0.868,4.567-2.658,6.338-2.377
	c0.83,0.132,1.587,1.233,2.19,1.747c0.4,0.331,0.787,0.677,1.161,1.038c-0.447,0.901-1.052,1.71-1.613,2.541
	c-1.841,2.725-0.124,3.843,2.087,1.747c0.702-0.667,1.415-1.339,2.157-1.961c0.94,0.725,1.725,1.625,2.641,2.377
	c0.565,0.464,1.557,1.294,2.281,0.568c0.899-0.899-0.417-2.37-0.901-3.094c-0.654-0.978-1.783-1.792-0.825-2.728
	c0.774-0.755,1.555-1.521,2.451-2.134c1.4-0.954,6.26,1.991,7.381,2.743c0.977,0.654,2.753,2.905,4.075,2.448
	c2.036-0.703-0.962-4.288-1.541-4.993c-1.836-2.236-4.104-3.539-6.577-4.958c-2.236-1.282,1.156-5.863,0.624-8.077
	c4.057,1.685,7.497,4.803,9.707,8.585c1.217,2.082,2.078,4.408,2.854,6.684c0.814,2.392,1.969,3.43,4.315,1.817
	c-0.23,0.983-0.971,2.179-0.971,3.183c0,0.981,1.158,1.87,1.75,2.518c1.59,1.743,3.068,3.686,3.692,6.001
	C77.122,51.417,75.701,55.955,71.969,58.793z M48.409,44.416c-0.073,0.103-0.146,0.205-0.22,0.307
	c-0.248-0.284-0.472-0.586-0.669-0.908C47.813,44.021,48.108,44.222,48.409,44.416z"/>
</svg>
