<?xml version="1.0" encoding="utf-8"?>
<!-- Generator: Adobe Illustrator 16.0.0, SVG Export Plug-In . SVG Version: 6.00 Build 0)  -->
<!DOCTYPE svg PUBLIC "-//W3C//DTD SVG 1.1//EN" "http://www.w3.org/Graphics/SVG/1.1/DTD/svg11.dtd">
<svg version="1.1" id="Layer_1" xmlns="http://www.w3.org/2000/svg" xmlns:xlink="http://www.w3.org/1999/xlink" x="0px" y="0px"
	 width="90px" height="90px" viewBox="0 0 90 90" enable-background="new 0 0 90 90" xml:space="preserve">
<path d="M75.667,54.625c-0.854-3.417-2.188-5.188-4.114-10.283c-1.248-3.301,0.714-6.74-0.795-10.035
	c-1.398-3.06-1.332-6.344-3.084-9.369c-0.922-1.591-2.038-3.068-3.313-4.394c-1.471-1.531-1.04-0.856-0.865-2.554
	c0.653-6.327-8.166-9.813-13.201-8.752c-1.373,0.289-2.59,0.852-3.675,1.745c-0.582,0.479-0.872,1.015-1.025,1.746
	c-0.892,0-1.782,0.036-2.671,0.11c-3.503,0.291-6.966,1.171-10.141,2.692c-6.051,2.899-10.754,8.022-12.488,14.563
	c-0.761,2.87-2.088,6.365-1.506,9.356c0.751,3.851-1.273,6.775-2.739,10.217c-1.309,3.074-2.141,6.306-2.084,9.663
	c0.052,3.046,0.515,7.519,2.681,9.879c2.138,2.329,7.007,2.544,9.938,2.308c1.865-0.15,3.554-0.735,5.221-1.561
	c0.177-0.087,2.258-1.691,1.948-2.44c3.134,2.231,7.026,4.798,10.997,4.917c2.021,0.061,3.911-0.565,5.739-1.383
	c2.178-0.975,3.901-2.731,5.994-3.726c-0.265,0.348,0.827,1.941,0.861,1.971c1.105,0.948,2.691,1.519,4.08,1.869
	c3.16,0.798,6.918,0.492,9.964-0.66C76.789,68.463,76.825,59.125,75.667,54.625z M22.531,30.18
	c1.615-6.895,8.331-12.125,14.837-14.106c3.353-1.021,6.563-1.095,10.021-0.971c0.748,0.026,0.46-1.339,0.46-1.83
	c0-0.982,1.665-1.541,2.412-1.749c3.087-0.86,6.751,0.236,9.079,2.386c0.919,0.848,2.04,2.286,1.94,3.632
	c-0.114,1.555-2.251,1.4-0.474,2.81c2.742,2.174,4.862,5.096,6.195,8.323c0.703,1.701,0.891,3.537,1.151,5.341
	c0.113,0.784,0.7,1.37,0.86,2.138c0.268,1.291,0.208,2.635-0.005,3.928c-0.076,0-0.619-0.208-0.695-0.208
	c0.345-2.107-0.43-4.515-0.771-4.958c-1.575-2.045-0.892,3.073-1.195,4.16c-1.945-1.106-4.115-1.702-6.182-2.529
	c0.224-1.796,0.473-3.791,0.308-5.602c-0.152-1.675-3.085-1.94-4.389-2.279c-2.696-0.698-5.468-1.036-8.233-1.312
	c-8.97-0.896-18.629,1.871-26.042,6.914C21.805,32.866,22.196,31.607,22.531,30.18z M58.348,32.311c0,0.748-0.017,2.01-0.114,2.753
	c-12.136-3.147-25.109-1.987-36.246,3.839c-0.274-1.697-0.356-2.038,1.109-3.119c1.446-1.068,3.03-1.972,4.68-2.687
	c3.719-1.614,7.46-2.74,11.47-3.355c3.807-0.584,7.537-0.566,11.343,0.012c1.964,0.298,3.909,0.712,5.828,1.222
	C57.506,31.264,58.349,31.053,58.348,32.311z M58.32,62.037c-3.377,3.41-11.565,9.971-16.653,7.379
	c-13.416-7.375-11.323-8.948-10.182-10.134c0.96-0.997,2.391-1.402,3.72-1.766c1.584-0.434,3.433-0.15,4.933-0.76
	c2.655-1.079,4.306-4.41,7.46-1.755c1.048,0.882,1.795,1.722,3.224,1.93c1.666,0.242,3.267,0.438,4.881,0.955
	C58.007,58.625,60.631,59.706,58.32,62.037z M54.786,55.441c-1.333-0.322-2.932-0.164-4.2-0.612
	c-0.958-0.338-1.682-1.544-2.563-2.079c-1.179-0.715-2.571-0.914-3.928-0.739c-2.614,0.303-3.688,2.818-6.318,2.975
	c-2.944,0.176-6.188,1.165-8.313,3.302c0.098-3.295,1.289-6.395,2.096-9.554c0.392-1.537,0.011-2.786,1.665-3.016
	c0.881-0.122,2.215-0.221,2.885-0.89c1.1,2.997,8.321,2.409,10.77,2.272c2.156-0.12,6.074,0.163,7.034-2.287
	c0.692,0.661,1.743,0.811,2.651,0.901c1.938,0.194,1.518,1.241,1.984,3.022c0.849,3.235,1.843,6.253,2.067,9.617
	C59.201,56.599,56.516,55.859,54.786,55.441z M68.888,47.395c2.642,5.463,4.011,9.934,3.049,16.04
	c-0.339,2.148-0.778,3.401-2.972,4.053c-2.643,0.784-5.757,0.77-8.277-0.428c2.24-3.148,2.471-7.31,1.989-11.026
	c-0.305-2.347-1.035-4.607-1.668-6.879c-0.385-1.383-0.392-4.857-1.988-5.397c-0.664-0.225-1.421-0.201-2.107-0.298
	c-1.554-0.22-1.159-0.712-1.208-2.18c-0.036-1.076-1.213-4.184-2.488-2.015c-0.917,1.556-0.442,4.669-2.375,5.11
	c-2.193,0.5-4.564,0.587-6.807,0.516c-1.611-0.051-5.539,0.131-6.085-1.576c-0.396-1.241-0.352-4.016-1.618-4.763
	c-2.13-1.257-2.029,2.901-2.037,3.841c-0.015,1.886-2.495,0.639-3.677,1.565c-1.067,0.836-0.966,3.221-1.284,4.396
	c-0.565,2.087-1.339,4.119-1.763,6.244c-0.825,4.137-0.514,8.833,1.771,12.468c-2.608,1.214-6.871,1.443-9.475-0.01
	c-2.479-1.384-2.243-7.357-2.158-9.752c0.13-3.651,2.197-7.005,3.599-10.272c0.67-1.562,0.869-4.469,2.271-5.305
	c1.899-1.133,3.936-2.029,6.029-2.733c7.688-2.586,15.604-3.034,23.534-1.752c3.703,0.599,7.505,1.594,10.925,3.148
	c0.839,0.381,1.659,0.805,2.446,1.284c1.042,0.634,0.854,1.151,1.14,2.273C67.891,44.877,68.733,47.085,68.888,47.395"/>
</svg>
