<?xml version="1.0" encoding="utf-8"?>
<!-- Generator: Adobe Illustrator 16.0.0, SVG Export Plug-In . SVG Version: 6.00 Build 0)  -->
<!DOCTYPE svg PUBLIC "-//W3C//DTD SVG 1.1//EN" "http://www.w3.org/Graphics/SVG/1.1/DTD/svg11.dtd">
<svg version="1.1" id="Layer_1" xmlns="http://www.w3.org/2000/svg" xmlns:xlink="http://www.w3.org/1999/xlink" x="0px" y="0px"
	 width="90px" height="90px" viewBox="0 0 90 90" enable-background="new 0 0 90 90" xml:space="preserve">
<g>
	<path d="M72.425,59.842c1.174-0.843,1.583-4.676,1.183-11.101c-0.366-5.876-0.288-5.719-3.504-7.169l-2.061-0.93l-0.095-0.736
		c-0.053-0.405-0.171-1.135-0.264-1.624l-0.167-0.888l0.442-0.59c3.542-4.73,3.466-13.596-0.165-19.166
		c-2.052-3.148-3.286-3.701-5.304-2.375c-2.555,1.678-4.946,3.972-7.291,6.994c-0.431,0.556-0.798,0.998-0.815,0.98
		c-0.018-0.017-0.101-0.353-0.187-0.746c-0.457-2.109-1.396-2.725-4.158-2.726c-1.709-0.001-1.445,0.129-2.406-1.185
		c-1.252-1.713-1.826-2.127-2.927-2.114c-0.961,0.012-1.587,0.473-2.89,2.131c-1.03,1.311-0.695,1.167-2.713,1.167
		c-2.937,0-3.909,0.566-4.315,2.514c-0.144,0.69-0.153,0.699-0.4,0.375c-2.438-3.201-4.816-5.517-7.568-7.374
		c-0.919-0.62-1.659-0.804-2.431-0.606c-0.649,0.167-1.014,0.465-1.893,1.552c-4.771,5.898-5.135,15.159-0.828,21.076
		c0.07,0.096,0.05,0.33-0.091,1.072c-0.099,0.522-0.22,1.251-0.269,1.62c-0.066,0.495-0.122,0.682-0.213,0.717
		c-0.756,0.281-4.113,1.885-4.283,2.047c-0.875,0.831-1.348,4.98-1.25,10.998c0.067,4.145,0.35,5.454,1.322,6.124
		c0.415,0.286,0.428,0.216-0.248,1.33c-0.671,1.108-0.792,1.412-0.792,1.998c0,1.247,0.471,1.799,2.013,2.359
		c0.923,0.335,2.323,0.935,5.355,2.295c14.835,6.652,20.282,7.637,29.238,5.29c2.544-0.667,7.673-2.519,9.368-3.382
		c1.246-0.634,8.8-3.937,9.872-4.315c1.969-0.695,2.274-2.063,0.943-4.232C71.944,60.097,71.956,60.179,72.425,59.842z
		 M49.493,22.043c2.604,0.053,2.32-0.213,3.043,2.848c0.143,0.607,0.248,1.046,0.34,1.357c-0.005,0.001-0.01,0.002-0.015,0.003
		c-0.32,0.048-0.791,0.368-1.072,0.437C51.656,26.721,51.196,27,50.806,27H50.74c-0.049,0-0.141-0.229-0.226-0.23
		c-0.072-0.176-0.168-0.571-0.25-0.81c-0.424-1.241-1.076-2.883-1.704-3.876C48.809,22.089,49.113,22.036,49.493,22.043z
		 M43.017,22.973c0.227-0.25,0.663-0.82,0.958-1.229c0.165-0.228,0.555-0.767,0.867-1.151c0.253,0.332,0.564,0.772,0.895,1.27
		c0.252,0.38,0.631,0.907,0.835,1.135c0.558,0.626,1.955,4.083,2.345,6.381c0.929,5.461-0.682,11.861-3.745,14.885
		c-0.123,0.121-0.214,0.207-0.283,0.268c-0.076-0.066-0.18-0.161-0.321-0.296c-3.34-3.209-5.075-9.722-4.035-15.15
		C40.904,27.145,42.374,23.682,43.017,22.973z M36.648,24.74c0.512-2.195,0.508-2.207,0.722-2.407
		C37.655,22.064,37.999,22,40.025,22h0.947c-0.659,1-1.451,2.814-1.838,3.96c-0.061,0.18-0.137,0.416-0.197,0.57
		c-0.105,0.003-0.233,0.009-0.333,0.009c-0.504,0-1.225-0.128-2.303-0.415C36.398,25.809,36.504,25.362,36.648,24.74z
		 M19.451,45.345c0.576-0.303,2.019-0.991,3.026-1.43c0,0.274,0.002,0.588,0.005,0.95c0.009,0.947,0,1.631-0.012,2
		c-0.163,0.152-0.436,0.4-0.773,0.698l-0.184,0.162c-1.261,1.1-1.256,1.516-1.231,3.825l0.031,3.278l0.685,0.694
		c-0.123,0.314-0.361,0.88-0.824,1.905c-0.041,0.09-0.087,0.193-0.134,0.303c-0.29-0.151-0.62-0.326-0.783-0.428
		C18.884,55.808,19.035,47.128,19.451,45.345z M24.842,47.681c0.781,0.281,3.101,1.158,6.453,2.478C32.711,50.716,37,52.42,38,52.78
		v1.192c0,0.287-0.017,0.695-0.026,1.002c-0.996,0.099-3.496,0.311-5.916,0.515l-4.904,0.415c-0.742,0.064-1.235,0.106-1.569,0.106
		c-0.403,0-0.414-0.004-1.064-0.482l-0.252-0.185c-0.871-0.633-1.281-0.93-1.57-1.066c-0.041-0.045-0.083-0.09-0.129-0.135
		l-0.178-0.179l-0.023-2.435c-0.01-0.921-0.016-1.529,0.051-1.76c0.021-0.073,0.118-0.165,0.466-0.469l0.192-0.169
		c0.079-0.07,0.687-0.606,0.977-0.89c0.125-0.07,0.244-0.156,0.365-0.25C24.623,47.836,24.755,47.74,24.842,47.681z M24.569,43.358
		c0.005-0.446,0.016-0.646,0.024-0.734c0.025-0.079,0.051-0.187,0.078-0.339c0.385,1.051,1.041,2.395,1.349,2.886
		c0.25,0.398,0.473,0.713,0.731,0.989c-1.67-0.627-1.793-0.627-1.928-0.627c-0.082,0-0.159,0.006-0.235,0.018
		c-0.002-0.31-0.005-0.664-0.009-1.07l-0.003-0.462C24.574,43.762,24.572,43.545,24.569,43.358z M26.828,42.065
		c0.03,0.007,0.06,0.015,0.092,0.023c3.164,0.792,6.383,2.94,9.591,6.396c-0.917-0.4-2.063-0.882-3.633-1.53
		c-4.417-1.822-4.442-1.862-5.088-2.893C27.515,43.625,27.118,42.768,26.828,42.065z M26.313,65.091
		c0.022,0.14,0.054,0.281,0.094,0.423c-0.849-0.376-1.974-0.876-2.92-1.299c-1.371-0.612-2.905-1.276-3.42-1.48l-0.105-0.042
		c1.371-2.292,1.53-2.844,1.57-3.082c0.033-0.106,0.147-0.406,0.326-0.824l0.468-1.053c0.155-0.35,0.29-0.653,0.405-0.926
		c0.104,0.075,0.209,0.151,0.312,0.226l0.242,0.178c0.753,0.553,1.208,0.888,2.3,0.888c0.423,0,0.949-0.045,1.745-0.114l4.896-0.414
		c2.598-0.219,4.145-0.353,5.079-0.438c-2.311,2.016-5.333,3.777-8.38,4.781c-0.999,0.33-1.524,0.577-1.871,0.883
		C26.428,63.347,26.165,64.161,26.313,65.091z M61.196,65.743c-0.544,0.818-0.899,1.111-2.887,1.897
		c-5.804,2.293-9.967,3.315-13.5,3.315c-0.401,0-0.804-0.013-1.196-0.04c-3.411-0.228-8.405-1.573-12.722-3.427
		c-1.379-0.592-2.379-1.876-2.515-2.726c-0.019-0.114-0.035-0.317,0.054-0.395c0.032-0.026,0.239-0.17,1.148-0.47
		c5.241-1.727,10.455-5.57,12.679-9.347c1.616-2.745,1.897-2.899,2.433-3.011c0,0,0.053-0.01,0.175-0.01
		c0.337,0,0.679,0.069,0.767,0.105c0.383,0.167,0.768,0.605,2.043,2.764c2.398,4.059,7.368,7.725,12.969,9.569
		c0.903,0.297,1.018,0.564,1.028,0.594C61.683,64.593,61.762,64.892,61.196,65.743z M69.515,62.691
		c-0.724,0.284-2.532,1.074-5.812,2.543c0.107-0.486,0.088-0.936-0.057-1.355c-0.295-0.851-1.063-1.471-2.35-1.894
		c-5.063-1.667-9.704-5.061-11.823-8.647c-1.398-2.367-1.996-3.175-3.005-3.616c-0.474-0.207-1.159-0.28-1.603-0.28
		c-0.227,0-0.43,0.018-0.601,0.054c-1.53,0.319-2.211,1.237-3.835,3.996C40.306,53.7,40,53.911,40,54.121c0-0.049,0-0.099,0-0.149
		v-1.864c0-0.076,0.645-0.296,0.792-0.611c0.359-0.769-0.119-1.357-1.308-2.779c-4.01-4.794-7.951-7.625-12.064-8.655
		c-0.783-0.196-1.245-0.276-1.603-0.276c-0.38,0-0.68,0.101-0.907,0.262c0.109-0.818,0.256-1.574,0.367-1.927
		c0.361-1.151,0.245-1.755-0.499-2.586c-1.728-1.931-2.644-5.017-2.513-8.465c0.129-3.376,1.239-6.486,3.055-8.579
		c0.102,0.069,0.201,0.14,0.258,0.181c2.084,1.483,4.071,3.479,6.076,6.101c1.462,1.912,2.704,2.988,3.797,3.29
		c1.384,0.381,2.305,0.554,3.041,0.57c-0.004,0.021-0.008,0.042-0.012,0.062c-1.18,6.162,0.771,13.333,4.64,17.05
		c0.58,0.557,1.079,0.982,1.774,0.982c0.756,0,1.304-0.54,1.744-0.974c3.563-3.517,5.387-10.548,4.337-16.722
		c-0.021-0.127-0.047-0.26-0.075-0.398c0.44-0.007,1.031-0.055,1.385-0.142c0.222-0.054,0.627-0.133,0.885-0.171
		c1.353-0.203,2.832-1.217,4.056-2.781c2.934-3.746,4.611-5.455,6.903-7.03c0.006-0.004,0.013-0.009,0.021-0.014
		c3.854,4.336,4.167,12.875,0.606,16.979c-0.793,0.913-0.91,1.482-0.543,2.649c0.11,0.352,0.254,1.104,0.364,1.941
		c-0.048-0.037-0.1-0.07-0.155-0.1c-0.372-0.199-0.833-0.243-1.365-0.128c-4.905,1.062-8.728,3.679-13.195,9.033
		c-1.102,1.321-1.559,1.868-1.206,2.621c0.185,0.395,0.58,0.64,1.032,0.64c0.403,0,0.822-0.174,1.962-0.731
		c1.396-0.685,2.473-1.153,5.761-2.512c4.058-1.676,4.832-2.042,5.473-2.879c0.591-0.771,1.495-2.35,1.927-3.663
		c0.023,0.184,0.051,0.354,0.08,0.476c0.024,0.193,0.043,0.915,0.004,3.208c-0.057,3.303-0.016,4.183,0.255,5.539
		c0.399,2.002,1.077,4.07,2.067,6.321c0.359,0.815,0.618,1.465,0.666,1.618c0.17,0.696,1.37,2.732,1.638,3.183L69.515,62.691z
		 M62.687,42.071c-0.32,0.801-0.872,1.896-1.46,2.665c-0.292,0.381-1.068,0.754-4.613,2.219c-1.665,0.688-2.773,1.152-3.645,1.532
		C56.23,44.942,59.186,43,62.687,42.071z M71.423,56.982c-0.165,1-0.229,1.086-1.161,1.569c-0.146,0.076-0.289,0.157-0.419,0.236
		c-0.169-0.491-0.537-1.342-0.713-1.742c-0.93-2.11-1.562-4.036-1.931-5.888c-0.237-1.184-0.269-1.946-0.215-5.094
		c0.037-2.137,0.026-2.984-0.006-3.387c0.351,0.174,0.845,0.39,1.542,0.703c2.174,0.975,2.376,1.086,2.526,1.392
		C71.476,45.649,71.763,54.92,71.423,56.982z"/>
	<path d="M29.479,25.61c-1.326-2.109-2.073-3.089-3.266-3.692c-0.29-0.146-0.56-0.217-0.825-0.217c-1.432,0-1.637,1.634-1.802,2.947
		c-0.415,3.295-0.044,6.5,0.99,8.573c0.278,0.556,0.624,1.249,1.465,1.249c0.646,0,1.067-0.419,1.832-1.181
		c0.795-0.792,1.629-1.444,2.549-1.992c0.244-0.146,0.601-0.357,0.792-0.471c0.211-0.124,0.77-0.454,0.851-1.127
		c0.085-0.702-0.417-1.192-0.688-1.455C30.897,27.774,30.573,27.35,29.479,25.61z M29.353,29.501
		c-1.069,0.637-2.036,1.393-2.954,2.307c-0.038,0.038-0.078,0.077-0.119,0.118c-0.718-1.716-0.958-4.354-0.623-7.019
		c0.043-0.339,0.082-0.597,0.117-0.793c0.442,0.375,0.961,1.057,1.936,2.607c0.924,1.469,1.37,2.118,1.856,2.652
		C29.491,29.419,29.418,29.463,29.353,29.501z"/>
	<path d="M48.217,57.536c-0.787-0.439-2.374-0.595-3.494-0.595c-0.464,0-0.896,0.024-1.283,0.073
		c-1.953,0.244-2.609,1.113-2.816,1.8c-0.369,1.222,0.375,2.61,2.273,4.245c0.787,0.678,1.307,1.125,2.03,1.125
		c0.712,0,1.211-0.434,1.903-1.033c1.749-1.516,2.575-2.875,2.456-4.039C49.218,58.443,48.839,57.883,48.217,57.536z M46.135,60.792
		c-0.435,0.459-0.948,0.894-1.251,1.12c-0.664-0.413-1.887-1.804-2.135-2.443c0.206-0.126,0.801-0.357,1.996-0.357
		c0.522,0,1.084,0.044,1.67,0.132c0.398,0.059,0.6,0.141,0.69,0.189C47.059,59.592,46.875,60.013,46.135,60.792z"/>
	<path d="M58.278,30.826c1.818,1.071,2.357,1.47,3.39,2.511c0.71,0.716,1.14,1.148,1.791,1.148c0.874,0,1.222-0.738,1.529-1.39
		c1.136-2.414,1.642-9.179,0.186-10.933c-0.253-0.305-0.616-0.473-1.024-0.473c-0.323,0-0.653,0.103-1.038,0.323
		c-1.149,0.657-1.855,1.594-3.003,3.446c-1.063,1.713-1.359,2.111-1.897,2.682c-0.407,0.431-0.867,0.919-0.77,1.607
		C57.533,30.388,58.055,30.695,58.278,30.826z M61.884,26.559c0.945-1.525,1.426-2.128,1.896-2.49
		c0.366,1.638,0.235,5.816-0.564,7.862c-0.022-0.022-0.044-0.044-0.064-0.065c-1.044-1.053-1.697-1.566-3.233-2.494
		C60.491,28.739,60.897,28.149,61.884,26.559z"/>
</g>
</svg>
