<?xml version="1.0" encoding="utf-8"?>
<!-- Generator: Adobe Illustrator 16.0.0, SVG Export Plug-In . SVG Version: 6.00 Build 0)  -->
<!DOCTYPE svg PUBLIC "-//W3C//DTD SVG 1.1//EN" "http://www.w3.org/Graphics/SVG/1.1/DTD/svg11.dtd">
<svg version="1.1" id="Layer_1" xmlns="http://www.w3.org/2000/svg" xmlns:xlink="http://www.w3.org/1999/xlink" x="0px" y="0px"
	 width="90px" height="90px" viewBox="0 0 90 90" enable-background="new 0 0 90 90" xml:space="preserve">
<path d="M70.609,17.766c-1.599-0.443-2.337,0.429-3.253,1.58c-1.312,1.648-1.758,1.479-3.819,1.573
	c-4.072,0.185-8.187,1.103-12,2.535c-3.225,1.211-6.296,2.886-8.931,5.119c-1.324,1.122-2.531,2.381-3.582,3.763
	c-1.261,1.657-2.924,1.997-4.726,2.78c-2.871,1.248-2.131,5.728-4.675,7.352c-1.601,1.025-3.307,2.024-5.188,2.414
	c-1.88,0.39-4.838-0.411-6.479,0.661c-1.084,0.709-1.462,2.676-2.048,3.75c-0.948,1.741-1.917,2.42-1.965,4.497
	c-0.056,2.454,0.745,9.454,4.434,5.511c2.589-2.765,5.648-4.27,9.39-4.701c1.768-0.204,3.53-0.458,5.301-0.639
	c1.907-0.197,0.768,1.771,2.509,2.285c1.682,0.496,0.517,1.097-0.421,2.012c-1.399,1.364-2.811,2.723-4.34,3.944
	c-1.481,1.184-3.051,1.708-4.865,2.181c-1.309,0.343-3.349,0.205-3.807,1.844c-0.919,3.289,6.352,4.346,8.391,4.945
	c5.063,1.488,3.419-2.743,6.215-5.162c2.879-2.49,5.854-4.821,9.086-6.844c3.154-1.979,6.99-2.573,10.248-4.484
	c2.438-1.429,4.662-3.186,6.721-5.116c1.95-1.828,1.016-4.123-1.614-3.979c1.158-1.113,3.07-2.274,2.478-4.163
	c-0.793-2.525-2.958-0.277-4.366-0.75c0.313,0.112,3.877-4.337,4.251-4.749c1.841-2.025,3.674-4.057,5.532-6.066
	c1.992-2.155,2.133-4.74,2.439-7.557C71.659,21.067,72.322,18.242,70.609,17.766z M35.709,54.121c-0.32,0.12-0.53-1.115-0.579-1.326
	c-0.119-0.509,1.037-0.57,0.987-0.004C36.078,53.234,36.012,54.008,35.709,54.121z M69.305,23.495
	c-0.191,1.158-0.398,3.302-1.414,4.626c-1.752,2.284-3.918,4.263-5.851,6.399c-0.584,0.645-8.19,9.47-8.41,9.36
	c0.938,0.469,3.207-0.424,4.157-0.64c0.297-0.067,3.089-1.165,3.415-0.838c0.85,0.843-8.943,6.68-8.896,7.418
	c0.03,0.451,8.147-2.366,8.925-1.956c0.434,0.229-7.497,5.792-8.272,6.173c-2.116,1.038-4.424,1.508-6.545,2.493
	c-1.964,0.911-3.762,2.229-5.523,3.475c-2.758,1.95-7.354,4.713-7.841,8.323c-0.263,1.962-1.673,0.981-3.074,0.558
	c-0.429-0.13-5.417-1.673-5.286-1.896c0.296-0.508,1.77-0.627,2.244-0.76c1.419-0.398,2.852-0.835,4.105-1.633
	c2.461-1.564,4.568-3.905,6.652-5.924c1.638-1.588,4.821-3.814,5.629-5.991c0.794-2.141-4.996-1.094-5.646-1.147
	c-1.475-0.122-2.85,0.377-4.372,0.455c-3.195,0.165-6.742,0.479-9.8,1.461c-2.524,0.811-4.63,2.442-6.521,4.253
	c-0.998,0.961-1.016-2.219-1.08-2.746c-0.178-1.46,0.051-2.023,0.898-3.195c0.687-0.949,1.176-2.021,1.662-3.081
	c0.723-1.579,1.459-1.413,3.118-1.466c3.039-0.096,5.501-0.784,8.11-2.34c2.415-1.44,3.043-2.731,3.991-5.316
	c1.202-3.276,3.672-2.55,5.946-4.679c1.979-1.853,3.37-4.049,5.6-5.707c2.578-1.917,5.499-3.353,8.546-4.355
	c2.849-0.937,5.818-1.495,8.808-1.711c1.094-0.079,3.549,0.393,4.443-0.366c0.417-0.354,1.981-2.701,2.525-2.601
	C69.935,20.211,69.356,23.088,69.305,23.495z M37.939,55.841c0.076-0.841,0.258-2.567,0.394-3.149
	c0.147-0.654,1.802-0.946,2.064-0.3C40.782,53.337,37.908,55.774,37.939,55.841z"/>
</svg>
