<?xml version="1.0" encoding="utf-8"?>
<!-- Generator: Adobe Illustrator 16.0.0, SVG Export Plug-In . SVG Version: 6.00 Build 0)  -->
<!DOCTYPE svg PUBLIC "-//W3C//DTD SVG 1.1//EN" "http://www.w3.org/Graphics/SVG/1.1/DTD/svg11.dtd">
<svg version="1.1" id="Layer_1" xmlns="http://www.w3.org/2000/svg" xmlns:xlink="http://www.w3.org/1999/xlink" x="0px" y="0px"
	 width="90px" height="90px" viewBox="0 0 90 90" enable-background="new 0 0 90 90" xml:space="preserve">
<path d="M75.308,39.537c-0.424-2.087,0.083-4.47-0.259-6.669c-0.441-2.837-1.455-5.42-3.055-7.805
	c-3.385-5.047-7.706-10.815-13.261-13.567c-12.44-6.161-29.701-2.57-36.863,9.769c-1.746,3.007-2.626,6.238-3.855,9.455
	c-1.475,3.859-2.954,7.573-3.505,11.704c-0.444,3.325-0.373,6.803,1.07,9.893c0.713,1.526,1.737,2.888,2.984,4.019
	c0.717,0.651,2.359,1.128,2.826,1.858c0.704,1.102,1.433,2.177,2.285,3.172c0.751,0.877,2.151,1.863,2.179,3.148
	c0.035,1.586-1.548,2.648-1.962,4.095c-0.224,0.782-0.143,1.589,0.197,2.325c-0.359,0.718-0.462,1.546-0.266,2.326
	c0.701,2.787,4.918,3.003,7.142,3.677c2.853,0.865,5.643,1.867,8.349,3.122c1.667,0.772,3.591,2.222,5.46,2.345
	c2.202,0.149,4.597-1.74,6.533-2.613c2.761-1.244,5.622-2.208,8.52-3.075c2.477-0.74,6.794-1.018,6.461-4.613
	c-0.108-1.168-0.413-1.397-0.375-2.526c0.062-1.802-1.461-2.817-2.032-4.391c-0.514-1.417,0.374-2.568,1.303-3.56
	c1.399-1.494,2.669-3.15,3.735-4.898c0.66-1.081,0.972-0.729,1.995-1.454c1.467-1.039,2.599-2.748,3.349-4.355
	C75.9,47.403,76.07,43.293,75.308,39.537C75.151,38.763,76.335,44.602,75.308,39.537z M70.527,43.448
	c-1.167-2.636-1.811,1.267-1.89,2.111c-0.223,2.376-0.791,4.71-1.789,6.883c0.19-0.751,1.02-7.357-1.206-6.337
	c-1.117,0.512-1.362,2.706-1.815,3.705c-0.771,1.698-1.785,3.312-2.979,4.743c1.913-6.218,1.195-12.604-2.274-18.129
	c-0.465-0.741-1.353-2.743-2.453-2.743c-1.259,0-1.204,2.408-1.284,3.198c-0.299,2.963-0.616,5.895-1.318,8.736
	c-0.833-0.602-1.631-0.909-2.167-1.651c-0.826-1.145-2.151-2.026-3.135-3.048c-2.794-2.906-2.666,1.331-2.483,3.293
	c-3.11-2.65-5.875-5.815-8.143-9.212c-0.618-0.924-1.515-3.246-2.936-1.998c-0.967,0.847-1.533,2.456-2.095,3.602
	c-2.813,5.739-4.282,11.918-2.615,18.26c-1.225-1.336-2.392-2.777-3.345-4.321c-0.747-1.21-1.122-3.05-2.112-4.043
	c-2.066-2.071-1.534,5.843-1.395,6.396c-0.553-1.41-0.963-2.874-1.245-4.362c-0.215-1.135-0.092-2.569-0.553-3.632
	c-0.511-1.178-1.456-0.053-1.644,0.626c-0.536,1.94-0.557,4.092-0.083,6.046c-4.103-6.622,0.506-14.589,2.528-21.052
	c2.458-7.871,6.88-13.879,14.853-16.718c6.791-2.418,15.785-1.885,21.887,2.212c2.755,1.85,4.457,4.447,6.595,6.9
	c2.577,2.95,5.17,6.272,5.855,10.234c-0.167-0.328-2.692-4.757-3.182-2.639c-0.295,1.28,1.286,3.388,1.79,4.584
	c1.753,4.168,2.908,9.136,1.21,13.509C71.294,46.914,71.226,45.026,70.527,43.448C70.388,43.134,71.117,44.781,70.527,43.448z
	 M61.378,68.609c-0.779-0.156-1.964-0.795-2.775-0.552c-0.481-0.558-1.62-1.668-2.448-1.12c-1.633,1.082,2.999,4.429,3.704,4.996
	c-2.248,0.613-4.509,1.319-6.693,2.133c-1.447,0.539-2.871,1.14-4.274,1.783c-1.249,0.572-3.208,2.188-4.511,1.544
	c-4.588-2.263-9.245-4.062-14.171-5.455c0.815-0.659,4.485-3.171,3.896-4.492c-0.537-1.2-2.208,0.169-2.699,0.662
	c-0.769-0.271-2.305,0.416-3.113,0.52c3.644-5.78-1.596-8.667-4.125-13.398c0.932,1.34,2.667,3.156,4.367,3.411
	c0.556,0.661,0.769,1.976,1.166,2.766c0.699,1.393,1.567,2.701,2.573,3.892c2.442,2.893,6.191,5.241,9.671,6.689
	c5.001,2.082,9.8-1.622,13.498-4.8c1.672-1.438,3.147-3.151,4.254-5.063c0.635-1.096,1.152-2.254,1.696-3.396
	c0.623-0.668,1.813-0.975,2.542-1.579C61.014,60.902,58.242,63.945,61.378,68.609C60.901,68.514,59.088,65.203,61.378,68.609z
	 M32.331,57.95c0.659-0.96-0.96-4.094-1.161-5.212c-0.361-2.013-0.443-4.094-0.188-6.125c0.278-2.218,0.128-2.58,2.224-1.942
	c1.583,0.482,3.161,0.983,4.75,1.446c0.768,0.224,1.552,0.432,2.359,0.432c1.292,0,1.844-1.209,0.58-1.808
	c-2.735-1.296-6.01-1.763-8.983-2.152c0.813-2.707,2.015-5.497,3.533-7.887c2.299,3.446,4.825,6.736,7.863,9.571
	c0.587,0.548,2.379,2.559,3.314,2.343c1.583,0,0.654-3.521,0.631-4.351c0.733,0.701,1.445,1.424,2.188,2.115
	c-0.672,0.227-2.102,0.71-1.549,1.713c0.485,0.88,2.086,0.385,2.812,0.243c1.058,0.004,3.2,1.997,3.977,0.93
	c1.339-1.841-0.085-2.143,2.533-2.873c0.528-0.147,2.175-0.616,1.397-1.507c-0.581-0.664-2.15-0.153-2.899-0.086
	c0.372-2.139,0.596-4.288,0.868-6.442c3.275,4.771,4.343,9.981,3.186,15.654c-0.135,0.662-2.295,7.227,0.138,5.714
	c2.54-1.579,4.451-4.966,5.594-7.626c-0.125,2.93-1.458,5.597-4.263,6.818c-1.65,1.074-2.048,2.842-3.055,4.516
	c-1.28,2.126-2.999,3.872-4.976,5.357c-2.242,1.685-5.58,4.521-8.578,4.192c-2.578-0.283-5.139-2.166-7.245-3.532
	c-2.283-1.48-4.225-3.217-5.551-5.619c-1.207-2.187-1.4-4.03-3.664-5.132c-2.63-1.279-3.708-4.039-3.785-6.799
	C24.946,50.99,30.901,60.034,32.331,57.95C32.597,57.563,32.19,58.155,32.331,57.95z"/>
</svg>
