<?xml version="1.0" encoding="utf-8"?>
<!-- Generator: Adobe Illustrator 16.0.0, SVG Export Plug-In . SVG Version: 6.00 Build 0)  -->
<!DOCTYPE svg PUBLIC "-//W3C//DTD SVG 1.1//EN" "http://www.w3.org/Graphics/SVG/1.1/DTD/svg11.dtd">
<svg version="1.1" id="Layer_1" xmlns="http://www.w3.org/2000/svg" xmlns:xlink="http://www.w3.org/1999/xlink" x="0px" y="0px"
	 width="90px" height="90px" viewBox="0 0 90 90" enable-background="new 0 0 90 90" xml:space="preserve">
<g>
	<path d="M77.423,60.344c-0.905-1.16-1.782-2.226-2.981-3.109c-0.632-0.467-1.316-0.916-1.919-1.412
		c-0.455-0.376-0.97-0.657-1.414-1.047c1.276-1.219,2.253-2.33,2.709-4.088c0.768-2.96-0.429-6.138-3.425-9.09
		c-0.894-0.882-1.848-1.717-2.813-2.521c-0.937-0.777-1.528-1.439-2.063-2.519c0.111-0.741,0.188-1.489,0.308-2.229
		c0.143-0.891,0.866-1.685,1.305-2.461c1.098-1.934,2.135-4.33,1.621-6.6c-0.424-1.876-1.812-3.415-3.096-4.778
		c-1.311-1.392-2.651-2.851-4.157-4.035c-3.781-2.969-9.186-7.653-14.309-5.162c-0.493,0.24-0.993,0.481-1.434,0.812
		c-0.179,0.134-1.01,1.042-1.19,0.91c-0.052-0.039-0.32-0.26-0.598-0.49c-1.634-1.366-4.303-2.21-5.977-1.889
		c-3.871,0.741-7.299,3.298-10.259,5.778c-1.34,1.123-2.655,2.298-3.845,3.577c-0.583,0.627-1.137,1.295-1.673,1.962
		c-0.556,0.691-0.924,1.48-1.427,2.191c-0.865,1.223-0.553,4.171,0.713,6.72c0.674,1.354,1.726,2.537,1.912,4.071
		c0.122,1.009,0.253,2.007,0.254,3.024c-1.544,1.475-3.195,2.796-4.677,4.349c-0.676,0.709-1.292,1.44-1.794,2.284
		c-0.87,1.464-1.59,3.686-1.155,5.396c0.274,1.087,0.507,2.082,1.169,3.018c0.471,0.666,1.064,1.189,1.681,1.714
		c-0.588,0.657-1.509,1.192-2.246,1.674c-0.848,0.556-1.711,1.276-2.438,1.983c-1.582,1.538-2.617,3.25-2.616,5.5
		c0.001,1.469,0.155,2.045,0.892,3.312c0.42,0.722,1.048,1.35,1.645,1.927c0.635,0.615,1.389,1.05,2.036,1.635
		c0.613,0.553,1.678,0.74,2.483,0.437c0.607-0.229,0.837-0.513,1.058-1.305c-0.011,0.035,2.193,0.887,2.412,0.951
		c1.151,0.346,2.354,0.497,3.554,0.497c2.287,0,3.315-0.497,3.545-1.71c0.171-0.912-0.003-1.302-1.008-2.264
		c-1.125-1.075-1.135-1.412-0.055-1.952c1.438-0.719,2.855-0.476,4.388-0.213c1.171,0.201,2.319,0.156,3.5,0.126
		c0.484,0.545,1.007,1.073,1.448,1.654c0.59,0.777,1.904,1.333,3.962,1.673c1.082,0.179,5.858,0.178,6.989-0.002
		c1.237-0.196,2.473-0.429,3.463-1.246c0.73-0.605,1.342-1.361,1.975-2.066c1.075-0.003,2.182,0.063,3.25-0.067
		c1.6-0.195,2.979-0.657,4.512,0.064c0.352,0.165,1.028,0.449,1.002,0.937c-0.032,0.617-0.854,1.056-1.227,1.449
		c-0.931,0.99-0.946,2.34,0.22,3.144c1.126,0.777,3.101,0.499,4.359,0.339c0.865-0.111,1.729-0.282,2.559-0.555
		c0.325-0.108,0.645-0.231,0.949-0.387c0.146-0.075,0.709-0.523,0.763-0.354c0.277,0.869,0.506,1.127,1.179,1.326
		c0.803,0.238,1.686,0.071,2.346-0.447c1.42-1.111,2.991-2.229,3.899-3.851C78.75,65.033,78.623,61.883,77.423,60.344
		C77.302,60.189,78.623,61.883,77.423,60.344z M61.772,41.145c-0.49-1.263-1.051-2.428-1.753-3.604
		c-0.599-1.005-1.246-1.979-1.854-2.979c-0.295-0.486-0.587-0.977-0.888-1.461c-0.261-0.421-0.466-1.038-0.837-1.376
		c-0.021-0.658-0.52-1.374-0.809-1.94c-0.403-0.79-0.831-1.566-1.227-2.362c-0.332-0.669-0.681-1.327-1.107-1.941
		c-0.327-0.474-0.513-1.14-0.786-1.662c-0.418-0.8-0.908-2.505-1.906-2.729c-1.045-0.234-2.36,1.362-2.992,2.016
		c-1.054,1.087-1.85,2.315-2.593,3.625c-1.132-1.921-2.396-4.15-4.306-5.416c-0.86-0.568-1.468-0.2-1.941,0.587
		c-0.632,1.046-1.26,2.175-1.769,3.287c-0.202,0.443-0.507,0.808-0.71,1.259c-0.305,0.675-0.631,1.315-0.986,1.966
		c-0.687,1.262-1.339,2.636-1.915,3.947c-0.923,1.811-2.17,3.449-3.113,5.255c-0.944,1.809-1.879,3.614-2.527,5.548
		c-1.728,5.161-1.453,9.556,0.76,12.472c-0.95,0.063-0.916,1.013-1.276,1.667c-0.53,0.96-1.414,1.699-2.305,2.313
		c-1.104,0.761-2.307,1.362-3.54,1.881c-1.31,0.551-2.51,1.196-3.704,1.964c-0.94,0.604-1.464,2.032-1.385,3.568
		c-0.651-0.685-1.212-1.464-1.693-2.354c0.004-1.249,0.064-2.03,0.737-2.924c0.974-1.294,2.271-2.223,3.588-3.134
		c0.65-0.449,1.271-0.935,1.905-1.406c0.578-0.433,1.235-0.869,1.56-1.539c0.607-1.254-0.074-1.989-0.956-2.756
		c-0.342-0.297-0.946-0.872-1.32-1.258c-0.819-0.843-1.2-1.819-1.128-2.9c0.223-3.401,3.542-5.42,5.706-7.563
		c1.257-1.245,2.198-2.755,3.045-4.298c0.437-0.798,0.854-1.607,1.289-2.406c0.37-0.676,1.25-1.645,0.969-2.471
		c-0.096-0.279-0.305-0.493-0.591-0.602c-0.642-0.243-1.363-0.169-2.03-0.116c-0.746,0.06-1.497,0.017-2.241,0.102
		c-0.934-1.41-2.218-3.516-1.97-5.342c0.362-2.676,9.865-11.205,14.611-12.44c2.034-0.529,4.04,0.593,5.341,2.099
		c0.58,0.673,1.271,1.661,2.241,0.902c0.844-0.66,1.373-1.634,2.276-2.258c1.215-0.838,2.674-1.089,4.017-0.685
		c4.125,1.241,12.884,8.614,14.202,11.95c0.719,1.826-0.883,4.407-1.856,5.811c-0.669-0.18-1.413-0.161-2.098-0.148
		c-0.42,0.009-0.968-0.018-1.327,0.246c-0.234,0.171-0.37,0.449-0.379,0.785c-0.019,0.597,0.404,0.888,0.623,1.384
		c0.313,0.707,0.601,1.384,0.994,2.053c0.818,1.392,1.453,2.875,2.423,4.176c1.894,2.541,5.182,4.101,6.381,7.142
		c0.529,1.342,0.535,2.674,0.017,3.652c-0.26,0.493-0.656,0.885-1.057,1.264c-0.781,0.74-2.284,1.627-2.233,2.856
		c0.062,1.479,2.189,2.596,3.227,3.324c1.503,1.056,3.126,2.116,4.153,3.677c0.624,0.946,0.623,1.762,0.621,2.995
		c-0.423,0.728-0.961,1.375-1.627,2.093c0.087-1.513-0.467-2.856-1.512-3.557c-2.953-1.979-7.198-2.741-9.297-5.832
		c-0.416-0.612-0.456-1.394-1.248-1.689c1.092-1.366,1.705-3.042,1.921-4.768C64.036,47.502,62.468,42.939,61.772,41.145
		C61.624,40.762,62.468,42.939,61.772,41.145z M31.942,37.731c0.521-0.787,0.907-1.672,1.381-2.489
		c0.475-0.819,0.998-1.605,1.443-2.44c1.145-0.186,2.478-0.075,3.64-0.036c0.869,0.029,1.627,0.299,2.439,0.581
		c0.638-0.311,1.181-0.664,1.758-1.077c0.733-0.524,1.412-1.315,2.227-1.704c0.52,0.211,0.996,0.753,1.419,1.107
		c0.505,0.42,1.014,0.868,1.593,1.184c0.469,0.254,0.956,0.339,1.481,0.223c0.326-0.072,0.776-0.333,1.11-0.333
		c1.622,0,3.396-0.18,5.004,0.045c0.515,0.587,0.785,1.456,1.185,2.129c0.613,1.035,1.362,1.974,1.985,2.997
		c-2.672,0.063-5.346,0.07-8.019,0.094c-0.905,0.01-1.475,0.023-2.316,0.364c-1.319,0.534-2.229,1.721-3.455,2.4
		c-1.154-0.793-2.178-1.966-3.522-2.42c-0.793-0.267-1.441-0.412-2.265-0.414c-2.401-0.006-4.806,0.016-7.207-0.032
		C31.868,37.84,31.909,37.778,31.942,37.731C32.089,37.509,31.909,37.778,31.942,37.731z M38.775,26.761
		c1.256,0.34,2.475,0.818,3.659,1.354c0.955,0.431,1.858,1.185,2.967,0.944c1.072-0.232,2.1-0.933,3.111-1.354
		c1.252-0.522,2.519-0.954,3.881-1.047c0.925,1.477,1.687,3.125,2.448,4.693c-1.142-0.028-2.289-0.009-3.432-0.009
		c-0.398,0-0.797,0-1.195,0c-0.476,0-0.939,0.461-1.432,0.386c-0.526-0.08-1.063-0.663-1.451-0.981
		c-0.644-0.532-1.373-1.373-2.225-1.562c-0.885-0.196-1.723,0.651-2.331,1.18c-0.598,0.521-1.301,1.128-2.021,1.464
		c-1.703-0.597-3.49-0.507-5.272-0.468c0.39-0.842,0.736-1.696,1.188-2.508c0.195-0.353,0.409-0.7,0.579-1.067
		c0.191-0.414,0.313-0.925,0.623-1.27C38.184,26.55,38.476,26.679,38.775,26.761C39.562,26.974,38.718,26.744,38.775,26.761z
		 M38.655,25.063c0.459-0.833,0.866-1.71,1.367-2.519c1.505,1.083,2.659,2.885,3.546,4.476
		C42.06,26.202,40.357,25.394,38.655,25.063C38.706,24.97,38.741,25.079,38.655,25.063z M46.56,26.854
		c0.946-1.666,2.223-3.072,3.718-4.264c0.488,0.793,0.887,1.663,1.312,2.493C49.86,25.344,48.096,26.034,46.56,26.854
		C47.441,25.301,46.749,26.753,46.56,26.854z M63.597,36.048c-0.291-0.55-0.623-1.078-0.928-1.621
		c-0.312-0.555-0.455-1.186-0.784-1.729c0.428-0.012,0.858-0.001,1.284,0.033c0.363,0.028,0.681,0.255,1.037,0.229
		C63.757,33.869,63.682,35.054,63.597,36.048C63.414,35.704,63.62,35.78,63.597,36.048z M25.661,37.688
		c-0.041-1.589-0.066-3.365-0.793-4.821c0.541-0.111,1.094-0.116,1.642-0.123c0.65-0.005,1.302-0.11,1.95-0.085
		C27.479,34.31,26.678,36.061,25.661,37.688C25.661,37.656,26.195,36.832,25.661,37.688z M17.544,69.287
		c0.07-0.038,0.131-0.087,0.186-0.146C17.718,69.261,17.657,69.308,17.544,69.287z M33.042,63.286
		c-3.002-0.568-4.255-0.477-6.022,0.443c-1.929,1.005-2.185,3.175-0.564,4.772c0.815,0.805,0.671,0.908-1.169,0.844
		c-3.397-0.119-6.121-1.788-6.916-4.239c-0.039-0.12-0.078-0.214-0.119-0.29c0.318-0.367,0.871-0.609,1.283-0.857
		c0.518-0.312,1.049-0.599,1.604-0.838c1.14-0.493,2.279-0.956,3.359-1.575c1.782-1.022,3.739-2.424,4.363-4.49
		c0.559,0.069,1.329,0.184,1.612-0.449c0.368-0.821-0.779-1.679-1.172-2.299c-0.488-0.769-0.819-1.628-1.018-2.516
		c-0.484-2.159-0.224-4.438,0.321-6.561c-0.157,1.693-0.039,3.176,0.445,4.816c0.523,1.767,1.229,3.445,1.649,5.247
		c0.385,1.646,0.569,3.114,1.637,4.493c0.919,1.188,1.811,2.398,2.724,3.589C34.383,63.416,33.569,63.387,33.042,63.286
		C30.04,62.718,33.569,63.387,33.042,63.286z M50.507,66.142c-0.987,0.626-2.882,0.878-6.125,0.814
		c-3.737-0.073-4.745-0.355-5.813-1.628c-1.333-1.59-2.657-3.142-3.911-4.802c-0.63-0.835-1.274-1.682-1.743-2.621
		c-0.25-0.501-0.295-1.043-0.366-1.589c-0.092-0.694-0.265-1.38-0.455-2.054c-0.616-2.18-1.631-4.318-1.983-6.558
		c-0.192-1.217-0.028-2.457,0.077-3.671c0.045-0.513-0.055-1.043-0.096-1.553c-0.024-0.311-0.028-0.66-0.175-0.942
		c0.169-0.783,0.707-1.562,1.076-2.263c2.176,0.191,4.402,0.06,6.587,0.066c0.746,0.002,1.621-0.133,2.345,0.072
		c0.547,0.154,1.133,0.271,1.602,0.607c0.62,0.443,1.196,0.948,1.809,1.401c0.563,0.419,1.168,0.988,1.919,0.697
		c0.636-0.248,1.175-0.776,1.708-1.188c0.725-0.559,1.557-1.327,2.5-1.507c0.746-0.142,1.641-0.015,2.396-0.022
		c0.846-0.007,1.69-0.015,2.535-0.021c1.674-0.015,3.373,0.039,5.045-0.093c0.159,0.271,0.315,0.559,0.399,0.778
		c0.4,1.052-0.408,2.116-0.471,3.167c-0.071,1.212,0.494,2.39,0.491,3.606c-0.006,2.493-1.254,5.02-1.945,7.375
		c-0.315,1.075-0.384,2.283-0.765,3.323c-0.37,1.009-1.366,1.752-2.001,2.599c-0.977,1.308-1.713,2.975-2.877,4.13
		c0.001,0,0.003-0.002,0.006-0.005l0,0c0-0.001,0.001-0.001,0.002-0.002l0,0c0.001-0.002,0.006-0.003,0.008-0.007
		c-0.004,0.007-0.01,0.012-0.015,0.019v-0.001v0.001C51.739,64.881,51.199,65.703,50.507,66.142
		C49.52,66.768,50.693,66.023,50.507,66.142z M64.21,69.39c-0.211,0-1.056,0.094-1.172-0.191c-0.11-0.271,0.721-0.899,0.859-1.065
		c0.663-0.801,1.035-1.862,0.596-2.859c-1.094-2.486-4.84-2.538-7.05-2.071c-0.778,0.164-1.802,0.222-2.625,0.162
		c1.077-1.38,2.212-2.741,3.219-4.173c0.523-0.746,0.714-1.615,0.866-2.497c0.17-0.99,0.435-1.96,0.724-2.924
		c0.45-1.498,0.992-2.975,1.415-4.48c0.271-0.962,0.461-1.96,0.405-2.964c-0.06-1.044-0.434-2.058-0.422-3.107
		c0.685,2.08,1.482,5.19,1.167,7.699c-0.136,1.083-0.444,2.151-0.979,3.106c-0.379,0.676-1.726,1.738-1.336,2.606
		c0.228,0.511,0.811,0.545,1.298,0.545c0.221,0.186,0.306,0.702,0.445,0.951c0.248,0.441,0.594,0.841,0.946,1.2
		c0.845,0.861,1.856,1.561,2.902,2.152c1.063,0.6,2.181,1.091,3.283,1.61c0.958,0.452,2.326,0.94,3.019,1.772
		c-0.048,0.097-0.105,0.227-0.179,0.396c-1.128,2.594-2.086,3.289-5.319,3.936C64.854,69.381,64.567,69.388,64.21,69.39z"/>
	<path d="M43.4,39.217c0.586,0.45,1.2,0.904,1.952,0.56c0.668-0.308,1.221-0.859,1.8-1.303c0.879-0.676,0.763-1.613,0.755-2.637
		c-0.004-0.752-0.011-1.505-0.016-2.257c-0.295-0.283-0.584-0.569-0.897-0.83c-0.562-0.47-1.392-1.331-2.171-1.331
		c-0.767,0-1.555,0.774-2.102,1.232c-0.35,0.292-0.676,0.61-1.008,0.922v4.176C42.258,38.262,42.804,38.762,43.4,39.217z
		 M43.118,34.182c0.5-0.478,1.07-1.018,1.693-1.329c0.592,0.382,1.177,0.837,1.68,1.33c0.006,0.903,0.226,2.174-0.019,3.036
		c-0.465,0.447-1.11,1.013-1.69,1.273c-0.599-0.348-1.166-0.87-1.664-1.349V34.182L43.118,34.182z"/>
</g>
</svg>
