<?xml version="1.0" encoding="utf-8"?>
<!-- Generator: Adobe Illustrator 16.0.0, SVG Export Plug-In . SVG Version: 6.00 Build 0)  -->
<!DOCTYPE svg PUBLIC "-//W3C//DTD SVG 1.1//EN" "http://www.w3.org/Graphics/SVG/1.1/DTD/svg11.dtd">
<svg version="1.1" id="Layer_1" xmlns="http://www.w3.org/2000/svg" xmlns:xlink="http://www.w3.org/1999/xlink" x="0px" y="0px"
	 width="90px" height="90px" viewBox="0 0 90 90" enable-background="new 0 0 90 90" xml:space="preserve">
<path d="M68.362,32.804c-0.271-0.412-0.493-0.783-0.493-0.826c0-0.206,1.24,0.534,3.32,1.98c0.616,0.428,1.273,0.883,1.46,1.012
	c0.916,0.629,0.993,0.189,0.234-1.341c-2.242-4.527-5.07-8.342-8.314-11.216c-1.34-1.188-1.46-1.169,2.762-0.428
	c3.205,0.562,3.418,0.581,3.418,0.293c0-0.493-6.981-3.868-15.4-7.444c-1.628-0.692-3.248-1.384-3.6-1.538
	c-0.869-0.381-1.166-0.385-4.8-0.064c-1.672,0.147-3.67,0.323-4.44,0.391s-3.002,0.253-4.96,0.413
	c-1.958,0.159-3.69,0.323-3.851,0.364c-0.306,0.078-0.626,0.362-4.89,4.33c-2.411,2.244-2.214,2.121-3.939,2.456
	c-1.932,0.375-1.95,0.39-3.082,2.487c-2.21,4.096-4.126,9.98-5.559,17.063c-0.609,3.014-0.52,3.117,1.277,1.461
	c1.554-1.433,1.361-1.529,1.93,0.959c0.54,2.363,0.538,2.302,0.068,2.51c-0.23,0.102-0.591,0.385-0.915,0.721
	c-2.553,2.635-1.908,7.6,1.516,11.677c0.89,1.059,0.979,1.037-1.636,0.403c-3.021-0.732-3.169-0.741-3.873-0.23
	c-0.494,0.358-0.604,0.631-0.596,1.476c0.009,0.927-0.146,0.545,2.407,5.92c0.418,0.88,1.166,2.464,1.662,3.52
	c3.459,7.366,3.19,6.972,4.708,6.909c1.19-0.05,1.363-0.286,2.166-2.95c2.366-7.849,2.369-7.856,2.492-7.896
	c0.047-0.015,0.786,0.679,1.64,1.542c4.693,4.738,8.142,6.942,11.634,7.435c6.128,0.865,10.197-1.003,16.813-7.719
	c1.095-1.111,1.234-1.228,1.344-1.118c0.132,0.132,0.406,0.994,1.936,6.078c1.41,4.686,1.378,4.635,2.868,4.638
	c1.167,0.003,1.294-0.132,2.483-2.638c2.704-5.7,3.796-8.011,3.796-8.035c0-0.015,0.489-1.047,1.085-2.296
	c1.64-3.429,1.713-3.842,0.821-4.68c-0.723-0.681-1.124-0.685-3.764-0.035c-2.687,0.66-2.736,0.656-2.042-0.16
	c0.231-0.271,0.501-0.615,0.601-0.764c0.213-0.318,0.367-0.336,0.959-0.11c1.027,0.39,1.084,0.266,0.859-1.863
	c-0.065-0.625-0.174-1.658-0.24-2.296c-0.694-6.693-0.648-6.368-1.194-8.48c-0.643-2.488-0.612-2.342-0.53-2.474
	c0.085-0.139,0.086-0.138,2.924,1.037c5.37,2.224,5.325,2.208,5.479,1.919C75.234,44.584,71.645,37.791,68.362,32.804z
	 M70.189,60.189c0,0.406-1.998,4.363-2.203,4.363c-0.217,0-1.925-3.221-1.833-3.459C66.281,60.758,70.189,59.883,70.189,60.189z
	 M62.907,71.492c-0.397-1.306-0.388-1.457,0.103-1.578c0.187-0.046,0.699-0.189,1.139-0.317c1.474-0.43,1.68-0.438,1.618-0.064
	c-0.053,0.318-1.703,3.801-1.9,4.01C63.612,73.812,63.612,73.813,62.907,71.492z M24.038,65.752c-0.174-0.418-0.554-1.3-0.846-1.96
	c-0.292-0.66-0.604-1.37-0.695-1.579c-0.323-0.737-0.165-0.763,1.798-0.292c1.985,0.476,1.884,0.338,1.407,1.911
	c-0.18,0.594-0.427,1.411-0.547,1.815C24.733,67.053,24.584,67.066,24.038,65.752z M21.862,72.492
	c-1.7-3.509-1.697-3.459-0.182-3.009c0.39,0.116,0.946,0.27,1.237,0.34c0.947,0.232,0.935,0.159,0.342,2.098
	C22.587,74.118,22.64,74.097,21.862,72.492z M19.404,62.771c-0.857,1.607-0.989,1.801-1.177,1.729
	c-0.213-0.082-2.156-4.132-2.079-4.333c0.063-0.165,0.51-0.099,2.258,0.335C20.547,61.033,20.45,60.812,19.404,62.771z
	 M26.43,60.232c-0.338,0-1.548-0.584-2.296-1.11c-0.34-0.238-0.551-0.33-0.758-0.33c-0.319,0-0.417-0.086-0.501-0.44
	c-0.036-0.15-0.289-0.465-0.675-0.84c-3.119-3.029-4.195-7.641-2.278-9.763c0.313-0.348,0.462-0.393,0.578-0.175
	c0.042,0.079,0.388,1.509,0.769,3.18c0.38,1.671,0.848,3.722,1.04,4.558c0.191,0.836,0.372,1.646,0.401,1.8
	c0.275,1.438,0.474,1.261,1.235-1.104c0.895-2.777,0.729-2.924,2.099,1.864c0.764,2.67,0.927,2.553,0.818-0.59
	c-0.152-4.379-0.116-4.721,0.417-3.875c0.415,0.658,0.654,0.898,1.112,1.115l0.4,0.189h4.84h4.84l0.4-0.189
	c0.543-0.257,0.774-0.527,1.151-1.349c0.25-0.546,0.357-0.7,0.484-0.7c0.151,0,1.257,0.984,3.324,2.955
	c3.397,3.24,4.779,4.485,4.981,4.485c0.292,0,0.286-0.013-3.092-6.194c-1.861-3.404-1.867-3.423-1.137-3.286
	c0.707,0.133,0.817,0.288,1.537,2.159c0.859,2.234,0.524,2.13,6.772,2.102l4.871-0.021l0.394-0.244
	c0.239-0.147,0.518-0.422,0.708-0.7c0.681-0.988,0.724-0.778,0.558,2.708c-0.218,4.593-0.085,4.534,1.368-0.605
	c0.483-1.709,0.551-1.786,1.239-1.392c0.198,0.113,0.846,0.459,1.44,0.77c2.153,1.123,2.089,0.918,0.7,2.271
	c-1.498,1.458-3.641,2.832-4.417,2.832c-0.329,0-0.442,0.139-0.681,0.834c-0.555,1.612-1.835,3.202-4.763,5.913
	c-4.421,4.095-7.208,5.454-11.16,5.441c-4.312-0.014-7.23-1.588-12.288-6.626c-2.493-2.484-2.867-2.972-3.6-4.71
	C26.926,60.367,26.806,60.232,26.43,60.232z M29.2,39.528c0.187-0.291,0.358-0.184,0.802,0.504c1.243,1.925,2.562,3.877,3.287,4.863
	c1.158,1.575,1.322,1.446-1.9,1.497c-2.906,0.046-2.713,0-3.815,0.92c-0.988,0.827-1.098,0.635-0.582-1.016
	C28.139,42.626,29.098,39.687,29.2,39.528z M44.202,44c1.907,1.148,3.537,2.154,3.622,2.236c0.231,0.225,0.127,0.363-1.034,1.374
	c-0.572,0.498-1.144,1.004-1.271,1.124c-0.259,0.245-0.338,0.252-1.476,0.143c-0.824-0.08-0.982-0.166-1.186-0.642
	c-0.977-2.293-2.374-5.79-2.406-6.021C40.381,41.719,40.534,41.792,44.202,44z M57.183,47.955c0.142,0.067,0.502,0.339,0.801,0.604
	c1.254,1.114,1.268,1.221,0.375,3.005c-0.416,0.831-0.735,1.366-0.895,1.5l-0.248,0.208l-4.454,0c-5.348,0-4.772,0.139-5.329-1.289
	c-0.68-1.744-0.771-2.043-0.689-2.26c0.088-0.23,1.582-1.58,1.951-1.762C49.073,47.775,56.792,47.77,57.183,47.955z M38.349,53.052
	l-0.243,0.22h-4.458c-5.371,0-4.699,0.189-5.603-1.588c-0.933-1.834-0.911-2.063,0.29-3.101c0.338-0.292,0.722-0.579,0.854-0.638
	c0.379-0.169,8.116-0.162,8.468,0.008c0.577,0.279,1.93,1.585,1.956,1.889C39.65,50.273,38.669,52.761,38.349,53.052z
	 M63.915,61.697c0.021,0.057-0.127,0.498-0.331,0.979s-0.508,1.2-0.676,1.596c-1.061,2.507-1.251,2.796-1.48,2.248
	c-0.152-0.364-1.158-3.765-1.158-3.915C60.269,62.245,63.788,61.368,63.915,61.697z"/>
</svg>
