<?xml version="1.0" encoding="utf-8"?>
<!-- Generator: Adobe Illustrator 16.0.0, SVG Export Plug-In . SVG Version: 6.00 Build 0)  -->
<!DOCTYPE svg PUBLIC "-//W3C//DTD SVG 1.1//EN" "http://www.w3.org/Graphics/SVG/1.1/DTD/svg11.dtd">
<svg version="1.1" id="Layer_1" xmlns="http://www.w3.org/2000/svg" xmlns:xlink="http://www.w3.org/1999/xlink" x="0px" y="0px"
	 width="90px" height="90px" viewBox="0 0 90 90" enable-background="new 0 0 90 90" xml:space="preserve">
<g>
	<path d="M51.012,48.094c0.017-3.454-0.434-3.516-2.089-3.512c-1.522,0.004-2.486,0.025-3.999-0.021
		c-1.824-0.056-3.821-0.098-5.986-0.099c-2,0-1.386,3.83-1.366,5.115c0.031,2.095,0.131,3.209,2.488,3.324
		c2.483,0.12,4.965-0.169,7.446-0.068C51.136,52.982,51.077,51.266,51.012,48.094z M48.756,50.562
		c-2.229,0.021-4.458,0.033-6.688,0.06c-1.143,0.014-2.273,0.535-2.289-0.799c-0.012-1.015-0.021-2.031-0.011-3.046
		c2.096-0.005,4.192,0.045,6.288,0.057c1.163,0.006,2.798-0.491,2.818,0.884C48.89,48.686,48.776,49.595,48.756,50.562z"/>
	<path d="M69.149,49c-0.696-0.012-1.165,0-1.165,0c0-2.208,0.016-6.622,0.016-8.829c0-4.707,0-9.414,0-14.12
		c0-2.157,0-4.314,0-6.471c0-1.396,0.178-3.947-1.136-5.712c-1.947-2.618-5.27-2.253-8.656-2.253
		c-7.565,0-15.018,0.166-22.583,0.166c-5.702,0-14.537-1.733-15.183,6.005c-0.658,7.889-0.104,15.963-0.108,23.876
		c-0.002,4.116-0.056,8.199-0.095,12.313c-0.039,4.083,3.137,6.079,6.93,6.092C36.083,60.1,44.717,60,53.455,60
		c2.223,0,4.446,0,6.67,0c0.005,0.314,0.238,2.813-0.344,2.813c-1.29,0-5.847-0.368-6.26,1.348c-0.707,2.939-0.542,6.346-0.49,9.339
		c0.035,1.965-0.095,6.079,0.364,7.021c0.297,0.609,7.561,1.136,7.992-0.53c0.214-0.824,0.175-3.262,0.237-4.553
		c0.521-0.167,1.13-0.072,1.609-0.063c1.501,0.028,1.092-0.156,2.578-0.229c1.25-0.061,1.309-2.754,1.354-3.417
		c0.04-0.575-0.068-1.799,0.099-2.011c0.548-0.693,2.568-0.388,4.227-0.404c1.954-0.02,2.509,0.208,2.508-1.706
		c-0.001-1.956-0.004-3.912-0.007-5.867c-0.004-2.975,0.039-5.947,0.056-8.921C74.068,49.335,72.563,49.125,69.149,49z
		 M22.833,17.833c0.042-3.958,4.281-3.976,7.792-3.917c7.361,0.124,14.599-0.168,21.96-0.164c3.044,0.001,6.174,0.011,9.207,0.247
		c3.499,0.272,4.218,2.525,4.211,5.628c-0.012,4.686-0.108,9.064-0.021,13.749c-1.234,0.021-2.312-0.021-3.545-0.032
		c-0.001-1.111-0.074-1.91-0.076-3.021c-0.005-3.237-3.334-2.845-5.517-2.856c0.015-1.979,0.438-4.68-2.032-5.516
		c-1.905-0.644-4.975-0.315-6.968-0.328c-2.499-0.016-4.127,1.025-4.031,3.813c0.08,2.548-0.171,2.185-2.536,2.234
		c-2.695,0.056-3.022,2.662-2.985,4.825c0.021,1.254-2.26,1.159-3.5,1.149c-4.048-0.035-8.108-0.171-12.155-0.087
		C22.636,28.369,22.26,22.997,22.833,17.833z M51.311,57.246c-7.68,0.112-15.341-0.033-23.019-0.204
		c-5.611-0.125-5.16-4.265-5.084-8.661c0.073-4.257-0.088-8.516-0.095-12.773c3.787,0,7.575-0.006,11.363-0.009
		c1.16-0.001,3.396,0.17,4.499-0.342c3.068-1.426-0.115-5.57,3.431-5.615c0.979-0.012,1.695,0.04,2.664-0.122
		c1.1-0.184,0.762-1.33,0.783-2.332c0.019-0.802-0.104-3.219,0.699-3.358c1.339-0.232,2.963-0.069,4.318-0.08
		c0.796,0.005,3.079-0.404,3.63,0.366c0.461,0.645,0.169,2.074,0.146,2.818c-0.087,2.827,0.138,2.638,2.786,2.667
		c0.963,0.011,2.481-0.448,2.66,0.899c0.167,1.268,0.043,2.663,0.063,3.938c0.023,1.5,2.194,1.083,3.266,1.094
		c0.292,0.003,1.801,0.014,1.995,0.234c0.002,1.353,0.02,2.351,0.018,3.703c-0.003,2.653-0.027,5.305-0.014,7.957
		c0.02,3.658,0.496,9.783-3.924,9.82C58.102,57.275,54.706,57.249,51.311,57.246z M71.839,67.166
		c-4.733,0.092-6.874-0.277-7.026,3.616c-0.05,1.263,0.281,2.531-0.688,2.56c-1.522,0.045-3.691-0.154-4.313,0.565
		c-0.5,0.578,0.301,4.945-1.208,5.01c-3.508,0.151-3.607,0.133-3.594-2.095c0.02-3.399,0.021-7.291,0.174-10.695
		c0.066-1.475,2.024-1.255,3.182-1.249c3.007,0.018,3.854-0.186,3.915-3.128c0.045-2.201,0.221-1.461,2.063-1.896
		c1.085-0.255,2.031-0.999,2.692-1.879c1.509-2.007,0.964-4.516,0.964-6.892c1.373-0.014,3.812-0.417,3.849,1.133
		c0.038,1.592,0.173,3.201,0.169,4.789C72.012,60.563,71.905,63.61,71.839,67.166z"/>
</g>
</svg>
