<?xml version="1.0" encoding="utf-8"?>
<!-- Generator: Adobe Illustrator 16.0.0, SVG Export Plug-In . SVG Version: 6.00 Build 0)  -->
<!DOCTYPE svg PUBLIC "-//W3C//DTD SVG 1.1//EN" "http://www.w3.org/Graphics/SVG/1.1/DTD/svg11.dtd">
<svg version="1.1" id="Layer_1" xmlns="http://www.w3.org/2000/svg" xmlns:xlink="http://www.w3.org/1999/xlink" x="0px" y="0px"
	 width="90px" height="90px" viewBox="0 0 90 90" enable-background="new 0 0 90 90" xml:space="preserve">
<path d="M77.71,43.381c-3.177-2.959-5.655-6.279-8.122-10.88c-7.006-13.065-14.578-17.504-27.84-16.316
	c-3.375,0.303-5.952,0.98-8.406,2.211c-0.773,0.389-1.48,0.706-1.57,0.706c-2.11,0-7.177,4.384-11.092,9.6
	c-2.828,3.768-4.595,7.2-5.126,9.96c-0.076,0.396-0.154,0.8-0.173,0.897c-0.034,0.175-0.04,0.173-0.5-0.097
	c-2.827-1.657-4.252-1.858-5.26-0.742c-1.096,1.213-0.81,2.438,1.405,6.021c0.625,1.012,1.387,2.362,1.693,3
	c3.7,7.718,6.483,11.764,9.159,13.313c0.608,0.353,0.679,0.421,1.062,1.048c0.571,0.937,1.258,1.828,2.074,2.696
	c0.384,0.408,0.784,0.886,0.89,1.063c1.952,3.246,6.151,5.789,11.364,6.881c3.105,0.651,3.874,0.691,6.119,0.317
	c5.417-0.9,8.39-2.079,10.941-4.34c0.4-0.354,0.712-0.547,1.2-0.74c2.272-0.9,5.017-2.539,7.619-4.548
	c3.177-2.452,5.878-5.177,10.001-10.085c3.135-3.733,3.867-4.547,5.107-5.678C79.604,46.44,79.418,44.972,77.71,43.381z
	 M30.612,51.409c-0.088-0.276-0.233-0.733-0.278-1.022c1.393,0.087,2.683,0.755,4.046,1.46c1.012,0.523,2.059,1.065,3.18,1.371
	c0.178,0.048,0.36,0.072,0.543,0.072c0.611,0,1.099-0.271,1.302-0.726c0.093-0.208,0.249-0.758-0.311-1.385
	c-0.633-0.708-1.451-1.254-2.174-1.735l-0.22-0.146c-1.307-0.876-2.747-1.735-4.283-2.556c-0.192-0.102-0.432-0.2-0.708-0.313
	c-0.371-0.151-1.241-0.508-1.382-0.729c-0.326-0.688,0.001-2.438,0.196-3.484c0.065-0.35,0.127-0.68,0.166-0.954
	c0.266-1.879,0.698-3.678,1.287-5.347c0.016-0.046,0.043-0.123,0.07-0.195c0.189,0.024,0.47,0.082,0.705,0.131
	c2.019,0.416,3.938,1.23,5.384,1.895c0.276,0.127,0.526,0.249,0.758,0.362c0.848,0.416,1.518,0.744,2.363,0.744
	c0.609,0,1.241-0.177,1.987-0.558c2.188-1.115,4.184-1.894,6.101-2.38c0.624-0.159,1.312-0.32,1.681-0.32
	c0.041,0,0.071,0.002,0.093,0.004c0.02,0.046,0.049,0.135,0.084,0.305c0.135,0.662,0.279,1.319,0.422,1.976
	c0.253,1.155,0.514,2.351,0.722,3.544l0.044,0.249c0.208,1.178,0.49,2.777,0.256,3.886c-0.248,0.197-1.02,0.498-1.363,0.632
	c-0.29,0.113-0.52,0.203-0.685,0.29c-0.88,0.461-1.768,0.964-2.713,1.538c-0.166,0.101-0.335,0.201-0.505,0.304
	c-1.299,0.779-2.771,1.663-3.872,2.826c-0.416,0.439-0.557,1.023-0.356,1.487c0.184,0.428,0.615,0.684,1.151,0.684l0.048-0.001
	c0.949-0.023,1.814-0.488,2.576-0.897c0.242-0.13,0.47-0.253,0.683-0.352c1.322-0.615,2.524-1.086,3.673-1.44
	c0.071-0.021,0.164-0.054,0.271-0.091c0.176-0.063,0.459-0.162,0.694-0.216c-0.057,0.29-0.191,0.704-0.275,0.96
	c-0.304,0.936-0.592,1.819-0.004,2.404c0.132,0.132,0.368,0.29,0.742,0.289l0,0c0.66,0,1.83-0.576,3.992-1.974
	c-0.497,1.61-0.671,3.245-0.84,4.837c-0.118,1.118-0.241,2.275-0.477,3.389c-0.67,3.175-2.092,5.371-4.473,6.912
	c-2.715,1.758-6.143,2.727-9.65,2.727c-5.563,0-10.411-2.404-12.967-6.431c-0.938-1.478-1.494-3.023-1.701-4.728
	c-0.077-0.636-0.106-1.36-0.138-2.128c-0.06-1.47-0.124-3.085-0.558-4.502c1.922,1.26,3.195,1.98,3.938,1.98
	c0.214,0,0.407-0.052,0.571-0.154C31.243,53.387,30.908,52.336,30.612,51.409z M42.928,19.254c0.823-0.061,1.646-0.092,2.446-0.092
	c4.156,0,7.84,0.814,10.652,2.355c3.833,2.1,7.462,6.248,10.494,11.997c1.211,2.296,1.913,3.502,2.89,4.963
	c0.277,0.415,0.563,0.825,0.854,1.229c-0.422-0.045-0.928,0.093-1.5,0.407c-0.286,0.156-0.762,0.416-1.058,0.577
	c-0.289,0.156-0.713,0.412-0.928,0.578c-0.092,0.071-0.324,0.211-0.475,0.277c-0.184,0.081-0.402,0.212-0.599,0.347
	c0.11-1.3-0.017-3.648-0.396-4.336c-0.367-0.663-0.397-0.758-0.458-1.014c-0.074-0.316-0.26-0.754-0.44-1.038
	c-0.104-0.163-0.261-0.472-0.33-0.646c-0.112-0.285-0.335-0.69-0.518-0.943c-0.113-0.156-0.303-0.491-0.398-0.703
	c-0.027-0.062-0.277-0.606-0.505-0.852c-0.04-0.046-0.183-0.25-0.317-0.477c-0.611-1.032-1.269-1.949-1.952-2.728
	c-0.154-0.176-0.392-0.474-0.507-0.638c-0.789-1.121-1.439-1.859-3.166-3.592c-1.811-1.817-2.477-2.389-3.96-3.396
	c-0.245-0.166-0.509-0.355-0.594-0.422c-0.588-0.464-1.541-0.514-1.924-0.514c-0.412,0-1.003,0.052-1.481,0.296
	c-0.712,0.364-1.661,0.916-2.063,1.267c-0.175,0.153-0.556,0.455-0.831,0.66c-0.313,0.232-0.815,0.644-1.121,0.917
	c-0.502,0.449-0.549,0.449-0.722,0.449c-0.127,0-0.3-0.018-0.468-0.036c-0.449-0.05-1.184-0.08-1.961-0.08
	c-0.389,0-1.344,0.009-1.817,0.089c-0.527,0.089-0.877,0.141-1.106,0.141c-0.206,0-0.262,0-0.716-0.409
	c-0.345-0.312-0.9-0.771-1.239-1.027c-0.315-0.238-0.756-0.577-0.982-0.756c-0.273-0.217-0.698-0.489-0.988-0.634
	c-0.075-0.038-0.15-0.08-0.218-0.121C36.671,20.162,39.224,19.529,42.928,19.254z M68.727,42.222
	c-0.438,0.725-0.982,1.539-1.266,1.962c-0.33,0.493-0.507,0.759-0.6,0.927c-0.435,0.785-0.821,1.598-1.195,2.384
	c-0.337,0.708-0.686,1.44-1.061,2.132l-0.071,0.133c-0.859,1.584-1.746,3.223-2.746,4.729c-0.089,0.135-0.199,0.311-0.326,0.513
	c-0.585,0.933-1.053,1.601-1.428,2.073c0.015-0.038,0.026-0.071,0.036-0.104c0.134-0.442,0.29-0.89,0.441-1.321
	c0.205-0.588,0.417-1.195,0.589-1.827l0.134-0.495c0.39-1.435,0.793-2.919,1.104-4.418C62.994,45.756,65.749,43.815,68.727,42.222z
	 M62.272,57.03c0.209-0.307,0.615-0.898,0.902-1.315c0.31-0.45,0.67-1.033,0.821-1.329c0.126-0.247,0.296-0.509,0.348-0.569
	c0.182-0.216,0.396-0.603,0.516-0.871c0.082-0.186,0.169-0.342,0.201-0.391c0.068-0.086,0.263-0.37,0.946-1.647l0.031-0.058
	c0.997-1.864,0.997-1.864,1.591-3.14l0.015-0.03c0.534-1.146,1.061-2.137,1.408-2.648c0.139-0.204,0.372-0.613,0.531-0.931
	c0.133-0.266,0.32-0.549,0.377-0.615c0.17-0.194,0.385-0.513,0.511-0.76c0.078-0.152,0.259-0.45,0.387-0.637
	c0.27-0.391,0.398-0.725,0.442-1.005c1.234,1.572,2.574,3.05,4.007,4.414l0.099,0.095c0.059,0.055,0.119,0.112,0.174,0.166
	c-0.139,0.156-0.353,0.374-0.561,0.587l-0.146,0.148c-0.621,0.637-1.385,1.465-1.702,1.848c-0.305,0.366-0.77,0.918-1.031,1.225
	c-0.266,0.311-0.861,1.024-1.329,1.592c-3.356,4.071-6.546,7.335-9.224,9.437c-1.42,1.113-3.481,2.525-4.502,3.082
	c-0.326,0.179-0.661,0.355-0.986,0.524c0.092-0.141,0.325-0.455,0.599-0.763c0.31-0.35,0.702-0.834,0.853-1.085
	c0.083-0.138,0.245-0.363,0.341-0.476c0.197-0.23,0.438-0.651,0.573-0.946c0.281-0.612,0.621-0.998,1.102-1.25
	C60.4,59.242,61.639,57.956,62.272,57.03z M21.403,56.153c-2.095-2.861-3.737-5.974-5.067-8.642
	c-0.967-1.938-1.824-3.509-2.695-4.937c0.501,0.3,1.125,0.689,1.889,1.189l0.406,0.264c1.509,0.979,3.069,1.99,3.864,3.495
	c0.208,0.394,0.274,0.975,0.339,1.538c0.042,0.372,0.087,0.757,0.172,1.124c0.069,0.296,0.134,0.597,0.198,0.898
	c0.161,0.747,0.327,1.52,0.568,2.262c0.133,0.41,0.26,0.829,0.389,1.253c0.265,0.87,0.535,1.76,0.868,2.622
	C22.023,56.919,21.7,56.56,21.403,56.153z M53.966,41.393l-0.044-0.246c-0.214-1.227-0.479-2.438-0.734-3.61
	c-0.142-0.649-0.284-1.3-0.419-1.956c-0.089-0.434-0.325-1.587-1.743-1.587c-0.516,0-1.176,0.142-2.074,0.369
	c-2.034,0.517-4.139,1.336-6.434,2.506c-0.513,0.262-0.913,0.384-1.261,0.384c-0.475,0-0.946-0.231-1.659-0.581
	c-0.242-0.119-0.505-0.247-0.795-0.381c-1.523-0.698-3.551-1.558-5.728-2.006c-0.531-0.109-0.875-0.177-1.174-0.177
	c-0.985,0-1.244,0.737-1.434,1.276c-0.624,1.768-1.082,3.67-1.362,5.653c-0.034,0.24-0.112,0.551-0.154,0.885
	c-0.221,1.779-1.267,4.229,0.137,9.973c0.022,0.092,0.062,0.192,0.094,0.297c-0.527-0.27-1.397-0.784-2.824-1.729
	c-0.271-0.18-0.451-0.299-0.558-0.361c-0.48-0.284-0.854-0.417-1.172-0.417c-0.365,0-0.684,0.178-0.854,0.475
	c-0.316,0.552,0.041,1.162,0.158,1.362c0.771,1.318,0.854,3.339,0.926,5.122c0.032,0.8,0.063,1.556,0.147,2.256
	c0.155,1.273,0.498,2.5,1.018,3.666c-0.474-0.557-0.789-1.021-1.294-1.863l-0.551-0.92l-0.035-0.02
	c0.164-0.078,0.304-0.2,0.401-0.361c0.334-0.551-0.003-1.195-0.13-1.438c-0.607-1.162-1.02-2.519-1.419-3.831
	c-0.132-0.433-0.262-0.861-0.397-1.28c-0.217-0.665-0.373-1.396-0.525-2.104c-0.066-0.312-0.134-0.621-0.205-0.926
	c-0.064-0.277-0.102-0.601-0.141-0.942c-0.077-0.677-0.165-1.444-0.514-2.104c-0.755-1.429-1.99-2.452-3.244-3.318
	c-0.024-0.087-0.054-0.187-0.09-0.3c-0.465-1.494-0.487-2.767-0.078-4.497c1.271-5.366,9.264-15.187,13.457-17.021l1.715,0.594
	c0.064,0.022,0.186,0.093,0.221,0.123c0.199,0.188,0.57,0.415,0.832,0.546c0.189,0.096,0.529,0.313,0.712,0.458
	c0.234,0.186,0.688,0.534,1.012,0.778c0.302,0.229,0.82,0.658,1.132,0.938c0.533,0.481,0.974,0.821,1.787,0.821
	c0.345,0,0.732-0.055,1.373-0.163c0.195-0.033,0.751-0.066,1.551-0.066c0.711,0,1.395,0.026,1.783,0.07
	c0.214,0.023,0.44,0.046,0.646,0.046c0.774,0,1.191-0.324,1.788-0.856c0.271-0.243,0.733-0.621,1.009-0.826
	c0.313-0.232,0.72-0.557,0.929-0.737c0.211-0.186,0.961-0.65,1.74-1.049c0.108-0.056,0.371-0.121,0.752-0.121
	c0.495,0,0.854,0.111,0.934,0.17c0.14,0.11,0.459,0.336,0.687,0.49c1.394,0.945,1.984,1.453,3.725,3.2
	c1.669,1.676,2.257,2.339,2.991,3.383c0.149,0.212,0.418,0.552,0.613,0.773c0.618,0.704,1.217,1.541,1.777,2.487
	c0.112,0.189,0.34,0.549,0.503,0.729c0.041,0.058,0.147,0.24,0.237,0.44c0.143,0.316,0.384,0.739,0.561,0.983
	c0.104,0.145,0.263,0.433,0.326,0.593c0.107,0.272,0.309,0.666,0.468,0.916c0.082,0.131,0.2,0.406,0.233,0.548
	c0.111,0.473,0.224,0.714,0.608,1.409c0.173,0.426,0.337,2.629,0.182,3.691c-0.063,0.434-0.095,0.908,0.067,1.299
	c-1.629,1.367-2.919,3.063-3.379,5.274c-0.302,1.452-0.698,2.912-1.082,4.325l-0.135,0.495c-0.156,0.577-0.35,1.131-0.555,1.718
	c-0.156,0.447-0.318,0.911-0.457,1.37c-0.02,0.053-0.063,0.147-0.115,0.268c-0.428,0.967-0.712,1.686-0.578,2.236
	c-0.33,0.344-0.606,0.761-0.84,1.269c-0.001,0.002-0.001,0.003-0.002,0.004c0.214-1.098,0.332-2.197,0.445-3.263
	c0.206-1.945,0.401-3.782,1.143-5.544c0.082-0.196,0.332-0.792,0-1.292c-0.183-0.274-0.486-0.432-0.835-0.432
	c-0.356,0-0.764,0.161-1.321,0.521l-0.195,0.128c-1.466,0.963-2.341,1.46-2.856,1.717c0.036-0.115,0.072-0.229,0.104-0.329
	C54.431,48.926,54.662,46.521,53.966,41.393z"/>
</svg>
