<?xml version="1.0" encoding="utf-8"?>
<!-- Generator: Adobe Illustrator 16.0.0, SVG Export Plug-In . SVG Version: 6.00 Build 0)  -->
<!DOCTYPE svg PUBLIC "-//W3C//DTD SVG 1.1//EN" "http://www.w3.org/Graphics/SVG/1.1/DTD/svg11.dtd">
<svg version="1.1" id="Layer_1" xmlns="http://www.w3.org/2000/svg" xmlns:xlink="http://www.w3.org/1999/xlink" x="0px" y="0px"
	 width="90px" height="90px" viewBox="0 0 90 90" enable-background="new 0 0 90 90" xml:space="preserve">
<path d="M67.088,43.434c-1.181-0.38-0.427-0.848-0.102-1.654c0.646-1.593,1.752-2.918,2.268-4.588
	c0.676-2.192,0.33-4.441-2.005-5.328c-2.326-0.884-4.936-0.234-7.315-0.842c-0.645-0.165-1.141-0.509-1.568-1.013
	c-0.455-0.536-0.873-1.034-1.459-1.44c-0.268-0.186-1.664-0.618-1.774-0.908c-0.055-0.143,1.542-2.204,1.687-2.527
	c0.533-1.186,0.864-2.463,1.059-3.746c0.304-2.006,0.527-4.925-0.872-6.615c-1.325-1.6-6.1,0.363-6.4-0.418
	c-0.887-2.309-2.846-5.379-5.267-6.226c-2.59-0.906-5.182,2.47-6.413,4.281c-0.949,1.397-0.693,2.09-2.358,1.796
	c-1.059-0.187-2.444-0.413-3.498-0.083c-2.108,0.662-2.248,3.822-2.145,5.595c0.041,0.704,2.195,8.496,2.966,7.917
	c-0.782,0.568-1.932,0.588-2.768,1.278c-0.724,0.598-1.577,1.977-2.496,2.17c-2.32,0.489-4.798-0.025-7.076,0.737
	c-1.977,0.661-2.731,2.555-2.342,4.511c0.292,1.464,1.001,2.834,1.779,4.094c0.223,0.362,1.433,2.103,1.374,2.558
	c0.02-0.151-4.835,2.113-5.33,2.583c-1.589,1.505-2.589,3.522-3.101,5.632c-1.234,5.085-0.05,10.827,2.367,15.396
	c4.996,9.443,15.573,13.89,25.837,14.292c10.254,0.403,21.32-2.862,27.549-11.51C74.649,62.483,77.846,46.904,67.088,43.434
	C66.279,43.173,73.1,45.373,67.088,43.434z M44.01,77.214c-12.039,0-25.233-6.603-26.598-19.791
	c-0.616-5.958,1.551-10.889,8.135-10.889c2.124,0,4.978,2.765,6.861,1.947c0.904-0.393,1.406-1.702,2.138-2.348
	c1.486-1.313,3.178-2.118,5.079-2.626c5.002-1.336,11.126-0.767,14.898,3.117c0.796,0.82,1.334,2.022,2.703,1.615
	c1.183-0.351,2.249-1.015,3.457-1.367c2.577-0.751,5.91-0.307,7.804,1.8c3.692,4.106,1.982,11.853-0.375,16.199
	C65.344,69.98,60.421,73.555,55,75.44C51.476,76.665,47.735,77.214,44.01,77.214z M53.064,24.651
	c-0.77,0.974-2.111,2.419-3.476,2.419c-0.337-0.009-0.929-0.548-1.391-0.593c-2.401-0.237-4.899-0.093-7.313-0.111
	c-0.638-0.004-0.901,0.172-1.483,0.458c-1.239,0.278-2.4-1.065-3.159-1.945c-0.731-0.848-3.046-7.415-1.453-7.415
	c1.407,0,3.694,1.893,4.925,1.135c0.877-0.54,1.228-2.753,1.803-3.678c0.797-1.28,1.821-2.295,2.961-3.259
	c0.34-0.298,2.215,2.581,2.441,2.928c0.677,1.046,0.89,2.373,1.193,3.551c0.566,2.197,2.813,0.423,3.95-0.163
	C56.616,15.633,54.498,22.837,53.064,24.651C51.88,26.15,54.628,22.672,53.064,24.651z M39.147,38.296
	c-1.018-1.057-1.933-2.233-2.688-3.488c-0.823-1.368-2.484-3.745-0.502-4.411c3.698-1.242,6.516-1.542,10.453-1.181
	c2.283,0.209,4.479,0.749,6.675,1.401c2.619,0.778-5.276,9.128-4.981,10.13c-2.378-0.595-5.317-0.432-7.685,0.093
	C40.798,39.885,39.714,38.884,39.147,38.296C38.51,37.634,40.17,39.357,39.147,38.296z M55.675,35.9
	c0.474-0.217,1.587-0.657,2.033-0.186c-1.988,2.197-4.14,3.09-6.982,3.726c1.892-2.012,4.199-4.81,4.536-7.658
	C56.418,33.179,54.8,34.636,55.675,35.9z M50.443,41.307c3.266-0.996,7.054-1.558,8.847-4.958c1.769,2.334,2.843,4.842,3.41,7.692
	c-1.279,0.06-2.441,0.492-3.671,0.797c-0.752,0.185-1.408,0.534-2.082,0.903c-0.461-0.572-0.991-1.097-1.534-1.59
	C54.434,43.258,51.165,41.089,50.443,41.307C50.626,41.251,50.377,41.327,50.443,41.307z M31.892,36.371
	c1.953,0,0.592-3.405,1.417-4.638c0.267,2.831,2.638,5.751,4.538,7.728c-2.347-0.5-4.825-1.257-6.435-3.156
	C31.572,36.327,31.732,36.349,31.892,36.371z M31.936,39.064c2.149,1.117,4.107,1.616,6.417,2.304
	c-2.263,0.631-4.401,1.88-6.033,3.58c-0.333,0.34-0.629,0.708-0.89,1.106c-0.678-0.338-1.301-0.779-2.017-1.04
	c-1.024-0.372-2.225-0.753-3.303-0.852c0.395-2.862,0.931-6.665,2.975-8.893C28.976,36.731,30.753,38.454,31.936,39.064
	C32.06,39.129,31.014,38.588,31.936,39.064z M31.003,32.86c-0.03,0.483,0.009,0.961,0.115,1.434
	c-0.555-0.277-1.086-0.249-1.592,0.085C29.547,33.667,30.485,33.314,31.003,32.86C30.975,33.339,30.497,33.304,31.003,32.86z
	 M63.097,33.799c1.038-0.01,3.74-0.251,4.103,1.189c0.399,1.579-1.217,3.605-1.957,4.856c-0.503-1.838-1.974-4.672-3.312-6.05
	C62.319,33.801,62.708,33.803,63.097,33.799C66.149,33.769,62.702,33.803,63.097,33.799z M25.66,33.798
	c0.378,0.002,0.757,0,1.136-0.006c-1.202,1.205-2.895,4.441-3.237,6.101c-0.738-1.257-2.286-3.151-1.999-4.743
	C21.841,33.592,24.562,33.791,25.66,33.798C26.041,33.801,20.976,33.765,25.66,33.798z"/>
</svg>
