<?xml version="1.0" encoding="utf-8"?>
<!-- Generator: Adobe Illustrator 16.0.0, SVG Export Plug-In . SVG Version: 6.00 Build 0)  -->
<!DOCTYPE svg PUBLIC "-//W3C//DTD SVG 1.1//EN" "http://www.w3.org/Graphics/SVG/1.1/DTD/svg11.dtd">
<svg version="1.1" id="Layer_1" xmlns="http://www.w3.org/2000/svg" xmlns:xlink="http://www.w3.org/1999/xlink" x="0px" y="0px"
	 width="90px" height="90px" viewBox="0 0 90 90" enable-background="new 0 0 90 90" xml:space="preserve">
<path d="M75.083,35.798c-0.594-0.084-3.504,0.425-3.394-0.301c0.296-1.963,0.231-3.982-0.213-5.918
	c-0.878-3.835-3.346-6.991-6.251-9.543c-5.731-5.037-13.115-8.096-20.792-8.034c-6.833,0.055-13.688,2.657-19.013,6.912
	c-2.45,1.958-4.615,4.346-6.045,7.155c-0.773,1.521-1.298,3.146-1.517,4.84c-0.104,0.805,0.308,5.087-0.44,5.029
	c-2.472-0.193-5.223-0.259-5.399,2.947c-0.232,4.198,1.477,8.277,2.938,12.122c1.143,3.011,2.741,6.052,4.21,9.243
	c1.997,4.338,4.431,8.027,7.942,10.521c1.406,0.999,2.178,0.71,2.453,2.604c0.236,1.625,2.381,2.752,3.878,3.234
	c1.86,0.6,3.867,0.723,5.805,0.554c2.005-0.174,4.539-1.598,6.474-0.989c2.784,0.875,5.616,1.396,8.528,0.752
	c1.393-0.309,2.744-0.905,3.787-1.896c1.331-1.266,0.341-3.112,2.903-4.186c3.67-1.537,5.032-4.587,7.069-7.859
	c0.956-1.535,2.271-2.775,3.19-4.354c1.138-1.95,2.115-4.006,2.992-6.085C75.316,49.873,80.938,36.666,75.083,35.798z
	 M23.969,25.582c6.226-7.307,16.135-11.476,25.7-9.609c8.852,1.727,20.15,9.248,18.531,19.539
	c-3.417-1.273-6.824-1.928-10.547-2.536c2.842-1.386,3.807-4.148,3.565-7.164c-0.284-3.551-3.377-5.748-6.655-6.519
	c-7.095-1.669-11.638,8.791-5.855,13.158c-2.72,0.012-5.44,0-8.16-0.003c6.16-4.989,0.76-14.723-7.416-12.528
	c-6.694,1.797-7.292,10.055-1.812,13.352c-1.894,0.095-3.934,0.543-5.788,0.933C24.284,34.469,23,34.875,21.41,35.21
	C20.645,30.359,20.974,29.097,23.969,25.582z M34.917,35.208c5.695-0.656,11.078-0.602,16.583-0.375
	c6.563,0.271,12.125,1.417,16.08,2.978c-0.271,1.37-2.324,0.765-4.538,0.23c-2.087-0.503-3.883-0.946-6.011-1.229
	c-4.085-0.544-8.19-0.75-12.311-0.771c-3.831-0.019-6.051,0.188-10.429,0.625c-2.29,0.229-5.439,0.571-7.5,0.958
	c-1.035,0.195-2.017,0.526-3.042,0.729c-1.12,0.221-1.987,0.809-2.29-0.563c2.04-0.749,4.119-1.297,6.259-1.666
	C30.411,35.661,32.566,35.479,34.917,35.208z M33.501,22.021c3.74-1.373,7.103,1.45,7.384,4.575c0,2.832-1.635,5.56-4.428,5.562
	C30.038,32.89,26.864,24.458,33.501,22.021z M49.125,29.688c-3.526-5.839,4.128-11.395,8.687-6.469
	C62.844,28.656,53.005,36.112,49.125,29.688z M75.44,40.682c-0.849,6.238-3.542,13.214-7.182,18.331
	c-2.111,2.97-3.808,6.353-6.559,8.8c-1.244,1.106-3.128,1.677-4.248,2.813c-1.003,1.018-0.259,2.453-1.879,3.341
	c-3.501,1.919-6.959,0.65-10.482-0.316c-1.315-0.362-3.027,0.826-4.311,1.085c-1.986,0.401-4.053,0.462-6.019-0.078
	c-1.194-0.328-2.688-0.913-3.162-2.179c-0.205-0.547-0.294-1.019-0.475-1.54c-0.213-0.616-1.127-1.04-1.628-1.317
	c-3.512-1.946-5.981-5.411-7.541-9.032c-1.869-4.341-4.104-8.354-5.685-12.829c-0.384-1.088-3.592-9.347-1.14-9.641
	c0.782-0.094,4.686,0.145,4.89,1.278c0.264,1.466,0.446,2.282,0.979,3.021c1.583,2.199-3.362,4.79,0.245,6.767
	c2.374,1.302,6.7-2.125,4.924-4.653c-0.789-1.123-0.923-1.36-0.627-2.822c0.129-0.637,0.162-0.876,0.375-1.497
	c0.859-0.355,4.441-0.814,5.417-0.962c8.602-1.3,16.458-1.345,25.084-0.337c1.792,0.209,4.735,0.7,7.297,1.447
	c0.188,0.94-0.025,0.763-0.007,1.89c0.02,1.197-0.304,1.38-0.783,2.145c-0.791,1.259,0.047,3.044,0.979,3.962
	c1.813,1.784,5.229,1.419,5.093-1.619c-0.05-1.108-0.05-1.108-0.746-2.32c-0.944-1.645-0.204-2.267,0.188-3.604
	c0.57-1.943,1.05-1.778,3.061-2.396C73.843,37.697,75.859,37.596,75.44,40.682z"/>
<path d="M34.542,56.813c-1.476-1.933-3.193-4.028-4.854-5.808c-0.774-0.829-3.305,2.682-3.983,3.248
	c-1.702,1.423-5.99-7.363-7.407-6.631c-0.279,0.144,3.466,7.46,3.665,7.87c1.088,2.245,2.045,4.418,3.412,6.507
	c0.701,1.072,2.505-2.038,2.875-2.5c0.63-0.785,1.474-1.49,2.363-0.366c1.456,1.84,2.307,3.366,3.631,5.303
	c1.071,1.563,2.954,0.166,4.037-0.874c0.932-0.895,1.75-1.719,2.469-2.594c0.752,0.271,2.472,0.779,3.267,0.876
	c1.388,0.17,3.833-0.66,5.108-1.157c1.086,1.211,1.472,1.922,2.375,2.813c0.751,0.74,1.864,1.754,2.978,1.77
	c0.703,0.009,2.403-2.829,2.731-3.311c0.419-0.617,1.617-2.781,2.51-2.896c1.057-0.135,2.536,2.612,3.25,3.344
	c0.811,0.832,2.119-2.015,2.366-2.519c0.471-0.959,6.405-11.769,5.777-12.295c-1.033,0.934-6.099,7.886-7.64,6.438
	c-0.656-0.616-2.937-3.89-3.803-2.936c-1.641,1.804-3.063,3.878-4.563,5.799c-0.419-0.228-0.76-0.19-0.587-0.645
	c0.875-2.3,0.289-3.312-0.552-4.531c-1.079-1.565-3.558-1.389-4.248-1.389c-0.421,0-0.9-1.541-1.908-2.549
	c-0.937-0.937-2.952-1.02-4.229-0.677c-0.754,0.202-1.433,0.795-1.981,1.339c-0.28,0.277-1.255,1.838-1.603,1.838
	c-1.921,0-3.129,0.231-4.696,1.77C34.188,53.146,34.126,55.491,34.542,56.813z M48.516,58.521c-2.531,1.406-4.719,1.438-7.031,0.063
	c-4.875,1.609-5.078-2.271-5.109-3.834c-0.038-1.916,2.434-3.172,4.719-1.953c0.723-1.589,1.898-3.672,3.758-3.672
	c1.935,0,2.722,1.619,3.398,3.313c3-0.625,4.594,0.781,4.469,2.25C52.578,56.345,51.594,59.459,48.516,58.521z"/>
</svg>
