<?xml version="1.0" encoding="utf-8"?>
<!-- Generator: Adobe Illustrator 16.0.0, SVG Export Plug-In . SVG Version: 6.00 Build 0)  -->
<!DOCTYPE svg PUBLIC "-//W3C//DTD SVG 1.1//EN" "http://www.w3.org/Graphics/SVG/1.1/DTD/svg11.dtd">
<svg version="1.1" id="Layer_1" xmlns="http://www.w3.org/2000/svg" xmlns:xlink="http://www.w3.org/1999/xlink" x="0px" y="0px"
	 width="90px" height="90px" viewBox="0 0 90 90" enable-background="new 0 0 90 90" xml:space="preserve">
<g>
	<path d="M73.938,42.748c-0.404-0.253-1.651-0.737-1.658-1.246c-0.018-1.438-0.049-2.871-0.222-4.301
		c-0.724-5.992-3.515-11.635-8.318-15.384c-2.304-1.799-4.964-3.104-7.762-3.933c-1.098-0.324-2.348-0.707-3.254-1.035
		c0-1.021-0.217-2.364-1.343-2.44c-3.991-0.27-6.884-0.171-10.881-0.118c-1.753,0.023-2.68,0.374-2.68,2.671
		c-1.641,0.453-5.94,1.588-7.789,2.479c-4.965,2.394-8.661,6.531-10.55,11.703c-1.019,2.788-1.503,5.744-1.729,8.697
		c-0.126,1.659,0.467,1.628-0.564,2.215c-1.218,0.693-2.4,1.466-3.543,2.278c-2.143,1.523-1.263,3.401-0.552,5.568
		c0.905,2.762,1.741,5.679,2.992,8.306c0.833,1.751,3.345,1.965,5.938,1.751c1.229,0.288,1.158,0.727,1.831,1.995
		c1.243,2.346,2.904,4.462,4.855,6.259c7.624,7.019,18.689,8.283,27.823,3.477c4.02-2.116,7.328-5.39,9.495-9.382
		c0.748-1.377,0.653-2.429,2.242-2.345c1.058,0.056,3.414,0.196,4.4-0.316c1.071-0.557,1.548-2.176,2.114-3.896
		c0.869-2.638,2.438-6.375,2.984-9.327C78.115,44.539,75.364,43.646,73.938,42.748z M49.297,20.25
		c-0.133,1.377-0.138,1.713-0.319,2.841c-0.167,1.04-0.277,2.093-0.469,3.129c-0.905,0.034-1.812,0.026-2.717,0.02
		c-1.152-0.009-2.305-0.029-3.457-0.07c-1.072-0.039-0.807-1.268-0.927-2.188c-0.246-1.883-0.333-3.738-0.503-5.627
		c2.914-0.079,5.604-0.085,8.517,0.021C49.43,18.79,49.406,19.303,49.297,20.25z M19.313,55.792
		c-0.42-1.147-0.837-2.577-1.216-3.739c-0.516-1.582-1.026-3.166-1.537-4.751c0.884-0.618,1.613-1.271,2.532-1.835
		c0.344,2.266,1.025,4.676,1.836,6.825c-0.101-0.267-0.504-1.335,0.001,0.005c0.028,0.075,0.024,0.063,0.003,0.008
		c0.459,1.212,1.146,2.646,1.692,3.821C21.783,56.179,19.499,56.301,19.313,55.792z M58.785,63.37
		c-3.126,3.312-6.002,4.678-10.18,5.775c-4.617,1.213-9.175-0.235-12.256-1.894c-4.146-2.232-6.534-5.443-8.191-9.705
		c-1.7-4.365-1.309-10.514,3.425-12.771c2.562-1.222,5.33-0.772,7.64,0.742c1.12,0.733,2.154,1.646,2.961,2.718
		c0.617,0.82,0.903,1.928,1.668,2.63c2.018,1.854,3.191-1.603,4.062-2.742c1.386-1.815,4.393-3.363,6.71-3.717
		c3.588-0.548,7.873,3.707,7.792,8.135C62.349,56.262,61.369,60.633,58.785,63.37z M65.245,54.671
		c0.798-5.772-2.131-12.402-8.552-13.114c-4.689-0.52-9.328,2.063-11.683,6.183c-2.479-4.358-7.855-7.295-12.832-5.979
		c-5.701,1.508-8.215,7.375-7.409,12.839c-2.883-5.951-4.29-13.438-2.378-19.908c2.321-7.854,8.071-12.165,15.881-13.779
		c0.282,1.944,0.112,5.75,1.455,7.307c0.568,0.659,1.701,0.563,2.479,0.597c2.263,0.099,5.071,0.523,7.278-0.049
		c2.404-0.623,2.233-5.868,2.474-7.837c7.811,1.681,14.099,6.447,15.901,14.604C69.273,41.936,68.106,48.836,65.245,54.671z
		 M70.875,56.063c-0.987-0.06-2.27-0.188-3.257-0.24c1.59-3.244,2.739-6.893,3.236-10.468c0.922,0.585,2.204,1.154,3.104,1.771
		C73.552,48.126,71.048,55.476,70.875,56.063z"/>
	<path d="M50.443,31.799c-1.037-1.111-4.461-0.563-5.716-0.563c-1.308,0-3.914-0.458-4.956,0.661
		c-1.109,1.19-0.514,4.674-0.504,6.058c0.009,1.329-0.271,3.217,0.634,4.336c0.889,1.099,3.424,0.531,4.772,0.539
		c1.571,0.01,4.851,0.695,5.96-0.781c1.07-1.423,0.378-5.182,0.361-6.77C50.983,34.251,51.23,32.643,50.443,31.799z M48.315,40.197
		c-1.697,0.035-3.396-0.002-5.093-0.013c-0.792-0.005-1.255,0.299-1.286-0.566c-0.043-1.237-0.045-2.477-0.03-3.715
		c0.018-1.415-0.334-1.984,1.186-2.015c1.367-0.027,2.736-0.021,4.103,0.018c1.523,0.044,1.158,0.607,1.167,2.024
		C48.372,37.352,48.373,38.776,48.315,40.197z"/>
</g>
</svg>
