<?xml version="1.0" encoding="utf-8"?>
<!-- Generator: Adobe Illustrator 16.0.0, SVG Export Plug-In . SVG Version: 6.00 Build 0)  -->
<!DOCTYPE svg PUBLIC "-//W3C//DTD SVG 1.1//EN" "http://www.w3.org/Graphics/SVG/1.1/DTD/svg11.dtd">
<svg version="1.1" id="Layer_1" xmlns="http://www.w3.org/2000/svg" xmlns:xlink="http://www.w3.org/1999/xlink" x="0px" y="0px"
	 width="90px" height="90px" viewBox="0 0 90 90" enable-background="new 0 0 90 90" xml:space="preserve">
<g id="svgg_6_">
	<path id="path0_2_" fill="#050404" d="M42.534,16.021c-4.252,0.419-7.505,1.316-10.826,2.985
		c-15.253,7.668-20.41,27.206-10.95,41.486c9.567,14.442,29.912,17.104,42.91,5.613c13.569-11.994,12.665-33.702-1.854-44.498
		c-4.021-2.991-8.493-4.762-13.84-5.479C47.339,16.043,43.149,15.96,42.534,16.021 M47.759,18.496
		c18.033,2.11,28.564,21.688,20.394,37.916c-9.68,19.227-37.194,19.287-46.942,0.104C11.729,37.856,26.947,16.063,47.759,18.496
		 M36.99,34.058c-0.931,0.474-0.908,0.277-0.88,7.447l0.024,6.134l0.244,0.347c0.698,0.994,2.095,0.994,2.793,0l0.243-0.347
		l0.021-6.258l0.021-6.258l-0.188-0.355C38.854,33.982,37.791,33.651,36.99,34.058 M50.134,34.001
		c-1.055,0.485-1.036,0.367-1.065,6.783c-0.027,6.011,0.004,6.688,0.339,7.193c0.564,0.854,1.73,1.017,2.509,0.351
		c0.643-0.551,0.617-0.25,0.617-7.078v-6.042l-0.205-0.397C51.935,34.045,50.881,33.655,50.134,34.001"/>
</g>
</svg>
