<?xml version="1.0" encoding="utf-8"?>
<!-- Generator: Adobe Illustrator 16.0.0, SVG Export Plug-In . SVG Version: 6.00 Build 0)  -->
<!DOCTYPE svg PUBLIC "-//W3C//DTD SVG 1.1//EN" "http://www.w3.org/Graphics/SVG/1.1/DTD/svg11.dtd">
<svg version="1.1" id="Layer_1" xmlns="http://www.w3.org/2000/svg" xmlns:xlink="http://www.w3.org/1999/xlink" x="0px" y="0px"
	 width="90px" height="90px" viewBox="0 0 90 90" enable-background="new 0 0 90 90" xml:space="preserve">
<path d="M77.699,43.526c-0.354-0.919-1.751-0.946-2.557-1.086c-1.25-0.217-2.518-0.457-3.728-0.851
	c0.806-1.377,2.234-3.215,2.234-4.903c0-2.035-2.429-1.105-3.659-1.084c-3.15,0.056-4.727-3.162-5.903-5.612
	c-1.77-3.687-3.381-7.24-6.323-10.162c-2.746-2.727-6.597-5.532-10.668-4.174c-0.203,0.068-0.406,0.149-0.617,0.193
	c-0.332-0.224-0.607-0.555-0.891-0.834c-1.417-1.392-2.869-2.172-4.851-1.409c-0.902,0.348-1.727,0.856-2.606,1.253
	c-0.618,0.279-1.282,0.408-1.931,0.593c-3.713,1.061-6.54,3.793-9.064,6.606c-2.99,3.333-5.249,7.234-7.013,11.335
	c-0.509,1.183-0.956,3.545-2.515,3.785c-0.755,0.116-1.541-0.086-2.285,0.108c-1.36,0.354-1.002,1.782-0.673,2.767
	c0.398,1.19,0.95,2.321,1.729,3.311c-1.101-0.239-3.169-0.597-2.993,1.203c0.16,1.638,1.43,3.432,2.404,4.704
	c2.313,3.021,5.547,5.502,9.062,6.956c-0.786,1.081-1.322,2.296-1.672,3.584c-0.409,1.503-0.755,3.286-0.538,4.846
	c0.209,1.502,1.593,1.697,2.528,0.641c1.065-1.205,2.202-2.374,3.519-3.31c-0.241,1.546-0.073,3.08-0.191,4.626
	c-0.044,0.575-0.509,1.073-0.815,1.537c-0.538,0.813-1.071,1.636-1.542,2.49c-0.38,0.689-0.997,1.724-0.536,2.515
	c0.389,0.668,1.16,0.698,1.831,0.512c0.765-0.212,1.534-0.354,2.325-0.424c4.5-0.403,8.811,0.753,13.133,1.803
	c0.717,0.174,1.668,0.263,1.957-0.608c0.313-0.947-0.894-1.841-1.431-2.453c-1.46-1.66-2.751-3.504-3.819-5.44
	c3.449,1.907,7.083,2.026,10.451,0.346c-0.958,1.724-2.094,3.362-3.398,4.843c-0.537,0.609-1.257,1.176-1.615,1.918
	c-0.313,0.649,0.042,1.429,0.782,1.521c0.72,0.09,1.5-0.218,2.179-0.413c1.056-0.306,2.123-0.571,3.199-0.796
	c1.978-0.413,3.989-0.695,6.009-0.771c1.548-0.059,3.126-0.008,4.645,0.327c0.634,0.141,1.383,0.453,2.011,0.127
	c0.899-0.466,0.561-1.526,0.214-2.233c-1.552-3.172-3.792-5.793-5.971-8.53c0.308-0.712,0.795-1.406,1.214-2.059
	c0.641,0.58,1.232,1.206,1.823,1.836c0.424,0.452,0.967,1.054,1.654,0.994c1.156-0.103,1.043-1.522,0.968-2.339
	c-0.189-2.069-0.801-4.052-1.405-6.026c1.446-1.258,3.071-2.267,4.457-3.612c0.663-0.644,1.289-1.327,1.847-2.063
	c0.268-0.354,0.52-0.721,0.748-1.101c0.163-0.271,0.31-0.779,0.631-0.887c1.578-0.525,3.21-0.748,4.771-1.379
	C75.742,45.868,78.25,44.964,77.699,43.526C77.434,42.837,77.815,43.828,77.699,43.526z M61.696,52.903
	c0.296-1.092,0.6-2.168,0.872-3.266c0.132-0.532,0.366-0.992,0.436-1.538c0.064-0.494,0.339-1.009,0.817-1.211
	c0.695-0.293,1.863-0.287,2.587-0.278c0.494-0.032,0.99-0.116,1.482-0.174C66.57,49.168,64.169,51.209,61.696,52.903
	C61.762,52.657,64.602,50.913,61.696,52.903z M66.342,45.41c-1.033,0-2.65,0.017-3.501,0.679c-0.526,0.409-0.871,1.022-0.997,1.673
	c-0.155,0.798-0.434,1.562-0.595,2.369c-0.154,0.77-0.431,1.498-0.655,2.247c-0.087,0.291-0.165,0.59-0.189,0.894
	c-0.026,0.324-0.334,0.475-0.52,0.743c-0.815,1.178,0.216,2.998,0.533,4.18c-1.238-0.916-2.375-0.36-3.151,0.797
	c0.337-1.294,0.52-2.698,0.689-4.028c0.169-1.329,0.247-2.672,0.314-4.01c0.083-1.641,0.206-3.329,0.043-4.969
	c-0.146-1.477-1.502-1.801-2.762-2.49c-0.408-0.224-0.45-0.163-0.894-0.45l-0.394-0.206c-0.531-0.244-0.913-0.395-1.375-0.569
	c-0.422-0.16-0.896-0.458-1.396-0.606c-1.056-0.313-2.274-1.094-3.016,0.271c-0.472,0.866-0.311,2.281-0.006,3.18
	c0.18,0.528,0.102,1.366,0.16,1.967c-1.749-1.075-3.353-2.646-4.804-4.087c-0.874-0.867-5.436-7.332-4.094-1.174
	c-0.403-1.85-2.253-5.128-3.474-6.889c-0.493-0.711-1.469-1.065-2.166-0.425c-0.73,0.673-0.962,1.9-1.187,2.814
	c-0.384,1.561-0.67,3.148-0.932,4.734c-0.044,0.27-0.046,0.593-0.132,0.852c-0.073,0.388-0.099,0.546-0.11,1.113
	c-0.008,0.425,0.021,0.871-0.013,1.138c-0.174,1.425-0.06,2.455-0.023,3.86c0.032,1.246,0.065,2.498,0.224,3.736
	c-1.598-1.244-2.852-2.751-4.176-4.268c-0.576-0.659-1.208-1.29-1.687-2.026c-0.431-0.661-0.648-1.437-1.097-2.084
	c-0.913-1.315-3.19-0.928-4.367-0.166c-0.172-0.849-0.896-1.313-1.492-1.857c-0.73-0.668-1.247-1.529-1.624-2.437
	c1.316-0.16,2.702-0.742,3.509-1.838c0.611-0.828,0.927-1.917,1.302-2.86c1.327-3.341,3.095-6.52,5.246-9.401
	c1.835-2.458,4.104-4.974,6.744-6.585c1.028-0.627,2.149-1.052,3.312-1.35c1.531-0.393,2.795-1.377,4.297-1.795
	c1.069,2.836,2.549,5.366,4.028,7.992c0.824,1.462,1.79,2.853,2.835,4.163c1.066,1.335,2.046,3.031,3.494,4
	c0.463,0.31,1.045,0.416,1.543,0.103c1.02-0.643,0.467-1.827-0.102-2.556c-1.02-1.306-2.046-2.692-2.851-4.144
	c-1.318-2.378-2.407-4.696-3.175-7.321c3.091-1.184,6.059,1.27,8.097,3.318c2.232,2.242,3.781,4.866,5.055,7.74
	c1.833,4.133,4.126,8.96,9.384,8.896c-0.66,1.264-2.248,2.975-1.582,4.504c0.494,1.135,1.927,1.446,3.007,1.706
	C69.876,44.96,68.134,45.199,66.342,45.41z M18.344,46.333c0.549,0,1.004-0.097,1.362-0.288c0.218,3.039,3.214,5.567,5.405,7.351
	c-3.203-1.521-6.52-4.445-8.121-7.186C17.533,46.293,17.975,46.333,18.344,46.333z M38.941,44.133
	c-1.896-0.476-3.888-1.311-5.849-1.465c0.257-1.616,0.544-3.233,0.925-4.825c0.162-0.679,0.324-1.383,0.615-2.02
	c0.225-0.492,0.428-0.538,0.729-0.083c0.878,1.331,1.605,2.775,2.342,4.188c0.753,1.443,1.563,2.905,2.133,4.435
	C39.571,44.291,39.275,44.217,38.941,44.133C38.16,43.937,39.275,44.217,38.941,44.133z M33.397,54.207
	c-0.283-1.295-0.406-2.597-0.459-3.919c-0.045-1.122-0.076-2.247-0.079-3.37c-0.001-0.644-0.054-1.389,0.152-2.011
	c1.57,0.667,3.23,1.166,4.855,1.681c0.929,0.295,2.839,1.149,3.611,0.142c0.139,0.021,0.893,0.321,0.863,0.171
	c-0.086-0.434-0.373-0.883-0.545-1.289c-0.368-0.87-0.139-0.107-0.438-1.003c-0.048-0.144-0.287-2.257,0.264-1.952
	c0.842,0.465,0.477,0.225,1.11,0.927c1.402,1.554,3.181,3.129,4.926,4.296c0.621,0.415,1.652,1.192,2.44,1.192
	c0.558,0-0.091-1.725-0.108-2.013c1.007,0.018,2.04-0.44,2.969-0.778c0.796-0.289,2.439-0.641,2.832-1.51
	c1.404,0.319,1.375,1.43,1.379,2.578c0.006,1.425-0.054,2.851-0.137,4.272c-0.163,2.794-0.596,5.499-1.208,8.224
	c-0.787,1.124-1.906,2.006-3.026,2.776c-0.667,0.46-1.384,0.799-2.064,1.232c-0.662,0.328-1.287,0.805-1.982,1.037
	c-2.138,0.717-4.78,1.099-6.929,0.121s-4.132-2.597-5.853-4.189c-1.121-1.037-2.423-2.21-2.993-3.659
	c-0.265-0.674-1.132-3.069-2.253-1.962c-0.111,0.112-0.185,0.236-0.233,0.386c-0.775-0.266-1.416-0.764-2.103-1.198
	c-0.576-0.363-1.142-0.67-1.641-1.146c-1.154-1.098-2.414-2.07-3.529-3.214c-0.99-1.015-2.342-2.659-2.318-4.18
	c0.008-0.501,0.424-0.723,0.854-0.851c0.509-0.151,1.565-0.515,2.044-0.142c0.528,0.412,0.708,1.332,1.031,1.894
	c0.476,0.827,1.126,1.516,1.752,2.229c0.604,0.686,1.154,1.416,1.776,2.085c0.719,0.775,1.465,1.671,2.333,2.286
	C31.222,53.729,33.849,56.277,33.397,54.207C33.029,52.521,33.527,54.803,33.397,54.207z M49.479,44.044
	c-0.059-0.522-0.294-2.057,0.696-1.649c0.914,0.376,1.777,1.021,2.734,1.223c-1.088,0.325-2.314,0.549-3.322,1.069
	C49.542,44.529,49.511,44.319,49.479,44.044C49.344,42.84,49.511,44.319,49.479,44.044z M60.882,70.321
	c-1.563,0.087-3.12,0.36-4.663,0.614c-2.304,0.38-4.61,0.561-6.891,1.109c1.32-1.704,2.514-3.552,3.485-5.478
	c-0.103,1.288,1.195,1.358,1.852,0.505c0.587-0.763,1.215-1.501,1.881-2.195C58.328,66.349,59.652,68.384,60.882,70.321
	C59.813,70.381,60.076,69.052,60.882,70.321z M35.952,64.312c0.494,1.376,2.563,5.24,4.317,7.589
	c-3.672-0.841-7.793-1.546-11.554-0.919c0.509-0.835,1.06-1.645,1.568-2.479c0.522-0.857,0.692-1.859,1.388-2.61
	c0.507-0.548,0.93-1.164,1.45-1.708c0.623-0.651,1.481-1.238,2.003-1.968c0.179,0.162,0.371,0.333,0.569,0.507
	C35.462,63.266,35.778,63.952,35.952,64.312C36.445,65.688,35.778,63.952,35.952,64.312z M27.055,57.792
	c0.522-0.688,1.025-1.368,0.861-2.28c0.766,0.495,1.523,0.862,2.331,1.267c0.498,0.698,0.661,1.684,1.095,2.439
	c0.471,0.82,1.099,1.512,1.739,2.201c-0.528,0.479-1.259,1.213-1.828,1.834c0.113-1.448,1.242-4.07-0.918-4.603
	c-1.677-0.412-3.506,1.254-4.631,2.253C26.009,59.644,26.478,58.551,27.055,57.792C27.648,57.012,26.478,58.551,27.055,57.792z
	 M44.326,16.298c0.391,0.385,0.777,0.809,1.247,1.1c-0.234,0.621,0.034,1.475,0.485,2.752c-0.361-0.562-1.247-2.431-1.89-4.006
	C44.218,16.193,44.271,16.244,44.326,16.298z"/>
</svg>
