<?xml version="1.0" encoding="utf-8"?>
<!-- Generator: Adobe Illustrator 16.0.0, SVG Export Plug-In . SVG Version: 6.00 Build 0)  -->
<!DOCTYPE svg PUBLIC "-//W3C//DTD SVG 1.1//EN" "http://www.w3.org/Graphics/SVG/1.1/DTD/svg11.dtd">
<svg version="1.1" id="Layer_1" xmlns="http://www.w3.org/2000/svg" xmlns:xlink="http://www.w3.org/1999/xlink" x="0px" y="0px"
	 width="90px" height="90px" viewBox="0 0 90 90" enable-background="new 0 0 90 90" xml:space="preserve">
<path d="M68.895,65.526c0.355-0.854,0.563-1.144,0.365-2.679c-0.078-0.606-0.759-1.828-0.408-2.345
	c1.574-2.324,2.073-5.01,1.833-7.782c-0.247-2.86-1.165-5.626-2.221-8.278c-0.438-1.102-1.586-2.804-1.473-4.044
	c0.152-1.652,0.578-3.313,0.841-4.953c0.447-2.772,1.178-5.326,0.011-7.979c-1.228-2.79-2.464-5.462-4.458-7.803
	c-3.943-4.628-9.602-7.444-15.59-8.258c-10.602-1.441-21.49,3.397-26.152,13.3c-1.414,3.009-1.909,5.086-1.574,8.396
	c0.165,1.632,0.369,3.261,0.667,4.875c0.293,1.59-1.141,2.714-2.165,3.895c-1.012,1.166-2.053,2.328-3.147,3.416
	c-0.974,0.967-2.551,1.65-3.244,2.845c-1.715,2.958,2.852,3.31,4.55,3.233c-0.044,1.566,0.273,3.121,0.76,4.604
	c0.25,0.758,2.045,4.181,1.567,4.484c-3.581,2.273-1.499,5.769,0.172,8.691c0.728,1.274,1.492,2.575,2.387,3.742
	c1.297,1.692,2.735,0.969,4.359,0.201c3.568-1.688,7.671-2.201,11.576-2.382c7.762-0.361,15.9,0.429,23.38,2.569
	c1.564,0.448,3.858,1.641,5.507,1.229c1.246-0.312,2.394-1.924,3.092-2.924C71.416,68.872,67.726,67.979,68.895,65.526z
	 M64.757,60.715c-0.423-2.222-3.13,1.202-3.531,1.592c-1.548,1.502-3.524,2.563-5.61,3.095c0.73-1.443,2.976-4.423,1.729-6.155
	c-1.022-1.423-2.726,1.175-3.243,1.89c-1.456,2.01-3.532,3.377-5.832,4.277c0.792-1.526,1.65-3.064,2.009-4.763
	c0.38-1.806-0.981-2.882-2.025-0.975c0.919-5.048,0.92-10.989-0.515-15.92c1.641-0.543,3.489-0.068,5.183-0.223
	c2.021-0.185,4.044-0.553,6.053-0.842c0.983-0.142,4.688-1.438,5.357-0.451c0.305,0.449,0.473,1.224,0.69,1.739
	C67.208,49.154,69.796,56.308,64.757,60.715z M67.288,63.936c-0.305,1.806-1.213,1.746-2.767,1.387
	c-1.415-0.328-2.58-0.699-4.021-0.614c1.164-0.729,1.842-1.201,2.7-2.279c0.893,1.475,2.803-0.705,3.442-1.385
	C67.042,61.976,67.466,62.899,67.288,63.936z M53.182,15.943c2.32,1.217,4.743,2.372,6.609,4.26
	c-0.688,0.442-2.157,0.965-1.962,2.035c0.245,1.336,2.212,0.325,2.839-0.002c1.723-0.897,3.636,4.984,4.06,6.303
	c-1.921,0.541-3.881,0.978-5.87,1.172c-1.194,0.117-1.782,0.475-2.364-0.662c-0.393-0.767-0.795-1.528-1.219-2.277
	c-1.687-2.98-3.769-5.813-6.671-7.711C49.901,17.997,51.597,15.114,53.182,15.943z M46.873,13.375
	c1.392,0.19,3.222,0.527,4.568,0.926c-0.843,0.59-1.537,1.355-2.273,2.066c-1.301,1.259-1.626,2.111-3.378,0.926
	c-2.394-1.617-5.581-2.688-8.4-3.248C40.711,13.257,43.485,12.909,46.873,13.375z M23.471,28.212
	c0.383-1.042,0.921-2.028,1.355-3.05c0.604-1.425,0.703-1.725,2.173-1.215c2.138,0.737,4.188,1.711,6.32,2.442
	c0.844,0.289,3.026-0.065,1.696-1.249c-1.973-1.753-5.284-2.635-7.667-3.694c1.894-2.308,6.075-6.09,9.323-5.763
	c3.574,0.36,7.73,2.605,10.712,4.517c3.315,2.125,5.448,5.182,7.251,8.623c0.438,0.835,0.859,1.678,1.287,2.517
	c1.184,0.035,2.368-0.025,3.543-0.172c2.028-0.253,3.977-0.948,5.987-1.21c0.001,0.771-0.218,3.73-1.017,4.169
	c-1.571,0.861-4.096,0.857-5.842,1.226c-3.859,0.818-7.861,0.696-11.681,1.459c-1.468,0.293-1.795,1.924-0.094,1.974
	c1.684,0.05,3.441-0.339,5.114-0.509c1.859-0.189,3.724-0.329,5.582-0.526c2.175-0.231,4.631-1.079,6.795-0.963
	c-0.074,1.912-0.154,3.419-2.265,3.737c-1.771,0.266-3.737,0.67-5.523,0.791c-4.132,0.278-8.317,0.872-12.46,0.872
	c-3.043,0-6.011,0.167-8.977-0.507c-1.178-0.269-1.985,0.23-2.653-0.83c-0.739-1.173-2.266-1.043-3.47-1.049
	c-0.966-0.006-2.144,0.181-3.079-0.113c-1.763-0.554-1.741-1.18-2.097-2.894C23.238,34.14,22.502,30.841,23.471,28.212z
	 M37.047,46.734c0.844,0.495,4.5,2.415,3.976-0.279c-0.35-1.795-3.018-2.641-4.461-3.201c2.709,0.503,5.903,0.141,8.657,0.083
	c1.282-0.027,1.325,1.114,1.506,2.42c0.239,1.733,0.329,3.518,0.461,5.262c-4.368-0.125-8.133-0.457-12.349-1.741
	c-0.931-0.284-1.863-0.563-2.808-0.801c-1.475-0.371-0.966-1.578-0.615-2.904C31.945,43.569,35.782,45.986,37.047,46.734z
	 M34.321,43.93c1.659,0.361,4.332,1.065,5.332,2.589C37.767,46.082,36.156,44.588,34.321,43.93z M31.066,49.442
	c2.754,0.677,5.421,1.681,8.204,2.243c2.69,0.542,5.279,0.308,7.975,0.497c0.053,1.928-0.105,3.872-0.286,5.79
	c-0.107,1.143,0.132,1.936-1.226,1.662c-0.949-0.192-1.908-0.253-2.867-0.379c-1.492-0.197-3.293-0.21-4.595-0.698
	c-0.434-1.145-5.029-2.061-6.173-2.544C30.563,55.319,31.057,50.914,31.066,49.442z M16.421,48.34
	c2.704-2.345,4.854-4.946,6.976-7.805c1.371,0.606,2.753,1.337,4.295,1.318c0.91-0.012,3.543-0.78,3.083,0.926
	c-0.88,3.265-1.449,6.021-1.235,9.465c0.236,3.827,1.624,7.241,3.156,10.687c-4.039-1.391-7.729-5.071-8.547-9.311
	c-0.163-1.01-0.796-4.605-2.116-2.019c-1.066,2.088-0.567,4.892-0.268,7.1c-1.026-2.325-2.317-5.304-1.998-7.911
	C20.123,47.883,19.104,47.676,16.421,48.34z M28.571,62.417c-0.944-0.332-1.835-0.792-2.751-1.192
	c-0.003-0.001-0.946-0.408-1.877-0.658c-0.389-1.247-0.814-2.832-0.525-4.146C24.486,58.872,26.317,60.984,28.571,62.417z
	 M68.097,69.835L68.097,69.835c-1.529,4.086-4.45,1.958-7.527,1.223c-4.025-0.96-8.139-1.638-12.257-2.029
	c-7.138-0.678-15.947-1.16-22.64,1.893c-1.384,0.631-1.822,1.499-2.941,0.062c-1.09-1.4-1.95-2.97-2.696-4.575
	c-0.475-1.019-1.675-2.808-0.577-3.815c2.151,0.166,4.312-0.027,6.463,0.135c1.215,0.092,3.678,0.328,4.655,0.91
	c0.715,0.425,2.483,1.498,3.335,1.498c2.136,0-1.134-5.706-1.297-6.313c4.528,0.764,9.129,1.225,13.637,2.06
	c-0.27,0.827-0.601,3.899,1.261,2.571c-0.823,1.671-2.645,5,0.906,3.566c2.926-1.181,5.517-2.794,7.374-5.411
	c-0.271,1.12-3.086,4.359-1.286,5.282c0.747,0.383,1.839-0.063,2.55-0.307c1.543-0.527,2.057-0.856,3.645-0.701
	C62.291,66.04,68.769,68.027,68.097,69.835C68.104,69.814,68.107,69.806,68.097,69.835z"/>
</svg>
