<?xml version="1.0" encoding="utf-8"?>
<!-- Generator: Adobe Illustrator 16.0.0, SVG Export Plug-In . SVG Version: 6.00 Build 0)  -->
<!DOCTYPE svg PUBLIC "-//W3C//DTD SVG 1.1//EN" "http://www.w3.org/Graphics/SVG/1.1/DTD/svg11.dtd">
<svg version="1.1" id="Layer_1" xmlns="http://www.w3.org/2000/svg" xmlns:xlink="http://www.w3.org/1999/xlink" x="0px" y="0px"
	 width="90px" height="90px" viewBox="0 0 90 90" enable-background="new 0 0 90 90" xml:space="preserve">
<g>
	<path d="M44.654,35.255c0.082,0,0.164-0.003,0.247-0.008c1.553-0.11,2.756-1.148,3.066-2.647c0.308-1.485-0.407-2.964-1.779-3.679
		c-0.404-0.21-0.887-0.321-1.397-0.321c-0.923,0-1.826,0.353-2.414,0.94c-0.987,0.987-1.271,2.398-0.738,3.683
		C42.158,34.476,43.313,35.255,44.654,35.255z"/>
	<path d="M70.951,49.819c-0.56-0.484-1.855-1.24-2.125-1.24c-0.074,0-0.109-0.575-0.148-2.415c-0.028-1.335-0.12-3.169-0.206-4.103
		c-0.086-0.929-0.209-2.43-0.274-3.337c-0.572-7.961-4.303-12.689-11.892-15.07c-0.827-0.259-0.751-0.209-1.37-0.923
		c-3.605-4.155-10.057-5.606-15.449-3.475l-0.674,0.268l-0.464-0.187c-2.282-0.914-3.201-1.423-5.608-3.105
		c-3.229-2.26-4.807-2.836-6.949-2.54c-4.21,0.582-6.457,4.59-5.413,9.658c0.048,0.229,0.033,0.255-0.173,0.295
		c-1.877,0.363-2.883,1.005-3.697,2.358c-2.292,3.814-0.372,8.63,4.387,11.002c0.403,0.201,0.745,0.375,0.759,0.388
		c0.015,0.012-0.028,0.511-0.094,1.108c-0.381,3.424-0.524,5.594-0.536,8.142c-0.008,1.709-0.025,1.956-0.134,1.987
		c-1.842,0.543-3.539,2.431-4.137,4.604c-1.152,4.18,1.594,10.164,5.794,12.63c0.296,0.174,0.402,0.311,0.681,0.871
		c1.699,3.43,5.025,6.389,9.681,8.611c0.62,0.296,1.357,0.649,1.637,0.786c0.281,0.135,0.748,0.433,1.038,0.66
		c1.559,1.224,4.551,2.365,7.229,2.758c3.917,0.574,9.209-0.814,11.926-3.128c0.157-0.135,0.422-0.294,0.589-0.353
		c4.551-1.623,9.363-5.581,11.175-9.19l0.385-0.767l0.792-0.527C73.443,61.748,75.163,53.461,70.951,49.819z M60.081,29.388
		c1.9,1.246,3.825,4.194,4.244,6.416c-0.564,0.022-1.486,0.028-2.673,0.037l-1.085,0.008c-2.064,0.017-3.258,0.024-3.961,0.036
		c0.673-2.229,0.723-4.654,0.076-7.039c-0.143-0.526-0.316-1.036-0.518-1.528C57.327,27.765,58.734,28.505,60.081,29.388z
		 M55.915,38.512c0.142-0.275,0.28-0.506,0.385-0.664c0.718-0.007,2.295-0.021,4.281-0.036l1.084-0.008
		c3.077-0.021,3.796-0.026,4.23-0.367c0.063,0.596,0.109,1.241,0.138,1.944c0.028,0.658,0.078,1.35,0.127,1.803
		c-0.372-0.155-0.954-0.158-2.265-0.162c-0.955-0.004-1.209-0.001-1.414-0.018C62.32,40.99,62.165,41,61.791,41
		c-0.044,0-0.102,0-0.17,0c-1.158,0-4.526-0.092-4.828-0.117l-0.102-0.021l-0.102,0.006c-0.298,0.034-0.809,0.051-1.364,0.051
		c-0.342,0-0.653-0.008-0.928-0.02C54.954,40.132,55.486,39.346,55.915,38.512z M62.599,42.957c0.234,0.014,0.595,0.025,1.291,0.028
		c0.331,0.001,0.715,0.002,1.063,0.011C65.011,43.536,65,44.677,65,47.075v0.193c0,1.644,0.102,2.395,0.168,2.855
		c0.038,0.264,0.157,0.488,0.268,0.67c-0.191,0.547-0.229,1.229-0.288,1.901c-0.137,1.555-0.33,2.839-0.498,3.637
		c-0.685-0.621-1.513-1.318-1.649-1.417c-0.226-0.164-0.499-0.363-0.604-0.467c0.002-0.141,0.053-0.455,0.089-0.693
		C62.951,50.759,63.002,45.818,62.599,42.957z M58.722,45.676c-1.106-0.884-2.374-1.344-3.73-1.344
		c-1.476,0-2.948,0.549-4.315,1.602c0.479-0.937,1.149-1.831,1.839-2.362c0.201-0.154,0.539-0.415,0.709-0.782
		c0.008,0.001,0.018,0.002,0.026,0.003c0.533,0.057,1.235,0.088,1.975,0.088c0.585,0,1.123-0.021,1.495-0.058
		c0.017,0.001,0.035,0.002,0.054,0.003c0.168,0.321,0.464,0.618,0.77,0.924C58.15,44.352,58.521,44.944,58.722,45.676z
		 M43.149,21.86c0.534-0.089,1.079-0.135,1.617-0.135c5.259,0,9.721,4.194,10.157,9.549c0.415,5.095-3.063,9.94-7.755,10.802
		c-0.394,0.072-0.91,0.184-1.175,0.255c-0.131,0.036-0.435,0.094-0.992,0.094c-1.521,0-3.613-0.431-4.665-0.961
		c-3.018-1.521-5.13-4.205-5.651-7.182c-0.531-3.03,0.078-5.97,1.711-8.278C37.954,23.801,40.353,22.329,43.149,21.86z
		 M27.21,53.732l0.013,0.091c0.034,0.24,0.068,0.487,0.074,0.617c-0.092,0.086-0.282,0.233-0.466,0.375L26.76,54.87
		c-0.479,0.371-1.246,1.031-1.717,1.478c-0.004-0.019-0.008-0.036-0.012-0.052c-0.191-0.856-0.411-2.499-0.588-4.392
		c-0.037-0.396-0.076-0.813-0.191-1.174c0.302-0.553,0.305-1.507,0.309-3.098l0.003-0.904c0.006-1.207,0.016-2.935,0.1-3.66
		c0.25-0.006,0.71-0.003,1.12,0.002c0.232,0.003,0.458,0.006,0.655,0.006l0.196-0.004c0.175-0.016,0.325-0.024,0.463-0.031
		l-0.011,0.083C26.686,46.216,26.732,50.28,27.21,53.732z M27.252,41.014C27.054,41.021,26.811,41,26.509,41H26.44
		c-0.19,0-0.407,0.054-0.631,0.051c-0.248-0.003-0.504,0.021-0.744,0.021c-0.871,0-1.259,0.047-1.563,0.227
		c0.213-1.486,0.365-2.765,0.426-3.753C24.467,37.884,25.42,38,27.118,38h1.637c2.875,0,3.914-0.143,4.342-0.178
		c0.827,1.629,1.31,2.326,2.185,3.286c-0.263,0.019-0.543,0.004-0.823,0.004c-0.493,0-0.733-0.053-0.814-0.069
		c-0.305-0.063-0.782-0.064-1.098-0.064c-0.056,0-0.108,0.021-0.157,0.021h-0.032c-0.251,0-0.423,0-0.635,0h-0.457
		c-0.224,0-0.583,0-1.135,0H28.8l-0.962,0.042l-0.064-0.027C27.617,41.034,27.456,41.008,27.252,41.014z M32.157,43.726l0.029-0.028
		c0.264-0.258,0.52-0.509,0.684-0.78c0.169,0.009,0.314,0.022,0.378,0.035c0.308,0.064,0.715,0.096,1.211,0.096
		c0.852,0,1.554-0.056,2.105-0.166c0.166,0.297,0.456,0.55,0.771,0.826c0.725,0.633,1.281,1.36,1.692,2.225
		c-1.393-1.057-2.87-1.607-4.337-1.607c-1.354,0-2.615,0.466-3.715,1.36C31.193,44.918,31.572,44.298,32.157,43.726z M19.091,28.979
		c0.388-1.81,1.493-1.81,1.856-1.81c0.524,0,1.135,0.159,1.813,0.475c0.691,0.321,1.143,0.494,1.549,0.494
		c0.43,0,0.798-0.197,1.011-0.541c0.407-0.657,0.082-1.38-0.528-2.6c-1.134-2.271-1.487-4.194-1.022-5.562
		c0.303-0.893,0.944-1.565,1.961-2.059c0.26-0.127,0.563-0.19,0.901-0.19c0.768,0,1.679,0.333,2.566,0.937
		c3.123,2.126,3.979,2.68,4.819,3.111c1.906,0.981,2.473,1.184,2.708,1.226c0,0.001-0.001,0.001-0.001,0.001
		c-0.075-0.011-0.125-0.027-0.139-0.031c0.017,0.006,0.057,0.021,0.119,0.047c-0.514,0.42-0.984,0.882-1.407,1.386
		c-2.236,2.663-3.295,6.025-2.982,9.467c0.076,0.836,0.231,1.653,0.461,2.44c-0.362,0.02-1.352,0.049-4.023,0.049l-1.637,0.002
		c-0.638,0-1.458,0-1.907-0.03c-0.239-0.976-0.738-1.267-1.678-1.508C20.909,33.611,18.736,30.631,19.091,28.979z M22.822,51.406
		v0.27c-0.002,0-0.004-0.001-0.005-0.001l0.001-0.269C22.82,51.406,22.821,51.406,22.822,51.406z M65.388,62.992
		c-0.985,0.605-1.165,0.811-1.75,1.996c-1.609,3.26-5.28,6.267-9.819,8.041c-0.409,0.16-1.087,0.619-1.444,0.889
		c-1.864,1.411-4.965,2.396-7.542,2.396c-0.306,0-0.603-0.015-0.882-0.042c-2.417-0.244-5.038-1.195-6.521-2.369
		c-0.53-0.419-1.034-0.713-1.741-1.016c-4.77-2.045-8.354-5.06-9.587-8.066c-0.375-0.911-1.039-1.46-1.922-2.002
		c-2.731-1.679-4.812-5.863-4.201-8.449c0.32-1.354,1.364-2.448,2.471-2.653c0.017,0.147,0.03,0.294,0.037,0.369
		c0.187,2.001,0.415,3.691,0.627,4.639c0.23,1.031,0.469,2.098,1.545,2.098c0.629,0,1.113-0.459,1.725-1.042
		c0.423-0.401,1.145-1.024,1.576-1.358l0.071-0.054c1.211-0.938,1.35-1.279,1.136-2.815l-0.013-0.09
		c-0.456-3.291-0.502-7.154-0.12-10.085l0.024-0.191c0.001-0.01,0.002-0.02,0.004-0.03c0.207-0.009,0.49-0.012,0.783-0.016
		l0.226-0.003c-0.755,1.021-1.161,2.217-1.262,3.687c-0.058,0.838-0.019,1.402,0.354,1.802c0.214,0.229,0.503,0.355,0.814,0.355
		c0.579,0,0.996-0.423,1.36-0.879c0.947-1.187,2.106-1.814,3.352-1.814c1.379,0,2.829,0.738,4.194,2.136
		c0.76,0.777,1.183,1.184,1.756,1.184c0.324,0,0.625-0.144,0.828-0.394c0.388-0.479,0.259-1.092,0.122-1.74
		c-0.346-1.633-0.974-3.001-1.902-4.145c1.358,0.61,3.578,1.06,5.313,1.06h0c0.596,0,1.1-0.055,1.498-0.161
		c0.215-0.057,0.683-0.158,1.023-0.221c0.928-0.171,1.813-0.462,2.643-0.855c-1.243,1.501-2.152,3.586-2.152,5.163
		c0,1.256,0.974,1.292,1.085,1.292c0.572,0,0.936-0.366,1.908-1.347c1.274-1.285,2.653-1.965,3.986-1.965
		c1.25,0,2.415,0.614,3.369,1.776c0.412,0.503,0.801,0.919,1.377,0.919c0.3,0,0.58-0.121,0.787-0.34
		c0.393-0.416,0.391-0.988,0.34-1.883c-0.085-1.509-0.49-2.667-1.322-3.725c0.387,0.001,0.822,0.002,1.086,0.022
		c0.009,0.059,0.017,0.115,0.022,0.155c0.377,2.656,0.329,7.439-0.104,10.234c-0.254,1.643-0.083,2.042,1.307,3.049
		c0.348,0.253,1.842,1.584,2.103,1.859c0.218,0.293,0.572,0.466,0.964,0.466c0.473,0,0.937-0.248,1.183-0.629
		c0.633-0.982,1.005-5.156,1.021-5.334c0.022-0.255,0.072-0.825,0.138-1.181c0.112,0.031,0.266,0.079,0.474,0.149
		c1.53,0.52,1.991,1.87,2.108,2.911C70.126,57.244,68.659,60.982,65.388,62.992z"/>
	<path d="M61.414,57.205c-0.385,0-0.787,0.111-1.352,0.302c-1.471,0.498-3.932,1.093-5.852,1.415l0.057,0.005
		C52.479,59.227,52,59.499,52,61.305v0.021c0,2.354-2.415,4.464-5.325,5.017c-0.551,0.104-1.096,0.157-1.653,0.157
		C41.141,66.5,38,64.043,38,61.024v-0.02c0-1.664-0.878-1.807-2.675-2.118l-0.072-0.006c-2.491-0.433-5.465-1.181-6.256-1.51
		c-0.857-0.358-1.659-0.198-2.117,0.384c-0.811,1.031-1.042,2.548-0.612,4.057c0.414,1.453,1.351,2.587,2.521,3.055
		c-0.03,1.219,0.412,2.362,1.247,3.224c0.916,0.944,2.248,1.486,3.655,1.486c0.621,0,1.24-0.103,1.846-0.304
		c0.716,1.919,2.761,3.177,5.245,3.177c1.376,0,2.696-0.396,3.815-1.146l0.016-0.01c0.044-0.029,0.089-0.06,0.132-0.089
		c0.021,0.015,0.043,0.03,0.064,0.045c1.114,0.778,2.5,1.207,3.901,1.207c2.466,0,4.533-1.041,5.232-2.961
		C54.541,69.711,54.898,70,55.676,70h0.155c1.5,0,2.954-0.896,3.889-1.988c0.736-0.859,1.082-2.005,0.985-3.039
		c0.009-0.003,0.018-0.064,0.028-0.068c2.149-0.821,3.24-3.652,2.381-6.146C62.943,58.264,62.589,57.205,61.414,57.205z
		 M43.329,69.328c-0.675,0.476-1.55,0.738-2.462,0.738c-1.653,0-3.027-0.825-3.196-1.92c-0.215-1.396-1.242-1.505-1.551-1.505
		c-0.348,0-0.737,0.104-1.223,0.326c-0.417,0.191-0.844,0.288-1.267,0.288c-1.335,0-2.353-0.978-2.418-2.324
		c-0.056-1.148-0.188-1.925-1.47-2.231c-0.38-0.091-0.767-0.466-1.033-1.003c-0.33-0.661-0.408-1.429-0.212-1.998
		c0.013,0.004,0.026,0.009,0.038,0.013c0.938,0.331,4.004,1.1,5.048,1.265c0.635,0.102,1.457,0.232,1.871,0.338
		c0.073,1.67,1.129,3.809,2.512,5.052c1.647,1.481,3.804,2.356,6.135,2.503C43.815,68.986,43.563,69.164,43.329,69.328z
		 M59.871,62.644c-1.319,0.433-1.534,0.902-1.587,2.295c-0.038,0.986-0.127,1.103-0.544,1.488c-0.549,0.509-1.257,0.789-1.993,0.789
		c-0.43,0-0.85-0.094-1.246-0.278c-0.42-0.196-0.774-0.326-1.14-0.326c-1.117,0-1.42,1.109-1.55,1.584
		c-0.355,1.303-1.815,1.886-3.104,1.886c-0.901,0-1.804-0.271-2.544-0.764c-0.246-0.163-0.496-0.331-0.77-0.443
		c4.184-0.226,8.57-2.828,8.875-7.475c0.002-0.028,0.004-0.055,0.005-0.081c0.177-0.037,0.411-0.08,0.653-0.125l0.383-0.07
		c1.714-0.319,4.264-0.95,5.248-1.299c0.12-0.042,0.24-0.084,0.352-0.122c0.006,0.026,0.012,0.053,0.018,0.078
		C61.234,61.116,60.781,62.347,59.871,62.644z"/>
</g>
</svg>
