<?xml version="1.0" encoding="utf-8"?>
<!-- Generator: Adobe Illustrator 16.0.0, SVG Export Plug-In . SVG Version: 6.00 Build 0)  -->
<!DOCTYPE svg PUBLIC "-//W3C//DTD SVG 1.1//EN" "http://www.w3.org/Graphics/SVG/1.1/DTD/svg11.dtd">
<svg version="1.1" id="Layer_1" xmlns="http://www.w3.org/2000/svg" xmlns:xlink="http://www.w3.org/1999/xlink" x="0px" y="0px"
	 width="90px" height="90px" viewBox="0 0 90 90" enable-background="new 0 0 90 90" xml:space="preserve">
<path fill="#1B050F" d="M71.57,27.894c-0.54-0.639-0.599-0.878-0.171-1.614c0.393-0.676,1.04-1.619,0.711-2.443
	c-0.534-1.335-2.209-1.055-3.354-1.071c-0.326-0.004-1.136,0.111-1.354-0.236c-0.318-0.507-0.182-1.523-0.253-2.089
	c-0.146-1.17-0.341-3.329-1.883-3.501c-0.479-0.054-0.931,0.162-1.281,0.474c-0.13,0.114-0.404,0.42-0.582,0.215
	c-0.266-0.306-0.352-0.823-0.503-1.188c-0.211-0.509-0.458-1.008-0.777-1.459c-0.857-1.214-1.985-1.456-3.105-0.486
	c-0.224,0.193-1.119,1.289-1.429,1.025c-0.547-0.467-0.91-1.262-1.29-1.855c-0.563-0.879-1.328-2.414-2.597-1.866
	c-0.695,0.3-1.306,0.821-1.901,1.278c-0.371,0.285-1.123,1.086-1.66,1.038c-0.346-0.031-0.698-0.599-0.902-0.817
	c-0.801-0.855-1.586-1.727-2.397-2.574c-0.447-0.468-0.882-1.074-1.55-1.211c-0.893-0.183-1.362,0.306-2.01,0.829
	c-0.808,0.651-1.594,1.328-2.403,1.977c-0.167,0.134-0.339,0.312-0.559,0.354c-0.85,0.164-1.895-0.102-2.734-0.192
	c-1.629-0.174-3.314-0.497-4.957-0.458c-0.899,0.021-1.558,0.656-1.528,1.591c0.02,0.651,0.257,1.259,0.454,1.871
	c0.063,0.195,0.181,0.508-0.041,0.647c-0.301,0.188-0.794,0.13-1.127,0.128c-1.015-0.006-2.03-0.053-3.045-0.074
	c-1.169-0.024-3.34-0.458-3.764,1.104c-0.182,0.667,0.16,1.34,0.684,1.749c0.175,0.137,1.609,0.677,0.938,0.915
	c-1.163,0.414-3.09,0.046-3.632,1.461c-0.307,0.801,0.117,1.6,0.83,2.002c0.164,0.093,0.737,0.316,0.515,0.585
	c-0.381,0.459-1.163,0.722-1.673,0.989c-0.852,0.447-1.715,0.88-2.544,1.368c-0.679,0.398-1.163,0.781-1.204,1.61
	c-0.032,0.655,0.362,1.151,0.951,1.395c0.715,0.297,1.572,0.057,2.252,0.366c0.473,0.216-0.759,2.286-0.877,2.597
	c-0.468,1.24-0.84,2.589-0.832,3.925c0.005,0.9,0.322,2.039,1.429,2.075c1,0.033,1.892-0.977,2.751-1.412l0.126,0.157
	c0.413,0.509,0.313,1.68,0.451,2.306c0.14,0.632,0.297,1.25,0.392,1.893c0.06,0.416,0.279,1.041-0.125,1.33
	c-0.741,0.53-1.428,0.891-1.949,1.68c-1.046,1.582-1.105,3.635-0.654,5.425c0.073,0.29,0.648,1.399,0.345,1.682
	c-0.17,0.159-0.484,0.182-0.699,0.223c-0.618,0.115-1.237,0.225-1.852,0.363c-1.946,0.438-3.964,1.008-5.708,1.999
	c-0.72,0.409-1.774,1.17-1.421,2.153c0.187,0.52,0.659,0.938,1.048,1.307c0.805,0.764,1.658,1.477,2.493,2.208
	c0.624,0.548,1.458,1.105,1.938,1.801c0.313,0.455-1.431,1.792-1.706,2.065c-0.737,0.732-1.241,1.335-0.948,2.41
	c0.483,1.774,1.326,3.493,2.015,5.195c0.284,0.704,0.529,1.641,1.05,2.223c0.445,0.498,1.379,0.548,1.896,0.186
	c0.729-0.51,1.09-1.452,1.549-2.183c0.598-0.956,1.252-1.875,1.936-2.771c1.287-1.684,2.665-3.487,4.288-4.865
	c1.2-1.019,0.366,1.286,0.328,1.754c-0.114,1.42,1.024,2.064,2.26,1.668c0.847-0.271,1.645-0.67,2.479-0.972
	c0.523-0.189,0.896-0.163,1.334,0.191c1.609,1.301,3.062,2.729,4.851,3.8c1.515,0.908,3.123,1.477,4.866,1.745
	c0.712,0.11,1.471,0.339,2.193,0.244c0.896-0.118,1.797-0.203,2.683-0.382c1.521-0.31,2.942-0.892,4.257-1.714
	c1.694-1.059,3.137-2.415,4.666-3.687c0.385-0.321,0.729-0.412,1.217-0.276c0.928,0.261,1.801,0.709,2.711,1.022
	c1.099,0.377,2.322-0.012,2.324-1.371c0.002-0.67-0.552-1.602-0.338-2.234c0.061-0.179,0.288-0.174,0.441-0.174
	c0.467,0,0.92-0.197,1.232-0.544c0.543-0.604,0.404-1.284,0.196-1.985c-0.304-1.018-0.693-2.019-0.935-3.055
	c-0.081-0.347,0.085-0.476,0.352-0.683c0.756-0.585,1.518-1.137,2.189-1.82c2.181-2.213,3.849-5.499,3.437-8.681
	c-0.165-1.268-0.728-2.484-1.758-3.274c-0.403-0.309-1.249-0.52-1.218-1.124c0.035-0.664,0.191-1.333,0.335-1.98
	c0.054-0.247,0.171-1.386,0.534-1.362c0.403,0.027,0.748,0.272,1.162,0.27c0.448-0.002,0.875-0.208,1.161-0.552
	c0.524-0.629,0.419-1.424,0.22-2.154c-0.125-0.455-0.846-1.705-0.601-2.192c0.207-0.408,1.44-0.35,1.799-0.412
	c0.665-0.116,1.456-0.31,1.642-1.056C74.044,31.12,72.521,29.022,71.57,27.894C70.891,27.089,72.629,29.15,71.57,27.894z
	 M34.779,37.507c0.607-0.306,1.269-0.493,1.881-0.792c-0.112,1.313,0.864,2.331,2.193,2.148c1.085-0.148,2.21-0.727,3.218-1.147
	c-0.149,0.788,0.031,1.635,0.768,2.069c0.753,0.444,1.583,0.163,2.3-0.2c1.067-0.54,2.014-1.23,2.98-1.929
	c0.186,1.256,1.392,1.976,2.56,1.481c1.153-0.49,2.121-1.542,3.029-2.37c0.565,1.127,1.459,2.393,2.907,1.778
	c1.208-0.512,2.231-1.913,3.16-2.801c0.827,1.063,1.639,2.368,2.752,3.164c-0.321,0.064-0.691,0.163-1.038,0.305
	c-1.238-0.792-2.633-1.218-4.068-0.709c-1.348,0.478-2.512,1.498-3.625,2.368c-1.489-0.12-3.081,0.334-4.572,0.438
	c-1.437,0.1-2.877,0.104-4.315,0.099c-0.947-0.003-1.887-0.036-2.829-0.133c-1.245-0.129-2.581-0.47-3.834-0.355
	c-1.388-1.058-2.822-2.45-4.533-2.948C34.032,37.868,34.376,37.709,34.779,37.507C34.912,37.439,34.376,37.709,34.779,37.507z
	 M29.787,37.273c0.381-0.257,0.762-0.512,1.146-0.761c0.158,0.588,0.505,1.12,1.061,1.401c-0.851,0.186-1.682,0.631-2.393,1.126
	c-0.396-0.174-0.836-0.264-1.27-0.245c-0.299-0.151-0.619-0.24-0.936-0.345C28.077,38.424,28.628,38.053,29.787,37.273
	C29.952,37.162,28.628,38.053,29.787,37.273z M68.76,48.637c-0.324,1.86-1.252,3.582-2.492,4.993
	c-0.633,0.719-1.352,1.364-2.134,1.919c-0.646,0.458-1.617,0.771-2.117,1.399c-0.445,0.561-0.587,1.407-0.834,2.067
	c-0.257,0.688-0.544,1.367-0.914,2.002c-0.814,1.394-2.02,2.517-3.192,3.605c-2.706,2.512-5.752,5.261-9.563,5.77
	c-3.091,0.413-6.114-0.346-8.667-2.099c-1.775-1.219-3.377-2.688-4.93-4.173c-1.132-1.083-2.247-2.213-2.947-3.634
	c-0.325-0.659-0.574-1.353-0.809-2.047c-0.148-0.439-0.365-1.567-0.898-1.752c-0.544-0.188-0.593,0.837-0.646,1.134
	c-0.151,0.854-0.361,1.686-0.575,2.527c-0.378,1.489-1.94,2.546-2.96,3.627c-1.243,1.314-2.365,2.749-3.454,4.191
	c-0.686,0.912-1.335,1.828-1.884,2.831c-0.116,0.213-0.37,0.781-0.689,0.759c-0.368-0.023-0.513-0.784-0.603-1.037
	c-0.572-1.631-1.328-3.198-1.941-4.813c-0.254-0.669,0.252-1.11,0.678-1.543c0.567-0.579,1.154-1.143,1.76-1.685
	c1.144-1.025,2.373-1.968,3.616-2.869c0.552-0.4,1.122-0.774,1.689-1.151c0.224-0.149,1.911-1.026,1.821-1.345
	c-0.152-0.538-3.598,1.236-4.008,1.473c-0.622,0.359-1.241,0.737-1.826,1.156c-0.5,0.358-0.861,0.804-1.455,0.367
	c-0.811-0.595-1.539-1.335-2.294-2c-0.785-0.69-1.872-1.376-2.446-2.263c-0.589-0.907,2.869-1.768,3.475-1.96
	c1.692-0.535,3.576-0.989,5.35-1.135c0.254-0.021,1.423,0.064,1.395-0.408c-0.018-0.29-0.26-0.582-0.396-0.822
	c-0.248-0.437-0.463-0.893-0.64-1.363c-0.543-1.446-0.786-3.177-0.179-4.645c0.475-1.144,1.539-1.908,2.802-1.824
	c0.393,0.026,0.463,0.451,0.539,0.768c0.245,1.032,0.417,2.082,0.643,3.119c0.191,0.879,0.392,1.756,0.619,2.626
	c0.094,0.354,0.164,1.068,0.44,1.344c0.086,0.086,0.079-0.182,0.079-0.21c0-0.476-0.061-0.956-0.106-1.429
	c-0.181-1.85-0.444-3.697-0.403-5.561c0.022-1.021,0.12-2.037,0.202-3.055c0.026-0.334,0.188-1.042-0.095-1.319
	c0.322,0.214,0.29,0.095,0.67,0.095c0.343,0,0.854,0.153,1.022,0.487c0.146,0.292,0.032,0.426,0.394,0.471
	c0.275,0.034,0.556-0.006,0.823,0.061c0.665,0.168-1.126,2.059-1.266,2.261c-0.168,0.245-1.025,1.265-0.848,1.603
	c0.177,0.338,1.389-0.116,1.608-0.176c0.813-0.222,1.646-0.52,2.494-0.552c0.747-0.029,1.482,0.203,2.195,0.393
	c1.758,0.468,3.516,0.952,5.232,1.552c0.257,0.09,2.517,1.086,2.564,0.898c0.127-0.507-0.323-1.365-0.476-1.833
	c-0.153-0.467-0.288-0.77-0.784-0.893c-1.451-0.357-2.684-1.406-3.853-2.295c0.086,0.064,0.438,0.419,0.563,0.25
	c0.125-0.172,0.459-0.112,0.642-0.101c0.861,0.056,1.72,0.188,2.578,0.285c1.126,0.127,2.243,0.2,3.376,0.205
	c1.66,0.008,3.322,0.003,4.979-0.129c0.914-0.073,1.824-0.181,2.732-0.309c0.365-0.051,0.73-0.109,1.1-0.109
	c0.296,0,0.508,0.219,0.747,0.044c-1.197,0.938-2.476,1.996-3.937,2.497c-0.367,0.125-0.713,0.172-0.89,0.556
	c-0.282,0.61-0.523,1.35-0.637,2.014c-0.114,0.673,1.604-0.322,1.922-0.444c1.304-0.501,2.649-0.895,3.992-1.274
	c1.406-0.396,2.974-1.029,4.461-0.865c0.747,0.082,1.477,0.309,2.195,0.518c0.313,0.09,1.195,0.488,1.518,0.258
	c0.406-0.29-1.439-2.533-1.639-2.794c-0.108-0.142-0.889-0.983-0.533-1.175c0.182-0.099,0.447-0.075,0.646-0.075
	c0.091-0.077,0.11-0.479,0.139-0.603l0.171-0.204c0.513-0.607,1.577-0.301,2.17-0.635c-0.271,0.202-0.17,0.646-0.14,0.928
	c0.065,0.603,0.136,1.205,0.184,1.809c0.076,0.943,0.094,1.888,0.048,2.833c-0.025,0.545-0.721,5.77-0.389,5.843
	c0.354,0.079,1.531-6.293,1.655-6.88c0.059-0.275,0.113-0.815,0.483-0.845c0.55-0.044,1.193,0.202,1.644,0.495
	C68.731,45.252,69.028,47.1,68.76,48.637C68.226,51.705,69.19,46.167,68.76,48.637z"/>
</svg>
