<?xml version="1.0" encoding="utf-8"?>
<!-- Generator: Adobe Illustrator 16.0.0, SVG Export Plug-In . SVG Version: 6.00 Build 0)  -->
<!DOCTYPE svg PUBLIC "-//W3C//DTD SVG 1.1//EN" "http://www.w3.org/Graphics/SVG/1.1/DTD/svg11.dtd">
<svg version="1.1" id="Layer_1" xmlns="http://www.w3.org/2000/svg" xmlns:xlink="http://www.w3.org/1999/xlink" x="0px" y="0px"
	 width="90px" height="90px" viewBox="0 0 90 90" enable-background="new 0 0 90 90" xml:space="preserve">
<path d="M72.064,46.399c1.019-1.152,1.709-2.551,2.09-4.037c0.472-1.837,1.416-8.257-2.431-6.973
	c0.876-0.232,0.152-3.619-0.291-4.036c-0.742-0.698-1.755-0.47-2.658-0.673c-1.307-0.293-2.269-1.278-3.206-2.161
	c-1.961-1.848-3.762-3.907-6.021-5.408c-0.725-0.48-1.469-0.702-2.227-1.101c-1.105-0.58-0.327-2.332-0.133-3.286
	c0.323-1.587,2.823-9.6-1.239-8.727c-1.484,0.319-2.753,1.99-3.799,2.982c-1.84,1.745-2.792-0.477-4.106-2.019
	c-2.192-2.572-3.815-2.142-6.008,0.126c-0.769,0.795-1.569,1.584-2.258,2.45c-0.749,0.942-1.742-0.621-2.308-1.146
	c-1.105-1.028-4.438-3.995-5.496-1.22c-0.729,1.912,0.473,5.124,0.821,6.996c0.116,0.627,0.861,2.906,0.413,3.419
	c-0.563,0.642-1.7,0.843-2.459,1.147c-2.377,0.957-4.405,3.245-6.215,4.985c-0.771,0.741-1.513,1.561-2.368,2.207
	c-1.091,0.824-2.255,0.579-3.418,1.107c-1.679,0.762-1.083,3.108-0.67,4.56c-4.688-0.938-3.302,5.537-2.42,7.947
	c0.405,1.105,0.995,2.144,1.795,3.013c0.394,0.429,2.172,1.327,1.982,2.065c-0.879,3.438-0.03,6.781,1.012,10.069
	c0.457,1.445,1.861,5.071-0.824,3.217c-2.22-1.533-4.291-0.017-3.938,2.588c0.771,5.683,5.704,9.366,11.132,10.128
	c5.546,0.777,10.699-0.919,14.87-4.579c0.183-0.16,1.654,0.062,3.104,0.042c1.265-0.017,2.522-0.302,2.765-0.099
	c2.335,1.956,4.915,3.467,7.886,4.221c5.294,1.343,11.736,0.433,15.575-3.756c1.706-1.862,2.719-4.341,2.772-6.87
	c0.05-2.335-1.946-3.321-3.759-2.04c-3.458,2.444-0.867-3.255-0.535-4.351c0.454-1.495,0.819-3.032,0.92-4.596
	c0.085-1.323-0.395-2.523-0.394-3.831C70.024,47.7,71.421,47.127,72.064,46.399z M34.11,12.737c0.11-0.2,3.851,3.779,5.343,3.716
	c1.491-0.063,5.109-6.25,6.554-4.379c1.226,1.587,3.282,4.255,4.821,4.191c0.883-0.036,3.042-2.012,3.87-2.822
	c1.234-1.207,1.363-0.69,1.127,0.771c-0.449,2.757-1.066,5.069-1.406,7.844c-2.825-1.293-6.236,0.944-8.563,1.822
	c-2.74,1.034-6.627-3.235-10.177-1.817c-0.284-2.315-0.756-4.238-1.172-6.533C34.354,14.684,33.879,13.157,34.11,12.737z
	 M29.424,71.385c-3.879,0-8.54-1.686-9.94-5.648c2.463,0.761,5.468,0.016,5.31-2.965c2.687,3.042,7.083,1.729,8.254-1.648
	c1.711,2.737,3.576,4.814,6.369,6.454C36.531,70.031,33.264,71.385,29.424,71.385z M27.594,53.641
	c-0.985-1.004-1.306-2.756-0.614-4.031c0.337,2.197,1.006,5.444,2.753,6.96c1.766,1.532,2.385,4.573-0.608,5.396
	c-2.322,0.638-4.522-1.819-3.449-4.048C26.5,56.203,28.906,55.094,27.594,53.641z M46.466,67.021
	c-5.483,1.452-10.266-4.611-12.49-8.807c1.828-0.24,2.72-1.332,1.587-2.84c-1.419-1.888-2.521-3.527-3.313-5.781
	c-0.327-0.931-0.653-1.753-0.969-2.688c-0.492-1.456,0.451-1.354,1.438-2.313c1.263-1.228,2.183-2.682,2.882-4.285
	c2.185,2.119,5.742,4.657,8.882,4.917c3.231,0.268,7.547-3.424,9.617-5.586c0.814,1.829,2.041,3.603,3.547,4.943
	c0.838,0.747,1.224,0.779,0.891,1.967c-0.299,1.067-0.424,1.661-0.745,2.721c-0.589,1.943-1.772,3.755-3.011,5.341
	c-1.068,1.368-1.858,3.305,0.734,3.729C53.988,61.336,49.156,66.156,46.466,67.021z M70.375,65.25
	c-3.141,8.149-15.546,6.762-20.663,2.047c2.71-1.419,4.993-3.917,6.441-6.009c1.087,3.551,5.878,4.743,8.528,1.775
	C64.564,65.968,67.979,65.945,70.375,65.25z M61.895,56.693c2.578,0.779,2.415,4.589,0.061,5.55
	c-1.475,0.603-3.182-0.189-3.789-1.637c-1.136-2.708,1.317-3.884,2.442-4.092C61.025,56.577,61.421,56.602,61.895,56.693z
	 M61.469,54.314c0.424-1.598,1.17-3.104,1.406-4.751C63.92,51.309,62.41,53.445,61.469,54.314z M69.352,44.335
	c-0.879,0.852-2.452,1.014-3.057,2.153c-0.787,1.482,0.841,4.063,0.75,5.723c-0.114,2.118-0.726,3.632-1.329,5.644
	c-0.292-1.316-0.967-2.314-2.163-2.954c1.378-1.391,1.677-2.197,1.677-4.025c0-1.417-0.789-3.588-2.474-3.913
	c-1.917-0.369-2.024,2.992-2.412,4.132c-0.679,1.993-2.281,5.719-4.188,5.271c1.669-1.743,7.326-11.396,3.595-13.011
	c-1.136-0.529-2.398-2.247-3.375-4.313c-0.974-2.059-2.178-2.81-3.938-1.104c-1.927,1.865-3.586,3.188-5.969,4.438
	c-2.232,1.171-5.297-0.741-7.125-1.938c-0.897-0.588-3.313-4.125-5.016-2.375c-0.7,0.72-0.994,2.002-1.514,2.852
	c-0.665,1.092-1.471,2.18-2.449,2.897c-2.611,1.264-1.017,3.516-0.432,5.665c0.688,2.525,1.858,4.937,3.625,6.89
	c-1.683,0.301-3.2-2.173-3.819-4.144c-0.373-1.186-0.658-5.165-2.276-5.288c-1.053-0.079-2.463,1.191-2.755,2.795
	c-0.359,1.975-0.467,3.261,0.959,4.917c-1.171,0.651-1.546,1.816-1.947,3.104c-0.608-1.987-1.356-4-1.309-6.111
	c0.036-1.531,1.65-3.844,0.746-5.291c-0.646-1.033-2.109-1.104-2.962-1.895c-1.362-1.265-1.74-3.214-1.898-4.983
	c1.132,0.283,2.892,0.374,3.779-0.542c1.13-1.166-0.819-3.536-1.127-4.77c4.586-0.435,7.673-6.417,11.577-8.501
	c1.716-0.915,4.031-1.875,5.911-1.486c1.513,0.313,4.343,2.069,6.387,1.978c2.297-0.103,4.616-1.902,6.982-2.235
	c1.727-0.243,4.243,1.067,5.66,1.988c3.596,2.337,6.455,7.861,11.056,8.244c-0.359,1.304-2.053,3.052-1.372,4.478
	c0.617,1.291,2.89,1.193,4.02,0.85C71.033,41.206,70.65,43.076,69.352,44.335z"/>
</svg>
