<?xml version="1.0" encoding="utf-8"?>
<!-- Generator: Adobe Illustrator 16.0.0, SVG Export Plug-In . SVG Version: 6.00 Build 0)  -->
<!DOCTYPE svg PUBLIC "-//W3C//DTD SVG 1.1//EN" "http://www.w3.org/Graphics/SVG/1.1/DTD/svg11.dtd">
<svg version="1.1" id="Layer_1" xmlns="http://www.w3.org/2000/svg" xmlns:xlink="http://www.w3.org/1999/xlink" x="0px" y="0px"
	 width="90px" height="90px" viewBox="0 0 90 90" enable-background="new 0 0 90 90" xml:space="preserve">
<path d="M70.656,17.763c-0.5-0.139-1.287-0.148-1.778,0.027c-0.447,0.16-0.728,0.573-1.019,0.927
	c-0.508,0.62-0.989,1.278-1.556,1.849c-0.233,0.236-0.42,0.345-0.749,0.335c-3.006-0.091-6.128,0.371-9.044,1.054
	c-6.731,1.574-13.229,4.78-17.486,10.381c-0.853,1.121-1.799,1.726-3.117,2.232c-0.74,0.285-1.705,0.439-2.314,0.978
	c-0.499,0.438-0.8,1.139-1.083,1.724c-0.37,0.764-0.702,1.547-1.005,2.34c-0.223,0.586-0.33,1.336-0.683,1.86
	c-0.289,0.429-0.771,0.726-1.198,0.999c-0.791,0.507-1.613,0.978-2.446,1.415c-1.181,0.618-2.389,1.013-3.716,1.151
	c-1.619,0.169-3.312-0.036-4.909,0.273c-1.153,0.223-1.424,1.377-1.839,2.326c-0.371,0.842-0.773,1.678-1.272,2.455
	c-0.34,0.531-0.804,0.947-1.159,1.457c-0.275,0.398-0.29,0.904-0.309,1.371c-0.033,0.871-0.061,1.754,0.002,2.625
	c0.05,0.688,0.183,1.371,0.279,2.055c0.104,0.738,0.151,1.578,0.614,2.197c0.357,0.479,0.927,0.623,1.499,0.615
	c0.944-0.01,1.39-0.443,2.011-1.107c1.399-1.494,3.083-2.766,4.933-3.646c1.909-0.912,4.202-0.99,6.271-1.268
	c1.16-0.156,2.321-0.307,3.486-0.426c0.303-0.031,0.608-0.066,0.912-0.072c0.221-0.004,0.216,0.422,0.236,0.563
	c0.063,0.445,0.223,0.885,0.515,1.232c0.222,0.266,0.515,0.465,0.846,0.563c0.357,0.105,0.668-0.027,0.845,0.363l0.131,0.289
	c-2.095,2.021-4.169,4.156-6.506,5.898c-1.137,0.846-2.747,1.234-4.096,1.586c-1.328,0.348-3.351,0.213-3.807,1.844
	c-0.373,1.336,0.458,2.229,1.592,2.695c1.53,0.631,3.123,1.125,4.702,1.615c1.046,0.326,2.096,0.639,3.148,0.939
	c0.617,0.178,1.314,0.281,1.929,0.037c1.381-0.543,1.409-2.279,1.651-3.498c0.185-0.926,1.373-1.799,2.027-2.395
	c1.288-1.174,2.659-2.258,4.055-3.301c1.487-1.109,3.014-2.17,4.587-3.154c0.632-0.396,1.263-0.811,1.967-1.064
	c0.808-0.291,1.648-0.49,2.464-0.764c3.483-1.164,6.711-2.969,9.597-5.236c0.789-0.621,1.554-1.273,2.295-1.951
	c0.629-0.576,1.374-1.148,1.666-1.982c0.479-1.369-0.521-2.58-1.924-2.582l-0.71,0c0.96-0.922,2.737-2.089,2.595-3.571
	c-0.078-0.809-0.455-1.58-1.295-1.796c-0.5-0.13-1.037-0.073-1.537,0.03c-0.394,0.081-1.273,0.552-1.651,0.425
	c0.027,0.01,0.653-0.783,0.698-0.834c0.56-0.633,1.131-1.256,1.701-1.88c1.029-1.128,2.058-2.259,3.084-3.391
	c1.045-1.154,2.089-2.311,3.136-3.464c0.756-0.833,1.595-1.636,2.259-2.546c0.525-0.719,0.687-1.567,0.821-2.43
	c0.248-1.587,0.476-3.184,0.618-4.784C71.715,20.268,72.072,18.157,70.656,17.763C70.287,17.661,71.87,18.101,70.656,17.763z
	 M36.117,52.791c-0.019,0.352-0.094,0.723-0.21,1.053c-0.324,0.928-0.705-0.736-0.777-1.049
	C35.014,52.299,36.146,52.23,36.117,52.791z M69.603,21.129c-0.197,1.572-0.369,3.153-0.642,4.715
	c-0.086,0.5-0.164,1.069-0.464,1.497c-0.748,1.069-1.775,2.017-2.661,2.972c-1.284,1.386-2.528,2.807-3.796,4.208
	c-2.169,2.398-4.364,4.776-6.579,7.133c-0.102,0.108-2.126,2.08-1.831,2.227c0.369,0.185,1.037-0.022,1.409-0.087
	c0.92-0.159,1.838-0.347,2.748-0.553c0.716-0.162,1.422-0.363,2.13-0.558c0.159-0.043,1.122-0.443,1.285-0.28
	c0.273,0.271-1.317,1.557-1.469,1.69c-1.361,1.198-2.8,2.31-4.265,3.378c-0.73,0.533-1.477,1.041-2.223,1.553
	c-0.17,0.117-0.957,0.527-0.939,0.797c0.015,0.221,7.185-1.557,7.971-1.783c0.159-0.045,1.278-0.441,0.93,0.047
	c-0.548,0.766-1.402,1.406-2.122,2.002c-1.61,1.338-3.365,2.502-5.213,3.484c-1.811,0.963-3.717,1.754-5.693,2.303
	c-1.857,0.518-3.394,1.494-4.989,2.559c-3.067,2.043-6.177,4.283-8.72,6.971c-0.347,0.367-0.689,0.748-0.965,1.172
	c-0.342,0.525-0.373,1.145-0.455,1.754c-0.044,0.328-0.045,1.061-0.432,1.213c-0.477,0.189-1.266-0.232-1.708-0.369
	c-1.556-0.484-3.121-0.924-4.663-1.451c-0.475-0.164-0.971-0.311-1.422-0.527c-0.441-0.213,0.206-0.416,0.386-0.473
	c2.288-0.695,4.659-1.113,6.563-2.65c1.814-1.463,3.511-3.082,5.191-4.697c1.941-1.863,3.854-3.764,5.671-5.752
	c0.35-0.383,0.89-0.922,0.713-1.502c-0.186-0.609-0.961-0.621-1.466-0.732c-0.494-0.111-0.824-0.115-1.311-0.029
	c-0.836,0.146-1.744-0.383-2.53,0.205c-0.176,0.004-1.105-0.148-1.16,0.076c-0.029-0.332-1.764-0.055-1.998,0.061
	c-0.649,0.32-1.65,0.268-2.375,0.338c-1.739,0.172-3.474,0.402-5.204,0.633c-1.985,0.264-3.815,0.607-5.618,1.523
	c-1.782,0.904-3.271,2.137-4.705,3.51c-0.282,0.271-0.545,0.482-0.667-0.016c-0.218-0.885-0.303-1.826-0.413-2.73
	c-0.103-0.842-0.274-1.822,0.344-2.508c1.195-1.322,1.835-2.979,2.586-4.566c0.192-0.406,0.446-0.545,0.889-0.582
	c0.927-0.078,1.862-0.07,2.791-0.125c1.327-0.08,2.663-0.211,3.921-0.666c1.419-0.515,2.751-1.324,4.036-2.104
	c1.056-0.64,1.938-1.294,2.391-2.475c0.574-1.5,0.972-3.293,1.949-4.602c0.337-0.452,1.257-0.608,1.751-0.801
	c0.828-0.322,1.67-0.66,2.421-1.14c1.168-0.746,1.852-2.062,2.769-3.074c2.315-2.555,5.204-4.554,8.313-6.021
	c3.919-1.848,8.205-2.875,12.52-3.187c1.1-0.08,2.199-0.087,3.303-0.113c0.41-0.01,0.814,0.024,1.141-0.253
	c0.719-0.61,1.306-1.358,1.916-2.072c0.102-0.119,0.402-0.567,0.609-0.529C69.795,20.185,69.617,21.014,69.603,21.129
	C68.911,26.625,69.646,20.785,69.603,21.129z M38.009,54.871c0.091-0.539,0.174-1.08,0.248-1.621
	c0.039-0.283,0.045-0.867,0.355-1.021c0.371-0.182,1.02-0.129,1.422-0.057c0.64,0.119,0.34,0.58,0.102,1.018
	c-0.472,0.871-1.059,1.717-1.751,2.428l0,0C37.882,56.125,37.826,55.955,38.009,54.871C38.085,54.418,37.826,55.955,38.009,54.871z"
	/>
</svg>
