<?xml version="1.0" encoding="utf-8"?>
<!-- Generator: Adobe Illustrator 16.0.0, SVG Export Plug-In . SVG Version: 6.00 Build 0)  -->
<!DOCTYPE svg PUBLIC "-//W3C//DTD SVG 1.1//EN" "http://www.w3.org/Graphics/SVG/1.1/DTD/svg11.dtd">
<svg version="1.1" id="Layer_1" xmlns="http://www.w3.org/2000/svg" xmlns:xlink="http://www.w3.org/1999/xlink" x="0px" y="0px"
	 width="90px" height="90px" viewBox="0 0 90 90" enable-background="new 0 0 90 90" xml:space="preserve">
<path d="M72.958,45.448c-0.476-0.084-2.26-0.125-2.632-0.504c-0.018-0.019,5.935-4.493,2.406-6.143
	c-1.525-0.713-3.51-0.735-5.144-0.97c-2.389-0.343-2.293-0.387-3.527-2.406c-2.202-3.604-5.932-6.084-9.879-7.413
	c-3.329-1.122-6.288-0.782-9.246-2.697c-6.426-4.161-11.649-8.037-18.318-11.794c-0.81-0.457-2.974-0.937-3.711-0.271
	c-1.406,1.27-0.809,3.113-0.499,3.868c0.77,1.872,1.763,3.645,2.646,5.465c0.15,0.31,0.948,1.623,1.134,2.126
	c-0.077-0.209-2.616,0.118-2.833,0.417c-0.395,0.544-0.504,0.963-0.351,1.619c0.41,1.756,1.521,3.338,2.153,5.019
	c0.082,0.217-3.392,0.729-3.573,0.759c-2.717,0.443-4.52,0.596-7.216,1.153c-1.413,0.292-2.845,1.374-2.586,3.043
	c0.306,1.968,3.527,3.04,5.02,3.743c1.02,0.481,1.756,0.832,2.775,1.315c0.642,0.304,3.603,1.212,3.816,1.875
	c0.117,0.364-7.4,3.982-7.99,4.293c-1.642,0.865-6.028,2.875-3.028,5.586c0.752,0.679,1.788,0.737,2.72,0.723
	c1.333-0.021,1.626-0.049,2.959-0.096c1.333-0.048,4.099-0.729,5.299-0.169c0.179,0.081-2.753,6.187-2.998,6.68
	c-0.833,1.677-3.499,4.705-1.698,6.491c1.681,1.668,4.278-0.398,5.709-1.346c0.311-0.206,2.812-2.346,3-1.701
	c1.148,3.938,1.686,8.134,2.504,12.146c0.223,1.091,0.271,2.845,1.046,3.75c1.708,1.994,5.387-0.912,4.438-1.899
	c0.836,0.87,0.943,1.506,2.135,2.039c1.431,0.64,2.951,1.105,4.486,1.418c1.957,0.397,4.073,0.238,6.065,0.191
	c2.293-0.054,6.121-0.684,7.708-2.441c1.557-1.724,2.419-5.05,2.862-7.272c0.27-1.353,1.306-1.973,1.71-3.522
	c0.274-1.053,0.582-5.712,1.633-6.154c2.382-1.002,5.01-1.381,7.423-2.305c1.131-0.433,1.032-0.475,1.031-1.72
	c0-0.547-0.068-1.106-0.443-1.535c-0.164-0.188-1.755-1.074-1.721-1.194C68.682,53.966,80.862,46.837,72.958,45.448z M32.87,72.887
	c-0.834-4.131-1.219-6.745-2.171-10.851c1.091,0.532,1.27,0.274,1.536,1.604c0.52,2.592,2.083,3.681,1.862,4.759
	C33.699,70.354,33.364,70.954,32.87,72.887z M54.406,76.953c-1.025,1.983-4.838,2.202-6.799,2.409
	c-3.042,0.32-6.194-0.21-8.981-1.472c-1.465-0.663-1.742-2.474-2.177-3.85c-0.668-2.114-0.605-4.666,2.26-2.569
	c3.39,2.48,7.813,2.538,11.651,1.317c0.942-0.299,5.146-3.113,5.733-1.473C56.546,72.575,54.971,75.856,54.406,76.953z
	 M56.876,64.171c-2.417,3.219-6.271,6.692-10.391,7.118c-2.722,0.281-5.038-0.722-7.167-2.357c-1.945-1.496-5.033-3.45-5.825-5.926
	c-0.221-0.697-0.522-1.645-0.946-2.243c-0.41-0.58-1.923-0.784-1.923-1.544c0-0.931,3.252-3.764,3.848-4.294
	c0.833-0.742,1.659-1.283,2.512-2.003c0.958-0.808,1.49-0.306,2.609-0.078c0.406,0.082,1.204,0.382,1.795,0.725
	c-0.218,1.012-0.562,1.973,0.096,2.338c0.494,0.274,3.794-4.674,4.141-5.25c1.232-2.049,2.333-3.968,3.531-6.031
	c0.569-0.98,1.243-1.227,1.703-0.719c1.043,1.15,2.181,2.372,3.135,3.597c0.299,0.383,2.232,2.248,1.848,2.664
	c-0.229,0.248-3.64,0.933-4.473,1.131c-0.482,0.115-2.797,0.485-2.889,1.216c-0.11,0.875,3.389-0.053,3.62-0.118
	c0.593-0.168,4.494-1.146,4.715-0.793c1.233,1.966,0.521,5.884,0.605,8.089C57.478,61.184,57.829,62.905,56.876,64.171z
	 M42.828,47.422c0.303,0.901-0.647,3.447-0.759,3.993c-0.813-0.156-1.2-0.443-2.335-0.821
	C39.378,50.475,42.703,47.049,42.828,47.422z M60.315,59.254c-0.326-0.125,0.307-1.606,0.344-1.922
	c0.16-1.353,0.408-0.489,1.193-0.558c0.421-0.036,0.118-4.551,0.16-5.125c0.176-2.401,2.118-0.04,2.182,1.303
	c0.043,0.907-0.177,1.985-0.573,2.798c-0.219,0.449-1.321,1.593-1.321,2.039C62.3,58.227,60.735,59.415,60.315,59.254z
	 M63.475,58.064c0.289-0.374,0.549-0.768,0.782-1.179c0.341,0.238,0.698,0.447,1.073,0.628
	C65.254,57.527,64.016,57.891,63.475,58.064z M67.381,51.501c-0.194,0.168-0.141,0.123-0.013,0.012
	c-0.706,0.614-1.401,1.238-2.087,1.874c0.084-1.596-0.845-3.973-2.785-3.973c-1.782,0-1.649,2.121-1.626,3.333
	c0.013,0.682,0.035,1.362,0.065,2.043c0.042,0.958-0.864,0.643-1.202,1.64c-0.188,0.556-0.312,1.237-0.478,1.812
	c-0.139,0.419-0.155,0.844-0.048,1.272c-0.298,0.193-0.518,0.453-0.659,0.779c-0.098-2.754,0.016-4.822-0.336-7.644
	c-0.079-0.632-0.337-1.509-0.821-2.524c-0.844-1.391-1.247-1.593-1.809-2.295c-0.935-1.17-1.986-2.323-2.83-3.56
	c-0.684-0.999-2.492-3.272-3.77-1.73c-0.687,0.827-1.244,1.917-1.82,2.835c-1.292,2.063-2.565,4.146-3.857,6.213
	c0.418-1.24,0.824-2.777,0.907-4.078c0.128-2.01-1.951-1.622-2.907-0.606c-1.009,1.071-2.119,1.718-3.085,2.909
	c-0.525,0.646-2.019,1.859-2.719,2.484c-1.748,1.562-2.655,2.532-4.438,3.984c-0.819,0.671-2.019,1.64-2.766,2.141
	c-1.296,0.869-3.206,2.471-4.436,3.313c1.42-2.863,3.902-6.607,4.224-9.804c0.286-2.833-9.649-1.146-11.116-1.087
	c1.738-0.922,13.716-5.52,12.67-7.858c-0.635-1.42-3.893-2.302-5.178-2.908c-2.285-1.079-6.173-2.379-8.461-3.452
	c3.617-0.582,8.962-0.755,12.529-1.595c2.796-0.659-0.333-5.401-0.928-6.716c1.341,0.438,4.434,0.932,3.471-1.476
	c-1.191-2.978-3.602-6.847-4.988-9.734c4.021,2.568,8.886,6.163,12.9,8.743c2.163,1.391,4.901,4.02,7.504,4.511
	c1.448,0.272,2.94,0.142,4.407,0.482c2.786,0.647,5.48,1.924,7.66,3.788c1.897,1.622,2.371,3.511,3.703,5.432
	c1.048,1.514,4.634,1.327,6.247,1.56c-1.258,1.108-4.037,2.717-4.39,4.479c-0.448,2.235,5.009,2.351,6.424,2.601
	C69.502,49.651,68.444,50.579,67.381,51.501z"/>
</svg>
