<?xml version="1.0" encoding="utf-8"?>
<!-- Generator: Adobe Illustrator 16.0.0, SVG Export Plug-In . SVG Version: 6.00 Build 0)  -->
<!DOCTYPE svg PUBLIC "-//W3C//DTD SVG 1.1//EN" "http://www.w3.org/Graphics/SVG/1.1/DTD/svg11.dtd">
<svg version="1.1" id="Layer_1" xmlns="http://www.w3.org/2000/svg" xmlns:xlink="http://www.w3.org/1999/xlink" x="0px" y="0px"
	 width="90px" height="90px" viewBox="0 0 90 90" enable-background="new 0 0 90 90" xml:space="preserve">
<g>
	<g id="svgg_3_">
		<path id="path0_1_" d="M42.054,15.118c-1.75,0.219-3.457,0.85-4.976,1.735c-0.593,0.345-2.221,2.103-2.841,1.97
			c-2.789-0.598-5.534-0.427-8.065,0.985c-2.47,1.378-4.346,3.678-5.341,6.313c-0.539,1.428-0.821,2.949-0.851,4.474
			c-0.021,1.033,0.183,1.614-0.362,2.234c-5.002,1.641-7.683,6.926-7.616,11.958c0.032,2.466,0.704,4.942,2.066,7.01
			c0.694,1.055,1.564,1.992,2.57,2.756c1.113,0.846,0.82,0.93,0.835,2.311c0.03,2.837,1.194,5.534,3.508,7.25
			c1.26,0.935,2.647,1.069,3.992,1.732c0.422,0.208,0.916,2.19,1.275,2.684c3.242,4.464,10.346,5.082,15.346,5.307
			c6.191,0.279,13.731,0.235,19.223-3.092c1.624-0.983,3.035-2.386,3.63-4.226c0.655-2.025,3.774-2.563,5.08-4.624
			c0.745-1.176,1.166-2.529,1.328-3.907c0.083-0.703-0.243-2.557,0.364-3.003c2.406-1.769,4.084-4.201,4.806-7.11
			c1.375-5.543-0.837-12.056-6.183-14.613c-0.913-0.436-1.478-0.25-1.445-1.247c0.05-1.56-0.017-3.089-0.417-4.607
			c-0.865-3.279-3.035-6.205-6.072-7.771c-1.471-0.759-3.111-1.173-4.767-1.19c-1.175-0.012-3.051,0.866-3.962-0.002
			C50.266,15.673,45.979,14.625,42.054,15.118 M46.801,17.449c1.552,0.395,3.009,1.083,4.266,2.081
			c0.805,0.639,1.592,2.152,2.726,1.691c2.897-1.177,6.211-0.543,8.646,1.361c2.558,2.001,3.804,5.053,3.846,8.253
			c0.006,0.458-0.586,3.426-0.183,3.513c1.713,0.372,3.324,0.949,4.656,2.122c4.31,3.795,4.761,10.949,0.928,15.252
			c-0.869,0.976-2.143,1.392-3.008,2.275c-0.374,0.381,0.136,2.802,0.109,3.375c-0.18,3.834-2.847,5.047-5.868,6.403
			c-0.567,0.254-0.612,2.056-0.912,2.64c-0.502,0.977-1.323,1.735-2.244,2.313c-2.723,1.711-6.148,2.319-9.297,2.65
			c-6.353,0.668-14.552,0.954-20.263-2.398c-0.948-0.556-1.844-1.281-2.4-2.246c-0.492-0.854-0.257-1.831-0.653-2.646
			c-0.266-0.548-2.584-0.516-3.174-0.744c-1.609-0.623-2.936-1.851-3.713-3.388c-1.068-2.11,0.367-5.255-1.486-6.509
			c-2.753-1.863-4.41-4.871-4.723-8.178c-0.413-4.358,2.175-8.761,6.269-10.388c0.411-0.164,1.854-0.292,2.117-0.708
			c0.327-0.516-0.361-2.63-0.369-3.294c-0.023-2.016,0.561-3.944,1.565-5.682c1.15-1.989,3.114-3.547,5.313-4.21
			c2.341-0.707,3.93,0.356,6.125,0.356c0.462,0,1.721-1.609,2.109-1.904c1.164-0.884,2.496-1.55,3.907-1.935
			C42.833,17.028,45.044,17.002,46.801,17.449"/>
		<g>
			<path d="M51.833,32.556c0.211,0,1.07,2.743,1.276,3.078c0.791,1.289,2.054,1.988,2.935,3.145c0.979,1.284-0.872,0.889-1.41,0.61
				c-2.114-1.095-1.48-1.735-2.685,0.354c-0.746,1.293-1.453,0.574-2.203-0.286c-1.171-1.342-0.995-1.364-2.199-0.008
				c-0.402,0.453-1.327,1.618-2.028,1.618c-1.113,0-0.941-2.749-1.64-2.749c-0.967,0-1.733,3.138-3.042,2.745
				c-1.216-0.386-1.553-3.782-2.742-2.405c-0.604,0.699-4.506,3.048-3.816,0.151c0.21-0.883,1.711-1.796,2.266-2.526
				c0.687-0.904,1.415-2.064,1.415-3.245c0-0.916,2.002,0.163,2.486,0.251c1.532,0.28,3.167,0.156,4.713,0.156
				c1.079,0.001,2.158,0,3.237,0C49.605,33.446,50.717,32.556,51.833,32.556 M51.833,31.156c-0.979,0-1.922,0.744-2.895,0.889
				c-0.841,0.125-1.794,0-2.643,0c-2.055,0-4.385,0.356-6.343-0.344c-3.785-1.355-3.287,2.658-5.501,4.847
				c-1.169,1.156-2.206,2.288-1.123,3.938c1.283,1.954,3.534,1.171,5.034-0.122c1.42,2.432,3.224,2.552,5.121,0.515
				c1.409,2.72,3.645,1.166,5.159-0.559c1.22,1.418,2.929,2.405,4.278,0.499c0.759-1.074,1.645,0.369,2.927,0.369
				c0.825,0,1.497-0.51,1.736-1.302c0.606-2.011-2.099-3.256-3.056-4.637C53.724,34.089,53.622,31.156,51.833,31.156z"/>
		</g>
		<g>
			<path fill="none" stroke="#000000" stroke-width="2.6" stroke-miterlimit="10" d="M71.093,37.324
				c-1.128-1.16-2.509-1.977-4.081-2.372c-1.717-0.432-1.596-0.394-1.288-2.133c0.586-3.321-0.314-6.891-2.751-9.29
				c-2.324-2.288-5.975-3.23-9.05-1.94c-1.376,0.578-1.97-0.858-2.958-1.646c-1.581-1.261-3.503-2.063-5.508-2.322
				c-3.405-0.439-6.678,0.696-9.139,3.065c-1.255,1.207-1.188,0.953-2.857,0.574c-1.627-0.37-3.346-0.126-4.875,0.508
				c-2.681,1.113-4.959,3.481-5.546,6.376c-0.215,1.057,0.215,6.475-0.236,6.657c-3.167,1.277-5.509,1.962-7.156,5.288
				c-1.218,2.46-0.658,4.593-0.645,7.15c0.015,2.944,3.17,4.793,5.12,6.295c0.645,0.496,0.109,2.113,0.091,2.833
				c-0.036,1.412,0.105,2.603,0.844,3.85c1.35,2.279,4.458,3.401,7.023,3.322c1.146-0.035,2.235-1.308,2.754,0.086
				c0.476,1.28,1.489,2.212,2.726,2.75c2.458,1.07,6.229,1.235,8.691,0.092c1.06-0.492,1.57-1.742,2.632-0.84
				c1.11,0.944,2.4,1.334,3.836,1.449c2.21,0.176,4.726,0.142,6.708-0.987c1.109-0.632,2.227-3.435,3.271-2.977
				c3.633,1.593,8.56-0.654,9.534-4.539c0.363-1.447-0.746-4.412,0.621-5.14c1.773-0.944,3.183-2.467,4.051-4.273
				C74.759,45.295,74.106,40.42,71.093,37.324C69.715,35.907,75.714,42.071,71.093,37.324z M55.681,55.825
				c-4.326,1.394-8.023,2.433-12.671,2.151c-4.373-0.266-9.684-1.75-12.929-4.845c-2.466-2.352-0.759-3.344-0.234-6.081
				c0.381-1.984,0.473-3.802,0.007-5.795c-0.498-2.136,2.119-1.426,3.579-2.488c0.987-0.719,2.05-1.743,2.772-2.722
				c0.771-1.045,0.791-3.046,1.605-3.857c0.406-0.405,2.57,0.68,3.24,0.735c2.339,0.194,4.748,0.102,7.092,0.044
				c1.348-0.033,2.238-0.441,3.492-0.826c1.035-0.318,0.974,1.179,1.174,1.814c0.523,1.664,1.724,2.979,3.08,4.027
				c0.717,0.554,1.121,1.135,2.019,1.436c0.46,0.154,2.462,0.277,2.523,0.918c0.174,1.859-0.867,3.697-0.437,5.676
				c0.319,1.472,2.167,4.015,1.377,5.342C60.19,53.331,57.871,55.119,55.681,55.825C55.505,55.881,57.405,55.269,55.681,55.825z
				 M51.995,21.15c-0.023-0.026-0.048-0.052-0.072-0.079C51.947,21.098,51.972,21.124,51.995,21.15z M51.734,20.871
				c-0.028-0.029-0.057-0.058-0.086-0.087C51.677,20.813,51.706,20.841,51.734,20.871z M46.49,17.97
				c1.659,0.384,3.243,1.16,4.548,2.255c-2.103-1.755-4.938-2.641-7.666-2.497C44.416,17.655,45.47,17.734,46.49,17.97
				C48.171,18.36,45.462,17.732,46.49,17.97z M51.459,20.601c-0.033-0.031-0.064-0.062-0.098-0.092
				C51.395,20.54,51.427,20.57,51.459,20.601z M51.188,20.354c-0.043-0.037-0.085-0.075-0.128-0.111
				C51.103,20.279,51.145,20.317,51.188,20.354z M36.639,20.669c-0.086,0.082-0.172,0.165-0.257,0.25
				C36.466,20.834,36.552,20.751,36.639,20.669z"/>
		</g>
	</g>
</g>
</svg>
