<?xml version="1.0" encoding="utf-8"?>
<!-- Generator: Adobe Illustrator 16.0.0, SVG Export Plug-In . SVG Version: 6.00 Build 0)  -->
<!DOCTYPE svg PUBLIC "-//W3C//DTD SVG 1.1//EN" "http://www.w3.org/Graphics/SVG/1.1/DTD/svg11.dtd">
<svg version="1.1" id="Layer_1" xmlns="http://www.w3.org/2000/svg" xmlns:xlink="http://www.w3.org/1999/xlink" x="0px" y="0px"
	 width="90px" height="90px" viewBox="0 0 90 90" enable-background="new 0 0 90 90" xml:space="preserve">
<path d="M72.958,45.448c-0.476-0.084-2.26-0.125-2.632-0.504c-0.018-0.019,5.935-4.493,2.406-6.143
	c-1.525-0.713-3.51-0.735-5.144-0.97c-2.389-0.343-2.293-0.387-3.527-2.406c-2.202-3.604-5.932-6.084-9.879-7.413
	c-3.329-1.122-6.288-0.782-9.246-2.697c-6.426-4.161-12.804-8.697-19.472-12.454c-0.81-0.457-2.435-0.683-3.172-0.018
	c-1.406,1.27-0.519,2.923,0.117,4.274c0.86,1.832,1.763,3.645,2.646,5.465c0.15,0.31,0.607,0.921,0.607,1.289
	c0-0.223-2.054,0.575-2.271,0.874c-0.395,0.544-0.539,1.343-0.386,1.999c0.41,1.756,1.521,3.338,2.153,5.019
	c0.082,0.217-3.392,0.729-3.573,0.759c-2.717,0.443-5.468,0.783-8.165,1.341c-1.413,0.292-2.628,1.143-2.369,2.812
	c0.306,1.968,3.976,2.95,5.468,3.653c1.02,0.481,2.039,0.966,3.058,1.449c0.642,0.304,3.603,1.212,3.816,1.875
	c0.117,0.364-7.4,3.982-7.99,4.293c-1.642,0.865-7.113,3.108-4.113,5.819c0.752,0.679,1.832,0.525,2.764,0.511
	c1.333-0.021,2.667-0.07,4-0.117c1.333-0.048,4.099-0.729,5.299-0.169c0.179,0.081-2.753,6.187-2.998,6.68
	c-0.833,1.677-3.499,4.705-1.698,6.491c1.681,1.668,4.278-0.398,5.709-1.346c0.311-0.206,2.812-2.346,3-1.701
	c1.148,3.938,1.686,8.134,2.504,12.146c0.223,1.091,0.271,2.845,1.046,3.75c1.708,1.994,5.387-0.912,4.438-1.899
	c0.836,0.87,0.943,1.506,2.135,2.039c1.431,0.64,2.951,1.105,4.486,1.418c1.957,0.397,4.073,0.238,6.065,0.191
	c2.293-0.054,6.121-0.684,7.708-2.441c1.557-1.724,2.419-5.05,2.862-7.272c0.27-1.353,1.306-1.973,1.71-3.522
	c0.274-1.053,0.582-5.712,1.633-6.154c2.382-1.002,5.01-1.381,7.423-2.305c1.131-0.433,1.725-0.996,1.724-2.241
	c0-0.547-0.068-1.106-0.443-1.535c-0.164-0.188-1.755-1.074-1.721-1.194C69.375,53.444,80.862,46.837,72.958,45.448
	C71.592,45.208,75.043,45.814,72.958,45.448z M34.385,67.071c-0.397,1.955-1.021,3.883-1.515,5.815
	c-0.834-4.131-1.574-8.296-2.526-12.401c1.1,0.778,1.46,1.158,1.95,2.423C32.775,64.152,34.605,65.993,34.385,67.071
	C34.361,67.187,34.43,66.85,34.385,67.071z M54.253,76.813c-1.023,1.985-4.684,2.343-6.646,2.55c-3.042,0.32-6.194-0.21-8.981-1.472
	c-1.465-0.663-1.961-3.221-2.396-4.597c-0.668-2.114,0.266-3.394,2.48-1.822c3.426,2.431,7.813,2.538,11.651,1.317
	c0.942-0.299,5.146-3.113,5.733-1.473C56.546,72.575,54.818,75.716,54.253,76.813C53.831,77.632,55.045,75.274,54.253,76.813z
	 M56.876,64.171c-2.417,3.219-6.271,6.692-10.391,7.118c-2.722,0.281-5.038-0.722-7.167-2.357c-1.945-1.496-5.033-3.45-5.825-5.926
	c-0.221-0.697-0.522-1.645-0.946-2.243c-0.41-0.58-2.248-1.169-2.248-1.929c0-0.931,3.577-3.379,4.172-3.909
	c0.833-0.742,1.65-1.507,2.503-2.227c0.958-0.808,1.682-0.355,2.801-0.128c0.406,0.082,1.614,0.081,1.798,0.679
	c0.261,0.849-0.874,2.616-0.413,3.211c0.15,0.194,3.689-5.231,4.036-5.808c1.232-2.049,2.612-4.019,3.81-6.082
	c0.569-0.98,0.801-1.844,1.859-0.844c1.128,1.067,2.173,2.552,3.128,3.776c0.299,0.383,2.118,2.166,1.848,2.664
	c-0.484,0.893-3.64,0.933-4.473,1.131c-0.482,0.115-2.797,0.485-2.889,1.216c-0.11,0.875,3.389-0.053,3.62-0.118
	c0.593-0.168,4.219-1.706,4.715-0.793c1.108,2.039,0.521,5.884,0.605,8.089C57.478,61.184,57.829,62.905,56.876,64.171
	C56.358,64.861,57.587,63.227,56.876,64.171z M42.512,50.212c-0.396,1.927-1.622,1.937-3.288,0.754
	c-0.306-0.218,3.472-4.202,3.77-3.945C43.508,47.464,42.624,49.666,42.512,50.212C42.166,51.896,42.575,49.904,42.512,50.212z
	 M57.937,68.013c-0.164-0.065-0.241-0.197-0.23-0.396c0.17,0.051,0.342,0.066,0.516,0.047C58.195,67.85,58.1,67.966,57.937,68.013z
	 M62.3,57.789c0,0.438-1.565,1.626-1.985,1.465c-0.326-0.125,0.307-1.606,0.344-1.922c0.16-1.353,0.408-0.489,1.193-0.558
	c0.421-0.036,0.118-4.551,0.16-5.125c0.176-2.401,2.118-0.04,2.182,1.303c0.043,0.907-0.177,1.985-0.573,2.798
	C63.403,56.199,62.3,57.343,62.3,57.789z M64.508,57.758c-0.344,0.103-0.689,0.204-1.033,0.307c0.289-0.374,0.549-0.768,0.782-1.179
	c0.341,0.238,0.698,0.447,1.073,0.628C65.056,57.595,64.782,57.677,64.508,57.758C64.163,57.859,64.779,57.678,64.508,57.758z
	 M67.381,51.501c-0.71,0.617-1.41,1.246-2.101,1.886c0.084-1.596-0.845-3.973-2.785-3.973c-1.782,0-1.649,2.121-1.626,3.333
	c0.013,0.682,0.035,1.362,0.065,2.043c0.042,0.958-0.864,0.643-1.202,1.64c-0.188,0.556-0.312,1.237-0.478,1.812
	c-0.139,0.419-0.155,0.844-0.048,1.272c-0.298,0.193-0.518,0.453-0.659,0.779c-0.098-2.754,0.12-5.795-0.502-8.48
	c-0.144-0.62-0.457-1.259-1.097-1.504c0.218-1.042-0.806-1.776-1.367-2.479c-0.935-1.17-1.986-2.323-2.83-3.56
	c-0.684-0.999-2.492-3.272-3.77-1.73c-0.687,0.827-1.244,1.917-1.82,2.835c-1.292,2.063-2.565,4.146-3.857,6.213
	c0.418-1.24,0.824-2.777,0.907-4.078c0.128-2.01-1.951-1.622-2.907-0.606c-1.009,1.071-2.419,2.063-3.16,3.345
	c-0.417,0.721,0.135,0.563-0.719,0.856c-2.217,0.761-4.322,3.664-6.105,5.116c-0.819,0.671-1.805,2.358-2.614,2.358
	c-1.561,0-3.615,2.313-4.845,3.155c1.42-2.863,3.902-6.607,4.224-9.804c0.286-2.833-8.28-1.47-9.747-1.411
	c1.738-0.922,12.347-5.195,11.301-7.534c-0.635-1.42-3.893-2.302-5.178-2.908c-2.285-1.079-4.564-2.172-6.852-3.245
	c3.617-0.582,7.353-0.962,10.92-1.802c2.796-0.659-0.333-5.401-0.928-6.716c1.341,0.438,4.434,0.932,3.471-1.476
	c-1.191-2.978-2.757-5.823-4.143-8.711c4.021,2.568,8.041,5.14,12.055,7.72c2.163,1.391,4.901,4.02,7.504,4.511
	c1.448,0.272,2.94,0.142,4.407,0.482c2.786,0.647,5.48,1.924,7.66,3.788c1.897,1.622,2.371,3.511,3.703,5.432
	c1.048,1.514,4.634,1.327,6.247,1.56c-1.258,1.108-4.037,2.717-4.39,4.479c-0.448,2.235,5.009,2.351,6.424,2.601
	C69.502,49.651,68.444,50.579,67.381,51.501C66.737,52.061,68.798,50.271,67.381,51.501z"/>
</svg>
