<?xml version="1.0" encoding="utf-8"?>
<!-- Generator: Adobe Illustrator 16.0.0, SVG Export Plug-In . SVG Version: 6.00 Build 0)  -->
<!DOCTYPE svg PUBLIC "-//W3C//DTD SVG 1.1//EN" "http://www.w3.org/Graphics/SVG/1.1/DTD/svg11.dtd">
<svg version="1.1" id="Layer_1" xmlns="http://www.w3.org/2000/svg" xmlns:xlink="http://www.w3.org/1999/xlink" x="0px" y="0px"
	 width="90px" height="90px" viewBox="0 0 90 90" enable-background="new 0 0 90 90" xml:space="preserve">
<g>
	<path d="M73.524,44.922c-0.998-2.364-3.237-4.147-5.614-4.968c-1.593-0.55-3.326-0.599-4.892-1.187
		c-1.181-0.444-0.278-2.688-0.268-3.78c0.026-2.917-0.423-5.999-1.93-8.533c-0.693-1.166-1.632-1.966-2.867-2.54
		c-0.37-0.172-3.166-0.806-3.166-0.813c0-1.653,0-3.307,0-4.96c0-2.231,1.875-3.692,0.708-6.142
		c-1.115-2.335-4.956-2.709-6.52-0.659c-0.355,0.465-2.132-1.115-2.834-1.255c-1.588-0.317-2.976,0.304-4.094,1.397
		C40.51,9.5,36.99,9.524,35.561,11.621c-0.728,1.067-0.861,2.465-0.438,3.675c0.287,0.82,0.945,1.265,0.945,2.116
		c0,3.437,0,6.873,0,10.309c0,0.393,0.198,1.45,0,1.806c-0.363,0.652-2.167,1.416-2.778,2c-1.999,1.91-2.751,4.982-4.947,6.618
		c-1.22,0.908-2.629,0.941-4.054,1.271c-1.309,0.303-2.389,0.894-3.616,1.345c-1.92,0.697-3.814,3.244-4.266,5.214
		c-2.415,10.54,5.449,18.73,13.618,23.935c2.04,1.299,4.292,2.215,6.335,3.488c1.651,1.029,2.269,3.506,3.967,4.713
		c2.002,1.422,4.963,1.431,7.296,0.982c2.868-0.551,4.287-2.759,5.684-5.063c0.71-0.834,1.67-1.181,2.675-1.695
		c1.776-0.909,3.421-2.026,5.166-2.977c2.576-1.37,5.048-3.611,7.058-5.705C72.72,58.952,76.268,51.419,73.524,44.922
		C73.016,43.717,75.104,48.664,73.524,44.922z M52.897,26.762c6.006-1.646,6.96,5.44,6.438,9.892
		c-0.147,1.248-0.843,2.726,0.204,3.762c1.064,1.052,2.624,1.568,4.058,1.842c2.985,0.571,7.099,1.852,7.368,5.547
		c0.394,5.401-1.415,9.66-5.188,13.558c-2.405,2.485-5.227,4.551-8.184,6.329c-1.655,0.996-3.381,1.833-5.084,2.739
		c-1.495,0.796-2.086,2.127-3.012,3.476c-1.44,2.097-3.324,2.409-5.778,2.057c-3.016-0.433-3.265-3.876-5.587-5.326
		c-6.052-3.778-12.432-6.586-16.459-12.834c-1.981-3.073-3.786-8.683-1.554-12.138c1.707-2.64,4.475-2.788,7.166-3.49
		c3.846-1.002,4.922-3.869,7.038-6.79c2.431-3.356,6.214-4.321,10.172-4.428C47.715,30.872,50.034,28.146,52.897,26.762z
		 M48.389,16.426c0.758-1.024,0.361,3.125,0.175,3.055C48.188,19.337,48.171,16.801,48.389,16.426z M41.915,16.523
		c0.791-0.395,0.329,2.498,0.149,2.991C42.293,18.888,41.22,17.262,41.915,16.523z M39.383,12.257
		c2.347,0.592,0.559,2.448,0.208,3.507c-0.608,1.831,0.315,5.178,0.992,6.938c2.003,5.211,3.766-3.792,3.884-5.212
		c0.068-0.817,0.252-1.529-0.327-2.169c-0.666-0.735-0.862-1.892-0.139-2.664c1.737-1.852,3.952,0.927,2.266,2.816
		c-1.354,1.518,1.42,10.93,3.2,8.285c1.375-2.043,1.526-5.126,1.585-7.494c0.032-1.286-1.956-3.5,0.495-4.076
		c1.071-0.251,2.381,0.596,2.261,1.771c-0.093,0.913-0.933,1.184-1.181,1.892c-0.38,1.087,0,2.953,0,4.108
		c0,1.597-0.029,3.198,0.023,4.794c-0.533,0.78-3.276,1.429-4.103,2.003c-0.748,0.52-1.727,1.838-2.574,2.099
		c-0.916,0.28-2.055,0.095-3.003,0.179c-1.537,0.136-3.357,0.343-4.787,0.943c0.079-3.562,0.053-7.127,0.061-10.69
		c0.002-0.984,0.309-2.521,0.008-3.467c-0.236-0.742-1.222-0.945-1.213-1.98C37.051,12.597,38.276,11.979,39.383,12.257
		C40.741,12.6,37.317,11.737,39.383,12.257z"/>
	<path d="M38.715,54.355c-1.562-1.122-4.955-0.038-6.814-0.104c-2.355-0.084-3.107-0.181-4.301-1.958
		c-0.608-0.905-1.972-0.55-1.972,0.582c0,0.848,0.746,1.987,1.311,2.573c1.691,1.755,4.087,2.749,5.898,4.404
		c3.851,3.519,5.005,8.546,8.152,12.5c1.92,2.412,6.17,2.727,8.311,0.418c3.244-3.497,4.273-8.533,7.64-12.046
		c1.746-1.821,3.897-2.95,5.859-4.487c0.906-0.71,1.593-1.588,2.083-2.62c0.436-0.923-0.069-2.439-1.332-1.859
		c-0.937,0.431-0.623,1.542-1.588,2.071c-1.001,0.55-2.284,0.592-3.395,0.602c-1.538,0.014-3.038-0.333-4.559-0.515
		c-2.109-0.253-4.627,1.372-6.843,1.558C44.4,55.705,41.264,55.568,38.715,54.355C38.264,54.031,40.312,55.115,38.715,54.355z
		 M36.044,56.047c0.664-0.116,1.111-0.214,1.709,0.066c1.168,0.575,0.902,0.331,0.498,1.39c-0.285,0.747-0.561,1.498-0.864,2.238
		c-1.083,2.644-2.274-2.521-2.714-3.53C35.133,56.182,35.59,56.127,36.044,56.047C36.48,55.971,35.619,56.127,36.044,56.047z
		 M52.73,56.199c0.834-0.585,1.937-0.15,2.874-0.033c-0.332,0.793-1.185,4.419-2.078,4.563c-0.666,0.108-1.667-3.548-1.93-4.082
		C51.983,56.519,52.361,56.37,52.73,56.199z"/>
</g>
</svg>
