<?xml version="1.0" encoding="utf-8"?>
<!-- Generator: Adobe Illustrator 16.0.0, SVG Export Plug-In . SVG Version: 6.00 Build 0)  -->
<!DOCTYPE svg PUBLIC "-//W3C//DTD SVG 1.1//EN" "http://www.w3.org/Graphics/SVG/1.1/DTD/svg11.dtd">
<svg version="1.1" id="Layer_1" xmlns="http://www.w3.org/2000/svg" xmlns:xlink="http://www.w3.org/1999/xlink" x="0px" y="0px"
	 width="90px" height="90px" viewBox="0 0 90 90" enable-background="new 0 0 90 90" xml:space="preserve">
<g>
	<path d="M63.916,18.563c-1.215,3.17-2.392,6.663-3.097,9.975c-0.368,1.732-0.329,2.387,0.617,3.844
		c0.161,0.248,1.496,3.019,1.725,3.019c1.058,0,1.259-8.815,1.281-9.815c0.037-1.723,0.038-3.452-0.063-5.173
		C64.369,20.247,64.131,17.998,63.916,18.563z"/>
	<path d="M78.663,50.995c-1.046-0.347-1.094-1.472-2.403-1.672c-1.131-0.172-2.174-0.167-3.215-0.713
		c-2.729-1.43-4.171-4.838-5.354-7.49c-1.138-2.552-0.372-3.465,0.14-6.183c0.743-3.939,1.078-7.999,0.653-11.994
		c-0.367-3.462-1.588-6.269-2.66-9.504c-0.438-1.305-2.232-1.719-3.356-1.106c-1.238,0.675-1.55,2.599-2.238,3.751
		c-1.448,2.426-3.849,4.014-6.195,5.479c-0.294,0.184-2.184,1.753-2.563,1.355c-1.169-1.226-2.067-2.916-3.103-4.268
		c-1.221-1.596-2.042-4.779-4.694-3.704c-1.363,0.552-2.979,4.069-3.887,5.225c-0.246,0.314-1.909,3.015-2.207,2.897
		c-1.216-0.478-2.454-1.51-3.534-2.222c-2.426-1.596-4.552-3.404-5.769-6.094c-1.145-2.531-3.658-4.111-5.133-0.769
		c-1.37,3.106-2.156,6.223-2.44,9.615c-0.284,3.385-0.173,6.826,0.392,10.177c0.259,1.537,0.617,3.063,1.135,4.536
		c0.428,1.222-0.697,2.772-1.194,3.828c-1.909,4.051-3.666,6.49-8.123,7.179c-0.768,0.119-1.366,0.432-1.706,1.154
		c-0.367,0.781-1.536,0.676-1.969,1.546c-1.161,2.331,0.92,3.287,2.688,3.921c4.655,1.671,8.709,4.827,12.332,8.117
		c3.839,3.484,7.125,8.073,11.924,10.317c4.779,2.234,10.704,2.361,15.631,0.508c3.77-1.418,6.437-4.206,9.224-7.006
		c3.801-3.819,7.842-7.657,12.588-10.289c1.679-0.931,3.455-1.43,5.195-2.192C80.715,54.566,80.678,51.667,78.663,50.995z
		 M23.011,59.861c-0.922-0.8-10.98-6.819-11.033-6.666c1.351-0.648,2.266-0.207,2.432-0.467c-0.058-0.17-0.802-0.726-0.584-0.941
		c0.404-0.401,1.607-0.306,2.17-0.461c1.44-0.397,2.667-1.271,3.67-2.362c2.197-2.389,4.842-6.661,5.31-9.902
		c0.15-1.046-0.641-2.393-0.884-3.383c-0.542-2.196-0.839-4.453-0.954-6.712c-0.211-4.149,0.065-8.637,1.696-12.51
		c0.832-1.978,0.957-1.488,1.822,0.21c0.802,1.575,1.977,2.897,3.315,4.038c0.84,0.714,8.623,5.213,7.934,6.297
		c-1.959,2.236-0.811,7.749-0.155,10.266c1.081,4.156,2.478,7.794,2.267,12.16c-1.847-2.116-3.46-4.434-5.027-6.759
		c-0.808-1.199-1.521-2.445-2.207-3.719c-0.555-1.03-1.576-4.763-3.027-4.763c-1.41,0-2.176,2.28-2.601,3.304
		c-0.911,2.195-1.147,4.781-0.047,6.962c1.959,3.885,8.021,7.051,12.148,7.771C35.749,56.76,21.838,51.387,23.011,59.861z
		 M37.65,49.715c-2.814-0.997-5.431-2.69-7.585-4.748c-2.346-2.241-1.88-5.298-0.481-7.959C31.615,41.61,34.513,45.804,37.65,49.715
		z M61.444,62.537c-3.999,3.787-7.477,8.598-13.17,9.715c-6.699,1.314-11.649-1.151-16.206-5.7c-2.075-2.071-4.189-4.08-6.326-6.085
		c-1.683-1.58-0.257-3.414,1.74-3.729c4.388-0.69,12.18,0.952,14.111-4.703c2.042-5.976-1.596-11.907-2.392-17.668
		c-0.846-6.124,2.109-9.74,5.587-14.422c3.047,4.213,5.984,7.658,5.636,13.081c-0.374,5.829-3.432,10.927-2.946,16.934
		c0.421,5.237,5.172,6.287,9.484,6.484c1.727,0.079,6.242-0.523,7.285,1.429C65.364,59.962,62.727,61.322,61.444,62.537z
		 M76.157,54.004c-3.495,1.32-6.854,3.438-9.69,5.857c1.283-8.415-12.512-3.135-16.215-7.653c0.595-0.118,1.311-0.241,1.813-0.614
		c-0.811,3.803,6.02,1.442,7.633,0.139c1.411-1.141,2.423-2.712,3.019-4.415c0.238-0.684,1.471-5.631,0.19-5.503
		c1.531-1.793-2.501-10.824-4.725-5.95c-2.252,4.936-5.319,9.317-8.74,13.502c-0.255-4.223,1.355-7.718,2.178-11.745
		c0.559-2.766,1.949-7.5,0.342-10.162c-0.792-1.311,0.365-1.856,1.587-2.672c1.901-1.271,3.89-2.389,5.66-3.849
		c1.076-0.887,2.053-1.89,2.825-3.056c0.333-0.503,1.647-3.763,2.085-2.578c2.662,7.202,3.144,15.275,0.562,22.637
		c-0.959,2.724,2.573,7.763,4.181,9.922c0.872,1.171,1.92,2.249,3.223,2.937c0.604,0.319,3.315,0.593,3.558,0.993
		c0.17,0.282-0.826,0.848-0.586,1.028c0.346,0.26,2.435-0.104,2.48,0.421C77.563,53.571,76.227,53.978,76.157,54.004z
		 M56.896,42.521c1.092-1.762,2.098-3.591,2.95-5.481c0.6,1.058,1.037,2.165,1.17,3.381C60.921,41.113,57.697,42.046,56.896,42.521z
		"/>
	<path d="M26.871,34.42c1.288-2.608,2.399-3.183,1.714-6.103c-0.415-1.771-1.006-3.487-1.582-5.21
		c-0.356-1.063-0.732-3.887-1.599-4.616c-0.074-0.063-0.412,2.528-0.421,2.725c-0.075,1.654-0.05,3.313,0.02,4.968
		c0.074,1.742,0.201,3.484,0.414,5.216c0.082,0.671,0.185,3.667,0.815,3.987C26.441,35.493,26.886,34.39,26.871,34.42z"/>
	<path d="M49.953,57.572c-1.545-0.822-3.558,0.339-5.181,0.339c-1.97,0-5.166-1.939-5.967,1.021
		c-0.723,2.668,3.093,5.294,5.21,6.097c2.254,0.855,5.586-2.35,6.594-4.088C51.224,59.884,51.156,58.212,49.953,57.572z
		 M46.405,62.349c-1.662,1.188-2.377,0.588-3.898-0.613c-0.729-0.575-3.087-2.908-0.733-2.293c2.619,0.688,4.469-0.127,7.023-0.127
		C49.688,59.315,46.682,62.151,46.405,62.349z"/>
</g>
</svg>
