<?xml version="1.0" encoding="utf-8"?>
<!-- Generator: Adobe Illustrator 16.0.0, SVG Export Plug-In . SVG Version: 6.00 Build 0)  -->
<!DOCTYPE svg PUBLIC "-//W3C//DTD SVG 1.1//EN" "http://www.w3.org/Graphics/SVG/1.1/DTD/svg11.dtd">
<svg version="1.1" id="Layer_1" xmlns="http://www.w3.org/2000/svg" xmlns:xlink="http://www.w3.org/1999/xlink" x="0px" y="0px"
	 width="90px" height="90px" viewBox="0 0 90 90" enable-background="new 0 0 90 90" xml:space="preserve">
<g>
	<path fill="#050508" d="M22.845,50.952c-0.346-0.637-0.612,0.599-0.636,0.735c-0.191,1.073,0.103,1.636,0.479,2.667
		c0.449,1.232,1.147,2.373,1.991,3.375c0.202,0.239,2.628,2.43,2.634,2.042c0.018-1.181-1.904-2.926-2.375-4.053
		C24.603,54.918,24.229,53.5,22.845,50.952z"/>
	<path fill="#050508" d="M31.535,39.016c-0.744-0.225-0.967,2.777-0.973,3.203c-0.014,1.012-0.094,0.938,1.75,1.063
		c1.176,0.08,0.156-1.695-0.06-2.418C32.125,40.172,31.742,39.078,31.535,39.016z"/>
	<path fill="#050508" d="M67.313,50.917c-0.569-0.063-1.095,2.648-1.292,3.083c-0.496,1.094-3.061,3.965-2.708,5.021
		c0.197,0.592,2.646-2.292,3.229-3.354C66.73,55.323,68.247,51.021,67.313,50.917z"/>
	<path fill="#050508" d="M61.393,21.978c-0.272-0.351-0.638-0.746-1.289-1.182c-0.499-0.334-1.11,0.344-1.586,0.563
		c-0.916,0.42-2.173-0.13-3.032-0.455c-2.013-0.761-3.841-1.227-5.846-1.982c-1.362-0.513-2.328-2.453-5.043-2.296
		c-1.28,0.074-2.417,1.252-3.488,1.843c-1.824,1.004-3.962,1.369-5.951,1.95c-1.962,0.572-2.928,0.882-4.88,0.568
		c-1.442-0.232-2.714,2.427-3.365,3.361c-0.471,0.676-0.94,1.382-1.28,2.135c-0.762,1.693,2.48-0.114,2.96-0.357
		c4.048-2.054,7.961-3.196,12.5-3.5c4.373-0.293,8.789-0.226,13.094,0.656c2.165,0.443,4.238,1.174,6.25,2.094
		c1.686,0.771,4.104,2.224,4.403,2.143C65.452,27.354,61.698,22.321,61.393,21.978z"/>
	<path fill="#050508" d="M72.292,49.021c-0.545-0.521-1.646-1.604-1.5-2.375c0.315-1.674,0.451-3.765,0.478-5.505
		c0.058-3.747-0.328-7.54-1.419-11.135c-1.641-5.407-5.04-10.273-9.772-13.41c-2.234-1.48-4.735-2.554-7.356-3.119
		c-2.928-0.631-5.676-0.198-8.616-0.287c-3.585-0.109-6.593-0.253-9.968,1.201c-2.902,1.251-5.505,3.142-7.692,5.414
		c-4.057,4.213-6.588,9.708-7.584,15.442c-0.65,3.74-0.486,7.551,0.224,11.271c0.235,1.233,0.617,2.379,0.566,3.598
		c-0.335,1.44-0.29,2.949,0.07,4.381c0.734,2.922,2.691,5.423,5.084,7.196c2.544,1.886,3.508,2.808,4.249,6.831
		c0.396,2.154,2.016,4.893,3.218,6.019c0.759,0.711,1.705,0.567,2.463,0.114c1.35-0.807,1.205-3.1,1.859-3.547
		c0.258-0.176,1.234,1.146,2.797,1.703c1.459,0.521,2.642,1.33,4.094,1.484c2.908,0.312,5.797-0.117,8.371-1.501
		c2.682-1.442,2.629-2.624,2.354-0.106c-0.053,0.482-0.064,1.118,0.311,1.769c1.206,2.089,4.016-0.55,4.804-2.003
		c1.539-2.835,2.229-6.163,3.957-8.871c1.752-2.747,4.686-4.145,6.111-7.25c0.278-0.606,0.451-2.573,0.885-2.953
		c0.26-0.228,1.812-0.017,2.167-0.101C74.578,52.775,73.63,50.3,72.292,49.021z M47.885,70.244
		c-5.381,1.338-10.572-2.677-13.71-5.449c-2.362-2.087-3.865-6.322-4.842-10.644c1.225,1.252,4.085,2.794,5.434,0.599
		c0.991-1.613-0.907-4.762-1.53-6.111c0.666,0.377,1.046,1.043,1.869,0.944c0.524-0.063,0.957-0.522,1.193-0.989
		c0.332-0.655,0.188-1.328,0.914-1.4c0.924,1.276,2.634,2.205,3.977,2.947c1.643,0.908,3.424,1.896,5.354,1.839
		c0.747-0.022,1.898-0.181,2.396-0.792c0.649-0.798,2.827-0.258,2.703-2.594c-0.066-1.253,1.308-1.469,2.263-0.787
		c1.298,0.927,2.527,1.963,3.927,2.738c0.69,0.383,1.463,0.572,2.192,0.881c0.395,0.167,0.544,0.64,0.384,1.793
		c-0.249,1.788-0.678,3.631-1.25,5.344C57.571,63.306,52.942,68.986,47.885,70.244z M52.219,43.284
		c-1.288-1.642-2.786-4.935-3.091-1.16c-0.171,2.116,0.46,4.024,0.545,6.09c0.091,2.222-3.004-2.886-3.374-2.633
		c-0.361,0.247,0.415,2.157,0.622,2.855c0.736,2.485-2.338,1.073-3.124,0.735c-2.319-0.998-4.469-2.438-5.625-4.172
		c-0.833-1.249-1.463-2.391-1.705-3.887c-0.036-0.221-0.541-3.244-0.899-3.025c-0.804,0.491-0.593,2.945-0.567,3.771
		c0.047,1.516,0,2.219,0.047,2.75c0.016,0.891,0.051,1.596-0.274,2.165c-0.981-0.379-2.243-2.37-3.607-1.419
		c-1.521,1.06,1.132,6.168,1.615,7.479c0.378,1.024-0.84,0.75-1.117,0.576c-1.052-0.659-1.916-1.42-2.601-2.458
		c-0.547-0.828-1.297-3.891-2.688-4.102c-0.609,0.536-0.02,3.374,0.095,4.055c0.312,1.85,0.777,3.646,1.219,5.469
		c0.827,3.415,2.068,6.614,4.531,9.188c2.094,2.188,1.824,3.094,1.688,4.953c0.004-0.056,0.045,2.437-0.505,1.902
		c-1.121-1.091-1.595-3.392-2.099-4.812c-0.5-1.409-0.816-3.019-1.491-4.357c-0.776-1.539-2.221-2.243-3.569-3.174
		c-1.453-1.004-2.66-2.361-3.515-3.905c-0.78-1.408-1.321-3.054-1.141-4.682c0.071-0.639,0.272-1.216,0.541-1.794
		c0.263-0.564-0.287-1.661-0.43-2.249c-0.978-4.013-1.291-8.234-0.456-12.302c1.321-6.438,4.928-12.703,10.29-16.586
		c3.123-2.263,6.668-3.427,10.528-3.316c3.553,0.101,7.605-0.12,11.062,0.769c6.993,1.798,12.457,7.848,14.44,14.664
		c1.163,4,1.388,7.858,1.316,12.009c-0.028,1.625-0.868,3.849-0.342,5.399c0.163,0.479,2.322,2.645,2.228,2.799
		c-0.119,0.069-0.347,0.065-0.481,0.035c-0.625-0.146-1.422-0.479-1.854-0.295c-0.374,0.159-0.318,2.998-0.541,3.573
		c-0.901,2.32-2.25,4.476-4.396,5.812c-2.334,1.454-3.169,3.848-4.081,6.302c-0.465,1.254-1.36,5.408-2.848,5.88
		c-0.405,0.129,0.194-4.101,0.25-4.469c0.164-1.075,0.031-0.845,0.531-1.563c0.527-0.757,1.482-2.12,1.969-2.906
		c2.116-3.414,3.075-7.596,3.344-11.563c0.196-2.896-0.646-4.15-3.043-5.709c-2.766-1.798,0.004,3.152,0.23,3.021
		c-0.615,0.354-2.646-1.367-3.135-1.729C55.81,46.604,54.024,44.923,52.219,43.284z"/>
</g>
</svg>
