<?xml version="1.0" encoding="utf-8"?>
<!-- Generator: Adobe Illustrator 16.0.0, SVG Export Plug-In . SVG Version: 6.00 Build 0)  -->
<!DOCTYPE svg PUBLIC "-//W3C//DTD SVG 1.1//EN" "http://www.w3.org/Graphics/SVG/1.1/DTD/svg11.dtd">
<svg version="1.1" id="Layer_1" xmlns="http://www.w3.org/2000/svg" xmlns:xlink="http://www.w3.org/1999/xlink" x="0px" y="0px"
	 width="90px" height="90px" viewBox="0 0 90 90" enable-background="new 0 0 90 90" xml:space="preserve">
<path d="M71.041,46.073c-0.065-1.298-0.158-3.332-0.206-4.52c-0.152-3.792-1.155-7.271-3.439-11.921
	c-5.703-11.609-15.545-17.724-26.52-16.472c-7.454,0.851-13.792,4.985-18.58,12.121c-3.089,4.604-5.637,11.104-5.861,14.951
	c-0.191,3.276-0.431,8.887-0.433,10.16L16,51.793l0.29,0.84c0.16,0.463,0.71,2.137,1.223,3.721c2.4,7.408,2.273,7.069,2.864,7.613
	c0.69,0.636,2.013,0.779,2.93,0.318c0.237-0.119,0.44-0.206,0.452-0.194c0.011,0.013,0.552,1.192,1.202,2.622
	c1.479,3.255,1.209,2.864,3.408,4.93c5.216,4.901,4.859,4.631,6.106,4.631c1.289,0,1.81-0.384,2.564-1.89
	c0.488-0.972,0.445-0.947,1.089-0.622c0.97,0.489,4.039,1.494,5.107,1.673c0.757,0.126,3.757-0.699,5.68-1.563
	c0.906-0.407,0.793-0.456,1.266,0.547c0.843,1.787,2.273,2.381,3.799,1.574c0.523-0.276,4.027-3.474,6.175-5.635l0.8-0.805
	l1.155-2.561c0.635-1.408,1.206-2.64,1.268-2.737l0.113-0.178l0.413,0.211c0.927,0.474,2.228,0.315,2.948-0.358
	c0.519-0.485,0.552-0.556,1.206-2.577c1.112-3.438,1.734-5.355,2.3-7.08C71.38,51.155,71.329,51.769,71.041,46.073z M26.631,49.986
	c-0.345-1.596-0.583-4.317-0.413-4.723c0.104-0.248,2.278-2.355,3.326-3.223c0.196-0.163,0.225-0.277,0.555-0.277
	c0.546,0,1.915,0.312,6.217,1.232c1.639,0.351,2.493,0.554,2.963,0.554c0.591,0,0.579-0.321,0.758-1.077
	c0.306-1.281,0.243-1.219,2.127-2.155c4.739-2.357,9.279-6.556,11.554-10.685c0.145-0.264,0.336-0.561,0.425-0.66
	c0.094-0.104,0.174-0.165,0.263-0.165c0.195,0,0.43,0.294,0.936,1.054c1.186,1.783,2.333,4.624,3.134,7.761
	c0.324,1.27,0.408,1.725,0.149,1.725c-0.117,0-0.303-0.093-0.568-0.244c-0.253-0.145-0.468-0.219-0.821-0.219
	c-0.38,0-0.921,0.086-1.84,0.259c-0.594,0.112-1.62,0.298-2.28,0.412c-0.66,0.114-1.704,0.297-2.32,0.406
	c-0.616,0.109-1.534,0.271-2.04,0.36c-1.46,0.256-1.471,0.259-1.574,0.475c-0.111,0.235,0.375,2.415,0.592,2.657
	c0.05,0.055,0.16,0.085,0.354,0.085c0.573,0,1.879-0.255,4.547-0.863c2.951-0.674,4.651-0.991,5.608-0.991
	c0.695,0,0.999,0.168,1.104,0.489c0.288,0.883,0.583,4.044,0.583,6.26c0,1.94-0.122,1.745,1.543,2.479
	c1.753,0.772,1.754,0.775,1.313,2.072c-2.125,6.251-5.763,11.872-9.943,15.365c-0.917,0.766-1.916,1.484-2.063,1.484
	c-0.045,0-0.382,0.181-0.748,0.401c-1.951,1.179-5.208,2.398-6.403,2.398c-1.149,0-4.009-1.01-5.901-2.085
	c-0.404-0.229-1.008-0.567-1.342-0.752c-4.332-2.388-9.282-9.219-11.751-16.214c-0.657-1.86-0.702-1.728,0.762-2.235
	C26.764,50.888,26.813,50.831,26.631,49.986z M37.826,36.668c-0.246,0.663-0.569,1.562-0.717,1.997
	c-0.294,0.865-0.36,1.162-0.931,1.162c-0.322,0-0.804-0.095-1.578-0.234c-1.299-0.235-1.591-0.349-1.5-0.585
	c0.069-0.181,3.697-3.161,4.577-3.761c0.224-0.152,0.384-0.238,0.48-0.238C38.384,35.009,38.266,35.482,37.826,36.668z
	 M68.265,52.41c-0.175,0.497-0.421,1.245-0.548,1.663c-0.206,0.681-1.368,4.275-2.132,6.6c-0.443,1.346-0.431,1.344-1.839,0.4
	c-1.018-0.682-1.104-0.723-1.345-0.63c-0.102,0.039-1.083,1.919-1.083,2.075c0,0.021-0.344,0.785-0.765,1.696
	c-0.42,0.912-0.987,2.145-1.258,2.738l-0.494,1.08l-1.001,0.988c-2.151,2.124-4.748,4.491-4.927,4.491
	c-0.179,0-0.588-0.634-0.995-1.542c-0.026-0.058-0.048-0.107-0.073-0.162c0.342-0.154,0.674-0.377,1.047-0.646
	c0.443-0.318,0.97-0.729,1.446-1.127c4.49-3.751,8.359-9.709,10.615-16.345c0.283-0.832,0.669-1.97-0.059-3.119
	c-0.523-0.825-1.29-1.163-2.451-1.675c-0.081-0.036-0.158-0.069-0.231-0.102c0-0.112,0.001-0.233,0.001-0.363
	c0-2.016-0.264-5.632-0.692-6.943c-0.115-0.351-0.338-0.814-0.771-1.207c0.485-0.911,0.233-1.898-0.101-3.204
	c-0.862-3.376-2.113-6.45-3.435-8.436c-0.635-0.954-1.354-2.035-2.768-2.035l0,0c-0.501,0-1.238,0.156-1.903,0.898
	c-0.305,0.343-0.622,0.902-0.712,1.065c-2.042,3.708-6.305,7.637-10.605,9.775l-0.151,0.075c-0.897,0.445-1.441,0.716-1.899,1.118
	c0.003-0.01,0.006-0.019,0.009-0.027l0.047-0.139c0.144-0.422,0.463-1.311,0.697-1.94c0.502-1.354,0.937-2.524,0.159-3.642
	c-0.428-0.616-1.135-0.983-1.891-0.983c-0.713,0-1.269,0.313-1.719,0.62c-0.706,0.48-2.415,1.88-2.75,2.155
	c-2.309,1.897-2.423,2.064-2.642,2.636c-0.177,0.462-0.204,0.956-0.089,1.42c-0.366-0.056-0.62-0.077-0.856-0.077
	c-1.021,0-1.61,0.449-1.964,0.786l-0.012,0.012c-0.627,0.521-1.508,1.344-2.127,1.944c-1.484,1.438-1.647,1.726-1.808,2.111
	c-0.177,0.423-0.321,0.968-0.148,2.954c0.061,0.69,0.148,1.403,0.25,2.045c-0.717,0.253-1.539,0.606-1.992,1.545
	c-0.511,1.061-0.179,1.995,0.207,3.078l0.098,0.275c2.676,7.582,7.925,14.741,12.764,17.409c0.019,0.011,0.042,0.022,0.062,0.034
	c-0.38,0.817-0.819,1.636-0.931,1.707c-0.209,0.131-0.326,0.039-2.593-2.071c-3.801-3.535-3.342-2.976-4.424-5.4
	c-0.226-0.505-0.534-1.171-0.684-1.479c-0.255-0.522-0.655-1.411-1.278-2.84c-0.455-1.043-0.574-1.2-0.91-1.199
	c-0.314,0-0.356,0.023-1.417,0.779c-0.702,0.5-1.046,0.613-1.213,0.4c-0.07-0.09-0.315-0.831-1.798-5.421
	c-0.22-0.682-0.538-1.654-0.706-2.16c-0.167-0.506-0.456-1.388-0.64-1.96l-0.336-1.04l0.052-1.479
	c0.049-1.427,0.391-8.242,0.487-9.72c0.066-1.014,0.146-1.338,1.064-4.28c0.13-0.418,0.319-0.958,0.419-1.2
	c0.101-0.242,0.362-0.872,0.581-1.4c2.159-5.201,5.456-9.741,9.294-12.801c4.267-3.399,9.933-5.069,15.32-4.513
	c1.843,0.189,2.333,0.294,4.683,0.996c7.649,2.286,15.03,11.458,17.542,21.799l0.321,1.319l0.134,3.8
	c0.073,2.091,0.168,4.431,0.21,5.2C68.711,50.709,68.655,51.302,68.265,52.41z"/>
</svg>
