<?xml version="1.0" encoding="utf-8"?>
<!-- Generator: Adobe Illustrator 16.0.0, SVG Export Plug-In . SVG Version: 6.00 Build 0)  -->
<!DOCTYPE svg PUBLIC "-//W3C//DTD SVG 1.1//EN" "http://www.w3.org/Graphics/SVG/1.1/DTD/svg11.dtd">
<svg version="1.1" id="Layer_1" xmlns="http://www.w3.org/2000/svg" xmlns:xlink="http://www.w3.org/1999/xlink" x="0px" y="0px"
	 width="90px" height="90px" viewBox="0 0 90 90" enable-background="new 0 0 90 90" xml:space="preserve">
<g>
	<path d="M72.425,59.842c1.408-1.011,1.272-4.083,1.315-5.555c0.093-3.229,0.214-6.956-0.577-10.114
		c-0.418-1.668-2.055-2.149-3.467-2.786c-0.59-0.266-1.612-0.431-1.7-1.114c-0.103-0.795-0.771-2.491-0.258-3.175
		c3.771-5.035,3.62-12.663,0.831-18.121c-1.189-2.327-3.188-5.615-6.079-3.715c-0.904,0.594-8.74,7.341-8.106,7.975
		c-0.573-0.542-0.368-1.934-1.052-2.617c-0.833-0.831-2.199-0.855-3.292-0.855c-2.648-0.001-2.758-3.331-5.333-3.299
		c-2.351,0.029-2.591,3.316-4.871,3.302c-1.234-0.008-2.724-0.127-3.838,0.522c-1.08,0.629-0.66,1.89-1.37,2.555
		c0.442-0.414-6.375-6.552-7.126-7.092c-3.598-2.586-5.66,0.726-7.137,3.915c-1.368,2.952-1.917,6.28-1.625,9.518
		c0.144,1.593,0.494,3.169,1.068,4.664c0.407,1.06,2.025,2.87,1.873,3.937c-0.115,0.803-0.049,2.69-0.883,3.044
		c-1.058,0.45-2.098,0.953-3.126,1.465c-1.844,0.919-1.798,3.21-1.95,5.076c-0.271,3.337-0.433,6.924,0.072,10.245
		c0.112,0.734,0.292,1.553,0.863,2.078c0.982,0.903-0.231,1.609-0.667,2.707c-0.967,2.435,1.835,3.11,3.483,3.809
		c3.669,1.557,7.269,3.267,10.979,4.729c5.012,1.975,10.285,3.673,15.739,3.309c5.196-0.347,10.548-2.119,15.246-4.296
		c3.559-1.649,7.499-2.89,10.915-4.792C75.079,63.642,71.22,60.708,72.425,59.842C73.599,58.999,71.956,60.179,72.425,59.842z
		 M49.493,22.043c0.775,0.016,2.069-0.231,2.467,0.653c0.18,0.4,0.894,3.557,0.901,3.555c-0.879,0.131-1.609,0.535-2.348,0.518
		c-0.647-1.574-1.028-3.224-1.954-4.686C48.871,22.066,49.182,22.053,49.493,22.043C52.098,22.097,49.113,22.036,49.493,22.043z
		 M43.017,22.973c0.67-0.742,1.196-1.605,1.825-2.38c4.855,6.374,6.466,16.656,0.778,23.192c-0.748,0.859-0.783,0.787-1.541-0.055
		c-0.667-0.741-1.226-1.576-1.697-2.452c-1.178-2.191-1.842-4.662-2.068-7.133C40.003,30.747,40.578,25.662,43.017,22.973
		C43.243,22.723,42.374,23.682,43.017,22.973z M36.648,24.74c0.695-2.98,1.209-2.749,4.324-2.74
		c-0.676,1.027-1.176,2.193-1.613,3.338c-0.639,1.673-1.332,1.244-3.057,0.785C36.431,25.666,36.547,25.205,36.648,24.74
		C37.16,22.545,36.504,25.362,36.648,24.74z M19.451,45.345c0.986-0.518,2.005-0.985,3.026-1.43c0,0.983,0.027,1.967-0.007,2.95
		c-0.306,0.286-0.693,0.536-0.958,0.859c-1.26,1.099-1.249,2.229-1.231,3.825c0.003,1.055,0.02,2.111,0.03,3.166
		c0.003,0.352,0.654,0.504,0.686,0.806c-0.292,0.748-0.64,1.472-0.958,2.208c-1.616-0.845-1.006-4.024-0.989-5.654
		C19.072,49.893,18.951,47.486,19.451,45.345C20.027,45.042,19.035,47.128,19.451,45.345z M24.842,47.681
		c4.043,1.453,8.01,3.115,12.016,4.666C37.616,52.64,38,52.547,38,53.376c0,0.721,0.303,1.569-0.541,1.647
		c-2.276,0.21-4.554,0.394-6.831,0.587c-3.11,0.263-5.62,0.918-8.058-1.468c-0.469-0.847-0.208-2.413-0.208-3.429
		C22.364,49.295,23.727,48.443,24.842,47.681C25.623,47.962,24.755,47.74,24.842,47.681z M24.569,43.358
		c0.005-0.408,0.034-0.684,0.103-1.073c0.487,1.327,1.097,2.828,2.08,3.875c-0.615-0.231-1.459-0.718-2.163-0.609
		C24.584,44.82,24.582,44.089,24.569,43.358C24.574,42.913,24.572,43.545,24.569,43.358z M26.828,42.065
		c3.836,0.943,7.049,3.582,9.683,6.418C32.591,46.772,28.555,46.242,26.828,42.065C26.857,42.073,27.118,42.768,26.828,42.065z
		 M26.313,65.091c0.031,0.141,0.063,0.282,0.094,0.423c-2.144-0.949-4.273-1.938-6.446-2.822c1.127-1.885,1.917-3.867,2.769-5.885
		c3.556,2.554,10.425,0.703,14.575,0.326c-1.946,1.698-4.188,3.078-6.56,4.092C28.898,62.014,25.882,62.381,26.313,65.091
		C26.335,65.231,26.165,64.161,26.313,65.091z M61.196,65.743c-1.76,2.647-7.203,3.572-10.096,4.315
		c-3.211,0.825-6.423,1.131-9.706,0.591c-3.556-0.585-8.944-1.523-11.739-3.942c-0.603-0.521-2.008-2.065-0.772-2.56
		c1.998-0.8,3.951-1.497,5.817-2.601c3.677-2.175,6.18-4.921,8.453-8.47c0.878-1.372,2.114-2.29,3.302-0.618
		c2.31,3.249,4.179,6.06,7.594,8.319c1.784,1.179,3.708,2.148,5.715,2.885C61.158,64.174,62.205,64.226,61.196,65.743
		C60.652,66.561,61.762,64.892,61.196,65.743z M69.515,62.691c-1.966,0.771-3.885,1.68-5.812,2.543
		c0.684-3.093-3.957-3.722-5.883-4.693c-3.055-1.541-6.009-3.71-7.947-6.574c-1.349-1.993-2.204-4.526-5.008-4.526
		c-1.087,0-1.991,0.536-2.672,1.353C41.646,51.452,40,53.294,40,54.121c0-0.452,0-0.905,0-1.357c0-1.01,0.399-0.428,0.792-1.268
		c0.789-1.69-3.107-4.844-4.13-5.839c-1.876-1.824-3.982-3.456-6.364-4.566c-1.229-0.573-4.054-1.987-5.388-1.043
		c0.157-1.174,0.946-2.812,0.31-3.92c-0.775-1.352-1.761-2.334-2.273-3.868c-1.184-3.543-0.88-7.74,0.686-11.12
		c0.661-1.427,1.143-3.113,2.637-1.956c1.491,1.154,2.828,2.498,4.049,3.931c2.425,2.845,4.09,5.429,8.173,5.516
		c-0.651,3.418-0.392,7.007,0.655,10.321c0.676,2.141,2.886,7.772,5.748,7.772c2.787,0,4.796-5.472,5.418-7.538
		c1.012-3.363,1.298-7.103,0.588-10.556c4.294-0.067,6.144-3.071,8.731-6.028c1.062-1.214,2.199-2.363,3.477-3.352
		c1.507-1.167,1.789-0.021,2.568,1.51c1.523,2.997,1.937,6.63,1.276,9.914c-0.308,1.531-0.872,3.04-1.803,4.304
		c-1.416,1.923-0.865,2.861-0.573,5.083c-2.195-1.685-7.896,2.305-9.553,3.619c-1.647,1.306-3.122,2.818-4.497,4.404
		c-0.467,0.539-3.637,4.044-0.84,4.044c1.083,0,2.235-0.878,3.2-1.319c1.801-0.823,3.643-1.557,5.471-2.317
		c3.359-1.398,5.237-2.454,6.453-6.149c0.39,3.056-0.27,6.177,0.339,9.224C65.922,55.437,67.565,59.283,69.515,62.691z
		 M62.687,42.071c-1.671,4.186-5.865,4.737-9.718,6.415C55.651,45.571,58.803,43.102,62.687,42.071
		C62.367,42.872,59.186,43,62.687,42.071z M71.423,56.982c-0.182,1.104-0.677,1.26-1.58,1.805c-0.965-2.807-2.374-5.397-2.773-8.387
		c-0.342-2.558,0.115-5.16-0.093-7.724c2.879,1.43,4.154,1.229,4.386,4.464C71.59,50.31,71.943,53.828,71.423,56.982
		C71.258,57.982,71.763,54.92,71.423,56.982z"/>
	<path d="M29.479,25.61c-0.899-1.43-4.642-6.475-5.671-2.311c-0.759,3.069-0.664,7.052,0.768,9.92
		c1.515,3.028,4.857-1.343,6.639-2.395C33.326,29.584,30.284,26.89,29.479,25.61C28.153,23.501,30.573,27.35,29.479,25.61z
		 M29.353,29.501c-1.126,0.671-2.151,1.494-3.072,2.425c-0.997-2.381-0.953-5.314-0.505-7.812
		C26.477,24.71,29.603,29.354,29.353,29.501C28.284,30.139,29.418,29.463,29.353,29.501z"/>
	<path d="M48.217,57.536c-2.966-1.657-10.282-0.19-6.665,4.18c2.022,2.442,3.637,3.106,5.971,0.795
		C48.749,61.298,50.426,58.77,48.217,57.536C47.431,57.097,48.839,57.883,48.217,57.536z M46.135,60.792
		c-0.545,0.575-0.991,1.403-1.704,0.769c-0.623-0.554-1.374-1.297-1.682-2.092c1.011-0.62,3.341-0.584,4.356-0.036
		C46.96,59.935,46.469,60.44,46.135,60.792C45.7,61.25,46.875,60.013,46.135,60.792z"/>
	<path d="M58.278,30.826c1.886,1.111,5.19,5.495,6.71,2.27c1.181-2.509,1.324-5.976,0.952-8.678
		c-0.479-3.474-2.994-3.018-4.798-0.53C60.233,25.142,56.172,29.591,58.278,30.826C60.096,31.896,58.055,30.695,58.278,30.826z
		 M61.884,26.559c0.53-0.855,1.081-1.863,1.896-2.49c0.531,2.38,0.322,5.592-0.564,7.862c-1.006-1.006-2.08-1.824-3.298-2.559
		C60.688,28.522,61.282,27.529,61.884,26.559C62.829,25.034,60.897,28.149,61.884,26.559z"/>
</g>
</svg>
