<?xml version="1.0" encoding="utf-8"?>
<!-- Generator: Adobe Illustrator 16.0.0, SVG Export Plug-In . SVG Version: 6.00 Build 0)  -->
<!DOCTYPE svg PUBLIC "-//W3C//DTD SVG 1.1//EN" "http://www.w3.org/Graphics/SVG/1.1/DTD/svg11.dtd">
<svg version="1.1" id="Layer_1" xmlns="http://www.w3.org/2000/svg" xmlns:xlink="http://www.w3.org/1999/xlink" x="0px" y="0px"
	 width="90px" height="90px" viewBox="0 0 90 90" enable-background="new 0 0 90 90" xml:space="preserve">
<path d="M71.676,34.853c-1.284-4.883-3.663-8.181-7.609-11.368c-0.608-0.492-1.248-0.938-1.891-1.383
	c-0.503-0.348-0.367-1.91-0.474-2.47c-0.468-2.462-1.581-4.833-3.425-6.564c-8.909-8.365-20.066,0.712-25.815,7.843
	c-3.422,4.245-7.177,7.972-10.979,11.868c-3.964,4.062-7.618,8.852-8.355,14.651c-0.358,2.821,0.08,5.675,1.127,8.311
	c0.748,1.882,1.92,5.309,4.457,4.943c2.525-0.364,1.802-2.918,1.271-4.569c-0.453-1.409-0.638-2.9-0.515-4.376
	c-0.01,0.115,0.392-2.382,0.491-2.31c0.351,0.251,0.277,2.064,0.335,2.445c0.255,1.708,0.671,3.394,1.255,5.02
	c1.078,2.999,2.727,5.749,4.8,8.162c1.896,2.207,4.112,3.964,6.344,5.803c2.969,2.448-0.542,3.816,0.229,6.548
	c0.771,2.733,3.76,1.14,5.077-0.061c0.905-0.824,1.713-1.701,2.408-2.707c0.508-0.734,1.471,1.075,1.839,1.372
	c2.302,1.861,4.726-0.931,3.411-3.252c-0.155-0.273-2.364-4.057-2.315-4.066c0.608-0.118,1.41,0.971,1.856,1.274
	c1.54,1.046,3.262,1.998,5.16,2.114c3.465,0.212,6.241-2.443,8.729-4.467c-0.786,1.995-2.324,3.744-2.979,5.749
	c-0.637,1.951,0.912,3.982,3.074,2.998c2.106-0.958,3.714-4.189,4.976-6.018c1.609-2.334,3.066-4.775,4.322-7.319
	C72.888,54.091,74.212,44.521,71.676,34.853z M37.661,72.868c-0.189-3.765-4.36-5.633-6.742-7.919
	c-3.523-3.379-6.04-7.801-7.012-12.595c-0.478-2.352-0.574-4.748-0.244-7.126c0.132-0.946,1.479-6-1.304-4.431
	c-3.875,2.185-5.291,7.328-5.393,11.427c-1.648-12.334,10.725-19.715,17.551-28.123c3.324-4.095,7.193-9.1,12.615-10.358
	c4.353-1.01,9.505,0.638,11.001,5.187c-1.239-1.398-3.144-2.092-4.938-2.404c-2.811-0.519-5.916-0.198-8.318,1.469
	c-0.986,0.684-1.891,1.66-2.102,2.885c-0.223,1.299-2.065,1.613-3.223,2.342c-5.047,3.179-6.932,8.253-8.299,13.749
	c-1.618,6.504-0.881,14.011,1.419,20.242c1.193,3.231,2.791,6.005,4.485,8.965c0.617,1.081,1.12,2.21,1.831,3.241
	C39.692,70.437,38.38,71.885,37.661,72.868z M57.243,21.331c-4.304-1.183-8.195-1.289-12.57-0.417
	C46.133,17.162,56.947,16.76,57.243,21.331z M40.624,65.748c-0.267-0.812-0.715-2.114-0.952-2.935
	C41.172,64.141,40.826,64.497,40.624,65.748z M50.719,68.707c-4.298-0.097-9.166-6.384-11.214-9.666
	c-1.203-1.93-0.724-4.779-0.696-6.969c0.04-3.104,0.428-6.069,1.065-9.102c2.115,4.426,5.106,8.625,8.916,11.753
	c1.92,1.577,4.271,3.182,6.614,4.05c1.705,0.631,3.232-0.74,1.625-2.171c-3.157-3.103-7.049-8.224-8.503-12.472
	c2.197,2.073,5.38,4.204,8.33,4.988c0.834,0.221,8.804,2.33,6.557-0.868c1.248,0.666,0.604,3.639,0.486,4.745
	c-0.259,2.441-1.356,4.651-2.642,6.708C59.362,62.735,54.818,68.8,50.719,68.707z M70.517,50.953
	c-0.484,4.856-1.775,6.726-3.929,11.086c-0.972,1.968-2.07,3.872-3.271,5.708c-0.656,1.002-2.277,4.384-3.573,4.697
	c0.204-0.049,1.477-3.633,1.586-3.896c1.042-2.504,1.783-5.15,2.327-7.806c0.464-2.266,1.622-4.281,1.946-6.556
	c0.268-1.883,0.822-5.307-0.528-6.883c-1.136-1.324-3.154-1.982-4.504-3.1c-1.483-1.229-3.197-3.792-5.087-4.355
	c-2.419-0.721-0.292,2.969,0.111,3.509c1.423,1.907,3.26,3.467,5.113,4.939c-3.312-0.472-6.568-2.072-9.237-4.052
	c-1.875-1.391-3.259-3.917-5.824-3.664c0.668,5.782,5.132,11.274,8.703,15.627c-3.607-1.881-6.692-4.639-9.143-7.872
	c-0.882-1.165-4.413-9.028-5.996-8.046c-1.259,0.782-1.163,2.759-1.375,4.029c-0.44,2.634-0.792,5.125-0.825,7.813
	c-0.055,4.417,0.12,8.542,1.438,12.739c-5.159-6.955-6.766-16.285-5.899-24.72c0.395-3.845,1.439-7.566,3.487-10.864
	c2.267-3.651,5.285-5.083,9.163-6.271c4.418-1.353,9.465-0.482,13.719,1.014c4.036,1.423,6.595,3.338,8.742,7.115
	C71.16,37.295,71.204,44.122,70.517,50.953z"/>
</svg>
