<?xml version="1.0" encoding="utf-8"?>
<!-- Generator: Adobe Illustrator 16.0.0, SVG Export Plug-In . SVG Version: 6.00 Build 0)  -->
<!DOCTYPE svg PUBLIC "-//W3C//DTD SVG 1.1//EN" "http://www.w3.org/Graphics/SVG/1.1/DTD/svg11.dtd">
<svg version="1.1" id="Layer_1" xmlns="http://www.w3.org/2000/svg" xmlns:xlink="http://www.w3.org/1999/xlink" x="0px" y="0px"
	 width="90px" height="90px" viewBox="0 0 90 90" enable-background="new 0 0 90 90" xml:space="preserve">
<g>
	<path d="M77.766,46.423c-0.161-1.909-2.402-2.777-3.828-3.675c-0.404-0.253-1.651-0.737-1.658-1.246
		c-0.018-1.438-0.049-2.871-0.222-4.301c-0.724-5.992-3.515-11.635-8.318-15.384c-2.304-1.799-4.964-3.104-7.762-3.933
		c-1.098-0.324-1.718-0.289-2.18-1.008c0-1.021-0.667-2.353-1.793-2.429c-3.991-0.271-8.046-0.202-12.043-0.149
		c-1.753,0.023-3.188,0.233-3.517,2.351c-0.882,1.53-4.566,1.9-6.415,2.791c-4.965,2.394-8.661,6.531-10.55,11.703
		c-1.019,2.788-1.533,5.742-1.729,8.697c-0.057,0.856,0.187,1.732-0.564,2.215c-1.18,0.757-2.4,1.466-3.543,2.278
		c-2.143,1.523-1.263,3.401-0.552,5.568c0.905,2.762,1.625,5.684,2.814,8.339c1.155,2.578,3.767,1.864,6.124,1.697
		c1.229,0.288,1.148,0.747,1.821,2.016c1.243,2.346,2.904,4.462,4.855,6.259c7.624,7.019,18.689,8.283,27.823,3.477
		c4.02-2.116,7.328-5.39,9.495-9.382c0.748-1.377,0.653-2.429,2.242-2.345c1.058,0.056,3.284,0.511,4.287,0.031
		c1.711-0.819,1.936-2.666,2.502-4.387C75.925,52.97,78.003,49.293,77.766,46.423C77.66,45.166,77.828,47.171,77.766,46.423z
		 M70.58,56.007c-0.987-0.06-1.974-0.132-2.962-0.185c1.59-3.244,2.609-6.675,3.106-10.25c0.922,0.585,1.848,1.166,2.749,1.783
		c-0.175,0.531-0.353,1.061-0.529,1.592C72.165,51.303,71.417,53.671,70.58,56.007C70.418,55.997,70.832,55.303,70.58,56.007z
		 M65.245,54.671c0.798-5.772-2.131-12.402-8.552-13.114c-4.689-0.52-9.328,2.063-11.683,6.183
		c-2.479-4.358-7.855-7.295-12.832-5.979c-5.701,1.508-8.215,7.375-7.409,12.839c-2.883-5.951-4.29-13.438-2.378-19.908
		c2.321-7.854,8.071-12.165,15.881-13.779c0.282,1.944,0.112,5.75,1.455,7.307c0.568,0.659,1.701,0.563,2.479,0.597
		c2.263,0.099,5.071,0.523,7.278-0.049c2.404-0.623,2.233-5.868,2.474-7.837c7.811,1.681,14.099,6.447,15.901,14.604
		C69.273,41.936,68.106,48.836,65.245,54.671z M62.794,52.387c-0.005,3.721-1.426,8.246-4.01,10.983
		c-3.126,3.312-6.638,4.134-10.62,5.81c-3.402,1.411-8.736-0.27-11.816-1.928c-4.146-2.232-6.534-5.443-8.191-9.705
		c-1.7-4.365-1.309-10.514,3.425-12.771c2.562-1.222,5.33-0.772,7.64,0.742c1.12,0.733,2.154,1.646,2.961,2.718
		c0.617,0.82,0.903,1.928,1.668,2.63c2.018,1.854,3.191-1.603,4.062-2.742c1.386-1.815,3.748-3.592,6.058-3.997
		C58.952,43.254,62.803,47.664,62.794,52.387C62.792,54.023,62.8,49.103,62.794,52.387z M20.93,52.297
		c0.46,1.215,0.971,2.38,1.518,3.558c-0.842,0.053-2.899,0.543-3.197-0.321c-0.397-1.155-0.776-2.318-1.154-3.48
		c-0.516-1.582-1.026-3.166-1.537-4.751c0.884-0.618,1.829-1.164,2.748-1.728C19.653,47.842,20.118,50.146,20.93,52.297
		C21.083,52.699,20.3,50.628,20.93,52.297z M49.435,19.496c0.077,1.163-0.275,2.462-0.457,3.595
		c-0.167,1.04-0.277,2.093-0.469,3.129c-0.905,0.034-1.812,0.026-2.717,0.02c-1.152-0.009-2.305-0.029-3.457-0.07
		c-1.072-0.039-0.807-1.268-0.927-2.188c-0.246-1.883-0.515-3.733-0.685-5.622c2.914-0.079,5.841-0.063,8.754,0.044
		C49.42,18.766,49.406,19.13,49.435,19.496C49.443,19.621,49.396,19.159,49.435,19.496z"/>
	<path d="M44.727,31.236c-1.308,0-3.914-0.458-4.956,0.661c-1.109,1.19-0.514,4.674-0.504,6.058
		c0.009,1.329-0.271,3.217,0.634,4.336c0.889,1.099,3.424,0.531,4.772,0.539c1.571,0.01,4.851,0.695,5.96-0.781
		c1.07-1.423,0.378-5.182,0.361-6.77c-0.011-1.028,0.236-2.637-0.551-3.48C49.406,30.688,45.982,31.236,44.727,31.236z
		 M48.315,40.197c-1.697,0.035-3.396-0.002-5.093-0.013c-0.792-0.005-1.255,0.299-1.286-0.566c-0.043-1.237-0.045-2.477-0.03-3.715
		c0.018-1.415-0.334-1.984,1.186-2.015c1.367-0.027,2.736-0.021,4.103,0.018c1.523,0.044,1.158,0.607,1.167,2.024
		C48.372,37.352,48.373,38.776,48.315,40.197C47.941,40.205,48.377,38.672,48.315,40.197z"/>
</g>
</svg>
