<?xml version="1.0" encoding="utf-8"?>
<!-- Generator: Adobe Illustrator 16.0.0, SVG Export Plug-In . SVG Version: 6.00 Build 0)  -->
<!DOCTYPE svg PUBLIC "-//W3C//DTD SVG 1.1//EN" "http://www.w3.org/Graphics/SVG/1.1/DTD/svg11.dtd">
<svg version="1.1" id="Layer_1" xmlns="http://www.w3.org/2000/svg" xmlns:xlink="http://www.w3.org/1999/xlink" x="0px" y="0px"
	 width="90px" height="90px" viewBox="0 0 90 90" enable-background="new 0 0 90 90" xml:space="preserve">
<path d="M68.364,15.958C59.391,15.958,53.973,16,45,16c-5.994,0-13.761,0-16.624,0c-2.204,0-4.172-0.042-6.375-0.042
	c-1.853,0-3.833,1.084-4.874,2.585c-1.443,2.082-1.19,7.899-1.192,11.401c-0.003,4.646-0.006,9.219-0.008,13.865
	c-0.003,4.418-0.006,8.8-0.008,13.218c-0.002,2.209-0.003,4.4-0.005,6.61c-0.001,2.249-0.528,4.895,0.755,6.825
	c0.811,1.22,1.896,2.322,3.163,3.052C21.381,74.408,24.113,74,25.886,74c4.648,0,9.296,0,13.943,0c9.162,0,18.325,0,27.487,0
	c2.046,0,3.453-0.465,4.924-2.019c0.529-0.56,1.76-2.083,1.76-2.895c0-1.051,0-2.101,0-3.152c0-7.085,0-14.17,0-21.255
	c0-6.952,0-13.904,0-20.855c0-1.12,0-1.621,0-2.741C74,18.681,70.455,15.958,68.364,15.958z M30.09,65.089
	c0.002,1.732,0.009,3.464-0.014,5.196c-2.345,0.052-4.829,0.226-7.159-0.082c-4.877-0.644-3.471-7.384-3.521-10.806
	c3.569,0.052,7.139,0.051,10.708-0.01C30.077,61.288,30.089,63.189,30.09,65.089z M39.563,52.703
	c1.798-0.004,4.723,0.054,6.521,0.063c1.439,0.006,2.878,0.017,4.316,0.03c0.025,1.141,0.031,2.282,0.047,3.423
	c0.036,2.591,0.497,3.191,3.118,3.226c1.265,0.017,2.528,0.018,3.793,0.043c0.025,1.313,0.035,2.626,0.041,3.939
	c0.012,2.645-0.044,5.294-0.044,8.052c-7.886,0.115-16.137-0.023-24.839,0.13c-0.047-2.453,0.046-5.296,0.042-7.832
	c-0.002-1.43-0.001-2.859,0.019-4.289c1.208-0.024,2.416-0.025,3.624-0.04c2.882-0.035,3.313-0.572,3.359-3.463
	C39.569,55.27,39.554,53.419,39.563,52.703z M59.895,70.318c-0.027-2.894-0.016-7.976-0.064-10.87
	c3.605,0.079,7.213,0.075,10.818-0.031c-0.071,4.009,1.313,10.9-4.612,10.896C64.563,70.313,59.895,70.318,59.895,70.318z
	 M70.644,38.938c0.003,2.201,0.01,7.003,0.012,9.204c0.001,1.834-0.001,3.668-0.011,5.502c-0.004,0.733-0.01,1.467-0.017,2.201
	c-0.017,1.691-0.679,1.275-2.132,1.21c-1.19-0.053-13.621-0.159-15.282-0.21c-0.035-1.414-0.095-2.841-0.077-4.255
	c0.04-3.28-2.47-2.52-5.005-2.522c-3.083-0.002-6.333-0.3-9.4-0.02c-1.303,0.12-1.767,0.959-1.809,2.177
	c-0.033,0.917-0.031,1.833-0.027,2.75c0.006,1.39,0.525,1.827-1.095,1.847c-3.643,0.045-7.285,0.11-10.928,0.125
	c-1.821,0.008-3.644,0.003-5.465-0.022c-0.032-2.198-0.046-4.396-0.051-6.594c-0.008-3.664-0.054-7.569-0.06-11.233
	c1.626,0,2.726-0.015,3.682-0.015c1.078,0,2.646-1.61,2.682-2.583c0.05-1.337-0.021-1.454-0.016-2.792
	c0.031-0.729,0.313-1.208,1.579-1.14c1.11-0.011,2.222-0.021,3.333-0.031c4.074-0.034,8.149-0.055,12.224-0.063
	c3.705-0.007,7.41-0.003,11.114,0.011c1.853,0.007,3.704,0.018,5.557,0.031c1.111,0.008,2.021,0.015,3.132,0.024
	c1.643,0.015,1.712,0.234,1.697,1.896c-0.039,4.358-0.406,4.438,1.312,4.451C66.114,38.893,70.644,38.938,70.644,38.938z
	 M66.656,36.74c-0.001-0.916,0.04-3.015,0.001-3.803c-0.084-1.688-1.84-2.772-2.735-2.777c-0.971-0.005-3.081-0.001-4.517-0.01
	c-5.624-0.033-11.249-0.03-16.874-0.026c-5.546,0.005-9.996,0.131-15.678,0.056c-3.079-0.041-3.583,2.631-3.523,4.357
	c0.074,2.15,0.21,2.204-1.963,2.205c-1.159,0-1.95-0.083-3.284-0.056c0.001-0.491-0.084-10.958,0.209-13.604
	c0.114-5.938,4.608-4.985,12.948-4.997c6.642-0.01,13.284-0.007,19.927-0.003c3.321,0.002,6.643,0.004,9.963,0.005
	c2.812,0,7.356-0.598,9.245,0.87c1.991,1.548,1.578,4.398,1.58,7.22c0.002,3.548-0.052,6.993,0.014,10.541
	C70.125,36.75,68.506,36.757,66.656,36.74z"/>
</svg>
