<?xml version="1.0" encoding="utf-8"?>
<!-- Generator: Adobe Illustrator 16.0.0, SVG Export Plug-In . SVG Version: 6.00 Build 0)  -->
<!DOCTYPE svg PUBLIC "-//W3C//DTD SVG 1.1//EN" "http://www.w3.org/Graphics/SVG/1.1/DTD/svg11.dtd">
<svg version="1.1" id="Layer_1" xmlns="http://www.w3.org/2000/svg" xmlns:xlink="http://www.w3.org/1999/xlink" x="0px" y="0px"
	 width="90px" height="90px" viewBox="0 0 90 90" enable-background="new 0 0 90 90" xml:space="preserve">
<path d="M76.639,43.577c-0.397-0.442-2.945-0.74-2.875-0.574c-0.394-0.939,0.196-3.263,0.116-4.363
	c-0.125-1.708-0.429-3.406-0.896-5.054c-0.442-1.558-1.031-3.086-1.833-4.496c-0.963-1.693,0.402-2.211,0.878-3.994
	c0.553-2.071-0.654-6.371-3.54-4.133c-0.223,0.172-1.524,1.863-1.609,0.796c-0.063-0.782-0.282-1.246-0.813-1.839
	c-2.116-2.367-4.35-4.518-7.417-5.546c-1.682-0.563-3.488-0.814-5.259-0.678c-0.864,0.066-3.188,1.207-3.826,0.867
	c-2.553-1.36-2.928-2.32-3.76-5.061C45.43,8.264,44.779,7.47,43.35,7.499c-1.796,0.037-2.183,1.574-2.615,2.966
	c-0.301,0.971-0.599,1.946-0.791,2.945c-0.125,0.647-2.212,0.26-2.783,0.283c-3.672,0.147-7.365,1.278-10.422,3.334
	c-2.584,1.738-4.296,4.026-5.464,6.885c-1.226,3-2.59,6.45-3.077,9.645c-0.331,2.173-2.365,3.078-4.354,3.19
	c-1.885,0.106-6.852,0.71-4.149,4.027c0.953,1.169,2.416,2.018,3.75,2.672c0.327,0.161,2.392,0.705,2.395,1.113
	c0.021,3.265,0.462,6.534,2.263,9.342c1.14,1.775,1.386,3.961,2.645,5.761c0.598,0.854,3.72,3.081,3.759,3.878
	c0.102,2.039-6.163,6.047-2.315,7.983c1.055,0.531,4.364-0.84,4.593-0.409c0.87,1.633,1.898,3.087,3.054,4.532
	c0.711,0.889,1.538,2.377,2.829,2.426c0.75,0.028,1.544-0.072,2.096-0.639c0.236-0.243,1.009-2.09,0.695-2.273
	c2.939,1.732,5.727,3.177,9.242,3.16c1.766-0.009,3.518-0.372,5.153-1.032c1.018-0.411,3.116-2.337,4.077-2.337
	c-0.32,0,0.644,2.41,0.908,2.642c0.878,0.771,2.196,0.702,3.048-0.052c1.681-1.486,3.034-3.554,4.154-5.479
	c0.339-0.583,0.57-1.561,1.031-2.043c0.422-0.442,2.708,0.738,3.242,0.821c2.707,0.421,3.444-2.238,2.041-4.139
	c-1.021-1.382-3.591-3.314-1.866-4.942c2.11-1.99,3.602-4.588,4.099-7.455c0.143-0.828,0.424-0.646,1.233-1.014
	c1.414-0.644,2.672-1.648,3.583-2.91C76.489,48.876,78.16,45.27,76.639,43.577C76.071,42.945,77.434,44.462,76.639,43.577z
	 M74.495,46.724c-0.375,1.308-1.032,2.534-2.081,3.423c-0.667,0.565-3.844,1.384-4.01,1.96c-0.445,1.548-0.217,3-0.991,4.571
	c-0.184,0.373-2.348,3.945-2.876,3.501c-0.273-0.23,1.721-3.528,1.889-3.937c0.672-1.636,0.821-3.239,1.139-4.95
	c0.022-0.12,7.17-2.56,5.671-3.977c-0.412-0.389-2.443,0.304-3.208-0.048c-0.872-0.4-0.512-1.048-0.219-1.797
	c1.022-2.621,1.116-5.573,0.699-8.329c-0.424-2.798-1.406-5.605-3.106-7.89c-0.263-0.354-1.941-1.81-1.514-2.208
	c0.573-0.534,1.915-0.56,2.226-1.413c0.078-0.215-2.519-0.714-2.794-0.806c-0.945-0.316-1.327-0.825-1.917-1.622
	c-0.796-1.076-1.853-1.947-3.019-2.597c-0.352-0.196-4.03-1.448-4.029-1.458c0.044-0.655,4.3,0.488,4.356,0.156
	c0.174-1.029-3.893-2.146-4.588-2.28c-1.768-0.34-3.943-0.273-5.37,0.978c-0.702,0.615-0.718,0.948-1.472,0.243
	c-0.534-0.499-1.249-0.836-1.883-1.178c-0.951-0.513-1.919-1.08-2.686-1.854c-0.257-0.259-1.036-1.775-1.318-1.775
	c-0.922,0,0.274,3.967-0.146,4.107c-0.741,0.247-2.288-0.457-3.077-0.538c-1.31-0.134-2.636-0.103-3.941,0.064
	c-2.333,0.298-4.636,1.02-6.688,2.177c-1.051,0.593-2.042,1.307-2.897,2.162c-0.142,0.142-1.746,2.178-1.547,2.212
	c0.76,0.13,3.183-1.751,4.003-2.068c0.456-0.176,2.846-1.204,3.302-0.671c-0.179-0.209-5.346,3.591-5.841,4.037
	c-1.943,1.752-3.555,3.909-4.464,6.375c-0.826,2.237-0.429,4.303-2.162,6.082c-0.861,0.884-1.862,1.626-3.021,2.069
	c-0.312,0.119-2.265,0.327-2.396,0.659c-0.377,0.958,4.927,0.954,4.898,1.977c-0.087,3.107-0.634,5.633,0.766,8.621
	c0.523,1.116,1.478,1.986,1.951,3.105c0.66,1.56,1.156,3.075,2.073,4.527c1.204,1.906,4.063,3.633,3.46,6.076
	c-0.063,0.253-1.136,2.834-0.948,2.834c0.755,0.001,1.737-1.284,2.122-0.133c0.248,0.74,2.893,7.029,2.949,4.359
	c0.017-0.794,0.238-2.051-0.183-2.788c-0.589-1.03-1.508-1.804-2.023-2.903c-0.2-0.425-1.358-2.522-0.378-2.534
	c0.613-0.008-0.665-2.589-0.773-2.892c2.139,1.279,4.386,3.06,7.001,2.372c3.936-1.036,5.445,2.987,8.76,4.152
	c1.543,0.542,2.913-1.474,4.038-2.258c1.402-0.977,2.409-2.15,4.219-2.15c0.891,0,1.592,0.494,2.46,0.494
	c0.785,0,1.465-0.374,2.193-0.602c1.509-0.477,3.611-1.644,4.667-2.832c-0.271,1.201-1.619,3.005-1.579,4.141
	c0.036,1.02-0.168,1.591-0.792,2.523c-0.567,0.848-1.729,1.725-1.797,2.813c-0.02,0.312-0.123,3.373,0.228,3.336
	c1.288-0.135,2.529-4.428,2.768-5.416c0.149-0.615-0.045-2.192,0.999-1.474c0.182,0.125,1.968,1.171,2.063,0.836
	c0.09-0.32-2.275-4.498-0.624-4.468c0.308,0.005,0.707,2.461,0.88,2.842c0.441,0.97,1.172,1.764,1.835,2.583
	c1.447,1.79-0.654,0.796-1.711,0.377c-2.983-1.183-2.311-0.566-3.448,2.056c-0.402,0.927-2.976,5.83-4.052,5.613
	c-0.574-0.116,0.504-4.667,0.002-5.445c0.021,0.034-4.891,3.89-5.584,4.323c-4.495,2.81-9.817,2.141-14.052-0.821
	c-0.771-0.539-4.243-4.428-4.251-2.534c-0.002,0.532,0.476,4.81-0.15,4.273c-1.81-1.551-3.381-4.119-4.147-6.36
	c-0.743-2.18-3.999,1.433-4.535,0.408c-0.248-0.473,2.018-2.802,2.284-3.269c0.485-0.852,1.531-3.667,0.247-4.2
	c-4.115-1.707-5.027-6.465-6.786-9.998c-1.071-2.152-1.552-4.608-1.417-7.006c0.019-0.333,0.472-1.926,0.008-2.178
	c-0.864-0.47-2.079-0.467-3.011-0.838c-0.422-0.168-4.038-2.252-2.977-2.461c1.801-0.356,3.566-0.013,5.245-0.959
	c3.745-2.111,2.922-5.979,4.791-9.391c1.48-2.702,1.269-5.643,3.851-8.231c3-3.007,7.405-4.542,11.599-4.64
	c0.82-0.019,4.448,0.855,4.49-0.167c0.026-0.638,0.356-5.612,1.27-5.454c0.544,0.094,0.88,2.454,1.083,2.939
	c0.339,0.81,0.878,1.449,1.585,1.966c0.941,0.688,2.011,1.17,3.01,1.763c1.13,0.671,2.067-0.5,3.244-0.798
	c2.651-0.672,5.602,0.055,7.883,1.481c1.152,0.721,2.109,1.75,3.041,2.725c1.22,1.277,0.325,0.595,0.194,1.224
	c-0.181,0.87,1.771,2.234,2.418,2.444c0.71,0.231,1.539,0.48,2.296,0.31c0.595-0.134,0.914-0.741,1.452-0.875
	c0.673-0.167-0.906,2.783-1.09,2.969c-1.488,1.507-0.974,1.34,0.159,3.103c1.699,2.644,2.605,5.777,2.827,8.896
	c0.104,1.46,0.08,2.937-0.114,4.389c-0.086,0.645-1.125,3.115-0.694,3.603C71.947,47.89,75.389,43.598,74.495,46.724
	C73.726,49.407,74.91,45.272,74.495,46.724z M62.913,55.875c-1.337,1.861-3.084,3.314-5.09,4.428
	c-0.787,0.438-1.655,0.842-2.533,1.063c-1.07,0.269-2.49-0.531-3.696-0.392c-2.491,0.288-4.626,2.745-6.492,4.23
	c-0.77,0.613-3.891-2.262-4.712-2.872c-1.024-0.76-1.855-1.417-3.213-1.417c-1.253,0-2.562,0.76-3.779,0.348
	c-2.92-0.988-5.332-3.187-7.128-5.63c-1.808-2.458-4.193-6.216-4.473-9.331c-0.07-0.778,4.625,0.524,5.208,0.659
	c1.708,0.395,3.427,0.765,5.124,1.203c0.995,0.257,1.177-0.413,1.105,1.093c-0.061,1.281-0.195,1.595-1.5,1.362
	c-0.554-0.098-3.346-0.833-3.805-0.279c-0.322,0.387,0.909,2.129,1.089,2.426c1.224,2.018,2.813,4.279,5.345,4.583
	c2.101,0.252,6.043-1.311,7.409,0.998c0.11,0.185,0.947,2.591,1.294,2.15c0.54-0.688,0.661-1.823,1.084-2.607
	c1.403-2.599,3.983-4.514,6.089-6.502c0.445-0.419,4.249-4.152,4.128-4.451c0.4,0.992-0.93,3.571-1.377,4.458
	c-0.693,1.373-2.624,1.797-3.501,3.149c-0.383,0.59-2.33,3.382-0.578,2.636c1.435-0.612,3.304,0.03,4.799,0.097
	c3.12,0.14,4.923-2.279,6.483-4.701c0.555-0.861,1.702-2.258,0.042-2.17c-1.015,0.054-4.934,1.378-5.61,0.789
	c-0.205-0.178,1.854-2.64,2.036-2.954c0.641-1.104,0.53-2.226,1.513-0.832c0.669,0.949,6.545-1.172,7.614-1.396
	c1.824-0.383,1.987-0.128,1.342,1.771c-0.528,1.555-1.233,3.058-1.997,4.509C64.692,53.135,63.797,55.433,62.913,55.875
	L62.913,55.875z M36.367,50.78c0.266-0.238,2.192-2.284,2.378-2.034c0.314,0.42-0.586,3.795-0.833,3.795
	C36.868,52.542,35.29,51.745,36.367,50.78z M40.998,53.171c-0.08,0.078,0.839-0.911,0.964-0.564c0.098,0.271-0.96,3.929-0.831,3.931
	C39.393,56.508,40.47,53.685,40.998,53.171C41.962,52.233,39.906,54.233,40.998,53.171z"/>
</svg>
