<?xml version="1.0" encoding="utf-8"?>
<!-- Generator: Adobe Illustrator 16.0.0, SVG Export Plug-In . SVG Version: 6.00 Build 0)  -->
<!DOCTYPE svg PUBLIC "-//W3C//DTD SVG 1.1//EN" "http://www.w3.org/Graphics/SVG/1.1/DTD/svg11.dtd">
<svg version="1.1" id="Layer_1" xmlns="http://www.w3.org/2000/svg" xmlns:xlink="http://www.w3.org/1999/xlink" x="0px" y="0px"
	 width="90px" height="90px" viewBox="0 0 90 90" enable-background="new 0 0 90 90" xml:space="preserve">
<path d="M75.063,42.375c-2.006-8.439-6.422-18.145-12.75-24.063c-5.142-4.808-12.176-6.132-19-5.188
	c-1.425,0.197-2.001-1.491-3.375-2c-2.424-0.897-4.156,0.625-5.156,2.75c-1.258,2.674-1.853,0.345-4.344,0.875
	c-3.12,0.664-4.756,4.342-5.967,6.921c-2.679,5.701-5.332,11.423-7.72,17.254c-0.714,1.743-2.206,3.766-1.188,5.638
	c1.75,3.219,4.5,0.438,4.826-0.341c0.246,0.922,0.315,2.018,0.611,3.372c0.312,1.426,1.229,2.516,1.594,3.938
	c0.668,2.602,2.287,4.841,4.414,6.46c0.686,0.521,1.69,0.863,2.457,1.257c0.389,0.199,0.063,3.042,0.059,3.578
	c-0.024,3.219-1.562,5.307-3.462,7.77c-1.571,2.036-2.151,3.766,0.32,5.314c2.719,1.706,6.146,2.896,9.335,3.217
	c3.316,0.333,6.679,0.292,9.844-0.803c2.925,1.01,6.102,1.219,9.163,0.874c2.726-0.308,13.597-2.319,11.441-6.97
	c-1.185-2.555-3.821-4.087-4.528-6.938c-0.4-1.611-0.411-3.292-0.342-4.939c0.061-1.458,0.928-1.342,2.097-2.166
	c2.253-1.589,3.75-3.74,4.713-6.297c0.458-1.214,2.864,0.971,5.011-0.527c2.815-1.965-0.468-4.229,1.041-4.924
	C76.005,45.586,75.39,43.753,75.063,42.375z M62.219,72.922c-0.284,0.146-0.65,0.343-0.85,0.424
	c-2.352,1.121-4.879,1.887-7.474,2.137c-1.298,0.125-2.617,0.135-3.914-0.014c-1.47-0.17-3.142-1.115-4.575-0.922
	c-1.079,0.146-2.124,0.653-3.225,0.831c-1.415,0.228-2.911,0.159-4.337,0.103c-3.145-0.124-5.98-1.022-8.761-2.475
	c1.796-2.177,3.367-4.555,4.828-6.845c2.136,4.053,6.389,6.902,10.916,7.62c5.589,0.886,10.2-3.927,12.341-7.405
	C58.674,68.64,60.576,70.718,62.219,72.922z M45.271,44.44c1.626,1.328,11.542,6.841,13.542,3.278
	c0.586,0.351,0.362,0.619,0.229,1.698c-0.264,2.138-0.507,2.759-0.917,4.875c-0.203,1.048-0.438,1.598-0.791,2.499
	c-0.563,1.438-0.926,2.005-1.615,2.615c-3.013,2.667-6.11,6.068-10.5,6.031c-2.018,0-3.08-0.551-4.885-1.604
	c-1.757-1.025-3.252-2.414-4.583-3.916c-0.918-1.036-2.487-3.582-2.751-4.854c-0.559-2.693-1.31-6.238-1.609-8.969
	c0.672-0.25,0.713-0.17,1.844,1.125c0.469,0.536,1.366,1.022,2.109,1.063c0.753,0.039,1.469-0.155,1.813-0.797
	c0.359-0.672,0.339-1.418,0.281-2.016c0.847,0.103,1.053-0.221,1.817-0.088c0.656,0.906,3.651,1.912,4.245,1.932
	C45.385,47.375,45.646,46.792,45.271,44.44z M38.226,67.212c4.634,3.347,9.462,3.444,13.921,0.907
	c-1.928,2.006-3.5,3.088-6.438,3.09C42.652,70.95,40.152,69.428,38.226,67.212z M35.281,44.688c0.027,1.075,0.832,2.202-0.75,0.875
	c-0.589-0.494-1.443-1.924-1.75-2.594c-0.309-0.674-1.023-3.133-1.638-3.471c-0.056-0.031-1.422,3.669-1.538,4.139
	c-0.741,3.012,0.449,7.043,0.962,10.041c0.537,3.145,2.204,6.042,4.487,8.411c-1.205-0.498-3.104,4.28-3.055,3.692
	c0.104-1.239,0.188-3.639,0.197-4.407c0.014-1.014,0.315-3.214-0.639-3.939c-0.702-0.534-1.43-0.926-2.139-1.345
	c0.08-0.013,0.158-0.037,0.229-0.092c-0.128-0.301-1.056-1.576-1.637-2.551c-0.042-0.07-0.742-1.417-0.897-1.796
	c-0.162-0.397-1.765-4.261-1.751-1.768c0.004,0.651,1.387,3.705,2.679,5.278c-0.325-0.261-0.641-0.551-0.938-0.899
	c-1.612-1.895-1.749-4.106-2.692-6.299c-0.814-1.895-1.433-3.876-1.546-5.946c-0.076-1.365,0.068-2.728,0.326-4.067
	c0.048-0.247,0.677-2.004,0.353-2.328c-0.211-0.212-4.652,6.9-5.411,7.24c-0.004,0.002,0.79-2.338,0.887-2.574
	c0.513-1.257,1.054-2.502,1.594-3.747c1.047-2.406,2.105-4.807,3.182-7.199c1.143-2.538,2.285-5.079,3.548-7.561
	c1.007-1.978,2.147-4.979,4.955-4.037c0.949,0.317,2.2,1.977,2.985,0.76c0.936-1.448,1.534-3.096,2.452-4.557
	c0.891-1.419,2.903,1.404,3.362,1.981c0.683,0.856,3.385-0.115,4.343-0.203c6.189-0.565,11.888,1.436,16.159,5.993
	c2.451,2.614,4.333,5.724,5.91,8.926c0.972,1.975,1.83,4.004,2.614,6.06c0.617,1.618,2.673,5.268,2.297,6.977
	c-0.108,0.493-1.204-0.79-2.065-1.681c-0.707-0.563-2.315-2.12-3.323-1.973c-0.555,0.082,0.954,2.404,1.097,2.659
	c0.795,1.408,1.574,2.828,2.288,4.279c0.373,0.759,1.537,2.311,0.097,2.129c-0.845-0.106-4.177-1.364-4.35-0.131
	c-0.36,2.571-1.206,4.686-3.195,6.456c-0.181,0.16-0.363,0.301-0.547,0.434c0.868-1.141,1.959-3.056,2.389-3.958
	c0.411-0.863,0.669-1.754,0.708-2.708c0.045-1.111-0.76-1.264-1.052-0.125c-0.295,1.154-0.677,2.145-1.188,3.219
	c-0.403,0.848-1.965,3.343-2.252,4.434c-1.366,0.776-2.233,1.185-2.181,3.411c0.004,0.177,0.255,6.221,0.277,6.218
	c-2.237,0.319-0.73-5.948-3.72-3.063c-2.874,2.759-6.178,4.645-10.341,4.441c-2.442-0.12-4.213-1.068-5.856-2.304
	c0.61,0.374,1.237,0.716,1.876,1.021c2.931,1.405,6.534,1.37,9.404-0.176c1.427-0.769,2.679-1.852,3.88-2.927
	c1.29-1.154,2.973-2.313,3.882-3.838c1.534-2.571,2.132-5.183,2.521-8.203c0.332-2.565,1.154-4.736-1.335-6.016
	c-0.277-0.141-3.808-1.067-3.592-0.245c0.058,0.224,1.165,1.464,0.936,1.62c-1.157,0.782-3.813-0.685-4.906-1.073
	c-1.679-0.599-2.282-0.998-4.333-2.25c-0.412-0.252-6.125-4.75-6.797-4.818c-0.828,0.693,3.23,6.601,2.38,6.601
	c-1.345,0-2.376-2.01-3.104-2.948c-1.335-1.721-2.203-2.855-3.229-4.625c-0.118-0.204-2.153-3.161-2.536-2.778
	c-0.795,0.795-0.079,4.971,0.119,5.955C34.752,42.595,35.022,43.313,35.281,44.688z M36.552,40.897
	c0.356,0.545,0.604,1.066,0.995,1.587c-0.279-0.015-0.467,0.181-0.514,0.086C36.793,42.085,36.687,41.689,36.552,40.897z"/>
</svg>
