<?xml version="1.0" encoding="utf-8"?>
<!-- Generator: Adobe Illustrator 16.0.0, SVG Export Plug-In . SVG Version: 6.00 Build 0)  -->
<!DOCTYPE svg PUBLIC "-//W3C//DTD SVG 1.1//EN" "http://www.w3.org/Graphics/SVG/1.1/DTD/svg11.dtd">
<svg version="1.1" id="Layer_1" xmlns="http://www.w3.org/2000/svg" xmlns:xlink="http://www.w3.org/1999/xlink" x="0px" y="0px"
	 width="90px" height="90px" viewBox="0 0 90 90" enable-background="new 0 0 90 90" xml:space="preserve">
<path d="M75.671,37.158c0.794-2.225-1.31-3.609-2.946-4.63c-1.541-0.962-5.546-1.903-5.762-3.844
	c-0.575-5.176-2.176-10.108-6.443-13.412c-4.524-3.504-10.561-4.341-16.124-4.268c-5.966,0.078-12.522,1.128-16.913,5.544
	c-1.806,1.815-3.073,4.086-3.827,6.524c-0.39,1.264-0.622,2.572-0.825,3.877c-0.294,1.886-0.006,2.141-1.803,2.99
	c-3.763,1.778-10.858,4.526-6.416,9.37c0.97,1.057,6.196,4.059,5.697,5.075c-1.506,3.071-3.646,5.806-4.71,9.093
	c-1.336,4.127-1.813,9.008,0.375,12.932c2.432,4.363,6.8,5.611,10.656,8.257c1.572,1.079,2.978,2.292,4.923,1.177
	c2.342-1.344,3.848-4.437,4.751-6.854c1.066-2.853,1.319-5.965,0.682-8.946c-0.173-0.812-3.464-7.64-3.352-7.752
	c0.184-0.176,3.926,1.555,4.384,1.7c1.953,0.619,4.12,1.386,6.172,1.53c1.674,0.117,3.531-0.555,5.115-0.984
	c0.728-0.198,6.958-1.917,6.958-2.604c0,0.91-1.15,2.358-1.579,3.108c-0.787,1.377-1.435,2.836-1.897,4.354
	c-0.909,2.984-1.086,6.219-0.208,9.232c0.807,2.77,2.658,5.787,5.205,7.275c2.328,1.36,4.18-1.041,6.117-2.017
	c5.314-2.678,9.928-5.969,11.062-12.226c0.809-4.464-0.434-10.582-3.341-14.251c0.065,0.082,0.375,0.474-0.001-0.002
	c-0.913-1.148-1.524-2.903-2.115-4.244C69.58,43.325,75.229,38.398,75.671,37.158z M15.422,36.115
	c0.497-1.976,5.948-3.783,7.469-4.507c-0.215,3.475-0.361,6.794-1.117,10.224C20.541,41.159,14.942,38.029,15.422,36.115z
	 M24.132,70.728c-1.857-0.962-4.033-2.272-5.191-4.078c-1.19-1.85-2.149-3.564-2.154-5.809c0.965,0.308,2.107-0.058,3.107,0.046
	c1.434,0.149,2.624,0.704,3.649,1.715c0.843,0.83,1.407,2.021,1.61,3.178C25.494,67.721,24.4,68.941,24.132,70.728z M34.812,60.615
	c-1.91-0.361-3.816-0.266-4.662-2.45c-0.753-1.946,0.45-3.204,1.611-4.542C32.831,55.888,34.488,58.069,34.812,60.615z
	 M47.266,52.731c-5.259,1.239-11.824-1.422-15.897-4.769c-0.924-4.089-1.563-8.529-0.97-12.685c1.825,0.887,4.606,0.832,6.585,0.969
	c3.103,0.214,6.209,0.248,9.319,0.232c1.12-0.005,2.244-0.006,3.363-0.063c0.307-0.016,3.172-0.79,2.954-0.97
	c1.506,1.229,4.739,0.485,6.289-0.224c0.49,3.396,0.744,7.929-0.271,11.333C58.21,50.072,50.05,52.076,47.266,52.731z
	 M55.924,70.483c-0.668-1.108-0.937-2.225-1.348-3.421c-0.513-1.491-0.37-3.481-0.178-5.018c2.101,1.13,4.738-0.342,5.766,2.771
	c0.448,1.355,0.067,2.886-0.968,3.875C58.25,69.595,56.756,69.426,55.924,70.483z M73.038,59.06
	C73.047,58.962,73.05,58.93,73.038,59.06L73.038,59.06z M73,59.352c0-0.003,0-0.007,0-0.011C73,59.345,73,59.349,73,59.352z
	 M73,59.458c-0.168,1.754-0.446,3.413-1.229,5.025c-0.863-0.979-2.422-1.229-3.406-2.119c-1.032-0.932-1.7-2.208-1.871-3.589
	c-0.188-1.52,0.202-3.081,1.136-4.301c1.015-1.325,2.563-1.583,3.701-2.667C72.465,54.206,73.257,56.77,73,59.458z M69.714,49.498
	c0.504,1.1-0.077,1.014-1.038,1.534c-2.955,1.599-4.655,4.883-4.131,8.22c0.251,1.597,0.999,3.096,2.127,4.254
	c0.633,0.65,3.871,2.1,3.435,2.758c-1.447,2.185-4.257,3.825-6.581,4.888c-1.916,0.875-4.475,3.949-6.024,0.912
	c-0.31-0.606,1.547-0.908,1.854-1.062c1.373-0.685,2.369-2.015,2.787-3.475c0.731-2.554-0.483-5.386-2.868-6.569
	c-0.91-0.451-1.934-0.649-2.946-0.611c-1.249,0.041-1.056-0.306-0.596-1.393c1.152-2.728,2.847-5.112,3.792-7.946
	c1.625-4.87,2.06-10.342,1.447-15.425c-0.127-1.058-0.892-6.92-2.458-7.158c0.25,0.037,0.719,4.688-1.008,5.185
	c-0.92,0.265-1.899,0.432-2.858,0.432c-1.448,0-1.33-2.148-1.627-3.229c-0.757-2.743-1.097-1.143-1.363,0.813
	c-0.42,3.085-1.518,2.818-4.375,2.849c-3.476,0.036-6.953,0.01-10.421-0.24c-1.17-0.084-5.288,0.061-5.994-1.107
	c-0.293-0.485,0.369-4.734-0.149-4.734c-1.436,0-2.134,5.508-2.264,6.376c-0.444,2.964-0.302,5.895,0.125,8.853
	c0.211,1.469,0.502,2.929,0.761,4.389c0.204,1.148,0.649,2.229,1.008,3.333c0.382,1.174-1.302,2.099-1.81,3.078
	c-1.114,2.144-0.656,4.801,1.083,6.471c0.917,0.882,2.116,1.418,3.373,1.584c1.917,0.253,1.933,0.382,1.641,2.476
	c-0.36,2.588-1.791,7.136-4.261,8.523c-0.873,0.49-2.581-1.29-3.292-1.698c-1.635-0.938-0.435-1.596-0.044-3.245
	c0.766-3.226-0.672-6.328-3.209-8.298c-1.326-1.029-3.129-1.388-4.772-1.388c-1.885,0-1.972,0.24-1.576-1.882
	c1.008-5.407,5.05-9.368,6.243-14.671c2.085-9.27-0.529-22.025,10.049-26.738c6.873-3.062,17.983-2.925,24.386,1.257
	c5.714,3.731,6.379,10.756,6.688,16.995c0.16,3.227,1.146,6.1,1.792,9.215c0.273,1.321,1.101,2.666,1.721,3.848
	C68.816,47.742,69.302,48.599,69.714,49.498z M68.232,41.152c-0.809-3.079-1.375-6.001-1.476-9.203
	c1.82,0.896,5.381,2.231,6.646,3.945C74.48,37.354,69.063,40.633,68.232,41.152z"/>
</svg>
