<?xml version="1.0" encoding="utf-8"?>
<!-- Generator: Adobe Illustrator 16.0.0, SVG Export Plug-In . SVG Version: 6.00 Build 0)  -->
<!DOCTYPE svg PUBLIC "-//W3C//DTD SVG 1.1//EN" "http://www.w3.org/Graphics/SVG/1.1/DTD/svg11.dtd">
<svg version="1.1" id="Layer_1" xmlns="http://www.w3.org/2000/svg" xmlns:xlink="http://www.w3.org/1999/xlink" x="0px" y="0px"
	 width="90px" height="90px" viewBox="0 0 90 90" enable-background="new 0 0 90 90" xml:space="preserve">
<g>
	<path d="M45,6.125c-26.574,0-45.678,27.312-36.5,52.285c9.096,24.751,40.985,33.374,61.298,16.53
		C82.341,64.54,87.126,46.899,81.5,31.59C75.937,16.453,61.122,6.125,45,6.125z M45,73.875c-12.605,0-24.056-8.532-27.67-20.61
		C13.679,41.064,18.712,27.6,29.4,20.711c10.725-6.912,25.123-5.799,34.683,2.636c9.551,8.427,12.489,22.544,6.99,34.057
		C66.322,67.352,56.029,73.875,45,73.875z"/>
	<path d="M19.167,45c0,0.515-0.023,4,0.47,4c0.664,0,1.327,0,1.99,0c2.029,0,4.058,0,6.086,0C28.587,49,29,49.313,29,48.435
		c0-1.289,0-2.578,0-3.866c0-6.614,0-13.229,0-19.843C22.839,29.595,19.167,37.144,19.167,45z"/>
	<path d="M45,19.167c-1.408,0-4-0.647-4,1.136c0,1.403,0,2.806,0,4.208c0,4.341,0,8.682,0,13.023c0,3.476,0,6.952,0,10.428
		C41,49.726,42.456,49,44.07,49c8.02,0,16.039,0,24.058,0c0.78,0,1.561,0,2.342,0c0.926,0,0.023-8.323-0.18-9.298
		c-1.244-5.967-4.645-11.379-9.456-15.116C56.325,21.084,50.708,19.167,45,19.167z"/>
	<path d="M29,65.263c0-3.583,0-7.166,0-10.749C29,53.47,27.054,54,26.209,54c-1.81,0-3.619,0-5.429,0
		C22.424,58.42,25.304,62.34,29,65.263z"/>
	<path d="M41,70.522C52.999,72.392,64.987,65.386,69.22,54c-8.332,0-16.663,0-24.994,0c-1.07,0-2.141,0-3.211,0
		C40.984,54,41,57.575,41,57.803C41,62.042,41,66.283,41,70.522z"/>
</g>
</svg>
