<?xml version="1.0" encoding="utf-8"?>
<!-- Generator: Adobe Illustrator 16.0.0, SVG Export Plug-In . SVG Version: 6.00 Build 0)  -->
<!DOCTYPE svg PUBLIC "-//W3C//DTD SVG 1.1//EN" "http://www.w3.org/Graphics/SVG/1.1/DTD/svg11.dtd">
<svg version="1.1" id="Layer_1" xmlns="http://www.w3.org/2000/svg" xmlns:xlink="http://www.w3.org/1999/xlink" x="0px" y="0px"
	 width="90px" height="90px" viewBox="0 0 90 90" enable-background="new 0 0 90 90" xml:space="preserve">
<path d="M77.44,53.918c-0.83-1.647-1.433-5.378-1.573-9.733c-0.034-1.042-0.094-1.688-0.202-2.171
	c-0.191-0.852-0.159-0.91,0.495-0.91c1.039,0,1.777-0.608,1.774-1.459c-0.001-0.401-0.054-0.508-0.76-1.542
	c-0.548-0.802-1.686-2.815-2.734-4.837c-1.166-2.249-2.342-4.298-3.632-6.33c-0.296-0.465-0.664-1.046-0.819-1.291
	c-0.805-1.272-1.135-1.782-2.011-3.104c-1.231-1.859-1.711-2.553-1.984-2.866c-0.122-0.14-0.404-0.525-0.627-0.858
	c-0.678-1.009-3.083-3.362-3.811-3.726c-3.487-1.75-9.966-1.73-15.779,0.05l-0.766,0.234l-0.6-0.2
	c-3.115-1.037-8.559-1.633-11.675-1.278c-3.221,0.366-5.35,1.447-6.967,3.535c-0.199,0.257-0.632,0.789-0.961,1.182
	c-0.33,0.393-0.642,0.796-0.694,0.897c-0.051,0.101-0.224,0.341-0.384,0.534c-0.272,0.329-1.8,2.579-2.572,3.787
	c-0.191,0.299-0.528,0.823-0.749,1.167s-0.555,0.87-0.742,1.17s-0.555,0.879-0.819,1.287c-0.681,1.049-1.109,1.754-1.421,2.34
	c-0.148,0.279-0.438,0.806-0.642,1.17c-0.205,0.365-0.838,1.541-1.406,2.613c-0.569,1.073-1.217,2.266-1.439,2.652
	c-0.384,0.667-0.538,0.919-1.396,2.305c-0.89,1.436-0.268,2.57,1.412,2.57c0.536,0,0.554,0.053,0.35,1.001
	c-0.123,0.569-0.173,1.154-0.205,2.392c-0.037,1.399-0.194,3.56-0.318,4.368c-0.469,3.045-0.711,3.965-1.489,5.664
	c-0.73,1.592-0.557,2.532,0.51,2.77c0.875,0.195,0.924,0.247,0.784,0.819c-0.288,1.176-0.178,3.167,0.276,4.969
	c0.574,2.281,1.23,3.043,2.368,2.751c0.57-0.146,0.645-0.077,0.934,0.865c0.882,2.865,2.49,5.054,3.713,5.054
	c0.366,0,0.889-0.253,1.213-0.588c0.366-0.378,0.377-0.373,1.349,0.618c0.979,0.998,2.163,1.835,3.421,2.419
	c3.288,1.525,5.065,1.539,5.563,0.04c0.199-0.599,0.199-0.599,1.503-0.319c4.41,0.947,18.619,0.888,22.649-0.096
	c0.554-0.135,0.699-0.054,0.879,0.487c0.23,0.693,0.816,1.036,1.77,1.034c2.217-0.003,6.427-2.19,7.671-3.984
	c0.319-0.459,0.524-0.482,0.924-0.102c1.471,1.401,3.77-0.586,4.889-4.227c0.373-1.213,0.343-1.177,0.95-1.147
	c1.804,0.091,3.229-3.254,2.862-6.721c-0.055-0.522-0.102-1.106-0.104-1.299l-0.004-0.35l0.443-0.157
	c0.638-0.228,0.887-0.439,1.029-0.875C78.176,55.606,78.116,55.26,77.44,53.918z M27.321,42.406c0.206,0.638,0.812,1.162,2.024,1.75
	c1.192,0.578,1.761,0.784,6.088,2.204c2.232,0.733,2.961,1.028,4.876,1.978c1.074,0.533,1.604,0.755,2.101,0.755
	c0.398,0,0.746-0.146,1.034-0.435c0.653-0.652,0.7-1.874,0.121-3.112c-0.263-0.563-0.661-1.414-1.583-1.414
	c-0.277,0-0.516,0.084-0.703,0.168c-0.301-0.062-1.178-0.502-1.477-0.652c-0.278-0.14-0.685-0.343-0.954-0.498
	c0.125-0.279,0.27-0.647,0.349-0.888c0.055-0.168,0.211-0.542,0.339-0.793c0.145-0.282,0.518-1.042,0.833-1.695
	c0.306-0.633,0.758-1.525,1.008-1.989l1.241-2.304c0.848-1.575,1.764-3.066,2.315-3.872c0.287,0.396,0.666,0.962,1.08,1.662
	c0.171,0.291,0.55,0.929,0.841,1.419c0.517,0.87,0.668,1.146,1.355,2.457c0.666,1.273,0.763,1.462,0.946,1.843
	c0.108,0.224,0.465,0.929,0.796,1.572c0.28,0.542,0.46,0.922,0.52,1.06c0.042,0.16,0.138,0.413,0.364,0.882
	c0.119,0.248,0.285,0.593,0.363,0.805c-0.25,0.153-0.767,0.387-1.164,0.567c-0.221,0.1-0.867,0.392-1.091,0.436
	c-0.182-0.084-0.42-0.172-0.7-0.172c-0.874,0-1.232,0.775-1.424,1.191c-0.601,1.301-0.671,2.297-0.215,3.046
	c0.369,0.604,0.876,0.731,1.238,0.731c0.499,0,1.016-0.214,2.222-0.818c1.831-0.917,2.532-1.194,5.36-2.122
	c5.516-1.809,7.013-2.506,7.486-3.543c0.027,2.229-0.286,6.218-0.456,6.776c-0.023,0.074-0.07,0.227-0.153,1.304
	c-0.199,2.573-0.393,4.609-0.492,5.188c-0.067,0.389-0.177,1.172-0.245,1.748c-0.174,1.474-0.45,2.271-1.179,3.413
	c-0.14,0.22-0.32,0.507-0.401,0.64c-0.206,0.338-0.779,1.123-1.04,1.422c-0.189,0.219-0.606,0.761-0.898,1.16
	c-0.339,0.461-0.648,0.836-0.717,0.906c-0.179,0.178-0.553,0.609-0.814,0.925c-1.161,1.405-3.24,3.55-4.733,4.883
	c-0.836,0.746-0.923,0.824-6.754,0.824h-0.123c-4.596,0-5.692-0.053-6.179-0.295c-1.33-0.663-6.152-5.391-8.102-8.128
	c-1.65-2.317-2.152-3.57-2.334-5.831c-0.041-0.5-0.114-1.208-0.168-1.526c-0.036-0.215-0.134-0.952-0.223-1.708
	c-0.135-1.152-0.197-1.822-0.474-5.115c-0.046-0.548-0.151-1.497-0.234-2.116c-0.171-1.272-0.338-4.333-0.288-4.882
	c0.019-0.185,0.168-0.638,0.356-1.124c0.042,0.104,0.079,0.199,0.11,0.278C27.228,41.7,27.21,42.063,27.321,42.406z M29.314,36.731
	c0.219-0.477,0.717-1.336,1.187-2.077c-0.004,0.027-0.009,0.055-0.014,0.083c-0.093,0.539-0.22,1.534-0.284,2.22
	c-0.02,0.207-0.038,0.389-0.054,0.55C29.831,37.242,29.51,36.947,29.314,36.731z M35.787,41.377
	c-0.007-0.005-0.015-0.009-0.021-0.013l-0.191-0.12c-1.154-0.726-2.046-1.287-2.429-1.592l0.02-0.037
	c0.129-0.239,0.346-0.647,0.482-0.907c0.578-1.104,1.317-2.239,2.138-3.283c0.037-0.047,0.073-0.093,0.108-0.137
	C35.729,37.012,35.676,39.697,35.787,41.377z M31.022,40.023c0.021-0.004,0.042-0.006,0.063-0.012
	c0.004,0.022,0.011,0.045,0.016,0.066C31.074,40.059,31.049,40.042,31.022,40.023z M59.796,37.774
	c-0.049-0.426-0.102-0.95-0.155-1.487l-0.162-1.608l-0.001-0.008c0.079,0.121,0.164,0.252,0.244,0.375
	c0.49,0.748,0.853,1.499,1.015,1.915C60.493,37.189,60.126,37.504,59.796,37.774z M54.028,35.245
	c0.588,0.745,0.921,1.234,1.552,2.223c0.303,0.475,1.013,1.836,1.254,2.4c-0.58,0.414-1.816,1.199-2.741,1.75
	C54.131,38.763,54.111,36.685,54.028,35.245z M74.708,54.672c-1.185-0.867-1.171-0.884-0.563,0.722
	c1.203,3.177,1.318,5.926,0.345,8.188c-0.365,0.85-0.571,0.703-0.996-0.717c-0.593-1.978-1.178-3.12-1.597-3.12
	c-0.071,0-0.049,0.615,0.042,1.209c0.457,2.967-0.616,7.098-2.294,8.833c-0.532,0.55-0.677,0.463-1.109-0.659
	c-0.416-1.083-0.874-1.974-1.014-1.974c-0.136,0-0.166,0.068-0.505,1.15c-0.714,2.275-3.028,4.256-6.21,5.317
	c-1.708,0.569-2.004,0.446-1.928-0.801c0.083-1.368,0.06-1.389-1.05-0.902c-1.312,0.575-2.591,0.859-5.394,1.042
	c0.212-0.145,0.42-0.315,0.646-0.517c1.555-1.388,3.724-3.626,4.938-5.096c0.296-0.357,0.598-0.697,0.685-0.784
	c0.217-0.216,0.666-0.796,0.914-1.134c0.324-0.44,0.682-0.9,0.801-1.038c0.334-0.384,0.966-1.25,1.231-1.684
	c0.077-0.126,0.249-0.399,0.381-0.607c0.891-1.395,1.261-2.463,1.471-4.231c0-0.004,0.001-0.007,0.001-0.01
	c0.204,0.192,0.477,0.301,0.768,0.301l0,0c0.357,0,0.714-0.156,1.125-0.491c0.149-0.122,0.342-0.25,0.395-0.279
	c0.609-0.313,2.704-2.528,3.129-3.1c2.227-2.995,2.9-6.708,1.637-9.03c-0.28-0.516-0.749-1.377-1.622-1.377
	c-0.362,0-0.698,0.152-0.998,0.452c-0.27,0.269-0.604,0.875-0.641,0.943c-0.151,0.275-0.401,0.696-0.548,0.92
	c-0.188,0.287-0.424,0.761-0.515,1.11c-0.049,0.193-0.26,0.966-0.469,1.723c-0.134,0.485-0.401,1.468-0.448,1.709
	c-0.113,0.573-0.808,2.559-1.408,4.019c0.098-0.974,0.215-2.32,0.338-3.906c0.039-0.495,0.076-0.835,0.09-0.942
	c0.297-1.107,0.559-5.625,0.522-7.479l-0.031-1.542l-0.437-0.829c-0.188-0.358-0.362-0.723-0.403-0.827
	c-0.307-0.776-0.841-0.892-1.133-0.892c-0.191,0-0.354,0.046-0.496,0.117c0.028-0.091,0.049-0.165,0.062-0.206
	c0.041-0.135,0.069-0.245,0.086-0.334c0.052-0.064,0.097-0.125,0.125-0.174c0.25-0.444,0.182-0.945-0.256-1.917
	c-0.269-0.595-0.641-1.271-1.022-1.853c-0.192-0.294-0.413-0.635-0.491-0.76c-0.747-1.194-1.399-1.727-2.118-1.727
	c-0.375,0-0.723,0.157-0.982,0.443c-0.469,0.519-0.408,1.119-0.298,2.208l0.235,2.339c0.035,0.352,0.066,0.665,0.096,0.945
	c-0.217-0.406-0.427-0.776-0.572-1.005c-0.881-1.384-1.236-1.871-2.371-3.255c-0.96-1.174-1.527-1.324-1.914-1.324
	c-0.336,0-0.65,0.146-0.863,0.401c-0.389,0.47-0.267,1.046-0.168,1.508c0.197,0.922,0.278,3.173,0.245,6.858
	c-0.104-0.222-0.253-0.522-0.468-0.939c-0.319-0.62-0.673-1.317-0.772-1.524c-0.196-0.407-0.296-0.603-0.976-1.901
	c-0.701-1.339-0.871-1.649-1.406-2.549c-0.29-0.489-0.668-1.126-0.84-1.417c-1.815-3.068-2.352-3.068-2.743-3.068l-0.057,0.001
	c-0.076,0.004-0.278,0.016-0.61,0.209c-0.886,0.517-3.279,4.947-3.38,5.136l-1.24,2.303c-0.261,0.484-0.731,1.411-1.047,2.066
	c-0.31,0.641-0.674,1.384-0.813,1.655c-0.032,0.062-0.064,0.127-0.096,0.196c-0.091-2.114,0.05-5.459,0.269-6.308
	c0.08-0.31,0.149-0.799,0.163-1.138c0.012-0.306,0.032-0.819-0.334-1.2c-0.205-0.212-0.48-0.33-0.776-0.33
	c-0.437,0-0.78,0.252-1.094,0.51c-0.466,0.382-0.681,0.639-1.68,1.909c-0.803,1.022-1.537,2.127-2.136,3.217
	c0.009-0.096,0.019-0.196,0.028-0.3c0.059-0.633,0.18-1.581,0.264-2.069c0.311-1.805,0.259-2.675-0.194-3.212
	c-0.241-0.286-0.58-0.444-0.953-0.444c-0.321,0-0.64,0.115-0.975,0.353c-0.652,0.461-3.011,4.138-3.011,5.085
	c0,0.255,0.053,0.568,0.53,1.118c-0.136-0.07-0.292-0.101-0.486-0.101c-0.709,0-1.069,0.581-1.657,1.97
	c-0.193,0.456-0.646,1.582-0.703,2.201c-0.071,0.784,0.128,4.066,0.297,5.319c0.08,0.592,0.181,1.498,0.224,2.019
	c0.279,3.321,0.342,3.999,0.48,5.18c0.013,0.105,0.025,0.215,0.039,0.328c-0.086-0.215-0.163-0.422-0.211-0.573
	c-0.112-0.354-0.309-0.885-0.453-1.17c-0.047-0.092-0.199-0.514-0.311-0.958c-0.107-0.422-0.295-1.039-0.432-1.352
	c-0.054-0.125-0.199-0.615-0.292-1.07c-0.259-1.264-0.831-3.08-1.339-3.928c-0.142-0.236-0.232-0.405-0.263-0.47
	c-0.188-0.606-0.829-1.318-1.182-1.501l-0.039-0.02c-0.155-0.081-0.366-0.191-0.653-0.191c-0.396,0-0.649,0.2-0.816,0.332
	l-0.035,0.028c-0.396,0.31-0.973,1.191-1.17,1.633c-0.67,1.508-0.325,4.513,0.421,6.09c1.245,2.633,2.527,4.168,4.903,5.863
	c0.632,0.451,1.057,0.635,1.466,0.635l0,0c0.292,0,0.565-0.104,0.771-0.288c0.229,2.484,0.874,4.056,2.67,6.578
	c1.736,2.437,6.13,6.965,8.287,8.421c-2.333-0.218-4.111-0.563-5.171-1.021c-1.091-0.473-1.137-0.432-1.05,0.926
	c0.08,1.232-0.203,1.344-1.939,0.768c-3.386-1.124-5.56-3.111-6.388-5.837c-0.277-0.911-0.466-0.713-1.335,1.399
	c-0.489,1.189-0.669,1.214-1.438,0.198c-1.558-2.057-2.351-5.575-1.933-8.569c0.317-2.269-0.859-0.515-1.709,2.549
	c-0.246,0.887-0.597,0.945-0.888,0.146c-0.946-2.594-0.834-4.974,0.383-8.125c0.568-1.472,0.549-1.548-0.244-0.953
	c-2.108,1.584-2.387,1.602-1.762,0.112c0.649-1.547,1.07-3.371,1.375-5.965c0.087-0.74,0.179-1.485,0.204-1.657
	s0.074-1.225,0.109-2.34c0.055-1.75,0.085-2.09,0.225-2.483c0.408-1.143,1.384-2.762,2.925-4.849
	c1.197-1.621,1.109-1.613-1.315,0.127c-2.511,1.802-3.314,2.284-3.499,2.099c-0.1-0.1-0.108-0.083,1.015-2.032
	c0.383-0.665,1.289-2.314,2.011-3.666c1.714-3.205,2.216-4.087,3.139-5.516c0.42-0.651,1.221-1.912,1.779-2.8
	c3.222-5.134,5.672-8.178,7.342-9.122c1.621-0.916,4.522-1.291,8.081-1.042c2.374,0.166,5.071,0.667,6.729,1.251
	c1.032,0.364,1.035,0.364,1.833,0.07c4.151-1.531,11.106-1.854,14.213-0.66c2.146,0.825,4.458,3.572,8.696,10.331
	c0.47,0.751,1.089,1.726,1.375,2.166c0.735,1.135,1.585,2.632,2.821,4.971c1.41,2.669,2.224,4.132,2.781,5
	c1.124,1.747,0.316,1.413-3.795-1.57c-1.705-1.237-1.755-1.162-0.42,0.63c2.333,3.131,2.956,4.452,2.956,6.269
	c0,3.779,0.727,8.375,1.689,10.684C76.76,55.98,76.544,56.017,74.708,54.672z M66.109,54.494c0.504-1.314,0.996-2.751,1.119-3.375
	c0.022-0.108,0.19-0.756,0.415-1.566c0.189-0.684,0.419-1.528,0.478-1.757c0.021-0.078,0.138-0.345,0.259-0.529
	c0.15-0.229,0.374-0.604,0.546-0.909c0.773,1.675,0.131,4.479-1.572,6.771C67.136,53.421,66.621,53.974,66.109,54.494z
	 M22.808,51.613c0.061,0.139,0.215,0.605,0.327,1.048c0.113,0.446,0.309,1.057,0.461,1.359c0.063,0.124,0.22,0.517,0.333,0.876
	c0.01,0.033,0.021,0.067,0.033,0.103c-1.303-1.129-2.117-2.283-2.975-4.099c-0.61-1.292-0.749-3.686-0.402-4.465
	c0.051-0.115,0.155-0.286,0.264-0.449c0.057,0.174,0.18,0.415,0.439,0.847c0.303,0.506,0.83,1.994,1.102,3.319
	C22.489,50.628,22.663,51.283,22.808,51.613z M22.705,45.384c0.019,0.056,0.047,0.16,0.047,0.292
	C22.752,45.584,22.735,45.486,22.705,45.384z"/>
</svg>
