<?xml version="1.0" encoding="utf-8"?>
<!-- Generator: Adobe Illustrator 16.0.0, SVG Export Plug-In . SVG Version: 6.00 Build 0)  -->
<!DOCTYPE svg PUBLIC "-//W3C//DTD SVG 1.1//EN" "http://www.w3.org/Graphics/SVG/1.1/DTD/svg11.dtd">
<svg version="1.1" id="Layer_1" xmlns="http://www.w3.org/2000/svg" xmlns:xlink="http://www.w3.org/1999/xlink" x="0px" y="0px"
	 width="90px" height="90px" viewBox="0 0 90 90" enable-background="new 0 0 90 90" xml:space="preserve">
<path d="M71.936,46.792c-0.254-1.249-0.746-2.387-1.41-3.471c-0.601-0.982-1.523-1.891-1.72-3.058
	c-0.435-2.584-1.515-5.153-2.818-7.413c-1.274-2.21-2.882-4.249-4.763-5.975c-0.937-0.859-1.943-1.638-2.981-2.371
	c-0.273-0.193-0.55-0.383-0.828-0.571c-0.096-0.065-0.671-0.37-0.671-0.467c0-0.258,0-0.516,0-0.773
	c0-5.492-3.793-10.551-9.037-12.151C42.21,8.864,35.996,11.186,32.997,16.1c-1.357,2.224-1.847,4.656-1.852,7.23
	c-4.789,2.849-8.597,6.947-10.867,12.066c-0.668,1.508-1.196,3.081-1.541,4.695c-0.165,0.771-0.25,1.538-0.581,2.263
	c-0.329,0.72-0.778,1.375-1.145,2.075c-1.199,2.285-1.447,5.406-0.115,7.691c0.338,0.58,0.767,1.044,1.305,1.44
	c-0.038,0.813-0.018,1.634-0.157,2.438c-0.143,0.824-0.474,1.58-0.567,2.422c-0.173,1.563,0.031,3.113,0.656,4.56
	c1.244,2.879,3.807,4.822,6.625,6.027c1.416,0.605,3.016,0.891,4.326,1.716c1.398,0.881,2.555,2.12,3.806,3.188
	c1.194,1.02,2.448,1.989,3.844,2.72c1.453,0.761,3.029,1.173,4.655,1.342c3.197,0.333,6.611,0.041,9.484-1.483
	c1.457-0.772,2.741-1.814,3.978-2.896c1.227-1.073,2.401-2.319,3.839-3.112c0.724-0.399,1.524-0.598,2.303-0.858
	c0.829-0.277,1.64-0.607,2.421-0.997c1.399-0.699,2.713-1.595,3.81-2.716c1.098-1.122,1.962-2.473,2.417-3.981
	c0.49-1.626,0.356-3.154,0.018-4.792c-0.159-0.768-0.238-1.535-0.257-2.319c-0.005-0.214-0.117-0.784,0.064-0.913
	c0.133-0.095,0.265-0.189,0.398-0.284c2.246-1.601,2.491-4.763,1.989-7.234c0.089,0.438,0.178,0.877,0.268,1.315
	C72.06,47.401,71.998,47.096,71.936,46.792C71.752,45.89,72.493,49.525,71.936,46.792z M66.899,52.791
	c0.124,0.768,0.173,1.547,0.176,2.324c-0.333-0.029-0.607-0.382-0.883-0.579c-0.293-0.21-0.602-0.398-0.924-0.56
	c-0.713-0.356-1.492-0.577-2.289-0.632c-1.571-0.108-3.403,0.376-4.787,1.113c-1.446,0.77-3.103,0.873-4.589,0.13
	c-1.415-0.708-2.612-1.811-3.975-2.615c-0.687-0.405-1.411-0.836-2.178-1.067c-0.813-0.245-1.668-0.432-2.497-0.619
	c-1.652-0.373-3.285,0.105-4.873,0.56c-1.536,0.438-2.941,1.486-4.255,2.362c-1.177,0.785-2.529,1.894-4.004,2.002
	c-0.505,0.038-0.997-0.206-1.479-0.317c-0.473-0.109-0.798-0.29-1.219-0.52c-0.856-0.466-2.019-0.698-2.969-0.904
	c-1.024-0.221-2.105-0.133-3.112,0.136c-1.012,0.27-1.701,0.845-2.576,1.37c0.022-0.412,0.062-0.823,0.099-1.235
	c0.021-0.238-0.048-0.371,0.185-0.459c0.143-0.054,0.277-0.133,0.393-0.233c0.261-0.223,0.337-0.517,0.5-0.802
	c0.222-0.388,0.451-0.772,0.693-1.148c0.878-1.359,1.989-2.579,3.188-3.662c0.578-0.522,1.228-0.915,1.829-1.398
	c0.588-0.473,1.251-0.935,1.94-1.248c0.73-0.332,1.408-0.78,2.118-1.156c0.688-0.365,1.405-0.599,2.082-0.977
	c0.729-0.406,0.854,0.404,1.188,0.903c0.393,0.586,0.877,1.108,1.414,1.564c1.048,0.892,2.302,1.552,3.621,1.94
	c1.444,0.424,3.156,0.711,4.66,0.637c0.848-0.042,1.69-0.266,2.533-0.377c0.799-0.105,1.507-0.316,2.217-0.702
	c0.903-0.491,1.784-0.884,2.558-1.581c0.678-0.609,1.358-1.354,1.745-2.187c0.437-0.94,1.572,0.076,2.209,0.297
	c1.005,0.35,1.887,0.813,2.777,1.391c0.9,0.585,1.849,1.077,2.705,1.73c0.855,0.653,1.67,1.36,2.435,2.118
	c0.689,0.683,1.441,1.399,1.908,2.259C65.876,51.407,66.165,52.273,66.899,52.791c-0.007-0.045-0.237-0.159-0.282-0.195
	C66.703,52.666,66.81,52.727,66.899,52.791C67.022,53.558,66.26,52.34,66.899,52.791z M65.708,56.988
	c0.211,0.76,0.532,1.442,0.55,2.246c0.019,0.848-0.164,1.695-0.543,2.454c-0.692,1.383-1.921,2.431-3.243,3.191
	c-1.437,0.826-3.011,1.24-4.543,1.839c-1.453,0.569-2.702,1.482-3.872,2.499c-2.309,2.004-4.402,4.201-7.513,4.86
	c-2.983,0.632-6.484,0.332-9.065-1.376c-2.622-1.735-4.572-4.369-7.455-5.725c-2.698-1.268-5.81-1.769-7.715-4.291
	c-0.824-1.09-1.297-2.435-1.17-3.809c0.067-0.73,0.484-1.358,0.551-2.071c0.685-0.424,1.222-0.894,2.023-1.103
	c0.743-0.194,1.504-0.226,2.25-0.036c0.778,0.198,1.612,0.417,2.323,0.795c1.354,0.718,3.199,1.23,4.689,0.727
	c1.449-0.489,2.683-1.162,3.925-2.047c1.186-0.845,2.521-1.821,3.938-2.221c0.734-0.208,1.513-0.457,2.273-0.537
	c0.806-0.084,1.607,0.077,2.387,0.271c1.467,0.364,2.845,0.991,4.078,1.877c1.19,0.857,2.39,1.82,3.773,2.344
	c1.387,0.525,2.978,0.571,4.4,0.165c1.457-0.416,2.697-1.292,4.237-1.477c0.816-0.099,1.509,0.115,2.27,0.383
	c0.329,0.117,0.598,0.256,0.859,0.492c0.117,0.104,0.624,0.471,0.606,0.623C65.716,57.096,65.589,56.891,65.708,56.988
	C65.882,57.616,65.567,56.873,65.708,56.988z M55.66,31.295c-0.079-0.028-0.304-0.107-0.393-0.153
	c-0.52-0.819-0.684-1.815-1.094-2.688c-0.484-1.029-1.06-2.016-1.713-2.947c0.371,0.12,0.757,0.212,1.146,0.238
	c0.772,0.801,1.856,1.172,2.745,1.816c1.106,0.802,2.152,1.687,3.127,2.642c0.941,0.923,1.749,1.973,2.503,3.052
	c0.391,0.559,0.741,1.159,1.079,1.751c0.309,0.542,0.517,1.137,0.854,1.663c-1.277-1.194-2.686-2.254-4.149-3.208
	C58.479,32.621,57.116,31.808,55.66,31.295c0.333,0.117,0.667,0.235,1.002,0.353C56.327,31.53,55.994,31.413,55.66,31.295
	C55.581,31.267,57.952,32.103,55.66,31.295z M48.222,24.322c0.39,0.355,0.666,0.891,1.019,1.29c0.515,0.582,0.985,1.204,1.409,1.855
	c0.863,1.328,1.431,2.778,2.024,4.237c0.215,0.53,0.507,1.035,0.945,1.411c0.52,0.445,1.193,0.638,1.807,0.914
	c1.432,0.643,2.771,1.465,4.041,2.385c2.484,1.8,4.565,3.964,6.347,6.449c0.202,0.281,0.446,0.433,0.693,0.659
	c0.239,0.219,0.394,0.557,0.567,0.826c0.417,0.648,0.827,1.307,1.131,2.016c0.301,0.703,0.47,1.448,0.45,2.214
	c-0.01,0.381-0.066,0.763-0.179,1.127c-0.122,0.394-0.383,0.496-0.652,0.788c-0.366-0.67-0.646-1.302-1.135-1.9
	c-0.551-0.675-1.121-1.322-1.75-1.927c-1.211-1.166-2.526-2.231-3.928-3.16c-1.377-0.912-2.866-1.786-4.422-2.355
	c-1.385-0.506-2.978-1.558-4.337-0.337c-0.481,0.432-0.729,1.048-1.104,1.563c-0.47,0.644-1.066,1.225-1.754,1.63
	c-0.618,0.363-1.307,0.75-1.99,0.974c-0.821,0.269-1.768,0.336-2.621,0.469c-0.818,0.128-1.579,0.034-2.388-0.105
	c-0.833-0.144-1.661-0.241-2.458-0.536c-1.441-0.533-2.841-1.478-3.599-2.841c-0.385-0.692-0.809-1.26-1.595-1.507
	c-0.789-0.249-1.677-0.112-2.378,0.317c-0.36,0.221-0.723,0.299-1.105,0.465c-0.392,0.169-0.725,0.445-1.113,0.623
	c-0.731,0.336-1.395,0.731-2.112,1.088c-0.852,0.424-1.656,1.055-2.43,1.608c-0.758,0.542-1.468,1.147-2.139,1.792
	c-1.313,1.262-2.33,2.7-3.404,4.156c-0.979-1.109-0.622-2.749-0.124-3.989c0.28-0.697,0.637-1.364,1.036-2
	c0.639-0.336,0.963-1.204,1.339-1.779c1.755-2.682,4.065-5,6.679-6.848c0.662-0.468,1.348-0.921,2.07-1.292
	c0.744-0.383,1.533-0.668,2.28-1.046c0.643-0.326,1.185-0.695,1.527-1.347c0.345-0.657,0.527-1.394,0.817-2.076
	c1.171-2.753,3.175-5.608,5.795-7.132c0.57-0.332,1.058-0.623,1.729-0.702c0.698-0.083,1.436-0.031,2.111,0.164
	C46.423,22.777,47.375,23.574,48.222,24.322C48.503,24.578,47.953,24.084,48.222,24.322z M34.267,25.599
	c0.25-0.027,0.605-0.095,1.154-0.254c-0.847,1.177-1.589,2.45-2.111,3.805c-0.195,0.505-0.395,1.666-0.864,1.945
	c-0.581,0.346-1.237,0.534-1.849,0.816c-2.661,1.225-5.063,3.2-7.117,5.263c0.958-2.605,2.64-4.91,4.549-6.9
	c0.944-0.985,1.997-1.853,3.11-2.64c0.542-0.384,1.112-0.706,1.69-1.031c0.257-0.145,0.512-0.294,0.756-0.459
	c0.109-0.074,0.641-0.579,0.732-0.542c0.046,0.019-0.113,0.152-0.157,0.141C34.121,25.732,34.302,25.564,34.267,25.599
	C34.518,25.571,33.92,25.936,34.267,25.599z M45.895,12.649c5.01,0.92,8.376,5.045,8.41,10.305v0.002
	c-0.194-0.017-0.391,0.01-0.573,0.078c-0.274,0.102-0.463,0.014-0.742-0.078c-0.438-0.145-0.864-0.325-1.296-0.485
	c-0.873-0.324-1.753-0.445-2.664-0.599c-0.872-0.147-1.529-0.705-2.279-1.129c-0.795-0.45-1.71-0.652-2.618-0.678
	c-0.887-0.024-1.795,0.107-2.619,0.446c-0.797,0.329-1.458,1.05-2.319,1.202c-0.957,0.167-1.863,0.236-2.79,0.559
	c-0.438,0.152-0.872,0.319-1.313,0.462c-0.251,0.082-0.505,0.156-0.763,0.215c-0.26,0.06-0.484-0.046-0.751-0.019
	c0.054-3.985,2.213-7.79,5.882-9.493c1.777-0.825,3.781-1.121,5.724-0.893c0.674,0.079,1.343,0.221,2.01,0.345
	c-1.122-0.208-2.244-0.414-3.367-0.618C44.517,12.395,45.206,12.523,45.895,12.649C50.905,13.569,39.343,11.446,45.895,12.649z"/>
</svg>
