<?xml version="1.0" encoding="utf-8"?>
<!-- Generator: Adobe Illustrator 16.0.0, SVG Export Plug-In . SVG Version: 6.00 Build 0)  -->
<!DOCTYPE svg PUBLIC "-//W3C//DTD SVG 1.1//EN" "http://www.w3.org/Graphics/SVG/1.1/DTD/svg11.dtd">
<svg version="1.1" id="Layer_1" xmlns="http://www.w3.org/2000/svg" xmlns:xlink="http://www.w3.org/1999/xlink" x="0px" y="0px"
	 width="90px" height="90px" viewBox="0 0 90 90" enable-background="new 0 0 90 90" xml:space="preserve">
<path d="M70.333,30.476c-0.702-1.158,1.041-3.543,1.081-5.074c0.071-2.724-0.953-5.435-3.053-7.219
	c-3.585-3.046-8.784-2.415-12.005,0.81c-1.598,1.6-4.411,0.682-6.463,1.474c-3.226,1.245-0.064,4.588,1.111,6.002
	c1.052,1.265,0.392,3.249-0.754,4.438c-0.469,0.486-2.014,0.28-2.646,0.367c-1.238,0.172-2.059,0.601-2.573,1.792
	c-0.392-1.457-4.371-1.667-4.723-2.334c-1.108-2.103-2.401-3.475-0.516-5.36c1.181-1.18,2.92-4.037,0.414-4.86
	c-1.455-0.478-3.082-0.506-4.59-0.688c-1.188-0.144-1.969-1.997-2.934-2.723c-4.94-3.715-12.521-1.797-13.861,4.5
	c-0.55,2.585,0.061,5.198,1.549,7.359c0.686,0.995-1.015,2.833-1.534,3.87c-1.002,2-1.819,4.098-2.321,6.281
	c-3.08,13.385,4.438,27.226,16.958,32.467C46.363,76.972,62.1,72.508,69.96,60.894C76.005,51.96,76.049,39.586,70.333,30.476z
	 M52.703,22.297c0.923-0.103,1.847-0.129,2.769-0.238c-0.721,1.23-1.352,2.549-1.818,3.897
	C52.516,24.577,49.74,22.643,52.703,22.297z M50.17,33.403c-0.427,0.763-0.829,1.545-1.129,2.369
	C47.316,33.731,47.529,33.704,50.17,33.403z M43.811,36.036c-0.018,0.021,1.281-1.762,1.183-1.774c0.432,0.053,2.3,3.009,2.075,3.53
	c-0.199,0.463-1.187,3.368-1.66,3.431c-0.229,0.031-1.353-2.642-1.475-2.893C43.402,37.239,43.002,37,43.811,36.036z M40.828,33.469
	c1.761,0.245,1.823,0.401,0.644,1.763C41.395,35.015,40.586,33.479,40.828,33.469z M37.408,22.378
	c2.667,0.267,0.514,1.757-0.635,3.136c-0.427-1.169-0.975-2.313-1.596-3.392C35.92,22.217,36.664,22.295,37.408,22.378z
	 M26.253,17.818c6.713-0.839,8.801,7.952,10.92,12.529c0.667,1.441,1.523,2.681,2.304,4.048c0.785,1.377,1.004,2.982,1.746,4.397
	c0.317,0.606,3.533,8.492,4.368,8.133c0.6-0.258,0.891-1.389,1.107-1.932c0.715-1.785,1.627-3.51,2.437-5.254
	c0.63-1.36,0.983-2.828,1.611-4.188c0.837-1.816,2.038-3.419,2.85-5.259c2.016-4.57,4.236-13.468,11.181-11.073
	c2.498,0.862,4.162,3.321,4.089,5.972c-0.095,3.42-3.863,6.859-5.794,9.459c-4.61,6.21-9.415,12.286-13.868,18.608
	c-1.267,1.798-3.349,3.729-5.346,1.581c-2.445-2.631-4.431-5.751-6.66-8.564c-4.857-6.128-8.895-11.538-13.761-17.659
	c0.118,0.15-0.66-0.902-0.541-0.752C20.011,24.221,20.813,18.498,26.253,17.818z M26.371,35.132
	c-1.218-1.25-2.865-2.584-4.693-2.672c0.386-0.669,0.792-1.327,1.236-1.959C24.011,32.085,25.179,33.619,26.371,35.132z
	 M19.328,52.547c-1.363-4.713-1.196-9.761,0.217-14.463c0.388-1.29,0.833-2.842,1.578-3.979c0.683-1.045,3.731,1.749,4.149,2.146
	c2.965,2.824,4.015,7.313,2.396,11.127C27.042,48.854,20.337,56.036,19.328,52.547z M49.138,71.152
	c-4.239,0.732-8.689,0.242-12.748-1.141c-1.812-0.617-4.052-1.403-5.521-2.675c-0.798-0.691,2.369-2.716,2.835-2.988
	c3.147-1.835,6.937-2.089,10.213-0.43c1.637,0.829,3.113,2.042,4.159,3.557C48.344,67.864,50.206,70.968,49.138,71.152z
	 M61.625,66.387c-3.155,2.382-6.895,4.076-10.769,4.87c1.163-4.494-5.553-8.89-9.073-9.691c-2.27-0.517-4.765-0.283-6.924,0.569
	c-1.854,0.731-5.145,2.407-5.592,4.609c-4.06-2.954-7.4-7.13-9.29-11.789c3.542,0.18,7.234-3.366,8.713-6.263
	c1.847-3.618,1.492-7.994-0.61-11.421c3.498,4.322,6.94,8.686,10.358,13.071c2.083,2.671,5.521,9.425,9.707,6.117
	c1.806-1.427,3.093-3.608,4.472-5.417c1.735-2.278,3.422-4.591,5.143-6.881c3.347-4.456,6.949-8.722,10.075-13.341
	c1.917,2.914,3.316,6.18,4.05,9.592c-5.059-1.317-10.695,3.239-12.303,7.696c-1.791,4.967,0.29,13.042,6.179,14.442
	C64.51,63.958,63.129,65.252,61.625,66.387z M71.351,51.393c-0.642,2.521-1.668,4.994-2.984,7.237
	c-0.374,0.636-1.24,2.48-2.136,2.515c-0.908,0.035-2.071-1.15-2.683-1.715c-2.884-2.665-3.899-6.807-2.669-10.523
	c1.334-4.026,4.965-6.657,9.133-7.067c2.269-0.223,2.033,1.079,2.025,3.01C72.028,47.021,71.888,49.282,71.351,51.393z"/>
</svg>
