<?xml version="1.0" encoding="utf-8"?>
<!-- Generator: Adobe Illustrator 16.0.0, SVG Export Plug-In . SVG Version: 6.00 Build 0)  -->
<!DOCTYPE svg PUBLIC "-//W3C//DTD SVG 1.1//EN" "http://www.w3.org/Graphics/SVG/1.1/DTD/svg11.dtd">
<svg version="1.1" id="Layer_1" xmlns="http://www.w3.org/2000/svg" xmlns:xlink="http://www.w3.org/1999/xlink" x="0px" y="0px"
	 width="90px" height="90px" viewBox="0 0 90 90" enable-background="new 0 0 90 90" xml:space="preserve">
<path d="M71.917,52.168c0.739-2.715,1.693-4.454,0.69-7.242c-1.341-3.73-3.349-7.296-5.651-10.514
	c-1.634-2.284-3.576-3.929-5.539-5.869c-1.868-1.848-1.901-5.185-2.435-7.577c-0.482-2.165-1.045-4.706-2.875-6.163
	c-2.022-1.612-6.708-2.136-8.396,0.28c-0.736,1.053-0.257,1.984-0.091,3.103c0.211,1.423-0.03,2.978-0.259,4.382
	c-0.14,0.853-0.08,2.336-1.135,2.519c-1.486,0.257-2.967,0.49-4.44,0.824c-1.559,0.354-3.106,0.756-4.65,1.169
	c-0.915,0.245-1.94-0.939-2.578-1.425c-2.357-1.797-3.908-3.676-6.954-4.272c-2.129-0.417-17.14-0.995-13.112,4.994
	c1.513,2.249,5.093,2.629,7.066,4.56c1.269,1.24,4.358,5.099,3.848,6.984c-1.635,6.044-2.292,13.843,0.035,19.772
	c2.169,5.53,7.246,11.189,13.145,12.728c6.821,1.778,14.03,2.644,20.995,3.687c1.044,0.156,2.09,0.323,3.141,0.433
	c1.217,0.126,2.192-0.58,3.352-0.764c2.159-0.342,6.286-2.383,6.417-4.972c0.141-2.775-2.498-5.033-2.463-7.723
	C70.065,58.104,71.14,55.022,71.917,52.168C72.094,51.515,71.321,54.356,71.917,52.168z M29.93,26.217
	c1.507,1.389,4.562,4.693,6.747,4.329c3.667-0.611,7.176-1.881,10.891-2.353c1.311-0.165,2.203-0.555,3.574-0.461
	c0.948,0.064,3.678,1.172,4.395,0.161c0.578-0.813-0.494-3.358-0.638-4.301c-0.291-1.894-0.235-3.845-0.592-5.723
	c2.956,4.354,1.047,10.355,5.677,13.916c2.466,1.896,4.33,4.589,5.91,7.23c1.32,2.205,4.032,5.916,3.76,8.658
	c-0.468,4.721-3.696,9.246-3.068,14.188c0.182,1.433,3.046,5.858,2.125,6.728c-1.556,1.469-4.339,2.364-6.397,2.494
	c-5.906-0.615-11.837-1.833-17.675-2.905c-2.261-0.415-4.813-0.596-6.932-1.557c-2.6-1.179-4.854-3.517-6.563-5.741
	c-4.384-5.706-4.393-12.982-3.202-19.842c0.182-1.05,0.752-2.151,0.757-3.212c0.008-1.526-0.811-3.054-1.455-4.388
	c-1.461-3.025-3.503-5.617-6.488-7.246c1.622,0.06,3.25,0.047,4.872,0.004C26.688,26.17,29.177,25.521,29.93,26.217
	C30.328,26.583,29.833,26.127,29.93,26.217z M49.561,17.356c-0.349-1.379,0.457-1.609,1.74-1.729
	c-0.455,0.784,1.293,1.906,1.428,2.917c0.352,2.64,0.323,5.3,1.056,7.887c-1.578-0.352-3.611-0.706-5.196-0.207
	C49.509,23.7,50.232,20.013,49.561,17.356C49.261,16.172,49.9,18.698,49.561,17.356z M19.358,23.185
	c2.836-0.61,7.422-0.526,9.978,1.002c-2.584,0.54-5.364,0.426-7.998,0.358c-1.134-0.028-4.126-0.881-4.979-0.102
	C16.935,23.609,18.469,23.375,19.358,23.185C20.548,22.929,17.686,23.543,19.358,23.185z"/>
</svg>
