<?xml version="1.0" encoding="utf-8"?>
<!-- Generator: Adobe Illustrator 16.0.0, SVG Export Plug-In . SVG Version: 6.00 Build 0)  -->
<!DOCTYPE svg PUBLIC "-//W3C//DTD SVG 1.1//EN" "http://www.w3.org/Graphics/SVG/1.1/DTD/svg11.dtd">
<svg version="1.1" id="Layer_1" xmlns="http://www.w3.org/2000/svg" xmlns:xlink="http://www.w3.org/1999/xlink" x="0px" y="0px"
	 width="90px" height="90px" viewBox="0 0 90 90" enable-background="new 0 0 90 90" xml:space="preserve">
<g>
	<path d="M75.083,35.798c-0.594-0.084-3.504,0.425-3.394-0.301c0.296-1.963,0.231-3.982-0.213-5.918
		c-0.878-3.835-3.346-6.991-6.251-9.543c-5.731-5.037-13.115-8.096-20.792-8.034c-6.833,0.055-13.688,2.657-19.013,6.912
		c-2.45,1.958-4.615,4.346-6.045,7.155c-0.773,1.521-1.298,3.146-1.517,4.84c-0.104,0.805,0.308,5.087-0.44,5.029
		c-2.472-0.193-5.223-0.259-5.399,2.947c-0.232,4.198,1.477,8.277,2.938,12.122c1.143,3.011,2.741,6.052,4.21,9.243
		c1.997,4.338,4.431,8.027,7.942,10.521c1.406,0.999,2.178,0.71,2.453,2.604c0.236,1.625,2.381,2.752,3.878,3.234
		c1.86,0.6,3.867,0.723,5.805,0.554c2.005-0.174,4.539-1.598,6.474-0.989c2.784,0.875,5.616,1.396,8.528,0.752
		c1.393-0.309,2.744-0.905,3.787-1.896c1.331-1.266,0.341-3.112,2.903-4.186c3.67-1.537,5.032-4.587,7.069-7.859
		c0.956-1.535,2.271-2.775,3.19-4.354c1.138-1.95,2.115-4.006,2.992-6.085C75.316,49.873,80.938,36.666,75.083,35.798z
		 M23.969,25.582c6.226-7.307,16.135-11.476,25.7-9.609c8.852,1.727,20.15,9.248,18.531,19.539
		c-3.417-1.273-6.824-1.928-10.547-2.536c2.842-1.386,3.807-4.148,3.565-7.164c-0.284-3.551-3.377-5.748-6.655-6.519
		c-7.095-1.669-11.638,8.791-5.855,13.158c-2.72,0.012-5.44,0-8.16-0.003c6.16-4.989,0.76-14.723-7.416-12.528
		c-6.694,1.797-7.292,10.055-1.812,13.352c-1.894,0.095-3.934,0.543-5.788,0.933C24.284,34.469,23,34.875,21.41,35.21
		C20.645,30.359,20.974,29.097,23.969,25.582z M34.917,35.208c5.695-0.656,11.078-0.602,16.583-0.375
		c6.563,0.271,11.25,1.583,16.08,2.978c-0.271,1.37-3.144,0.138-4.405-0.047c-2.124-0.311-4.262-0.512-6.39-0.795
		c-4.085-0.544-7.944-0.908-12.064-0.928c-3.831-0.019-6.051,0.188-10.429,0.625c-2.29,0.229-5.414,0.744-7.5,0.958
		c-1.04,0.106-2.079,0.237-3.104,0.439c-1.12,0.221-1.925,1.098-2.228-0.274c2.04-0.749,4.168-1.188,6.317-1.498
		C30.115,35.956,32.566,35.479,34.917,35.208z M33.501,22.021c3.74-1.373,7.103,1.45,7.384,4.575c0,2.832-1.635,5.56-4.428,5.562
		C30.038,32.89,26.864,24.458,33.501,22.021z M49.125,29.688c-3.526-5.839,4.128-11.395,8.687-6.469
		C62.844,28.656,53.005,36.112,49.125,29.688z M75.44,40.682c-0.849,6.238-3.542,13.214-7.182,18.331
		c-2.111,2.97-3.808,6.353-6.559,8.8c-1.244,1.106-3.128,1.677-4.248,2.813c-1.003,1.018-0.259,2.453-1.879,3.341
		c-3.501,1.919-6.959,0.65-10.482-0.316c-1.315-0.362-3.027,0.826-4.311,1.085c-1.986,0.401-4.053,0.462-6.019-0.078
		c-1.194-0.328-2.688-0.913-3.162-2.179c-0.205-0.547,0.026-1.079-0.154-1.601c-0.213-0.616-1.447-0.979-1.948-1.257
		c-3.512-1.946-5.981-5.411-7.541-9.032c-1.869-4.341-4.104-8.354-5.685-12.829c-0.384-1.088-3.592-9.347-1.14-9.641
		c0.782-0.094,4.867,0.161,4.478,1.245c-0.408,1.133,1.133,2.332,1.763,2.99c1.693,1.768-3.734,4.855-0.127,6.832
		c2.374,1.302,6.7-2.125,4.924-4.653c-0.789-1.123-1.659-1.5-0.879-2.941c0.31-0.572,0.486-0.538,0.699-1.158
		c0.793-0.59,4.369-1.034,5.345-1.182c8.602-1.3,16.458-1.345,25.084-0.337c1.792,0.209,3.578,0.468,5.355,0.778
		c1.334,0.233,1.81,1.246,2.267,2.549c0.368,1.049-0.636,1.391-1.115,2.155c-0.791,1.259,0.047,3.044,0.979,3.962
		c1.813,1.784,5.229,1.419,5.093-1.619c-0.05-1.108-0.618-1.712-1.243-2.542c-1.14-1.516,0.5-1.539,0.892-2.876
		c0.57-1.943,0.843-2.284,2.854-2.901C73.843,37.697,75.859,37.596,75.44,40.682z"/>
	<path d="M63.473,54.031c-0.656-0.616-2.937-3.89-3.803-2.936c-1.641,1.804-3.063,3.878-4.563,5.799
		c-0.419-0.228-1.195-0.266-1.023-0.72c1.25-3.3,0.378-4.492-2.164-5.751c-0.626-0.31-1.695-0.087-2.386-0.087
		c-0.421,0-1.684-2.106-2.241-2.483c-1.097-0.742-2.438-0.957-3.714-0.614c-0.754,0.202-1.428,0.66-1.977,1.204
		c-0.28,0.277-1.184,1.994-1.531,1.994c-1.921,0-3.508-0.186-4.768,1.613c-0.729,1.04-0.803,2.908-0.137,4.124
		c0.245,0.447-0.796,0.092-0.924,0.621c-1.476-1.933-2.895-4.011-4.555-5.79c-0.774-0.829-3.305,2.682-3.983,3.248
		c-1.702,1.423-5.99-7.363-7.407-6.631c-0.279,0.144,3.466,7.46,3.665,7.87c1.088,2.245,1.467,3.881,2.834,5.97
		c0.701,1.072,2.542-2.001,2.912-2.463c0.63-0.785,1.624-1.496,2.514-0.372c1.456,1.84,2.697,3.872,4.021,5.809
		c1.071,1.563,2.867-0.042,4.223-0.686c1.067-0.508,2.2-1.96,3.227-2.55c0.752,0.271,1.528,0.547,2.323,0.644
		c1.388,0.17,2.526-0.139,3.802-0.636c0.938,0.638,2.098,2.041,3.116,2.525c0.952,0.452,2.43,1.52,3.543,1.535
		c0.703,0.009,2.403-2.829,2.731-3.311c0.419-0.617,1.899-3.177,2.792-3.292c1.057-0.135,2.749,3.01,3.463,3.741
		c0.811,0.832,1.624-2.017,1.871-2.521c0.471-0.959,6.405-11.769,5.777-12.295C70.079,48.526,65.014,55.479,63.473,54.031z"/>
</g>
</svg>
