<?xml version="1.0" encoding="utf-8"?>
<!-- Generator: Adobe Illustrator 16.0.0, SVG Export Plug-In . SVG Version: 6.00 Build 0)  -->
<!DOCTYPE svg PUBLIC "-//W3C//DTD SVG 1.1//EN" "http://www.w3.org/Graphics/SVG/1.1/DTD/svg11.dtd">
<svg version="1.1" id="Layer_1" xmlns="http://www.w3.org/2000/svg" xmlns:xlink="http://www.w3.org/1999/xlink" x="0px" y="0px"
	 width="90px" height="90px" viewBox="0 0 90 90" enable-background="new 0 0 90 90" xml:space="preserve">
<g>
	<path fill="#040404" d="M72.176,31.258c-1.161-0.344-2.522-0.237-3.713-0.281c-4.121-0.151-8.244-0.285-12.365-0.429
		c-5.807-0.202-11.613-0.404-17.419-0.616c-3.889-0.142-9.157-0.263-9.689,4.894c-0.409,3.965-0.09,8.059-0.077,12.044
		c0.015,4.421,0.25,9.458,6.152,9.458c6.615,0,13.256-0.441,19.866-0.679c5.434-0.197,10.895-0.236,16.319-0.612
		c3.679-0.255,4.719-4.101,4.719-7.161c0-2.707,0.05-4.26-0.011-7.271C75.877,36.582,75.667,32.291,72.176,31.258z M67.871,51.469
		c-5.765,0.568-11.683,0.354-17.475,0.438c-5.194,0.075-9.997,0.036-12.182-5.949c-1.604-4.395,0.173-9.495,4.411-11.624
		c3.886-1.952,8.704-0.877,12.882-0.794c7.911,0.158,18.368-1.848,18.368,9.567C73.876,48.031,71.652,51.096,67.871,51.469z"/>
	<path fill="#040404" d="M49.62,37.293c-5.722-1.933-7.513,8.838-1.739,9.934C53.276,48.25,54.374,38.895,49.62,37.293z"/>
	<path fill="#040404" d="M66.731,37.53c-6.401-2.158-6.463,11.505,0.076,9.312C70.79,45.506,70.642,38.847,66.731,37.53z"/>
	<path fill="#040404" d="M48.496,34.938c-7.9,0-8.552,13.231-0.856,14.426C56.503,50.74,57.291,34.938,48.496,34.938z
		 M48.461,48.228c-6.396,0-6.713-10.191-1.139-11.912C54.492,34.105,56.161,48.228,48.461,48.228z"/>
	<path fill="#040404" d="M65.804,35.22c-7.657,0-8.246,12.912-0.779,13.887C73.481,50.211,74.207,35.22,65.804,35.22z
		 M68.967,46.496c-5.304,5.341-11.193-4.744-6.002-9.04C68.367,32.986,73.048,42.386,68.967,46.496z"/>
	<path fill="#040404" d="M78.972,43.75c-0.021-1.23-0.058-6.023-0.43-9.208c-0.593-5.072-3.916-6.958-11.899-7.012
		c-2.563-0.018-5.124-0.181-7.686-0.277c-2.484-0.095-5.447,0.333-7.485-0.911c-1.193-1.211-2.961-1.553-4.586-1.212
		c-1.063,0.222-1.521,1.302-2.394,1.607c-0.527,0.185-1.498,0.124-2.064,0.101c-1.964-0.082-3.928-0.167-5.893-0.238
		c-2.701-0.099-5.097,0.288-7.754,0.713c-9.113,1.458-13.238,1.229-14.929,5.895c-0.443,1.225-1.849,1.935-2.56,3.047
		c-0.74,1.158-1.159,2.452-1.232,3.82c-0.123,2.307-0.404,5.062,0.223,7.314c0.401,1.442,1.354,3.15,2.842,3.486
		c1.289,0.291,0.313,1.375,1.254,3.262c1.473,2.952,4.126,3.348,7.122,3.861c2.085,0.357,4.165,0.74,6.248,1.104
		c0.731,0.128,6.657,0.546,6.756,0.821c0.343,0.96,1.216,1.625,2.171,1.906C37.264,62.002,37,62.842,37,63.396
		c0,1.389-0.383,3.441,0.438,4.652C38.856,70.142,43.882,70,46.151,70c2.684,0,5.088-0.094,7.7-0.576
		c1.474-0.272,3.593-0.44,3.971-2.21c0.347-1.622,0.17-3.449,0.188-5.102c0.005-0.374,1.37-0.979,1.63-1.37
		c0.328-0.494,0.181-2.066,0.734-2.117c2.731-0.246,5.854-0.264,8.594-0.375c4.142-0.169,7.894-0.835,9.157-5.583
		C78.864,49.894,79.021,46.582,78.972,43.75z M49.266,27.477c0.375,0.242,0.574,0.518,0.701,0.646
		c-1.215-0.097-2.446-0.068-3.664-0.074C47.022,27.224,48.347,26.883,49.266,27.477z M56.582,59.926
		c-0.448,0.142-0.242,0.062-0.003,0.001c-1.62,0.407,0.158,5.053-1.07,6.621c-0.521,0.665-2.78,0.745-3.507,0.817
		c-2.201,0.222-4.341,0.427-6.558,0.3c-0.913-0.052-5.962,0.1-6.11-1.498c-0.167-1.806,0.302-3.787-0.118-5.556
		c-0.253-1.065-2.545-0.51-2.572-2.086c6.99,0,14.063-0.261,21.037-0.765C57.693,58.9,57.753,59.558,56.582,59.926z M76.813,43.107
		c0,2.769,0.077,6.237-0.604,8.935c-1.566,4.485-6.286,4.005-10.104,4.145c-5.995,0.219-11.979,0.58-17.976,0.8
		c-5.974,0.219-12.675,1.161-18.577,0.059c-2.712-0.507-5.421-1.041-8.15-1.438c-4.402-0.639-5.122-1.937-5.708-5.778
		c-0.13-0.85-1.875-0.97-2.456-1.722c-0.741-0.96-0.862-1.966-0.933-3.123c-0.166-2.727-0.419-5.816,1.563-7.995
		c1.116-1.229,1.659-1.405,2.249-2.989c0.505-1.353,1.525-2.422,2.925-2.839c3.069-0.915,6.482-1.138,9.636-1.716
		c4.976-0.911,9.892-0.321,14.954-0.229c7.522,0.137,14.66,0.172,22.191,0.451c3.759,0.14,8.454-0.339,10.146,3.875
		C76.991,36.087,76.813,40.485,76.813,43.107z"/>
</g>
</svg>
