<?xml version="1.0" encoding="utf-8"?>
<!-- Generator: Adobe Illustrator 16.0.0, SVG Export Plug-In . SVG Version: 6.00 Build 0)  -->
<!DOCTYPE svg PUBLIC "-//W3C//DTD SVG 1.1//EN" "http://www.w3.org/Graphics/SVG/1.1/DTD/svg11.dtd">
<svg version="1.1" id="Layer_1" xmlns="http://www.w3.org/2000/svg" xmlns:xlink="http://www.w3.org/1999/xlink" x="0px" y="0px"
	 width="90px" height="90px" viewBox="0 0 90 90" enable-background="new 0 0 90 90" xml:space="preserve">
<path d="M71.707,57.302c0.58-0.678,0.925-1.516,1.353-2.291c1.8-3.261,1.831-6.261-0.649-9.015c-0.453-0.503-0.957-0.989-1.37-1.528
	c-0.563-0.736,0.512-0.822,1.048-1.213c1.181-0.862,3.178-1.901,2.81-3.673c-0.442-2.125-2.949-1.052-4.218-1.866
	c0.182,0.116,2.151-1.42,2.394-1.642c0.758-0.692,1.192-1.794,0.754-2.782c-0.498-1.124-1.844-1.276-2.748-1.943
	c-1.083-0.797-1.875-1.92-2.539-3.073c-2.646-4.594-5.28-11.356-10.724-13.273c-1.3-0.458-2.927-0.768-4.287-0.441
	c-1.299,0.312-2.131-0.884-3.105-1.597c-2.544-1.86-5.402-3.063-8.604-2.931c-6.123,0.252-12.499,6.081-16.973,9.832
	c-1.883,1.578-3.425,4.235-5.727,5.199c-1.107,0.463-2.66-0.105-3.563,0.832c-0.974,1.011-0.446,2.633,0.275,3.609
	c0.633,0.857,1.435,1.595,2.356,2.124c1.064,0.611,1.003,0.635,0.438,1.688c-0.546,1.021-0.988,2.265-1.744,3.157
	c-0.857,1.012-2.467,0.581-2.949,2.071c-0.713,2.201,2.507,5.072,4.213,5.939c0.548,0.28-0.182,1.952-0.226,2.542
	c-0.101,1.37,0.181,2.746,0.655,4.027c0.508,1.37,1.271,2.631,2.171,3.777c0.896,1.139,0.911,1.032,0.925,2.216
	c-0.769,2.64,0.935,3.768,3.196,2.75c-0.087,0.065,1.294,2.72,1.428,2.993c0.752,1.537,2.138,2.637,3.837,1.857
	c0.604-0.277,3.984,3.155,4.704,3.674c2.144,1.545,4.498,2.529,7.143,2.77c5.191,0.472,9.146-2.047,12.93-5.29
	c0.735-0.63,0.981-0.894,1.649-1.049c0.541,0.253,1.135,0.305,1.679,0.027c1.98-1.012,1.738-3.609,3.071-4.987
	c-0.12,0.134,1.978,0.53,2.352,0.363c0.972,4.042,2.117,8.124,3.419,12.071c0.464,1.405,1.032,2.679,2.737,2.239
	c1.778-0.459,2.191-3.06,2.746-4.505c0.633-1.648,1.339-3.305,1.881-4.984c0.701-2.173-0.603-3.462-1.564-5.287
	C72.467,58.906,72.084,58.105,71.707,57.302z M21.528,46.353c0.3-0.899,0.335-1.206,0.817-1.037c0.469,3.428,1.244,7.174,3.81,9.695
	C23.5,53.313,20.598,49.737,21.528,46.353z M57.173,57.653c-1.349,3.084-4.723,5.642-7.307,7.665
	c-2.626,2.055-5.876,2.844-9.138,2.106c-2.292-0.518-4.331-2.202-6.052-3.713c-1.436-1.261-2.775-2.629-4.056-4.047
	c-0.926-1.024-1.226-2.771-2.411-3.519c1.863-0.12,1.199-2.363,0.9-3.458c-0.474-1.744-0.489-3.492-0.485-5.288
	c0.003-0.883-0.069-1.783,0.12-2.655c0.772-0.349,1.507-0.773,2.231-1.21c1.694,0.671,3.32,1.498,4.951,2.308
	c1.33,0.661,3.057,2.056,4.596,2.112c2.237,0.081,1.215-2.971,0.619-3.998c0.439-0.675,0.35-1.553,0.337-2.31
	c-0.021-1.305,1.013-0.799,2.052-0.801c2.366-0.004,4.729,0.099,7.094,0.173c-2.34,0.764-6.932,2.448-5.834,5.955
	c0.713,2.281,4.057-0.161,5.153-0.732c2.356-1.228,4.759-2.521,7.293-3.346c0.392,3.031,0.182,6.312-0.77,9.228
	c-0.368,1.128-1.496,2.318-1.553,3.5c-0.072,1.508,1.565,1.656,2.603,1.24C57.406,57.118,57.327,57.424,57.173,57.653z
	 M48.837,33.896c1.485,0,2.968,0.14,4.454,0.115c0.135,1.581,0.366,3.179,0.965,4.659c-4.134-0.256-8.277-0.371-12.419-0.292
	c0.257-0.958,0.582-1.898,0.964-2.813c0.557-1.335,0.531-1.832,1.948-1.764C46.109,33.866,47.475,33.896,48.837,33.896z
	 M45.25,31.438c0.624-0.884,1.42-1.773,2.33-2.363c1.357-0.878,1,0.776,1.962,1.383c1.559,0.984,1.687-1.058,2.697-1.283
	c0.733,0.152,0.697,1.831,0.702,2.35C50.401,31.546,47.791,31.529,45.25,31.438z M58.023,40.179
	c-1.398-0.285-2.061-4.535-2.182-5.594c-0.27-2.365-0.049-9.577-4.556-7.924c-1.238,0.454-2.1-0.891-3.712-0.438
	c-1.64,0.459-2.938,1.711-3.998,2.984c-2.594,3.112-4.137,7.138-4.673,11.128c-0.769-1.161-0.978-5.378-2.756-5.128
	c-1.515,0.213-3.553,3.386-4.629,4.52c-0.827,0.872-0.892,0.879-1.962,1.47c-0.8,0.442-1.631,0.891-2.413,1.359
	c-1.872,1.122-1.313,5.143-1.199,6.935c-0.56-1.594-0.303-5.728-1.948-6.56c-0.954-0.482-2.217-0.49-3.247-0.857
	c-1.146-0.407-2.096-1.21-2.878-2.124c2.268-1.181,2.999-4.116,4.315-6.112c0.614-0.93,2.162-2.316,0.986-3.472
	c-0.954-0.938-2.708-1.042-3.812-1.933c2.744-0.619,4.174-2.79,6.065-4.627c2.209-2.146,4.7-4.055,7.233-5.8
	c4.864-3.353,9.445-6.44,15.013-2.912c1.108,0.703,2.021,1.558,3.012,2.404c1.447,1.236,2.374,0.26,3.981,0.26
	c2.583,0,3.643,1.322,5.278,3.088c3.663,3.955,4.934,10.76,9.735,13.558c-1.274,0.583-5.501-1.148-4.593,1.813
	c0.588,1.917,2.751,3.941,4.579,4.638c-1.038,0.514-2.074,1.105-3.19,1.249c-1.048,0.135-2.931-0.055-3.774,0.709
	c-0.968,0.877-0.827,3.032-1.104,4.213c-0.429,1.83-1.214,3.645-2.344,5.152c0.66-2.558,0.637-7.302,0.695-8.767
	C59.87,42.085,59.566,40.495,58.023,40.179z M63.708,52.367c-0.226,0.676-2.866,2.403-3.537,2.783
	c2.675-2.56,3.978-6.287,4.505-9.874c2.345,1.633-0.16,5.667-0.947,7.054C63.756,52.283,63.791,52.221,63.708,52.367z
	 M71.117,64.469c-0.42,1.457-1.101,2.817-1.631,4.232c-0.791-2.676-1.54-5.365-2.271-8.059c-0.626-2.308-2.236-5.667-0.956-7.684
	c1.024,2.771,2.178,5.501,3.581,8.103C70.455,62.202,71.493,63.165,71.117,64.469z M70.016,53.172
	c-0.669-1.022-0.99-2.098-1.843-2.991c-0.757-0.792-0.042-3.126-0.441-4.506c1.013,1.322,2.103,2.59,3.318,3.73
	C72.245,50.528,70.706,51.823,70.016,53.172z"/>
</svg>
