<?xml version="1.0" encoding="utf-8"?>
<!-- Generator: Adobe Illustrator 16.0.0, SVG Export Plug-In . SVG Version: 6.00 Build 0)  -->
<!DOCTYPE svg PUBLIC "-//W3C//DTD SVG 1.1//EN" "http://www.w3.org/Graphics/SVG/1.1/DTD/svg11.dtd">
<svg version="1.1" id="Layer_1" xmlns="http://www.w3.org/2000/svg" xmlns:xlink="http://www.w3.org/1999/xlink" x="0px" y="0px"
	 width="90px" height="90px" viewBox="0 0 90 90" enable-background="new 0 0 90 90" xml:space="preserve">
<g>
	<path fill="#040404" d="M72.176,31.258c-1.161-0.344-2.522-0.237-3.713-0.281c-4.121-0.151-8.244-0.285-12.365-0.429
		c-5.807-0.202-11.613-0.404-17.419-0.616c-3.889-0.142-9.157-0.263-9.689,4.894c-0.409,3.965-0.09,8.059-0.077,12.044
		c0.015,4.421,0.25,9.458,6.152,9.458c6.615,0,13.256-0.441,19.866-0.679c5.434-0.197,10.895-0.236,16.319-0.612
		c3.679-0.255,4.563-3.882,4.563-6.942c0-2.707,0.342-4.426,0.281-7.438C76.013,36.635,76.384,32.508,72.176,31.258
		C71.618,31.093,73.658,31.698,72.176,31.258z M75,43.087c0.545,3.978-3.348,8.009-7.129,8.382
		c-5.765,0.568-11.683,0.354-17.475,0.438c-5.194,0.075-10.43,0.068-12.614-5.917c-1.604-4.395,0.173-9.495,4.411-11.624
		c3.886-1.952,9.137-0.909,13.314-0.826C63.419,33.698,75,31.672,75,43.087z"/>
	<path fill="#040404" d="M48.496,34.938c-7.9,0-8.552,13.231-0.856,14.426C56.503,50.74,57.291,34.938,48.496,34.938z
		 M48.461,48.228c-6.396,0-6.713-10.191-1.139-11.912C54.492,34.105,56.161,48.228,48.461,48.228z"/>
	<path fill="#040404" d="M49.62,37.293c-5.722-1.933-7.513,8.838-1.739,9.934C53.276,48.25,54.374,38.895,49.62,37.293z"/>
	<path fill="#040404" d="M65.804,35.22c-7.657,0-8.246,12.912-0.779,13.887C73.481,50.211,74.207,35.22,65.804,35.22z
		 M68.967,46.496c-5.304,5.341-11.193-4.744-6.002-9.04C68.367,32.986,73.048,42.386,68.967,46.496z"/>
	<path fill="#040404" d="M66.731,37.53c-6.401-2.158-6.463,11.505,0.076,9.312C70.79,45.506,70.642,38.847,66.731,37.53z"/>
	<path fill="#040404" d="M78.594,34.281c-0.687-6.364-7.07-6.595-11.951-6.751c-2.563-0.082-5.124-0.181-7.686-0.277
		c-2.484-0.095-5.447,0.333-7.485-0.911c-1.193-1.211-2.961-1.553-4.586-1.212c-1.063,0.222-1.521,1.302-2.394,1.607
		c-0.527,0.185-1.498-0.063-2.064-0.086c-1.964-0.082-3.928-0.167-5.893-0.238c-2.701-0.099-5.147-0.034-7.797,0.438
		c-5.004,0.892-12.962,0.558-14.886,6.356c-0.41,1.236-1.849,1.935-2.56,3.047c-0.74,1.158-1.159,2.452-1.232,3.82
		c-0.123,2.307-0.404,5.062,0.223,7.314c0.401,1.442,1.331,2.854,2.678,3.57c0.911,0.487,0.946,2.286,1.418,3.178
		c1.541,2.917,4.126,3.348,7.122,3.861c2.085,0.357,4.165,0.74,6.248,1.104c0.731,0.128,6.657,0.546,6.756,0.821
		c0.343,0.96,1.216,1.625,2.171,1.906C37.264,62.002,37,62.842,37,63.396c0,1.389-0.383,3.441,0.438,4.652
		C38.856,70.142,43.882,70,46.151,70c2.684,0,5.088-0.094,7.7-0.576c1.474-0.272,3.593-0.44,3.971-2.21
		c0.347-1.622,0.17-3.449,0.188-5.102c0.005-0.374,1.37-0.979,1.63-1.37c0.328-0.494,0.269-1.887,0.822-1.938
		c2.731-0.246,5.499-0.227,8.239-0.338c4.142-0.169,8.575-0.999,9.839-5.747c0.738-2.773,0.314-6.179,0.265-9.011
		C78.784,42.479,78.938,37.469,78.594,34.281z M49.967,28.122c-1.215-0.097-2.446-0.068-3.664-0.074
		c0.72-0.824,2.044-1.165,2.963-0.571C49.641,27.719,49.84,27.994,49.967,28.122z M56.582,59.926
		c-2.337,0.737,0.156,5.053-1.073,6.622c-0.521,0.665-2.78,0.745-3.507,0.817c-2.201,0.222-4.341,0.427-6.558,0.3
		c-0.913-0.052-6.537,0.007-6.686-1.591c-0.167-1.806,0.302-3.787-0.118-5.556c-0.253-1.065-1.97-0.417-1.997-1.993
		c6.99,0,14.063-0.261,21.037-0.765C57.693,58.9,57.753,59.558,56.582,59.926C55.635,60.225,57.626,59.598,56.582,59.926z
		 M76.531,43.266c0,2.769,0.067,6.12-0.613,8.817c-1.566,4.485-5.995,3.964-9.813,4.104c-5.995,0.219-11.979,0.58-17.976,0.8
		c-5.974,0.219-12.675,1.161-18.577,0.059c-2.712-0.507-5.43-0.984-8.15-1.438c-3.786-0.627-5.122-1.937-5.708-5.778
		c-0.13-0.85-1.875-0.97-2.456-1.722c-0.741-0.96-0.862-1.966-0.933-3.123c-0.166-2.727-0.419-5.816,1.563-7.995
		c1.116-1.229,1.659-1.405,2.249-2.989c0.505-1.353,1.525-2.422,2.925-2.839c3.069-0.915,6.482-1.138,9.636-1.716
		c4.976-0.911,9.892-0.321,14.954-0.229c7.522,0.137,15.04,0.591,22.571,0.87c3.759,0.14,7.93-0.378,9.621,3.836
		C76.847,36.467,76.531,40.644,76.531,43.266z"/>
</g>
</svg>
