<?xml version="1.0" encoding="utf-8"?>
<!-- Generator: Adobe Illustrator 16.0.0, SVG Export Plug-In . SVG Version: 6.00 Build 0)  -->
<!DOCTYPE svg PUBLIC "-//W3C//DTD SVG 1.1//EN" "http://www.w3.org/Graphics/SVG/1.1/DTD/svg11.dtd">
<svg version="1.1" id="Layer_1" xmlns="http://www.w3.org/2000/svg" xmlns:xlink="http://www.w3.org/1999/xlink" x="0px" y="0px"
	 width="90px" height="90px" viewBox="0 0 90 90" enable-background="new 0 0 90 90" xml:space="preserve">
<path d="M71.636,69.088c-1.625-0.916-2.134-3.953-2.599-5.531c-0.82-2.778-1.492-5.643-3.118-8.086
	c-0.984-1.478-2.259-2.8-3.761-3.756c-1.171-0.745-1.783-0.533-1.102-1.883c1.406-2.784,2.667-7.235,0.824-10.125
	c-0.571-0.895-0.783-0.81-0.65-1.904c0.205-1.683,0.304-3.374,0.229-5.068c-0.171-3.877-1.201-7.906-3.256-11.227
	c-1.583-2.558-3.919-3.519-6.226-5.226c-3.114-2.305-7.117-3.387-10.961-3.387c-7.161,0-14.641,3.317-19.566,8.482
	c-2.188,2.295-3.507,5.036-4.297,8.094c-0.46,1.782-0.744,3.609-0.89,5.443c-0.098,1.221,0.254,2.983-0.116,4.159
	c-0.277,0.881-1.002,1.502-1.185,2.519c-0.252,1.409-0.123,2.883,0.167,4.276c0.337,1.619,0.921,3.194,1.722,4.642
	c1.043,1.885,1.47,3.894,2.227,5.905c0.896,2.383,2.058,6.402,5.26,5.631c0.579-0.139,1.682,1.294,2.102,1.652
	c1.418,1.208,2.953,2.283,4.539,3.257c2.53,1.553,5.959,3.786,9.064,2.871c2-0.59,3.682-1.826,5.472-2.839
	c0.39-0.22,3.774,3.697,4.496,4.242c3.848,2.91,8.831,4.24,13.619,3.969c2.535-0.144,5.039-0.732,7.381-1.712
	C72.905,72.695,73.677,70.24,71.636,69.088z M55.884,51.823c1.227-2.906,2.578-7.001,3.342-10.063
	C61.039,44.463,57.54,49.902,55.884,51.823z M55.751,59.035c-0.789,1.615-3.881,4.641-5.908,3.12
	c1.126-0.972,2.249-2.122,3.022-3.397c0.464-0.763,0.887-1.795,1.128-2.648c0.244-0.863,1.23-1.203,1.87-1.755
	C56.575,55.72,56.41,57.688,55.751,59.035z M23.405,48.181c0.103-0.356,0.227-0.788-0.004,0.012
	c-0.146,0.509-0.083,0.292-0.002,0.01c-0.713,2.488-0.976,5.323-0.974,7.864c-2.401-6.007-3.204-12.461-3.003-18.899
	c0.124-3.973,0.688-8.278,2.96-11.652c2.58-3.829,7.141-6.612,11.438-8.07c4.42-1.499,9.315-1.889,13.696-0.042
	c1.896,0.799,3.26,2.527,5.159,3.173c2.018,0.686,3.271,2.917,4.048,4.753c3.243,7.668,1.312,15.968-1.486,23.399
	c0.307-2.244,0.792-4.694,0.15-6.919c-0.778-2.699-1.968-5.259-2.713-7.981c-0.359-1.311-0.62-6.367-2.56-6.367
	c-1.124-0.276-3.686,0.986-4.781,1.321C35.236,31.862,26.45,37.632,23.405,48.181z M39.203,66.661
	c-1.449,0.451-3.197-0.721-4.409-1.378c-2.566-1.395-5.169-3.067-7.208-5.181c-5.313-5.502-2.843-14.081,1.415-19.473
	c4.979-6.305,13.182-9.417,20.756-11.316c0.829,2.977,1.424,5.99,2.44,8.918c0.883,2.542,1.9,4.557,1.656,7.301
	c-0.344,3.866-0.607,9.313-2.935,12.65C48.477,61.685,43.269,65.396,39.203,66.661z M56.664,71.203
	c-1.749-0.593-10.729-5.89-8.278-7.925c5.393,4.122,12.245-5.292,8.745-10.194c1.381,0.646,2.77,0.823,4.028,1.791
	c1.5,1.154,2.504,2.804,3.249,4.518c1.591,3.658,1.793,8.545,4.546,11.61C64.99,72.413,60.668,72.561,56.664,71.203z"/>
</svg>
