<?xml version="1.0" encoding="utf-8"?>
<!-- Generator: Adobe Illustrator 16.0.0, SVG Export Plug-In . SVG Version: 6.00 Build 0)  -->
<!DOCTYPE svg PUBLIC "-//W3C//DTD SVG 1.1//EN" "http://www.w3.org/Graphics/SVG/1.1/DTD/svg11.dtd">
<svg version="1.1" id="Layer_1" xmlns="http://www.w3.org/2000/svg" xmlns:xlink="http://www.w3.org/1999/xlink" x="0px" y="0px"
	 width="90px" height="90px" viewBox="0 0 90 90" enable-background="new 0 0 90 90" xml:space="preserve">
<g>
	<path d="M69.825,26.434c-1.375-2.446-7.032-0.211-8.694,0.82c-2.595,1.611,2.741,5.189,3.81,6.449
		c0.664,0.781,1.556,2.828,2.522,3.195c0.548,0.208,1.263-2.284,1.371-2.604C69.479,32.386,70.931,28.403,69.825,26.434
		C69.363,25.611,70.542,27.711,69.825,26.434z"/>
	<path d="M74.928,31.66c0.489-2.73,1.063-6.276-0.432-8.817c-1.252-2.129-4.317-2.315-6.512-2.257
		c-3.041,0.081-6.131,0.819-8.875,2.133c-0.939,0.45-2.38,1.898-3.42,1.439c-1.222-0.538-2.051-2.822-3.123-3.77
		c-5.227-4.619-12.386-2.791-16.061,2.669c-0.673,1-2.388,0.77-3.205,0.471c-3.027-1.827-6.661-2.825-10.188-2.938
		c-2.085-0.066-5.354,0.056-6.607,2.065c-1.534,2.46-1.015,6.146-0.559,8.826c0.561,3.297,2.595,6.518,1.532,9.734
		c-1.002,3.032-1.462,6.238-1.315,9.43c0.561,12.206,9.847,22.5,21.579,25.289c11.453,2.723,24.007-1.558,30.727-11.37
		c3.63-5.301,5.239-11.551,4.583-17.945c-0.243-2.373-1.397-4.434-0.517-6.613C73.611,37.346,74.423,34.484,74.928,31.66
		C75.737,27.14,74.42,34.497,74.928,31.66z M69.648,42.297c3.954,11.89-2.993,24.743-14.082,29.646
		c-11.621,5.139-26.173,1.355-33.151-9.447c-3.261-5.049-4.603-11.23-3.601-17.167c0.513-3.039,2.054-5.171,1.021-8.179
		c-1.179-3.429-2.197-7.283-1.991-10.944c0.312-5.536,8.878-2.99,12.026-1.668c1.207,0.507,2.205,1.223,3.317,1.884
		c0.866,0.514,2.342-0.438,3.174-0.709c2.782-0.905,3.621-4.127,6.555-5.203c3.605-1.321,7.417,0.394,9.432,3.508
		c1.397,2.163,0.943,4.604,0.278,6.908c-0.167,0.578-0.803,3.27,0.656,3.113c1.106-0.142,0.552-2.418,2.021-2.717
		c1.348-0.274,2.861-0.779,0.664-1.796c-1.024-0.47-0.919-2.112-1.208-3.084c1.446,0.601,1.746,0.786,2.941-0.137
		c1.4-1.082,3.067-1.816,4.739-2.363c2.603-0.852,6.347-1.778,8.98-0.538c2.396,1.129,1.365,5.652,1.019,7.613
		c-0.358,2.031-0.89,4.034-1.557,5.986C70.296,38.725,69.037,40.46,69.648,42.297C69.912,43.09,69.273,41.17,69.648,42.297z"/>
	<path d="M29.861,27.512c-1.931-1.456-4.935-2.254-7.334-1.944c-2.73,0.353-1.928,3.635-1.542,5.58
		c0.263,1.324,0.624,2.643,1.146,3.89c0.604,1.438,1.923-1.14,2.435-1.717c1.205-1.359,2.551-2.59,4.009-3.672
		C29.299,29.111,31.054,28.411,29.861,27.512C27.914,26.043,30.625,28.088,29.861,27.512z"/>
	<path d="M58.084,34.037c-0.928-0.138-1.486,2.785-1.882,3.448c-0.823,1.377-2.068,2.454-3.524,3.117
		c-3.128,1.423-7.13,1.051-10.064-0.649c-2.894-1.676-4.412-4.237-4.857-7.569c-0.096-0.714,0.332-3.783-0.616-4.051
		c-0.989-0.279-1.112,1.974-1.24,2.442c-1.557,5.654,2.19,11.425,7.507,13.203c3.693,1.235,8.086,1.146,11.462-0.925
		c1.718-1.053,2.833-2.447,3.4-4.395C58.469,37.973,59.379,34.221,58.084,34.037C57.492,33.949,58.683,34.122,58.084,34.037z"/>
</g>
</svg>
