<?xml version="1.0" encoding="utf-8"?>
<!-- Generator: Adobe Illustrator 16.0.0, SVG Export Plug-In . SVG Version: 6.00 Build 0)  -->
<!DOCTYPE svg PUBLIC "-//W3C//DTD SVG 1.1//EN" "http://www.w3.org/Graphics/SVG/1.1/DTD/svg11.dtd">
<svg version="1.1" id="Layer_1" xmlns="http://www.w3.org/2000/svg" xmlns:xlink="http://www.w3.org/1999/xlink" x="0px" y="0px"
	 width="89.984px" height="89.994px" viewBox="0 0 89.984 89.994" enable-background="new 0 0 89.984 89.994" xml:space="preserve">
<path d="M30.478,67.583c-0.304-1.158-0.533-2.342-0.788-3.512c-0.296-1.359-0.47-1.98-0.712-3.782
	c0.988,1.82,0.988,1.82,2.392,3.332c0.408,0.438,0.809,0.883,1.217,1.321c0.477,0.512,0.479,1.203,0.668,1.867
	c0.064,0.297,0.762,2.171,1.072,2.236c-0.038-0.008-0.224-2.416-0.292-2.67c3.051,2.75,6.916,5.024,11.169,5.024
	c4.45,0,8.461-2.734,11.525-5.729c-0.065,0.361-0.613,2.648-0.189,2.92c0.42,0.263,1.36-3.479,1.434-3.842
	c0.146-0.771,0.701-1.312,1.139-1.963c0.62-0.922,1.199-1.87,1.754-2.832c-0.346,2.914-1.463,7.733-2.35,10.539
	c-0.251,0.704-0.605,1.417,0.406,1.5c1.952,0.158,3.658-0.91,5.342-1.748c1.536-0.764,4.412-2.024,4.982-3.842
	c0.331-1.057,0.843-2.1,0.937-3.202c0.143-1.681,0.228-3.482,0.333-5.166c0.257-4.075,0.325-8.256,0.125-12.334
	c-0.303-6.154-1.531-12.787-4.224-18.419c-2.786-5.828-7.905-11.218-14.467-12.484c-1.344-0.259-2.726-0.326-4.086-0.168
	c-0.879,0.102-2.255,0.799-3.093,0.537c-3.177-0.993-6.498-0.778-9.556,0.521C20.848,21.8,19.153,39.888,19.391,53.244
	c0.07,3.891,0.404,7.313,0.75,11.188c0.155,1.737,1.243,2.935,2.63,3.951c1.386,1.017,2.926,1.842,4.495,2.535
	c1.26,0.557,1.821,0.83,3.063,1.101C31.078,72.182,31.453,71.307,30.478,67.583z M36.828,30.119
	c1.194-1.342,2.229-1.896,4.063-1.514c1.018,0.212,1.938,0.755,2.736,1.406c0.46,0.375,1.118,1.327,1.764,0.81
	c1.483-1.19,2.716-2.461,4.739-2.303c1.802,0.142,2.82,1.134,3.917,2.507c-3.229-0.088-5.891,0.389-8.727,2.02
	c-0.744,0.428-1.81-0.485-2.617-0.738c-1.004-0.314-2.151-0.629-3.188-0.813c-1.392-0.247-2.313-0.325-3.719-0.188
	C36.047,30.931,36.527,30.455,36.828,30.119z M29.402,41.944c0.385-1.7,0.786-3.402,1.311-5.065
	c0.178-0.562,0.815-3.101,1.473-3.174c-0.389,1.414-0.621,2.665-0.881,3.946c-0.281,1.389-0.502,2.786-0.649,4.195
	c-0.091,0.861-0.382,1.003-0.907,1.688C28.913,44.624,29.338,42.229,29.402,41.944z M31.891,61.061
	c-1.423-1.952-2.096-2.914-2.703-5.204c-0.418-1.574-0.297-4.302-0.234-5.925c0.051-1.329-0.047-3.172,0.438-4.438
	c0.231-0.605,0.924-0.454,0.982,0.205c0.151,1.711,0.092,3.445,0.201,5.161c0.121,1.9,0.314,3.796,0.584,5.681
	c0.143,0.996,0.118,1.002,0.306,1.99C31.559,59.032,31.731,60.901,31.891,61.061z M56.953,60.369
	c-0.127,1.005-0.203,1.947-0.83,2.76c-0.43,0.558-0.143,0.106-0.649,0.594c-1.432,1.377-3.061,2.604-4.75,3.647
	c-2.757,1.704-5.926,2.172-9.005,1.085c-1.676-0.591-3.211-1.531-4.62-2.604c-0.803-0.611-1.095-0.803-1.82-1.505
	c-0.925-0.896-1.168-1.179-1.356-2.446c-0.521-3.497-1.008-7-1.188-10.531c-0.045-0.879-0.498-5.694,0.563-5.781
	c1.03-0.083,1.348,0.087,2.339,0.313c1.88,0.426,3.725,0.976,5.586,1.471c0.464,0.123,1.212-0.138,0.465-0.497
	c-0.965-0.465-1.979-0.842-2.974-1.237c-1.205-0.479-2.414-0.948-3.631-1.394c-0.748-0.273-1.574-0.326-2.035-1.03
	c-0.504-0.772-0.141-2.769-0.031-3.563c0.244-1.77,0.678-3.512,1.313-5.188c0.273-0.725,0.225-0.735,0.982-0.834
	c0.478-0.062,0.479-0.048,0.959-0.068c1.265-0.056,2.523,0.093,3.758,0.368c1.637,0.365,3.32,1.396,5,1.427
	c0.627,0.012,1.957-0.529,2.508-0.813c2.29-1.177,4.227-1.296,6.757-1.234c0.513,0.012,0.617,0.094,1.13,0.123
	c0.161,0.26,0.466,0.675,0.587,0.954c0.284,0.658,0.309,0.851,0.503,1.54c0.55,1.949,0.877,3.963,1.098,5.975
	c0.156,1.425-0.014,1.404-1.327,1.843c-1.285,0.429-2.556,0.899-3.818,1.391c-1.367,0.532-3.218,0.938-4.374,1.858
	c-0.92,0.732,1.593,0.111,1.614,0.105c1.73-0.495,3.472-0.971,5.233-1.343c0.906-0.191,1.173-0.302,2.109-0.136
	c0.941,0.167,0.549,4.157,0.531,4.813C57.489,53.747,57.342,57.074,56.953,60.369z M58.645,35.711c0.547,0,1.454,3.339,1.559,3.752
	c0.315,1.245,0.639,2.926,0.574,4.228c-0.036,0.713-0.539-0.442-0.605-0.603c-0.479-1.152-0.547-2.591-0.75-3.813
	C59.379,39.021,58.547,35.711,58.645,35.711z M61.65,54.557c-0.751,1.723-1.513,3.024-2.479,4.634
	c0.426-2.35,0.346-3.903,0.549-6.282c0.111-1.307,0.126-2.62,0.146-3.931c0.016-1.033-0.273-2.632,0.074-3.62
	c0.273-0.744,1.112,0.025,1.186,0.473c0.137,0.828,0.177,1.678,0.223,2.515C61.471,50.562,61.763,52.338,61.65,54.557z"/>
</svg>
