<?xml version="1.0" encoding="utf-8"?>
<!-- Generator: Adobe Illustrator 16.0.0, SVG Export Plug-In . SVG Version: 6.00 Build 0)  -->
<!DOCTYPE svg PUBLIC "-//W3C//DTD SVG 1.1//EN" "http://www.w3.org/Graphics/SVG/1.1/DTD/svg11.dtd">
<svg version="1.1" id="Layer_1" xmlns="http://www.w3.org/2000/svg" xmlns:xlink="http://www.w3.org/1999/xlink" x="0px" y="0px"
	 width="90px" height="90px" viewBox="0 0 90 90" enable-background="new 0 0 90 90" xml:space="preserve">
<path d="M72.819,46.39c-0.287-1.157-1.463-3.171-2.34-4.529c-1.017-1.575-1.112-3.685-1.792-5.426
	c-1.525-3.906-4.01-7.476-7.212-10.189c-0.471-0.399-3.765-2.31-3.765-2.78c0-1.57-0.122-3.079-0.613-4.581
	c-1.037-3.168-3.324-5.896-6.271-7.455c-5.814-3.073-13.442-0.937-16.864,4.67c-0.987,1.618-1.547,3.449-1.751,5.327
	c-0.131,1.211,0.235,1.674-0.849,2.364c-0.736,0.468-1.451,0.969-2.141,1.503c-2.969,2.296-5.457,5.198-7.21,8.52
	c-1.675,3.173-1.865,6.882-3.647,9.926c-1.604,2.74-2.25,6.962,0.3,9.4c1.069,1.022,0.273,3.133-0.065,4.461
	c-0.448,1.759-0.215,3.724,0.5,5.379c1.511,3.498,4.906,5.517,8.382,6.655c3.529,1.156,5.634,3.97,8.607,6.017
	c3.365,2.316,7.586,2.868,11.569,2.21c3.805-0.628,6.606-2.845,9.381-5.375c2.878-2.625,6.673-3.016,9.741-5.337
	c1.747-1.322,3.189-3.1,3.829-5.22c0.656-2.176-0.028-4.162-0.199-6.332c-0.162-2.037,0.93-1.924,1.838-3.588
	C73.168,50.325,73.194,48.233,72.819,46.39z M65.09,37.219c-1.279-1.196-2.91-2.544-4.375-3.5c-0.78-0.509-1.833-1.187-2.656-1.625
	c-0.5-0.266-0.597-0.279-1.469-0.594c-0.813-0.288-1.299-1.602-1.563-2.344c-0.457-1.288-1.25-2.636-2.031-3.75
	C58.495,27.186,62.128,32.602,65.09,37.219z M48.159,12.888c1.791,0.502,4.29,1.969,5.579,4.431
	c0.568,1.085,3.066,6.575,0.217,5.637c-1.51-0.498-3.361-0.682-4.771-1.349c-1.734-0.819-2.935-1.709-4.976-1.514
	c-1.601,0.153-2.573,1.359-4.047,1.618c-1.902,0.333-3.729,1.027-5.617,1.217C34.646,15.355,41.153,11.094,48.159,12.888z
	 M28.995,30.273c0.943-0.983,1.997-1.856,3.11-2.64c1.032-0.727,3.875-2.194,4.735-2.445c-1.262,1.752-2.102,5.814-4.125,6.625
	c-3.095,1.24-6.1,3.526-8.438,5.875C25.239,35.076,27.082,32.268,28.995,30.273z M59.817,66.376
	c-4.673,1.664-7.388,6.659-12.308,7.701c-5.017,1.063-8.737-0.83-12.375-4.095c-1.729-1.552-3.47-2.795-5.648-3.638
	c-2.256-0.873-4.69-1.644-6.212-3.658c-1.608-2.128-0.836-3.58-0.619-5.88c2.035-1.261,3.55-1.528,5.851-0.673
	c2.242,0.833,3.882,1.726,6.279,0.741c2.49-1.023,4.415-3.218,7.018-3.953c2.285-0.646,4.145-0.626,6.374,0.296
	c2.228,0.922,3.883,2.805,6.137,3.659c2.48,0.94,4.596,0.091,6.9-0.832c0.694-0.278,5.931-0.545,5.772,1.331
	c0.057,0.405,0.044,0.824,0.125,1.25C66.944,62.333,64.329,64.77,59.817,66.376z M68.041,55.115
	c-0.784-0.531-2.503-1.661-4.096-1.771c-2.154-0.148-3.728,0.855-5.676,1.493c-2.362,0.773-4.252-0.472-6.094-1.801
	c-1.992-1.438-3.872-2.211-6.255-2.75c-2.126-0.48-4.795,0.292-6.656,1.328c-2.005,1.117-4.086,3.42-6.477,3.595
	c-1.626,0.121-3.362-1.225-4.922-1.578c-2.567-0.581-4.278,0.052-6.432,1.343c0.205-3.834,5.396-8.625,8.827-10.185
	c1.198-0.544,2.308-1.252,3.512-1.792c1.55-0.696,1.376,0.015,2.297,1.127c1.819,2.199,4.639,3.197,7.398,3.507
	c2.774,0.312,5.553-0.346,7.952-1.723c1.217-0.698,2.376-1.766,2.976-3.054c0.445-0.958,1.635,0.098,2.209,0.297
	c2.411,0.839,4.818,2.476,6.734,4.142c0.951,0.826,2.003,1.678,2.693,2.737c0.622,0.954,1.802,2.167,1.997,2.782
	S68.116,54.214,68.041,55.115z M68.789,50.493c-2.537-4.645-7.183-7.616-11.942-9.628c-2.997-1.267-3.418,0.173-5.245,2.129
	c-1.646,1.762-4.305,2.516-6.657,2.515c-2.324-0.001-4.989-0.666-6.693-2.318c-0.729-0.708-1.056-1.771-1.868-2.385
	c-1.235-0.935-2.385-0.225-3.6,0.224c-4.913,1.817-8.901,5.094-11.954,9.231c-2.084-2.417,1.939-6.964,3.457-8.947
	c2.731-3.568,6.083-5.769,10.018-7.76c1.725-0.874,1.917-2.572,2.684-4.175c0.979-2.045,2.327-3.979,4.089-5.425
	c2.933-2.407,5.773-1.672,8.067,0.334c-0.033-0.03-0.039-0.036,0.042,0.035c0.214,0.195,0.113,0.105,0.021,0.023
	c2.462,2.259,3.093,5.448,4.82,8.122c0.722,1.118,2.096,1.399,3.211,1.967c1.657,0.845,3.209,1.911,4.635,3.103
	C64.399,39.645,72.211,46.792,68.789,50.493z"/>
</svg>
