<?xml version="1.0" encoding="utf-8"?>
<!-- Generator: Adobe Illustrator 16.0.0, SVG Export Plug-In . SVG Version: 6.00 Build 0)  -->
<!DOCTYPE svg PUBLIC "-//W3C//DTD SVG 1.1//EN" "http://www.w3.org/Graphics/SVG/1.1/DTD/svg11.dtd">
<svg version="1.1" id="Layer_1" xmlns="http://www.w3.org/2000/svg" xmlns:xlink="http://www.w3.org/1999/xlink" x="0px" y="0px"
	 width="90px" height="90px" viewBox="0 0 90 90" enable-background="new 0 0 90 90" xml:space="preserve">
<g>
	<path d="M44.654,35.255c3.795,0,4.664-5.702,0.875-6.573C40.78,27.589,39.91,35.255,44.654,35.255z"/>
	<path d="M70.951,49.819c-0.318-0.275-2.101-1.04-2.165-1.314c-0.299-1.284-0.109-2.781-0.168-4.093
		c-0.14-3.1-0.252-6.377-0.973-9.402c-1.397-5.87-5.712-9.59-11.34-11.355c-1.297-0.406-2.021-1.716-3.078-2.535
		c-1.25-0.97-2.681-1.697-4.188-2.171c-3.268-1.028-6.723-0.815-9.89,0.442c-1.792,0.712-5.876-2.819-7.251-3.733
		c-2.471-1.644-5.157-2.76-8.043-1.399c-2.552,1.203-3.722,3.953-3.731,6.658c-0.005,1.513,1.236,2.443-0.672,2.903
		c-1.54,0.371-2.595,1.368-3.271,2.795c-1.19,2.513-0.588,5.393,1.098,7.521c0.965,1.219,2.23,2.179,3.616,2.87
		c1.432,0.714,0.51,2.851,0.384,4.283c-0.065,0.738,0.01,7.228-0.389,7.342c-3.334,0.982-4.736,4.84-4.309,7.993
		c0.405,2.982,1.969,5.882,4.182,7.911c1.135,1.041,2.033,1.476,2.802,2.838c0.879,1.559,2.06,2.934,3.394,4.121
		c2.258,2.008,4.894,3.325,7.586,4.639c2.834,1.36,5.012,2.94,8.268,3.418c2.914,0.427,6.043-0.142,8.745-1.262
		c1.33-0.552,2.463-1.759,3.77-2.219c1.691-0.604,3.289-1.467,4.773-2.473c2.525-1.713,5.014-3.953,6.402-6.718
		c1.025-1.465,2.679-2.292,3.867-3.724C73.287,59.638,74.917,53.248,70.951,49.819z M60.081,29.388
		c2.065,1.354,3.788,3.994,4.244,6.416c-2.569,0.103-5.148,0.038-7.719,0.081c0.846-2.802,0.666-5.863-0.442-8.567
		C57.542,27.848,58.849,28.58,60.081,29.388z M65.896,37.437c0.132,1.246,0.104,2.252,0.24,3.497
		c-1.761-0.017-3.794,0.084-5.433,0.057c-2.128-0.035-4.284-0.001-6.405-0.091c0.626-0.732,1.593-2.447,2.014-3.315
		C57.521,37.563,63.083,37.459,65.896,37.437z M62.599,42.957c0.927,0.055,2.359-0.435,2.389,0.664
		c0.033,1.216-0.004,2.432,0.012,3.647c0,1.045,0,1.888,0.031,3.45c-0.156,1.781,0.115,3.26-0.156,5.239
		c-0.8-0.706-1.646-1.375-2.23-2.228c0.153-1.335,0.066-1.719,0.138-2.926C62.938,48.207,62.963,45.539,62.599,42.957z
		 M57.828,45.071c-2.114-1.404-4.757-0.981-7.151,0.862c1.031-1.6,1.844-3.12,3.485-3.076c0.87,0.023,2.005-0.003,2.921,0.143
		C57.771,43.968,57.813,44.188,57.828,45.071z M43.149,21.86c12.464-2.073,16.487,17.927,4.018,20.216
		c-5.256,0.964-10.845-1.539-12.32-7.057C33.248,29.04,37.02,22.888,43.149,21.86z M26.766,53.064
		c0.047,2.217-1.142,2.519-1.79,2.985c-0.711-3.004-0.423-5.428-0.415-8.417c0.013-1.34-0.011-2.683,0.061-4.021
		c0.051-0.951,1.611-0.527,2.477-0.57C26.021,45,26.672,49.064,26.766,53.064z M27.252,41.014c-1.112,0.044-2.774-0.292-3.75,0.285
		c0.178-1.245,0.349-2.496,0.426-3.753c1.458,0.914,4.131,0.47,5.822,0.448c1.054-0.014,2.107-0.053,3.156-0.154
		c0.31-0.03,1.942,2.792,2.376,3.269c-2.623,0.185-5.371-0.169-8.009-0.095C27.314,41.013,27.341,41.011,27.252,41.014z
		 M32.157,43.726c0.759-0.685,2.246-0.646,3.426-0.58c2.12,0.12,2.619,1.053,3.444,2.787c-2.411-1.829-5.257-2.499-7.703-0.511
		C31.539,44.667,31.529,44.482,32.157,43.726z M21.529,33.292c-1.186-0.886-2.79-2.673-2.438-4.313
		c0.714-3.329,3.273-0.841,5.218-0.841c1.922,0,0.918-2.269,0.483-3.141c-0.809-1.621-1.642-3.737-1.022-5.562
		c2.053-6.042,9.477,2.402,12.956,3.024c0,0.351-2.927,3.498-3.391,4.555c-1.202,2.743-1.396,5.882-0.558,8.755
		c-2.325,0.125-4.686,0.091-7.014,0.042c-0.929-0.02-0.712-0.956-1.605-1.329C23.23,34.095,22.358,33.911,21.529,33.292z
		 M65.388,62.992c-1.856,1.141-2.502,3.566-4.002,5.135c-2.357,2.467-5.189,3.479-8.043,5.145
		c-4.94,2.882-10.829,4.654-15.911,0.632c-2.166-1.713-4.995-2.457-7.223-4.175c-1.013-0.781-1.962-1.661-2.758-2.666
		c-0.82-1.036-1.187-2.462-2.118-3.381c-1.877-1.851-3.739-2.821-4.815-5.429c-0.878-2.13-1.111-5.973,1.934-6.536
		c0.208,1.851,0.023,5.103,1.267,6.664c1.177,1.478,3.885-1.663,4.688-2.693c1.199-1.538-1.293-13.353,1.665-12.55
		c-0.848,1.602-1.78,5.154-0.537,5.752c1.055,0.507,1.513-0.68,2.424-1.264c1.424-0.913,2.525-1.057,3.813-0.854
		c2.625,0.412,3.942,3.47,5.329,2.732c1.692-0.899-0.371-5.399-1.412-6.175c3.273,1.471,7.25,1.352,10.477-0.178
		c-0.914,1.103-3.261,4.75-1.802,6.16c1.297,1.255,2.2-1.358,4.34-2.187c1.126-0.436,2.682-0.782,3.818-0.312
		c1.196,0.494,1.368,1.339,2.441,1.903c1.356,0.713,1.178-0.944,1.084-2.686c-0.078-1.453-0.328-2.65-0.625-3.029
		c1.349,0.004,1.272,0.229,1.376,1.581c0.127,1.661,0.137,3.334,0.078,4.999c-0.103,2.926-1.196,5.101,1.238,7.128
		c1.178,0.981,4.178,3.812,4.678,0.52c0.294-1.938,0.116-3.621,0.473-5.544C72.95,53.268,68.416,61.132,65.388,62.992z"/>
	<path d="M61.414,57.205c-1.445-0.066-3.695,1.014-7.204,1.717c-1.686,0.421-1.8,0.656-2.21,2.404c0,5.008-7.311,6.025-10.744,4.32
		c-1.77-0.88-3.243-2.238-3.243-4.304c-0.483-1.714-1.323-2.175-3.117-2.523c-2.056-0.357-3.959-0.642-5.898-1.448
		c-3.485-1.457-3.135,4.359-2,6.009c0.777,1.13,1.928,0.968,2.159,2.308c0.244,1.42,0.878,2.691,2.156,3.334
		c1.017,0.511,2.214,0.784,3.307,0.479c1.787-0.5,1.352,1.021,2.581,1.887c1.923,1.356,4.641,1.372,6.702,0.324
		c1.708-0.868,3.472,0.915,5.614,0.708c0.97-0.095,1.942-0.368,2.769-0.898c0.847-0.543,1.602-2.563,2.465-2.313
		c2.156,0.625,4.423-0.024,5.448-1.889c0.099-0.181,0.635-2.455,0.535-2.415c1.098-0.42,1.902-1.368,2.318-2.446
		C63.593,61.057,63.723,57.312,61.414,57.205z M43.329,69.328c-1.471,1.036-4.479,1.154-5.478-0.659
		c-1.214-2.207-1.128-2.044-3.586-1.485c-2.116,0.48-2.88-1.17-3.104-2.896c-0.261-2.005-3.585-1.911-2.664-4.589
		c1.164,0.358,2.335,0.672,3.521,0.949c1.255,0.294,3.452,0.18,3.7,1.477c0.776,4.051,4.454,6.497,8.381,6.744
		C43.843,69.022,43.586,69.175,43.329,69.328z M59.871,62.644c-1.673,0.549-1.34,1.572-1.653,3.033
		c-0.364,1.699-2.479,1.569-3.751,1.182c-1.95-0.596-2.332,1.521-3.333,2.405c-1.883,1.66-3.875,0.376-5.743-0.39
		c3.422-0.185,7.095-1.979,8.402-5.323c0.276-0.705,0.45-1.475,0.478-2.232c0.569-0.119,1.144-0.211,1.713-0.328
		c1.661-0.342,3.317-0.739,4.922-1.288C61.129,60.7,61.061,62.256,59.871,62.644z"/>
</g>
</svg>
