<?xml version="1.0" encoding="utf-8"?>
<!-- Generator: Adobe Illustrator 16.0.0, SVG Export Plug-In . SVG Version: 6.00 Build 0)  -->
<!DOCTYPE svg PUBLIC "-//W3C//DTD SVG 1.1//EN" "http://www.w3.org/Graphics/SVG/1.1/DTD/svg11.dtd">
<svg version="1.1" id="Layer_1" xmlns="http://www.w3.org/2000/svg" xmlns:xlink="http://www.w3.org/1999/xlink" x="0px" y="0px"
	 width="90px" height="90px" viewBox="0 0 90 90" enable-background="new 0 0 90 90" xml:space="preserve">
<path d="M16.96,43.332c1.676-1.074,3.614-1.741,5.559-2.121c-2.745,3.456-2.974,7.915-3.323,12.645
	c-0.074,1.005-1.392,4.353,0.605,4.353c1.939,0,4.478-2.064,5.961-3.129c0.046,4.44-0.267,9.311-1.848,13.506
	c-0.966,2.561,0.965,2.749,2.333,1.061c0.993-1.224,1.95-2.48,2.894-3.742c4.233,7.295,10.47,12.865,18.837,8.322
	c2.336-1.269,6.36-3.26,7.419-5.714c0.396-0.918,2.287,0.363,5.064,0.586c1.775,0.143,3.696,0.089,5.442-0.293
	c3.69-0.809-2.751-3.908-2.421-5.389c0.264-1.187,0.764-2.361,1.105-3.53c0.451-1.545,0.269-3.598,2.002-3.39
	c1.836,0.221,3.57,0.231,5.422,0.223c1.241-0.006,3.511-1.918,1.431-2.53c-2.418-1.43-4.701-4.083-6.027-6.528
	c3.612-0.275,8.925-2.861,10.588-6.276c0.91-1.869-5.198-2.171-6.5-3.05c-3.841-2.592-6.434-6.714-10.021-9.634
	c-3.156-2.569-6.751-4.06-10.799-4.478c4.783-5.466-1.423-12.926-6.95-14.322c-3.639-0.919,0.711,4.014,0.986,4.495
	c1.238,2.167,1.389,5.522,0.568,8.364c-1.185,4.105-12.562-2.8-14.01-5.737c-1.972-4.008-3.436,3.212-3.524,4.457
	c-0.19,2.675,0.182,5.6,1.576,7.939c-7.546,0.21-14.422,5.296-15.632,12.832C13.275,44.895,15.651,44.17,16.96,43.332z
	 M31.746,59.191c2.75-0.931,5.428-2.586,7.556-4.552c0.676,1.995,4.601,0.063,5.606-0.585c0.278-0.179,2.013,1.368,4.595,2.735
	c2.749,1.456,2.966,0.734,2.957,3.856c-0.004,1.723,0.196,3.577-0.065,5.278c-0.461,3.05-7.695,6.251-10.347,6.659
	c-3.719,0.572-7.31-4.857-9.034-7.442C32.045,63.688,29.852,59.833,31.746,59.191z M41.27,52.49c0.476-0.619,0.899-1.272,1.27-1.958
	c0.215,0.371,0.448,0.729,0.698,1.075C42.577,51.889,41.919,52.183,41.27,52.49z M31.313,51.535
	c-0.38-0.119-0.767-0.208-1.161-0.266c0.519-0.553,0.985-1.028,1.479-1.6C31.69,50.221,31.424,50.984,31.313,51.535z M30.17,56.391
	c-0.297-0.766-0.453-2.359-0.585-3.005C31.042,54.293,30.827,54.75,30.17,56.391z M26.762,65.743
	c0.778-3.753,0.983-7.554,0.983-11.376c0.599,3.006,1.017,6.187,2.092,9.073c-1.026,0.123-1.546,0.245-1.781,0.57
	C27.635,64.595,27.204,65.173,26.762,65.743z M16.188,41.465c1.561-5.604,6.679-9.551,12.423-10.012
	c4.143-0.333,3.346-0.726,1.965-3.979c-1.101-2.592-1.062-5.442-0.115-7.954c3.564,4.355,9.939,6.896,13.647,6.729
	c5.158-0.232,4.183-9.761,2.328-12.843c2.078,1.453,3.453,3.578,3.825,5.617c0.418,2.29-0.882,2.897-1.852,4.605
	c-3.336,2.628,5.831,3.221,7.286,3.826c7.388,3.07,11.2,13.772,19.605,14.149c-1.442,1.487-3.317,2.616-5.237,3.367
	c-1.181,0.462-3.205,0.279-4.21,1.071c1.075-2.465,2.031-6.641-1.429-8.154c-0.938-0.41-1.84,2.854-1.907,3.367
	c-0.183,1.403-0.349,1.691,0.285,2.865c-1.931-0.931-1.965-0.536-1.922-2.096c0.048-1.733-0.625-3.331-1.859-4.487
	c-3.916-3.667-4.149,1.717-2.442,4.141c-1.792-0.686-0.954-0.37-1.804-2.346c-0.67-1.557-1.893-2.886-3.181-3.957
	c-3.266-2.72-2.758,2.277-1.741,3.972c-1.675-0.459-1.911-0.241-2.145-1.087c-0.405-1.469-1.658-2.697-2.878-3.519
	c-3.524-2.372-2.75,1.773-1.076,3.178c-2.163-0.472-1.256-0.639-2.9-1.871c-0.765-0.573-1.593-0.806-2.537-0.81
	c-1.643-0.006,1.756,3.435,1.75,3.401c-0.043-0.218-5.172,2.03-2.241,2.425c2.392,0.322,3.096-1.368,5.393-0.876
	c-1.478,0.667-4.522,3.267-0.632,2.644c3.131-0.502,3.431-2.232,6.549-1.386c-2.641,0.893-6.239,2.996-1.208,3.631
	c1.958,0.247,3.926-0.143,5.547-1.296c1.542-1.096,1.191-0.714,3.099-0.005c-1.71,0.302-7.547,4.942-3.438,4.505
	c2.083-0.22,4.222-0.798,6.056-1.829c1.908-1.072,1.062-1.279,3.239-0.233c-0.801,0.059-6.581,3.148-4.756,3.981
	c2.369,1.081,6.27-0.29,7.687-2.352c0.614,2.406,3.447,5.303,5.364,6.853c-3.738,0.094-6.237-0.457-9.573-1.577
	c-3.909-1.312-5.224,2.1-2.216,4.709c-2.903-0.558-2.69,1.944-3.292,4.155c-1.453,5.338,4.344,1.932,6.273-0.176
	c-0.76,2.315-0.145,3.813,1.798,5.268c-1.834,0.158-3.515-0.082-5.294-0.601c-1.104-0.322-3.082-1.757-4.036-0.413
	c0.269-2.333,0.758-6.838-0.2-8.978c-0.411-0.918-2.099-1.266-2.869-1.626c-1.657-0.777-3.243-1.748-4.615-2.966
	c-1.181-1.046-1.924-2.004-2.709-3.44c-1.409-2.579-2.518-0.604-3.465,0.986c-1.889,3.171-5.087,5.39-8.409,6.855
	c0.923-3.133,1.6-6.478,1.921-9.777c0.446-4.581-4.839,2.336-5.606,3.049c-2.297,2.143-4.651,4.095-7.479,5.513
	c0.732-4.246,0.289-9.646,3.127-13.226c1.088-1.373,3.252-3.847-0.225-3.465C21.187,39.285,18.498,40.076,16.188,41.465z
	 M59.248,54.549c2.195,0.805,3.731,0.522,2.863,3.189C61.303,57.251,58.585,55.631,59.248,54.549z M60.7,60.172
	c-0.842,1.021-1.656,1.372-2.846,1.945c0.115-0.486,0.211-1.416,0.406-2.385C59.068,59.903,59.887,60.027,60.7,60.172z"/>
</svg>
