<?xml version="1.0" encoding="utf-8"?>
<!-- Generator: Adobe Illustrator 16.0.0, SVG Export Plug-In . SVG Version: 6.00 Build 0)  -->
<!DOCTYPE svg PUBLIC "-//W3C//DTD SVG 1.1//EN" "http://www.w3.org/Graphics/SVG/1.1/DTD/svg11.dtd">
<svg version="1.1" id="Layer_1" xmlns="http://www.w3.org/2000/svg" xmlns:xlink="http://www.w3.org/1999/xlink" x="0px" y="0px"
	 width="90px" height="90px" viewBox="0 0 90 90" enable-background="new 0 0 90 90" xml:space="preserve">
<path fill="#080608" d="M74.914,21.556c-0.103-1.272-0.901-1.997-2.203-1.997c-0.882,0-0.962,0.049-3.076,1.923
	c-1.239,1.098-3.482,3.084-4.99,4.417c-0.472,0.418-1.352,1.199-1.957,1.736s-1.788,1.585-2.631,2.329s-2.16,1.91-2.927,2.592
	c-0.768,0.682-1.55,1.375-1.738,1.54c-0.189,0.166-1.21,1.07-2.27,2.01c-2.153,1.911-2.04,1.838-2.146,1.352
	c-0.043-0.196-0.553-2.334-1.133-4.751c-0.58-2.417-1.228-5.122-1.438-6.01c-0.459-1.939-0.534-2.157-0.88-2.561
	c-0.683-0.798-2.192-0.92-3.073-0.248c-0.534,0.407-0.538,0.42-2.243,7.295c-0.888,3.578-1.639,6.547-1.668,6.599
	c-0.037,0.064-0.255-0.086-0.698-0.481c-0.698-0.623-2.18-1.948-5.178-4.632c-1.053-0.943-2.203-1.971-2.554-2.285
	c-0.351-0.313-0.791-0.708-0.977-0.877c-0.186-0.17-0.693-0.624-1.127-1.01c-1.191-1.06-6.836-6.109-8.334-7.456
	c-1.708-1.536-2.353-1.804-3.47-1.444c-0.776,0.25-1.466,1.167-1.547,2.057c-0.055,0.603,0.013,0.839,0.918,3.201
	c0.427,1.116,1.662,4.344,2.744,7.174c2.332,6.101,4.019,10.506,4.09,10.68c0.042,0.103-0.024,0.14-0.386,0.213
	c-6.071,1.233-10.396,6.473-9.526,11.54c0.755,4.39,5.04,7.65,8.776,6.677c0.238-0.062,0.443-0.113,0.455-0.113
	c0.013,0,0.044,0.347,0.071,0.77c0.853,13.551,18.276,21.391,32.766,14.743c9.772-4.483,13.642-14.996,8.602-23.37l-0.376-0.625
	v-1.812v-1.812l0.48-1.253c0.264-0.689,0.804-2.115,1.2-3.169c0.395-1.054,0.987-2.625,1.314-3.493
	c0.328-0.868,1.086-2.879,1.687-4.47c0.6-1.59,1.366-3.619,1.703-4.507c0.948-2.502,2.765-7.313,3.09-8.181
	c0.16-0.43,0.323-0.818,0.36-0.864C74.79,22.783,74.949,21.998,74.914,21.556z M61.134,48.063l-0.031,2.28
	c-0.021,1.503,0.003,2.428,0.081,3.09c0.125,1.053,0.114,2.652,0.06,3.247c-0.299,0.323-0.986,1.03-1.905,1.936
	c-1.143,1.127-4.426,4.379-7.168,7.102l-0.784,0.778c-0.563,0.559-1.079,1.07-1.549,1.538l0.126-0.242
	c0.974-1.858,2.055-3.919,2.403-4.58c0.349-0.662,1.068-2.033,1.597-3.047c0.845-1.617,2.676-5.11,6.124-11.68
	c1.274-2.428,1.725-3.288,2.517-4.812c0.212-0.408,0.488-0.936,0.694-1.328L61.134,48.063z M53.105,68.229l0.784-0.778
	c2.741-2.721,6.021-5.97,7.163-7.096c1.978-1.95,2.278-2.343,2.368-2.49c0.075,0.249,0.139,0.491,0.189,0.72
	c0.353,1.613,0.181,4.801-0.328,6.089c-0.116,0.293-0.289,0.738-0.386,0.99c-1.501,3.925-6.75,7.996-11.7,9.075
	c-2.133,0.465-2.646,0.558-3.428,0.622c-0.599,0.049-1.314,0.074-2.071,0.074c-1.75,0-3.549-0.139-4.374-0.339
	c-0.349-0.084-1.041-0.242-1.543-0.352c-0.751-0.164-0.969-0.229-2.639-0.86c-4.241-1.604-8.154-5.307-9.305-8.803
	c-0.098-0.296-0.249-0.722-0.337-0.93c-0.505-1.178-0.487-5.164,0.028-6.365c0.043-0.101,0.122-0.284,0.172-0.511l0.002,0.281
	l0.396,0.556c0.125,0.175,0.341,0.427,0.564,0.6c0.174,0.157,1.045,0.998,2.322,2.262c3.49,3.453,6.22,6.131,11.684,11.466
	c2.116,2.065,2.337,2.281,3.085,2.281c0.023,0,0.047,0.001,0.069,0.001h0c0.668,0,1.058-0.373,1.91-1.188
	C48.57,72.73,50.086,71.226,53.105,68.229z M32.7,59.236c-1.985-1.965-2.406-2.345-2.531-2.446
	c-0.009-0.009-0.021-0.022-0.034-0.036l-0.034-4c-0.04-4.535-0.04-4.622-0.287-5.246c-0.084-0.215-0.293-0.777-0.456-1.227
	c-0.013-0.037-0.314-0.87-0.475-1.199c-0.031-0.082-0.105-0.332-0.16-0.597c-0.109-0.532-0.309-1.127-1.328-3.8
	c1.557,2.966,2.841,5.406,3.413,6.489c0.403,0.764,1.433,2.723,2.288,4.354c0.856,1.633,1.903,3.627,2.328,4.434
	c0.423,0.805,1.159,2.207,1.634,3.115c1.274,2.436,3.182,6.068,4.342,8.268c0.143,0.271,0.306,0.581,0.479,0.91
	C37.992,64.457,35.611,62.115,32.7,59.236z M27.543,48.405c0.074,0.187,0.085,0.832,0.116,4.37l0.032,3.675
	c-0.037-0.131-0.095-0.264-0.181-0.394c-0.26-0.395-0.69-0.621-1.18-0.621c-0.51,0-1.225,0.204-2.991,1.687
	c-0.535,0.449-1.102,0.677-1.684,0.677c-0.854,0-1.757-0.482-2.61-1.395c-1.33-1.421-1.712-3.177-1.077-4.945
	c1.012-2.82,4.313-5.056,8.216-5.563l0.155-0.02c0.076-0.01,0.151-0.02,0.225-0.029c0.041,0.117,0.084,0.228,0.131,0.316
	c0.039,0.08,0.194,0.464,0.368,0.945C27.233,47.585,27.449,48.167,27.543,48.405z M21.971,24.33c0.512,0.455,1.168,1.047,1.46,1.317
	c0.291,0.27,0.799,0.726,1.13,1.014c0.331,0.288,1.023,0.914,1.54,1.393c0.517,0.478,1.33,1.205,1.807,1.615
	c0.477,0.411,1.542,1.354,2.369,2.098c0.826,0.744,1.906,1.713,2.4,2.153c0.494,0.44,1.49,1.333,2.213,1.983
	c0.723,0.65,2.042,1.832,2.93,2.625c0.888,0.792,2.008,1.798,2.489,2.234c1.21,1.098,1.365,1.111,1.601,0.145
	c0.067-0.276,0.187-0.704,0.264-0.952c0.078-0.248,0.214-0.8,0.302-1.226c0.088-0.427,0.259-1.12,0.379-1.54
	c0.12-0.421,0.305-1.181,0.412-1.688s0.261-1.14,0.342-1.405c0.082-0.265,0.284-1.066,0.449-1.781s0.35-1.435,0.412-1.6
	c0.062-0.166,0.197-0.721,0.3-1.235c0.171-0.851,0.729-2.929,0.83-3.092c0.128-0.207,0.333-0.054,0.438,0.327
	c0.19,0.697,0.785,3.234,0.871,3.72c0.046,0.259,0.153,0.682,0.236,0.939c0.083,0.257,0.248,0.924,0.365,1.482
	c0.117,0.558,0.315,1.403,0.44,1.878c0.125,0.475,0.283,1.151,0.352,1.502c0.068,0.352,0.205,0.909,0.304,1.239
	c0.098,0.331,0.299,1.159,0.444,1.84c0.62,2.901,0.477,2.892,3.376,0.225c0.792-0.729,3.485-3.11,4.235-3.745
	c0.36-0.305,1.111-0.968,1.669-1.474c1.191-1.08,2.704-2.42,3.254-2.882c0.214-0.18,0.71-0.621,1.103-0.98
	c0.393-0.359,1.009-0.898,1.37-1.197s1.003-0.869,1.427-1.266c0.425-0.397,0.989-0.911,1.255-1.143
	c0.266-0.231,0.843-0.742,1.283-1.135c0.434-0.387,1.13-1,1.561-1.373c-0.222,0.469-0.494,1.056-0.775,1.662
	c-0.481,1.036-1.027,2.21-1.168,2.475c-0.281,0.526-0.649,1.242-0.778,1.532c-0.075,0.171-0.177,0.354-0.202,0.395
	c-0.183,0.259-0.757,1.367-0.87,1.587c-0.35,0.68-1.017,1.961-1.48,2.848c-0.465,0.889-1.586,3.036-2.491,4.772
	c-0.975,1.869-1.695,3.245-1.756,3.356c-0.083,0.15-0.333,0.628-0.528,1.003c-0.215,0.414-1.196,2.282-2.187,4.163
	c-2.361,4.482-4.264,8.113-4.967,9.476c-0.33,0.64-0.654,1.254-0.752,1.428c-0.122,0.218-0.368,0.678-0.561,1.047
	c-1.121,2.155-1.522,2.923-2.531,4.84c-0.627,1.191-1.666,3.182-2.316,4.44c-0.113,0.221-0.219,0.426-0.316,0.615
	c-0.031,0.061-0.062,0.122-0.094,0.183c-0.38-0.73-0.851-1.625-1.116-2.119c-0.292-0.543-0.467-0.884-0.496-0.945
	c0.007,0.015,0.019,0.042,0.032,0.078c-0.093-0.239-0.311-0.648-0.818-1.603c-1.029-1.938-4.95-9.383-5.521-10.482
	c-0.26-0.502-1.314-2.51-2.351-4.477c-1.004-1.907-2.095-3.986-2.382-4.538c-0.292-0.562-0.628-1.199-0.767-1.451
	c-0.13-0.238-0.495-0.932-0.796-1.515c-0.311-0.601-0.886-1.703-1.279-2.449c-0.391-0.744-1.082-2.061-1.535-2.928
	c-0.456-0.871-0.992-1.89-1.192-2.264c-0.391-0.729-0.643-1.208-1.419-2.694c-0.788-1.507-1.12-2.137-1.422-2.696
	c-0.144-0.266-0.594-1.132-0.985-1.893c-1.029-2.005-1.72-3.328-2.213-4.237C21.689,24.079,21.833,24.207,21.971,24.33z"/>
</svg>
