<?xml version="1.0" encoding="utf-8"?>
<!-- Generator: Adobe Illustrator 16.0.0, SVG Export Plug-In . SVG Version: 6.00 Build 0)  -->
<!DOCTYPE svg PUBLIC "-//W3C//DTD SVG 1.1//EN" "http://www.w3.org/Graphics/SVG/1.1/DTD/svg11.dtd">
<svg version="1.1" id="Layer_1" xmlns="http://www.w3.org/2000/svg" xmlns:xlink="http://www.w3.org/1999/xlink" x="0px" y="0px"
	 width="90px" height="90px" viewBox="0 0 90 90" enable-background="new 0 0 90 90" xml:space="preserve">
<path d="M73.811,66.608c0.087,0.077,0.121,0.107-0.001-0.001c-2.586-2.293-5.323-4.869-6.723-8.11
	c-1.688-3.906,0.016-7.846,1.013-11.644c1.078-4.103,1.692-8.409,0.847-12.615c-0.378-1.879-1.069-3.65-1.938-5.354
	c-1.103-2.16-0.733-4.029-1.007-6.404c-0.418-3.633-3.213-6.173-6.157-8.153c-2.85-1.914-6.423-4.699-9.978-4.95
	c-3.069-0.216-3.065,4.261-4.017,6.304c-0.354,0.759-3.643,0.675-4.35,0.796c-1.123,0.192-4.348,1.47-5.237,0.689
	c-2.783-2.443-6.126,0.93-7.969,3.087c-1.056,1.238-1.934,2.77-2.649,4.225c-0.396,0.803-0.39,1.583-0.666,2.403
	c-0.29,0.866-0.924,1.468-1.098,2.39c-0.328,1.686-1.156,3.239-1.44,4.963c-0.31,1.876-0.313,3.825-0.231,5.72
	c0.184,4.26,1.322,8.375,2.066,12.555c0.643,3.613-0.572,6.693-2.888,9.433c-1.058,1.251-7.68,5.651-4.67,7.651
	c1.48,0.985,3.596,0.046,5.119-0.373c1.384-0.38,2.866-0.458,4.288-0.654c1.641-0.227,3.828-1.146,5.088,0.06
	c1.496,1.432,3.168,2.677,5.1,3.455c6.507,2.622,16.698,2.43,22.205-2.383c1.179-1.03,1.64-2.017,3.373-1.552
	c1.849,0.495,3.84,0.551,5.724,0.911c1.784,0.34,3.664,1.225,5.472,0.736C74.302,69.463,74.739,67.436,73.811,66.608z
	 M26.327,47.362c0.308,0.486,2.834,3.804,3.1,1.479c0.205-1.841-0.581-4.009-0.692-5.873c-0.054-0.905,0.273-3.892-0.825-4.309
	c-0.918-0.349-2.257,0.915-2.643,1.639c-0.283-3.971,0.278-8.126,2.296-11.615c0.878-1.508,0.921-3.212,1.873-4.781
	c0.993-1.637,2.333-3.044,3.916-4.119c1.338-0.908,1.772,1.599,3.594,1.053c2.114-0.634,4.064-1.34,6.294-1.546
	c1.217-0.112,4.051,0.461,4.797-0.745c1.09-1.764,1.436-4.17,2.093-6.121c2.381,1.079,4.736,2.242,6.917,3.691
	c2.07,1.375,5.588,3.692,5.77,6.326c0.109,1.585,0.19,3.171,0.296,4.756c0.09,1.343,0.873,2.267,1.428,3.445
	c1.431,3.04,1.696,6.223,1.571,9.539c-0.354-0.621-1.21-1.559-2.02-1.442c-1.199,0.173-0.979,2.718-0.991,3.51
	c-0.022,1.503-0.24,2.992-0.354,4.489c-0.117,1.543,0.665,3.083,1.935,1.21c-0.92,3.177-1.78,5.846-0.715,9.141
	c1.026,3.173,3.028,5.943,5.219,8.415c-2.764-1.668-5.908-3.814-7.285-6.842c-0.816-1.797-1.704-1.169-2.52,0.132
	c-1.198,1.916-2.451,3.82-4.052,5.431c0.312-0.541,1.079-3.069,1.479-4.424c1.482-5.488,1.363-12.079,0.892-17.788
	c-0.469-5.767-1.124-11.611-3.113-17.085c-0.43-1.183-2.87-8.422-4.679-6.864c-0.916,0.791-1.182,2.779-1.561,3.858
	c-0.486,1.386-0.993,2.772-1.379,4.191c-0.869,3.202-1.947,6.521-2.098,9.857c-2.515-3.173-5.074-6.341-7.578-9.496
	c-2.211-2.788-3.428,4.096-3.716,5.209c-2.05,7.93-2.548,17.088-1.376,25.194c-1.974-2.4-2.088-0.807-3.059,1.501
	c-1.096,2.598-3.496,4.374-5.752,5.912C27.956,59.109,27.969,53.797,26.327,47.362z M26.259,41.814
	c0.085-0.625,0.318-1.08,0.818-1.487c0.167,2.164,0.35,4.328,0.618,6.481C26.741,45.373,25.982,43.571,26.259,41.814z
	 M64.963,44.266c0,0.002-0.004,0.019-0.016,0.07c-0.161,0.473-0.364,0.928-0.608,1.364c0.153-1.685,0.243-3.374,0.343-5.063
	C65.577,41.792,65.236,43.038,64.963,44.266z M42.657,42.531c-1.002-1.527-4.16-1.975-5.779-2.463
	c-1.304-0.393-2.929-0.144-2.705-1.682c0.181-1.24,0.373-2.479,0.648-3.703c1.937,0.415,3.796,1.095,5.622,1.848
	c1.513,0.624,2.969,1.898,4.491,2.365c1.57,0.481,3.419-1.801,4.637-2.543c1.664-1.013,3.445-1.854,5.331-2.361
	c0.12,0.919,0.251,1.837,0.377,2.755c0.186,1.347,0.92,2.588-0.561,2.99c-1.872,0.508-4.088,0.981-5.794,1.927
	c-1.11,0.616-2.192,3.227,0.074,3.032c2.258-0.194,4.721-1.796,6.859-2.523c0.285,4.213,0.441,8.746-0.229,12.925
	c-0.541,3.374-5.288,5.801-7.535,8.013c-2.071,2.034-3.687,1.418-5.695-0.339c-1.944-1.699-3.922-3.265-5.672-5.181
	c-1.942-2.126-2.887-3.512-2.982-6.398c-0.103-3.093-0.159-6.203,0.046-9.293c2.072,0.65,4.174,1.356,6.143,2.281
	C41.148,44.751,44.034,44.63,42.657,42.531z M35.374,30.51c0.285-0.996,0.61-1.979,0.941-2.96c1.825,2.56,4.002,4.973,5.972,7.484
	c-1.818-0.83-4.644-1.753-6.441-2.23C34.318,32.397,35.008,31.786,35.374,30.51z M46.314,36.086c0.29-5.605,2.54-11.063,4.3-16.329
	c1.263,2.077,3.354,8.125,3.902,10.309c0.472,1.977,0.408,1.677-1.439,2.287C50.621,33.163,48.332,34.477,46.314,36.086z
	 M40.61,66.695c-0.262,1.041-1.22,3.382-0.941,4.409c-0.8-0.146-2.919-0.839-4.778-2.033c-1.079-0.693-2.496-2.963-3.719-3.11
	c-3.29-0.395-7.065,0.877-10.257,1.543c3.938-2.2,8.649-5.201,10.046-9.849c0.645,0.709,1.069,2.286,2.242,2.286
	c1.376,0,0.598-2.165,0.49-2.881c1.804,2.241,3.857,4.522,6.197,6.217C41.396,64.369,41.038,65.001,40.61,66.695z M41.72,70.284
	c0.062-1.221,0.767-3.552,0.945-4.699c2.188,1.22,3.426,1.24,5.541-0.026c0.261,1.586,0.592,3.161,0.985,4.72
	C46.723,70.66,44.189,70.646,41.72,70.284z M59.075,66.169c-2.433,2.17-4.582,4.293-7.901,4.927
	c0.267-0.819-0.479-2.196-0.643-2.991c-0.267-1.292-0.497-2.591-0.71-3.892c1.93-1.691,3.975-3.265,5.687-5.188
	c-0.442,1.858-1.039,3.687-1.869,5.409c-0.209,0.433-2.033,3.737-0.01,2.997c3.055-1.113,5.43-5.344,7.029-7.953
	c1.884,3.709,5.607,6.028,9.084,8.058C65.881,67.052,60.854,64.583,59.075,66.169z"/>
</svg>
