<?xml version="1.0" encoding="utf-8"?>
<!-- Generator: Adobe Illustrator 16.0.0, SVG Export Plug-In . SVG Version: 6.00 Build 0)  -->
<!DOCTYPE svg PUBLIC "-//W3C//DTD SVG 1.1//EN" "http://www.w3.org/Graphics/SVG/1.1/DTD/svg11.dtd">
<svg version="1.1" id="Layer_1" xmlns="http://www.w3.org/2000/svg" xmlns:xlink="http://www.w3.org/1999/xlink" x="0px" y="0px"
	 width="90px" height="90px" viewBox="0 0 90 90" enable-background="new 0 0 90 90" xml:space="preserve">
<path d="M67.363,29.418c-3.355-1.898-7.204-2.763-11.045-2.703c-1.222,0.019-4.553,0.441-5.678,0.629
	c-0.301-1.318-1.103-4.145-1.699-5.114c-1.517-2.463-3.918-4.585-6.626-5.634c-1.307-0.507-2.742-0.749-4.134-0.489
	c-1.431,0.267-2.478,1.436-3.728,1.612c-3.246-0.564-6.544,0.707-8.782,3.077c-1.264,1.34-2.182,2.99-2.764,4.731
	c-0.672,2.01-0.413,2.347-2.424,3.349c-3.009,1.5-4.309,4.368-3.882,7.636c0.085,0.649,0.693,2.043,0.851,2.738
	c-0.391,0.063-0.613,0.11-0.902,0.201c-1.652,0.52-3.188,1.374-4.366,2.661c-2.301,2.512-2.681,6.162-1.602,9.312
	c0.552,1.611,1.487,3.074,2.671,4.295c0.513,0.529,0.574,0.672,1.012,1.047c-0.234,0.688-0.666,1.769-0.933,2.859
	c-0.708,2.887,0.098,5.664,2.542,7.417c1.395,1,2.942,1.826,4.613,2.169c1.745,0.356,3.589-0.057,5.157,0.88
	c6.633,3.96,15.622,4.507,22.674,1.22c1.413-0.659,2.71-1.5,3.903-2.502c0.417-0.35,1.621,0.084,2.126,0.148
	c3.389,0.438,6.862-0.017,10.046-1.249C80.721,61.39,82.758,38.128,67.363,29.418z M48.234,63.75
	c-3.646-1.922-6.244-5.123-8.188-8.726c-1.897-3.517-2.18-6.962-5.955-9.072c-5.508-3.078-13.47-1.934-16.112,4.347
	c0.248-3.021,1.57-5.815,3.572-8.066c0.989-1.112,2.303-2.127,3.063-3.418c0.865-1.469,0.538-3.348,0.513-4.962
	c-0.085-5.414,1.525-14.165,8.975-12.758c1.021,0.193,2.218,0.411,2.934-0.561c0.679-0.991,1.768-1.365,2.929-1.148
	c2.129,0.397,4.142,2.089,5.458,3.74c0.825,1.035,1.442,2.275,1.851,3.53c0.362,1.113,0.138,3.271,1.062,4.088
	c0.728,0.643,1.933,0.13,2.723-0.051c1.567-0.357,3.173-0.556,4.78-0.576c12.22-0.153,21.662,11.317,17.917,23.305
	c-1.819,5.822-6.59,10.258-12.443,11.878C55.972,66.777,52.956,66.236,48.234,63.75z M19.828,50.391c3-5.629,12.885-5.887,16.2-0.4
	c0.792,1.311,1.039,2.948,1.666,4.347c0.776,1.732,1.772,3.364,2.943,4.858c2.354,3.004,5.392,5.441,8.758,7.225
	c-5.838,4.505-13.966,4.108-20.574,1.531C22.938,65.656,16.719,56.094,19.828,50.391z M23.438,30.125
	c-0.173,2.117-0.011,4.403-0.047,6.522c-0.03,1.815-1.887,2.821-2.953,4.024c-0.825-2.074-2.133-4.132-1.612-6.462
	C19.312,32.033,21.431,30.66,23.438,30.125z M12.354,46.635c0.703-3.726,4.417-4.884,7.681-5.495
	c-3.383,4.054-4.779,9.566-3.248,14.676C13.539,53.276,11.576,50.781,12.354,46.635z M17.102,56.738
	c1.055,4.449,2.827,7.855,6.68,10.572C17.732,67.136,12.737,62.814,17.102,56.738z"/>
</svg>
