<?xml version="1.0" encoding="utf-8"?>
<!-- Generator: Adobe Illustrator 16.0.0, SVG Export Plug-In . SVG Version: 6.00 Build 0)  -->
<!DOCTYPE svg PUBLIC "-//W3C//DTD SVG 1.1//EN" "http://www.w3.org/Graphics/SVG/1.1/DTD/svg11.dtd">
<svg version="1.1" id="Layer_1" xmlns="http://www.w3.org/2000/svg" xmlns:xlink="http://www.w3.org/1999/xlink" x="0px" y="0px"
	 width="90px" height="90px" viewBox="0 0 90 90" enable-background="new 0 0 90 90" xml:space="preserve">
<g id="svgg_15_">
	<path id="path0_5_" d="M41.736,15.099c-5.687,0.405-11.915,3.293-16.094,7.463c-4.48,4.473-6.414,9.763-5.714,15.636
		c0.174,1.453,0.179,1.402-0.154,1.522c-3.533,1.277-4.964,7.062-2.642,10.681c0.998,1.554,2.774,2.816,4.929,3.499l0.818,0.259
		l0.235,0.52c1.894,4.176,5.634,7.766,10.302,9.886c0.462,0.21,0.866,0.406,0.898,0.436s-0.106,0.301-0.31,0.604
		c-1.49,2.221-1.67,2.593-1.667,3.446c0.005,1.804,0.979,2.332,5.751,3.121c3.243,0.536,10.975,0.597,14.164,0.112
		c5.005-0.762,6.219-1.359,6.345-3.121c0.055-0.771-0.104-1.153-1.158-2.774c-0.508-0.779-0.938-1.458-0.958-1.508
		c-0.021-0.051,0.362-0.281,0.889-0.535c4.273-2.054,7.55-5.184,9.565-9.134c0.598-1.17,0.471-1.048,1.414-1.358
		c3.691-1.208,5.775-3.744,5.921-7.202c0.142-3.383-1.477-6.114-4.207-7.096l-0.508-0.183l0.049-0.561
		c0.607-6.944-1.011-11.539-5.705-16.201C58.214,16.964,50.807,14.454,41.736,15.099 M40.184,30.805
		c0.09,0.063,0.58,0.685,1.091,1.381c0.509,0.697,1.209,1.632,1.554,2.078c0.346,0.446,0.862,1.128,1.148,1.517
		c0.667,0.907,0.951,1.229,1.081,1.229c0.106,0,0.864-0.926,2.389-2.92c3.083-4.034,2.943-3.945,3.67-2.32
		c0.404,0.907,0.99,2.19,1.479,3.24c0.154,0.33,0.439,0.96,0.635,1.4c0.415,0.936,0.551,1.16,0.7,1.16
		c0.128,0,0.995-1.208,3.041-4.24c1.145-1.695,1.293-1.671,2.04,0.328c0.237,0.634,0.659,1.755,0.938,2.491s0.507,1.363,0.507,1.393
		c0,0.055,0.661,1.851,0.974,2.648c0.294,0.748,0.333,0.694,1.343-1.84c0.704-1.769,0.868-2.06,1.16-2.06
		c0.27,0,0.357,0.154,0.437,0.769c0.039,0.303,0.147,1.073,0.24,1.711c0.094,0.638,0.369,2.582,0.613,4.32
		c0.451,3.213,0.562,3.84,0.678,3.84c0.089,0,0.35-1.333,0.438-2.24c0.12-1.242,0.438-2.837,0.599-2.997
		c0.37-0.37,2.014-0.205,2.88,0.291c2.009,1.147,2.861,4.31,1.752,6.495c-0.911,1.791-2.588,2.961-4.95,3.453
		c-0.798,0.166-0.907,0.252-1.162,0.919c-1.982,5.188-7.122,9.401-13.32,10.918c-0.638,0.156-1.357,0.336-1.6,0.399
		c-2.256,0.592-8.316,0.594-10.76,0.004c-0.44-0.106-1.113-0.266-1.496-0.354c-5.986-1.392-11.399-5.75-13.315-10.72
		c-0.308-0.798-0.515-1.006-1.112-1.119c-3.879-0.727-6.177-3.558-5.51-6.787c0.434-2.104,1.811-3.51,3.6-3.677
		c1.014-0.095,1.062-0.035,1.43,1.82c0.354,1.781,0.829,3.927,0.883,3.98c0.14,0.14,0.136,0.165,0.88-5.266
		c0.802-5.85,0.783-5.76,1.19-5.76c0.235,0,0.396,0.185,0.554,0.64c0.115,0.331,0.305,0.819,1.01,2.6
		c0.59,1.491,0.572,1.486,1.02,0.28c0.138-0.374,0.42-1.13,0.627-1.68c0.206-0.55,0.411-1.123,0.455-1.272
		c0.044-0.15,0.278-0.78,0.521-1.4s0.548-1.434,0.681-1.808c0.412-1.165,0.55-1.438,0.748-1.488
		c0.438-0.109,0.258-0.326,2.792,3.368c0.694,1.012,1.33,1.911,1.413,1.998c0.21,0.219,0.282,0.125,0.792-1.038
		c0.232-0.528,0.719-1.594,1.082-2.369c0.362-0.775,0.687-1.495,0.719-1.6C39.108,31.333,39.787,30.527,40.184,30.805
		 M38.908,64.726c0.346,0.063,0.826,0.139,1.068,0.168s0.764,0.142,1.16,0.25c1.712,0.465,7.068,0.434,8.88-0.051
		c0.308-0.083,0.794-0.174,1.08-0.204c0.286-0.029,0.765-0.104,1.064-0.166c1.282-0.264,1.29-0.257,3.011,2.614
		c0.174,0.29,0.366,0.569,0.428,0.62c0.189,0.157,0.4,0.71,0.349,0.915c-0.062,0.246-0.304,0.352-1.133,0.497
		c-0.37,0.064-0.988,0.205-1.376,0.313c-2.886,0.803-13.025,0.827-15.738,0.037c-0.306-0.089-0.966-0.247-1.468-0.351
		c-0.991-0.206-1.297-0.349-1.297-0.608c0-0.175,0.622-1.246,0.923-1.589c0.097-0.11,0.278-0.38,0.403-0.6
		C37.41,64.556,37.527,64.474,38.908,64.726"/>
	<path id="path3_1_" d="M45.03,48.197c-0.08,0.081-0.463,0.738-0.852,1.46c-0.388,0.723-0.812,1.512-0.943,1.754
		c-1.315,2.433-1.441,2.282,1.894,2.276c3.445-0.005,3.331,0.065,2.512-1.542C45.704,48.347,45.376,47.852,45.03,48.197"/>
</g>
</svg>
