<?xml version="1.0" encoding="utf-8"?>
<!-- Generator: Adobe Illustrator 16.0.0, SVG Export Plug-In . SVG Version: 6.00 Build 0)  -->
<!DOCTYPE svg PUBLIC "-//W3C//DTD SVG 1.1//EN" "http://www.w3.org/Graphics/SVG/1.1/DTD/svg11.dtd">
<svg version="1.1" id="Layer_1" xmlns="http://www.w3.org/2000/svg" xmlns:xlink="http://www.w3.org/1999/xlink" x="0px" y="0px"
	 width="90px" height="90px" viewBox="0 0 90 90" enable-background="new 0 0 90 90" xml:space="preserve">
<g>
	<path d="M71.211,39.478c-0.708-0.873-0.261-3.067-0.375-4.103c-0.214-1.955-0.646-3.886-1.289-5.744
		c-1.29-3.727-3.422-7.146-6.215-9.932c-5.179-5.162-12.36-7.922-19.655-7.685C36.266,12.256,29.4,15.516,24.6,21.176
		c-2.182,2.573-3.893,5.548-4.993,8.738c-0.606,1.757-1.026,3.579-1.237,5.426c-0.201,1.752,0.175,3.339-0.825,4.83
		c-4.114,6.133-3.377,16.022,3.19,20.25c2.488,1.602,2.723,4.802,3.831,7.423c0.628,1.487,1.366,3.002,2.489,4.185
		c1.462,1.54,3.212-0.15,4.495,1.168c4.893,5.031,12.034,8.379,18.938,5.395c1.674-0.724,3.189-1.772,4.59-2.93
		c0.651-0.537,2.954-3.217,3.655-2.986c2.786,0.916,4.347-1.536,5.377-3.757c0.45-0.971,0.883-1.966,1.26-2.968
		c0.456-1.212,0.808-4.002,1.862-4.813c2.299-1.769,4.218-3.021,5.54-5.742C75.203,50.389,74.766,43.853,71.211,39.478z
		 M19.953,55.415c-2.731-3.271-1.951-9.383,0.116-12.725c0.097,5.079,0.947,10.31,2.945,15.004
		C21.868,57.045,20.813,56.429,19.953,55.415z M57.744,63.531c-0.085,1.636,0.315,3.514-0.449,5.041
		c-0.78,1.559-2.706,3.018-4.014,4.125c-3.127,2.646-6.959,4.29-11.092,3.281c-3.622-0.885-7.732-3.983-9.854-7.044
		c-0.96-1.385-0.688-3.461-0.721-5.048c-0.042-2.006-0.78-3.615-1.371-5.49c1.326,1.283,2.642,2.577,3.976,3.853
		c0.935,0.893,2.036,2.679,3.531,2.537c2.506-0.236,4.312-3.22,6.865-3.144c2.268,0.067,4.928,3.986,7.202,3.089
		c1.133-0.447,1.841-1.598,2.692-2.402c1.575-1.488,3.122-3.005,4.682-4.509C58.631,59.703,57.847,61.544,57.744,63.531z
		 M32.175,53.16c2.757,1.561,5.788,2.465,8.863,3.158c-0.787,0.988-1.643,2.038-2.587,2.869
		C36.267,57.275,34.258,55.178,32.175,53.16z M47.783,56.459c3.237-0.654,6.463-1.682,9.34-3.326
		c-1.721,1.696-3.456,3.381-5.216,5.037c-0.748,0.704-0.834,1.256-1.685,0.516C49.391,57.963,48.535,57.267,47.783,56.459z
		 M61.396,66.795c1.361-4.611,2.622-9.264,3.413-14.012c0.371-2.228,1.304-5.592,0.607-7.847c-0.847-2.745-5.413,3.266-6.245,4.017
		c-3.211,2.896-7.266,4.568-11.543,5.051c-7.837,0.882-16.586-1.736-21.091-8.551c-0.741-1.121-2.535-2.352-2.827-0.128
		c-0.253,1.927,0.24,4.154,0.502,6.057c0.72,5.223,2.158,10.27,3.621,15.322c-1.339-2.828-2.218-5.664-3.188-8.622
		c-0.708-2.159-1.813-4.275-2.213-6.525c-0.419-2.352-0.747-4.756-0.891-7.139c-0.063-1.041-0.067-2.085-0.132-3.155
		c-0.082-1.345-0.05-1.628-0.073-2.741c-0.235-11.37,9.844-22.21,20.948-23.264c11.334-1.075,22.859,6.772,25.01,18.196
		C69.347,44.372,66.597,56.965,61.396,66.795z M66.264,57.67c1.963-4.816,2.734-9.8,2.936-14.972
		C72.1,47.345,71.248,54.763,66.264,57.67z"/>
	<path d="M62.357,26.07c-1.842,0-4.324,1.795-5.964,2.562c-1.23,0.575-4.169,1.256-4.134,2.908c0.072,3.373-0.25,6.608-3.89,7.915
		c1.001-2.373,1.787-4.521-1.568-3.159c-2.181,0.887-4.625,0.636-5.81,3.056c-0.347,0.708-2.285-0.65-2.622-0.969
		c-1.023-0.971-1.716-2.379-1.866-3.781c-0.162-1.521,0.749-3.453-0.837-4.471c-1.325-0.85-2.962-1.384-4.385-2.048
		c-1.938-0.903-5.512-3.518-6.1-0.064c-0.559,3.284-0.788,6.935,0.025,10.191c1.845,7.389,8.907,9.071,15.525,10.009
		c-0.688,0.907-2.547,1.708-2.417,3.058c0.262,2.715,3.216,1.095,4.216,0.126c-0.11,2.765,4.217,2.62,3.78,0.022
		c1.102,1.061,3.053,2.292,4.099,0.261c0.694-1.348-1.701-2.575-2.312-3.459c4.76-0.728,10.211-1.547,13.388-5.585
		c1.798-2.286,2.49-5.191,2.61-8.05C64.152,33.267,64.553,26.07,62.357,26.07z M60.247,41.951c-2.365,2.858-6.643,4.371-10.27,4.602
		c-0.96,0.062-2.676-0.089-3.289,0.855c-0.929,1.431,1.578,2.921,2.333,3.74c-1.376,0.967-1.976-2.15-3.628-1.768
		c-0.978,0.227-0.483,1.951-0.417,2.595c-2.506,0.19,0.22-1.926-1.533-2.59c-1.669-0.632-2.249,2.82-3.645,1.753
		c1.677-1.631,4.149-4.024,0.329-4.403c-3.281-0.325-6.738-1.079-9.524-2.922c-5.22-3.45-5.198-10.807-3.93-16.266
		c2.518,0.929,5.423,2.066,7.767,3.398c1.391,0.791,0.546,2.226,0.649,3.534c0.126,1.6,0.67,3.109,1.757,4.308
		c0.869,0.96,4.309,3.425,5.226,1.543c1.188-2.437,3.552-1.997,5.73-2.936c-0.625,1.333-1.962,4.471,1.028,3.444
		c2.46-0.846,4.197-2.781,4.682-5.339c0.24-1.266-0.435-3.729,0.764-4.446c2.358-1.409,5.307-2.504,7.868-3.493
		C63.245,32.174,63.45,38.079,60.247,41.951z"/>
</g>
</svg>
