<?xml version="1.0" encoding="utf-8"?>
<!-- Generator: Adobe Illustrator 16.0.0, SVG Export Plug-In . SVG Version: 6.00 Build 0)  -->
<!DOCTYPE svg PUBLIC "-//W3C//DTD SVG 1.1//EN" "http://www.w3.org/Graphics/SVG/1.1/DTD/svg11.dtd">
<svg version="1.1" id="Layer_1" xmlns="http://www.w3.org/2000/svg" xmlns:xlink="http://www.w3.org/1999/xlink" x="0px" y="0px"
	 width="90px" height="90px" viewBox="0 0 90 90" enable-background="new 0 0 90 90" xml:space="preserve">
<path d="M67.82,50.519c-0.987-0.8,0.035-2.2,0.266-3.229c0.368-1.64,0.447-3.34,0.288-5.011c-0.348-3.648-1.834-7.051-4.144-9.879
	c-2.006-2.457-4.543-4.401-7.251-6.026c-2.687-1.612-6.626-2.743-8.511-5.406c-1.445-2.042-0.166-4.427-0.089-6.644
	c0.107-3.073-3.253-3.846-5.709-3.018c-5.791,1.952-11.325,6.374-15.113,11.078c-4.154,5.16-7.145,11.512-8.048,18.102
	c-0.378,2.757-0.377,5.606,0.279,8.323c0.108,0.447,0.812,1.882,0.454,2.241c-0.859,0.863-1.564,1.747-1.927,2.934
	c-0.71,2.329-0.175,4.95,1.008,7.029c0.609,1.07,1.417,2.039,2.406,2.778c0.598,0.447,3.015,0.984,3.272,1.468
	c3.066,5.817,7.215,9.849,13.846,11.306c7.944,1.746,17.163-0.497,22.241-7.169c1.046-1.375,1.88-2.909,2.455-4.54
	c0.738-1.003,2.376-1.353,3.391-2.326C70.017,59.571,71.611,53.595,67.82,50.519C67.209,50.024,69.916,52.219,67.82,50.519z
	 M27.901,54.437c-0.057-3.178-0.021-5.941,1.96-8.597c2.09-2.801,5.087-4.392,8.426-5.215c3.492-0.861,7.281-0.798,10.828-0.365
	c1.519,0.186,3.284,0.355,4.702,0.971c0.834,0.362,0.917,2.842,1.286,3.661c0.658,1.458,1.629,2.767,2.792,3.861
	c1.109,1.043,2.661,1.603,3.702,2.668c1.154,1.8-0.168,4.671,0.588,6.662c0.37,0.977,1.436-2.277,1.553-2.665
	c0.306-1.011,0.421-2.372,0.992-3.283c0.622-0.993,2.462,1.455,2.638,1.931c0.634,1.717,0.041,3.681-0.879,5.174
	c-0.792,1.286-1.857,2.365-3.346,2.774c-1.348,0.371-1.338,0.75-1.831,1.939c-1.158,2.795-2.88,5.261-5.298,7.114
	c-5.128,3.93-12.584,4.563-18.608,2.553c-2.696-0.899-5.138-2.458-7.015-4.6c-0.959-1.093-1.763-2.316-2.417-3.614
	c-0.602-1.194-0.652-2.577-2.154-2.654c-2.418-0.123-4.211-2.435-4.889-4.57c-0.442-1.395-0.05-6.896,2.779-5.458
	c1.265,0.644,2.196,3.153,3.22,4.236C28.378,58.492,27.913,55.06,27.901,54.437C27.874,52.918,27.934,56.224,27.901,54.437z
	 M22.154,39.853c1.036-5.917,3.706-11.505,7.552-16.109c3.417-4.09,9.196-9.386,14.684-10.284c2.54-0.416,1.528,2.182,1.336,3.708
	c-0.28,2.226-0.028,4.408,1.57,6.098c1.942,2.052,4.753,3.087,7.172,4.431c2.62,1.456,5.162,3.131,7.208,5.345
	c1.964,2.125,3.487,4.668,4.147,7.502c0.786,3.371-0.025,6.176-0.77,9.432c-0.754-0.021-1.183,0.496-1.729,0.351
	c-0.617-0.164-1.921-1.417-2.526-1.818c-1.442-0.955-2.688-2.235-3.53-3.752c-0.716-1.291-0.688-2.685-1.243-3.987
	c-1.069-2.514-6.31-2.514-8.553-2.681c-3.231-0.241-6.652-0.187-9.808,0.63c-6.458,1.672-11.705,6.375-11.773,13.362
	c-0.535-0.769-1.337-1.32-2.272-1.446c-1.11-0.149-1.147-1.226-1.425-2.298C21.469,45.545,21.662,42.667,22.154,39.853
	C23.997,29.332,21.371,44.325,22.154,39.853z"/>
</svg>
