<?xml version="1.0" encoding="utf-8"?>
<!-- Generator: Adobe Illustrator 16.0.0, SVG Export Plug-In . SVG Version: 6.00 Build 0)  -->
<!DOCTYPE svg PUBLIC "-//W3C//DTD SVG 1.1//EN" "http://www.w3.org/Graphics/SVG/1.1/DTD/svg11.dtd">
<svg version="1.1" id="Layer_1" xmlns="http://www.w3.org/2000/svg" xmlns:xlink="http://www.w3.org/1999/xlink" x="0px" y="0px"
	 width="90px" height="90px" viewBox="0 0 90 90" enable-background="new 0 0 90 90" xml:space="preserve">
<path d="M76.224,43.827c-1.211-7.541-7.729-13.041-15.561-13.18c1.815-2.902,2.247-7.715,0.955-11.763
	c-0.336-1.051-0.578-1.811-1.41-1.811c-0.695,0-1.006,0.632-1.234,1.093c-1.739,3.527-6.406,6.761-10.403,7.208
	c-0.254,0.028-0.714,0.044-1.262,0.044c-0.929,0-1.745-0.043-2.092-0.081c-0.189-0.406-0.507-1.537-0.652-2.052
	c-1.117-3.971-0.425-6.972,2.241-9.731c0.82-0.848,1.271-1.315,0.992-1.974L47.488,11h-0.596c-0.281,0-0.588,0.1-1.214,0.338
	c-4.129,1.573-7.153,4.91-7.702,8.503c-0.328,2.145,0.256,4.089,1.653,5.581c-6.201,0.6-10.159,2.944-15.925,9.319
	c-4.791,5.296-6.519,6.144-9.606,6.144c-0.98,0-1.688,0-2.002,0.676c-0.315,0.679,0.131,1.205,0.805,2.001
	c2.304,2.721,6.775,5.035,9.952,5.194c-0.074,0.103-0.152,0.213-0.232,0.329c-1.808,2.594-3.158,4.23-4.249,5.149
	c-0.522,0.441-1.428,1.074-1.72,1.246c-0.387,0.103-0.672,0.427-0.715,0.845c-0.058,0.573,0.371,1.135,0.956,1.255
	c0.938,0.191,2.171,0.012,3.041,0.012c1.63,0,3.333,0.409,4.673-0.591c0.001,0,0.003,0,0.004,0c0.346,2,1.518,5.788,1.988,7.101
	c0.257,0.716,0.272,1.496-2.012,3.036c-1.049,0.708-1.626,1.151-1.443,1.916c0.184,0.765,0.885,0.878,2.159,1.035
	c0.974,0.119,1.93,0.193,2.841,0.193c2.59,0,4.742-0.468,6.259-1.371c0.423,0.932,1.506,3.054,2.613,3.054
	c0.118,0,0.232-0.019,0.338-0.056c0.119,0.104,0.235,0.207,0.303,0.267c3.628,3.233,7.802,5.164,11.164,5.164
	c1.158,0,2.193-0.226,3.078-0.671c2.756-1.39,6.909-5.835,9.122-9.712c0.813,1.09,2.34,3.068,2.991,3.871
	c0.74,0.913,1.047,1.291,1.595,1.291l0.497-0.013l0.269-0.388c0.328-0.475,0.144-0.965-0.192-1.856
	c-1.173-3.115-1.93-8.746-1.857-13.772c1.353,0.99,3.229,2.118,4.513,2.71c0.799,0.369,1.193,0.522,1.563,0.522
	c0.351,0,0.665-0.153,0.862-0.42c0.351-0.474,0.18-1.03,0.067-1.398c-0.192-0.626-0.354-1.706-0.579-3.851
	c-0.662-6.316-1.466-9.243-3.321-11.423c2.635,0.478,5.085,1.488,6.732,2.802c0.422,0.336,0.729,0.557,1.135,0.557l0.479-0.027
	l0.27-0.316C76.386,44.838,76.304,44.324,76.224,43.827z M26.538,46.183c0.108,0,0.342-0.093,0.723-0.265
	c0.325-0.147,0.944-0.424,1.375-0.616c1.018-0.454,1.007-0.438,0.783-1.134c-0.839-2.604,0.561-5.246,3.638-6.865
	c0.213-0.112,0.364-0.175,0.48-0.175c0.2,0,0.298,0.188,0.437,0.636c0.654,2.117,0.376,3.738-0.951,5.553
	c-0.092,0.126-0.106,0.189,0.007,0.189c0.116,0,0.364-0.066,0.799-0.2c1.212-0.374,1.209-0.371,1.146-1.068
	c-0.139-1.535,1.291-3.839,3.545-5.715c0.76-0.632,1.249-0.932,1.581-0.932c0.207,0,0.353,0.116,0.466,0.339
	c0.702,1.385,0.578,3.258-0.309,4.656c-0.416,0.657-0.541,0.854-0.302,0.854c0.102,0,0.271-0.037,0.512-0.088
	c2.084-0.452,1.938-0.367,1.866-1.086c-0.161-1.604,1.716-3.898,4.12-5.036c0.284-0.135,0.488-0.21,0.64-0.21
	c0.273,0,0.377,0.242,0.479,0.815c0.251,1.416-0.559,2.914-2.221,4.107c-0.579,0.416-0.596,0.457-0.218,0.527
	c0.092,0.017,0.174,0.027,0.262,0.027c0.185,0,0.395-0.042,0.778-0.144c0.176-0.046,0.521-0.085,0.768-0.086
	c0.542-0.002,0.7-0.141,0.802-0.699c0.314-1.721,2.063-3.172,3.831-3.181l0.52-0.002l0.024,0.448
	c0.048,0.923-0.423,1.728-1.433,2.446c-0.779,0.554-0.787,0.589-0.144,0.72c1.656,0.338,3.201,1.545,2.532,1.979
	c-0.293,0.19-0.711,0.279-1.188,0.279c-1.139,0-2.611-0.502-3.515-1.308c-0.457-0.408-0.699-0.563-1.064-0.563
	c-0.163,0-0.35,0.031-0.591,0.084c-0.943,0.207-0.94,0.259,0.04,0.681c2.325,1,3.668,2.955,2.029,2.955
	c-1.978,0-4.455-0.911-5.592-2.055c-0.32-0.322-0.65-0.585-0.735-0.585c-0.483,0-2.508,0.607-2.464,0.739
	c0.017,0.049,0.352,0.192,0.745,0.318c1.666,0.532,4.275,2.237,4.275,2.795c0,0.197-0.57,0.457-1.52,0.692
	c-0.864,0.213-1.689,0.32-2.476,0.32c-2.034,0-3.807-0.713-5.307-2.138c-0.384-0.365-0.542-0.53-0.814-0.53
	c-0.229,0-0.541,0.116-1.136,0.327c-1.636,0.581-1.683,0.656-0.546,0.87c2.086,0.393,3.699,1.431,4.774,3.077
	c0.782,1.196,0.815,1.586-0.176,1.586c-0.225,0-0.503-0.02-0.838-0.055c-3.101-0.329-6.313-1.586-7.597-2.972
	c-0.271-0.292-0.421-0.442-0.658-0.442c-0.25,0-0.598,0.168-1.288,0.515c-1.187,0.596-1.201,0.681-0.123,0.752
	c2.281,0.151,4.264,1.394,5.103,3.194c0.368,0.79,0.302,0.889-0.691,1.034c-0.411,0.06-0.823,0.089-1.232,0.089
	c-2.341,0-4.558-0.96-5.687-2.5l0.075-0.109c0.208-0.367,0.199-0.815-0.024-1.198c-0.142-0.244-0.371-0.453-0.635-0.606
	c-0.049-0.116-0.121-0.25-0.239-0.433c-1.54-2.37-1.186-4.81,1.045-7.199c0.354-0.378,0.58-0.583,0.786-0.583
	c0.262,0,0.491,0.332,0.904,1.056c1.179,2.065,1.189,3.848,0.033,5.548C26.477,46.005,26.388,46.183,26.538,46.183z M37.037,69.9
	c-0.273-0.364-0.646-0.965-0.979-1.689c0.127,0.252,0.307,0.467,0.561,0.744l0.19,0.21c0.216,0.245,0.443,0.487,0.679,0.726
	C37.38,69.869,37.348,69.822,37.037,69.9z M57.223,66.467c-2.893,4.336-6.079,7.033-7.73,7.457
	c-0.187,0.048-0.408,0.072-0.658,0.072c-2.531,0-7.635-2.575-10.676-6.021l0.013-0.234C37.771,67.302,38,67.302,38,64.215v-1.082
	l-0.226-1.27c-0.004-1.324-0.119-2.314-0.049-2.656c0.048-0.018,0.045-0.034,0.104-0.055c0.105-0.037,0.194-0.079,0.325-0.13
	c2.541-1.003,4.796-2.355,6.546-3.91c0.048-0.042,0.126-0.118,0.201-0.181c0.124,0.071,0.284,0.177,0.378,0.238
	c1.429,0.922,1.921,1.112,3.303,1.268c0.391,0.044,0.699,0.065,0.924,0.065c0.914,0,1.198-0.442,1.277-0.814
	c0.002-0.012,0.004-0.024,0.006-0.037c1.476,1.388,3.273,2.619,5.353,3.653c0.934,0.464,2.618,1.223,3.334,1.225
	C58.728,63.98,58.347,64.781,57.223,66.467z M46.742,52.842l0.121-0.166c0.203-0.283,0.495-0.742,0.739-1.159
	c0.441,0.846,0.979,1.66,1.605,2.436c-0.466-0.229-1.045-0.488-1.752-0.8l-0.468-0.204C46.905,52.913,46.822,52.876,46.742,52.842z
	 M58.376,50.521c0.484,0.575,1.039,1.18,1.689,1.847l0.182,0.182c-0.208-0.005-0.504,0.027-1.403,0.287l-0.066,0.02
	c-0.083-0.387-0.183-1.002-0.3-1.718L58.376,50.521z M59.251,55.197c0.206-0.126,0.549-0.302,0.685-0.371
	c0.271-0.139,0.557-0.285,0.792-0.46c-0.065,0.37-0.163,0.85-0.292,1.485l-0.23,1.138c-0.071,0.355-0.139,0.693-0.204,1.015
	C59.749,57.198,59.387,55.853,59.251,55.197z M66.32,40.249c-0.369-0.041-0.646-0.065-0.834-0.065c-0.743,0-1.011,0.406-1.105,0.647
	c-0.27,0.693,0.248,1.167,0.903,1.768c2.141,1.964,2.965,4.484,3.673,11.239c0.158,1.511,0.285,2.504,0.419,3.224
	c-1.199-0.581-2.912-1.626-4.093-2.502L65.1,54.423c-0.669-0.499-1.006-0.749-1.458-0.749c-1.077,0-1.097,1.111-1.111,1.922
	l-0.004,0.211c-0.078,3.913,0.344,8.236,1.081,11.58c-0.746-0.972-1.429-1.88-1.571-2.095c-0.141-0.212-0.47-0.709-1.08-0.709
	c-0.382,0-0.656,0.186-0.861,0.422c0.589-1.438,1.018-3.382,1.875-7.664l0.229-1.133c0.641-3.146,0.723-3.551-0.526-4.781
	l-0.319-0.318c-1.245-1.276-2.107-2.301-2.797-3.324c-0.448-0.664-0.771-1.144-1.376-1.144l-0.46,0.021l-0.27,0.318
	c-0.393,0.463-0.323,0.976,0.116,3.624l0.135,0.822c0.271,1.66,0.423,2.591,0.828,3.03c-0.108,0.243-0.144,0.532-0.083,0.89
	c0.09,0.536,0.46,1.947,0.757,2.935c-0.351-0.151-0.772-0.344-1.261-0.587c-3.781-1.882-6.524-4.435-7.932-7.383
	c-0.326-0.682-0.634-1.327-1.368-1.327c-0.701,0-1.016,0.576-1.415,1.304c-0.228,0.416-0.607,1.028-0.828,1.336l-0.2,0.273
	c-0.282,0.382-0.552,0.747-0.549,1.188c-0.475,0.069-0.823,0.378-1.161,0.678c-1.595,1.417-3.679,2.656-6.026,3.582
	c-0.108,0.042-0.205,0.076-0.291,0.107c-1.435,0.506-1.31,1.026-1.3,4.413L36,63.133v1.079c0,2.331-0.129,3.233,0.113,3.843
	c-0.024-0.056-0.111-0.112-0.134-0.168c-0.144-0.342-0.473-1.052-1.257-1.052c-0.382,0-0.708,0.191-0.968,0.371
	c-1.542,1.06-4.395,1.507-7.654,1.186c1.869-1.349,2.905-2.707,2.197-4.681c-0.111-0.309-0.24-0.69-0.374-1.112
	c1.185,1.441,3.052,2.765,4.793,3.356c0.427,0.145,0.728,0.24,1.017,0.24c0.482,0,0.75-0.261,0.866-0.416
	c0.356-0.476,0.194-1.028,0.022-1.614c-0.322-1.097-0.79-2.913-0.928-3.599c-0.182-0.898-0.32-1.068-0.403-1.17
	c-0.345-0.421-0.896-0.525-1.839-0.309c-0.09,0.02-0.332,0.066-0.663,0.126c1.051-0.88,1.965-1.866,2.124-2.452
	c0.239-0.883-0.401-2.231-1.091-2.715c-0.253-0.178-0.516-0.265-0.804-0.265c-0.329,0-0.643,0.104-1.223,0.339
	c-0.349,0.141-1.227,0.435-1.918,0.643c-1.534,0.462-1.699,0.628-1.82,0.75c-0.063,0.063-0.151,0.152-0.228,0.318
	c-0.313-0.225-0.672-0.32-1.537-0.167c-1.471,0.259-3.59,0.391-5.236,0.33c0.267-0.208,0.452-0.364,0.476-0.384
	c1.23-1.037,2.638-2.732,4.564-5.496c0.032-0.046,0.063-0.088,0.094-0.133c1.349,1.626,3.732,2.656,6.295,2.656
	c0.461,0,0.925-0.034,1.376-0.1c0.564-0.083,1.266-0.186,1.603-0.808c0.329-0.609,0.041-1.228-0.149-1.637
	c-0.069-0.149-0.145-0.294-0.226-0.436c1.187,0.385,2.481,0.667,3.776,0.805c0.394,0.042,0.694,0.061,0.943,0.061
	c0.296,0,1.196,0,1.598-0.743c0.443-0.818-0.151-1.728-0.584-2.391c-0.091-0.139-0.185-0.273-0.281-0.404
	c0.783,0.229,1.609,0.346,2.474,0.346c0.864,0,1.778-0.118,2.716-0.35c1.103-0.272,2.28-0.648,2.28-1.663
	c0-0.206-0.041-0.431-0.21-0.705c0.981,0.312,2.021,0.494,2.981,0.494c1.349,0,1.637-0.895,1.694-1.169
	c0.059-0.285,0.026-0.58-0.079-0.874c0.499,0.126,1.005,0.194,1.485,0.194c0.701,0,1.284-0.148,1.733-0.44
	c0.466-0.303,0.692-0.825,0.59-1.362c-0.163-0.861-1.146-1.574-2.167-2.017c0.766-0.779,1.126-1.669,1.074-2.657l-0.023-0.448
	l-0.05-0.952l-0.954,0.004l-0.52,0.002c-1.063,0.005-2.105,0.408-2.951,1.063c0.006-0.263-0.013-0.526-0.06-0.789
	c-0.079-0.448-0.29-1.639-1.463-1.64c-0.35,0-0.68,0.122-1.068,0.306c-1.584,0.749-3.146,2.07-4.012,3.52
	c-0.01-0.834-0.193-1.653-0.556-2.368c-0.285-0.563-0.78-0.887-1.358-0.887c-0.686,0-1.358,0.445-2.221,1.163
	c-1.094,0.91-2,1.907-2.665,2.896c-0.064-0.382-0.16-0.775-0.286-1.182c-0.124-0.401-0.415-1.341-1.392-1.341
	c-0.363,0-0.679,0.15-0.946,0.291c-1.688,0.888-2.97,2.091-3.706,3.479c-0.242,0.457-0.422,0.927-0.541,1.404
	c-0.171-0.563-0.426-1.141-0.765-1.732c-0.438-0.767-0.89-1.56-1.772-1.56c-0.677,0-1.143,0.499-1.517,0.9
	c-3.021,3.234-2.498,6.093-1.39,8.033c-2.547-0.138-6.349-2.069-8.378-4.263c3.598-0.103,5.857-1.579,10.517-6.73
	c5.675-6.274,9.272-8.328,15.396-8.789l0.161-0.012c1.081-0.08,1.676-0.125,1.888-0.822c0.208-0.682-0.298-1.079-0.834-1.5
	l-0.093-0.073c-1.444-1.138-2.084-2.785-1.801-4.639c0.345-2.254,1.917-4.404,4.206-5.896c-1.819,2.753-2.174,5.844-1.129,9.556
	c0.625,2.225,0.883,3.008,1.7,3.262c0.573,0.178,2.553,0.184,2.776,0.184c0.439,0,1.049-0.01,1.462-0.056
	c4.248-0.475,8.983-3.564,11.279-7.237c1.044,3.788,0.46,8.282-1.4,10.432c-0.303,0.35-0.718,0.829-0.439,1.441
	c0.295,0.646,0.837,0.646,2.147,0.646c6.628,0,12.246,4.304,13.824,10.404C72.063,41.519,69.224,40.57,66.32,40.249z M27.925,59.12
	c-0.225-0.62-0.45-1.75-0.458-2.328c0.216-0.079,0.534-0.186,0.928-0.304c0.759-0.229,1.669-0.535,2.073-0.698
	c0.176-0.071,0.314-0.124,0.415-0.16c0.138,0.195,0.291,0.539,0.303,0.627C30.937,56.82,28.855,58.581,27.925,59.12z M31.851,60.841
	c0.021-0.004,0.04-0.009,0.059-0.013c0.007,0.031,0.013,0.062,0.02,0.093c0.123,0.609,0.471,1.985,0.779,3.097
	c-1.296-0.582-2.664-1.631-3.503-2.699c0.171-0.031,0.36-0.063,0.559-0.097C30.709,61.06,31.648,60.888,31.851,60.841z"/>
</svg>
