<?xml version="1.0" encoding="utf-8"?>
<!-- Generator: Adobe Illustrator 16.0.0, SVG Export Plug-In . SVG Version: 6.00 Build 0)  -->
<!DOCTYPE svg PUBLIC "-//W3C//DTD SVG 1.1//EN" "http://www.w3.org/Graphics/SVG/1.1/DTD/svg11.dtd">
<svg version="1.1" id="Layer_1" xmlns="http://www.w3.org/2000/svg" xmlns:xlink="http://www.w3.org/1999/xlink" x="0px" y="0px"
	 width="90px" height="90px" viewBox="0 0 90 90" enable-background="new 0 0 90 90" xml:space="preserve">
<path d="M65.977,42.113c-1.389-0.348-0.726-1.088,0.145-1.95c1.384-1.368,2.557-2.952,3.432-4.691
	c1.515-3.009,2.179-6.594,1.246-9.884c-0.683-2.41-3.036-6.207-5.996-5.891c-1.794,0.192-2.413,2.015-1.66,3.502
	c0.727,1.438-0.048,2.838-0.921,3.994c-0.178-2.142-1.208-4.978-3.947-3.335c-0.322-1.403-0.708-3.586-1.867-4.578
	c-0.674-0.577-1.656-0.676-2.468-0.364c-0.309,0.119-1.717,1.734-1.521,1.793c-0.719-0.216-1.838-2.343-2.315-2.938
	c-0.951-1.186-2.081-2.328-2.825-3.663c-0.95-1.704-0.931-5.5-4.115-3.782c-1.099,0.593-1.004,1.83-1.241,2.88
	c-0.197,0.878-0.807,1.611-1.35,2.3c-1.4,1.777-2.829,3.524-4.181,5.338c-0.825-3.683-4.261-1.797-5.149,0.656
	c-0.259,0.715-0.4,1.455-0.636,2.173c-0.075,0.228-1.532-0.21-1.824-0.187c-2.564,0.206-1.138,2.384-2.24,3.571
	c-0.181,0.195-1.108-2.239-1.119-2.399c-0.112-1.653,1.494-3.274-0.34-4.588c-2.739-1.961-5.972,2.527-6.773,4.675
	c-1.141,3.056-0.778,6.515,0.424,9.493c0.691,1.712,1.67,3.304,2.865,4.71c0.785,0.924,1.945,1.659,2.161,2.924
	c-12.287,2.977-4.094,17.616-0.34,24.582c4.043,7.503,11.165,16.179,20.748,11.304c0.732-0.372,3.697,1.012,4.67,1.107
	c2.384,0.233,5.04,0.083,7.168-1.117c3.714-2.094,6.358-5.977,8.468-9.564c2.918-4.964,5.42-10.521,6.919-16.091
	C72.609,47.577,70.731,43.304,65.977,42.113C65.583,42.014,69.704,43.046,65.977,42.113z M50.999,75.214
	c-1.381,0.036-2.84-0.001-4.13-0.556c-1.429-0.615-2.387-1.815-3.923-0.556c-2.146,1.761-6.419,1.574-8.673,0.128
	C29.236,71,26.253,64.175,23.991,58.917c-1.195-2.78-3.199-6.455-3.195-9.562c0.004-3.04,3.312-3.94,5.823-3.94
	c2.199,0,1.071,4.293,3.531,4.293c0.878,0,1.712-0.685,2.565-0.87c1.261-0.272,2.588-0.208,3.873-0.226
	c1.78-0.025,3.145-1.248,4.884-1.563c2.992-0.544,5.213-0.241,8.038,0.754c0.578,0.204,1.357,0.843,1.969,0.832
	c1.074-0.02,2.152-0.066,3.225,0.015c1.377,0.103,2.725,0.999,4.045,0.999c1.72,0,1.86-2.211,2.334-3.402
	c0.765-1.92,4.942-0.419,6.047,0.628c1.398,1.326,0.962,3.261,0.464,4.882c-2.198,7.157-5.491,14.921-10.642,20.483
	C55.284,74.042,53.494,75.147,50.999,75.214C50.793,75.219,53.698,75.142,50.999,75.214z M32.906,29.744
	c0.953,0,0.72-5.172,1.007-6.265c0.371,1.054,1.442,2.995,2.782,2.995c1.266,0,1.505-2.594,2.02-3.438
	c1.65-2.707,4.404-4.789,5.744-7.679c1.033,2.428,3.61,5.329,5.431,7.259c0.912,0.968,0.758,2.853,1.844,3.606
	c1.443,1,2.886-1.788,3.267-2.751c0.247,0.88,0.453,1.618,0.476,2.542c0.023,0.902-0.396,2.191-0.081,3.051
	c0.617,1.69,3.311-1.276,3.666-1.602c-0.016,1.511-1.887,5.411-0.848,6.461c0.066,0.647,0.54,1.055,1.032,1.4
	c1.236,0.866-0.167,0.117,0.144,0.702c0.369,0.693,0.705,1.414,1.121,2.081c-3.393-3.668-8.892,6.313-12.451,6.338
	c1.651-1.499,2.73-3.26,3.908-5.12c1.195-1.884,1.356-4.206,3.272-5.629c0.905-0.672,0.764-1.753-0.273-2.235
	c-1.317-0.613-2.278,0.644-3.447,0.944c-1.034,0.265-2.102-0.057-3.076,0.458c-1.113,0.587-2.545,0.903-3.793,0.903
	c-1.297,0-2.922-0.153-4.048-0.87c-0.924-0.587-2.03-0.257-3.056-0.458c-1.034-0.202-1.708-1.073-2.818-1.073
	c-1.225,0-2.42,1.203-1.201,2.219c1.61,1.342,2.006,2.871,2.93,4.73c1.141,2.295,2.493,4.405,4.4,6.144
	c-3.253-0.044-9.476-10.133-12.542-6.226c0.411-0.659,0.637-2.374,1.097-2.714c0.729-0.541,1.48-1.362,1.584-2.323
	c0.186-1.707-1.159-3.872-1.217-5.717C30.534,28.16,31.74,29.744,32.906,29.744z M58.522,46.342
	c-0.07,0.232-0.139,0.464-0.209,0.696c-2.692-1.174-5.547-0.509-8.235-1.584c2.546-1.273,3.954-3.829,6.228-5.401
	c0.635-0.386,2.333-1.715,3.098-1.071c0.957,0.805,0.256,3.617,1.708,3.728C59.915,43.36,58.928,44.965,58.522,46.342
	C58.453,46.576,58.966,44.836,58.522,46.342z M27.944,42.86c1.297-0.299,0.643-3.095,1.639-3.945
	c0.614-0.524,2.389,0.73,2.886,1.063c2.265,1.594,3.771,4.269,6.347,5.48c-2.677,1.096-5.56,0.372-8.21,1.581
	C30.011,45.313,29.31,44,27.944,42.86C28.609,42.707,28.098,42.989,27.944,42.86z M42.757,44.344
	c-0.319-0.716-1.503-1.431-2.042-2.004c-0.987-1.05-1.79-2.293-2.445-3.571c-1.082-2.108-1.679-4.448-3.541-6.005
	c0.864,0.001,1.654,0.873,2.526,1.045c0.761,0.15,1.689-0.084,2.409,0.167c2.035,0.712,3.754,1.385,5.996,1.137
	c1.518-0.168,2.965-1.179,4.453-1.179c1.684,0,2.608-0.838,4.119-1.231c-2.226,1.765-2.726,4.791-4.172,7.124
	c-0.821,1.324-1.79,2.536-2.944,3.584C45.723,44.677,44.584,44.05,42.757,44.344C42.643,44.087,43.312,44.254,42.757,44.344z
	 M63.465,37.604c-0.093,0.092-0.186,0.185-0.278,0.277c-0.807-1.388-0.862-3.196-2.086-4.168c2.475-2.007,5.099-4.558,5.896-7.761
	C68.765,29.927,66.261,34.796,63.465,37.604C63.388,37.681,66.993,34.061,63.465,37.604z M26.719,36.203
	c-0.295,0.58-0.672,1.124-1.005,1.682c-3.053-2.802-5.505-7.675-3.811-11.827c0.59,3.049,3.616,5.769,5.912,7.657
	C27.033,34.309,26.323,35.155,26.719,36.203C26.636,36.366,26.267,35.006,26.719,36.203z"/>
</svg>
