<?xml version="1.0" encoding="utf-8"?>
<!-- Generator: Adobe Illustrator 16.0.0, SVG Export Plug-In . SVG Version: 6.00 Build 0)  -->
<!DOCTYPE svg PUBLIC "-//W3C//DTD SVG 1.1//EN" "http://www.w3.org/Graphics/SVG/1.1/DTD/svg11.dtd">
<svg version="1.1" id="Layer_1" xmlns="http://www.w3.org/2000/svg" xmlns:xlink="http://www.w3.org/1999/xlink" x="0px" y="0px"
	 width="90px" height="90px" viewBox="0 0 90 90" enable-background="new 0 0 90 90" xml:space="preserve">
<g>
	<path d="M44.031,32.266c4.417-0.053,7.866,1.168,9.221-1.625c2.808-5.787-4.02-11.849-9.398-11.498
		c-4.688,0.306-9.186,6.293-7.649,10.888C37.279,33.244,41.337,32.298,44.031,32.266z M41.703,21.813
		c0.484-0.353,3.244-1.101,3.305-0.344c0.095,1.176,0.112,3.124,0.06,4.271c-0.022,0.498-0.067,2.282,0.458,2.264
		c1.301-0.043,2.583-0.349,3.886-0.384c1.162-0.031,1.485,2.152,1.089,2.547c-0.438,0.271-2.075,0.063-2.969,0.068
		c-1.745,0.009-3.891-0.047-5.552,0.057c-1.106,0.069-0.979-1.669-1.042-2.5C40.855,26.701,40.768,22.495,41.703,21.813z"/>
	<path d="M67.61,43.643c-1.444-1.247,0.89-2.518,1.153-6.836c0.226-3.703-0.651-7.43-2.244-10.767
		c-3.112-6.517-9.043-11.519-16.058-13.309C37.911,9.53,24.686,17.66,21.269,30.047c-0.735,2.666-0.967,5.476-0.573,8.217
		c0.199,1.386,0.557,2.749,1.067,4.052c0.242,1.341,0.021,1.016-0.752,2.269c-2.994,4.845,0.741,11.45,4.608,14.55
		c0.84,0.673,3.006,1.261,3.568,2.114c0.729,1.105,0.873,2.954,1.396,4.208c1.179,2.831,2.892,5.384,5.292,7.333
		c4.339,3.524,10.695,4.305,15.622,1.636c2.599-1.407,4.531-3.717,6-6.246c2.44-4.202,1.735-7.268,4.112-7.916
		C65.063,59.292,72.7,48.909,67.61,43.643z M25.823,28.604C30.041,18.43,42.059,12.796,52.395,17.14
		c4.984,2.095,9.074,6.159,11.25,11.104c1.259,2.861,1.897,5.97,1.542,9.092c-0.162,1.428-0.457,2.927-1.118,4.217
		c-0.787,1.537-1.181,0.46-2.456,0.461c-0.951,0.008-1.441,0.908-2.175,1.344c-0.652,0.34-1.617,0.028-2.309-0.228
		c-2.037-0.755-3.884-1.947-5.906-2.733c-4.883-1.9-9.743-1.562-14.419,0.649c-1.668,0.788-3.409,1.96-5.24,2.333
		c-1.848,0.376-3.144-2.194-4.777-0.728C22.659,40.375,24.417,31.996,25.823,28.604z M59.064,59.022
		c-1.041,0.198-1.045,1.827-1.278,2.645c-0.454,1.593-1.041,3.153-1.812,4.621c-1.376,2.621-3.396,4.965-6.105,6.254
		c-5.164,2.456-11.269,0.669-14.709-3.75c-1.995-2.563-2.945-5.539-3.81-8.619c-0.307-1.091-1.03-1.003-1.979-1.435
		c-1.348-0.613-2.429-1.656-3.526-2.642c-2.658-2.388-6.045-10.13-0.757-11.629c0.599,0.345,1.305,0.876,2.029,0.75
		c0.291,1.434,0.563,2.87,0.884,4.297c0.567,2.525,1.005,5.29,2.005,7.691c0.338,0.813,1.515-0.374,1.826-0.77
		c0.585-0.745,0.065-2.465-0.083-3.248c-1.188-6.292-2.188-7.042-0.049-7.397c2.509-0.417,4.853-2.028,7.137-3.04
		c2.655-1.176,5.594-1.567,8.446-1.011c2.569,0.5,4.73,1.679,7.067,2.791c1.01,0.48,2.06,1.003,3.172,1.201
		c2.19,0.388,1.44,1.689,1.131,3.624c-0.235,1.471-1.806,5.508-1.063,6.858c1.093,1.987,1.924,0.955,2.373-0.519
		c0.695-2.284,1.325-4.602,1.848-6.931c0.121-0.538,0.387-3.098,0.807-3.098c0.724,0,1.921-0.387,2.092-1.204
		C71.426,46.987,63.484,58.183,59.064,59.022z"/>
	<path d="M56.365,58.243c-2.103,1.066-3.835,1.17-5.58,2.695c-2.684,2.346-6.602,2.798-9.812,1.308
		c-1.271-0.59-2.075-1.717-3.226-2.377c-1.117-0.641-2.802-0.711-4.01-1.199c-1.791-0.722-1.793-0.414-1.674,1.412
		c0.102,1.564,0.564,3.03,1.418,4.355c1.513,2.348,4.226,3.749,7.012,3.031c1.644-0.424,2.569-1.476,3.864-2.447
		c0.395-0.297,2.679,1.82,3.263,2.079c2.604,1.154,5.56,0.347,7.409-1.768c1.027-1.175,1.666-2.65,1.939-4.18
		C57.078,60.544,57.696,57.568,56.365,58.243z"/>
</g>
</svg>
