<?xml version="1.0" encoding="utf-8"?>
<!-- Generator: Adobe Illustrator 16.0.0, SVG Export Plug-In . SVG Version: 6.00 Build 0)  -->
<!DOCTYPE svg PUBLIC "-//W3C//DTD SVG 1.1//EN" "http://www.w3.org/Graphics/SVG/1.1/DTD/svg11.dtd">
<svg version="1.1" id="Layer_1" xmlns="http://www.w3.org/2000/svg" xmlns:xlink="http://www.w3.org/1999/xlink" x="0px" y="0px"
	 width="90px" height="90px" viewBox="0 0 90 90" enable-background="new 0 0 90 90" xml:space="preserve">
<g>
	<path d="M30.736,45.284c1.151,0.198,1.063-3.262,0.998-3.923C30.119,42.241,27.702,44.762,30.736,45.284z"/>
	<path d="M72.795,60.766c-1.607-1.453-1.076-3.594-1.656-5.724c-0.497-1.825-1.274-2.391-3.139-2.212c0-0.825,0-1.651,0-2.477
		c0.161-0.237,1.4-0.338,1.726-0.582c1.415-1.061,0.925-3-0.493-3.778c-2.369-1.289,0.62-1.192,1.24-1.823
		c1.62-1.646-0.401-4.631-1.18-6.218c6.146-0.201-2.683-10.849-4.188-12.62c-2.775-3.266-6.388-6.336-10.861-6.576
		c-0.787-0.042-1.564,0.026-2.347,0.096c-0.677,0.061-2.276-1.83-2.915-2.281c-3.041-2.146-6.232-2.43-9.822-2.883
		c-1.659-0.21-3.317-0.426-4.978-0.627c-1.606-0.195-3.886-0.831-5.474-0.335c-3.362,1.043,0.495,4.972,0.805,6.426
		c0.006,0.029-3.97,0.919-4.356,1.045c-2.144,0.698-4.154,1.764-5.975,3.088c-1.091,0.792-1.857,1.78-1.335,3.199
		c0.538,1.46,2.592,0.769,3.221,1.72c-0.218-0.329-3.921,3.635-4.172,3.965c-1.479,1.939-2.604,4.09-3.34,6.414
		c-0.39,1.23-1.018,3.179-0.173,4.371c0.786,1.11,2.486,0.011,2.287,1.421c-0.563,3.986,1.007,9.535,3.414,12.736
		c0.814,1.084,2.013,0.673,2.839,1.643c1.229,1.443,4.839,3.075,5.048,4.637c0.319,2.39,0.766,4.813,1.725,7.04
		c1.193,2.772,3.277,0.908,4.459-0.538c0.171-0.208,4.301,2.722,4.845,2.97c2.169,0.99,4.613,1.211,6.97,1.032
		c2.435-0.185,4.622-1.031,6.625-2.412c0.255-0.177,2.309-1.942,2.455-1.791c1.007,1.04,1.713,3.223,3.673,2.065
		c1.909-1.128,1.828-4.649,2.448-6.491c-0.207,0.619,5.43,4.417,5.904,4.73c1.485,0.981,5.028,3.66,6.87,2.14
		c1.408-1.161,0.924-4.614,1.041-6.217C74.108,64.246,73.922,61.219,72.795,60.766z M29.948,67.28
		c-0.489-1.707-0.675-3.477-0.951-5.228c-0.378-1.025-0.487-0.901-1.207-1.645c0.236,0.236,0.792,0.216,1.065,0.568
		c0.379,0.486,0.489,1.283,0.768,1.831c0.414,0.817,2.984,3.368,2.991,3.358C31.24,65.967,31.292,71.964,29.948,67.28z
		 M53.911,64.238c-2.245,2.023-4.471,4.474-7.479,5.316c-3.693,1.034-7.031-0.188-9.904-2.519c-2.692-2.185-4.461-4.35-6.29-7.192
		c-0.746-1.159-0.939-3.798-1.107-5.154c-0.297-2.404-0.143-4.864,0.438-7.216c1.132,0.466,1.657,2.978,2.422,4.005
		c1.151,1.547,3.244,3.948,5.287,4.203c2.688,0.329,1.812-3.403,3.239-3.435c2.102-0.047,2.257-2.286,1.553-3.765
		c1.082,0.007,2.163-0.016,3.244-0.05c-0.935,1.825-0.247,4.29,2.182,3.718c2.189-0.516,4.369-1.991,6.411-2.914
		c6.938-3.138-0.094,8.476,3.703,10.081C56.085,60.563,55.472,62.842,53.911,64.238z M41.819,45.036
		c1.085-2.78,2.957-6.211,5.403-8.021c0.994,2.708,2.167,5.381,4.058,7.594C48.142,44.973,44.978,45.096,41.819,45.036z
		 M56.533,69.472c-0.697,0.008-0.971-3.269-1.619-3.466c2-0.968,2.695-4.406,3.848-5.137C57.981,61.649,56.969,69.484,56.533,69.472
		z M60.382,54.996c-0.204,0.31-1.89,2.998-2.107,2.526c-0.219-0.473,0.158-1.78,0.231-2.176c0.328-1.756,0.438-3.562,0.48-5.346
		c0.053-2.163-0.568-2.57-2.682-3.291c-1.996-0.681-6.032,2.149-7.799,2.983c-0.504,0.242-0.994,0.622-1.562,0.707
		c-0.868,0.13,0.391-1.646,0.573-1.786c0.894-0.687,2.144-1.041,3.181-1.424c0.675-0.249,2.913-0.5,3.347-1.21
		c0.464-0.759-3.206-4.68-3.633-5.492c-0.57-1.088-1.585-5.632-3.275-5.264c-1.737,0.379-3.263,3.019-4.17,4.344
		c-0.959,1.404-5.085,7.601-3.207,9.063c0.26,0.202,1.275,1.285,0.857,1.72c-0.44,0.455-1.406-0.69-1.935-0.568
		c-1.642,0.401,0.549,5.308-2.213,3.474c-2.035-1.352-3.783-3.383-4.502-5.747c-0.317-1.07-3.257-3.382-3.851-1.696
		c0.052,0.052-0.679,2.44-0.719,2.663c-0.283,1.54-0.363,3.115-0.282,4.679c0.039,0.739,0.558,6.244,0.991,6.388
		c-2.835-0.938-2.587-7.131-3.016-9.438c-0.313-1.681-1.459,0.606-1.808,1.138c-0.856,1.712-0.575,2.424-0.531,4.845
		c-0.726-0.885-0.824-2.105-1.608-0.79c-0.437,0.733-0.973-0.619-1.086-0.873c-1.043-2.347-1.721-4.645-2.203-7.163
		c-0.485-2.514,0.392-5.842,2.251-7.658c2.813-2.75-1.765-0.583-2.859,0.205c-0.344,0.248-2.032,2.06-1.905,0.678
		c0.12-1.298,0.839-2.772,1.395-3.944c1.323-2.79,3.519-5.276,6.146-6.904c1.179-0.73,5.924-2.157,2.17-2.792
		c-0.848-0.143-4.247-0.456-4.656-1.265c-0.46-0.909,3.313-2.485,3.932-2.727c2.775-1.084,5.42-1.525,8.388-1.655
		c3.39-0.148,0.388-1.365-0.918-2.844c-0.918-1.04-3.583-4.243-0.445-3.49c3.012,0.723,6.349,0.817,9.432,1.139
		c2.983,0.307,5.438,1.036,7.821,2.915c0.836,0.66,1.762,2.483,2.954,2.233c1.538-0.322,3.411-0.33,4.909,0.179
		c3.005,1.025,5.526,3.532,7.492,5.938c0.603,0.736,5.818,7.514,5.144,8.091c-0.331,0.282-7.146-2.866-4.197,0.206
		c1.154,1.203,2.167,2.678,2.904,4.172c0.14,0.284,1.764,3.071,0.264,2.553c-0.887-0.306-2.89-1.587-3.768-1.091
		c-0.345,0.194,1.451,3.316,1.662,3.731c0.188,0.372,2.061,3.102,1.917,3.22c-0.542,0.447-3.041-0.054-2.721,0.898
		c0.077-0.054-1.788-0.448-1.948-0.461C61.41,48.449,61.225,53.537,60.382,54.996z M63.721,50.489
		c3.067,0.2-2.616,6.741-2.492,6.624C62.598,55.15,62.797,52.938,63.721,50.489z M70.146,68.021c-3.233-1.69-6.19-4.052-8.432-6.94
		c1.02-0.653,1.941-1.467,2.759-2.357c1.155-1.26,1.604-1.607,3.317-1.936c0.156,0.867,0.437,1.705,0.634,2.563
		c-1.038-0.078-2.321-0.656-3.325-0.272c-1.076,0.412-1.523,1.848-0.675,2.704c0.915,0.922,6.181,2.036,6.065,2.702
		C70.287,65.655,70.197,66.833,70.146,68.021z"/>
</g>
</svg>
