<?xml version="1.0" encoding="utf-8"?>
<!-- Generator: Adobe Illustrator 16.0.0, SVG Export Plug-In . SVG Version: 6.00 Build 0)  -->
<!DOCTYPE svg PUBLIC "-//W3C//DTD SVG 1.1//EN" "http://www.w3.org/Graphics/SVG/1.1/DTD/svg11.dtd">
<svg version="1.1" id="Layer_1" xmlns="http://www.w3.org/2000/svg" xmlns:xlink="http://www.w3.org/1999/xlink" x="0px" y="0px"
	 width="90px" height="90px" viewBox="0 0 90 90" enable-background="new 0 0 90 90" xml:space="preserve">
<g>
	<path d="M74.305,34.807c-0.802-0.114-1.654-0.062-2.458,0.005c-0.561,0.046-1.275,0.465-1.157-0.315
		c0.346-2.293,0.199-4.656-0.466-6.879c-1.282-4.283-4.566-7.61-8.049-10.252c-6.91-5.242-15.706-7.538-24.244-5.784
		c-7.891,1.621-17.074,7.083-20.186,14.878c-0.664,1.664-0.986,3.441-1.013,5.23c-0.015,0.961,0.076,1.908,0.168,2.862
		c0.065,0.684-0.896,0.265-1.36,0.238c-2.462-0.142-4.366,0.295-4.521,3.095c-0.224,4.036,1.535,8.431,2.938,12.122
		c1.551,4.084,3.613,8.015,5.545,11.924c1.818,3.678,4.532,6.709,8.074,8.789c0.994,0.585,0.962,2.228,1.859,3.14
		c1.232,1.254,3.008,1.87,4.705,2.159c2.028,0.346,4.127,0.248,6.142-0.143c1.039-0.201,2.02-0.543,3.035-0.828
		c0.86-0.241,1.954,0.379,2.764,0.593c3.585,0.947,8.805,1.021,11.445-2.136c0.451-0.539,0.738-1.185,0.869-1.873
		c0.162-0.855,0.745-0.946,1.467-1.404c1.88-1.189,3.532-2.721,4.896-4.475c1.235-1.59,1.912-3.696,3.281-5.143
		c1.26-1.33,2.197-2.978,3.04-4.591c2.411-4.614,4.362-9.797,5.312-14.926C76.783,38.975,77.259,35.229,74.305,34.807
		C73.615,34.709,77.404,35.25,74.305,34.807z M22.969,24.582c6.463-7.585,16.685-11.721,26.546-9.429
		c4.881,1.134,9.383,3.678,12.994,7.137c3.571,3.421,5.483,7.188,4.691,12.222c-1.611-0.601-3.57-1.23-5.303-1.407
		c-1.945-0.198-3.791-0.764-5.739-0.863c1.422-0.693,2.428-1.958,3.23-3.274c1.394-2.297,0.801-5.963-0.893-7.929
		c-0.8-0.929-2.128-2.063-3.36-2.319c-0.771-0.16-1.581-0.499-2.358-0.568c-0.932-0.083-1.765,0.354-2.662,0.51
		c-1.961,0.34-4.179,2.446-4.823,4.331c-1.011,2.952-0.082,6.573,2.416,8.459c-2.72,0.012-5.44,0-8.16-0.003
		c2.21-1.919,2.535-4.279,2.535-6.983c-0.699-1.271-1.15-2.551-2.188-3.615c-1.343-1.377-3.061-2.174-4.978-2.235
		c-1.688-0.054-3.053,0.244-4.541,1c-1.54,0.783-2.139,2.203-3.065,3.508c-0.839,0.998-0.785,4.666,0.061,5.745
		c0.782,1.398,1.521,2.546,2.948,3.405c-1.725,0.087-3.379,0.661-5.107,0.829c-0.717,0.07-1.301,0.248-1.97,0.492
		c-0.911,0.332-1.951,0.195-2.833,0.616C19.841,30.605,20.747,27.189,22.969,24.582C28.045,18.625,20.747,27.189,22.969,24.582z
		 M35.459,31.317c-0.103,0.012-0.833,0.017-1.6,0.034c-1.116-0.017-1.602-0.157-2.65-0.878c-1.164-0.8-1.438-1.829-2.268-2.843
		c-0.271-0.525-0.315-2.715-0.066-3.256c0.492-0.624,0.692-1.354,1.24-1.958c0.585-0.645,1.124-0.909,1.85-1.334
		c1.05-0.614,3.32-0.845,4.426-0.249c0.837,0.592,1.638,0.907,2.338,1.704c0.646,0.736,0.875,1.608,1.354,2.444
		c0,0.626,0.124,1.417-0.021,2.022c-0.411,1.027-0.906,2.101-1.736,2.854c-0.729,0.661-0.966,0.811-1.649,1.144
		C36.77,30.955,36.026,31.25,35.459,31.317z M33.609,34.457c2.643-0.123,5.236-0.657,7.885-0.687
		c2.778-0.03,5.494,0.161,8.252,0.318c2.771,0.156,5.562,0.497,8.303,0.925c1.499,0.234,2.981,0.423,4.458,0.783
		c1.333,0.325,2.731,0.784,4.073,1.015c-0.047,0.238-0.114,0.532-0.185,0.781c-3.861-1.003-7.736-1.187-11.686-1.774
		c-3.676-0.548-7.457-0.589-11.172-0.607c-3.733-0.018-7.846-0.123-11.502,0.644c-3.793,0.796-7.674,0.543-11.392,1.728
		c-0.064-0.263-0.126-0.527-0.185-0.792c2.102-0.22,4.198-1.192,6.317-1.498C29.049,34.966,31.314,34.563,33.609,34.457
		C34.554,34.413,31.756,34.542,33.609,34.457z M47.776,28.606c-0.146-0.29-0.375-0.675-0.524-0.882
		c-0.336-0.579-0.367-3.442-0.054-4.127c0.949-0.989,1.471-2.366,2.892-2.883c1.443-0.526,3.522-0.798,4.923,0.046
		c0.979,0.919,2.152,1.396,2.719,2.734c0.498,1.176,0.632,3.309-0.052,4.436c-0.549,0.899-1.138,1.665-2.021,2.266
		c-1.078,0.735-1.654,0.646-3.354,0.959c-0.987-0.138-1.251-0.324-1.859-0.5C49.418,30.356,48.27,29.583,47.776,28.606
		C47.63,28.316,48.191,29.429,47.776,28.606z M67.259,58.013c-1.067,1.501-2.043,2.901-3.004,4.481
		c-1.135,1.866-2.557,3.563-4.272,4.921c-0.762,0.603-1.575,1.138-2.431,1.599c-0.527,0.284-1.32,0.457-1.335,1.166
		c-0.041,1.945-1.056,2.648-2.827,3.308c-1.882,0.699-3.981,0.609-5.917,0.2c-1.167-0.247-2.239-0.725-3.382-1.038
		c-1.012-0.278-2.446,0.637-3.43,0.885c-2.034,0.515-4.237,0.721-6.304,0.269c-1.507-0.33-3.796-1.121-3.891-2.97
		c-0.027-0.529,0.192-1.005-0.341-1.323c-0.8-0.478-1.647-0.851-2.427-1.37c-1.786-1.191-3.292-2.747-4.521-4.501
		c-1.08-1.542-1.888-3.17-2.579-4.913c-0.723-1.824-1.816-3.475-2.657-5.245c-0.707-1.487-6.842-16-3.811-16.363
		c1.528-0.184,3.087,0.324,4.528,0.752c0.106,0.458-0.227,0.525-0.049,0.994c0.147,0.385,0.325,0.757,0.465,1.153
		c0.319,0.626,1.906,1.55,1.763,2.248c-0.187,0.909-1.326,1.728-1.638,2.7c-0.668,2.089,0.709,3.89,2.961,3.464
		c1.831-0.346,3.749-2.451,3.246-4.415c-0.212-0.824-1.519-1.542-1.513-2.301c0.006-0.799,1.064-2.064,1.339-2.862l0,0
		c5.917-1.317,12.249-1.668,18.3-1.639c6.157,0.03,12.262,0.544,18.307,1.673c0.231,0.696,1.608,2.474,1.249,3.162
		c-0.408,0.782-1.226,0.962-1.4,1.974c-0.336,1.941,1.242,3.978,3.101,4.411c2.551,0.596,3.854-1.833,2.894-3.998
		c-0.26-0.584-1.77-1.879-1.357-2.516c0.26-0.4,0.663-0.741,1.016-1.056c0.346-0.308,0.288-0.759,0.523-1.138l0,0l0.421-1.469
		c0.924-0.444,5.374-2.199,5.995-0.737c0.607,1.431-0.174,3.695-0.527,5.092C72.424,47.865,70.425,53.562,67.259,58.013
		C67.057,58.297,71.179,52.501,67.259,58.013z"/>
	<path d="M69.67,46.877c-0.183,0.165-0.973,0.984-1.755,1.82c-3.583,3.826-4.524,4.76-4.799,4.76c-0.229,0-0.448-0.196-2.053-1.84
		c-1.133-1.16-1.854-1.84-1.953-1.84c-0.202,0-0.428,0.248-1.636,1.8c-0.895,1.148-1.347,1.728-3.367,4.317
		c-0.052-0.237-0.105-0.673-0.083-1.285c0.085-2.378-0.79-4.039-2.601-4.936l-0.681-0.337h-2.339l-0.138-0.243
		c-1.096-1.947-2.681-3.021-4.464-3.021c-0.402,0-0.813,0.056-1.224,0.166c-1.149,0.308-2.304,1.294-3.013,2.574
		c-0.346,0.624-0.396,0.624-0.495,0.624c-0.096,0-0.24-0.024-0.383-0.052c-0.327-0.062-0.651-0.093-0.966-0.093
		c-1.169,0-2.199,0.424-2.979,1.226c-0.955,0.982-1.455,2.471-1.407,4.189c0.015,0.501-0.042,0.878-0.093,1.088
		c-0.028-0.037-0.058-0.074-0.085-0.109c-0.289-0.368-1.308-1.678-2.265-2.91c-2.229-2.868-2.341-2.999-2.556-3.002
		c-0.124-0.001-0.696,0.533-1.976,1.843c-1.61,1.649-1.826,1.844-2.054,1.842c-0.229-0.002-0.485-0.244-2.519-2.383
		c-4.149-4.362-4.622-4.813-4.5-4.279c0.048,0.205,0.81,1.807,3.111,6.54c0.514,1.056,1.603,3.306,2.42,5
		c1.892,3.921,1.714,3.729,2.512,2.708c1.807-2.309,3.044-3.83,3.172-3.898c0.291-0.156,0.533,0.132,2.349,2.79
		c1.006,1.475,2.082,3.049,2.391,3.5c0.729,1.063,0.503,1.083,3.427-0.308c1.305-0.62,2.797-1.329,3.317-1.575
		c0.311-0.147,0.542-0.259,0.705-0.353c0.087,0.031,0.18,0.064,0.28,0.1l0.112,0.039c0.14,0.038,0.288,0.086,0.459,0.142
		c0.192,0.062,0.412,0.132,0.674,0.208c0.462,0.134,1.091,0.211,1.727,0.211c0.578,0,1.094-0.063,1.45-0.179
		c0.294-0.096,0.977-0.339,1.423-0.513c0.238,0.162,0.682,0.367,1.393,0.705c5.539,2.635,5.252,2.521,5.523,2.172
		c0.082-0.104,0.538-0.766,1.014-1.47c1.737-2.566,3.165-4.649,3.469-5.06c0.546-0.738,0.498-0.772,2.548,1.8
		c1.804,2.263,1.994,2.458,2.197,2.254c0.063-0.063,1.047-2.04,2.188-4.394c1.141-2.354,2.514-5.181,3.051-6.28
		C70.338,46.561,70.492,46.137,69.67,46.877z"/>
</g>
</svg>
