<?xml version="1.0" encoding="utf-8"?>
<!-- Generator: Adobe Illustrator 16.0.0, SVG Export Plug-In . SVG Version: 6.00 Build 0)  -->
<!DOCTYPE svg PUBLIC "-//W3C//DTD SVG 1.1//EN" "http://www.w3.org/Graphics/SVG/1.1/DTD/svg11.dtd">
<svg version="1.1" id="Layer_1" xmlns="http://www.w3.org/2000/svg" xmlns:xlink="http://www.w3.org/1999/xlink" x="0px" y="0px"
	 width="90px" height="90px" viewBox="0 0 90 90" enable-background="new 0 0 90 90" xml:space="preserve">
<g>
	<path d="M65.618,35.755c-1.005,0.666-2.525,1.494-4.221,2.314l0-0.002l-12.132,4.666c-0.303,0.088-0.687,0.209-1.171,0.354
		c-2.681,0.8-3.332,1.026-5.017,0.646l-11.241-3.702c-0.16-0.085-0.378-0.176-0.674-0.296c-3.322-1.346-6.276-2.827-8.1-4.06
		c-0.823-0.557-0.827-0.559-0.964-0.394c-0.1,0.12-0.052,0.37,0.607,3.206c0.154,0.659,0.365,1.577,0.469,2.039
		c1.348,5.96,1.397,6.14,1.824,6.566c1.86,1.862,10.168,6.947,17.406,10.654c2.297,1.176,1.884,1.194,4.554-0.204
		c8.514-4.462,16.774-9.717,17.282-10.993c0.049-0.122,0.306-1.296,0.571-2.607c0.599-2.965,1.201-5.655,1.609-7.191
		C66.892,34.978,66.857,34.935,65.618,35.755z M35.298,51.646c-2.305,0.01-3.9-4.874-3.287-9.661l6.681,2.2
		c0,0.038-0.001,0.075-0.001,0.115C38.622,48.524,37.184,51.638,35.298,51.646z M56.943,46.965
		c-1.478,7.573-6.505,5.437-6.544-2.739l6.631-2.55C57.262,42.96,57.221,45.54,56.943,46.965z"/>
	<path d="M69.074,26.839c-4.913-7.06-12.287-11.475-21.182-12.683c-1.054-0.144-5.141-0.211-6.32-0.104
		c-18.472,1.67-31.014,19.162-26.73,37.28c4.322,18.28,24.278,28.14,41.65,20.579C73.846,64.359,79.955,42.474,69.074,26.839z
		 M19.271,56.567c-4.789-9.596-3.512-21.411,3.221-29.793c6.065-7.552,15.605-11.454,25.159-10.29
		c20.513,2.498,31.336,25.884,19.933,43.071C55.672,77.511,28.896,75.854,19.271,56.567z"/>
</g>
</svg>
