<?xml version="1.0" encoding="utf-8"?>
<!-- Generator: Adobe Illustrator 16.0.0, SVG Export Plug-In . SVG Version: 6.00 Build 0)  -->
<!DOCTYPE svg PUBLIC "-//W3C//DTD SVG 1.1//EN" "http://www.w3.org/Graphics/SVG/1.1/DTD/svg11.dtd">
<svg version="1.1" id="Layer_1" xmlns="http://www.w3.org/2000/svg" xmlns:xlink="http://www.w3.org/1999/xlink" x="0px" y="0px"
	 width="90px" height="90px" viewBox="0 0 90 90" enable-background="new 0 0 90 90" xml:space="preserve">
<path d="M78.379,53.261c-0.224-1.459-0.426-2.679-1.104-4.016c-0.974-1.922-1.457-2.063-1.174-4.25
	c0.565-4.388-1.349-8.939-4.979-11.513c-3.126-2.215-7.596-2.388-10.854-0.355c-4.203,2.623-5.726,6.988-5.217,11.739
	c-1.307-1.241-0.531-1.731-0.795-3.301c-0.125-0.743-0.929-1.92-0.849-2.604c0.115-0.979,0.325-1.618-0.12-2.585
	c-1.561-3.397-5.492-4.386-8.88-3.911c-1.393,0.195-2.827,0.817-4.057,1.469c-1.493,0.79-1.171-1.748-1.418-2.919
	c-0.234-1.111,2.441-3.596,3.069-4.603c0.854-1.365,1.734-2.816,2.223-4.361c1.227-3.878,1.49-5.675-2.356-7.565
	c-3.403-1.673-6.09-2.715-9.943-2.647c-2.781,0.049-8.863,1.913-9.292,5.35c-0.31,2.483,3.059,2.837,4.606,3.747
	c1.453,0.855,3.118,2.194,3.202,4.022c-1.634,0.024-3.254,1.302-4.502,2.231c-0.897,0.668-2.023,2.221-3.088,2.542
	c-1.007,0.302-2.294-0.683-3.335-0.683c-2.718,0-8.784-2.263-9.527,2.153c-0.505,3.004,4.152,6.658,6.198,8.206
	c2.19,1.656,2.752,2.219,3.251,4.361c0.291,1.25,1.022,2.585,2.062,3.407c0.775,0.612,2.805,0.517,3.265,1.017
	c-0.135-0.146-1.312,4.68-1.203,5.371c0.363,2.306,2.264,4.109,4.389,4.882c1.149,1.345-0.584,5.812-0.149,7.888
	c0.843,4.003,2.116,7.089,5.835,9.256c3.706,2.16,7.919,2.439,12.084,2.778c3.307,0.269,6.885,0.29,9.995-0.98
	c2.333-0.953,4.157-2.673,6.385-3.729c1.361-0.645,3.091-0.671,4.522-1.261C73.96,69.375,79.627,61.371,78.379,53.261z
	 M61.224,36.934c3.191-2.536,7.843-1.664,10.003,1.757c2.183,3.457,1.554,8.24-1.254,11.172
	C63.925,56.177,54.282,42.448,61.224,36.934z M27.044,16.948c0.24-0.414,0.236-0.936-0.122-1.283
	c2.651-1.707,6.209-2.136,9.216-1.226c1.658,0.502,3.227,1.275,4.78,2.034c1.185,0.58,1.403,0.477,0.968,1.716
	c-0.236,0.67-0.447,1.364-0.75,2.007c-0.603,1.275-0.645,0.822-2.018,0.716c-1.279-0.079-2.543-0.196-3.811-0.379
	c-0.689-0.1-1.382-0.18-2.065-0.315c-0.15-0.03-0.351-0.047-0.68-0.017C31.129,18.846,28.908,17.691,27.044,16.948z M31.749,28.027
	c3.183,0.199,1.889-4.512,0.976-6.075c1.936,0.328,3.86,0.545,5.812,0.716c3.049,0.263,0.345,2.853-0.809,4.387
	c-0.626,0.832-1.829,1.869-2.148,2.89c-0.285,0.911,0.546,2.469,0.667,3.392c0.218,1.672,0.112,5.109-1.156,6.377
	c-1.155-1.699-2.526-2.602-3.838-4.221c-1.624-2.003-3.362-2.722-5.58-3.943C27.152,30.135,29.49,27.879,31.749,28.027z
	 M23.668,45.787c-1.887-0.533-2.454-3.66-3.01-5.198c-0.4-1.106-1.9-1.904-2.739-2.646c-1.308-1.156-2.579-2.358-3.784-3.622
	c-0.983-1.031-3.389-3.202-0.646-3.589c3.04-0.429,6.38,0.65,9.278,1.407c1.504,0.393,4.064,1.506,5.148,2.544
	c1.584,1.526,2.885,3.279,4.427,4.861c0.668,0.686,1.555,1.423,0.866,2.498c-0.883,1.378-0.673,3.579-2.455,3.527
	C28.237,45.496,26.119,46.48,23.668,45.787z M36.576,73.734c-7.059-2.463-5.58-9.246-5.223-15.052
	c0.208-3.387-2.121-2.135-4.014-4.143c-1.84-1.951-0.369-5.808,2.358-5.808c2.111,0,3.36,1.176,4.303-1.231
	c0.564-1.58,0.808-1.668,1.625-3.292c0.25-0.497,1.755-2.87,2.167-3.708c0.835-1.011,1.08-1.86,2.192-2.669
	c2.387-1.736,6.404-3.273,9.143-1.422c-3.409,0.066,0.986,3.481,1.581,4.522c-3.227-0.886-2.25,1.106-0.789,2.611
	c1.285,1.323,2.5,2.8,3.623,4.262c0.46,0.601,1.544,1.37,1.105,2.009c-0.585,0.856-1.628,2.056-2.333,2.813
	c-1.61,1.729-2.665,2.814-4.851,3.752c-3.77,1.617-10.422,1.413-12.93,5.047c-2.979,4.319-0.36,10.263,3.238,12.722
	C37.203,73.989,37.13,73.927,36.576,73.734z M72.973,62.372c-1.509,2.52-3.657,4.612-6.256,5.989
	c-2.146,1.138-4.989,1.052-6.88,2.511c-5.079,3.913-10.393,4.83-16.58,3.53c-3.525-0.741-8.205-5.214-7.846-9.361
	c0.474-5.479,7.804-4.063,12.672-6.457c5.083-2.5,7.57-5.747,10.333-9.875c3.015,4.6,10.411,8.635,14.818,0.82
	C76.585,53.172,75.308,58.476,72.973,62.372z"/>
</svg>
