<?xml version="1.0" encoding="utf-8"?>
<!-- Generator: Adobe Illustrator 16.0.0, SVG Export Plug-In . SVG Version: 6.00 Build 0)  -->
<!DOCTYPE svg PUBLIC "-//W3C//DTD SVG 1.1//EN" "http://www.w3.org/Graphics/SVG/1.1/DTD/svg11.dtd">
<svg version="1.1" id="Layer_1" xmlns="http://www.w3.org/2000/svg" xmlns:xlink="http://www.w3.org/1999/xlink" x="0px" y="0px"
	 width="90px" height="90px" viewBox="0 0 90 90" enable-background="new 0 0 90 90" xml:space="preserve">
<path d="M71.917,52.168c0.178-0.653,0.608-1.969,0.931-2.846c0.617-1.674,0.427-2.939-0.907-6.069
	c-2.386-5.59-6.399-11.447-9.466-13.815c-1.977-1.525-2.24-2.08-3.095-6.538c-0.944-4.922-1.73-6.868-3.273-8.097
	c-1.47-1.172-3.213-1.522-5.668-1.143c-2.591,0.4-3.714,2.009-2.906,4.157c0.323,0.858,0.071,4.052-0.507,6.412
	c-0.197,0.803-0.13,0.76-1.428,0.952c-2.163,0.323-4.376,0.813-8.044,1.782c-1.021,0.27-0.753,0.36-2.267-0.763
	c-1.572-1.165-2.415-1.869-3.271-2.732c-1.427-1.438-3.334-2.097-7.113-2.46c-6.171-0.594-10.865,1.054-10.865,3.813
	c0,1.55,1.025,2.596,3.511,3.583c3.635,1.444,5.779,3.811,7.574,8.362l0.353,0.897l-0.267,0.987
	c-0.957,3.539-1.254,7.859-0.939,13.613c0.266,4.854,2.389,9.106,6.688,13.396c3.843,3.836,5.21,4.469,12.35,5.725
	c0.732,0.128,2.229,0.394,3.326,0.591c6.113,1.097,15.582,2.588,16.433,2.588c0.693,0,1.288-0.166,1.82-0.506
	c0.234-0.149,0.46-0.234,0.628-0.234c1.569-0.004,4.204-1.318,5.774-2.881c1.641-1.634,1.623-2.433-0.15-6.579
	c-0.478-1.118-0.923-2.175-0.99-2.349c-0.283-0.731-0.076-2.425,0.694-5.708C71.086,55.263,71.321,54.356,71.917,52.168z
	 M29.93,26.217c0.397,0.366,0.865,0.78,1.065,0.942c0.182,0.146,0.595,0.482,0.918,0.747c0.729,0.597,2.104,1.611,2.943,2.169
	c0.396,0.263,0.771,0.513,1.363,0.513c0.427,0,0.896-0.124,1.83-0.381c3.754-1.033,6.689-1.654,9.518-2.014
	c0.667-0.084,1.127-0.199,1.493-0.372c0.003-0.001,0.268-0.121,1.198-0.121c1.121,0,2.516,0.176,3.552,0.447
	c0.4,0.105,0.645,0.159,0.872,0.159c0.486,0,0.743-0.259,0.853-0.413c0.335-0.472,0.156-0.992-0.053-1.594
	c-0.409-1.186-0.832-3.941-0.962-6.274c-0.049-0.869-0.104-1.572-0.215-2.155c0.647,0.953,1.176,2.814,1.968,7.054
	c0.662,3.544,1.563,5.212,3.709,6.862c2.732,2.101,5.728,6.317,8.221,11.566c1.633,3.44,1.677,3.959,1.192,5.332
	c-0.601,1.699-1.66,5.405-1.92,6.721c-0.024,0.123-0.12,0.56-0.222,1.015c-0.268,1.184-0.545,2.862-0.645,3.904
	c-0.178,1.85-0.034,2.182,1.728,6.243c0.265,0.61,0.627,1.446,0.6,1.728c-0.013,0.135-0.36,0.424-0.685,0.686
	c-0.983,0.789-1.958,1.218-3.262,1.434c-0.794,0.131-1.148,0.24-1.72,0.532l-0.388,0.197l-0.568-0.06
	c-0.806-0.084-2.296-0.308-4.197-0.63c-0.564-0.096-1.596-0.265-2.302-0.374c-2.231-0.351-3.722-0.598-6.379-1.062
	c-0.692-0.121-1.775-0.307-2.407-0.414c-0.618-0.104-1.458-0.252-1.87-0.329c-0.408-0.076-1.226-0.226-1.817-0.332
	c-4.807-0.866-5.373-1.067-6.712-1.929c-4.785-3.077-8.776-8.893-9.086-13.24c-0.388-5.438,0.042-11.681,0.958-13.916
	c0.524-1.279-0.039-2.892-1.259-5.419c-1.683-3.483-3.604-5.672-6.488-7.246c0.612,0.022,1.398,0.036,2.408,0.036
	c0.898,0,5.333-0.019,6.376-0.363C29.661,25.968,29.833,26.127,29.93,26.217z M49.561,17.356c-0.299-1.185-0.201-1.332,1.08-1.628
	c0.192-0.045,0.419-0.079,0.66-0.102c-0.134,0.231-0.172,0.468-0.106,0.704c0.108,0.388,0.393,0.532,0.705,0.691
	c0.573,0.292,0.811,0.413,0.962,3.097c0.126,2.27,0.51,4.857,0.922,6.312c-1.101-0.245-2.41-0.394-3.524-0.394
	c-0.912,0-1.406,0.103-1.672,0.187c0.125-0.341,0.261-0.844,0.448-1.599C49.651,22.141,49.9,18.698,49.561,17.356z M19.358,23.185
	c1.19-0.256,5.53-0.264,6.578-0.012c0.366,0.087,0.832,0.179,1.035,0.202c0.836,0.098,1.644,0.38,2.365,0.812
	c-0.131,0.027-0.249,0.069-0.354,0.113c-0.426,0.129-2.855,0.267-5.82,0.267c-2.475,0-3.716-0.099-3.947-0.166
	c0.001,0,0.038,0.012,0.09,0.042c-0.137-0.072-0.615-0.244-2.057-0.244c-0.307,0-0.623,0.001-0.89,0.245
	C16.685,23.971,17.686,23.543,19.358,23.185z"/>
</svg>
