<?xml version="1.0" encoding="utf-8"?>
<!-- Generator: Adobe Illustrator 16.0.0, SVG Export Plug-In . SVG Version: 6.00 Build 0)  -->
<!DOCTYPE svg PUBLIC "-//W3C//DTD SVG 1.1//EN" "http://www.w3.org/Graphics/SVG/1.1/DTD/svg11.dtd">
<svg version="1.1" id="Layer_1" xmlns="http://www.w3.org/2000/svg" xmlns:xlink="http://www.w3.org/1999/xlink" x="0px" y="0px"
	 width="90px" height="90px" viewBox="0 0 90 90" enable-background="new 0 0 90 90" xml:space="preserve">
<path d="M68.364,15.79c-8.974,0-17.902,0.21-26.875,0.21c-4.416,0-8.831,0-13.246,0c-2.204,0-4.407,0-6.61,0
	c-1.853,0-3.373,1.025-4.506,2.459c-2.26,2.857-1.19,7.941-1.192,11.443c-0.003,4.646-0.006,9.24-0.008,13.886
	c-0.003,4.418-0.006,8.811-0.008,13.229c-0.002,2.209-0.003,4.405-0.005,6.615c-0.001,2.249-0.528,4.898,0.755,6.828
	c0.811,1.22,1.896,2.323,3.163,3.053C21.381,74.406,24.113,74,25.886,74c4.648,0,9.296,0,13.943,0c9.162,0,18.325,0,27.487,0
	c2.046,0,3.453-0.465,4.924-2.019c0.529-0.56,1.76-2.083,1.76-2.895c0-1.051,0-2.101,0-3.152c0-7.085,0-14.17,0-21.255
	c0-6.952,0-13.904,0-20.855c0-1.12,0-2.239,0-3.359C74,18.063,70.455,15.79,68.364,15.79z M30.09,65.089
	c0.002,1.732,0.009,3.464-0.014,5.196c-2.345,0.052-4.829,0.226-7.159-0.082c-4.877-0.644-3.471-7.384-3.521-10.806
	c3.569,0.052,7.139,0.051,10.708-0.01C30.077,61.288,30.089,63.189,30.09,65.089z M32.516,71.609
	c0.577-2.482,0.046-5.296,0.042-7.832c-0.002-1.43-0.001-2.859,0.019-4.289c1.208-0.024,2.416-0.025,3.624-0.04
	c2.882-0.035,3.313-0.572,3.359-3.463c0.01-0.716,0.02-1.433,0.028-2.149c-0.337-1.075,0.03-1.434,1.101-1.078
	c1.798-0.004,3.597-0.002,5.395,0.007c1.439,0.006,2.878,0.017,4.316,0.03c0.025,1.141,0.031,2.282,0.047,3.423
	c0.036,2.591,0.497,3.191,3.118,3.226c1.265,0.017,2.528,0.018,3.793,0.043c0.025,1.313,0.035,2.626,0.041,3.939
	c0.012,2.645-0.432,5.762,0.135,8.351C49.781,71.688,40.861,71.393,32.516,71.609z M66.036,70.313
	c-1.358,0.002-2.717,0.006-4.075,0.002c-2.197-0.008-2.046,0.002-2.066-2.186c-0.027-2.894-0.016-5.788-0.064-8.681
	c3.605,0.079,7.213,0.075,10.818-0.031C70.577,63.426,71.962,70.306,66.036,70.313z M70.644,41.539
	c0.003,2.201,0.01,4.402,0.012,6.603c0.001,1.834-0.001,3.668-0.011,5.502c-0.004,0.733-0.01,1.467-0.017,2.201
	c-0.017,1.691-0.679,1.275-2.132,1.21c-1.19-0.053-13.621-0.159-15.282-0.21c-0.035-1.414-0.095-2.841-0.077-4.255
	c0.04-3.28-2.47-2.52-5.005-2.522c-3.083-0.002-6.333-0.3-9.4-0.02c-1.303,0.12-1.767,0.959-1.809,2.177
	c-0.033,0.917-0.031,1.833-0.027,2.75c0.006,1.39,0.525,1.827-1.095,1.847c-3.643,0.045-7.285,0.11-10.928,0.125
	c-1.821,0.008-3.644,0.003-5.465-0.022c-0.032-2.198-0.046-4.396-0.051-6.594c-0.008-3.664,0.008-7.328,0.002-10.992
	c2.087-0.023,6.577,1.234,6.758-1.823c0.079-1.336-0.016-2.702-0.011-4.04c-0.292-0.965,0.081-1.268,1.118-0.909
	c1.11-0.011,2.222-0.021,3.333-0.031c4.074-0.034,8.149-0.055,12.224-0.063c3.705-0.007,7.41-0.003,11.114,0.011
	c1.853,0.007,3.704,0.018,5.557,0.031c1.111,0.008,2.223,0.017,3.333,0.026c1.643,0.015,1.117,0.443,1.108,1.849
	c-0.022,3.488-0.243,4.967,3.624,4.949c0.694-0.005,1.389-0.007,2.083-0.008C71.259,39.333,70.642,40.138,70.644,41.539z
	 M66.418,36.738c-0.018-1.639,0.721-4.751-0.313-6.167c-0.981-1.346-5.21-0.616-6.646-0.624c-5.624-0.033-11.249-0.03-16.874-0.026
	c-5.546,0.005-11.133,0.238-16.674,0.044c-3.077-0.107-2.585,2.196-2.582,4.573c0.002,2.152,0.21,2.204-1.963,2.205
	c-1.159,0-2.435-0.169-3.573,0.1c0.001-0.491-0.043-12.134,0.332-14.593c1.205-6.186,8.53-4.653,13.139-4.66
	c6.642-0.01,13.284-0.007,19.927-0.003c3.321,0.002,6.643,0.004,9.963,0.005c2.812,0,6.04-0.588,8.486,1.061
	c2.694,1.816,2.313,4.704,2.314,7.525c0.002,3.548-0.043,7.096,0.022,10.644C70.142,36.487,68.268,36.755,66.418,36.738z"/>
</svg>
