<?xml version="1.0" encoding="utf-8"?>
<!-- Generator: Adobe Illustrator 16.0.0, SVG Export Plug-In . SVG Version: 6.00 Build 0)  -->
<!DOCTYPE svg PUBLIC "-//W3C//DTD SVG 1.1//EN" "http://www.w3.org/Graphics/SVG/1.1/DTD/svg11.dtd">
<svg version="1.1" id="Layer_1" xmlns="http://www.w3.org/2000/svg" xmlns:xlink="http://www.w3.org/1999/xlink" x="0px" y="0px"
	 width="90px" height="90px" viewBox="0 0 90 90" enable-background="new 0 0 90 90" xml:space="preserve">
<path fill="#0F0604" d="M70.027,55.348c-0.923-0.767-1.1-0.997-1.702-2.219c-1.652-3.35-4.003-5.797-7.072-7.364
	c-0.658-0.335-0.74-0.401-0.692-0.549c0.107-0.329,0.138-3.322,0.043-4.112c-0.277-2.304-0.626-3.7-1.467-5.87L58.93,34.7
	l0.765-0.786c5.336-5.487,9.039-14.599,7.797-19.186c-0.746-2.757-2.928-4.115-5.834-3.631c-2.997,0.5-6.431,3.492-11.529,10.051
	c-0.453,0.583-0.831,1.06-0.84,1.06c-0.009,0-0.483-0.209-1.053-0.465c-7.787-3.495-16.676-1.491-23.238,5.238
	c-3.583,3.674-5.232,7.17-5.808,12.314c-0.031,0.277-0.082,0.352-0.333,0.495c-3.577,2.023-4.933,8.849-2.92,14.698
	c1.485,4.317,4.82,7.351,8.834,8.037c0.77,0.131,0.869,0.159,0.869,0.246c0,0.992,2.188,5.192,3.667,7.037
	c9.551,11.913,32.21,10.354,40.669-2.801C73.573,61.411,73.587,58.305,70.027,55.348z M36.592,49.686
	c-0.159,0.084-0.334,0.171-0.457,0.232c-1.619,0.806-2.806,1.48-3.884,2.209c-0.569-2.489-2.721-6.413-4.696-8.532
	c-0.167-0.18-0.319-0.342-0.461-0.492c0.061-0.088,0.119-0.186,0.175-0.294c0.382-0.739,0.846-1.513,0.963-1.67
	c0.159-0.183,0.393-0.535,0.508-0.718c0.104-0.166,0.209-0.305,0.252-0.356c0.246-0.224,0.439-0.573,0.505-0.7
	c0.198-0.315,1.497-1.694,2.06-2.122l0.921-0.701c0.219-0.167,0.557-0.406,0.723-0.512c0.199-0.126,0.536-0.351,0.752-0.5
	c0.145-0.1,0.487-0.298,0.729-0.411c0.06-0.028,0.125-0.062,0.193-0.096c-0.266,0.405-0.493,0.842-0.677,1.313
	C32.89,39.681,33.741,44.416,36.592,49.686z M60.041,28.572c-0.167,0.203-0.439,0.577-0.62,0.851
	c-0.46,0.699-2.267,2.575-3.145,3.38c-0.041-0.049-0.086-0.104-0.133-0.166c-1.052-1.381-2.529-2.115-4.788-2.38
	c-0.358-0.042-0.891-0.113-1.165-0.154c-0.437-0.067-2.219-0.092-3.311-0.093h-0.153c-2.728,0-3.238,0.047-4.962,0.464
	c-0.476,0.115-1.195,0.272-1.604,0.351c-0.497,0.096-1.133,0.279-1.479,0.425c-0.24,0.102-0.752,0.271-1.097,0.364
	c-0.426,0.114-1.025,0.333-1.345,0.531c-0.12,0.074-0.463,0.228-0.712,0.309c-0.266,0.087-0.799,0.296-1.109,0.528
	c-0.065,0.049-0.337,0.21-0.589,0.329c-0.326,0.154-0.761,0.401-1.014,0.576c-0.195,0.135-0.511,0.345-0.688,0.458
	c-0.214,0.136-0.592,0.403-0.86,0.608l-0.919,0.699c-0.665,0.505-2.318,2.192-2.623,2.791c-0.034,0.065-0.08,0.135-0.104,0.168
	c-0.224,0.21-0.47,0.584-0.571,0.744c-0.14,0.222-0.286,0.425-0.318,0.464c-0.254,0.283-0.807,1.265-1.105,1.822
	c-0.718-0.567-1.878-1.077-2.866-1.252c-0.117-0.021-0.229-0.042-0.33-0.063l0.018-0.424c0.042-0.949,0.086-1.211,0.229-1.683
	c0.115-0.38,0.263-0.933,0.308-1.209c0.121-0.741,0.324-1.335,0.422-1.503c0.151-0.258,0.347-0.715,0.455-1.064
	c0.06-0.192,0.176-0.423,0.217-0.48c0.184-0.241,0.415-0.647,0.55-0.924c0.105-0.217,0.293-0.527,0.391-0.658
	c0.142-0.191,0.35-0.489,0.456-0.665c0.043-0.072,0.201-0.296,0.351-0.486l0.764-0.966c0.747-0.945,2.347-2.392,3.642-3.293
	c0.196-0.137,0.566-0.405,0.746-0.566c0.053-0.04,0.216-0.142,0.387-0.227c0.258-0.128,0.625-0.336,0.828-0.486
	c0.25-0.178,1.78-0.908,2.345-1.082c0.303-0.094,0.73-0.258,0.988-0.406c0.116-0.045,0.503-0.16,0.997-0.256
	c0.579-0.113,1.441-0.304,1.922-0.425c0.629-0.159,1.368-0.243,2.138-0.243s1.528,0.084,2.191,0.243
	c0.647,0.155,1.509,0.345,1.921,0.423c0.348,0.065,0.766,0.204,0.89,0.268c0.249,0.127,0.652,0.307,0.909,0.389
	c0.391,0.125,1.817,0.888,2.062,1.082c0.358,0.314,0.77,0.481,1.19,0.481c0.374,0,0.723-0.131,1.01-0.377
	c0.376-0.323,1.565-1.826,2.097-2.542c0.388-0.522,1.012-1.296,1.668-2.069c0.178-0.209,0.559-0.665,0.848-1.013
	c3.084-3.717,5.688-5.575,6.901-5.767c0.054-0.008,0.212-0.029,0.509-0.029c0.375,0,0.675,0.032,0.802,0.055
	c0.255,0.161,0.589,0.516,0.672,0.67c0.415,1.263,0.439,1.806,0.16,3.381c-0.134,0.75-0.279,1.576-0.324,1.833
	c-0.028,0.159-0.125,0.458-0.192,0.59c-0.159,0.313-0.373,0.908-0.494,1.311c-0.099,0.331-0.222,0.628-0.27,0.716
	c-0.199,0.292-0.398,0.8-0.487,1.061c-0.092,0.269-0.242,0.571-0.294,0.646c-0.174,0.248-0.381,0.639-0.49,0.931
	c-0.048,0.129-0.18,0.373-0.261,0.484c-0.164,0.226-0.418,0.649-0.59,0.983C60.701,27.631,60.329,28.222,60.041,28.572z
	 M48.953,32.035c-0.853,0.906-1.442,2.204-1.758,3.892c-1.368-1.696-3.101-2.944-4.853-3.536c1.473-0.353,1.854-0.382,4.384-0.382
	h0.152C47.688,32.01,48.413,32.021,48.953,32.035z M22.245,42.455c0.281,0.019,1.063,0.211,1.313,0.342
	c0.898,0.469,1.069,0.59,2.535,2.162c1.758,1.886,3.819,5.657,4.241,7.759c0.156,0.777,0.369,1.841,1.439,1.841h0
	c0.489,0,0.895-0.285,1.288-0.561c1.084-0.76,2.271-1.445,3.967-2.29c0.894-0.445,1.484-0.739,1.688-1.39
	c0.183-0.586-0.092-1.088-0.275-1.421c-2.599-4.741-3.466-9.054-2.379-11.832c0.555-1.42,1.607-2.399,3.125-2.909
	c0.293-0.098,0.618-0.148,0.967-0.148c1.983,0,4.451,1.593,6.002,3.874c0.411,0.604,0.835,1.228,1.552,1.228l0,0
	c1.1,0,1.239-1.209,1.322-1.931c0.301-2.628,1.166-4.113,2.64-4.539c0.432-0.125,1.015-0.052,1.496,0.189
	c0.581,0.291,1.508,1.19,1.679,1.517c0.131,0.429,0.608,1.352,0.664,1.459c1.488,2.856,2.132,6.807,1.568,9.606
	c-0.168,0.834-0.29,1.438-0.049,1.996c0.284,0.659,0.892,0.891,1.536,1.136c2.998,1.141,5.027,3.08,6.786,6.484
	c0.834,1.616,1.138,2.003,2.496,3.18c1.685,1.461,1.875,1.939,0.502,4.674c-1.45,2.889-3.147,4.958-5.504,6.707
	c-0.854,0.635-1.171,0.843-2.426,1.594c-3.39,2.03-8.013,3.195-12.683,3.195c-2.635,0-5.142-0.386-7.249-1.114
	c-5.886-2.037-9.732-6.024-11.434-11.854c-0.394-1.35-0.476-1.63-1.037-1.93c-0.102-0.055-0.342-0.183-1.447-0.267
	c-2.849-0.215-5.028-1.657-6.476-4.286c-1.832-3.326-1.919-8.483-0.186-11.036C20.443,43.099,21.039,42.731,22.245,42.455z"/>
</svg>
