<?xml version="1.0" encoding="utf-8"?>
<!-- Generator: Adobe Illustrator 16.0.0, SVG Export Plug-In . SVG Version: 6.00 Build 0)  -->
<!DOCTYPE svg PUBLIC "-//W3C//DTD SVG 1.1//EN" "http://www.w3.org/Graphics/SVG/1.1/DTD/svg11.dtd">
<svg version="1.1" id="Layer_1" xmlns="http://www.w3.org/2000/svg" xmlns:xlink="http://www.w3.org/1999/xlink" x="0px" y="0px"
	 width="90px" height="90px" viewBox="0 0 90 90" enable-background="new 0 0 90 90" xml:space="preserve">
<path d="M78.379,53.261c-0.061-0.395-0.128-0.96-0.151-1.255c-0.023-0.296-0.097-0.651-0.165-0.789
	c-0.068-0.138-0.142-0.367-0.164-0.507c-0.054-0.354-0.833-1.968-1.146-2.372c-0.14-0.183-0.295-0.409-0.345-0.502
	c-0.049-0.093-0.216-0.323-0.371-0.51c-0.324-0.389-0.329-0.603-0.042-1.741c0.25-0.997,0.269-3.219,0.033-4.233
	c-0.101-0.434-0.204-0.902-0.231-1.04c-0.293-1.537-1.542-3.815-2.858-5.213c-1.828-1.941-3.489-2.832-6.213-3.329
	c-0.646-0.118-2.305-0.078-2.881,0.069c-0.295,0.076-0.693,0.161-0.886,0.19c-1.632,0.244-3.784,1.588-5.28,3.294
	c-2.236,2.55-3.051,5.244-2.691,8.899l0.063,0.645l-0.35-0.388c-0.655-0.725-0.713-0.843-0.562-1.146
	c0.413-0.827,0.13-2.504-0.699-4.149c-0.064-0.126-0.049-0.257,0.074-0.629c0.6-1.827-1.193-4.36-3.977-5.619
	c-0.279-0.126-0.562-0.229-0.627-0.229s-0.31-0.066-0.543-0.147c-0.668-0.231-3.638-0.246-4.312-0.021
	c-0.257,0.086-0.586,0.176-0.733,0.201c-0.146,0.025-0.566,0.16-0.933,0.3c-0.366,0.141-0.789,0.301-0.94,0.357
	c-0.151,0.056-0.646,0.298-1.1,0.539c-0.967,0.511-0.892,0.54-0.968-0.37c-0.034-0.397-0.111-0.955-0.172-1.24
	c-0.061-0.284-0.161-0.754-0.223-1.045l-0.112-0.529l0.205-0.276c0.112-0.153,0.529-0.706,0.926-1.229
	c0.851-1.12,1.511-2.059,1.994-2.833c0.192-0.307,0.46-0.736,0.597-0.953c0.433-0.691,1.422-2.762,1.626-3.409
	c1.639-5.183,1.485-5.678-2.356-7.565c-3.494-1.718-3.6-1.762-5.596-2.378c-0.795-0.245-3.857-0.355-5.74-0.207
	c-0.653,0.052-1.605,0.293-2.191,0.556c-0.176,0.079-0.401,0.168-0.5,0.198c-1.494,0.453-4.674,2.921-5.054,3.923
	c-0.551,1.449,0.245,2.753,2.005,3.284c2.887,0.872,5.403,2.976,5.601,4.683l0.047,0.412H30.22c-1.158,0-4.188,1.902-6.464,4.058
	c-0.91,0.863-0.875,0.852-1.903,0.572c-1.075-0.292-2.149-0.541-2.339-0.541c-0.098,0-0.408-0.063-0.688-0.141
	s-0.854-0.174-1.277-0.214c-0.422-0.041-0.902-0.11-1.067-0.156c-0.478-0.134-2.564-0.118-3.205,0.023
	c-0.296,0.065-0.666,0.141-0.82,0.167c-2.265,0.376-3.276,3.036-1.858,4.886c0.118,0.153,0.356,0.472,0.532,0.708
	c0.485,0.657,4.697,4.848,5.503,5.474c0.358,0.279,1.405,1.201,1.81,1.593c0.109,0.107,0.268,0.428,0.389,0.79
	c0.429,1.279,1.072,2.734,1.73,3.911c0.701,1.252,2.178,2.044,3.813,2.044c0.444,0,0.49,0.05,0.301,0.328
	c-1.247,1.835-1.564,4.644-0.726,6.416c0.792,1.674,2.169,2.904,3.999,3.569l0.358,0.131l0.021,0.523
	c0.015,0.352-0.025,0.705-0.121,1.074c-0.079,0.303-0.178,0.841-0.222,1.196c-0.044,0.355-0.126,0.85-0.184,1.098
	c-0.143,0.621-0.144,3.186-0.002,3.865c0.057,0.269,0.14,0.764,0.186,1.099c0.693,5.115,4.618,8.76,10.904,10.129
	c0.178,0.039,0.607,0.133,0.954,0.209c0.348,0.078,1.09,0.169,1.65,0.205c0.56,0.036,1.108,0.099,1.217,0.14
	c0.108,0.042,0.802,0.11,1.543,0.151c0.739,0.042,1.621,0.107,1.958,0.146c0.977,0.109,4.362,0.084,5.161-0.039
	c0.375-0.058,0.879-0.106,1.123-0.107c0.651-0.001,1.912-0.346,3.218-0.879c1.917-0.784,3.602-1.758,5.824-3.369
	c0.5-0.363,0.652-0.434,1.027-0.487c0.954-0.135,3.036-0.688,3.521-0.936c0.152-0.077,0.316-0.141,0.364-0.141
	c0.185,0,2.714-1.296,3.362-1.723c3.533-2.325,6.927-6.711,8.041-10.389c0.08-0.264,0.178-0.577,0.219-0.695
	s0.102-0.538,0.137-0.933c0.035-0.395,0.113-1.041,0.172-1.435C78.525,56.325,78.525,54.209,78.379,53.261z M35.412,65.041
	c0.231-2.674,1.271-3.709,4.449-4.431c0.474-0.108,1.186-0.271,1.581-0.361c0.399-0.091,1.051-0.235,1.454-0.319
	c3.192-0.674,7.206-2.346,8.947-3.729c1.289-1.023,3.723-3.636,4.65-4.992c0.232-0.339,0.484-0.649,0.547-0.712
	c0.247-0.241,0.517-0.647,0.666-0.925c0.094-0.177,0.385-0.649,0.667-1.071c1.858,2.834,5.322,5.121,7.981,5.155l0.065,0
	c2.406,0,4.982-1.79,6.504-4.488c3.689,4.011,2.566,11.394-2.519,16.492c-2.107,2.112-5.077,3.687-7.946,4.211
	c-1.588,0.29-1.759,0.335-2.621,1c-3.708,2.856-7.356,4.246-11.155,4.246c-0.928,0-1.885-0.084-2.845-0.25
	c-3-0.518-3.049-0.537-3.888-0.867C37.454,72.237,35.071,68.971,35.412,65.041z M61.224,36.934c1.261-1.002,2.722-1.524,4.182-1.524
	c0.588,0,1.177,0.084,1.752,0.257l0,0c2.307,0.692,3.832,2.106,4.799,4.452c0.906,2.199,0.751,4.938-0.304,7.263
	c-0.107,0.174-0.207,0.365-0.308,0.559c-0.752,1.447-1.885,2.604-3.069,3.23c-0.866,0.428-1.775,0.575-2.663,0.405
	c-0.165-0.032-0.329-0.073-0.493-0.119c-1.464-0.469-3.103-1.619-4.313-3.01c-1.303-1.592-2.194-3.587-2.318-5.556
	C58.346,40.634,59.368,38.408,61.224,36.934z M27.044,16.948c0.189-0.326,0.223-0.645,0.1-0.953
	c-0.051-0.127-0.127-0.238-0.222-0.33c2.134-1.374,4.9-1.94,7.808-1.552c0.989,0.132,2.512,0.639,4.015,1.334
	c1.767,0.817,2.859,1.348,3.501,1.716l-0.722,2.052c-0.131,0.37-0.31,0.815-0.388,0.981c-0.132,0.28-0.2,0.463-0.235,0.591
	c-0.037,0.066-0.111,0.19-0.215,0.345c-0.005,0.009-0.011,0.017-0.017,0.026c-0.368-0.165-0.831-0.196-1.199-0.221
	c-0.104-0.007-0.217-0.014-0.351-0.024c-0.158-0.01-0.294-0.021-0.428-0.033c-0.258-0.022-0.524-0.045-0.89-0.05
	c-0.188-0.022-0.825-0.094-1.112-0.106c-1.393-0.177-3.863-0.558-4.155-0.632c0.131,0.033,0.267,0.114,0.378,0.231
	c-0.167-0.158-0.417-0.263-0.75-0.313c-0.046-0.008-0.099-0.015-0.156-0.023c-0.045-0.052-0.094-0.103-0.147-0.153
	C30.623,18.687,29.08,17.76,27.044,16.948z M31.749,28.027c0.125,0.008,0.236,0.013,0.335,0.013c1.397,0,1.539-1.109,1.607-1.642
	c0.192-1.508-0.148-3.044-0.967-4.446c0.288,0.049,0.656,0.107,1.057,0.169c0.978,0.15,2.047,0.303,2.725,0.388l0.101,0.007
	c0.128,0.002,0.777,0.07,1.029,0.101l0.102,0.007c0.322,0.002,0.542,0.021,0.799,0.044c0.147,0.013,0.299,0.025,0.461,0.036
	c0.127,0.009,0.244,0.018,0.352,0.024c0.117,0.007,0.243,0.016,0.349,0.025c0.041,0.063,0.088,0.124,0.142,0.185
	c0.059,0.066,0.119,0.125,0.181,0.176c0.047,0.07,0.102,0.133,0.165,0.188c-0.955,1.717-2.212,3.535-3.632,5.232l-0.105,0.125
	c-0.929,1.109-1.154,1.447-0.699,2.614l0.035,0.089c0.626,1.619,0.771,4.552,0.323,6.54c-0.145,0.64-0.235,1.118-0.143,1.503
	c-0.121,0.167-0.222,0.362-0.274,0.588c-0.018,0.027-0.062,0.082-0.156,0.173c-0.022,0.022-0.045,0.044-0.066,0.065
	c-0.219-0.322-0.631-0.731-1.384-1.479c-0.787-0.781-1.447-1.507-1.556-1.663c-0.176-0.252-0.339-0.486-0.54-0.641
	c-0.015-0.02-0.034-0.046-0.054-0.077c-0.141-0.213-1.856-2.434-2.486-2.753c-0.045-0.026-0.179-0.124-0.291-0.232
	c-0.233-0.223-0.612-0.497-0.929-0.601c-0.109-0.039-0.641-0.274-1.261-0.572c-0.529-0.254-0.951-0.475-1.296-0.666
	C28.105,29.225,30.313,27.933,31.749,28.027z M20.658,40.589c-0.161-0.444-0.258-0.549-1.347-1.452
	c-3.467-2.878-7.215-6.741-7.215-7.439c0-1.465,3.938-1.357,10.041,0.273c0.785,0.21,1.066,0.285,1.22,0.299
	c0.058,0.031,0.11,0.063,0.155,0.095l0.083,0.053c0.097,0.055,0.207,0.12,0.333,0.195c0.457,0.271,1.146,0.682,2.264,1.218
	c0.386,0.186,1.172,0.553,1.448,0.65c0.052,0.026,0.183,0.113,0.276,0.202c0.04,0.039,0.364,0.345,0.685,0.517
	c0.312,0.285,1.489,1.635,1.837,2.162c0.119,0.18,0.254,0.365,0.429,0.498c0.042,0.052,0.108,0.14,0.189,0.255
	c0.263,0.378,1.199,1.35,1.764,1.911c0.416,0.413,0.92,0.915,1.096,1.124c0.03,0.249,0.119,0.661,0.322,0.994
	c-0.059,0.1-0.138,0.229-0.229,0.372c-0.342,0.533-0.884,2.012-1.243,3.113c-0.925-0.14-2.931-0.111-5.259,0.096
	C22.551,46.166,22.722,46.293,20.658,40.589z M36.576,73.734c-1.901-0.664-3.97-2.33-4.71-3.793
	c-1.272-2.519-1.516-5.638-0.723-9.271c0.137-0.627,0.365-3.375,0.181-3.901c-0.215-0.617-0.7-0.749-1.581-0.989
	c-2.21-0.6-3.15-1.598-3.146-3.335c0.004-1.39,0.451-2.5,1.259-3.126c0.503-0.391,1.127-0.588,1.841-0.588
	c0.362,0,0.747,0.051,1.15,0.153l0.088,0.022c1.616,0.411,1.941,0.24,2.487-1.307l0.111-0.315c0.037-0.103,0.071-0.199,0.102-0.289
	l0.028,0.007c0.037-0.149,0.092-0.343,0.16-0.564c0.003-0.01,0.005-0.02,0.009-0.03c0.332-1.077,0.953-2.78,1.231-3.215
	c0.041-0.064,0.194-0.306,0.312-0.512c0.542-0.089,1.119-0.525,1.279-1.089c0.03-0.037,0.074-0.085,0.127-0.137
	c0.229-0.222,0.541-0.565,0.646-1.013c0.019-0.022,0.058-0.066,0.134-0.134c0.222-0.202,0.639-0.581,0.652-1.069
	c0.636-0.548,1.732-1.418,2.25-1.737c3.391-2.084,6.623-2.472,8.662-1.094c-1.036,0.02-1.303,0.379-1.405,0.685
	c-0.165,0.497,0.135,0.953,0.895,1.358c0.74,0.395,1.578,1.388,2.086,2.47c0.001,0.003,0.002,0.006,0.004,0.009
	c-0.995-0.273-1.687-0.297-2.06-0.071c-0.193,0.117-0.322,0.299-0.363,0.512c-0.073,0.385,0.103,0.645,1.108,1.64
	c0.548,0.543,1.07,1.095,1.195,1.251c0.384,0.479,1.682,2.028,2.24,2.674c0.229,0.264,0.555,0.662,0.714,0.868
	c0.737,0.962,1.205,1.573,1.586,1.925c-0.101,0.134-0.193,0.265-0.263,0.366c-0.814,1.19-3.117,3.663-4.248,4.562
	c-1.488,1.181-5.286,2.743-8.127,3.342c-0.412,0.087-1.08,0.234-1.488,0.328c-0.394,0.09-1.103,0.252-1.577,0.359
	c-3.995,0.908-5.671,2.642-5.978,6.185c-0.328,3.794,1.429,7.154,4.8,9.418c-0.286-0.079-0.547-0.16-0.77-0.238
	C37.179,73.946,36.774,73.803,36.576,73.734z"/>
</svg>
