<?xml version="1.0" encoding="utf-8"?>
<!-- Generator: Adobe Illustrator 16.0.0, SVG Export Plug-In . SVG Version: 6.00 Build 0)  -->
<!DOCTYPE svg PUBLIC "-//W3C//DTD SVG 1.1//EN" "http://www.w3.org/Graphics/SVG/1.1/DTD/svg11.dtd">
<svg version="1.1" id="Layer_1" xmlns="http://www.w3.org/2000/svg" xmlns:xlink="http://www.w3.org/1999/xlink" x="0px" y="0px"
	 width="90px" height="90px" viewBox="0 0 90 90" enable-background="new 0 0 90 90" xml:space="preserve">
<path d="M69.367,51.548c2.862-2.812,5.549-6.956,6.142-9.475c0.507-2.152-0.845-3.307-3.355-2.864
	c-0.951,0.168-0.818,0.277-1.432-1.185c-3.334-7.946-5.303-12.331-5.987-13.339c-0.84-1.236-3.091-2.584-5.972-3.572l-1.051-0.361
	l-0.205-0.627c-0.781-2.4-1.723-3.516-3.577-4.242c-5.692-2.23-11.65-3.123-18.407-2.756c-3.015,0.162-5.268,0.338-5.851,0.453
	c-0.882,0.176-1.438,0.872-1.488,1.861c-0.061,1.198,0.346,1.719,1.887,2.418c0.507,0.229,0.922,0.435,0.924,0.456
	c0.001,0.021-0.34,0.178-0.758,0.349c-4.535,1.843-8.792,5.323-13.247,10.831c-1.055,1.304-1.163,1.521-1.158,2.324
	c0.012,1.752,1.333,2.415,3.479,1.747c0.744-0.232,0.946-0.235,0.731-0.012c-0.311,0.324-1.214,3.029-1.558,4.661
	c-0.266,1.266-0.151,1.139-0.902,1.001c-2.125-0.39-3.406,0.278-3.533,1.844c-0.175,2.174,2.586,6.776,6.356,10.595
	c0.999,1.013,1.229,1.285,1.452,1.728c0.293,0.582,0.696,0.928,1.244,1.068c0.585,0.149,0.684,0.211,0.684,0.432
	c0,0.607-1.162,5.875-1.542,6.992c-0.66,1.938,0.067,3.323,1.745,3.323h0.411l0.041,0.901c0.154,3.434,1.241,4.737,6.274,7.522
	c2.084,1.153,2.664,1.285,3.58,0.818c1.041-0.529,1.201-1.226,0.852-3.69c-0.698-4.932-0.742-5.337-0.57-5.192
	c3.087,2.593,5.307,3.787,7.736,4.161c0.525,0.082,1.243,0.194,1.596,0.253c0.352,0.059,0.764,0.106,0.915,0.106
	s0.563-0.048,0.916-0.106c0.352-0.059,1.07-0.171,1.595-0.253c2.291-0.353,4.715-1.604,7.16-3.692
	c0.363-0.311,0.406-0.331,0.406-0.189c0,0.166-0.467,3.69-0.706,5.316c-0.293,2.002-0.098,2.748,0.854,3.272
	c0.925,0.508,1.519,0.363,3.884-0.949c3.511-1.948,5.158-3.382,5.592-4.866c0.111-0.38,0.034-0.414,0.863,0.376
	c2.801,2.663,6.646,3.609,7.876,1.939c1.324-1.798,1.332-5.515,0.02-8.793c-0.323-0.81-0.326-0.83-0.129-1.008
	c1.327-1.199,0.022-4.168-2.724-6.197l-0.629-0.466l-0.129-0.519c-0.071-0.287-0.273-0.807-0.45-1.157
	C68.822,52,68.812,52.094,69.367,51.548z M25.588,51.729c-0.011,0.053-0.053,0.24-0.084,0.43c-0.278-0.232-0.573-0.502-0.756-0.696
	c0.196-0.568,0.427-1.116,0.495-1.228c0.113-0.17,0.296-0.491,0.418-0.73c0.127-0.252,0.251-0.439,0.424-0.622
	C25.957,49.789,25.732,51.087,25.588,51.729z M21.694,43.635c-0.417,1.258-0.456,2.929-0.13,4.763
	c-1.905-2.14-3.565-4.728-4.133-6.008c0.227,0.051,0.45,0.103,0.595,0.137c0.278,0.065,0.888,0.208,1.125,0.3
	c0.225,0.481,0.583,0.586,0.853,0.586c0.132,0,0.244-0.027,0.326-0.052c0.022-0.006,0.109-0.027,0.284-0.027
	c0.291,0,0.653,0.06,0.97,0.16c0.033,0.01,0.086,0.027,0.144,0.046C21.713,43.579,21.702,43.613,21.694,43.635z M54.928,59.128
	c-0.062,0.115-0.285,0.521-0.493,0.901c-0.33,0.599-0.614,1.117-0.307,1.638c0.061,0.102,0.151,0.213,0.289,0.302
	c-0.062,0.059-0.128,0.12-0.198,0.185c-3.734,3.481-6.234,4.774-9.225,4.774c-0.81,0-1.683-0.095-2.67-0.288
	c-1.805-0.356-4.307-1.979-7.046-4.571c-0.063-0.06-0.15-0.143-0.244-0.233c0.05-0.051,0.096-0.112,0.137-0.182
	c0.311-0.535,0.028-1.058-0.441-1.924c-0.299-0.552-0.551-1.072-0.599-1.202c-0.083-0.222-0.262-0.631-0.405-0.933
	c-0.421-0.88-1.469-3.868-1.674-4.771c-0.083-0.365-0.235-0.934-0.339-1.266c-0.146-0.466-0.369-1.936-0.447-3.205
	c-0.023-0.389-0.074-1.188-0.11-1.774l-0.008-0.11c-0.028-0.44-0.054-0.857,0-0.947c0.085-0.14,0.532-0.411,1.099-0.757l0.118-0.071
	c0.593-0.361,1.156-0.704,1.333-0.782c0.357,0.062,1.832,0.506,2.699,0.849c0.062,0.023,0.473,0.187,0.778,0.294
	c-0.01,0.016-0.021,0.032-0.031,0.048c-0.192,0.29-0.674,1.016-1.073,1.612c-0.645,0.967-1.043,1.646-0.721,2.247
	c0.165,0.308,0.488,0.493,0.863,0.493c0.288,0,0.628-0.102,1.176-0.35c0.356-0.162,0.708-0.303,0.803-0.333
	c0.495-0.156,3.369-1.626,3.791-1.915c0.146-0.101,0.385-0.246,0.512-0.31c0.939-0.479,3.546-2.391,4.81-3.525l1.025-0.923
	c1.474-1.325,3.536-3.902,4.488-5.576c0.013,0.022,0.027,0.046,0.041,0.068c0.714,1.188,1.322,2.095,2.099,3.131
	c0.059,0.079,0.125,0.166,0.189,0.253c-0.803,0.306-2.253,1.045-6.244,3.156c-1.535,0.811-1.998,1.056-2.104,1.671
	c-0.088,0.517,0.239,0.872,0.455,1.106c0.355,0.385,0.754,0.761,1.37,0.761c0.347,0,0.671-0.119,1.082-0.312
	c1.654-0.777,5.056-2.068,6.274-2.383c0.925-0.238,1.577-0.385,1.975-0.385c0.105,0,0.161,0.011,0.186,0.016
	c0.165,0.277,0.101,1.591,0.073,2.158c-0.167,3.451-0.338,4.996-0.68,6.12c-0.115,0.381-0.291,1.017-0.39,1.42
	C56.809,54.666,55.544,57.986,54.928,59.128z M70.998,59.421c-0.011,0.004-0.034,0.006-0.065,0.006c-0.12,0-0.366-0.028-0.624-0.072
	c-0.295-0.052-0.53-0.078-0.707-0.078c-0.509,0-0.544,0.22-0.171,0.707c1.808,2.368,2.875,6.022,2.409,8.242
	c-0.189,0.896-0.325,1.207-0.799,1.207c-0.188,0-0.431-0.049-0.751-0.131c-2.188-0.56-4.421-2.634-6.053-5.624
	c-0.33-0.604-0.528-0.915-0.695-0.915c-0.181,0-0.325,0.367-0.561,1.124c-0.2,0.645-0.26,0.991-0.341,1.983
	c-0.186,2.294-0.652,3.033-2.718,4.307c-1.484,0.915-1.896,1.159-2.533,1.502c-0.374,0.2-0.614,0.327-0.756,0.327
	c-0.253,0-0.197-0.401-0.034-1.504c0.079-0.525,0.205-1.433,0.282-2.017c0.076-0.582,0.216-1.648,0.311-2.368
	c0.094-0.719,0.236-1.771,0.315-2.334c0.421-3.006,0.423-3.128,0.044-3.224c-0.056-0.015-0.108-0.022-0.16-0.022
	c-0.175,0-0.351,0.094-0.676,0.386c-0.09-0.16-0.292-0.405-0.706-0.453c0.147-0.268,0.275-0.502,0.32-0.586
	c0.672-1.243,1.997-4.719,2.363-6.198c0.092-0.373,0.261-0.987,0.368-1.339c0.384-1.266,0.573-2.907,0.747-6.507
	c0.08-1.656,0.085-2.708-0.518-3.342l-3.055-3.73c-0.742-0.989-1.324-1.858-2.008-2.995c-0.482-0.8-0.83-1.379-1.471-1.379
	c-0.211,0-0.52,0.072-0.792,0.411c-0.108,0.135-0.269,0.442-0.354,0.612c-0.738,1.47-2.888,4.192-4.34,5.499l-1.025,0.921
	c-1.232,1.108-3.716,2.908-4.47,3.293c-0.188,0.096-0.484,0.274-0.689,0.415c-0.325,0.223-3.005,1.582-3.371,1.709
	c-0.033,0.01-0.072,0.024-0.116,0.04c0.348-0.522,3.329-5.173,3.49-5.417l0.094-0.16c0.106-0.183,0.293-0.494,0.416-0.692
	c0.813-1.327,1.135-1.97,0.803-2.563c-0.105-0.188-0.372-0.508-0.958-0.508c-0.222,0-0.222,0-1.516,0.662
	c-1.658,0.847-2.375,1.229-2.844,1.511c-0.229,0.137-3.113,1.901-3.213,1.956c-0.512,0.211-0.82,0.331-2.33,1.251l-0.118,0.072
	c-1.76,1.07-1.978,1.316-1.86,3.163l0.007,0.11c0.037,0.585,0.087,1.383,0.111,1.772c0.07,1.159,0.289,2.859,0.516,3.584
	c0.092,0.292,0.232,0.813,0.306,1.14c0.23,1.016,1.317,4.117,1.79,5.106c0.123,0.257,0.284,0.626,0.352,0.805
	c0.102,0.27,0.431,0.923,0.69,1.4c0.025,0.047,0.062,0.113,0.102,0.189c-0.155,0.069-0.3,0.181-0.404,0.356
	c-0.344-0.318-0.74-0.502-1.043-0.502c-0.2,0-0.36,0.078-0.437,0.247c-0.082,0.18-0.03,0.708,0.307,3.146
	c0.125,0.904,0.652,4.781,0.946,6.962c0.115,0.85,0.163,1.155-0.035,1.155c-0.116,0-0.316-0.104-0.637-0.267
	c-2.36-1.187-4.541-2.793-4.983-3.668c-0.511-1.015-0.614-4.048-0.241-7.14c0.084-0.699,0.042-1.052-0.168-1.052
	c-0.223,0-0.635,0.4-1.285,1.203c-0.35,0.433-0.547,0.657-0.631,0.657c-0.095,0-0.045-0.289,0.091-0.893
	c0.463-2.04,0.943-4.384,1.244-6.066c0.069-0.39,0.094-0.626,0.042-0.811c0.301-0.304,0.493-0.813,0.502-1.425
	c0.006-0.061,0.038-0.254,0.085-0.467c0.177-0.79,0.23-2.557,0.34-3.465c0.086-0.712,0.205-1.27-0.145-1.664
	c-0.183-0.207-0.279-0.301-0.559-0.301c-0.382,0-0.368,0.164-0.825,0.514c-0.66,0.504-1.028,0.934-1.357,1.585
	c-0.103,0.203-0.254,0.464-0.326,0.571c-0.089,0.136-0.205,0.38-0.322,0.663c-0.001-0.006-0.004-0.012-0.006-0.018
	c-0.712-2.315-0.852-4.453-0.384-5.864c0.15-0.454,0.305-0.922,0.068-1.386c-0.239-0.468-0.71-0.616-1.21-0.774
	c-0.568-0.18-1.197-0.264-1.703-0.226c-0.051-0.058-0.107-0.109-0.17-0.158c0.061-0.201,0.101-0.493,0.167-0.898
	c0.362-2.204,0.692-3.517,1.232-4.88c0.672-1.698,0.851-1.95,3.294-4.641c1.078-1.188,1.164-1.302,1.164-1.56
	c0-0.188-0.053-0.29-0.302-0.29c-0.356,0-1.117,0.214-2.704,0.698c-1.864,0.568-4.133,1.231-4.217,1.231
	c-0.228,0,0.26-0.685,1.383-1.939c4.775-5.339,8.526-7.948,13.266-9.227c0.998-0.27,3.104-0.544,4.688-0.611
	c1.529-0.064,1.87-0.279,1.085-0.684c-0.273-0.141-0.575-0.241-2.308-0.765c-2.312-0.697-5.445-1.935-5.445-2.149
	c0-0.164,0.063-0.169,4.137-0.396c0.646-0.035,1.392-0.053,2.185-0.053c2.396,0,5.219,0.154,6.997,0.407
	c3.296,0.469,8.567,2.064,9.252,2.803c0.543,0.586,1.152,1.879,1.503,3.199c0.267,1.002,0.258,0.993,1.325,1.196
	c1.542,0.292,4.521,1.714,5.534,2.64c0.41,0.374,1.1,1.65,2.022,3.74c0.164,0.37,0.424,0.958,0.581,1.308
	c0.155,0.351,0.451,1.034,0.657,1.521c0.207,0.486,0.611,1.424,0.901,2.086c1.344,3.069,2.325,5.477,2.27,5.568
	c-0.013,0.02-0.033,0.031-0.067,0.031c-0.127,0-0.443-0.158-1.266-0.613c-1.464-0.812-2.287-1.257-2.654-1.257
	c-0.456,0-0.205,0.689,0.397,2.219c0.541,1.375,0.551,1.498,0.17,2.131c-0.078,0.128-0.14,0.24-0.188,0.34
	c-0.679,0.262-0.918,0.492-1.27,1.093c-0.13,0.222-0.352,0.592-0.493,0.822c-0.622,1.019-0.753,1.24-1.005,1.686
	c-0.13,0.23-0.355,0.593-0.49,0.789l-0.423,0.615l0.061,0.947c0.044,0.694,0.182,1.547,0.475,2.94
	c0.073,0.348,0.181,0.98,0.235,1.383c0.075,0.558,0.166,1.22,0.622,1.486c-0.003,0.334,0.039,0.74,0.104,1.265l0.017,0.129
	c0.189,1.515,0.283,2.275,1.13,2.275c0.423,0,1.754-0.782,1.957-0.952c0.065-0.056,0.249-0.167,0.371-0.218
	c0.195-0.086,0.868-0.494,1.306-0.885c0.032,0.015,0.064,0.029,0.102,0.046C69.301,56.807,71.555,59.206,70.998,59.421z
	 M37.922,41.478c0.39-0.233,0.993-0.557,2.273-1.214c-0.125,0.206-0.29,0.482-0.389,0.651l-0.093,0.16
	c-0.234,0.4-0.474,0.813-0.615,0.99c-0.156-0.06-0.421-0.196-0.662-0.32l-0.128-0.065C38.159,41.604,38.032,41.537,37.922,41.478z
	 M64.156,54.183c0.109-0.234,0.489-0.496,1.179-0.971l0.225-0.154c0.078-0.055,0.157-0.108,0.215-0.146
	c0.016,0.008,0.031,0.017,0.046,0.024l0.082,0.041c0.77,0.39,1.386,1.732,1.266,2.216c-0.179,0.177-0.821,0.647-1.083,0.76
	c-0.218,0.094-0.5,0.264-0.658,0.396c-0.119,0.099-0.675,0.402-1.037,0.575c-0.066-0.325-0.133-0.861-0.17-1.161l-0.017-0.129
	C64.105,54.845,64.051,54.41,64.156,54.183z M65.77,50.691c-0.775,0.701-1.079,0.999-1.197,1.224
	c-0.126,0.142-0.417,0.422-0.691,0.667c-0.063-0.422-0.153-0.945-0.221-1.267c-0.276-1.316-0.406-2.103-0.445-2.716l-0.026-0.397
	l0.111-0.162c0.162-0.236,0.411-0.635,0.564-0.907c0.24-0.426,0.368-0.64,0.978-1.64c0.145-0.236,0.373-0.617,0.507-0.847
	c0.205-0.35,0.205-0.35,1.667-0.808c2.368-0.741,2.973-0.917,5.07-1.426C71.034,44.883,68.479,48.238,65.77,50.691z"/>
</svg>
