<?xml version="1.0" encoding="utf-8"?>
<!-- Generator: Adobe Illustrator 16.0.0, SVG Export Plug-In . SVG Version: 6.00 Build 0)  -->
<!DOCTYPE svg PUBLIC "-//W3C//DTD SVG 1.1//EN" "http://www.w3.org/Graphics/SVG/1.1/DTD/svg11.dtd">
<svg version="1.1" id="Layer_1" xmlns="http://www.w3.org/2000/svg" xmlns:xlink="http://www.w3.org/1999/xlink" x="0px" y="0px"
	 width="90px" height="90px" viewBox="0 0 90 90" enable-background="new 0 0 90 90" xml:space="preserve">
<path d="M70.333,30.476c-0.01-0.016-0.011-0.017-0.016-0.024c-0.364-0.583-0.388-0.65-0.292-0.8c0.059-0.09,0.263-0.396,0.454-0.681
	c1.04-1.55,1.244-4.555,0.467-6.905c-2.051-6.2-9.761-7.905-14.464-3.199l-0.805,0.806c-1.518,0.174-3.036,0.35-4.553,0.519
	c-1.31,0.146-2.49,0.604-2.59,2.073c-0.12,1.772,1.423,2.946,2.47,4.205c0.685,0.823,0.954,0.925,0.501,1.912
	c-0.196,0.429-0.972,2.598-1.491,2.677c-1.452,0.22-4.21-0.057-4.849,1.653c-0.043,0.114-0.103,0.274-0.134,0.355
	c0.007-0.017-0.557-0.985-0.833-1.176c-0.327-0.226-0.669-0.358-1.06-0.434c-0.695-0.135-2.086,0.029-2.635-0.392
	c-0.142-0.108-1.979-3.979-1.938-4.079c0.7-1.659,2.905-2.463,2.906-4.462c0-1.767-0.526-2.093-4.01-2.486
	c-1.103-0.125-2.109-0.243-2.237-0.264c-0.188-0.03-0.291-0.13-0.542-0.519c-1.918-2.965-5.372-4.379-9.509-3.894
	c-5.796,0.68-8.547,8.171-4.927,13.42l0.475,0.689c-2.197,3.563-3.97,7.355-4.562,11.547c-0.195,1.386-0.162,2.825-0.168,4.221
	c-0.008,1.425-0.09,2.936,0.146,4.348c2.086,12.474,11.401,21.736,24.093,23.957c1.572,0.274,3.129,0.205,4.725,0.205
	c2.033,0.001,3.987,0.026,5.982-0.378c12.836-2.599,22.54-12.938,23.473-25.01C74.943,41.5,73.625,35.723,70.333,30.476z
	 M52.704,22.371c0.009-0.001,0.013-0.001,0.023-0.002c0.352-0.041,0.763-0.085,1.256-0.141c0.613-0.068,1.1-0.123,1.488-0.168
	c-0.656,1.12-1.424,2.759-1.818,3.897c-0.383-0.464-0.93-1.105-1.7-2.011C50.906,22.715,50.669,22.608,52.704,22.371z M50.17,33.403
	c-0.425,0.759-0.831,1.55-1.129,2.369c-0.08-0.095-0.167-0.195-0.263-0.308C47.166,33.577,47.043,33.76,50.17,33.403z
	 M43.811,36.036c0.821-0.976,1.03-1.277,1.084-1.568c0.054-0.285,0.14-0.274,0.212,0.026c0.104,0.426,0.468,0.802,0.736,1.129
	c0.281,0.343,1.397,1.29,1.38,1.767c-0.008,0.187-1.727,3.821-1.814,3.833c-0.061,0.008-2.172-4.265-2.187-4.426
	c-0.002-0.03,0.251-0.357,0.566-0.734C43.74,36.121,43.729,36.133,43.811,36.036z M40.788,33.508
	c2.036,0.234,2.004,0.163,0.761,1.633c-0.026,0.031-0.052,0.061-0.077,0.09c-0.203-0.568-0.5-1.201-0.817-1.739
	C40.698,33.498,40.741,33.503,40.788,33.508z M37.408,22.378c-0.005,0-0.011-0.001-0.017-0.002c0.014,0.001,0.02,0.002,0.035,0.004
	c0.241,0.027,0.45,0.049,0.631,0.07c1.248,0.15,1.05,0.297-0.49,2.12c-0.325,0.385-0.585,0.693-0.794,0.944
	c-0.363-0.995-1.035-2.418-1.596-3.392C35.717,22.191,36.438,22.27,37.408,22.378z M26.253,17.818
	c0.492-0.062,0.917-0.063,1.41-0.003c2.147,0.257,4.044,1.533,5.189,3.493c1.002,1.716,2.35,3.386,2.724,5.402
	c0.178,0.956,0.768,1.895,1.183,2.755c0.703,1.459,1.311,2.994,2.293,4.286c0.624,0.822,1.011,1.804,1.228,2.801
	c0.223,1.022,0.856,2.021,1.305,2.95c0.648,1.344,1.296,2.688,1.941,4.033c0.453,0.943,0.925,2.726,1.822,3.368
	c0.546,0.39,1.273-1.77,1.463-2.178c0.772-1.663,1.553-3.322,2.324-4.985c0.639-1.379,0.988-2.837,1.611-4.188
	c0.428-0.928,0.967-1.727,1.497-2.586c0.86-1.393,1.481-3.008,2.151-4.499c0.821-1.826,1.268-3.722,2.27-5.506
	c0.397-0.708,0.933-1.232,1.425-1.87c2.729-3.543,8.544-2.677,10.232,1.418c0.9,2.182,0.688,4.13-0.646,5.929
	c-3.728,5.029-7.44,10.071-11.24,15.051c-1.964,2.574-3.906,5.165-5.849,7.756c-1.474,1.967-3.395,6.067-6.244,4.032
	c-0.523-0.374-0.918-0.969-1.311-1.466c-1.09-1.379-2.202-2.753-3.245-4.168c-1.888-2.558-3.935-5.021-5.898-7.521
	c-3.611-4.596-7.113-9.296-10.742-13.868c-0.776-0.979-0.221-0.279-0.02-0.025c-1.02-1.288-1.402-1.996-1.664-3.082
	C20.576,21.475,22.676,18.265,26.253,17.818z M26.371,35.132c-1.347-1.382-3.078-2.594-4.693-2.672
	c0.385-0.667,0.79-1.323,1.236-1.959C24.008,32.08,25.176,33.615,26.371,35.132z M19.493,52.604
	c-1.466-5.069-1.341-10.536,0.351-15.447c0.329-0.954,1.082-2.75,1.279-3.051c0.077-0.118,0.212-0.172,0.392-0.172
	c1.114,0,3.941,2.092,5.273,4.07c1.304,1.936,1.747,4.159,1.589,6.467c-0.276,4-3.384,7.697-7.434,8.843
	C20.002,53.581,19.772,53.57,19.493,52.604z M49.138,71.152c-5.877,1.015-12.617-0.349-17.706-3.437
	c-0.793-0.481-0.854-0.582-0.57-0.963c1.44-1.942,4.688-3.701,7.159-3.877c0.489-0.035,0.982-0.089,1.475-0.089
	c3.666,0,7.778,2.601,9.33,6.004C49.532,70.338,49.629,71.067,49.138,71.152z M61.625,66.387c-3.057,2.308-6.904,4.078-10.769,4.87
	c0.214-0.827-0.102-1.815-0.68-3.083c-1.787-3.918-6.38-6.873-10.682-6.873c-0.527,0-1.056,0.055-1.58,0.093
	c-2.918,0.208-6.541,2.173-8.246,4.474c-0.096,0.129-0.314,0.448-0.401,0.876c-3.067-2.232-5.686-5.202-7.595-8.385
	c-0.66-1.1-1.223-2.239-1.695-3.404c0.845,0.043,1.801-0.314,2.54-0.614c1.812-0.735,3.437-1.926,4.695-3.422
	c1.55-1.845,2.49-4.099,2.646-6.345c0.178-2.591-0.355-4.954-1.697-7.173c-0.025-0.042-0.056-0.086-0.082-0.129
	c1.798,2.221,3.623,4.422,5.348,6.679c1.85,2.421,3.773,4.784,5.633,7.194c1.32,1.711,2.63,4.063,4.419,5.34
	c3.226,2.306,5.317-0.375,7.174-2.851c1.95-2.6,3.958-5.163,5.866-7.794c3.673-5.065,7.808-9.836,11.315-15.02
	c1.905,2.896,3.315,6.177,4.05,9.592c-0.328-0.085-0.677-0.104-1.004-0.104c-0.615,0-1.38,0.076-2.149,0.213
	c-4.837,0.859-8.504,4.32-9.571,9.032c-1.041,4.6,0.714,9.177,4.581,11.945c0.622,0.445,1.319,0.886,2.02,1.052
	C64.527,63.938,63.159,65.229,61.625,66.387z M71.351,51.393c-0.894,3.511-2.907,7.676-4.589,9.497
	c-0.644,0.697-1.606-0.205-2.156-0.599c-7.388-5.289-4.654-16.702,4.385-18.309c0.706-0.125,1.388-0.189,1.891-0.189
	c0.422,0,0.719,0.044,0.801,0.136C72.288,42.599,72.08,48.527,71.351,51.393z"/>
</svg>
