<?xml version="1.0" encoding="utf-8"?>
<!-- Generator: Adobe Illustrator 16.0.0, SVG Export Plug-In . SVG Version: 6.00 Build 0)  -->
<!DOCTYPE svg PUBLIC "-//W3C//DTD SVG 1.1//EN" "http://www.w3.org/Graphics/SVG/1.1/DTD/svg11.dtd">
<svg version="1.1" id="Layer_1" xmlns="http://www.w3.org/2000/svg" xmlns:xlink="http://www.w3.org/1999/xlink" x="0px" y="0px"
	 width="90px" height="90px" viewBox="0 0 90 90" enable-background="new 0 0 90 90" xml:space="preserve">
<path id="path0_3_" d="M45.699,17.146c-4.341,0.592-9.056,2.31-11.988,4.366c-0.459,0.323-0.503,0.337-0.677,0.228
	c-2.339-1.46-4.308-2.2-7.16-2.689c-5.01-0.859-11.248,2.27-13.551,6.796c-0.505,0.993-0.638,1.406-1.097,3.417
	c-0.732,3.209,0.375,8.262,2.38,10.864c0.228,0.295,0.587,0.788,0.8,1.096c0.527,0.764,1.901,2.165,2.68,2.732
	c0.354,0.257,0.857,0.637,1.121,0.844c0.491,0.386,1.37,0.95,2.512,1.613l0.645,0.375l0.101,0.818
	c0.624,5.048,2.612,9.961,5.466,13.502c0.221,0.272,0.61,0.789,0.866,1.146c0.567,0.792,2.102,2.313,3.078,3.052
	c0.396,0.3,0.89,0.696,1.098,0.881c1.296,1.154,4.549,3,6.776,3.847c6.265,2.38,13.095,2.535,19.65,0.445
	c2.29-0.73,5.177-2.174,6.887-3.445c1.163-0.865,1.377-1.034,2.296-1.81c0.521-0.44,1.132-0.953,1.358-1.138
	c0.227-0.186,0.521-0.479,0.653-0.65c0.22-0.284,0.978-1.196,1.988-2.395c0.212-0.251,0.479-0.62,0.595-0.818
	c0.114-0.198,0.306-0.486,0.424-0.64c1.669-2.166,3.067-5.696,4.041-10.2c0.476-2.203,0.603-5.955,0.277-8.2
	c-0.776-5.354-3.076-10.909-5.679-13.715c-0.206-0.222-0.765-0.884-1.24-1.471c-1.071-1.32-4.273-3.978-5.984-4.968
	c-3.217-1.861-5.676-2.774-9.7-3.604C52.311,17.01,47.766,16.864,45.699,17.146 M52.75,21.387C66.29,23.411,75.174,36.1,72.39,49.44
	c-1.915,9.179-9.868,16.587-19.396,18.066c-1.307,0.203-5.949,0.229-7.286,0.04c-11.396-1.608-20.214-11.523-20.235-22.755
	c-0.002-0.868-0.059-0.944-1-1.33c-4.082-1.674-7.049-4.401-8.465-7.78c-1.247-2.974-1.023-6.586,0.532-8.617
	c3.819-4.986,9.976-5.223,15.762-0.605c0.909,0.726,0.932,0.725,1.893-0.043c3.46-2.768,7.885-4.659,11.92-5.096
	C47.02,21.222,51.981,21.271,52.75,21.387"/>
</svg>
