<?xml version="1.0" encoding="utf-8"?>
<!-- Generator: Adobe Illustrator 16.0.0, SVG Export Plug-In . SVG Version: 6.00 Build 0)  -->
<!DOCTYPE svg PUBLIC "-//W3C//DTD SVG 1.1//EN" "http://www.w3.org/Graphics/SVG/1.1/DTD/svg11.dtd">
<svg version="1.1" id="Layer_1" xmlns="http://www.w3.org/2000/svg" xmlns:xlink="http://www.w3.org/1999/xlink" x="0px" y="0px"
	 width="89.984px" height="89.994px" viewBox="0 0 89.984 89.994" enable-background="new 0 0 89.984 89.994" xml:space="preserve">
<g>
	<path d="M41.504,17.603c2.278,0,4.523,1.483,4.523,3.71l-0.019,24.402h-5.162l-0.037-19.99c0,0-3.665,11.603-5.021,15.908
		c-0.594,1.882-1.626,3.829-3.647,3.829c-0.008,0-0.015,0-0.022,0v0.014c-0.007,0-0.014,0-0.022,0c-2.021,0-3.054-1.934-3.647-3.815
		c-1.356-4.305-5.021-15.88-5.021-15.88L23.39,45.827h-5.162l-0.019-24.458c0-2.238,2.27-3.744,4.559-3.743
		c1.84,0,3.692,0.97,4.396,3.312c1.829,6.098,4.955,15.298,4.955,15.298s3.126-9.2,4.956-15.298
		C37.781,18.581,39.652,17.603,41.504,17.603 M41.504,15.575c-3.046,0-5.487,1.831-6.372,4.779
		c-0.864,2.882-2.031,6.495-3.014,9.478c-0.981-2.982-2.149-6.596-3.013-9.478c-0.881-2.934-3.309-4.756-6.337-4.756
		c-1.579,0-3.174,0.529-4.374,1.452c-1.428,1.097-2.213,2.63-2.213,4.318l0.02,24.46l0.001,2.026h2.025h5.162h2.024l0.003-2.023
		l0.013-6.999c0.427,1.349,0.806,2.55,1.085,3.437c0.436,1.382,0.975,2.455,1.65,3.285c1.037,1.274,2.397,1.948,3.931,1.948h0.037
		l2.013-0.014v-0.429c0.721-0.328,1.371-0.843,1.93-1.531c0.672-0.83,1.211-1.905,1.646-3.288c0.279-0.887,0.659-2.089,1.085-3.439
		l0.013,6.917l0.004,2.023h2.023h5.162h2.026l0.001-2.025l0.02-24.402c0-1.685-0.782-3.212-2.202-4.301
		C44.645,16.086,43.1,15.575,41.504,15.575L41.504,15.575z"/>
	<path d="M65.605,15.574c1.79,0,3.24,1.451,3.24,3.24c0,1.791-1.45,3.241-3.24,3.241s-3.241-1.45-3.241-3.241
		C62.364,17.025,63.815,15.574,65.605,15.574 M65.605,13.547c-2.904,0-5.268,2.363-5.268,5.268c0,2.905,2.363,5.269,5.268,5.269
		s5.269-2.363,5.269-5.269C70.874,15.91,68.51,13.547,65.605,13.547L65.605,13.547z"/>
	<path d="M54.343,15.574c1.79,0,3.241,1.451,3.241,3.24c0,1.791-1.451,3.241-3.241,3.241s-3.24-1.45-3.24-3.241
		C51.103,17.025,52.553,15.574,54.343,15.574 M54.343,13.547c-2.904,0-5.269,2.363-5.269,5.268c0,2.905,2.364,5.269,5.269,5.269
		c2.905,0,5.268-2.363,5.268-5.269C59.61,15.91,57.248,13.547,54.343,13.547L54.343,13.547z"/>
	<path d="M57,26.994v19h-5v-19H57 M59,24.994h-1.954h-5.293H50v1.969v18.696v2.335h1.753h5.293H59v-2.335V26.963V24.994L59,24.994z"
		/>
	<path d="M68,26.994v19h-5v-19H68 M70,24.994h-1.69h-5.294H61v1.969v18.696v2.335h2.016h5.294H70v-2.335V26.963V24.994L70,24.994z"
		/>
</g>
<g>
	<g>
		<path d="M50.46,47.396c-1.313-0.365-2.503-0.729-3.59-1.06c-4.721-1.44-8.198-2.501-11.165-0.032
			c-5.317-0.011-10.192,0.773-12.364,7.955c-0.039,0.131-0.076,0.264-0.114,0.399c-0.045,0.134-0.086,0.266-0.125,0.396
			c-2.172,7.181,1.452,10.536,5.883,13.473c1.104,3.698,4.586,4.742,9.313,6.159c1.09,0.327,2.281,0.684,3.576,1.107
			c7.587,2.479,13.49,1.714,19.365,0.633l0.357-0.066l0.288-0.222c1.57-1.211,3.243-2.851,4.894-8.313
			c1.651-5.46,1.168-7.752,0.531-9.632l-0.116-0.343l-0.262-0.253C62.641,53.442,58.151,49.535,50.46,47.396z M26.089,55.553
			c1.578-5.861,4.937-6.306,10.17-6.245l0.623,0.009l0.041-0.04c3.41,2.216,3.175,7.184,2.804,9.327l-0.001-0.001l-0.243,1.036
			c-0.236,0.97-2.951,7.145-7.836,7.09l-0.012-0.056l-0.523-0.339C26.721,63.483,24.164,61.321,26.089,55.553z M53.602,74.397
			c-3.313,0.167-6.773-0.141-10.797-1.456c-1.319-0.431-2.535-0.795-3.646-1.128c-3.886-1.165-5.851-1.821-6.788-3.102
			c4.815-0.4,7.712-5.311,8.698-7.613l19.167,5.795C59.488,68.714,57.434,72.288,53.602,74.397z M64.58,59.499
			c0.373,1.169,0.698,2.923-0.674,7.459c-1.371,4.537-2.614,5.816-3.571,6.584c-0.924,0.168-1.839,0.316-2.752,0.45
			c2.958-2.683,4.427-5.922,4.829-7.252c0.024-0.082,0.042-0.149,0.06-0.216c0.021-0.064,0.046-0.132,0.07-0.212
			c0.401-1.331,0.975-4.842-0.002-8.713C63.225,58.218,63.905,58.847,64.58,59.499z M59.448,55.056
			c2.025,3.885,1.755,7.999,1.366,9.923l-19.167-5.796c0.456-2.459,0.764-8.15-3.029-11.153c1.489-0.552,3.489-0.01,7.376,1.176
			c1.109,0.339,2.324,0.708,3.661,1.081C53.732,51.42,56.784,53.081,59.448,55.056z"/>
	</g>
	<path d="M31.512,57.163c2.351-7.774-2.29-6.247-3.829-1.157C26.188,60.948,29.197,64.82,31.512,57.163z"/>
</g>
</svg>
