<?xml version="1.0" encoding="utf-8"?>
<!-- Generator: Adobe Illustrator 16.0.0, SVG Export Plug-In . SVG Version: 6.00 Build 0)  -->
<!DOCTYPE svg PUBLIC "-//W3C//DTD SVG 1.1//EN" "http://www.w3.org/Graphics/SVG/1.1/DTD/svg11.dtd">
<svg version="1.1" id="Layer_1" xmlns="http://www.w3.org/2000/svg" xmlns:xlink="http://www.w3.org/1999/xlink" x="0px" y="0px"
	 width="90px" height="90px" viewBox="0 0 90 90" enable-background="new 0 0 90 90" xml:space="preserve">
<path d="M74.449,50.021c-1.394-4.728-2.925-9.383-4.287-14.124c-0.71-2.474-1.645-4.765-3.683-6.436
	c-1.13-0.927-2.609-0.925-3.333-2.325c-0.38-0.732-1.19-1.352-1.771-1.938c-1.146-1.155-1.289-3.832-1.768-5.418
	c-0.593-2.003-2.274-3.913-3.745-5.313c-4.744-4.519-11.737-5.521-17.807-3.253c-4.301,1.606-7.827,5.435-9.232,9.781
	c-0.648,2.004-0.511,3.288-1.946,4.775c-0.836,0.841-1.537,2.36-2.66,2.699c-1.027,0.309-1.988,0.803-2.761,1.556
	c-1.774,1.729-2.496,4.377-3.096,6.697c-0.852,3.299-1.666,6.492-2.763,9.721c-1.702,5.003-3.321,10.145-2.14,15.442
	c0.641,2.877,2.067,5.624,4.988,6.679c1.707,0.615,3.625,0.707,5.345,0.089c1.028-0.369,2.448-2.097,3.303-2.198
	c3.189,1.92,6.89,2.496,10.455,3.311c4.375,0.998,9.378,1.093,13.746,0.006c3.36-0.836,6.883-1.273,9.954-3.003
	c1.079-0.607,2.166,1.178,3.335,1.685c1.433,0.621,3.053,0.782,4.583,0.477C77.563,67.257,76.203,55.968,74.449,50.021z
	 M62.076,43.672c0.361,2.192,1.196,4.348,1.533,6.568c0.441,2.903,1.849,5.837,1.131,8.798c-1.498,6.18-12.138,7.934-17.397,8.341
	c-4.105,0.317-7.954-0.241-11.949-1.075c-3.233-0.675-7.902-2.106-10.116-4.781c-2.299-2.778-1.125-6.785-0.282-9.883
	c0.467-1.708,0.832-3.523,1.167-5.265c0.149-0.779,0.401-1.539,0.625-2.299c0.356-1.208,0.827-1.53,1.878-2.159
	c-0.313,3.416,5.661,1.926,8.043,0.992c3.316-1.3,5.459-3.802,7.642-6.503c2.024,2.747,4.421,4.945,7.545,6.341
	c1.579,0.705,8.885,2.659,8.291-0.872C60.951,42.32,61.915,42.704,62.076,43.672C62.103,43.835,62.02,43.334,62.076,43.672z
	 M58.315,37.675c-2.817-2.857-0.047,3.488-0.508,4.096c-2.945-0.231-5.248-1.136-7.625-2.923c-1.206-0.907-2.325-1.939-3.294-3.097
	c-0.476-0.568-2.076-3.063-2.458-3.068c-0.667-0.009-1.633,1.833-1.985,2.267c-0.904,1.112-1.844,2.251-2.927,3.197
	c-2.536,2.218-5.204,3.419-8.572,3.588c-0.238-0.279-0.393-3.422-0.728-3.422c-1.119,0-4.702,5.025-6.298,2.291
	c-1.116-1.912,0.693-6.988,1.834-8.735c3.358-5.141,8.996-10.308,15.675-7.922c2.221,0.794,2.753,1.221,5.01,0.375
	c1.968-0.737,4.123-0.918,6.202-0.67c3.88,0.464,6.795,3.298,8.91,6.433c1.895,2.807,3.239,5.345,3.49,8.872
	C65.369,43.539,59.627,39.006,58.315,37.675z M51.359,21.157c-1.257,0-2.971,0.135-4.192,0.435
	c-1.262,0.311-2.284,1.199-3.484,0.673c-2.064-0.903-3.938-1.06-6.172-1.06c1.419-2.369,5.738-1.981,8.043-1.905
	C47.311,19.357,50.292,19.422,51.359,21.157z M44.525,12.909c5.873,0,11.496,4.074,13.021,9.819
	c-1.116-0.604-2.35-1.083-3.603-1.309c-1.458-0.262-0.984-0.803-1.953-1.722c-1.633-1.549-4.33-1.733-6.448-1.8
	c-2.656-0.083-6.001-0.23-8.23,1.49c-0.682,0.525-1.055,1.808-1.796,1.892c-1.492,0.168-2.838,0.708-4.153,1.408
	C33.05,16.81,38.445,12.909,44.525,12.909z M21.201,66.172c-7.033,0-5.253-10.914-4.093-14.979c0.85-2.978,2.093-5.831,2.872-8.829
	c0.711-2.738,1.075-5.64,2.282-8.22c-0.667,3.146-2.489,9.672,3.056,9.26c-0.975,3.33-1.606,6.733-2.375,10.114
	c-0.745,3.279-1.196,8.269,2.463,10.145C24.515,65.146,22.961,66.172,21.201,66.172z M69.814,65.636
	c-2.33,1.211-4.994,0.19-6.333-1.962c3.825-2.022,3.071-6.988,2.411-10.397c-0.639-3.303-1.395-6.816-2.309-10.047
	c5.157,0.28,3.804-5.664,3.034-8.728c1.114,2.493,1.524,5.229,2.255,7.842c0.812,2.905,1.986,5.691,2.835,8.586
	C72.882,54.93,74.65,63.121,69.814,65.636z"/>
</svg>
