<?xml version="1.0" encoding="utf-8"?>
<!-- Generator: Adobe Illustrator 16.0.0, SVG Export Plug-In . SVG Version: 6.00 Build 0)  -->
<!DOCTYPE svg PUBLIC "-//W3C//DTD SVG 1.1//EN" "http://www.w3.org/Graphics/SVG/1.1/DTD/svg11.dtd">
<svg version="1.1" id="Layer_1" xmlns="http://www.w3.org/2000/svg" xmlns:xlink="http://www.w3.org/1999/xlink" x="0px" y="0px"
	 width="90px" height="90px" viewBox="0 0 90 90" enable-background="new 0 0 90 90" xml:space="preserve">
<g>
	<path d="M28.013,53.447c0.037,0.073,0.077,0.154-0.001-0.002c-0.128-0.256-0.362-0.704-0.555-1.063
		c-0.516-0.957-0.75-2-1.176-2.991c-0.31-0.724-0.922-0.395-0.917,0.492c0.011,1.785,2.105,5.015,3.878,5.979
		c0.44,0.24,0.562,0.202,0.254-0.248C29.004,54.896,28.405,54.231,28.013,53.447z"/>
	<path d="M59.466,45.719c-0.979-0.502-2.368-1.156-3.51-0.895c-0.453,0.109,0.505,1.053,0.6,1.157
		c0.079,0.087,0.781,0.741,0.547,0.901c-0.311,0.21-1.034,0.058-1.379,0.019c-1.354-0.156-2.655-0.596-3.933-1.05
		c-0.436-0.155-0.873-0.315-1.322-0.428c-0.343-0.086-0.716-0.026-1.047-0.142c-0.462-0.16-0.626-0.699-1.113-0.895
		c-0.582-0.232-1.012-0.644-1.561-0.921c-1.569-0.794-2.893-2.066-4.131-3.296c-0.12-0.119-1.688-1.847-1.872-1.656
		c-0.331,0.331,0.942,2.438,1.122,2.797c0.61,1.219,1.173,2.45,1.843,3.64c0.089,0.157,0.645,0.965,0.08,0.965
		c-0.536,0-1.129-0.656-1.495-0.974c-0.911-0.792-1.77-1.651-2.573-2.552c-0.697-0.781-1.512-1.691-1.992-2.623
		c-0.277-0.535-0.736-0.979-1.059-1.492c-0.378-0.602-0.721-1.228-1.086-1.838c-0.082-0.138-0.947-2.056-1.329-1.674
		c-0.14,0.14-0.059,0.671-0.055,0.84c0.011,0.639,0.054,1.276,0.11,1.912c0.129,1.457,0.392,2.897,0.526,4.355
		c0.142,1.539,0.138,1.535,1.742,1.725c2.254,0.266,4.438,0.964,4.637,1.481c0.115,0.306-0.795,0.057-0.894,0.04
		c-1.609-0.285-3.174-0.355-4.801-0.366c0.006,0.232,0.352,1.804-0.144,1.768c-0.695-0.058-1.458-1.147-1.909-1.598
		c-0.188,0.033-1.754,0.486-1.874,0.163c-0.067-0.176,0.201-0.588,0.641-0.982c0.422-0.379,0.444-0.519,0.176-1.053
		c-0.408-0.811-0.709-1.723-0.929-2.601c-0.054-0.21-0.101-0.818-0.34-0.95c-0.202-0.114-1.142,3.109-1.251,3.336
		c-0.87,1.789-0.239,4.228-0.024,6.11c0.253,2.229,0.641,4.414,1.027,6.622c0.07,0.4,0.112,0.905,0.357,1.249
		c0.224,0.313,0.621,0.454,0.835,0.785c0.288,0.445,0.311,1.049,0.517,1.535c0.257,0.604,0.614,1.184,1.06,1.669
		c0.648,0.717,1.639,1.148,2.367,1.818c1.103,1.014,2.213,2.023,3.446,2.878c1.827,1.268,3.816,1.943,6.045,1.955
		c2.087,0.011,3.974-0.499,5.727-1.644c1.112-0.726,2.132-1.59,3.12-2.475c0.957-0.856,2.084-1.586,2.992-2.478
		c0.535-0.525,1.098-1.065,1.252-1.82c0.088-0.427,0.152-0.873,0.359-1.263c0.198-0.373,0.634-0.539,0.825-0.896
		c0.195-0.368,0.223-0.911,0.3-1.312c0.426-2.14,0.679-4.264,0.941-6.421C61.351,46.594,61.406,46.715,59.466,45.719z
		 M36.767,42.006c-0.104-0.011-0.21-0.023-0.314-0.037c-0.048-0.491-0.094-0.982-0.15-1.473c0.341,0.56,0.745,1.063,1.122,1.599
		C37.205,42.062,36.985,42.032,36.767,42.006z M59.479,48.709c-0.193,1.566-0.329,3.104-0.603,4.663
		c-0.151,0.858-0.303,1.719-0.487,2.571c-0.08,0.369-0.706,0.812-0.895,1.208c-0.263,0.551-0.309,1.136-0.483,1.709
		c-0.592,0.933-1.64,1.47-2.458,2.167c-1.119,0.955-2.174,2.053-3.354,2.938C49.493,65.246,47.753,66,45.611,66h-0.082
		c-3.021,0-5.297-1.67-7.478-3.623c-0.659-0.59-1.282-1.266-1.986-1.802c-0.393-0.3-0.891-0.456-1.219-0.826
		c-1.066-1.204-0.948-2.845-2.263-3.872c-0.717-3.001-1.005-6.111-1.341-9.171c0.551,0.161,1.137,0.034,1.687-0.063
		c0.958,0.959,2.571,2.277,3.807,0.883c0.327-0.368,0.442-0.8,0.475-1.162c0.871,0.013,1.712,0.136,2.569,0.283
		c0.675,0.117,1.432,0.314,2.088,0.015c1.057,0.823,2.765,1.388,3.559-0.116c0.339-0.64,0.28-1.401-0.156-2.105
		c0.438,0.357,0.98,0.647,1.46,0.95c0.237,0.149,0.488,0.275,0.746,0.386c0.384,0.163,0.586,0.565,0.95,0.793
		c0.461,0.289,1.001,0.38,1.538,0.382c0.527,0.074,1.065,0.326,1.563,0.506c1.562,0.563,6.055,2.332,7.077,0.029
		c0.054-0.12,0.092-0.237,0.117-0.351c0.294,0.15,0.591,0.296,0.878,0.459C59.584,47.859,59.531,48.289,59.479,48.709z"/>
	<path d="M74.682,42.311c-6.917-22.466-16.14-31-31.24-28.907l-0.96,0.133l-0.8-0.793c-1.525-1.512-2.796-1.982-4.414-1.635
		c-2.023,0.434-2.222,3.109-3.381,4.422c-0.029,0.032-0.268-0.016-0.529-0.107c-2.589-0.91-5.188-0.153-6.589,1.919
		c-1.087,1.606-1.877,3.468-2.715,5.208c-1.18,2.45-2.288,4.933-3.407,7.41c-1.786,3.955-3.539,7.94-5.099,11.99
		c-0.483,1.254-1.085,3.452,0.346,4.353c1.566,0.986,3.04-0.232,4.001-1.408c0.583-0.714,0.582-0.714,0.694-0.033
		c0.236,1.433,0.752,2.872,1.388,4.173c0.277,0.568,0.576,1.067,0.72,1.691c0.164,0.706,0.333,1.396,0.606,2.07
		c1.13,2.79,3.389,5.033,6.048,6.394l0.229,0.117c-0.016,0.919-0.029,1.837-0.048,2.755c-0.025,1.241,0.06,2.679-0.458,3.844
		c-0.276,0.623-0.354,1.097-0.75,1.662c-0.9,1.291-1.882,2.528-2.838,3.777c-0.96,1.254-1.143,2.139-0.654,3.171
		c0.29,0.613,0.999,1.049,1.551,1.395c1.024,0.643,2.135,1.15,3.258,1.593c1.92,0.757,4.011,1.416,6.077,1.624
		c2.089,0.21,4.279,0.169,6.372,0.052c1.223-0.068,2.325-0.458,3.472-0.854c4.014,1.386,8.698,1.286,12.779,0.189
		c4.079-1.097,7.551-2.938,7.998-4.24c0.655-1.906-1.283-3.588-2.326-4.952c-0.715-0.936-1.681-1.969-2.092-3.097
		c-0.778-2.135-0.704-4.61-0.576-6.844l0.529-0.273c1.842-0.95,3.457-2.355,4.65-4.051c0.576-0.818,1.055-1.707,1.398-2.646
		c0.304-0.83,0.26-1.109,1.177-0.952c2.653,0.455,3.579,0.383,4.299-0.337c0.759-0.759,0.856-1.851,0.288-3.22
		c-0.041-0.099,0.027-0.149,0.313-0.23c-0.031,0.009-0.038,0.011,0.003-0.001C75.613,47.219,75.783,45.888,74.682,42.311z
		 M62.078,73.018c-3.107,1.606-6.585,2.558-10.09,2.558c-1.66,0-3.382-0.187-4.926-0.83c-0.565-0.235-1.149-0.522-1.78-0.438
		c-0.561,0.076-1.085,0.42-1.598,0.641c-0.993,0.429-1.993,0.532-3.068,0.552c-1.537,0.027-3.084,0.012-4.615-0.148
		c-2.364-0.246-4.828-1.255-6.917-2.346c0.981-1.189,3.499-4.654,3.612-4.873c0.159-0.31,0.239-0.596,0.24-0.898
		c0.374-0.288,0.723-0.677,0.976-1.073c2.058,3.904,6.79,7.331,11.165,8.043c1.054,0.171,2.153-0.196,3.129-0.558
		c1.196-0.442,2.369-1.005,3.438-1.704c2.182-1.427,4.155-3.34,5.525-5.566c0.242,0.364,0.525,0.712,0.876,0.977
		c0.331,0.251,0.38,0.729,0.619,1.093c0.27,0.411,0.569,0.804,0.859,1.2C60.357,70.783,61.235,71.887,62.078,73.018z M37.577,66.514
		c2.304,1.77,4.936,2.922,7.873,2.922c3.069,0,5.695-1.038,8.119-2.886c-1.028,1.229-2.299,2.327-3.656,3.179
		c-1.161,0.73-2.892,1.721-4.313,1.722c-1.267-0.107-2.71-0.815-3.798-1.434c-1.536-0.874-2.929-2.028-4.091-3.359
		C37.661,66.607,37.616,66.559,37.577,66.514z M71.7,43.181c-0.501-0.496-0.244-0.242-0.002-0.002
		c-0.973-0.962-2.376-2.028-3.697-2.805c-1.12-0.659-1.491-0.361-0.828,0.664c0.471,0.729,4.543,7.904,4.031,8.1
		c-0.176,0.068-2.194-0.244-3.31-0.512c-1.658-0.396-1.682-0.386-1.779,0.863c-0.222,2.853-2.128,5.46-4.505,6.953
		c-0.686,0.431-1.911,0.673-2.384,1.385c-0.527,0.796-0.354,2.146-0.366,3.038c-0.017,1.087-0.021,2.178,0.072,3.262
		c0.024,0.271,0.396,2.188,0.193,2.217c-0.656,0.094-1.322-1.738-1.487-2.157c-0.255-0.648-0.507-1.533-0.958-2.076
		c-0.379-0.456-1.2,0.563-1.426,0.78c-0.852,0.817-1.735,1.605-2.677,2.318c-1.412,1.071-3.007,2.026-4.777,2.334
		c-2.783,0.482-5.436,0.077-7.854-1.412c-1.433-0.882-2.713-1.997-3.922-3.161c-0.335-0.322-0.842-0.993-1.346-1.063
		c-0.434-0.061-0.67,0.765-0.793,1.044c-1.05,2.37-1.082,2.433-1.498,2.876c-0.56,0.599-0.629,0.521-0.472-0.526
		c0.376-2.503,0.38-6.543,0.008-7.434c-0.271-0.651-1.55-0.971-2.104-1.307c-1.017-0.619-1.943-1.39-2.715-2.297
		c-0.714-0.839-1.295-1.799-1.66-2.841c-0.3-0.857-0.283-1.799-0.661-2.624c-1.152-2.516-1.97-4.89-1.938-7.703
		c0.017-1.422,0.251-2.799,0.565-4.181c0.061-0.265,0.385-1.041,0.134-1.292c-0.309-0.31-1.238,1.406-1.33,1.55
		c-0.723,1.127-1.458,2.246-2.223,3.346c-0.472,0.68-0.945,1.367-1.483,1.996c-0.055,0.063-0.526,0.603-0.437,0.225
		c0.2-0.834,0.626-1.659,0.948-2.45c0.513-1.258,1.054-2.502,1.594-3.747c0.621-1.428,1.237-2.857,1.873-4.279
		c1.162-2.596,2.321-5.193,3.53-7.769c0.569-1.215,1.167-2.416,1.787-3.606c0.367-0.704,0.705-1.538,1.216-2.156
		c1.256-1.521,2.913-1.558,4.896-0.108c0.988,0.722,0.98,0.729,2.402-2.032c0.959-1.861,1.328-2.538,1.536-2.82
		c0.467-0.632,1.727,0.159,3.066,1.925c0.484,0.639,0.32,0.623,2.718,0.254c13.445-2.074,21.735,5.541,28.328,26.025
		C72.627,44.015,72.611,44.083,71.7,43.181z M71.907,43.386C71.964,43.442,71.977,43.454,71.907,43.386L71.907,43.386z"/>
	<path d="M64.761,49.074c-0.024,0.096-0.017,0.066-0.001,0.002c-0.388,1.507-0.957,2.765-1.652,4.153
		c-0.515,0.973-0.798,1.408-1.311,2.081c-0.737,0.968-0.744,1.085-0.042,0.684c1.255-0.719,2.703-2.378,3.459-3.964
		c0.571-1.201,0.886-3.33,0.542-3.674C65.396,47.997,64.955,48.315,64.761,49.074z"/>
</g>
</svg>
