<?xml version="1.0" encoding="utf-8"?>
<!-- Generator: Adobe Illustrator 16.0.0, SVG Export Plug-In . SVG Version: 6.00 Build 0)  -->
<!DOCTYPE svg PUBLIC "-//W3C//DTD SVG 1.1//EN" "http://www.w3.org/Graphics/SVG/1.1/DTD/svg11.dtd">
<svg version="1.1" id="Layer_1" xmlns="http://www.w3.org/2000/svg" xmlns:xlink="http://www.w3.org/1999/xlink" x="0px" y="0px"
	 width="90px" height="90px" viewBox="0 0 90 90" enable-background="new 0 0 90 90" xml:space="preserve">
<g>
	<path d="M76.101,49.326c-1.831-2.292-3.855-4.423-6.228-6.161c-0.538-0.394-1.574-0.742-1.428-1.525
		c0.328-1.743,0.675-3.483,0.961-5.233c0.604-3.686,1.499-8.198-1.224-11.261c-3.695-4.156-9.641-6.551-14.71-8.464
		c-5.199-1.961-9.463-3.322-14.872-1.737c-5.521,1.618-11.179,3.863-15.999,7.039c-4.176,2.751-5.943,5.576-5.472,10.526
		c0.272,2.871,0.902,5.682,1.457,8.507c0.377,1.924-1.963,2.614-3.247,3.768C13.606,46.341,10,49.144,10,51.694
		c0,0.827,0.229,1.665,1.04,2.036c0.869,0.398,3.487-0.328,3.929,0.113c0.248,0.259-0.2,2.041-0.188,2.447
		c0.027,0.844,0.329,1.542,1.092,1.957c1.604,0.872,3.323-1.387,4.144-0.267c1.338,1.826,0.522,2.434,0.264,4.605
		c-0.153,1.288,0.021,2.818,1.456,3.25c1.605,0.482,3.537-0.207,5.037-0.738c1.566-0.555,1.605,0.039,2.785,1.206
		c3.644,3.651,7.758,7.135,13.148,7.337c4.886,0.184,8.816-2.133,12.342-5.329c1.306-1.183,2.532-2.448,3.771-3.7
		c0.301-0.303,4.054,1.29,4.809,1.375c4.624,0.522,2.68-4.238,2.356-6.832c-0.045-0.355,1.072-1.908,1.252-1.873
		c1.071,0.207,1.761,1.247,2.991,1.25c0.9,0.003,1.781-0.535,2.05-1.417c0.197-0.646-0.386-2.954-0.063-3.27
		c0.745-0.746,3.278,0.717,4.421-0.476C77.854,52.097,77.001,50.452,76.101,49.326C73.751,46.386,77.195,50.695,76.101,49.326z
		 M27.04,23.858c-0.018,0.016-0.046,0.042-0.086,0.07C26.985,23.905,27.015,23.881,27.04,23.858z M21.026,28.967
		c1.229-4.243,9.025-6.42,12.548-8.163c2.483-1.222,5.62-2.216,8.339-2.693c2.387-0.416,4.392,0.218,6.708,0.944
		c4.588,1.438,9.206,3.375,13.26,5.972c2.938,1.882,4.369,3.381,4.174,6.909c-0.163,2.961-0.711,5.89-1.33,8.785
		c-1.69-1.066-3.482-2.032-5.338-2.779c-0.572-0.235-0.999-0.194-1.019-0.871c-0.44-0.819-0.232-2.645-0.484-3.621
		c-0.403-1.566-1.066-3.064-1.962-4.412c-3.761-5.657-11.166-7.915-17.466-5.467c-5.798,2.253-9.042,7.776-9.254,13.828
		c-2.313,0.959-4.59,1.952-6.709,3.303C21.812,36.906,20.414,32.879,21.026,28.967C21.22,28.3,20.938,29.529,21.026,28.967z
		 M57.473,39.221c1.96,0.713,3.676,1.745,5.52,2.671c2.558,1.29,2.373,2.054,0.625,4.179c-1.457,1.772-3.579,1.261-5.415,0.496
		c-2.454-1.021-5.324-1.638-7.97-1.831c-3.83-0.279-7.708-0.403-11.549-0.156c-2.568,0.165-5.28,0.684-7.771,1.341
		c-2.235,0.59-4.966,2.41-7.011,0.502c-1.582-1.476-2.458-2.773-0.603-3.991c1.841-1.208,3.92-2.432,6.039-3.073
		c2.501-0.757,1.512-2.362,1.999-4.507c0.708-3.111,2.073-5.545,4.559-7.623c4.512-3.771,10.39-3.299,15.216-0.5
		c2.086,1.21,3.849,3.889,4.619,6.121c0.438,1.27,0.762,2.642,0.804,3.988C56.573,38.077,55.879,38.642,57.473,39.221
		C58.515,39.6,56.496,38.866,57.473,39.221z M20.862,51.854c-0.838,0.739-1.674,1.555-1.317,2.775
		c-0.42,0.273-1.59,1.348-2.171,1.141c-1.066-0.381,1.589-4.891,0.171-4.814c-1.458,0.079-6.188,1.827-4.031-0.804
		c1.927-2.351,4.163-4.539,6.796-6.084c0.479,1.394,1.573,3.014,2.708,3.958c0.57,0.474,1.062,0.353,1.134,1.132
		c0.099,1.055,0.219,2.108,0.327,3.162C23.679,50.49,22.171,50.537,20.862,51.854z M23.353,63.528
		c-1.527,0.207-0.166-2.918,0.003-3.517c1.093,0.991,2.505,1.783,3.901,2.244C26.059,62.84,24.68,63.348,23.353,63.528
		C22.464,63.648,24.333,63.395,23.353,63.528z M59.646,59.122c0.396,0.324-2.088,0.293-1.957,0.227
		c-0.68,0.343-1.607,2.354-2.134,2.956c-2.247,2.571-5.298,5.593-8.562,6.814c-4.255,1.591-8.119-0.011-11.429-2.671
		c-1.592-1.279-3.121-2.672-4.463-4.214c-1.456-1.673-2.269-2.196-4.19-3.186c1.627-0.837,0.588-4.628,0.453-6.007
		c-0.095-0.966-0.194-1.932-0.3-2.897c-0.187-1.707-0.112-1.45,1.393-1.944c5.083-1.67,10.096-2.309,15.438-2.309
		c4.433,0,8.91,0.236,13.125,1.728c1.043,0.369,2.921,0.503,2.803,1.646c-0.089,0.849-0.165,1.699-0.25,2.549
		C59.42,53.363,58.164,57.892,59.646,59.122C59.657,59.13,58.973,58.563,59.646,59.122z M63.461,63.449
		c-1.303-0.244-2.587-0.647-3.753-1.285c1.469-0.435,2.863-1.398,3.966-2.438C63.674,60.771,65.691,63.866,63.461,63.449
		C62.037,63.183,64.381,63.621,63.461,63.449z M70.88,51.165c-2.422-0.446-1.474,0.718-1.136,2.531
		c0.401,2.147,0.176,2.481-1.706,1.18c-1.738-1.202,0.258-0.552-0.385-1.696c-0.267-0.474-0.904-0.908-1.289-1.294
		c-1.679-1.685-3.174-1.731-4.042,0.598c0.108-1.095-0.057-3.443,0.943-3.887c1.619-0.718,3.133-2.922,3.646-4.554
		c2.26,1.611,4.369,3.355,6.246,5.411c0.386,0.422,1.347,1.255,1.353,1.899C74.516,51.895,71.095,51.205,70.88,51.165
		C69.085,50.834,73.234,51.598,70.88,51.165z"/>
	<path d="M46.284,28.549c-3.828-0.67-7.435,0.073-9.811,3.458c-0.977,1.39-2.39,4.199-1.188,5.809
		c0.999,1.334,3.452,0.577,4.859,0.455c1.889-0.163,3.773-0.402,5.67-0.153c1.536,0.203,4.043,0.918,5.54,0.408
		C56.137,36.893,49.077,29.027,46.284,28.549C46.187,28.532,48.83,28.985,46.284,28.549z M47.156,34.913
		c-2.894-0.326-5.829-0.139-8.709,0.202c1.898-4.765,8.824-4.693,10.682,0.051C48.472,35.077,47.814,34.987,47.156,34.913
		C45.991,34.781,47.667,34.97,47.156,34.913z"/>
</g>
</svg>
