<?xml version="1.0" encoding="utf-8"?>
<!-- Generator: Adobe Illustrator 16.0.0, SVG Export Plug-In . SVG Version: 6.00 Build 0)  -->
<!DOCTYPE svg PUBLIC "-//W3C//DTD SVG 1.1//EN" "http://www.w3.org/Graphics/SVG/1.1/DTD/svg11.dtd">
<svg version="1.1" id="Layer_1" xmlns="http://www.w3.org/2000/svg" xmlns:xlink="http://www.w3.org/1999/xlink" x="0px" y="0px"
	 width="90px" height="90px" viewBox="0 0 90 90" enable-background="new 0 0 90 90" xml:space="preserve">
<path d="M72.824,57.604c-0.237-1.124-1.188-1.958-2.361-1.885c-1.419,0.089-1.861,1.204-2.566,2.217
	c-0.733,1.053-1.864,1.335-3.09,1.361c-0.429,0.009-3.702-0.174-3.127-1.098c0.179-0.286,0.578-1.3,0.957-1.3
	c0.729,0,1.454-0.181,2.131-0.442c1.469-0.568,2.809-1.539,3.832-2.733c1.1-1.281,2.003-2.938,2.449-4.569
	c0.267-0.971,0.438-2.331-0.443-3.058l-0.271-0.223c0.489-1.414,1.327-3.575,0.563-5.025c-0.402-0.763-1.173-1.243-2.039-1.225
	c-1.169,0.025-1.657,0.834-2.539,1.407c-0.664,0.432-1.561-0.771-1.822-1.274c-0.818-1.574-1.267-3.368-1.849-5.036
	c-1.09-3.128-2.303-6.922-4.897-9.172c-0.841-0.729-1.848-1.207-2.941-1.409c-0.45-0.084-1.219,0.079-1.11-0.513
	c0.173-0.943,0.336-1.889,0.504-2.833c0.376-2.108,0.817-4.213,1.112-6.334c0.125-0.896,0.267-1.845-0.364-2.579
	c-0.954-1.113-2.47-0.992-3.527-0.144c-1.329,1.066-2.525,2.305-3.804,3.433c-1.21-1.299-2.404-2.627-3.708-3.834
	c-0.595-0.551-1.317-1.247-2.171-1.326c-0.833-0.078-1.453,0.327-2.019,0.881c-1.056,1.036-2.091,2.094-3.111,3.165
	c-0.296,0.312-0.573,0.701-0.905,0.973c-0.336,0.274-1.115-0.688-1.3-0.858c-1.022-0.945-2.111-2.282-3.385-2.912
	c-0.865-0.429-2.189-0.093-2.789,0.609c-1.006,1.178-0.28,3.203-0.055,4.531c0.377,2.218,0.782,4.43,1.175,6.644
	c0.063,0.35,0.193,0.631-0.12,0.88c-0.816,0.648-1.702,1.206-2.518,1.858c-2.989,2.396-5.529,5.327-7.306,8.73
	c-3.786,7.255-4.382,16.304-1.971,24.076c1.724,5.556,5.018,10.686,9.648,14.254c1.451,1.117,5.771,4.506,7.112,1.562
	c0.164-0.36,0.145-0.648,0.606-0.451c0.779,0.332,1.515,0.74,2.319,1.017c1.505,0.518,3.081,0.66,4.644,0.338l0.814-0.167
	l0.706,0.474c3.307,2.226,7.465,2.804,11.361,2.345c2.248-0.265,4.451-0.869,6.542-1.73c1.532-0.632,3.263-1.417,4.316-2.756
	c0.336-0.427,0.585-0.932,0.627-1.479c0.032-0.415-0.378-1.282-0.074-1.484c1.496-0.999,2.817-2.169,3.919-3.599
	C71.93,64.377,73.515,60.862,72.824,57.604C72.331,55.272,73.682,61.652,72.824,57.604z M66.767,65.508
	c-1.613,1.784-3.709,2.992-5.97,3.763c-0.886,0.303-3.019,0.444-3.307,1.544c-0.354,1.358,1.941,1.916,2.837,2.106
	c-4.711,2.128-11.097,2.907-15.506-0.357c1.188-0.642,2.317-1.554,3.315-2.452c0.827-0.743,1.619-1.534,2.34-2.382
	c0.291-0.342,0.576-0.694,0.812-1.077c0.282-0.46,0.4-0.495,0.966-0.445c0.305,0.026,1.15-0.011,1.369,0.24
	c0.312,0.358,0.204,1.257,0.277,1.699c0.106,0.639,0.451,1.171,0.675,1.768c0.191,0.511,0.518,1.128,1.11,1.234
	c0.824,0.148,1.241-0.689,1.397-1.359c0.273-1.171,0.549-2.318,0.884-3.475c1.132-0.049,2.319-0.496,3.334-0.985
	c0.932-0.449,1.066-1.51,0.106-2.008c-0.568-0.295-1.21-0.345-1.833-0.429c-0.509-0.069-0.893-0.35-1.377-0.501
	c-0.55-0.171-0.491-0.754-0.74-1.251c-0.156-0.312-0.423-0.946-0.291-1.295c0.242-0.091,0.487-0.143,0.725-0.253
	c1.477,1.519,3.1,2.581,5.229,2.932c2.128,0.352,4.419-0.054,6.171-1.353C68.83,62.778,67.879,64.277,66.767,65.508z M39.623,72.152
	c-1.277-0.11-2.514-0.682-3.595-1.346c-0.53-0.325-1.04-0.684-1.535-1.061c-0.478-0.363-1.288-0.832-1.455-1.457
	c0.36-0.828,0.473-1.803,0.737-2.665c0.321-1.048,0.644-2.063,1.082-3.071c1.083-2.488,2.404-4.794,3.794-7.114
	c2.366-3.952,5.336-7.648,8.387-11.088c1.621,2.668,3.606,4.773,5.969,6.781c0.307,1.001,0.086,2.504,0.073,3.539
	c-0.017,1.29-0.067,2.584-0.212,3.866c-0.092,0.813-0.291,1.54-0.506,2.324c-0.188,0.683-0.445,1.198-0.73,1.833
	c-0.252,0.563-0.244,1.279,0.328,1.644c-1.437-0.152-1.85,0.889-2.633,1.835c-0.877,1.059-1.855,2.046-2.881,2.96
	C44.565,70.808,42.211,72.212,39.623,72.152C39.198,72.115,39.674,72.153,39.623,72.152z M32.005,63.899
	c-0.543,1.181-0.489,2.531-0.939,3.75c-0.416,1.127-0.097,2.594-0.068,3.772c-7.03-4.721-11.281-12.501-11.648-20.969
	c-0.211-4.892,0.636-9.979,2.96-14.325c1.14-2.132,2.592-4.099,4.278-5.829c1.652-1.646,3.526-2.93,5.452-4.225
	c0.42-0.283,0.789-0.477,1.271-0.619c0.482-0.143,0.792-0.463,1.231-0.664c0.631-0.275,1.299-0.366,1.925-0.694
	c0.706-0.367,1.792-0.22,2.562-0.223c1.376-0.006,2.753,0.003,4.129,0.031c0.661,0.014,1.481-0.049,2.106,0.206
	c0.429,0.176,0.782,0.394,1.249,0.481c0.439,0.082,1.022,0.033,1.396,0.314c0.425,0.317,0.894,0.428,1.355,0.662
	c0.398,0.202,0.743,0.5,1.173,0.643c0.362,0.228,0.656,0.547,1.026,0.764c0.469,0.272,1.026,0.266,1.552,0.27
	c4.351,0.063,5.747,6.293,6.841,9.536c0.578,1.716,1.032,3.724,2.111,5.218c1.207,1.671,3.332,2.957,5.405,2.173
	c-0.433,1.007-1.246,1.779-2.211,2.278c-0.678,0.349-1.949,0.551-2.195,1.407c-0.52,1.81,3.513,1.563,4.381,1.447
	c-0.482,1-1.019,2.006-1.819,2.79c-1.187,1.061-2.602,1.392-4.145,1.497c-0.569-0.011-1.211-0.122-1.748-0.321
	c-0.654-0.244-1.255-0.709-1.981-0.709c-1.05,0-1.238,0.947-1.552,1.742c-0.271,0.687-0.559,1.192-0.687,1.945
	c-0.1,0.592-0.485,0.993-0.675,1.555c0.142-2.204,0.477-4.62,0.084-6.818c-0.223-1.246-1.374-1.895-2.198-2.766
	c-0.686-0.724-1.237-1.492-1.838-2.284c-0.395-0.521-0.815-0.988-1.079-1.591c-0.262-0.599-0.752-1.03-0.792-1.717
	c-0.059-1.011,1.253-1.777,1.651-2.622c0.203-0.431,0.647-0.706,0.832-1.152c0.413-0.56,0.676-0.937,0.908-1.603
	c0.083-0.068,0.399-0.274,0.399-0.388c0.139-0.177,0.229-0.381,0.256-0.656c0.021-0.163,0.019-0.33-0.012-0.492
	c-0.078-0.563-0.367-0.853-0.679-0.956c-0.745-0.33-1.323,0.511-1.465,1.132c-0.451,0.234-0.655,0.634-0.969,1.005
	c-0.535,0.635-1.151,1.199-1.618,1.892c-0.907,1.343-2.038,2.524-3.096,3.748c-0.853,0.988-1.666,2.011-2.502,3.014
	c-1.076,1.291-2.248,2.484-3.202,3.877c-0.796,1.16-1.587,2.29-2.34,3.48c-0.719,1.135-1.54,2.254-2.123,3.475
	c-0.576,1.211-1.228,2.458-1.695,3.717c-0.229,0.617-0.638,1.288-0.783,1.921C32.334,62.66,32.286,63.285,32.005,63.899
	C31.972,63.972,32.228,63.414,32.005,63.899z M35.648,19.359c0.729,0,1.279-0.752,1.746-1.221c1.41-1.42,2.779-2.88,4.18-4.31
	c1.322,1.27,2.558,2.63,3.845,3.934c0.507,0.514,1.186,1.424,1.95,1.574c0.348,0.068,0.599-0.021,0.88-0.227
	c1.175-0.854,2.221-1.926,3.288-2.904c-0.406,2.554-0.962,5.084-1.373,7.637c-2.781-1.438-5.773-1.962-8.892-2.003
	c-1.301-0.017-2.65-0.124-3.935,0.115c-1.57,0.187-3.107,0.802-4.463,1.597c-0.506-2.42-0.84-4.885-1.288-7.315
	c3.377,3.123,3.41,3.123,4.041,3.123H35.648z M56.666,58.103c0.325-0.604,0.463-1.274,0.681-1.919
	c0.188-0.561,0.453-1.084,0.549-1.674c0.557,0.302,1.059,0.491,1.682,0.623C59.096,56.433,57.888,57.491,56.666,58.103
	C56.864,57.733,56.723,58.074,56.666,58.103z M58.466,64.425c-0.677,0.168-1.548,0.176-1.973,0.826
	c-0.43,0.658-0.555,1.722-0.773,2.474c-0.088-0.321-0.162-0.646-0.227-0.973c-0.346-1.71-0.643-1.892-2.512-2.244
	c1.904-0.29,2.276-1.706,2.626-3.331C56.056,62.911,56.642,63.971,58.466,64.425C58.348,64.454,57.142,64.095,58.466,64.425z"/>
</svg>
