<?xml version="1.0" encoding="utf-8"?>
<!-- Generator: Adobe Illustrator 16.0.0, SVG Export Plug-In . SVG Version: 6.00 Build 0)  -->
<!DOCTYPE svg PUBLIC "-//W3C//DTD SVG 1.1//EN" "http://www.w3.org/Graphics/SVG/1.1/DTD/svg11.dtd">
<svg version="1.1" id="Layer_1" xmlns="http://www.w3.org/2000/svg" xmlns:xlink="http://www.w3.org/1999/xlink" x="0px" y="0px"
	 width="90px" height="90px" viewBox="0 0 90 90" enable-background="new 0 0 90 90" xml:space="preserve">
<g>
	<path d="M76.101,49.326c-2.35-2.94-4.405-4.917-6.897-6.636c-0.758-0.522-0.838-0.602-0.806-0.789
		c0.02-0.114,0.232-1.235,0.473-2.492c1.384-7.238,1.488-10.568,0.399-12.72c-1.643-3.248-8.042-7.201-16.797-10.377
		c-5.595-2.029-8.357-2.601-10.561-2.187c-4.697,0.884-12.729,3.992-17.618,6.816c-3.596,2.078-5.936,4.208-6.75,6.146
		c-0.88,2.093-0.674,5.592,0.731,12.422c0.6,2.914,0.628,2.575-0.263,3.166c-2.296,1.522-5.19,4.342-7.254,7.066
		C10.068,50.654,10,50.83,10,51.694c0,1.881,1.017,2.509,3.626,2.241c0.715-0.074,1.319-0.115,1.343-0.091
		c0.022,0.023-0.017,0.469-0.087,0.991c-0.273,2.004-0.023,2.861,0.991,3.413c0.904,0.491,1.827,0.382,3.096-0.367l0.694-0.411
		l0.125,0.19c0.068,0.104,0.34,0.476,0.604,0.825c0.264,0.349,0.525,0.696,0.582,0.771c0.085,0.113,0.067,0.247-0.106,0.796
		c-1.828,5.787,0.226,7.247,6.69,4.755l0.365-0.141l1.635,1.638c5.462,5.474,9.004,7.356,13.829,7.35
		c4.79-0.006,8.43-1.969,13.903-7.496l1.619-1.635l0.781,0.319c6.311,2.577,8.348,0.981,6.461-5.061
		c-0.198-0.633-0.211-0.736-0.111-0.892c0.093-0.146,0.523-0.763,1.054-1.507c0.105-0.149,0.12-0.146,0.464,0.089
		c1.548,1.062,2.748,1.321,3.729,0.805c1.013-0.533,1.288-1.438,1.028-3.371c-0.075-0.562-0.121-1.039-0.1-1.06
		c0.021-0.021,0.607,0.021,1.304,0.094c2.245,0.233,3.226-0.168,3.604-1.474C77.43,51.414,77.195,50.695,76.101,49.326z
		 M27.04,23.858c-0.018,0.016-0.046,0.042-0.086,0.07C26.985,23.905,27.015,23.881,27.04,23.858z M21.026,28.967
		c0.193-0.667,1.1-1.905,3.041-3.246c1.204-0.832,1.782-1.169,2.056-1.305c0.258-0.129,0.591-0.308,0.816-0.476
		c0.342-0.208,1.948-1.027,2.247-1.146c0.274-0.108,0.64-0.308,0.862-0.449c0.096-0.06,0.335-0.17,0.449-0.208
		c0.351-0.115,0.84-0.343,1.143-0.51c0.201-0.111,0.593-0.285,0.822-0.365c0.359-0.125,0.838-0.322,1.111-0.458
		c0.125-0.062,0.514-0.216,0.84-0.319c0.397-0.125,0.983-0.343,1.336-0.496c0.268-0.116,0.754-0.301,1.041-0.396
		c0.333-0.109,0.877-0.291,1.209-0.403c0.561-0.189,1.329-0.419,2.652-0.792c0.327-0.092,0.916-0.226,1.261-0.287
		c0.423-0.074,0.981-0.184,1.271-0.25l0.079-0.018c0.086-0.02,0.181-0.042,0.228-0.05c0.081,0.009,0.285,0.049,0.501,0.09
		l0.116,0.022c0.452,0.087,1.213,0.232,1.691,0.323c0.448,0.085,0.94,0.229,1.06,0.279c0.332,0.14,0.863,0.311,1.238,0.397
		c0.215,0.05,0.78,0.224,1.214,0.383c0.492,0.18,1.134,0.4,1.461,0.501c0.271,0.084,0.58,0.208,0.659,0.249
		c0.279,0.143,0.841,0.352,1.25,0.483c0.355,0.115,0.697,0.259,0.771,0.298c0.31,0.178,0.816,0.375,1.156,0.483
		c0.235,0.074,0.574,0.219,0.7,0.289c0.26,0.146,0.679,0.342,0.965,0.433c0.249,0.089,1.569,0.714,2.113,1.019
		c0.207,0.117,0.651,0.337,0.964,0.486c0.282,0.134,0.551,0.288,0.603,0.321c0.233,0.175,0.625,0.398,0.89,0.53
		c0.18,0.09,0.482,0.269,0.623,0.368c0.229,0.162,0.599,0.398,0.842,0.54c2.249,1.304,3.509,2.724,3.743,4.221
		c0.197,1.258-0.22,6.2-0.639,7.553c-0.138,0.446-0.319,1.494-0.408,2.089c-0.093,0.624-0.189,1.149-0.279,1.569
		c-0.835-0.527-1.781-1.064-2.719-1.551c-0.93-0.489-1.809-0.901-2.619-1.228c-0.158-0.065-0.313-0.126-0.46-0.181
		c-0.016-0.006-0.032-0.013-0.048-0.019l-0.217-0.08c-0.092-0.034-0.189-0.07-0.276-0.103c-0.007-0.145-0.013-0.322-0.018-0.488
		L58.36,36.81c-0.148-4.658-2.311-8.654-5.669-11.216c-2.447-1.896-5.512-3.02-8.849-3.02c-0.097,0-0.193,0.005-0.29,0.007
		c-0.573,0.001-1.158,0.032-1.737,0.092c-0.702,0.073-1.639,0.305-2.564,0.618c-2.148,0.694-4.065,1.865-5.632,3.407
		c-2.506,2.428-4.029,5.684-4.349,9.409c-0.004,0.036-0.007,0.072-0.01,0.108c-0.019,0.233-0.034,0.469-0.043,0.706
		c-0.004,0.113-0.007,0.217-0.01,0.313c-0.002,0.054-0.004,0.111-0.006,0.167c-0.184,0.076-0.437,0.172-0.685,0.267l-0.428,0.164
		c-0.086,0.033-0.845,0.325-1.111,0.466c-0.054,0.028-0.31,0.154-0.674,0.332c-0.188,0.092-0.405,0.197-0.642,0.311
		c-0.101,0.049-0.208,0.102-0.316,0.157c-0.022,0.011-0.045,0.022-0.067,0.034c-0.106,0.054-0.216,0.11-0.328,0.169
		c-0.004,0.002-0.007,0.003-0.011,0.005c-0.115,0.061-0.233,0.124-0.354,0.188c-0.028,0.016-0.058,0.031-0.087,0.047
		c-0.103,0.056-0.207,0.113-0.312,0.171c-0.021,0.011-0.039,0.021-0.06,0.033c-0.117,0.065-0.235,0.132-0.354,0.2
		c-0.039,0.022-0.078,0.044-0.117,0.067c-0.089,0.051-0.177,0.103-0.266,0.154c-0.037,0.021-0.075,0.043-0.112,0.065
		c-0.111,0.066-0.223,0.132-0.333,0.198c-0.045,0.026-0.088,0.053-0.132,0.079c-0.079,0.048-0.157,0.095-0.234,0.143
		c-0.029,0.018-0.06,0.036-0.088,0.054c-0.094-0.522-0.197-1.017-0.272-1.278c-0.177-0.612-0.332-1.429-0.52-2.733
		c-0.067-0.467-0.202-1.103-0.313-1.477c-0.061-0.202-0.163-0.75-0.207-1.152c-0.047-0.434-0.126-1.051-0.18-1.336
		C20.92,32.225,20.938,29.529,21.026,28.967z M57.473,39.221c1.042,0.379,3.061,1.268,3.371,1.485
		c0.117,0.081,0.459,0.258,0.76,0.394c0.302,0.135,0.656,0.328,0.788,0.428c0.132,0.101,0.402,0.265,0.601,0.365
		c0.664,0.335,2.151,1.369,2.203,1.532c0.086,0.27-1.258,2.396-1.884,2.983c-0.432,0.403-1.113,0.765-1.445,0.766
		c-0.112,0-0.388,0.055-0.609,0.121c-0.36,0.107-0.441,0.107-0.749-0.002c-0.19-0.067-0.631-0.193-0.979-0.279
		c-0.35-0.087-0.946-0.287-1.326-0.445c-0.379-0.158-1.032-0.389-1.45-0.514s-0.962-0.301-1.208-0.39
		c-0.247-0.089-0.696-0.185-1-0.211c-0.304-0.026-0.93-0.133-1.392-0.237c-1.066-0.239-2.203-0.426-2.92-0.478
		c-0.309-0.022-0.921-0.086-1.36-0.143c-1.139-0.144-8.971-0.139-10.44,0.006c-1.342,0.133-3.098,0.411-4.399,0.696
		c-0.286,0.063-0.898,0.169-1.36,0.236c-1,0.145-3.232,0.761-4.096,1.128c-0.339,0.145-0.807,0.298-1.041,0.341
		c-0.233,0.044-0.586,0.14-0.784,0.215c-0.532,0.201-0.911,0.231-1.13,0.091c-0.104-0.066-0.381-0.177-0.616-0.246
		c-0.813-0.237-1.424-0.808-2.116-1.975c-0.194-0.327-0.466-0.772-0.604-0.99c-0.139-0.217-0.252-0.478-0.252-0.579
		c0-0.566,5.184-3.517,7.306-4.159c0.507-0.153,1.545-0.655,1.672-0.808c0.07-0.085,0.103-0.514,0.109-1.45
		c0.007-1.124,0.041-1.472,0.218-2.249c0.115-0.506,0.265-1.172,0.333-1.48c0.783-3.536,5.241-7.893,8.603-8.408
		c0.197-0.03,0.539-0.126,0.76-0.212c0.226-0.089,0.729-0.183,1.16-0.217c1.124-0.089,2.515-0.092,3.239-0.008
		c1.486,0.172,3.949,1.031,4.92,1.716c0.198,0.14,0.54,0.358,0.76,0.486c1.221,0.708,3.171,3.035,4.12,4.915
		c0.983,1.947,1.641,5.642,1.127,6.336C56.063,38.383,56.496,38.866,57.473,39.221z M20.862,51.854
		c-0.711,0.626-1.141,1.004-1.329,1.645c-0.121,0.413-0.091,0.78,0.012,1.13c-0.137,0.089-0.294,0.194-0.481,0.317
		c-2.156,1.418-2.224,1.297-1.333-2.402c0.432-1.797,0.484-1.741-1.298-1.407c-2.124,0.397-3.695,0.502-3.745,0.25
		c-0.069-0.347,2.586-3.37,4.237-4.823c1.301-1.145,2.144-1.769,3.385-2.497c0.167,0.486,0.456,0.961,0.735,1.415
		c1.066,1.731,1.863,2.735,3.063,3.181c0.029,0.375,0.107,1.174,0.174,1.783c0.046,0.42,0.123,1.159,0.196,1.873
		c-0.345-0.788-0.769-1.506-1.758-1.506c-0.682,0-1.113,0.383-1.614,0.826L20.862,51.854z M23.353,63.528
		c-0.889,0.121-0.919-0.289-0.205-2.79c0.081-0.285,0.15-0.523,0.208-0.728c0.3,0.272,0.593,0.511,0.869,0.702
		c0.396,0.273,1.919,1.175,3.032,1.542C26.204,62.769,24.333,63.395,23.353,63.528z M59.646,59.122
		c0.011,0.009,0.021,0.017,0.031,0.025c-0.408,0.212-0.699,0.322-0.837,0.354l-1.151-0.152l-1.019,1.528
		c-1.635,2.456-6.224,6.523-8.928,7.912c-1.175,0.604-2.734,0.936-4.392,0.936c-1.655,0-3.265-0.349-4.415-0.957
		c-2.548-1.345-6.816-5.063-8.617-7.505c-0.723-0.98-1.172-1.591-2.146-1.646c-0.225-0.072-0.736-0.301-1.262-0.571
		c0.197-0.102,0.337-0.229,0.422-0.324c0.489-0.54,0.44-1.197,0.385-1.958c-0.049-0.66-0.157-1.751-0.338-3.56l-0.032-0.33
		c-0.091-0.906-0.218-2.136-0.283-2.733c-0.053-0.483-0.114-1.109-0.149-1.503c0.106-0.032,0.216-0.07,0.329-0.112
		c0.109-0.042,0.383-0.118,0.543-0.147c0.38-0.07,0.961-0.27,1.337-0.431c0.761-0.324,2.862-0.902,3.748-1.031
		c0.5-0.072,1.141-0.184,1.458-0.253c1.248-0.273,2.951-0.543,4.238-0.67c0.623-0.062,2.813-0.104,5.327-0.104
		c2.66,0,4.428,0.047,4.799,0.094c0.467,0.06,1.097,0.125,1.435,0.15c0.649,0.047,1.715,0.223,2.714,0.448
		c0.45,0.102,1.156,0.229,1.577,0.266c0.195,0.017,0.522,0.088,0.646,0.133c0.276,0.1,0.841,0.282,1.284,0.415
		c0.375,0.112,0.977,0.325,1.314,0.465c0.44,0.183,1.109,0.407,1.525,0.511c0.263,0.065,0.54,0.144,0.714,0.197
		c-0.057,0.427-0.104,0.925-0.16,1.505l-0.027,0.287c-0.067,0.702-0.208,2.12-0.313,3.151c-0.21,2.042-0.32,3.136-0.355,3.741
		C59.017,57.806,58.973,58.563,59.646,59.122z M63.461,63.449c-1.424-0.266-2.68-0.698-3.753-1.285
		c0.889-0.263,1.873-0.842,2.627-1.349c0.444-0.299,0.896-0.671,1.339-1.089c0,0.002,0.001,0.004,0.002,0.005
		c0.311,0.807,0.836,2.891,0.836,3.32C64.512,63.571,64.381,63.621,63.461,63.449z M70.88,51.165
		c-1.795-0.331-1.89-0.281-1.535,0.791c0.229,0.695,0.624,2.808,0.639,3.418c0.017,0.749-0.484,0.561-2.697-1.03l0.367-1.164
		l-1.393-1.398c-0.778-0.781-1.248-1.252-2.033-1.252c-1.19,0-1.586,1.079-1.874,1.867c-0.01,0.029-0.021,0.058-0.031,0.087
		c0.071-0.719,0.142-1.423,0.183-1.856l0.027-0.288c0.059-0.612,0.112-1.168,0.159-1.539c1.416-0.387,2.264-1.381,3.355-3.124
		c0.386-0.615,0.706-1.128,0.865-1.634c0.197,0.141,0.428,0.297,0.705,0.483c2.567,1.725,6.886,6.002,6.894,6.826
		C74.514,51.664,73.234,51.598,70.88,51.165z"/>
	<path d="M46.284,28.549c-0.098-0.017-0.36-0.079-0.54-0.132c-0.639-0.187-1.532-0.214-2.008-0.214
		c-0.426,0-1.238,0.023-1.896,0.174c-3.17,0.726-5.723,3.146-6.664,6.315c-0.313,1.053-0.545,2.247,0.109,3.124
		c0.22,0.293,0.728,0.786,1.667,0.786c0.243,0,0.501-0.032,0.787-0.099c0.14-0.031,0.809-0.117,1.587-0.169
		c0.768-0.052,1.769-0.146,2.277-0.216c0.464-0.063,1.25-0.101,2.105-0.101c0.846,0,1.633,0.038,2.105,0.1
		c0.502,0.066,1.44,0.16,2.092,0.208c0.629,0.047,1.263,0.132,1.424,0.17c0.455,0.107,0.841,0.16,1.178,0.16
		c0.989,0,1.529-0.451,1.81-0.829c0.652-0.883,0.414-2.064,0.096-3.104C51.465,31.639,48.83,28.985,46.284,28.549z M47.156,34.913
		c-1.165-0.131-1.771-0.139-3.352-0.139H43.78h-0.148c-2.127,0-2.766,0.03-4.019,0.191l-0.239,0.031
		c-0.229,0.029-0.443,0.057-0.643,0.082c-0.099,0.013-0.193,0.025-0.284,0.036c0.359-0.902,1.011-1.731,1.833-2.375
		c1.018-0.778,2.295-1.263,3.607-1.263c0.437,0,0.867,0.054,1.28,0.161c0.258,0.067,0.51,0.154,0.754,0.255
		c1.428,0.623,2.64,1.823,3.207,3.271C48.281,35.051,47.667,34.97,47.156,34.913z"/>
</g>
</svg>
