<?xml version="1.0" encoding="utf-8"?>
<!-- Generator: Adobe Illustrator 16.0.0, SVG Export Plug-In . SVG Version: 6.00 Build 0)  -->
<!DOCTYPE svg PUBLIC "-//W3C//DTD SVG 1.1//EN" "http://www.w3.org/Graphics/SVG/1.1/DTD/svg11.dtd">
<svg version="1.1" id="Layer_1" xmlns="http://www.w3.org/2000/svg" xmlns:xlink="http://www.w3.org/1999/xlink" x="0px" y="0px"
	 width="90px" height="90px" viewBox="0 0 90 90" enable-background="new 0 0 90 90" xml:space="preserve">
<g>
	<path d="M70.848,43.53c-0.179-1.104-0.398-2.204-0.69-3.286c-0.198-0.733-0.584-1.48-0.713-2.224
		c-0.098-0.56-0.01-1.211-0.014-1.78c-0.01-1.153-0.048-2.304-0.133-3.454c-0.2-2.704-0.604-5.417-1.357-8.025
		c-0.505-1.746-1.162-3.796-2.521-5.085c-4.188-3.972-10.7-7.423-15.849-8.4c-0.656-0.124-4.11-0.194-5.142-0.104
		c-4.714,0.414-12.918,4.65-16.99,8.773c-0.853,0.863-1.329,2.114-1.724,3.235c-0.599,1.705-1,3.48-1.305,5.259
		c-0.539,3.138-0.664,6.286-0.688,9.46c-0.887,1.474-1.952,2.742-3.356,3.753c-0.782,0.563-1.747,0.933-2.451,1.592
		c-0.531,0.497-0.564,1.16-0.506,1.845c0.096,1.125,0.854,1.633,1.929,1.71c0.79,0.056,1.584-0.048,2.366-0.157
		c0.586-0.082,0.504,0.143,0.454,0.655c-0.328,3.462,0.029,7.442,0.974,10.878c0.333,1.209,0.651,1.643,1.385,1.886
		c0.629,0.209-0.172,0.409-0.476,0.578c-0.578,0.32-1.125,0.693-1.64,1.106c-0.982,0.791-1.855,1.731-2.549,2.784
		c-0.81,1.229-2.037,3.696-0.52,4.896c0.363,0.288,0.798,0.382,1.244,0.472l0.008,1.229c0.021,3.327,0.719,4.453,2.68,4.334
		c1.003-0.061,1.333-0.5,1.895-1.305c0.791-1.135,1.686-2.198,2.674-3.166c1.774-1.736,3.889-3.224,6.262-4.007
		c0.644-0.212,1.123-0.024,1.781,0.006c0.49,0.022,0.98-0.06,1.465-0.118c1.025,0.824,2.037,1.683,3.186,2.333
		c1.491,0.845,3.165,1.164,4.845,1.402c1.65,0.233,4.497-0.16,6.106-0.843c2.049-0.87,3.837-2.418,5.444-3.922
		c1.017-0.952,1.983-1.958,2.905-3.002c0.512-0.58,1.009-1.172,1.491-1.775c0.131-0.164,0.62-1.028,0.911-0.936
		c1.204,0.384,1.916,0.291,2.59-0.339c0.458-0.428,0.809-0.988,1.132-1.521c0.218-0.362,0.408-0.737,0.615-1.105
		c0.169-0.302,0.148-0.327,0.47-0.162c0.864,0.44,2.14,0.188,2.658-0.524c0.582-0.803,0.693-2.08,0.867-3.02
		c0.202-1.099,0.325-2.169,0.371-3.284C71.021,48.012,71.196,45.674,70.848,43.53z M24.406,55.031
		C24.401,55.004,24.4,54.999,24.406,55.031L24.406,55.031z M24.684,56.439C24.694,56.495,24.695,56.5,24.684,56.439L24.684,56.439z
		 M24.538,55.698c-0.678-3.44-0.832-7.129-0.184-10.589c0.248-1.322,0.268-1.295-0.721-0.941c-2.535,0.908-5.006,0.852-3.405-0.079
		c2.206-1.281,4.317-3.186,5.346-5.57c0.608,1.225,1.385,2.948,2.803,3.449c1.317,0.464,2.767-0.063,4.004-0.489
		c-0.88,3.75-2.309,7.652-2.058,11.552c0.083,1.29,0.165,2.581,0.249,3.871c0.03,0.48,0.221,2.71-0.305,2.471
		c-0.509-0.232-1.979-3.605-2.701-6.198c-0.261-0.941-0.409-1.044-0.634-0.442c-0.231,0.619-0.806,2.56-1.111,3.754
		C25.3,58.528,25.066,58.384,24.538,55.698z M27.342,59.208c-0.173,0.058-0.217,0.056-0.198-0.007
		c0.014-0.045,0.067-0.226,0.118-0.402c0.116-0.389,0.148-0.394,0.305-0.048C27.701,59.051,27.678,59.096,27.342,59.208z
		 M24.223,72.072c0.273-0.372,0.725-0.984,0.819-1.113c-0.05,0.067-0.274,0.373-0.82,1.115c-1.058,1.438-1.102,1.478-1.344,1.207
		c-0.746-0.836-0.357-2.8-0.199-3.767c0.138-0.85,0.362-1.668,0.649-2.479c0.124-0.351,0.417-0.94-0.179-0.765
		c-0.38,0.112-1.199,0.56-1.689,0.923c-1.372,1.019-0.394-1.385,1.242-3.05c1.888-1.921,5.123-3.36,8.717-3.879
		c-0.075,0.378,0.068,0.817,0.102,1.199c0.126,1.428,0.967,2.89,1.981,3.654C29.947,66.363,26.555,68.901,24.223,72.072z
		 M35.49,64.693c-0.264,0-0.511-0.02-0.716-0.056c-0.897-0.16-2.111-1.697-2.249-3.263c-0.048-0.54-0.087-0.771-0.123-0.89
		c0.005-0.03,0.015-0.072,0.029-0.117c1.177,1.512,2.481,2.861,3.772,4.274C36.018,64.67,35.774,64.693,35.49,64.693z
		 M61.869,55.551c-0.356,0.978-0.646,1.992-1.135,2.917c-0.44,0.835-1.068,1.553-1.682,2.263c-5.281,6.116-8.19,7.985-12.438,7.99
		c-1.468,0.002-2.926-0.199-4.276-0.796c-1.549-0.686-2.814-1.783-4.097-2.862c-0.266-0.223-0.75-0.349-0.883-0.576
		c-0.395-0.677-1.085-1.225-1.62-1.786c-0.551-0.579-1.092-1.167-1.604-1.78c-0.416-0.497-0.814-1.307-1.396-1.616
		c-0.002-0.727-0.751-1.344-0.798-2.068c-0.029-0.465-0.061-0.928-0.09-1.393c-0.067-1.061-0.208-2.142-0.184-3.205
		c0.052-2.161,0.29-4.374,0.928-6.454c0.518-1.69,0.884-3.476,1.281-5.2c0.044-0.014,0.089-0.028,0.132-0.042
		c1.289,0.403,2.595,0.743,3.88,1.166c1.505,0.496,3.005,1.184,4.541,1.568c0.38,1.075,0.781,2.143,1.232,3.189
		c0.385,0.889,0.937,1.705,1.312,2.588c-0.003-0.007-0.025-0.063-0.034-0.147c0.101,0.745,0.928,1.601,1.333,2.177
		c0.647,0.925,1.313,1.828,2.065,2.669c0.402,0.448,1.12,1.498,1.855,1.257c0.84-0.277,0.546-1.392,0.404-1.927
		c-0.775-2.941-1.241-6.087-1.561-9.106c0.365,0.166,1.126-0.305,1.464-0.432c0.606-0.227,1.214-0.452,1.822-0.674
		c0.927-0.34,1.857-0.674,2.791-0.993c1.423-0.486,2.866-0.869,4.306-1.299c0.434,0.13,0.859,0.269,1.25,0.41
		c0.265,1.07,0.603,2.134,0.815,3.216c0.271,1.38,0.405,2.798,0.53,4.198c0.19,2.111,0.135,4.178-0.098,6.274
		C61.934,54.982,61.933,55.039,61.869,55.551z M38.792,40.068c0.945-0.057,1.745-0.17,2.417-0.345
		c0.026,0.18,0.068,0.367,0.114,0.563c0.094,0.348,0.204,0.691,0.313,1.034C40.672,40.944,39.748,40.468,38.792,40.068z
		 M49.103,52.989c-1.798-2.071-3.292-4.463-4.35-6.993c-0.532-1.268-1-2.562-1.44-3.864c-0.285-0.844-0.646-1.726-0.776-2.612
		c0.408-0.105,1.589-0.125,3.042-0.15c0.52-0.009,1.052-0.051,1.57,0.004c0.079,1.913,0.452,3.795,0.587,5.698
		c0.093,1.303,0.399,2.61,0.609,3.899C48.564,50.313,48.824,51.658,49.103,52.989z M48.494,39.468
		c1.062,0.083,2.13,0.064,3.189,0.169c1.021,0.101,2.02,0.343,3.043,0.439c-1.272,0.545-2.673,1.458-4.081,1.585
		c-0.56,0.051-0.879,0.353-1.312,1.241c-0.197,0.407-0.325,0.726-0.385,0.964c-0.135-0.527-0.15-1.103-0.206-1.642
		C48.649,41.299,48.509,40.398,48.494,39.468z M26.007,31.19c0.08-0.897,0.019-1.902,0.341-2.755
		c0.284-0.752,0.319-1.558,0.472-2.339c0.158-0.812,0.467-1.751,0.767-2.52c1.184-3.039,4.277-4.801,6.906-6.496
		c1.248-0.805,2.585-1.509,3.951-2.084c0.725-0.306,1.462-0.586,2.183-0.898c0.641-0.276,1.284-0.375,1.948-0.588
		c1.257-0.404,2.574-0.577,3.902-0.557c0.865,0.013,1.747,0.043,2.604,0.168c0.821,0.118,1.598,0.445,2.407,0.627
		c1.176,0.263,2.209,0.972,3.357,1.291c0.6,0.167,1.225,0.563,1.778,0.85c0.561,0.29,1.152,0.609,1.679,0.958
		c1.136,0.751,2.298,1.453,3.39,2.269c1.039,0.778,2.232,1.646,3.006,2.709c0.648,0.892,0.896,1.995,1.248,3.014
		c0.43,1.241,0.688,2.596,0.932,3.884c0.266,1.395,0.287,2.843,0.493,4.25c0.199,1.363,0.439,2.874,0.21,4.248
		c-0.23-0.419-0.708-0.636-1.177-0.55c-0.661,0.122-1.052,0.887-1.253,1.458c-0.209,0.592-0.82,1.443-1.426,1.664
		c-0.419,0.152-1.106-0.165-1.534-0.308c-0.763-0.255-1.498-0.561-2.271-0.775c-2.533-0.702-5.078-1.297-7.709-1.483
		c-2.04-0.145-4.059-0.352-6.108-0.352c-1.421,0-2.792,0.192-4.196,0.293c-3.015,0.217-5.84,0.795-8.745,1.593
		c-1.063,0.292-2.142,0.608-3.18,0.987c-1.002,0.366-1.873-1.244-2.157-2.014c-0.253-0.775-1.079-1.448-1.89-0.946
		c-0.14,0.086-0.254,0.201-0.342,0.336C25.701,36.545,25.906,32.313,26.007,31.19z M65.075,38.375
		c-0.027,0.105-0.043,0.191-0.045,0.247C65.032,38.568,65.042,38.473,65.075,38.375z M68.527,53.724
		C68.525,53.731,68.525,53.73,68.527,53.724L68.527,53.724z M68.614,53.294c-0.442,2.177-0.575,2.182-1.325,0.045
		c-0.771-2.194-0.841-2.227-1.256-0.576c-0.741,2.949-2.18,5.785-2.679,5.286c-0.157-0.158-0.108-0.582-0.117-0.774
		c-0.031-0.82-0.021-1.61,0.059-2.426c0.131-1.343,0.243-2.683,0.188-4.033c-0.123-3.023-0.551-5.941-1.291-8.869
		c0.762,0.229,2.099,0.277,2.836-0.113c0.624-0.332,1.018-0.844,1.432-1.394c0.415-0.553,0.824-1.305,1.104-1.942
		c0.666,2.361,1.353,4.6,1.546,7.066C69.312,48.147,69.131,50.756,68.614,53.294z"/>
	<path d="M64.754,36.376c0.312,0,0.598-0.117,0.809-0.329c0.338-0.341,0.335-0.766,0.334-0.906
		c-0.014-1.967-0.226-3.915-0.454-5.865c-0.244-2.095-0.536-4.492-1.499-6.392c-0.47-0.927-1.592-1.565-2.447-2.076
		c-1.359-0.812-2.805-1.481-4.271-2.077c-2.787-1.132-5.647-1.833-8.624-2.241c-2.87-0.394-5.912,0.122-8.69,0.867
		c-2.946,0.79-5.741,2.002-8.361,3.559c-0.547,0.324-1.104,0.656-1.597,1.061c-0.939,0.776-1.298,2.244-1.562,3.377
		c-0.248,1.073-0.329,2.185-0.592,3.249c-0.344,1.381-0.403,2.973-0.474,4.393c-0.043,0.875-0.448,2.752,0.477,3.325
		c0.792,0.489,2.321-0.442,2.999-0.979c1.243-0.679,2.666-1.221,4.013-1.646c1.182-0.373,2.478-0.923,3.71-1.092
		c1.368-0.187,2.699-0.567,4.081-0.669c0.98-0.073,1.96-0.165,2.944-0.179c3.428-0.051,6.773,0.255,10.091,1.137
		c1.65,0.439,3.229,0.956,4.802,1.637c0.913,0.395,1.804,0.833,2.696,1.27c0.472,0.23,1,0.545,1.538,0.576
		C64.702,36.375,64.728,36.375,64.754,36.376z M53.95,30.434c-3.155-0.606-6.428-0.885-9.644-0.647
		c-2.452,0.183-4.969,0.407-7.319,1.157c-2.425,0.774-4.98,1.38-7.213,2.663c-0.157,0.09-0.309,0.186-0.467,0.274
		c0.022-0.748,0.068-1.6,0.13-2.041c0.019-0.138,0.016-0.118,0.008-0.059c0.213-1.571,0.343-3.147,0.627-4.709
		c0.248-0.728,0.313-1.51,0.554-2.245c0.128-0.395,0.283-1.003,0.611-1.295c0.991-0.818,2.225-1.415,3.363-1.996
		c1.222-0.625,2.489-1.161,3.786-1.612c2.589-0.9,5.499-1.547,8.245-1.547c2.959,0,6.086,0.793,8.84,1.827
		c1.505,0.564,2.981,1.222,4.395,1.99c0.7,0.38,1.859,0.871,2.279,1.602c0.725,1.429,0.907,3.201,1.168,4.76
		c0.297,1.762,0.424,3.553,0.516,5.335C60.654,32.332,57.428,31.103,53.95,30.434z"/>
</g>
</svg>
