<?xml version="1.0" encoding="utf-8"?>
<!-- Generator: Adobe Illustrator 16.0.0, SVG Export Plug-In . SVG Version: 6.00 Build 0)  -->
<!DOCTYPE svg PUBLIC "-//W3C//DTD SVG 1.1//EN" "http://www.w3.org/Graphics/SVG/1.1/DTD/svg11.dtd">
<svg version="1.1" id="Layer_1" xmlns="http://www.w3.org/2000/svg" xmlns:xlink="http://www.w3.org/1999/xlink" x="0px" y="0px"
	 width="90px" height="90px" viewBox="0 0 90 90" enable-background="new 0 0 90 90" xml:space="preserve">
<g>
	<path d="M74.852,36c-0.054-0.165,0.302-1.044,0.123-1.631c-0.471-1.542-2.546-1.932-3.526-3.065
		c-1.043-1.208-1.049-3.145-1.544-4.604c-0.724-2.131-1.685-4.188-2.88-6.095c-2.032-3.246-4.779-6.036-8.217-7.778
		c-3.841-1.947-7.359-1.83-11.511-1.795c-1.84,0.016-3.673-0.764-5.511-0.932c-2.199-0.201-4.408-0.104-6.544,0.482
		c-3.628,0.996-6.803,3.192-9.485,5.778c-2.876,2.772-5.031,6.192-7.938,8.928c-0.953,0.898-2.887,1.812-3.197,3.201
		c-0.317,1.419,0.848,2.65,2.256,2.512c-1.153,1.354-4.439,3.344-3.771,5.425c0.637,1.978,3.172,1.41,4.727,1.379
		c-0.181,1.743-1.556,3.405-2.083,5.069c-0.245,0.773-0.508,1.842,0.064,2.544c0.866,1.063,1.471-0.061,1.488,1.52
		c0.016,1.493,0.077,3.02-0.293,4.48c-0.395,1.56-2.206,3.436-0.524,4.893c1.418,1.229,2.402-0.517,3.646-0.107
		c0.5,0.165,2.598,2.981,2.582,3.509c-0.031,1.047-1.699,2.402-2.265,3.201c-1.044,1.477-2.045,3.111-2.514,4.875
		c-0.891,3.351,0.934,6.758,4.488,7.272c3.441,0.498,6.964-1.137,10.308,0.388c3.206,1.462,5.763,2.812,9.395,3.007
		c3.125,0.168,6.326-0.21,9.258-1.329c3.563-1.361,5.864-2.694,9.826-2.205c2.886,0.356,6.264,0.486,8.041-2.323
		c1.795-2.837,0.273-6.375-1.332-8.912c-0.722-1.143-1.649-2.054-2.482-3.102c-1.065-1.34,0.127-2.274,0.895-3.426
		c1.271-1.906,1.954,0.015,3.788-0.388c1.268-0.278,1.644-1.299,1.481-2.483c-0.247-1.807-2.3-6.835-0.053-7.912
		c1.02-0.489,2.722-1.122,2.233-2.498c-0.499-1.405,0.108-1.845,0.916-2.454c0.652-0.492,1.242-1.115,1.598-1.863
		C76.866,38.358,76.601,36,74.852,36z M32.442,73c-3.254-0.668-13.665,1.951-12.529-4.055c0.315-1.667,1.349-3.19,2.257-4.587
		c0.51-0.785,1.053-1.55,1.649-2.271c1.229-1.487,1.138-1.302,2.619-0.319c1.126,0.747,3.509,1.326,3.617-0.786
		c1.151,0.027,0.489-0.69,1.56,0.456c0.813,0.87,1.718,1.647,2.67,2.359c-1.745,1.227-2.779,1.063-2.412,3.537
		c0.297,1.999,0.908,4.185,1.753,6.023C33.245,73.192,32.851,73.073,32.442,73z M53.766,68.391
		c-0.343,1.086-0.788,3.069-1.313,4.456c-0.516,1.362-3.674,1.873-4.976,2.125c-3.113,0.603-11.373,0.907-12.333-2.95
		c-0.344-1.383-1.915-4.121-1.6-5.535c1.392-0.649,5.003,1.978,6.437,2.392c2.535,0.733,5.092,0.809,7.647,0.129
		c1.911-0.508,4.688-2.919,6.622-2.524C54.236,67.184,54.141,67.203,53.766,68.391z M39.654,50.837
		c1.562,1.165,5.474-1.451,7.002-2.488c2.526-1.715,5.233-2.737,8.223-3.509c1.334-0.344,3.424,0.308,3.115,1.808
		c-0.309,1.505-0.8,2.948-1.235,4.416c-1.021,3.44-1.617,6.462-4.374,9.028c-2.061,1.918-5.052,3.978-7.76,4.836
		c-2.453,0.777-6.334-2.46-8.125-3.878c-2.523-1.998-4.313-4.464-5.273-7.547c-0.905-2.901-1.904-6.475-2.093-9.507
		c2.645,0.537,5.226,1.622,7.808,2.408c0.959,0.291,2.446,0.421,2.101,1.534C38.727,48.949,38.705,50.148,39.654,50.837z
		 M39.583,67.076c-1.524-0.499-2.77-1.542-4.264-2.021C36.326,64.633,38.612,66.561,39.583,67.076z M47.229,67.455
		c1.582-0.768,3.114-1.64,4.577-2.615c0.189,0.087,0.379,0.173,0.568,0.26C50.569,65.698,49.123,66.953,47.229,67.455z
		 M67.109,67.078c0.958,1.978,0.743,4.944-1.673,5.669c-3.584,1.073-7.383-0.954-11.085,0.452c0.703-1.66,1.315-3.76,1.691-5.52
		c0.519-2.426-0.93-2.959-2.735-3.898c0.711-0.532,1.396-1.099,2.04-1.711c0.911-0.868,0.812-1.217,1.985-1.127
		c-0.097,1.886,1.856,1.966,3.159,1.263c0.76-0.409,1.407-0.991,2.06-1.548c0.62,0.644,1.213,1.313,1.772,2.009
		C65.547,64.188,66.484,65.719,67.109,67.078z M73.406,39.297c-0.844,0.656-2.469,1.047-3.901,2.121
		c-0.523,0.393-0.398,1.769,0.357,2.122c0.149,0.07,1.412,0.362,1.049,0.726c-0.431,0.431-1.148,0.249-1.666,0.456
		c-0.685,0.274-0.605,1.44-0.629,2.013c-0.027,0.704,0.389,7.618,0.361,7.627c-0.501,0.175-1.408-0.615-1.714-0.938
		c-1.317-1.384-1.796,0.535-2.332,1.674c-0.633,1.343-4.001,6.521-5.992,5.928c1.099,0.317,2.828-5.604,2.891-6.189
		c0.252-2.342-1.316,0.311-1.727,0.973c-0.13,0.209-2.668,3.446-2.673,3.415c-0.123-0.693,0.765-1.46,0.751-2.218
		c-0.029-1.688-1.406,0.459-1.555,0.821c-0.902,2.213-3.216,3.949-5.11,5.272c-0.026-0.063-0.054-0.128-0.08-0.191
		c3.021-2.142,5.461-5.237,6.28-8.899c0.394-1.756,0.835-3.496,1.238-5.25c0.259-1.13,1.049-2.643,0.714-3.842
		c-0.255-0.906-2.38-1.284-3.136-1.61c-1.785-0.771-4.183,0.813-5.896,1.278c-2.221,0.603-3.626,1.664-5.535,2.867
		c-0.599,0.377-3.758,2.631-4.508,2.092c-0.842-0.605,0.791-2.111,0.213-2.96c-0.941-1.382-3.435-1.641-4.893-2.117
		c-1.542-0.504-8.238-3.895-8.408-0.623c-0.147,2.854,1.22,6.659,1.942,9.368c1.105,4.143,3.572,7.361,7.038,9.836
		c-1.682,0.309-4.872-3.718-5.437-5.152c-0.176-0.445-0.96-2.244-1.615-1.032c-0.182,0.337,0.655,2.461,0.619,2.476
		c-0.803,0.323-3.683-5.926-4.19-5.463c-0.642,0.587,0.254,3.064,0.515,3.696c0.489,1.188,1.621,2.098,2.055,3.253
		c0.165,0.438-1.505-0.704-1.39-0.619c-0.947-0.699-1.841-1.449-2.632-2.325c-1.266-1.404-2.016-2.965-2.938-4.569
		c-0.749-1.301-1.357,0.027-2.213,0.632c-1.412,0.998,0.104-3.161,0.177-3.823c0.103-0.925,0.83-5.955-0.465-6.086
		c-2.293-0.232-0.254-2.402,0.365-3.756c0.363-0.794,1.823-4.527,1.172-5.311c-0.84-1.009-3.634,1.661-4.688,0.61
		c0.937-1.465,2.419-2.731,3.568-4.034c0.294-0.333,3.484-4.274,3.423-4.288c-1.672-0.351-3.62,2.417-5.462,1.583
		c0.528,0.238,4.482-4.505,4.833-4.914c2.221-2.585,4.306-5.318,6.9-7.551c2.554-2.197,5.544-3.701,8.92-4.062
		c3.484-0.373,6.65,1.133,10.048,0.933c6.546-0.386,12.163,1.6,16.123,7.073c1.897,2.622,3.16,5.596,3.959,8.723
		c0.31,1.213,0.563,2.573,1.39,3.563c0.648,0.779,2.264,1.356,2.687,2.208c0.219,0.44-2.014,0.018-2.122-0.003
		c-0.893-0.17-0.545,1.057-0.388,1.479c0.634,1.695,2.858,2.06,3.74,2.117C74.371,38.459,73.854,38.949,73.406,39.297z"/>
	<path d="M53.677,41.356c-0.291-0.236-0.104-0.083-0.008-0.006c-1.771-1.436-1.905-1.112-2.888,0.729
		c-0.343,0.374-0.987,1.256,0.046,1.03c0.334-0.074,3.678-0.816,3.51-1.18C54.15,41.699,53.93,41.508,53.677,41.356z"/>
	<path d="M32.958,39.244c-0.681,0-1.847,1.654-2.396,2.086c-0.328,0.255,1.297,0.656,1.953,0.822
		c0.273,0.069,3.01,1.085,3.298,0.772C35.861,42.872,33.466,39.244,32.958,39.244z"/>
</g>
</svg>
