<?xml version="1.0" encoding="utf-8"?>
<!-- Generator: Adobe Illustrator 16.0.0, SVG Export Plug-In . SVG Version: 6.00 Build 0)  -->
<!DOCTYPE svg PUBLIC "-//W3C//DTD SVG 1.1//EN" "http://www.w3.org/Graphics/SVG/1.1/DTD/svg11.dtd">
<svg version="1.1" id="Layer_1" xmlns="http://www.w3.org/2000/svg" xmlns:xlink="http://www.w3.org/1999/xlink" x="0px" y="0px"
	 width="90px" height="90px" viewBox="0 0 90 90" enable-background="new 0 0 90 90" xml:space="preserve">
<g>
	<path d="M70.848,43.53c-0.403-2.494-1.163-4.342-1.181-6.863c-0.024-2.85-0.172-6.073-0.708-8.875
		c-0.477-2.484-1.395-5.484-2.998-7.52c-1.556-1.975-4.013-3.512-6.135-4.8c-8.211-4.983-15.997-5.611-24.51-1.106
		c-4.279,2.265-8.394,4.868-9.884,9.673c-0.862,2.78-1.308,5.695-1.522,8.593c-0.104,1.401-0.152,2.807-0.175,4.212
		c-0.025,1.563-0.971,2.632-2.072,3.716c-1.454,1.43-4.602,2.129-4.254,4.531c0.591,4.077,2.935,1.25,4.306,2.006
		c0.391,0.215-0.054,3.891,0.243,6.613c0.145,1.323,0.821,3.183,1.174,4.467c0.029,0.106,0.556,1.777,1.608,2.091
		c-0.553,0.249-1.489,0.854-1.543,0.891c-1.057,0.715-2.006,1.599-2.792,2.604c-0.932,1.19-2.071,2.972-1.745,4.566
		c0.344,1.68,1.913,0.917,1.924,2.607c0.008,1.254-0.087,3.218,1.015,4.116c0.905,0.739,2.457,0.521,3.169-0.359
		c1.425-1.763,2.682-3.498,4.459-4.949c1.412-1.153,3.606-2.574,5.773-2.648c1.283-0.043,2.094-0.418,3.109,0.398
		c0.988,0.794,2.01,1.579,3.177,2.094c3.385,1.492,7.37,1.977,11.558-0.273c4.894-2.629,6.022-5.261,9.156-8.396
		c0.436-0.436,1.156-0.504,1.724-0.579c1.081-0.142,1.719-1.232,2.228-2.07c0.226-0.374,0.531-1.552,1.085-1.268
		c0.82,0.418,2.092,0.254,2.658-0.524C71.758,53.63,71.375,46.776,70.848,43.53z M26.219,31.156
		c0.484-5.424,1.575-9.657,6.375-12.625c4.967-3.071,9.603-5.437,15.375-4.969c5.441,0.441,11.634,3.78,15.594,7.375
		c1.965,1.783,2.627,4.299,3.127,6.81c0.567,2.847,1.029,6.315,0.699,9.18c-0.982-1.615-2.5,1.919-3.07,2.468
		c-1.107,1.064-3.202-0.354-4.398-0.686c-4.5-1.247-9.145-1.835-13.817-1.835c-4.622,0-9.313,0.839-13.741,2.11
		c-1.612,0.463-2.992,1.456-4.074-0.305c-0.455-0.741-1.559-3.304-2.694-1.556C25.954,35.195,26.044,33.109,26.219,31.156z
		 M48.494,39.468c2.091,0.164,4.148,0.413,6.232,0.608c-2.136,0.916-5.146,1.263-5.777,3.79
		C48.672,42.354,48.574,41.067,48.494,39.468z M48.041,50.722c-2.744-3.869-3.833-6.841-4.979-11.298
		c0.647-0.071,1.493-0.109,2.669-0.089c0.429,0.007,0.645,1.997,0.853,3.186C47.152,45.768,47.359,47.462,48.041,50.722z
		 M41.156,40.938c-0.966-0.377-1.408-0.47-2.364-0.87c0.812-0.191,1.188-0.247,2.017-0.278C40.9,40.334,40.964,40.417,41.156,40.938
		z M24.538,55.698c-0.685-3.473-0.838-7.099-0.184-10.589c0.596-3.174-3.912,1.398-4.626-0.487
		c-0.134-0.355,2.342-1.771,2.638-2.016c1.342-1.109,2.514-2.477,3.208-4.086c1.608,3.239,2.848,4.313,6.362,3.104
		c-0.6,2.555-1.24,4.875-1.655,7.471c-0.431,2.689-0.207,5.427-0.031,8.125c0.073,1.129,0.389,3.177-0.654,1.203
		c-0.307-0.581-2.578-5.978-2.457-6.051C25.831,53.159,25.633,61.265,24.538,55.698z M24.094,71.984
		c-0.446,0.6-1.043,2.417-1.364,0.662c-0.221-1.207-0.221-2.095-0.051-3.132c0.1-0.617,1.095-2.674,0.81-3.202
		c-0.339-0.626-2.277,1.415-2.643,1.068c-0.564-0.536,2.363-3.755,3.014-4.235c2.184-1.612,3.609-1.972,6.273-2.356
		c-0.328,1.651,0.264,3.753,2.582,4.623C29.03,66.704,26.401,68.847,24.094,71.984z M34.692,64.71
		c-2.625-0.104-3.61-2.316-3.046-4.064C32.417,62.542,33.411,63.307,34.692,64.71z M60.875,55.969
		c-1.807,4.958-5.366,10.158-10.493,12.104c-5.609,2.13-10.221-1.092-14.073-4.811c-1.844-1.779-3.791-4.103-3.965-6.762
		c-0.229-3.514-0.266-6.866,0.781-10.281c0.523-1.708,0.63-3.37,1.031-5.109c1.024-0.33,3.604,0.937,4.634,1.315
		c0.906,0.333,1.812,0.665,2.721,0.988c0.324,0.115,0.836,0.719,1.281,1.879c0.438,1.143,1.63,3.652,1.959,4.271
		c0.587,1.102,3.611,5.143,4.999,4.688c1.361-0.45-0.559-8.408-0.714-9.875c0.953,0.432,4.21-1.446,5.145-1.775
		c2.006-0.707,4.479-1.587,5.757-1.381C61.099,45.914,61.476,51.127,60.875,55.969z M68.614,53.294
		c-0.898,4.423-1.22-2.049-2.155-1.688c-0.245,0.095-3.234,9.898-3.238,4.856c-0.004-5.023,0.225-9.561-1.028-14.515
		c2.741,0.826,4.371-1.174,5.372-3.449C68.968,43.472,69.659,48.163,68.614,53.294z"/>
	<path d="M30.306,35.697c1.929-1.256,4.17-1.91,6.345-2.624c4.694-1.54,10.136-1.638,14.992-0.977
		c2.352,0.32,4.669,0.895,6.905,1.689c1.87,0.664,4.968,2.592,6.206,2.59c2.47,0,0.462-9.295,0.106-10.837
		c-1.101-4.777-6.16-6.502-10.448-7.8c-4.532-1.372-8.941-1.739-13.565-0.62c-3.66,0.886-10.711,2.777-12.063,6.781
		c-1.121,3.323-1.631,7.371-1.583,10.872C27.23,36.88,28.941,36.586,30.306,35.697z M32.021,22.958
		c3.966-2.565,8.915-4.097,13.636-4.333c4.883-0.244,9.954,1.287,14.21,3.57c3.54,1.899,3.478,7.305,3.963,11.697
		c-3.141-1.543-6.435-2.795-9.879-3.458c-8.157-1.568-17.312-0.647-24.643,3.448C29.625,30.844,29.781,24.406,32.021,22.958z"/>
</g>
</svg>
