<?xml version="1.0" encoding="utf-8"?>
<!-- Generator: Adobe Illustrator 16.0.0, SVG Export Plug-In . SVG Version: 6.00 Build 0)  -->
<!DOCTYPE svg PUBLIC "-//W3C//DTD SVG 1.1//EN" "http://www.w3.org/Graphics/SVG/1.1/DTD/svg11.dtd">
<svg version="1.1" id="Layer_1" xmlns="http://www.w3.org/2000/svg" xmlns:xlink="http://www.w3.org/1999/xlink" x="0px" y="0px"
	 width="90px" height="90px" viewBox="0 0 90 90" enable-background="new 0 0 90 90" xml:space="preserve">
<path d="M77.688,54.266c-0.797-2.547-1.829-9.178-1.821-10.081c0.007-0.746-0.781-3.082,0.293-3.082c1.413,0,2.181-1.217,1.431-2.38
	c-3.842-5.96-6.912-12.343-10.964-18.196c-1.181-1.706-2.494-3.287-4.055-4.662c-2.326-2.049-6.031-2.165-8.97-2.055
	c-1.975,0.074-3.944,0.35-5.867,0.801c-0.785,0.185-2.199,0.938-3.023,0.663c-3.141-1.046-6.559-1.477-9.863-1.481
	c-6.593-0.009-9.643,3.923-13,8.983c-3.128,4.714-5.61,9.728-8.552,14.54c-0.538,0.879-1.909,2.537-0.65,3.44
	c1.365,0.98,1.883-0.287,1.581,1.789c-0.457,3.135-0.248,6.258-1.001,9.375c-0.564,2.337-2.569,4.334,0.203,5.55
	c0.397,0.174,0.035,3.256,0.099,3.789c0.149,1.24,0.417,4.007,1.839,4.561c0.465,0.182,1.289-0.306,1.557,0.208
	c0.54,1.037,0.751,2.219,1.327,3.259c1.154,2.086,2.044,2.794,4.072,1.68c0.13-0.072,4.771,3.36,5.483,3.652
	c1.266,0.519,3.979,1.565,4.622-0.373c0.285-0.857,7.309,0.259,8.439,0.296c4.034,0.132,8.097,0.105,12.121-0.223
	c1.199-0.098,2.421-0.202,3.593-0.488c0.843-0.205,0.709,0.423,1.119,0.941c0.614,0.779,1.835,0.624,2.677,0.433
	c2.063-0.467,4.192-1.567,5.758-2.991c0.469-0.427,0.985-1.621,1.69-0.948c0.616,0.587,1.435,0.539,2.125,0.112
	c2.092-1.294,1.792-3.738,3.151-5.378c0.251-0.303,1.116-0.129,1.501-0.378c0.944-0.611,1.417-1.838,1.681-2.875
	c0.211-0.826-0.155-5.121,0.356-5.302C78.414,56.814,78.167,55.8,77.688,54.266z M43.903,71.813c-2.356-0.005-4.55,0.37-6.423-1.197
	c-2.955-2.472-5.928-5.46-7.893-8.796c-1.698-2.882-1.66-6.791-1.947-10.075c-0.276-3.154-1.557-7.611-0.382-10.656
	c0.188,0.469-0.101,0.81,0.063,1.316c0.681,2.109,5.405,3.063,7.179,3.647c1.859,0.612,10.544,5.603,9.383,0.41
	c-0.567-2.536-1.861-1.736-3.632-2.593c-0.656-0.317-1.515-0.402-1.21-1.177c0.304-0.773,0.641-1.505,1.005-2.252
	c1.467-3.001,3.001-6.071,4.888-8.831c2.008,2.771,3.458,5.922,5.018,8.954c0.331,0.64,0.573,1.296,0.884,1.942
	c0.477,0.996,0.183,0.927-0.8,1.372c-1.971,0.887-3.506,0.164-3.72,3.184c-0.302,4.267,6.451-0.008,8.141-0.573
	c2.07-0.692,7.374-1.498,8.453-3.863c0.041,3.402-0.486,6.755-0.777,10.132c-0.325,3.773-0.595,7.371-3.189,10.359
	c-2.38,2.749-4.541,5.605-7.313,8.006C49.916,72.606,45.931,71.817,43.903,71.813z M29.314,36.731
	c0.404-0.81,0.922-1.72,1.187-2.077c-0.152,0.948-0.253,1.898-0.352,2.853C29.854,37.266,29.54,37.038,29.314,36.731z
	 M35.787,41.377c-0.479-0.31-2.162-1.19-2.641-1.725c-0.238-0.915,2.224-3.693,2.748-4.364C35.702,37.3,35.654,39.36,35.787,41.377z
	 M54.028,35.245c0.771,0.976,1.469,2.014,2.055,3.111c0.264,0.495,0.53,0.996,0.751,1.513c-0.881,0.629-1.812,1.197-2.741,1.75
	C54.122,39.497,54.15,37.366,54.028,35.245z M59.479,34.671c0.882,1.359,1.667,2,0.318,3.103
	C59.677,36.742,59.583,35.706,59.479,34.671z M76.41,55.6c-0.184,0.131-1.004-0.381-1.702-0.928
	c-0.177-0.156-0.843-0.708-0.954-0.566c-0.275,0.353,0.877,2.734,0.981,3.143c0.409,1.6,0.563,3.294,0.207,4.919
	c-1.12,5.11-1.474-2.422-3.046-2.422c0.991,0-0.791,7.667-1.121,8.347c-0.15,0.309-1.155,2.331-1.723,1.993
	c-0.586-0.349-0.831-2.931-1.531-2.931c-0.159,0-1.543,3.106-1.884,3.485c-1.42,1.577-3.941,3.157-6.107,3.304
	c-1.398,0.095,0.05-2.673-1.159-2.25c-2.005,0.703-3.789,1.126-5.937,1.267c2.543-1.731,4.808-4.519,6.714-6.917
	c2.03-2.554,3.807-4.901,4.354-8.183c1.437,1.354,4.455-2.422,5.218-3.322c1.874-2.211,3.168-5.825,2.112-8.668
	c-1.248-3.358-3.318-1.371-4.378,0.862c-1.178,2.483-1.49,5.459-2.546,8.03c0.358-3.553,0.819-7.122,0.932-10.693
	c0.035-1.101-0.011-6.853-2.48-5.606c0.617-2.015-0.846-5.986-3.084-6.869c-2.817-1.111-1.614,4.556-1.478,5.833
	c-0.715-1.336-3.312-6.42-5.335-5.479c-1.255,0.583-0.297,7.478-0.308,8.663c-0.938-2-5.325-12.673-7.872-11.188
	c-1.525,0.889-2.568,3.629-3.38,5.136c-1.122,2.042-2.209,4.11-3.197,6.221c-0.068-1.585-0.031-3.183,0.082-4.765
	c0.074-1.034,0.513-2.226,0.324-3.253c-0.661-3.599-5.737,4.21-5.995,4.678c0.101-1.096,1.391-7.952-1.83-5.673
	c-1.391,0.984-3.835,4.642-2.481,6.203c-2.841-1.456-2.803,6.459-2.716,7.626c0.229,3.094,0.537,6.208,0.911,9.289
	c-0.689-1.727-3.498-14.183-6.462-10.409c-1.789,2.277-1.186,5.621,0.062,8.018c0.717,1.378,4.718,7.272,6.765,5.453
	c0.539,5.848,6.27,11.835,10.958,14.999c-1.563-0.146-3.178-0.327-4.673-0.832c-1.762-0.595-1.403-0.444-1.543,1.262
	c-0.19,2.32-6.816-2.677-7.46-3.69c-0.212-0.334-0.99-2.829-1.403-2.229c-0.672,0.975-0.912,3.679-2.241,1.922
	c-1.121-1.48-1.694-3.37-1.93-5.19c-0.055-0.423-0.105-4.41-0.116-4.407c-1.497,0.351-1.854,7.419-2.925,2.185
	c-0.175-0.854,0.458-8.087,1.171-7.884c-0.612-0.174-3.448,3.066-2.354,0.457c0.971-2.314,1.225-4.814,1.535-7.28
	c0.232-1.851-0.188-3.943,0.588-5.683c0.393-0.88,2.733-5.461,3.416-5.527c-1.531,0.148-3.43,2.439-4.806,3.217
	c-1.274,0.721-0.428-0.548-0.108-1.105c2.301-4.006,4.421-8.074,6.89-11.982c2.121-3.356,4.81-8.97,8.917-10.327
	c2.765-0.913,5.936-0.744,8.779-0.375c2.467,0.32,5.008,1.676,7.385,0.917c3.988-1.273,9.554-1.982,13.57-0.439
	c3.415,1.313,5.739,5.722,7.587,8.585c2.689,4.167,4.961,8.5,7.43,12.794c0.134,0.232,1.685,2.476,0.722,2.077
	c-1.689-0.699-3.424-3.198-5.162-3.394c0.285,0.032,2.127,3.198,2.43,3.67c0.8,1.25,1.407,2.556,1.407,4.064
	c0,2.404,0.248,4.823,0.711,7.181C75.253,51.523,76.818,55.309,76.41,55.6z M66.109,54.494c1.033-2.694,1.399-5.627,2.816-8.136
	C70.228,49.181,68.012,52.562,66.109,54.494z M23.963,55c-2.063-1.788-4.988-6.218-3.113-9.013c0.587,1.785,1.207,3.914,1.958,5.626
	C23.274,52.675,23.598,53.891,23.963,55z"/>
</svg>
