<?xml version="1.0" encoding="utf-8"?>
<!-- Generator: Adobe Illustrator 16.0.0, SVG Export Plug-In . SVG Version: 6.00 Build 0)  -->
<!DOCTYPE svg PUBLIC "-//W3C//DTD SVG 1.1//EN" "http://www.w3.org/Graphics/SVG/1.1/DTD/svg11.dtd">
<svg version="1.1" id="Layer_1" xmlns="http://www.w3.org/2000/svg" xmlns:xlink="http://www.w3.org/1999/xlink" x="0px" y="0px"
	 width="90px" height="90px" viewBox="0 0 90 90" enable-background="new 0 0 90 90" xml:space="preserve">
<path d="M70.333,30.476c-1.083-1.559,0.75-1.997,0.792-4.944c0.039-2.724-0.932-5.279-3.031-7.063
	c-3.585-3.046-8.186-2.287-11.406,0.938c-1.598,1.6-3.933,0.458-5.984,1.25c-3.226,1.245-0.992,4.345,0.328,5.625
	c1.563,1.516,1.094,1.531,0.697,2.646c-0.255,0.718-0.646,1.437-1.197,2.01c-0.469,0.486-2.294,0.249-2.926,0.336
	c-1.238,0.172-2.059,0.601-2.573,1.792c-0.392-1.457-4.747-1.708-5.095-2.378c-1.708-3.292-2.029-3.431-0.144-5.316
	c1.181-1.18,2.034-3.981-0.013-4.7c-1.445-0.507-2.649-0.731-4.163-0.849c-2.149-0.167-1.024-0.745-3.337-2.386
	c-5.042-3.577-12.406-1.375-13.219,4.094c-0.389,2.615-0.02,4.933,1.469,7.094c0.686,0.995-1.174,3.167-1.693,4.204
	c-1.002,2-1.819,4.098-2.321,6.281c-3.08,13.385,4.438,27.226,16.958,32.467C46.363,76.972,62.1,72.508,69.96,60.894
	C76.005,51.96,76.469,39.309,70.333,30.476z M52.75,22.391c0.921-0.01,1.125-0.031,1.979,0.039c-0.721,1.23-0.895,1.855-1.361,3.203
	C52.23,24.253,49.767,22.424,52.75,22.391z M49.563,33.454c-0.392,0.832-0.495,1.167-0.795,1.991
	C46.688,33.531,46.938,33.188,49.563,33.454z M43.811,36.036c-0.018,0.021,1.256-1.708,1.183-1.774
	c0.793,0.725,2.898,3.029,2.674,3.551c-0.199,0.463-1.834,4.609-2.308,4.672c-0.229,0.031-2.003-4.108-2.125-4.359
	C42.703,37.034,43.002,37,43.811,36.036z M40.973,33.489c1.761,0.245,1.799,0.241,0.619,1.603
	C41.515,34.874,40.73,33.499,40.973,33.489z M37.408,22.378c2.667,0.267,0.914,1.296-0.234,2.676
	c-0.427-1.169-0.8-1.783-1.421-2.861C36.495,22.287,36.664,22.295,37.408,22.378z M41.125,39.156
	c0.278,0.625,3.631,8.128,4.466,7.769C46.19,46.667,46.768,45.537,47,45c0.935-2.156,1.565-3.475,2.375-5.219
	c0.63-1.36,1.26-3.114,1.888-4.475c0.837-1.816,1.456-3.206,2.333-5.015c2.654-5.479,5.061-13.26,11.181-11.073
	c2.488,0.89,4.162,3.321,4.089,5.972c-0.095,3.42-3.863,6.859-5.794,9.459c-4.61,6.21-9.743,12.339-14.196,18.662
	c-1.267,1.798-2.94,3.368-4.938,1.219c-2.445-2.631-4.511-5.443-6.74-8.256c-4.857-6.128-8.895-11.538-13.761-17.659
	c0.118,0.15-0.66-0.902-0.541-0.752c-2.885-3.643-2.09-9.423,3.357-10.046c6.06-0.693,8.631,7.698,10.793,12.255
	C37.904,31.882,40.63,38.045,41.125,39.156z M24.517,33.445c-1.095-0.554-1.751-0.976-2.839-0.985
	c0.386-0.669,0.344-0.673,0.788-1.305C23.027,31.904,23.479,32.24,24.517,33.445z M19.055,51.497
	c-0.825-4.828-1.187-8.452,0.227-13.153c0.388-1.29,0.667-2.392,1.412-3.529c0.683-1.045,3.92,1.225,4.338,1.623
	c2.965,2.824,3.7,6.93,2.095,10.75c-1.556,3.703-3.763,4.99-5.918,5.649C19.583,53.333,19.333,53.125,19.055,51.497z M48.023,71.386
	c-4.239,0.732-7.575,0.008-11.634-1.375c-1.812-0.617-3.514-0.958-4.983-2.23c-0.798-0.691,2.21-2.687,2.688-2.938
	c3.156-1.656,6.13-2.096,9.406-0.438c1.637,0.829,2.634,1.674,4.063,3.25C48.469,68.656,49.092,71.202,48.023,71.386z
	 M61.625,66.387c-3.155,2.382-6.895,4.076-10.769,4.87c1.163-4.494-5.553-8.89-9.073-9.691c-2.27-0.517-4.765-0.283-6.924,0.569
	c-1.854,0.731-5.318,2.279-5.766,4.481c-4.06-2.954-7.093-6.679-8.982-11.337c3.295-0.559,6.389-2.069,8.579-6.586
	c1.794-3.699,1.966-6.473,0.344-9.511c3.498,4.322,5.235,6.966,8.653,11.351c2.083,2.671,6.346,9.776,10.531,6.469
	c1.806-1.427,3.371-3.691,4.75-5.5c1.735-2.278,3.654-4.677,5.375-6.967c3.347-4.456,6.934-8.212,10.06-12.832
	c1.917,2.914,2.734,4.95,3.306,8.445c-4.771-1.208-10.52,3.504-12.127,7.961c-1.791,4.967-1.02,12.393,6.179,14.442
	C64.51,63.958,63.129,65.252,61.625,66.387z M71.563,51.313c-0.642,2.521-1.75,5.157-3,7.438c-1.188,2.167-1.792,1.729-2.686,1.536
	c-0.889-0.193-1.609-0.815-2.221-1.379c-2.884-2.665-3.288-6.241-2.094-9.969c1.031-3.219,4.598-6.365,8.344-6.813
	C72,41.875,72.358,42.253,72.25,45C72.164,47.168,72.1,49.202,71.563,51.313z"/>
</svg>
