<?xml version="1.0" encoding="utf-8"?>
<!-- Generator: Adobe Illustrator 16.0.0, SVG Export Plug-In . SVG Version: 6.00 Build 0)  -->
<!DOCTYPE svg PUBLIC "-//W3C//DTD SVG 1.1//EN" "http://www.w3.org/Graphics/SVG/1.1/DTD/svg11.dtd">
<svg version="1.1" id="Layer_1" xmlns="http://www.w3.org/2000/svg" xmlns:xlink="http://www.w3.org/1999/xlink" x="0px" y="0px"
	 width="90px" height="90px" viewBox="0 0 90 90" enable-background="new 0 0 90 90" xml:space="preserve">
<path d="M13.992,45.414l0.27,0.316l0.479,0.027c0.406,0,0.713-0.22,1.135-0.557c1.646-1.314,4.098-2.325,6.732-2.802
	c-1.854,2.18-2.658,5.106-3.32,11.423c-0.225,2.146-0.388,3.225-0.58,3.851c-0.112,0.368-0.283,0.924,0.067,1.398
	c0.197,0.267,0.511,0.42,0.862,0.42c0.369,0,0.763-0.154,1.563-0.522c1.283-0.592,3.159-1.72,4.512-2.71
	c0.073,5.026-0.684,10.658-1.856,13.772c-0.336,0.891-0.521,1.381-0.192,1.856l0.269,0.388l0.497,0.013
	c0.548,0,0.854-0.377,1.595-1.291c0.651-0.802,2.179-2.781,2.991-3.871c2.213,3.877,6.366,8.323,9.122,9.712
	c0.885,0.445,1.921,0.671,3.078,0.671c3.361,0,7.535-1.931,11.164-5.164c0.067-0.06,0.184-0.165,0.303-0.268
	c0.105,0.037,0.22,0.055,0.338,0.055c1.106,0,2.189-2.125,2.613-3.057c1.517,0.903,3.668,1.366,6.258,1.366
	c0.911,0,1.867-0.084,2.842-0.204c1.273-0.157,1.975-0.29,2.158-1.055s-0.395-1.248-1.443-1.955
	c-2.284-1.541-2.27-2.327-2.012-3.042C63.905,62.873,65.077,59,65.423,57c0.002,0,0.003,0,0.004,0c1.34,1,3.043,0.676,4.674,0.676
	c0.869,0,2.102,0.301,3.04,0.11c0.585-0.12,1.014-0.7,0.956-1.273c-0.043-0.418-0.328-0.751-0.715-0.854
	c-0.292-0.171-1.197-0.81-1.721-1.25c-1.09-0.919-2.44-2.557-4.248-5.151c-0.08-0.115-0.158-0.228-0.232-0.331
	c3.178-0.159,7.648-2.475,9.952-5.195c0.675-0.796,1.12-1.325,0.806-2.003c-0.314-0.676-1.021-0.682-2.002-0.682
	c-3.088,0-4.816-0.857-9.607-6.154c-5.766-6.375-9.724-8.739-15.924-9.338c1.396-1.491,1.98-3.476,1.652-5.62
	c-0.549-3.594-3.572-6.937-7.702-8.509C43.729,11.186,43.423,11,43.142,11h-0.597l-0.309,0.666
	c-0.279,0.659,0.172,1.248,0.991,2.096c2.667,2.759,3.358,5.743,2.242,9.713c-0.146,0.515-0.463,1.637-0.652,2.042
	c-0.348,0.037-1.164,0.076-2.093,0.076c-0.548,0-1.008-0.018-1.262-0.046c-3.998-0.447-8.664-3.682-10.403-7.209
	c-0.228-0.461-0.539-1.094-1.233-1.094c-0.832,0-1.074,0.759-1.41,1.811c-1.292,4.048-0.861,8.861,0.955,11.763
	c-7.832,0.139-14.351,5.639-15.562,13.18C13.729,44.494,13.646,45.008,13.992,45.414z M63.29,45.784
	c-1.157-1.7-1.146-3.482,0.032-5.548c0.413-0.724,0.642-1.056,0.903-1.056c0.207,0,0.434,0.204,0.787,0.583
	c2.23,2.389,2.584,4.829,1.045,7.199c-0.119,0.182-0.19,0.317-0.24,0.433c-0.264,0.154-0.492,0.363-0.635,0.606
	c-0.223,0.383-0.232,0.831-0.024,1.198l0.075,0.109c-1.129,1.54-3.346,2.5-5.687,2.5c-0.409,0-0.821-0.029-1.231-0.089
	c-0.993-0.146-1.059-0.244-0.691-1.034c0.838-1.801,2.822-3.043,5.103-3.194c1.079-0.072,1.064-0.157-0.122-0.752
	c-0.689-0.346-1.037-0.515-1.288-0.515c-0.237,0-0.388,0.15-0.657,0.442c-1.284,1.386-4.496,2.643-7.598,2.972
	c-0.334,0.035-0.613,0.055-0.838,0.055c-0.991,0-0.958-0.39-0.176-1.586c1.074-1.646,2.688-2.684,4.773-3.077
	c1.137-0.214,1.09-0.29-0.546-0.87c-0.596-0.211-0.907-0.327-1.136-0.327c-0.273,0-0.431,0.165-0.814,0.53
	c-1.5,1.425-3.273,2.138-5.308,2.138c-0.786,0-1.612-0.107-2.476-0.32c-0.951-0.235-1.521-0.495-1.521-0.692
	c0-0.558,2.609-2.263,4.274-2.795c0.395-0.125,0.729-0.269,0.746-0.318c0.043-0.132-1.981-0.739-2.465-0.739
	c-0.084,0-0.414,0.264-0.734,0.585c-1.137,1.144-3.615,2.055-5.593,2.055c-1.639,0-0.295-1.955,2.03-2.955
	c0.979-0.421,0.982-0.474,0.039-0.681c-0.241-0.053-0.429-0.084-0.591-0.084c-0.365,0-0.607,0.155-1.064,0.563
	c-0.903,0.806-2.376,1.308-3.515,1.308c-0.477,0-0.895-0.088-1.188-0.279c-0.668-0.434,0.877-1.642,2.533-1.979
	c0.643-0.131,0.635-0.167-0.145-0.72c-1.01-0.718-1.48-1.522-1.432-2.446l0.023-0.448l0.52,0.002
	c1.769,0.008,3.517,1.46,3.831,3.181c0.103,0.559,0.261,0.697,0.802,0.699c0.246,0.001,0.592,0.04,0.768,0.086
	c0.383,0.101,0.593,0.144,0.778,0.144c0.087,0,0.169-0.01,0.262-0.027c0.377-0.071,0.36-0.112-0.219-0.527
	c-1.661-1.193-2.472-2.691-2.221-4.107c0.102-0.573,0.206-0.815,0.479-0.815c0.151,0,0.355,0.075,0.64,0.21
	c2.404,1.137,4.281,3.431,4.12,5.036c-0.072,0.719-0.218,0.634,1.866,1.086c0.24,0.052,0.41,0.088,0.512,0.088
	c0.238,0,0.113-0.198-0.303-0.854c-0.886-1.397-1.01-3.271-0.309-4.656c0.113-0.223,0.26-0.339,0.467-0.339
	c0.332,0,0.821,0.299,1.581,0.932c2.255,1.876,3.684,4.181,3.545,5.715c-0.063,0.697-0.065,0.694,1.146,1.068
	c0.436,0.134,0.684,0.2,0.799,0.2c0.113,0,0.1-0.063,0.008-0.189c-1.328-1.815-1.605-3.437-0.951-5.553
	c0.139-0.448,0.236-0.636,0.436-0.636c0.116,0,0.268,0.063,0.48,0.175c3.077,1.619,4.477,4.26,3.638,6.865
	c-0.224,0.697-0.235,0.681,0.782,1.134c0.432,0.192,1.05,0.469,1.375,0.616c0.381,0.172,0.615,0.265,0.723,0.265
	C63.646,46.354,63.557,46.176,63.29,45.784z M52.546,70.061c0.236-0.239,0.463-0.481,0.679-0.726l0.19-0.21
	c0.253-0.277,0.433-0.492,0.561-0.744c-0.333,0.724-0.706,1.325-0.979,1.689C52.686,69.992,52.653,70.039,52.546,70.061z
	 M30.557,60.702c0.717-0.002,2.4-0.761,3.335-1.225c2.079-1.034,3.877-2.265,5.353-3.653c0.002,0.012,0.004,0.024,0.006,0.037
	c0.079,0.372,0.362,0.814,1.276,0.814c0.225,0,0.533-0.021,0.924-0.065c1.381-0.156,1.872-0.346,3.302-1.268
	c0.094-0.061,0.252-0.167,0.375-0.238c0.075,0.063,0.148,0.138,0.196,0.181c1.75,1.555,3.993,2.907,6.534,3.91
	c0.131,0.051,0.2,0.093,0.305,0.13c0.06,0.021,0.015,0.038,0.063,0.055c0.069,0.342,0.021,1.332,0.018,2.656L52,63.304v1.082
	c0,3.087,0.246,3.087-0.154,3.525l0.104,0.234c-3.041,3.446-8.183,6.021-10.714,6.021c-0.25,0-0.489-0.024-0.676-0.072
	c-1.652-0.423-4.849-3.121-7.741-7.457C31.694,64.951,31.305,64.151,30.557,60.702z M43.046,53.119l-0.468,0.204
	c-0.707,0.312-1.286,0.571-1.752,0.8c0.627-0.776,1.164-1.59,1.605-2.436c0.244,0.417,0.535,0.875,0.739,1.159l0.12,0.166
	C43.212,53.047,43.128,53.083,43.046,53.119z M31.556,51.308c-0.116,0.716-0.218,1.332-0.3,1.718l-0.066-0.02
	c-0.899-0.259-1.195-0.292-1.403-0.287l0.182-0.182c0.65-0.667,1.204-1.271,1.688-1.847L31.556,51.308z M30.032,58.174
	c-0.065-0.322-0.133-0.66-0.204-1.015l-0.23-1.138c-0.129-0.635-0.227-1.115-0.292-1.485c0.235,0.175,0.521,0.321,0.792,0.46
	c0.135,0.069,0.479,0.245,0.684,0.371C30.646,56.023,30.284,57.368,30.032,58.174z M15.852,43.019
	c1.578-6.1,7.195-10.404,13.824-10.404c1.31,0,1.852,0,2.146-0.646c0.279-0.612-0.135-1.091-0.438-1.441
	c-1.86-2.149-2.444-6.644-1.399-10.432c2.295,3.672,7.031,6.762,11.279,7.237c0.412,0.046,1.021,0.056,1.461,0.056
	c0.225,0,2.204-0.005,2.776-0.184c0.817-0.254,1.075-1.037,1.701-3.262c1.044-3.712,0.689-6.803-1.13-9.556
	c2.288,1.492,3.861,3.643,4.206,5.896c0.283,1.854-0.356,3.501-1.801,4.639l-0.093,0.073c-0.536,0.421-1.042,0.818-0.835,1.5
	c0.213,0.697,0.809,0.742,1.889,0.822l0.16,0.012c6.124,0.461,9.721,2.515,15.396,8.789c4.659,5.151,6.918,6.627,10.516,6.73
	c-2.029,2.194-5.83,4.125-8.378,4.263c1.108-1.94,1.631-4.799-1.39-8.033c-0.374-0.401-0.84-0.9-1.517-0.9
	c-0.882,0-1.335,0.793-1.772,1.56c-0.338,0.592-0.593,1.169-0.764,1.732c-0.119-0.478-0.299-0.947-0.541-1.404
	c-0.736-1.388-2.018-2.591-3.705-3.479c-0.268-0.141-0.583-0.291-0.946-0.291c-0.978,0-1.268,0.94-1.392,1.341
	c-0.126,0.407-0.222,0.8-0.286,1.182c-0.665-0.99-1.571-1.987-2.665-2.896c-0.862-0.718-1.535-1.163-2.221-1.163
	c-0.577,0-1.072,0.324-1.357,0.887c-0.362,0.715-0.546,1.534-0.556,2.368c-0.866-1.45-2.429-2.771-4.013-3.52
	c-0.388-0.184-0.718-0.306-1.067-0.306c-1.174,0-1.385,1.192-1.463,1.64c-0.047,0.262-0.066,0.526-0.061,0.789
	c-0.846-0.655-1.889-1.058-2.951-1.063l-0.52-0.002l-0.954-0.004l-0.05,0.952L36.92,36.95c-0.053,0.988,0.309,1.878,1.074,2.657
	c-1.021,0.443-2.004,1.156-2.168,2.017c-0.102,0.538,0.125,1.06,0.591,1.362c0.449,0.292,1.032,0.44,1.733,0.44
	c0.48,0,0.986-0.068,1.485-0.194c-0.104,0.294-0.138,0.589-0.079,0.874c0.057,0.274,0.346,1.169,1.694,1.169
	c0.96,0,2-0.182,2.98-0.494c-0.169,0.274-0.209,0.5-0.209,0.705c0,1.015,1.176,1.391,2.279,1.663c0.938,0.232,1.853,0.35,2.717,0.35
	s1.689-0.116,2.473-0.346c-0.096,0.131-0.189,0.266-0.281,0.404c-0.433,0.663-1.026,1.572-0.584,2.391
	c0.402,0.743,1.303,0.743,1.598,0.743c0.25,0,0.55-0.019,0.943-0.061c1.295-0.137,2.59-0.42,3.776-0.805
	c-0.081,0.142-0.156,0.287-0.226,0.436c-0.19,0.409-0.479,1.028-0.149,1.637c0.337,0.623,1.038,0.726,1.603,0.808
	c0.451,0.066,0.915,0.1,1.377,0.1c2.563,0,4.946-1.03,6.295-2.656c0.031,0.045,0.062,0.087,0.094,0.133
	c1.926,2.764,3.334,4.459,4.564,5.496c0.023,0.02,0.209,0.176,0.477,0.384c-1.646,0.062-3.766-0.07-5.236-0.33
	c-0.865-0.153-1.224-0.058-1.537,0.167c-0.077-0.166-0.166-0.255-0.229-0.318c-0.121-0.122-0.285-0.288-1.819-0.75
	c-0.69-0.208-1.569-0.502-1.918-0.643c-0.58-0.234-0.894-0.339-1.224-0.339c-0.287,0-0.55,0.087-0.803,0.265
	c-0.691,0.483-1.331,1.832-1.092,2.715c0.158,0.585,1.072,1.571,2.123,2.452c-0.33-0.06-0.572-0.106-0.662-0.126
	c-0.943-0.216-1.494-0.112-1.839,0.309c-0.083,0.102-0.222,0.272-0.403,1.17c-0.138,0.686-0.605,2.502-0.928,3.599
	c-0.172,0.585-0.334,1.138,0.022,1.614c0.116,0.155,0.383,0.416,0.865,0.416c0.289,0,0.589-0.095,1.017-0.24
	c1.74-0.592,3.606-1.916,4.792-3.356c-0.134,0.422-0.265,0.803-0.376,1.112c-0.708,1.974,0.322,3.332,2.191,4.681
	c-3.258,0.321-6.123-0.125-7.665-1.186c-0.26-0.179-0.606-0.371-0.988-0.371c-0.784,0-1.155,0.71-1.299,1.052
	c-0.023,0.057-0.043,0.113-0.066,0.168C54.146,67.616,54,66.714,54,64.383v-1.079l0.143-1.265c0.01-3.387,0.228-3.907-1.207-4.413
	c-0.087-0.031-0.221-0.064-0.33-0.107c-2.346-0.926-4.448-2.165-6.044-3.582c-0.338-0.3-0.696-0.609-1.171-0.678
	c0.002-0.441-0.271-0.806-0.553-1.188l-0.204-0.273c-0.221-0.309-0.6-0.92-0.828-1.336c-0.398-0.729-0.714-1.304-1.415-1.304
	c-0.733,0-1.043,0.645-1.369,1.327c-1.408,2.948-4.15,5.501-7.932,7.383c-0.488,0.243-0.91,0.436-1.261,0.587
	c0.298-0.988,0.667-2.399,0.757-2.935c0.063-0.358,0.026-0.647-0.082-0.89c0.405-0.439,0.557-1.371,0.828-3.03l0.135-0.822
	c0.438-2.648,0.509-3.161,0.115-3.624l-0.27-0.318l-0.459-0.021c-0.605,0-0.93,0.48-1.377,1.144
	c-0.689,1.022-1.552,2.047-2.797,3.324l-0.318,0.318c-1.25,1.23-1.168,1.634-0.527,4.781l0.229,1.133
	c0.856,4.281,1.285,6.225,1.874,7.664c-0.205-0.236-0.479-0.422-0.86-0.422c-0.61,0-0.939,0.497-1.08,0.709
	c-0.143,0.215-0.825,1.123-1.571,2.095c0.736-3.344,1.159-7.667,1.081-11.58l-0.004-0.211c-0.015-0.812-0.034-1.922-1.11-1.922
	c-0.453,0-0.789,0.25-1.459,0.749l-0.183,0.136c-1.181,0.876-2.894,1.921-4.093,2.502c0.133-0.72,0.26-1.712,0.418-3.224
	c0.709-6.755,1.532-9.275,3.674-11.239c0.654-0.6,1.172-1.075,0.902-1.768c-0.094-0.242-0.363-0.647-1.105-0.647
	c-0.188,0-0.465,0.024-0.834,0.065C20.81,40.741,17.971,41.689,15.852,43.019z M58.847,56.427c0.012-0.088,0.164-0.432,0.303-0.627
	c0.101,0.036,0.239,0.089,0.415,0.16c0.403,0.163,1.314,0.469,2.073,0.698c0.394,0.119,0.711,0.226,0.928,0.304
	c-0.008,0.578-0.232,1.708-0.457,2.328C61.178,58.751,59.097,56.991,58.847,56.427z M60.269,61.393
	c0.199,0.034,0.389,0.066,0.559,0.097c-0.839,1.068-2.207,2.118-3.503,2.699c0.309-1.111,0.657-2.487,0.779-3.097
	c0.007-0.031,0.013-0.063,0.02-0.093c0.019,0.004,0.038,0.008,0.06,0.013C58.385,61.058,59.323,61.23,60.269,61.393z"/>
</svg>
