<?xml version="1.0" encoding="utf-8"?>
<!-- Generator: Adobe Illustrator 16.0.0, SVG Export Plug-In . SVG Version: 6.00 Build 0)  -->
<!DOCTYPE svg PUBLIC "-//W3C//DTD SVG 1.1//EN" "http://www.w3.org/Graphics/SVG/1.1/DTD/svg11.dtd">
<svg version="1.1" id="Layer_1" xmlns="http://www.w3.org/2000/svg" xmlns:xlink="http://www.w3.org/1999/xlink" x="0px" y="0px"
	 width="90px" height="90px" viewBox="0 0 90 90" enable-background="new 0 0 90 90" xml:space="preserve">
<g id="svgg_15_">
	<path id="path0_5_" d="M41.736,15.099c-7.115,0.506-14.299,4.458-18.476,10.243c-1.991,2.759-3.226,6-3.437,9.404
		c-0.098,1.559,0.372,3.19,0.218,4.713c-0.036,0.347-2.217,1.569-2.59,2.084c-1.552,2.138-1.879,5.202-0.93,7.65
		c0.521,1.347,1.471,2.452,2.642,3.283c1.015,0.721,2.888,0.904,3.716,1.682c0.779,0.733,1.22,2.439,1.866,3.359
		c0.979,1.389,2.146,2.643,3.44,3.742c1.349,1.144,2.837,2.122,4.417,2.916c2.064,1.038,1.742,0.826,0.513,2.784
		c-3.104,4.945,4.735,5.312,7.932,5.512c2.974,0.187,5.977,0.21,8.951,0.029c2.375-0.145,5.76-0.244,7.753-1.699
		c1.645-1.199,0.524-3.128-0.312-4.414c-1.103-1.692-1.061-1.502,0.72-2.441c1.76-0.928,3.4-2.083,4.84-3.458
		c1.196-1.142,2.249-2.432,3.122-3.836c0.46-0.739,0.87-2.334,1.776-2.652c2.924-1.025,5.492-2.701,6.193-5.926
		c0.424-1.95,0.179-4.142-0.847-5.873c-0.497-0.838-3.693-2.771-3.664-3.111c0.393-4.507-0.086-8.946-2.62-12.803
		C61.438,17.881,51.441,14.408,41.736,15.099 M40.184,30.805c2.039,1.43,2.789,4.573,4.744,6.141
		c0.395,0.316,4.343-5.35,5.028-5.974c1.078-0.981,2.642,4.037,2.94,4.697c0.242,0.534,0.651,2.463,1.359,1.559
		c0.975-1.244,1.832-2.589,2.715-3.897c0.606-0.897,1.168-1.791,1.752-0.409c0.609,1.441,1.143,2.935,1.664,4.41
		c0.567,1.605,0.908,4.673,2.05,1.856c0.257-0.632,0.643-2.521,1.357-2.868c0.672-0.326,0.823,2.5,0.876,2.871
		c0.102,0.706,0.787,7.739,1.23,7.739c0.28,0,0.773-4.506,0.924-4.982c0.547-1.731,3.856,0.589,4.361,1.364
		c0.969,1.486,1.197,3.563,0.383,5.167c-1.244,2.446-3.296,2.644-5.55,3.616c-1.037,0.448-2.067,3.753-2.847,4.748
		c-1.5,1.915-3.403,3.502-5.509,4.714c-3.915,2.254-8.34,3.09-12.808,3.055c-4.286-0.034-8.531-0.892-12.262-3.088
		c-2.19-1.289-4.175-2.977-5.705-5.012c-1.371-1.825-1.555-4.081-3.843-4.721c-3.857-1.078-6.729-5.776-3.411-9.164
		c0.988-1.01,3.149-1.938,3.574-0.078c0.11,0.484,0.659,4.75,1.096,4.803c0.227,0.028,1.352-9.157,1.516-10.075
		c0.584-3.271,2.42,3.613,2.706,3.384c1.226-0.981,1.938-5.047,2.483-6.515c0.344-0.926,0.713-2.837,1.727-1.489
		c0.6,0.798,3.346,5.642,3.891,4.515C36.966,36.475,39.417,30.267,40.184,30.805 M38.908,64.726
		c4.248,0.768,7.93,0.607,12.188,0.164c2.549-0.261,2.669,0.102,4.075,2.448c0.218,0.363,1.174,1.335,0.64,1.741
		c-0.69,0.524-2.23,0.607-3.096,0.763c-4.162,0.748-8.743,0.65-12.935,0.222c-0.889-0.091-5.206-0.62-4.743-1.578
		C35.805,66.901,36.894,64.358,38.908,64.726"/>
	<path id="path3_1_" d="M45.03,48.197c-0.982,0.988-2.26,3.498-2.63,4.887c-0.275,1.035,3.786,0.605,4.271,0.597
		C50.629,53.618,44.883,48.344,45.03,48.197"/>
</g>
</svg>
