<?xml version="1.0" encoding="utf-8"?>
<!-- Generator: Adobe Illustrator 16.0.0, SVG Export Plug-In . SVG Version: 6.00 Build 0)  -->
<!DOCTYPE svg PUBLIC "-//W3C//DTD SVG 1.1//EN" "http://www.w3.org/Graphics/SVG/1.1/DTD/svg11.dtd">
<svg version="1.1" id="Layer_1" xmlns="http://www.w3.org/2000/svg" xmlns:xlink="http://www.w3.org/1999/xlink" x="0px" y="0px"
	 width="90px" height="90px" viewBox="0 0 90 90" enable-background="new 0 0 90 90" xml:space="preserve">
<g>
	<path d="M73.524,44.922c-0.998-2.364-3.237-4.147-5.614-4.968c-1.593-0.55-3.326-0.599-4.892-1.187
		c-1.181-0.444-0.278-2.688-0.268-3.78c0.026-2.917-0.423-5.999-1.93-8.533c-0.693-1.166-1.526-1.966-2.761-2.54
		c-0.37-0.172-3.06-0.806-3.06-0.813c0-1.653-0.417-3.989-0.417-5.642c0-2.231,2.583-2.292,1.018-5.46
		c-1.146-2.32-5.009-2.709-6.572-0.659c-0.355,0.465-2.159-1.115-2.861-1.255c-1.588-0.317-2.989,0.304-4.107,1.397
		c-1.538-1.982-5.064-1.958-6.494,0.139c-0.728,1.067-0.898,2.465-0.475,3.675C35.379,16.116,36,16.561,36,17.413
		c0,3.437,0,6.873,0,10.309c0,0.393,0.232,1.45,0.034,1.806c-0.363,0.652-2.15,1.416-2.761,2c-1.999,1.91-2.743,4.982-4.938,6.618
		c-1.22,0.908-2.625,0.941-4.05,1.271c-1.309,0.303-2.386,0.894-3.613,1.345c-1.92,0.697-3.813,3.244-4.265,5.214
		c-2.415,10.54,5.449,18.73,13.619,23.935c2.04,1.299,4.292,2.215,6.335,3.488c1.651,1.029,2.269,3.506,3.967,4.713
		c2.002,1.422,4.963,1.431,7.296,0.982c2.868-0.551,4.287-2.759,5.684-5.063c0.71-0.834,1.67-1.181,2.675-1.695
		c1.776-0.909,3.421-2.026,5.166-2.977c2.576-1.37,5.048-3.611,7.058-5.705C72.72,58.952,76.268,51.419,73.524,44.922z
		 M48.688,15.828c0.482,0.716,0.151,3.706,0.031,3.547C48.709,19.363,47.624,16.906,48.688,15.828z M42.047,16.031
		c0.703,0.813,0.123,3.096,0.063,3.859C41.904,19.283,40.75,17.25,42.047,16.031z M39.516,12.141
		c0.986,0.249,1.345,0.892,1.359,1.438c0.042,1.563-1.08,1.572-1.284,2.187c-0.608,1.831,0.628,5.142,1.305,6.902
		c2.003,5.211,3.453-3.756,3.571-5.176c0.068-0.817,0.374-1.666-0.327-2.169c-1.057-0.759-1.04-2.238-0.161-2.78
		c2.543-1.568,4.263,1.066,2.599,2.818c-1.4,1.475,1.111,9.785,2.891,7.141c1.375-2.043,1.656-2.938,1.583-6.235
		c-0.028-1.286-1.956-3.5,0.495-4.076c1.071-0.251,2.381,0.596,2.261,1.771c-0.093,0.913-0.933,1.184-1.181,1.892
		c-0.38,1.087,0,2.953,0,4.108c0,1.597-0.042,2.726,0.01,4.322c-0.533,0.78-3.263,1.901-4.089,2.476
		c-0.748,0.52-2.014,1.419-2.861,1.68c-0.916,0.28-1.677,0.292-2.625,0.375c-1.537,0.136-3.44,0.212-4.87,0.813
		c0.079-3.562,0.045-6.774,0.053-10.337c0.002-0.984,0.309-2.521,0.008-3.467c-0.236-0.742-1.222-0.945-1.213-1.98
		C37.051,12.597,38.408,11.862,39.516,12.141z M65.778,61.363c-2.405,2.485-5.227,4.551-8.184,6.329
		c-1.655,0.996-3.381,1.833-5.084,2.739c-1.495,0.796-2.086,2.127-3.012,3.476c-1.44,2.097-3.324,2.409-5.778,2.057
		c-3.016-0.433-3.265-3.876-5.587-5.326c-6.052-3.778-12.432-6.586-16.459-12.834c-1.981-3.073-3.786-8.683-1.554-12.138
		c1.707-2.64,4.475-2.788,7.166-3.49c3.846-1.002,4.922-3.869,7.038-6.79c2.431-3.356,6.214-4.321,10.172-4.428
		c3.22-0.086,5.539-2.812,8.402-4.196c6.006-1.646,6.96,5.44,6.438,9.892c-0.147,1.248-0.21,3.45,0.204,3.762
		c1.195,0.9,1.259,1.055,3.981,1.5c2.999,0.491,7.175,2.194,7.444,5.889C71.359,53.207,69.551,57.466,65.778,61.363z"/>
	<path d="M63.549,51.758c-0.937,0.431-0.623,1.542-1.588,2.071c-1.001,0.55-2.284,0.592-3.395,0.602
		c-1.538,0.014-3.038-0.333-4.559-0.515c-2.109-0.253-4.627,1.372-6.843,1.558c-2.765,0.231-5.901,0.095-8.45-1.118
		c-1.562-1.122-4.955-0.038-6.814-0.104c-2.355-0.084-3.107-0.181-4.301-1.958c-0.608-0.905-1.972-0.55-1.972,0.582
		c0,0.848,0.746,1.987,1.311,2.573c1.691,1.755,4.087,2.749,5.898,4.404c3.851,3.519,5.005,8.546,8.152,12.5
		c1.92,2.412,6.17,2.727,8.311,0.418c3.244-3.497,4.273-8.533,7.64-12.046c1.746-1.821,3.897-2.95,5.859-4.487
		c0.906-0.71,1.593-1.588,2.083-2.62C65.316,52.694,64.812,51.178,63.549,51.758z M36.168,56.026
		c0.594-0.104,1.027-0.175,1.585,0.087c1.168,0.575,0.902,0.331,0.498,1.39c-0.285,0.747-0.561,1.498-0.864,2.238
		c-1.083,2.644-2.274-2.521-2.714-3.53C35.133,56.182,35.714,56.106,36.168,56.026z M53.526,60.729
		c-0.666,0.108-1.667-3.548-1.93-4.082c0.387-0.128,0.765-0.276,1.134-0.447c0.834-0.585,1.937-0.15,2.874-0.033
		C55.273,56.959,54.419,60.585,53.526,60.729z"/>
</g>
</svg>
