<?xml version="1.0" encoding="utf-8"?>
<!-- Generator: Adobe Illustrator 16.0.0, SVG Export Plug-In . SVG Version: 6.00 Build 0)  -->
<!DOCTYPE svg PUBLIC "-//W3C//DTD SVG 1.1//EN" "http://www.w3.org/Graphics/SVG/1.1/DTD/svg11.dtd">
<svg version="1.1" id="Layer_1" xmlns="http://www.w3.org/2000/svg" xmlns:xlink="http://www.w3.org/1999/xlink" x="0px" y="0px"
	 width="90px" height="90px" viewBox="0 0 90 90" enable-background="new 0 0 90 90" xml:space="preserve">
<path d="M72.064,46.399c1.019-1.152,1.709-2.551,2.09-4.037c0.472-1.837,1.416-8.257-2.431-6.973
	c0.876-0.232,0.152-3.619-0.291-4.036c-0.742-0.698-1.755-0.47-2.658-0.673c-1.307-0.293-2.269-1.278-3.206-2.161
	c-1.961-1.848-3.762-3.907-6.021-5.408c-0.725-0.48-1.469-0.702-2.227-1.101c-1.105-0.58-0.327-2.332-0.133-3.286
	c0.323-1.587,2.823-9.6-1.239-8.727c-1.484,0.319-2.753,1.99-3.799,2.982c-1.84,1.745-2.792-0.477-4.106-2.019
	c-2.192-2.572-3.815-2.142-6.008,0.126c-0.769,0.795-1.569,1.584-2.258,2.45c-0.749,0.942-1.892-0.771-2.457-1.297
	c-1.105-1.028-4.289-3.845-5.347-1.069c-0.729,1.912,0.473,5.124,0.821,6.996c0.116,0.627,0.861,2.906,0.413,3.419
	c-0.563,0.642-1.7,0.843-2.459,1.147c-2.377,0.957-4.405,3.245-6.215,4.985c-0.771,0.741-1.513,1.561-2.368,2.207
	c-1.091,0.824-2.255,0.579-3.418,1.107c-1.679,0.762-1.414,2.904-1.001,4.355c-4.285-0.391-2.971,5.741-2.089,8.151
	c0.405,1.105,0.995,2.144,1.795,3.013c0.394,0.429,2.172,1.327,1.982,2.065c-0.879,3.438-0.03,6.781,1.012,10.069
	c0.457,1.445,1.861,5.071-0.824,3.217c-2.22-1.533-4.291-0.017-3.938,2.588c0.771,5.683,5.704,9.366,11.132,10.128
	c5.546,0.777,11.106-1.125,15.277-4.785c0.342-0.3,4.941-0.286,5.462,0.149c2.335,1.956,4.915,3.467,7.886,4.221
	c5.294,1.343,11.736,0.433,15.575-3.756c1.706-1.862,2.719-4.341,2.772-6.87c0.05-2.335-2.357-2.994-3.897-1.675
	c-3.19,2.784-0.729-3.62-0.396-4.716c0.454-1.495,0.819-3.032,0.92-4.596c0.085-1.323-0.395-2.523-0.394-3.831
	C70.024,47.7,71.421,47.127,72.064,46.399z M34.11,12.737c0.11-0.2,1.155,1.653,4.522,3.824c2.483,1.602,5.107-7.117,7.374-4.487
	c1.31,1.519,2.74,2.959,4.126,4.409c1.146,1.201,3.737-2.229,4.565-3.04c1.234-1.207,1.363-0.69,1.127,0.771
	c-0.449,2.757-1.118,5.476-1.458,8.25c-2.46-1.747-6.566,0.688-8.893,1.565c-2.74,1.034-6.678-3.856-9.746-1.59
	c-0.284-2.315-0.805-4.615-1.221-6.91C34.354,14.684,33.879,13.157,34.11,12.737z M29.424,71.385c-3.879,0-8.54-1.686-9.94-5.648
	c2.463,0.761,5.463-0.282,5.305-3.263c2.532,2.628,7.2,1.414,8.206-2.072c1.711,2.737,4.04,5.155,6.833,6.795
	C37.062,69.862,33.264,71.385,29.424,71.385z M27.594,53.641c-0.985-1.004-1.306-2.756-0.614-4.031
	c0.337,2.197,1.006,5.444,2.753,6.96c1.766,1.532,2.385,4.573-0.608,5.396c-2.322,0.638-4.522-1.819-3.449-4.048
	C26.5,56.203,28.906,55.094,27.594,53.641z M46.466,67.021c-5.483,1.452-10.266-4.611-12.49-8.807
	c1.828-0.24,2.402-1.383,1.27-2.891c-1.419-1.888-2.489-3.587-3.28-5.841c-0.327-0.931-0.623-1.872-0.938-2.807
	c-0.492-1.456,0.47-1.226,1.456-2.185c1.263-1.228,2.174-2.813,2.873-4.417c2.185,2.119,5.987,4.891,9.127,5.15
	c3.231,0.268,7.697-3.579,9.768-5.741c0.814,1.829,1.928,3.613,3.434,4.954c0.838,0.747,1.461,0.551,1.128,1.738
	c-0.299,1.067-0.55,2.146-0.871,3.206c-0.589,1.943-1.522,3.436-2.761,5.021c-1.068,1.368-2.173,3.353,0.42,3.776
	C54.072,61.177,49.156,66.156,46.466,67.021z M69.926,65.772c-3.141,8.149-15.097,6.239-20.214,1.524
	c2.71-1.419,5.23-4.252,6.679-6.344c1.087,3.551,5.944,4.589,8.277,1.614C64.551,65.472,67.529,66.468,69.926,65.772z
	 M61.895,56.693c2.578,0.779,2.415,4.589,0.061,5.55c-1.475,0.603-3.182-0.189-3.789-1.637c-1.136-2.708,1.503-3.066,2.654-4.68
	C61.063,56.346,61.421,56.602,61.895,56.693z M61.469,54.314c0.424-1.598,1.17-3.104,1.406-4.751
	C63.92,51.309,62.41,53.445,61.469,54.314z M69.352,44.335c-0.879,0.852-2.452,1.014-3.057,2.153
	c-0.787,1.482,0.841,4.063,0.75,5.723c-0.114,2.118-0.875,4.122-1.479,6.134c-0.292-1.316-1.121-2.482-2.317-3.122
	c1.378-1.391,1.754-2.54,1.754-4.368c0-1.417-0.563-3.567-2.247-3.893c-1.917-0.369-1.826,2.965-2.214,4.104
	c-0.679,1.993-1.798,5.906-4.386,5.299c1.669-1.743,7.221-11.202,3.489-12.816c-1.136-0.529-2.442-2.346-3.419-4.411
	c-0.974-2.059-1.883-2.54-3.644-0.835c-1.927,1.865-4.007,3.363-6.39,4.613c-2.232,1.171-5.134-0.993-6.962-2.189
	c-0.897-0.588-3.701-3.786-4.903-2.664c-0.733,0.686-0.994,2.002-1.514,2.852c-0.665,1.092-1.471,2.18-2.449,2.897
	c-2.611,1.264-1.017,3.516-0.432,5.665c0.688,2.525,1.858,4.937,3.625,6.89c-2.305,0.315-3.2-2.173-3.819-4.144
	c-0.373-1.186-0.658-5.165-2.276-5.288c-1.053-0.079-2.626,1.785-2.626,2.827c0,2.007-0.047,3.351,1.379,5.007
	c-1.171,0.651-2.095,1.694-2.496,2.982c-0.608-1.987-1.356-4-1.309-6.111c0.036-1.531,1.65-3.844,0.746-5.291
	c-0.646-1.033-2.109-1.104-2.962-1.895c-1.362-1.265-1.74-3.214-1.898-4.983c1.132,0.283,2.892,0.374,3.779-0.542
	c1.13-1.166-0.819-3.536-1.127-4.77c4.586-0.435,7.673-6.417,11.577-8.501c1.716-0.915,4.338-1.925,6.227-1.58
	c2.022,0.369,4.027,2.163,6.071,2.071c2.297-0.103,4.616-1.902,6.982-2.235c1.727-0.243,4.243,1.067,5.66,1.988
	c3.596,2.337,6.455,7.861,11.056,8.244c-0.359,1.304-2.053,3.052-1.372,4.478c0.617,1.291,2.89,1.193,4.02,0.85
	C71.033,41.206,70.65,43.076,69.352,44.335z"/>
</svg>
