<?xml version="1.0" encoding="utf-8"?>
<!-- Generator: Adobe Illustrator 16.0.0, SVG Export Plug-In . SVG Version: 6.00 Build 0)  -->
<!DOCTYPE svg PUBLIC "-//W3C//DTD SVG 1.1//EN" "http://www.w3.org/Graphics/SVG/1.1/DTD/svg11.dtd">
<svg version="1.1" id="Layer_1" xmlns="http://www.w3.org/2000/svg" xmlns:xlink="http://www.w3.org/1999/xlink" x="0px" y="0px"
	 width="90px" height="90px" viewBox="0 0 90 90" enable-background="new 0 0 90 90" xml:space="preserve">
<path d="M76.224,43.827c-1.216-7.575-7.978-13.045-15.561-13.18c1.646-2.63,1.955-6.068,1.551-9.082
	c-0.349-2.605-1.438-6.341-3.6-2.742c-1.556,2.59-4.206,4.596-6.977,5.731c-1.398,0.574-2.821,0.863-4.33,0.863
	c-1.828,0-2.106,0.092-2.608-1.651c-0.805-2.799-0.992-5.674,0.572-8.254c0.356-0.588,4.551-5.416,1.142-4.433
	c-5.461,1.574-11.813,8.974-6.786,14.342c-3.942,0.381-7.493,1.75-10.612,4.203c-3.751,2.951-6.396,7.182-10.323,9.892
	c-0.992,0.684-2.083,1.154-3.284,1.299c-0.932,0.112-3.764-0.34-3.396,1.389c0.766,3.592,7.667,6.393,10.838,6.551
	c-1.053,1.472-2.081,2.965-3.296,4.311c-0.966,1.07-2.503,1.68-3.391,2.717c-1.581,1.846,2.323,1.873,3.058,1.833
	c1.055-0.058,2.101,0.084,3.155,0.055C23.129,57.649,24,57,24.61,57c0.361,2.09,1.015,4.152,1.671,6.165
	c0.65,1.994,0.125,2.745-1.695,3.972c-2.787,1.88-0.682,2.842,1.683,3.054c2.68,0.24,5.754,0.135,8.132-1.281
	c1.115,2.459,2.754,2.973,4.73,4.488c2.41,1.848,5.259,3.409,8.302,3.84c6.016,0.853,10.945-5.657,13.585-10.282
	c1.123,1.506,2.248,3.035,3.476,4.458c0.861,0.997,2.447,0.9,1.956-0.782c-1.405-4.806-2.202-9.5-2.129-14.544
	c1.499,1.097,4.105,3.232,6.075,3.232c1.835,0,0.574-3.663,0.457-4.682c-0.469-4.107-0.603-9.088-3.428-12.41
	c2.376,0.431,4.824,1.28,6.732,2.802C75.427,46.042,76.497,45.523,76.224,43.827C75.013,36.286,76.304,44.324,76.224,43.827z
	 M26.538,46.183c0.525,0,3.088-1.033,2.996-1.607c-0.318-1.976-0.502-3.457,0.858-5.151c5.436-6.775,3.738,4.083,2.637,4.083
	c0.808,0,2.029-0.334,1.945-1.268c-0.148-1.638,1.138-3.292,2.172-4.415c0.856-0.928,3.045-3.5,3.702-1.165
	c0.22,0.781,0.221,1.619,0.039,2.407c-0.158,0.684-1.069,1.655-1.052,2.299c0.001,0.049,2.32-0.129,2.51-0.598
	c0.522-1.289,0.232-2.27,1.348-3.497c0.654-0.719,3.522-3.454,3.88-1.435c0.131,0.738-0.041,1.485-0.393,2.137
	c-0.497,0.918-1.949,1.526-2.295,2.363c-0.078,0.189,2.399-0.095,2.482-0.127c0.712-0.275,1.149-2.482,2.056-3.108
	c5.005-3.456,1.229,3.144,0.697,2.776c0.428,0.295,5.375,2.38,1.766,2.38c-2.03,0-3.944-2.585-5.797-1.612
	c0.556-0.292,6.473,4.341,1.147,3.3c-1.825-0.357-3.087-1.182-4.5-2.308c-0.375-0.299-2.815,0.351-2.743,0.567
	c0.148,0.441,3.25,1.522,3.786,1.893c1.941,1.343,0.808,1.759-1.137,2.089c-2.22,0.377-4.471-0.034-6.272-1.429
	c-0.604-0.468-1.054-1.273-1.905-1.012c-0.165,0.05-2.139,0.688-2.021,0.881c0.226,0.373,1.839,0.49,2.245,0.646
	c0.893,0.345,1.714,0.864,2.393,1.542c1.182,1.182,2.413,2.916-0.108,2.651c-2.272-0.241-4.687-0.892-6.612-2.162
	c-0.415-0.273-1.118-1.252-1.643-1.252c-0.427,0-2.134,0.693-2.198,1.087c0.037-0.228,3.542,0.946,3.88,1.158
	c0.42,0.263,3.156,2.76,1.898,3.138c-2.439,0.732-7.216-0.229-7.272-3.001c-0.025-1.23-1.785-2.543-1.958-4.033
	c-0.224-1.923,0.897-4.074,2.402-5.243c0.923-0.717,1.833,2.114,1.966,2.612C27.608,42.418,27.432,46.183,26.538,46.183z
	 M37.037,69.9c-0.389-0.52-0.708-1.101-0.979-1.689c0.293,0.582,0.99,1.236,1.429,1.68C37.339,69.84,37.189,69.843,37.037,69.9
	C36.764,69.536,37.348,69.822,37.037,69.9z M57.223,66.467c-2.024,3.035-5.646,8.414-9.943,7.297
	c-2.469-0.641-9.302-3.639-9.345-6.658c-0.019-1.364,0.27-2.823,0.03-4.171c-0.166-0.933-0.2-1.817-0.243-2.768
	c-0.057-1.26,0.183-1.012,1.371-1.537c1.477-0.651,2.896-1.443,4.203-2.392c1.461-1.061,1.205-1.494,2.743-0.597
	c0.856,0.499,4.466,1.789,4.75,0.012c1.99,1.872,5.774,4.869,8.687,4.878C59.009,62.687,58.452,64.623,57.223,66.467
	C54.331,70.803,58.347,64.781,57.223,66.467z M46.742,52.842c0.31-0.426,0.593-0.87,0.859-1.324
	c0.451,0.864,0.993,1.678,1.605,2.436C48.398,53.555,47.568,53.202,46.742,52.842z M58.376,50.521
	c0.592,0.704,1.221,1.378,1.871,2.028c-0.473-0.011-1.042,0.155-1.47,0.307C58.613,52.083,58.504,51.299,58.376,50.521z
	 M59.251,55.197c0.479-0.294,1.024-0.494,1.476-0.832c-0.215,1.216-0.482,2.427-0.727,3.638
	C59.713,57.082,59.447,56.143,59.251,55.197C59.458,55.071,59.387,55.853,59.251,55.197z M66.32,40.249
	c-4.245-0.472,0.409,3.795,1.057,5.401c1.46,3.619,1.295,7.63,1.998,11.412c-1.213-0.588-6.605-5.295-6.828-1.977
	c-0.271,4.056,0.187,8.343,1.06,12.303c-0.602-0.784-2.194-3.9-3.512-2.382c1.112-2.713,1.49-5.763,2.068-8.619
	c0.231-1.144,0.859-2.833,0.295-3.978c-0.625-1.271-2.102-2.296-2.978-3.378c-0.515-0.637-1.588-2.943-2.76-2.367
	c-0.776,0.381-0.5,1.716-0.412,2.324c0.46,3.169,0.984,6.265,1.896,9.295c-3.744-1.609-7.394-4.203-9.193-7.97
	c-1.362-2.849-2.606-0.088-3.61,1.314c-0.818,1.441-1.797,2.157-3.194,3.167c-2.471,1.786-6.322,1.896-6.339,5.364
	c-0.011,2.173-0.528,5.951,0.245,7.897c-0.854-1.947-2.066-0.834-3.435-0.289c-2.049,0.816-4.416,0.838-6.579,0.625
	c2.327-1.679,2.655-3.17,1.824-5.792c0.952,1.158,8.025,6.099,6.699,1.567c-0.785-2.677-0.372-5.581-3.833-4.952
	c1.366-1.145,2.78-2.404,1.784-4.256c-1.084-2.016-3.076-0.681-4.696-0.193c-0.598,0.18-2,1.015-2.394,0.891
	c-1.733-0.55-4.557,0.41-6.427,0.34c2.083-1.629,3.639-3.863,5.134-6.014c1.325,1.597,3.421,2.438,5.449,2.618
	c2.055,0.183,5.023-0.196,3.451-2.944c2.393,0.776,8.837,1.911,5.452-2.672c1.213,0.355,9.064,0.545,7.26-2.372
	c1.226,0.389,5.58,1.209,4.596-1.549c3.319,0.838,5.288-2.042,1.642-3.625c0.502-0.51,1.831-3.25,1.001-4.057
	c-0.794-0.772-3.88,0.647-4.425,1.069c0.12-4.941-5.42-0.584-6.604,1.397c-0.069-5.92-5.088-1.744-6.799,0.804
	c-0.887-5.254-6.138-0.308-6.87,2.65c-0.878-2.888-2.63-4.314-4.736-1.592c-1.67,2.159-2.083,4.823-0.707,7.232
	c-3.029-0.164-6.352-2.072-8.378-4.263c3.851-0.11,6.583-2.56,9.121-5.223c3.221-3.381,6.298-7.128,10.726-8.967
	c1.693-0.703,3.495-1.079,5.313-1.263c1.467-0.148,4.257-0.602,1.967-2.4c-1.2-1.563-2.228-2.522-1.894-4.712
	c0.38-2.484,2.156-4.56,4.206-5.896c-2.039,3.086-3.235,12.765,2.09,12.977c5.517,0.219,11.028-2.517,13.999-7.268
	c0.77,2.794,0.775,6.064-0.383,8.757c-0.349,0.812-1.872,2.204-1.456,3.116c0.503,1.102,2.759,0.627,3.717,0.727
	c5.753,0.6,10.792,4.672,12.254,10.322C71.835,41.376,69.061,40.552,66.32,40.249C65.951,40.208,69.224,40.57,66.32,40.249z
	 M27.925,59.12c-0.238-0.657-0.856-2.203-0.06-2.465c1.011-0.333,2.016-0.669,3.019-1.024C31.744,56.846,28.857,58.58,27.925,59.12
	C27.701,58.5,28.855,58.581,27.925,59.12z M31.851,60.841c0.09-0.019,0.778,2.891,0.858,3.177c-1.334-0.599-2.598-1.546-3.503-2.699
	C30.086,61.161,30.979,61.041,31.851,60.841C31.872,60.837,31.648,60.888,31.851,60.841z"/>
</svg>
