<?xml version="1.0" encoding="utf-8"?>
<!-- Generator: Adobe Illustrator 16.0.0, SVG Export Plug-In . SVG Version: 6.00 Build 0)  -->
<!DOCTYPE svg PUBLIC "-//W3C//DTD SVG 1.1//EN" "http://www.w3.org/Graphics/SVG/1.1/DTD/svg11.dtd">
<svg version="1.1" id="Layer_1" xmlns="http://www.w3.org/2000/svg" xmlns:xlink="http://www.w3.org/1999/xlink" x="0px" y="0px"
	 width="90px" height="90px" viewBox="0 0 90 90" enable-background="new 0 0 90 90" xml:space="preserve">
<g>
	<g>
		<path d="M45.5,19.833c-16.726,0-30.333,12.112-30.333,27c0,17.916,10.205,27,30.333,27s30.333-9.084,30.333-27
			C75.833,31.945,62.226,19.833,45.5,19.833z M45.5,70.833c-18.393,0-27.333-7.851-27.333-24c0-13.233,12.262-24,27.333-24
			s27.333,10.766,27.333,24C72.833,63.207,64.147,70.833,45.5,70.833z"/>
	</g>
	<g>
		<path d="M45,63.104l2.334-1.021c2.979-0.979,4.971-1.354,8.729-2.271c7.016-1.713,8.486-3.313,8.486-5.629
			c-1.037,1.384-5.168,1.767-8.813,2.104C51.608,56.67,47.401,56.342,45,58.208c-2.401-1.866-6.608-1.538-10.736-1.921
			c-3.645-0.337-7.775-0.72-8.813-2.104c0,2.316,1.471,3.916,8.486,5.629c3.758,0.917,5.75,1.292,8.729,2.271L45,63.104z"/>
	</g>
	<g>
		<path d="M50.667,49.25c-1.25,0.083-2.416,0.417-2.583,2.917C49.834,51.75,50.501,50.667,50.667,49.25z"/>
	</g>
	<g>
		<path d="M42.666,52.167c-0.167-2.5-1.333-2.834-2.583-2.917C40.249,50.667,40.916,51.75,42.666,52.167z"/>
	</g>
</g>
</svg>
