<?xml version="1.0" encoding="utf-8"?>
<!-- Generator: Adobe Illustrator 16.0.0, SVG Export Plug-In . SVG Version: 6.00 Build 0)  -->
<!DOCTYPE svg PUBLIC "-//W3C//DTD SVG 1.1//EN" "http://www.w3.org/Graphics/SVG/1.1/DTD/svg11.dtd">
<svg version="1.1" id="Layer_1" xmlns="http://www.w3.org/2000/svg" xmlns:xlink="http://www.w3.org/1999/xlink" x="0px" y="0px"
	 width="90px" height="90px" viewBox="0 0 90 90" enable-background="new 0 0 90 90" xml:space="preserve">
<path d="M73.811,66.608c0.087,0.077,0.121,0.107-0.001-0.001c-2.586-2.293-5.323-4.869-6.723-8.11
	c-1.688-3.906,0.016-7.846,1.013-11.644c1.078-4.103,1.692-8.409,0.847-12.615c-0.378-1.879-1.069-3.65-1.938-5.354
	c-1.103-2.16-0.733-4.029-1.007-6.404c-0.418-3.633-3.213-6.173-6.157-8.153c-2.85-1.914-6.423-4.699-9.978-4.95
	c-3.069-0.216-3.065,4.261-4.017,6.304c-0.354,0.759-3.643,0.675-4.35,0.796c-1.123,0.192-4.348,1.47-5.237,0.689
	c-2.783-2.443-6.126,0.93-7.969,3.087c-1.056,1.238-1.934,2.77-2.649,4.225c-0.396,0.803-0.576,1.409-0.853,2.229
	c-0.29,0.866-0.563,1.271-0.911,2.563c-0.447,1.658-1.156,3.239-1.44,4.963c-0.31,1.876-0.313,3.825-0.231,5.72
	c0.184,4.26,1.322,8.375,2.066,12.555c0.643,3.613-0.572,6.693-2.888,9.433c-1.058,1.251-7.68,5.651-4.67,7.651
	c1.48,0.985,3.535,0.37,5.063-0.031c2.192-0.575,2.8-0.719,4.344-0.996c1.63-0.292,4.105-0.886,5.365,0.32
	c1.496,1.432,2.891,2.417,4.822,3.195c6.507,2.622,16.698,2.43,22.205-2.383c1.179-1.03,1.64-2.017,3.373-1.552
	c1.849,0.495,3.913,0.807,5.797,1.167c1.784,0.34,3.591,0.969,5.398,0.48C74.302,69.463,74.739,67.436,73.811,66.608z
	 M26.327,47.362c0.308,0.486,2.834,3.804,3.1,1.479c0.205-1.841-0.362-4.04-0.474-5.904c-0.054-0.905,0.167-4.292-0.932-4.708
	c-0.918-0.349-2.407,0.705-2.793,1.429c-0.197-2.736,0.723-7.329,2.209-11.075c0.819-2.064,1.046-3.112,1.998-4.681
	c0.993-1.637,2.333-3.044,3.916-4.119c1.338-0.908,1.772,1.599,3.594,1.053c2.114-0.634,4.064-1.34,6.294-1.546
	c1.217-0.112,4.051,0.461,4.797-0.745c1.09-1.764,1.436-4.17,2.093-6.121c2.381,1.079,4.736,2.242,6.917,3.691
	c2.07,1.375,5.588,3.692,5.77,6.326c0.109,1.585,0.19,3.171,0.296,4.756c0.09,1.343,0.873,2.267,1.428,3.445
	c1.431,3.04,1.739,4.698,1.614,8.014c-0.513-0.542-0.841-0.563-1.56-0.625c-1.24-0.108-1.728,3.51-1.739,4.302
	c-0.022,1.503-0.177,3.023-0.291,4.521c-0.117,1.543,0.847,2.966,2.116,1.094c-0.92,3.177-1.78,5.846-0.715,9.141
	c1.026,3.173,1.754,4.437,3.944,6.909c-2.764-1.668-4.365-2.47-5.742-5.498c-0.816-1.797-2.185-1.197-3,0.104
	c-1.198,1.916-1.323,2.052-2.714,3.849c0.258-0.902,0.567-1.781,0.891-3.156c1.313-5.578,0.826-11.574,0.354-17.283
	c-0.469-5.767-1.124-11.611-3.113-17.085c-0.43-1.183-2.87-8.422-4.679-6.864c-0.916,0.791-1.182,2.779-1.561,3.858
	c-0.486,1.386-0.993,2.772-1.379,4.191c-0.869,3.202-1.947,6.521-2.098,9.857c-2.515-3.173-5.074-6.341-7.578-9.496
	c-2.211-2.788-3.428,4.096-3.716,5.209c-2.05,7.93-2.548,17.088-1.376,25.194c-1.974-2.4-2.046-0.789-3.059,1.501
	c-0.766,1.73-2.683,3.388-4.938,4.926C27.922,58.391,27.969,53.797,26.327,47.362z M26.094,42.359
	c0.085-0.625,0.25-0.795,0.75-1.203c-0.073,1.922,0.056,2.767,0.422,4.844C26.312,44.565,25.817,44.117,26.094,42.359z
	 M65.396,44.354c-0.161,0.473-0.401,0.834-0.646,1.271c0.153-1.685,0.338-2.708,0.438-4.396
	C66.083,42.383,65.833,42.995,65.396,44.354z M42.657,42.531c-1.002-1.527-4.16-1.975-5.779-2.463
	c-1.304-0.393-2.711-0.776-2.567-1.657c0.201-1.237,0.373-2.479,0.648-3.703c1.937,0.415,3.658,1.07,5.484,1.823
	c1.513,0.624,2.969,1.898,4.491,2.365c1.57,0.481,3.419-1.801,4.637-2.543c1.664-1.013,3.257-1.801,5.143-2.309
	c0.12,0.919,0.301,1.834,0.427,2.752c0.186,1.347,0.578,2.434-0.438,2.734c-1.86,0.55-4.072,1.188-5.778,2.133
	c-1.11,0.616-2.192,3.227,0.074,3.032c2.258-0.194,4.549-1.811,6.688-2.538c0.285,4.213,0.372,8.735-0.229,12.925
	c-0.349,2.433-5.116,5.816-7.363,8.027c-2.071,2.034-3.687,1.418-5.695-0.339c-1.944-1.699-3.922-3.265-5.672-5.181
	c-1.942-2.126-2.887-3.512-2.982-6.398c-0.103-3.093,0.005-6.151,0.21-9.242c2.072,0.65,4.01,1.305,5.979,2.23
	C41.148,44.751,44.034,44.63,42.657,42.531z M36.031,30.875c0.285-0.996,0.265-0.685,0.596-1.666
	c1.825,2.56,2.123,2.465,4.093,4.976c-1.818-0.83-3.056-0.989-4.874-1.382C35.313,32.688,35.665,32.151,36.031,30.875z
	 M47.299,35.129c0.29-5.605,1.952-7.847,3.472-13.67c1.263,2.077,2.634,6.592,3.183,8.776c0.472,1.977,0.375,1.547-0.869,1.891
	C50.592,32.813,49.316,33.52,47.299,35.129z M40.61,66.695c-0.262,1.041-0.893,2.81-1.193,4.18
	c-0.981-0.266-2.667-0.609-4.526-1.803c-1.079-0.693-2.496-2.963-3.719-3.11c-3.29-0.395-6.462,0.537-9.653,1.203
	c3.938-2.2,7.903-4.274,9.644-8.406c0.645,0.709,0.946,1.022,2.119,1.022c1.376,0,0.738-1.732,0.631-2.448
	c1.804,2.241,3.639,4.251,5.979,5.946C41.396,64.369,41.038,65.001,40.61,66.695z M41.902,70.31
	c0.062-1.221,0.789-3.466,0.968-4.613c2.188,1.22,3.221,1.128,5.336-0.138c0.261,1.586,0.592,3.161,0.985,4.72
	C46.723,70.66,44.372,70.672,41.902,70.31z M59.075,66.169c-2.433,2.17-4.333,4.242-7.652,4.875
	c-0.016-0.944-0.54-2.375-0.704-3.169c-0.267-1.292-0.256-2.386-0.469-3.688c1.93-1.691,2.954-2.318,4.666-4.241
	c-0.442,1.858-0.68,2.69-1.51,4.413c-0.209,0.433-1.801,3.813,0.223,3.072c3.055-1.113,5.376-4.633,6.976-7.242
	c0.915,3.311,4.854,5.186,9.138,7.347C65.881,67.052,60.854,64.583,59.075,66.169z"/>
</svg>
