<?xml version="1.0" encoding="utf-8"?>
<!-- Generator: Adobe Illustrator 16.0.0, SVG Export Plug-In . SVG Version: 6.00 Build 0)  -->
<!DOCTYPE svg PUBLIC "-//W3C//DTD SVG 1.1//EN" "http://www.w3.org/Graphics/SVG/1.1/DTD/svg11.dtd">
<svg version="1.1" id="Layer_1" xmlns="http://www.w3.org/2000/svg" xmlns:xlink="http://www.w3.org/1999/xlink" x="0px" y="0px"
	 width="90px" height="90px" viewBox="0 0 90 90" enable-background="new 0 0 90 90" xml:space="preserve">
<path d="M74.682,42.311c-2.006-8.439-7.244-17.998-12.76-23.854c-4.826-5.124-11.905-5.964-18.729-5.02
	c-1.425,0.197-2.309-1.7-3.683-2.209c-2.424-0.897-3.777,0.681-4.681,2.668c-1.213,2.666-2.332,0.739-4.823,1.27
	c-3.12,0.664-4.324,3.926-5.535,6.505c-2.679,5.701-5.332,11.423-7.72,17.254c-0.714,1.743-2.356,4.509-1.583,6.494
	c1.137,2.918,5.596-0.472,5.32-1.01c0.436,0.849,0.452,2.086,0.793,3.007c0.507,1.368,1.22,2.589,1.584,4.011
	c0.668,2.602,2.287,4.841,4.414,6.46c0.686,0.521,1.419,0.968,2.186,1.361c0.389,0.199,0.063,3.042,0.059,3.578
	c-0.024,3.219-1.562,5.307-3.462,7.77c-1.571,2.036-2.151,3.766,0.32,5.314c2.719,1.706,6.146,2.896,9.335,3.217
	c3.316,0.333,6.679,0.292,9.844-0.803c2.925,1.01,6.102,1.219,9.163,0.874c2.726-0.308,13.597-2.319,11.441-6.97
	c-1.185-2.555-3.821-4.087-4.528-6.938c-0.4-1.611-0.411-3.292-0.342-4.939c0.061-1.458,0.928-1.342,2.097-2.166
	c2.253-1.589,3.75-3.74,4.713-6.297c0.458-1.214,3.782,0.337,5.011-0.527c1.753-1.234-0.219-3.143,1.29-3.837
	C76.254,46.673,75.009,43.688,74.682,42.311z M62.219,72.922c-0.284,0.146-0.65,0.343-0.85,0.424
	c-2.352,1.121-4.879,1.887-7.474,2.137c-1.298,0.125-2.617,0.135-3.914-0.014c-1.47-0.17-3.142-1.115-4.575-0.922
	c-1.079,0.146-2.124,0.653-3.225,0.831c-1.415,0.228-2.911,0.159-4.337,0.103c-3.145-0.124-5.98-1.022-8.761-2.475
	c1.796-2.177,3.367-4.555,4.828-6.845c2.136,4.053,6.392,6.884,10.916,7.62c4.525,0.734,10.2-3.927,12.341-7.405
	C58.674,68.64,60.576,70.718,62.219,72.922z M45.271,44.44c1.626,1.328,12.489,6.989,13.451,2.695
	c1.111,0.568,0.891,0.494,0.758,1.573c-0.264,2.138-0.505,4.264-0.915,6.38c-0.203,1.048-0.654,1.188-1.069,2.063
	c-0.58,1.216-0.47,1.987-1.628,2.881c-3.186,2.457-5.948,6.005-10.338,5.968c-2.018,0-3.86-0.815-5.472-1.979
	c-1.649-1.19-3.88-2.77-5.211-4.271c-0.918-1.036-2.223-3.604-2.486-4.876c-0.559-2.693-0.817-5.437-1.117-8.167
	c1.057,0.31,1.338-0.327,2.216,0.433c0.538,0.467,1.211,0.952,1.954,0.992c0.753,0.039,1.418-0.505,1.671-1.188
	c0.379-1.024,1.675-0.472,2.696-0.296c0.677,0.117,1.422,0.318,2.088,0.015c0.465,0.362,1.013,0.655,1.595,0.773
	C45.237,47.795,46.146,45.853,45.271,44.44z M37.577,66.514c4.884,3.751,11.085,3.776,15.992,0.036
	c-1.757,2.101-5.031,4.898-7.97,4.9C42.544,71.191,39.504,68.729,37.577,66.514z M72.423,43.681
	c-0.108,0.493-1.204-0.79-2.065-1.681c-0.707-0.563-2.315-2.12-3.323-1.973c-0.555,0.082,0.954,2.404,1.097,2.659
	c0.795,1.408,1.574,2.828,2.288,4.279c0.373,0.759,1.537,2.311,0.097,2.129c-0.845-0.106-4.177-1.364-4.35-0.131
	c-0.36,2.571-1.206,4.686-3.195,6.456c-0.181,0.16-0.363,0.301-0.547,0.434c0.868-1.141,1.959-3.056,2.389-3.958
	c0.411-0.863,0.669-1.754,0.708-2.708c0.045-1.111-0.468-1.252-0.76-0.113c-0.295,1.154-0.741,2.261-1.252,3.335
	c-0.403,0.848-1.924,3.063-2.211,4.153c-1.366,0.776-2.502,1.337-2.449,3.563c0.004,0.177,0.255,6.221,0.277,6.218
	c-2.237,0.319-0.882-6.339-3.871-3.453c-2.874,2.759-6.026,5.035-10.189,4.832c-2.442-0.12-4.213-1.068-5.856-2.304
	c0.61,0.374,1.237,0.716,1.876,1.021c2.931,1.405,6.534,1.37,9.404-0.176c1.427-0.769,2.679-1.852,3.88-2.927
	c1.29-1.154,3.061-2.082,3.97-3.607c1.534-2.571,2.044-5.413,2.434-8.434c0.332-2.565,1.18-4.3-1.31-5.579
	c-0.277-0.141-3.833-1.504-3.617-0.682c0.058,0.224,1.486,1.69,1.257,1.847c-1.157,0.782-4.219-0.643-5.312-1.031
	c-1.679-0.599-2.762-0.895-4.275-1.907c-0.401-0.269-6.916-5.28-6.771-5.43c-0.676,0.676,3.896,7.401,3.045,7.401
	c-1.345,0-3.277-2.64-4.068-3.525c-1.362-1.526-2.572-3.262-3.599-5.031c-0.118-0.204-1.484-2.979-1.867-2.596
	c-0.795,0.795,0.336,5.021,0.461,6.017c0.222,1.76-0.045,2.59,1.863,2.815c0.936,0.11,4.202,0.354,4.637,1.481
	c-0.094-0.247-5.086-0.322-5.694-0.326c0.027,1.075,0.267,2.58-1.189,1.116c-0.318-0.32-0.628-1.006-1.119-0.886
	c-0.226,0.056-1.484,0.463-1.618,0.103c-0.305-0.795,1.348-0.979,0.816-2.035c-0.333-0.662-0.654-3.213-1.269-3.551
	c-0.056-0.031-1.422,3.669-1.538,4.139c-0.741,3.012,0.449,7.043,0.962,10.041c0.537,3.145,2.204,6.042,4.487,8.411
	c-1.205-0.498-2.778,4.531-3.172,4.092c-0.458-0.512,0.306-4.038,0.314-4.807c0.014-1.014,0.315-3.214-0.639-3.939
	c-0.702-0.534-1.43-0.926-2.139-1.345c0.08-0.013,0.158-0.037,0.229-0.092c-0.128-0.301-1.056-1.576-1.637-2.551
	c-0.042-0.07-0.742-1.417-0.897-1.796c-0.162-0.397-1.765-4.261-1.751-1.768c0.004,0.651,1.387,3.705,2.679,5.278
	c-0.325-0.261-0.641-0.551-0.938-0.899c-1.612-1.895-1.749-4.106-2.692-6.299c-0.814-1.895-1.433-3.876-1.546-5.946
	c-0.076-1.365,0.068-2.728,0.326-4.067c0.048-0.247,0.677-2.004,0.353-2.328c-0.211-0.212-4.652,6.9-5.411,7.24
	c-0.004,0.002,0.79-2.338,0.887-2.574c0.513-1.257,1.054-2.502,1.594-3.747c1.047-2.406,2.105-4.807,3.182-7.199
	c1.143-2.538,2.285-5.079,3.548-7.561c1.007-1.978,2.147-4.979,4.955-4.037c0.949,0.317,2.2,1.977,2.985,0.76
	c0.936-1.448,1.534-3.096,2.452-4.557c0.891-1.419,2.903,1.404,3.362,1.981c0.683,0.856,3.385-0.115,4.343-0.203
	c6.189-0.565,11.888,1.436,16.159,5.993c2.451,2.614,4.333,5.724,5.91,8.926c0.972,1.975,1.83,4.004,2.614,6.06
	C70.743,38.322,72.799,41.972,72.423,43.681z M36.302,40.496c0.356,0.545,0.73,1.078,1.122,1.599
	c-0.279-0.015-0.552-0.076-0.657-0.089C36.153,41.932,36.36,41.003,36.302,40.496z"/>
</svg>
