<?xml version="1.0" encoding="utf-8"?>
<!-- Generator: Adobe Illustrator 16.0.0, SVG Export Plug-In . SVG Version: 6.00 Build 0)  -->
<!DOCTYPE svg PUBLIC "-//W3C//DTD SVG 1.1//EN" "http://www.w3.org/Graphics/SVG/1.1/DTD/svg11.dtd">
<svg version="1.1" id="Layer_1" xmlns="http://www.w3.org/2000/svg" xmlns:xlink="http://www.w3.org/1999/xlink" x="0px" y="0px"
	 width="90px" height="90px" viewBox="0 0 90 90" enable-background="new 0 0 90 90" xml:space="preserve">
<path d="M73.502,41.632c-1.54-3.034-3.763-6.813-5.633-9.654c0,0.006,5.265,3.43,5.476,3.232c0.937-0.877-3.867-7.32-4.523-8.183
	c-0.386-0.507-5.075-5.495-5.066-5.506c0.54-0.659,5.099,0.735,5.887,0.853c1.194,0.178,1.357-0.092,0.314-0.716
	c-5.158-3.087-10.965-5.269-16.476-7.62c-4.163-1.776-8.582-0.611-13.005-0.243c-1.917,0.159-5.151-0.216-6.899,0.65
	c-1.028,0.509-1.938,1.656-2.759,2.417c-1.396,1.294-3.088,3.654-5.033,4.136c-2.501,0.62-3.106,0.911-4.326,3.302
	c-2.755,5.401-5.124,12.328-5.562,18.394c-0.125,1.729,2.468-1.725,2.944-1.488c0.586,0.291,1.458,4.108,0.664,4.46
	c-2.269,1.004-2.703,4.276-2.343,6.387c0.228,1.333,0.729,2.613,1.394,3.787c0.428,0.756,2.056,2.147,2.113,2.984
	c-0.009-0.139-8.475-2.878-6.418,2.181c1.032,2.538,2.329,4.983,3.496,7.461c1.077,2.287,1.964,5.118,3.551,7.127
	c2.797,3.541,4.914-6.684,5.267-7.846c0.216-0.708,0.351-1.887,0.821-2.498c-0.048,0.063,5.405,4.952,6.017,5.431
	c4.453,3.49,10.199,4.942,15.531,2.494c2.994-1.375,5.516-3.658,7.836-5.949c1.162-1.147,1.87-2.769,2.487-0.855
	c0.574,1.78,1.84,11.688,5.398,9.527c0.995-0.604,1.501-2.473,1.958-3.437c0.699-1.475,1.398-2.949,2.096-4.423
	c0.639-1.35,1.263-2.706,1.904-4.053c0.651-1.367,2.74-4.156,1.243-5.563c-1.344-1.265-5.734,1.157-6.174,0.388
	c-0.729-1.276,2.857-1.523,2.867-1.571c0.493-2.356-0.479-5.662-0.738-8.044c-0.098-0.903-1.576-6.718-1.276-6.996
	c0.488-0.452,4.811,1.87,5.381,2.104c0.317,0.131,2.556,1.356,2.933,0.983C75.396,44.746,73.741,42.102,73.502,41.632z
	 M66.152,61.093c0.232-0.605,4.037-0.968,4.037-0.903c0,0.563-1.681,4.363-2.203,4.363C67.595,64.552,66.003,61.481,66.152,61.093z
	 M48.991,47.912c1.4-0.129,2.828-0.096,4.232-0.093c1.056,0.001,2.973-0.332,3.959,0.136c2.257,1.07,1.8,2.523,0.795,4.338
	c-0.666,1.201-1.135,0.98-2.436,0.98c-1.583,0-6.918,0.887-7.77-0.449C46.748,51.217,46.129,48.176,48.991,47.912z M44.202,44
	c1.157,0.696,2.325,1.383,3.456,2.122c0.707,0.461-0.541,1.203-0.869,1.488c-1.375,1.198-3.227,2.313-4.208-0.027
	c-0.641-1.528-2.104-3.794-2.142-5.48C40.432,41.78,43.992,43.874,44.202,44z M38.349,53.052c-1.337,0.962-6.052,0.246-7.715,0.222
	c-2.279-0.032-4.451-2.831-2.299-4.69c1.82-1.57,5.763-0.792,8.014-0.723C39.16,47.946,40.739,50.877,38.349,53.052z M26.788,47.002
	c0.565-2.214,1.129-6.247,2.413-7.475c0.331,0.113,3.822,5.012,4.404,5.791c1.36,1.822-3.215,1.048-4.251,1.128
	C28.452,46.516,26.376,48.613,26.788,47.002z M19.404,62.771c-0.175,0.329-0.862,2.328-1.385,1.438
	c-0.632-1.076-1.166-2.235-1.648-3.384c-0.583-1.387,1.222-0.525,2.035-0.323C20.259,60.962,20.302,61.089,19.404,62.771z
	 M21.862,72.492c-0.336-0.693-1.444-2.228-1.292-3.078c0.077-0.429,2.164,0.365,2.348,0.41
	C24.26,70.153,23.231,75.318,21.862,72.492z M25.506,64.478c-0.312,1.031-0.631,3.289-1.468,1.275
	c-0.494-1.188-1.028-2.359-1.542-3.539c-0.545-1.244,2.04-0.238,2.526-0.12C26.47,62.448,25.857,63.317,25.506,64.478z
	 M58.691,62.03c-1.425,2.755-4.221,5.04-6.586,6.949c-4.056,3.272-9.341,4.729-14.252,2.381c-2.97-1.419-5.394-3.865-7.679-6.174
	c-0.825-0.834-1.69-1.683-2.283-2.707c-0.335-0.58-0.667-2.246-1.461-2.246c-1.934,0-3.718-2.089-4.827-3.346
	c-1.724-1.955-3.164-4.934-2.48-7.598c1.087-4.237,2.007,0.856,2.341,2.326c0.107,0.471,1.264,6.466,1.606,6.412
	c0.365-0.058,1.515-4.126,1.745-3.923c1.237,1.099,0.483,4.949,1.919,5.657c-0.119-0.059,0.029-5.349,0.057-6.055
	c0.059-1.523,0.948,0.509,1.599,0.817c1.833,0.886,5.272,0.189,7.381,0.189c1.135,0,2.607,0.329,3.555-0.47
	c0.279-0.235,0.946-1.933,1.281-1.722c0.679,0.429,1.27,1.073,1.853,1.616c1.851,1.724,3.635,3.526,5.547,5.183
	c0.037,0.032,1.077,0.956,0.895,0.397c-0.397-1.219-1.215-2.39-1.823-3.505c-0.687-1.26-3.124-4.191-2.948-5.709
	c0.13-1.118,2.015,2.161,1.988,2.092c0.429,1.116,0.715,1.871,2.012,2.027c1.756,0.212,3.57,0.081,5.335,0.073
	c1.198-0.005,3.174,0.391,4.295-0.019c0.541-0.198,1.665-2.123,1.731-0.979c0.045,0.777-0.734,5.753-0.049,6.091
	c0.245,0.121,1.552-5.31,1.991-5.517c0.596-0.28,2.837,1.321,3.357,1.647c0.992,0.62-0.848,1.795-1.298,2.182
	c-0.964,0.827-2.104,1.736-3.331,2.135C59.113,60.573,59.198,61.05,58.691,62.03z M62.034,66.23c-0.552,1.07-0.73-0.055-0.924-0.688
	c-0.122-0.397-1.119-2.794-0.742-3.059c0.345-0.243,3.355-1.286,3.547-0.786C64.205,62.47,62.388,65.543,62.034,66.23z
	 M65.429,70.368c-0.456,1.022-0.912,2.072-1.475,3.041c-0.504,0.867-0.991-1.731-1.047-1.917c-0.555-1.824,0.357-1.679,1.982-2.103
	C66.007,69.097,65.79,69.559,65.429,70.368z"/>
</svg>
