<?xml version="1.0" encoding="utf-8"?>
<!-- Generator: Adobe Illustrator 16.0.0, SVG Export Plug-In . SVG Version: 6.00 Build 0)  -->
<!DOCTYPE svg PUBLIC "-//W3C//DTD SVG 1.1//EN" "http://www.w3.org/Graphics/SVG/1.1/DTD/svg11.dtd">
<svg version="1.1" id="Layer_1" xmlns="http://www.w3.org/2000/svg" xmlns:xlink="http://www.w3.org/1999/xlink" x="0px" y="0px"
	 width="90px" height="90px" viewBox="0 0 90 90" enable-background="new 0 0 90 90" xml:space="preserve">
<g>
	<path d="M70.887,38.127c-0.03-0.503,0.097-0.965,0.041-1.751c-0.12-1.671-0.397-3.33-0.83-4.949c-0.809-3.025-2.163-5.9-3.984-8.45
		c-3.682-5.155-9.207-8.831-15.372-10.276c-6.554-1.536-14.039-0.546-19.782,2.991c-5.506,3.391-9.706,8.851-11.615,15.023
		c-0.466,1.508-0.795,3.058-0.975,4.625c-0.091,0.792-0.143,1.588-0.156,2.385c-0.007,0.437,0.166,1.295-0.126,1.683
		c-1.901,2.521-2.881,5.226-3.06,8.409c-0.196,3.486,0.616,6.937,2.729,9.759c0.987,1.317,2.226,2.495,3.693,3.261
		c1.341,0.698,1.453,2.718,1.975,4.079c0.932,2.429,2.094,5.896,4.176,7.625c0.957,0.795,2.047,0.106,3.069,0.104
		c0.455-0.002,0.938,0.639,1.225,0.907c0.84,0.786,1.7,1.554,2.596,2.276c4.731,3.815,11.18,5.252,16.807,2.382
		c2.727-1.391,4.969-3.53,7.163-5.625l0.546,0.18c3.36,1.102,4.972-3.561,6.004-5.925c0.767-1.758,1.206-3.655,1.985-5.396
		c0.127-0.285,0.312-0.365,0.575-0.504c0.783-0.411,1.514-0.92,2.175-1.507c5.465-4.848,6.061-14.299,1.465-19.955
		C71,39.217,70.911,38.515,70.887,38.127z M23.178,54.04c-0.956-2.664-0.664-2.272-1.125-5.062c-0.25-1.51-0.421-3.033-0.514-4.561
		c-0.054-0.901,0.278-2.872-0.389-3.621c0.566-1.032,0.337-2.516,0.376-3.656c0.046-1.331,0.213-2.605,0.535-3.898
		c0.872-3.502,2.322-6.668,4.621-9.474c4.373-5.335,11.225-8.842,18.207-8.588c6.292,0.229,12.359,2.609,16.65,7.346
		c2.364,2.609,4.123,5.598,5.242,8.933c0.545,1.624,0.758,3.366,0.884,5.066c0.096,1.288-0.202,3.121,0.448,4.288
		c-0.503,0.693-0.313,2.01-0.356,2.81c-0.063,1.193-0.159,2.385-0.283,3.574c-0.255,2.449-0.754,4.848-1.446,7.212
		c-1.246,4.26-2.96,8.289-4.633,12.386c1.667-5.647,3.15-11.235,3.855-17.086c0.114-0.941,1.168-6.251-1.156-5.578
		c-0.673,0.195-1.311,1.22-1.767,1.704c-1.014,1.077-2.059,2.127-3.158,3.118c-4.236,3.82-9.426,5.296-15.016,5.212
		c-6.283-0.095-13.003-2.578-16.921-7.665c-0.509-0.661-1.208-2.106-2.019-2.415c-0.333-0.156-0.692-0.089-0.966,0.143
		c-0.823,0.603-0.535,2.228-0.475,3.063c0.149,2.048,0.412,4.099,0.745,6.124c0.74,4.508,2.045,8.909,3.313,13.289
		c-0.748-1.579-1.48-3.176-2.063-4.825c-0.548-1.553-0.843-3.198-1.464-4.726C23.796,55.902,23.526,55.013,23.178,54.04z
		 M50.803,58.364c-0.918-0.854-1.796-1.907-2.562-2.898c3.16-0.639,6.077-1.559,8.891-3.167
		C54.562,54.832,51.668,57.597,50.803,58.364z M40.482,56.149c-0.695,0.795-1.611,1.843-2.022,2.204
		c-2.18-1.908-4.196-4.013-6.276-6.027c2.843,1.609,5.704,2.445,8.863,3.158C40.875,55.699,40.646,55.962,40.482,56.149
		C39.787,56.944,40.646,55.962,40.482,56.149z M30.243,58.396c1.326,1.283,2.642,2.577,3.976,3.853
		c0.77,0.735,1.863,2.184,2.934,2.489c1.151,0.328,2.613-0.859,3.521-1.373c1.065-0.598,2.141-1.175,3.222-1.744l1.438,0.043
		c0.864,0.5,1.728,0.999,2.592,1.498c0.913,0.527,2.263,1.673,3.396,1.673c1.127,0,2.476-1.834,3.187-2.506
		c1.575-1.488,3.122-3.005,4.682-4.509c-0.579,1.944-1.342,3.685-1.447,5.711c-0.084,1.616,0.334,4.33-0.809,5.57
		c-2.542,2.774-5.813,5.999-9.615,6.888c-3.567,0.833-6.86-0.115-9.764-2.24c-1.713-1.253-3.244-2.734-4.736-4.238
		c-1.163-1.172-1.088-2.181-1.169-3.766c-0.061-1.18,0.028-2.54-0.195-3.707C31.223,60.821,30.614,59.571,30.243,58.396
		C30.417,58.564,30.438,59.012,30.243,58.396z M19.953,55.415c-1.692-2.026-2.719-8.143,0.116-12.725
		c0.103,5.385,1.171,10.836,2.945,15.004C21.182,56.656,20.794,56.407,19.953,55.415z M68.571,49.645
		c0.379-2.289,0.539-4.63,0.629-6.946c2.878,4.612,2.032,12.073-2.936,14.972C67.387,54.915,68.121,52.36,68.571,49.645
		C68.839,48.029,68.121,52.36,68.571,49.645z"/>
	<path d="M62.357,26.07c-0.796,0-1.723,0.605-2.414,0.918c-1.486,0.671-2.958,1.37-4.437,2.057
		c-1.133,0.525-2.484,0.905-3.259,1.942l0.045,2.131c0.065,3.043-0.956,5.271-3.923,6.337c0.365-0.865,1.236-1.955,1.14-2.947
		c-0.14-1.445-2.018-0.492-2.708-0.212c-2.191,0.891-4.555,0.48-5.739,2.911l-0.142,0.289c-2.458-0.02-4.187-2.748-4.417-4.895
		c-0.119-1.116,0.348-2.498-0.022-3.558c-0.332-0.948-1.762-1.362-2.568-1.733c-2.049-0.948-4.088-1.926-6.156-2.83
		c-2.083-0.91-2.441,0.347-2.67,2.203c-0.284,2.31-0.475,4.658-0.29,6.983c0.249,3.129,1.391,6.277,3.808,8.391
		c3.318,2.901,7.938,3.567,12.127,4.161c-0.666,0.878-3.116,2.198-2.232,3.568c1.272,1.971,2.84,0.769,4.031-0.385
		c-0.055,1.386,0.354,1.987,1.79,1.986c1.4-0.001,2.253-0.404,1.99-1.964c1.256,1.208,2.139,2.029,3.712,0.72
		c1.633-1.36-1.225-2.904-1.924-3.918c5.328-0.814,11.322-1.749,14.263-6.885c1.319-2.305,1.742-5.003,1.755-7.626
		c0.009-1.788-0.171-3.576-0.414-5.345C63.588,27.533,63.494,26.07,62.357,26.07z M60.247,41.951
		c-2.401,2.902-6.337,4.018-9.914,4.567c-0.878,0.135-3.624-0.093-3.79,1.296c-0.166,1.395,1.684,2.473,2.478,3.334
		c-0.174,0.122-0.362,0.251-0.552,0.348c-0.915-0.542-1.504-1.866-2.598-2.103c-1.521-0.328-0.968,1.873-0.895,2.582
		c-0.347,0.026-0.706,0.021-1.054,0.011c-0.02-0.746,0.427-2.885-0.972-2.625c-1.046,0.194-1.727,1.558-2.563,2.125
		c-0.205-0.098-0.408-0.21-0.588-0.348c0.843-0.82,1.953-1.588,2.435-2.701c0.689-1.593-1.585-1.633-2.506-1.743
		c-3.357-0.402-7.096-1.271-9.827-3.383c-4.505-3.483-4.389-10.763-3.227-15.764c1.51,0.557,2.962,1.325,4.423,2.001
		c0.917,0.426,3.541,1.183,4.079,1.988c0.244,0.805-0.155,2.073-0.086,2.943c0.084,1.067,0.344,2.128,0.861,3.071
		c0.906,1.651,3.084,3.469,5.088,3.341l0.785-0.051l0.498-1.021c0.94-1.928,3.697-1.656,5.481-2.425
		c-0.379,0.809-1.556,2.423-0.749,3.294c0.826,0.893,2.74-0.253,3.518-0.72c2.472-1.484,3.181-4.146,3.122-6.882l-0.034-1.604
		l0.003-0.004c1.116-0.916,2.963-1.415,4.262-2.021c1.394-0.65,2.784-1.344,4.22-1.898C63.217,32.058,63.357,38.191,60.247,41.951
		C58.116,44.526,62.4,39.349,60.247,41.951z"/>
</g>
</svg>
