<?xml version="1.0" encoding="utf-8"?>
<!-- Generator: Adobe Illustrator 16.0.0, SVG Export Plug-In . SVG Version: 6.00 Build 0)  -->
<!DOCTYPE svg PUBLIC "-//W3C//DTD SVG 1.1//EN" "http://www.w3.org/Graphics/SVG/1.1/DTD/svg11.dtd">
<svg version="1.1" id="Layer_1" xmlns="http://www.w3.org/2000/svg" xmlns:xlink="http://www.w3.org/1999/xlink" x="0px" y="0px"
	 width="90px" height="90px" viewBox="0 0 90 90" enable-background="new 0 0 90 90" xml:space="preserve">
<g>
	<path d="M31.734,41.361c-1.03,0.562-1.557,1.565-2.334,2.416c-0.525,0.572-0.502,0.725,0.145,1.042
		c1.577,0.771,1.879,0.666,1.959-0.688c0.048-0.814,0.34-1.734,0.255-2.543L31.734,41.361z"/>
	<path d="M72.795,60.766c0.191,0.057,1.121,0.332-0.002-0.001c-0.278-0.082-0.293-0.102-0.417-0.599
		c-0.238-0.953-0.663-2.731-1.034-4.313c-0.624-2.673-1.078-3.139-2.685-3.054L68,52.83c0-0.825,0-1.651,0-2.477l0.544-0.088
		c2.361-0.421,2.806-3.109,0.688-4.272c-0.332-0.181-0.444-0.312-0.672-0.706c-0.356-0.611-0.365-0.577,0.264-0.575
		c1.242,0.005,1.897-0.468,2.183-1.578c0.226-0.885-0.2-1.878-0.534-2.678c-0.356-0.851-0.773-1.676-1.18-2.504l0.41-0.049
		c1.937-0.226,2.473-1.939,1.259-4.027c-6.419-11.041-12.02-15.653-18.326-15.09l-0.998,0.089c-1.439-1.521-3.058-2.717-4.928-3.673
		c-1.767-0.903-3.595-1.029-5.56-1.268c-2.655-0.322-5.307-0.682-7.966-0.993c-1.002-0.117-2.007-0.229-3.016-0.277
		c-0.465-0.023-1.008-0.08-1.461,0.062c-0.998,0.31-1.528,1.661-1.129,2.881c0.3,0.917,1.146,2.491,1.753,3.267
		c0.304,0.385,0.291,0.399-0.511,0.501c-3.44,0.438-6.663,1.745-9.64,3.91c-1.223,0.888-1.453,1.239-1.467,2.221
		c-0.02,1.358,0.494,1.882,2.318,2.366c1.08,0.286,1.151,0.318,0.952,0.43c-2.452,1.373-5.438,5.127-6.81,8.562
		c-1.84,4.611-1.515,6.878,0.976,6.782c0.637-0.025,0.666-0.02,0.632,0.122c-0.594,2.503,0.156,6.75,1.875,10.614
		c1.34,3.013,1.809,3.552,3.173,3.654l0.544,0.042c1.4,1.816,3.294,3.559,5.475,4.369c0.194,1.574,0.416,3.139,0.788,4.684
		c0.224,0.924,0.483,1.845,0.831,2.732c0.205,0.523,0.453,1.241,0.93,1.592c0.91,0.674,2.112,0.53,2.903-0.26
		c0.383-0.385,0.521-0.896,0.853-1.303c0.224-0.272,0.686,0.261,0.847,0.39c1.488,1.184,3.079,2.292,4.882,2.941
		c1.668,0.602,3.448,0.754,5.212,0.714c1.754-0.04,3.481-0.343,5.088-1.068c0.847-0.382,1.646-0.859,2.411-1.387
		c0.234-0.162,2.363-1.886,2.455-1.791c0.029,0.03,0.193,0.338,0.366,0.681c0.87,1.735,2.707,2.194,3.825,0.957
		c0.571-0.634,0.817-1.696,1.061-2.486c0.361-1.168,0.482-2.428,0.869-3.577c0.02-0.059,0.864,0.704,0.906,0.745
		c0.523,0.511,1.068,0.999,1.628,1.47c1.074,0.902,2.2,1.743,3.37,2.516c1.018,0.672,2.071,1.304,3.178,1.819
		c0.718,0.335,1.583,0.746,2.399,0.702c1.707-0.094,2.036-0.771,2.208-4.551c0.043-0.94,0.147-2.442,0.232-3.341
		C74.357,61.798,74.146,61.167,72.795,60.766z M32.614,66.166c-0.526-0.076-0.711,1.182-0.891,1.563
		c-0.199,0.421-0.245,0.986-0.549,1.335c-0.506,0.576-0.886-0.513-0.963-0.821c-0.239-0.966-0.587-1.912-0.717-2.899
		c-0.145-1.101-0.325-2.194-0.498-3.29h0.001c-0.018-0.122-0.035-0.234-0.049-0.322c-0.094-0.637-0.228-0.837-0.722-1.079
		c-0.211-0.104-0.408-0.213-0.438-0.243c-0.03-0.03,0.115-0.011,0.322,0.076C28.813,60.775,29.008,61,29.271,62h0.01
		c0.691,2,2.18,3.162,3.568,4.175L32.614,66.166z M53.911,64.238c-0.079,0.071-0.068,0.062-0.015,0.014
		c-2.394,2.141-4.951,4.941-8.282,5.483c-1.847,0.301-3.697,0.297-5.449-0.426c-2.113-0.873-3.909-2.447-5.581-3.966
		c-1.074-0.976-2.209-1.967-3.077-3.141c-0.212-0.29-0.403-0.596-0.543-0.927c-0.134-0.313-0.235-0.635-0.398-0.935
		c-0.219-0.403-0.486-0.58-0.512-1.034c-0.048-0.886-0.366-1.746-0.565-2.603c-0.232-0.998-0.385-2.014-0.457-3.035
		c-0.144-2.08,0.037-4.173,0.536-6.196c0.342,0.141,0.464,0.218,0.505,0.252c0.234,0.414,0.32,0.94,0.514,1.378
		c0.256,0.58,0.564,1.139,0.912,1.67c0.781,1.199,1.754,2.276,2.852,3.191c0.782,0.652,1.87,1.585,2.927,1.717
		c1.125,0.138,2.029-0.648,2.309-1.702c0.156-0.589,0.215-1.201,0.303-1.804c0.83,0.207,1.724-0.034,2.24-0.743
		c0.646-0.886,0.33-1.87,0.178-2.343c-0.071-0.22-0.148-0.421-0.237-0.607c1.082,0.007,2.163-0.016,3.244-0.05
		c-0.105,0.206-0.197,0.433-0.275,0.681c-0.175,0.554-0.467,1.479,0.16,2.335c1.34,1.827,3.876,0.025,5.348-0.66
		c1.676-0.781,3.354-1.567,5.052-2.302c0.52,0.229,1.029,0.482,1.55,0.712c-0.018,1.854-0.042,3.831-0.43,5.651
		c-0.25,1.185-0.703,2.855,0.151,3.908c0.201,0.249,0.456,0.439,0.74,0.56c-0.763,0.623-0.945,1.475-1.413,2.283
		C55.615,62.604,54.77,63.47,53.911,64.238z M41.819,45.036c0.56-1.434,1.352-2.827,2.18-4.12c0.896-1.396,1.874-2.902,3.224-3.901
		c1.014,2.76,2.126,5.333,4.058,7.594C48.155,44.971,44.962,45.096,41.819,45.036z M58.762,60.869
		c-0.396,0.438-0.378,1.358-0.417,1.899c-0.073,1.016-0.17,2.042-0.374,3.04c-0.133,0.646-0.388,1.267-0.542,1.909
		c-0.114,0.478-0.2,0.963-0.47,1.379c-0.168,0.26-0.305,0.384-0.426,0.375c-0.361,0.004-0.852-1.702-0.955-2
		c0.002-0.001,0.004-0.001,0.005-0.003c-0.093-0.267-0.18-1.702-0.669-1.463C55.188,65.873,56,65.242,56,64.982
		c0-0.001,0-0.002,0-0.003c1-0.701,1.291-1.467,1.811-2.321c0.32-0.531,0.407-1.199,0.776-1.689
		c0.066-0.105,0.133-0.186,0.241-0.241C58.868,60.777,58.831,60.825,58.762,60.869z M60.382,54.996
		c-0.165,0.285-0.097,0.168-0.037,0.065c-0.462,0.807-1.069,1.958-1.855,2.474c-0.443,0.352-0.182-1.012-0.157-1.184
		c0.096-0.674,0.256-1.335,0.339-2.012c0.179-1.437,0.28-2.891,0.315-4.339c0.049-1.985,0.029-2.05-0.677-2.325
		c-0.816-0.318-1.783-1.083-2.696-1.1c-0.512-0.01-1.033,0.331-1.481,0.534c-0.541,0.244-1.086,0.482-1.626,0.729
		c-1.34,0.603-2.672,1.228-4,1.854c-0.199,0.096-1.598,0.945-1.813,0.653c-0.178-0.285,0.221-1.019,0.377-1.258
		c0.359-0.558,1.03-0.84,1.615-1.095c1.322-0.563,2.69-1.086,4.071-1.482c0.577-0.167,1.531-0.218,1.332-0.985
		c-0.201-0.782-1.112-1.377-1.623-1.959c-0.624-0.715-1.183-1.456-1.632-2.291c-0.849-1.568-1.667-3.178-2.164-4.902
		c-0.131-0.458-0.675-1.057-1.043-1.149c-1.104-0.277-2.532,1.539-3.092,2.244c-0.9,1.137-1.781,2.313-2.491,3.581
		c-0.665,1.19-1.23,2.429-1.802,3.661c-0.038,0.082-0.748,1.766-0.535,1.765c-0.393,0-0.631,1.063-0.644,1.34
		c0.003,0.001,0.004,0.002,0.006,0.003c-0.003,0.159,0.045,0.27,0.157,0.379c0.563,0.516,1.061,0.68,1.313,1.462
		c0.047,0.147,0.219,0.546,0.078,0.692c-0.366,0.379-1.434-0.685-1.935-0.568c-0.315,0.077-0.374,0.592-0.425,0.844
		c-0.154,0.779-0.24,1.57-0.364,2.355c-0.088,0.546-0.134,1.056-0.74,0.694c-2.302-1.302-4.408-3.609-5.186-6.167
		c-0.073-0.247-0.164-0.49-0.293-0.713c-0.336-0.579-0.886-0.884-2.13-1.316c-0.919-0.321-1.164-0.416-1.428,0.333
		c0.001,0.001,0.001,0.002,0.002,0.003c-1.366,3.695-1.285,8.136-0.291,11.905c0.546,2.076,0.528,2.17-0.259,1.336
		c-0.24-0.255-0.46-0.55-0.662-0.886c-1.041-2.082-1.419-4.246-1.674-6.545c-0.026-0.248-0.057-2.469-0.589-2.182
		c-0.564,0.302-1.024,1.286-1.36,1.798c-0.365,0.73-0.908,1.366-1.238,2.123c-0.151,0.365-0.13,0.825,0.029,1.336
		c0.148,0.402,0.508,1.179,0.678,1.386c-0.332-0.405-0.562-0.907-0.852-1.342c-0.132-0.175-0.228-0.23-0.323-0.181
		c-0.321,0.176-0.33,0.929-0.727,0.947c-0.009,0.002-0.019,0.002-0.026,0c-0.352-0.04-0.779-1.123-0.92-1.442
		c-0.299-0.683-0.637-1.39-0.857-2.103c-0.231-0.747-0.545-1.444-0.714-2.214c-0.179-0.823-0.319-1.662-0.479-2.492
		c-0.196-1.016-0.146-2.021,0.093-3.024c0.173-0.729,0.234-1.725,0.642-2.365c0.406-0.637,0.692-1.296,1.164-1.899
		c0.301-0.385,1.452-1.272,1.378-1.81c-0.446-0.524-2.194,0.581-2.597,0.814c-0.882,0.512-1.727,1.104-2.477,1.798
		c-0.846,0.779-0.791-0.151-0.625-0.793c0.166-0.647,0.457-1.252,0.671-1.886c0.444-1.311,1.106-2.602,1.895-3.735
		c1.749-2.512,4.258-4.776,7.166-5.846c2.044-0.751,2.006-1.312-0.113-1.67c-1.381-0.232-2.698-0.682-4.09-0.9
		c-0.554-0.087-0.806-0.585-0.453-0.897c0.669-0.596,1.529-1.028,2.294-1.482c0.981-0.583,2.058-0.867,3.08-1.339
		c1.051-0.484,2.303-0.44,3.403-0.772c0.8-0.24,1.699-0.195,2.523-0.222c3.027-0.099,3.206-0.187,2.034-1.016
		c-1-0.709-1.884-1.604-2.634-2.571c-0.497-0.641-1.511-1.783-1.423-2.666c-0.004-0.086,0.02-0.147,0.075-0.187
		c0.283-0.306,1.532,0.109,1.903,0.163c1.002,0.146,2.013,0.255,3.022,0.324c0.91,0.061,1.784,0.244,2.684,0.391
		c1.098,0.18,2.207,0.218,3.312,0.333c1.148,0.118,2.273,0.356,3.413,0.533c0.853,0.13,1.574,0.551,2.309,0.984
		c0.951,0.562,1.925,1.186,2.734,1.94c0.458,0.428,0.842,0.918,1.263,1.378c0.137,0.15,0.27,0.305,0.477,0.346
		c0.368,0.07,0.793-0.108,1.16-0.153c0.494-0.061,0.993-0.07,1.49-0.062c0.931,0.019,1.947,0.058,2.839,0.36
		c1.803,0.615,3.45,1.871,4.848,3.135c3.135,2.834,5.284,6.408,7.506,9.946c0.467,0.744,0.439,1.157-0.058,0.906
		c-0.723-0.367-1.641-0.608-2.424-0.833c-0.552-0.158-1.347-0.413-1.927-0.304c-0.563,0.104-0.459,0.393,0.493,1.385
		c0.976,1.017,1.68,2.109,2.426,3.291c0.358,0.568,0.605,1.188,0.935,1.773c0.205,0.362,0.521,1.053,0.459,1.48
		c-0.087,0.615-1.172-0.075-1.437-0.18c-0.65-0.258-1.344-0.371-1.999-0.618c-0.948-0.356-1.366-0.12-0.924,0.521
		c0.646,0.938,1.086,2.079,1.603,3.097c0.332,0.655,0.638,1.314,1.093,1.898c0.266,0.342,0.655,0.639,0.862,1.025
		c0.227,0.398-0.504,0.454-0.73,0.486c-0.561,0.086-1.129,0.104-1.688,0.201c-0.436,0.077-0.465,0.139-0.341,0.507
		c-0.052,0.036-0.099,0.012-0.145-0.071c-0.111-0.081-0.201-0.142-0.291-0.189l0.018,0.021c-0.058-0.026-0.118-0.05-0.183-0.068
		c0.005-0.005,0.011-0.011,0.016-0.017c-0.185-0.065-0.41-0.086-0.837-0.098c0,0.002-0.001,0.003-0.002,0.005
		c-0.643-0.03-1.607-0.274-1.725,0.556C61.756,51.175,61.397,53.237,60.382,54.996z M61.229,57.113
		c1.379-1.978,2.127-4.253,2.492-6.624c0.045,0.003,0.084,0.005,0.117,0.008c0.006,0.013,0.013,0.027,0.019,0.041
		c0.37,0.826,0.421,1.802-0.536,3.887c-0.34,0.739-0.979,1.549-1.671,2.264C61.607,56.742,61.491,56.865,61.229,57.113z
		 M70.49,64.483c-0.195,1.125-0.275,1.944-0.344,3.537c-3.176-1.66-6.229-4.102-8.432-6.94c1.417-0.908,2.89-2.324,3.913-3.789
		c0.729-0.107,1.438-0.365,2.163-0.504c0.156,0.868,0.437,1.704,0.634,2.563c-0.377-0.028-0.775-0.023-1.145-0.107
		c-0.767-0.171-1.382-0.471-2.181-0.165c-0.721,0.276-1.159,0.934-1.118,1.674c0.078,1.355,1.432,1.585,2.438,2.031
		c1.328,0.588,2.707,1.03,4.129,1.335C70.534,64.221,70.515,64.342,70.49,64.483z"/>
</g>
</svg>
