<?xml version="1.0" encoding="utf-8"?>
<!-- Generator: Adobe Illustrator 16.0.0, SVG Export Plug-In . SVG Version: 6.00 Build 0)  -->
<!DOCTYPE svg PUBLIC "-//W3C//DTD SVG 1.1//EN" "http://www.w3.org/Graphics/SVG/1.1/DTD/svg11.dtd">
<svg version="1.1" id="Layer_1" xmlns="http://www.w3.org/2000/svg" xmlns:xlink="http://www.w3.org/1999/xlink" x="0px" y="0px"
	 width="90px" height="90px" viewBox="0 0 90 90" enable-background="new 0 0 90 90" xml:space="preserve">
<path d="M75.171,50.569c0.291-1.119,0.023-1.997-0.834-2.735c-0.896-0.771-1.734-1.615-2.535-2.484
	c-0.108-0.119-1.198-1.283-0.984-1.362c0.9-0.335,1.669-1.085,2.46-1.608c0.567-0.375,1.311-0.99,1.53-1.67
	c0.532-1.649-0.641-2.769-2.872-2.74c-0.744,0.009-1.64-0.297-1.22-0.417c0.683-0.196,1.547-0.738,2.357-1.478
	c1.451-1.325,1.162-3.336-0.571-3.959c-2.094-0.754-3.355-2.679-4.348-4.536c-0.57-1.065-1.121-2.141-1.696-3.203
	c-0.197-0.364-0.402-0.72-0.611-1.077c-0.322-0.548-0.659-1.34-1.124-1.774c-0.447-0.417-0.774-1.065-1.15-1.554
	c-0.426-0.552-0.841-1.104-1.307-1.622c-0.827-0.918-1.746-1.934-2.815-2.576c-1.061-0.636-2.165-1.019-3.391-1.201
	c-0.665-0.099-1.345-0.149-2.018-0.111c-0.409,0.023-1.229,0.382-1.562,0.113c-1.582-1.29-3.167-2.54-5.018-3.415
	c-2.03-0.96-4.366-1.321-6.609-1.047c-2.411,0.293-4.828,1.766-6.828,3.052c-1.597,1.027-3.213,2.049-4.725,3.201
	c-1.763,1.34-3.503,2.665-5.175,4.115c-0.813,0.705-1.488,1.464-2.207,2.257c-0.614,0.677-1.303,1.496-2.099,1.966
	c-0.764,0.452-1.266,0.621-2.153,0.628c-0.746,0.007-1.556-0.01-2.109,0.565c-0.794,0.825-0.68,2.316,0.275,3.609
	c0.464,0.628,1.07,1.183,1.657,1.694c0.254,0.223,1.676,0.908,1.67,1.124c-0.008,0.271-0.399,0.747-0.532,0.994
	c-0.27,0.504-0.532,1.01-0.795,1.518c-0.415,0.804-0.933,2.125-1.976,2.268c-2.031,0.278-2.668,2.244-1.288,3.978
	c1.034,1.299,2.058,2.632,3.578,3.405c0.347,0.177,0.332,0.141,0.197,0.487c-0.365,0.929-0.534,2.397-0.401,3.478
	c0.378,3.062,1.905,5.527,3.979,7.744l-0.249,0.854c-0.699,2.401,0.699,3.999,2.646,3.022c0.273-0.137,0.521-0.259,0.551-0.272
	c0.002-0.001,1.404,2.967,1.506,3.149c0.955,1.733,2.256,2.392,3.551,1.797l0.416-0.191c2.953,2.574,5.788,5.396,9.748,6.25
	c4.431,0.955,8.769-0.055,12.037-2.802c1.319-1.11,2.918-2.101,4.028-3.437l0.404,0.189c1.645,0.771,2.928-0.444,4.425-4.185
	c0.165-0.411,0.311-0.76,0.325-0.775c0.013-0.014,0.854,0.446,0.956,0.476c0.361,0.106,0.756,0.113,1.114-0.014l0.281-0.1
	c0.765,3.182,1.745,6.326,2.675,9.463c0.413,1.392,0.723,2.981,1.45,4.256c0.333,0.583,0.781,0.67,1.411,0.667
	c1.096-0.004,1.882-0.627,2.327-1.844c0.672-1.833,1.413-3.642,2.058-5.484c0.581-1.663,1.8-3.582,0.657-5.243
	c-0.995-1.449-1.785-3.08-2.532-4.671c0.757-0.884,1.218-2.052,1.736-3.083C74.02,53.073,74.844,51.82,75.171,50.569
	C75.462,49.451,75.029,51.109,75.171,50.569z M69.486,68.702c-0.791-2.676-1.54-5.365-2.271-8.059
	c-0.588-2.167-1.046-4.392-1.716-6.535c0.317-0.33,0.517-0.766,0.76-1.149c1.358,3.675,2.968,7.333,5.067,10.648
	C70.992,65.333,70.104,67.052,69.486,68.702C68.471,65.265,69.583,68.441,69.486,68.702z M63.708,52.367
	c-0.001,0.003-0.003,0.004-0.003,0.007c-1.316,0.752-2.211,2.026-3.534,2.776c2.646-2.532,3.983-6.328,4.505-9.874
	c0.8,0.557,1.017,2.201,0.857,3.092c-0.129,0.341-0.32,0.641-0.419,1c-0.088,0.321-0.101,0.664-0.21,0.979
	C64.652,51.073,64.083,51.701,63.708,52.367C63.707,52.37,63.825,52.16,63.708,52.367z M59.949,43.41
	c-0.062-1.031-0.212-2.257-1.132-2.899c-0.237-0.165-0.511-0.274-0.794-0.332c-0.31-0.063-0.471-0.672-0.673-0.962
	c-0.366-0.523-0.65-1.098-0.867-1.698c-0.564-1.571-0.712-3.277-0.792-4.933c-0.066-1.396-0.044-2.836-0.676-4.116
	c-0.833-1.686-2.814-2.628-4.445-1.418c-1.654-2.004-4.391-0.51-5.837,0.911c-3.244,3.112-5.239,7.974-5.83,12.373
	c-0.637-0.962-1.092-2.078-1.19-3.234c-0.044-0.519-0.126-1.089-0.479-1.497c-0.599-0.69-1.587-0.428-2.13,0.176
	c-0.763,0.848-1.363,1.818-2.163,2.645c-0.659,0.68-1.813,1.386-2.076,2.35c-1.122,0.03-2.152,1.087-3.165,1.508
	c-1.058,0.44-1.428,0.919-1.583,2.051c-0.229,1.653-0.281,3.446-0.172,5.157c-0.449-1.279-0.762-2.771-0.952-4.516
	c-0.113-1.042-0.221-2.026-1.759-2.278c-0.396-0.065-0.806-0.077-1.203-0.02c-0.539-0.445-1.323-0.551-1.935-0.878
	c-0.856-0.458-1.596-1.115-2.225-1.85c1.702-0.887,2.538-2.92,3.392-4.521c0.433-0.811,0.887-1.619,1.465-2.336
	c0.506-0.628,1.075-1.304,0.785-2.175c-0.229-0.686-0.827-0.929-1.473-1.1c-0.97-0.256-1.901-0.758-2.679-1.386
	c1.906-0.43,3.487-1.684,4.708-3.167c1.053-1.278,2.334-2.386,3.597-3.449c2.648-2.233,5.536-4.299,8.516-6.071
	c0.856-0.509,1.717-1.008,2.608-1.453c0.659-0.329,1.408-0.761,2.149-0.874c1.078-0.165,2.298-0.008,3.393,0.005
	c0.427,0.005,1.056,0.388,1.436,0.577c0.653,0.325,1.288,0.701,1.905,1.092c0.574,0.364,1.141,0.772,1.672,1.196
	c0.688,0.549,1.296,1.29,2.061,1.729c1.049,0.604,2.159-0.262,3.261-0.262c1.126,0,2.867,0.273,3.621,1.232
	c0.854,1.088,1.896,2.011,2.739,3.117c1.249,1.639,2.256,3.399,3.226,5.211c1.396,2.612,2.774,5.539,5.428,7.084
	c-0.733,0.336-1.477,0.273-2.235,0.065c-0.702-0.193-1.479-0.438-2.069,0.165c-0.39,0.399-0.379,0.877-0.375,1.034v0.029
	c0,1.307,2,3.341,2.494,3.775c0.754,0.66,1.43,1.099,2.172,1.382c-0.751,0.372-1.747,0.68-2.395,1.202
	c-0.775-0.031-1.627,0.229-2.417,0.252c-1.329,0.042-2.396,0.076-2.677,1.553c-0.271,1.422-0.416,2.818-0.869,4.206
	c-0.475,1.457-1.133,2.879-2.055,4.109C59.908,49.782,60.146,46.82,59.949,43.41C59.895,42.486,60.146,46.82,59.949,43.41z
	 M57.173,57.653c-0.5,1.143-1.213,2.009-2.079,2.904c-1.648,1.706-3.358,3.298-5.228,4.761c-2.033,1.591-4.259,2.398-6.615,2.398
	c-0.819,0-1.668-0.098-2.522-0.292c-2.514-0.567-6.103-3.323-10.107-7.76c-0.371-0.411-0.698-0.81-0.944-1.309
	c-0.403-0.817-0.658-1.7-1.467-2.21c0.401-0.026,0.765-0.221,1.008-0.543c0.633-0.839,0.136-2.025-0.107-2.915
	c-0.208-0.766-0.364-1.537-0.425-2.328c-0.074-0.984-0.063-1.974-0.061-2.959c0.003-0.864-0.064-1.806,0.12-2.655
	c0.776-0.351,1.504-0.771,2.231-1.21c1.689,0.669,3.326,1.501,4.951,2.308c0.903,0.449,1.806,0.905,2.69,1.393
	c0.909,0.501,2.271,1.263,3.066,0.133c0.51-0.725,0.199-1.59-0.13-2.506c-0.121-0.336-0.255-0.635-0.412-0.906
	c0.557-0.854,0.251-2.114,0.362-3.077c3.039-0.101,6.083,0.044,9.12,0.139c-3.468,1.133-4.758,1.933-5.239,3.049
	c-0.123,0.288-0.604,1.596-0.65,2.038c-0.028,0.268-0.095,0.894,0.351,1.39c0.706,0.784,1.698,0.382,2.479-0.015
	c1.329-0.676,2.636-1.39,3.974-2.049c1.847-0.909,3.736-1.896,5.699-2.535c0.325,2.514,0.176,5.194-0.357,7.669
	c-0.226,1.045-0.53,2.096-1.032,3.045c-0.446,0.845-1.3,1.737-0.763,2.754c0.495,0.935,1.595,0.835,2.433,0.5L57.173,57.653z
	 M35.517,40.866c0.236-0.01,0.425-0.017,0.569-0.02c0.05,0.08,0.098,0.161,0.143,0.245C36.002,41.019,35.765,40.944,35.517,40.866
	C35.753,40.856,35.765,40.944,35.517,40.866z M48.837,33.896c1.486,0,2.965,0.14,4.454,0.115c0.134,1.572,0.37,3.188,0.965,4.659
	c-4.117-0.255-8.294-0.37-12.419-0.292c0.417-1.555,1.039-3.15,1.826-4.651C45.1,33.874,48.794,33.896,48.837,33.896z
	 M45.285,31.329c0.531-0.752,1.166-1.452,1.917-1.99c0.285-0.206,0.914-0.685,1.309-0.566c0.032,0.056,0.097,0.187,0.193,0.476
	c0.246,0.725,0.719,1.416,1.566,1.416c0.508,0,0.938-0.274,1.259-0.65c0.187-0.218,0.414-0.772,0.71-0.838
	c0.063,0.013,0.434,0.272,0.634,1.184c0.037,0.174,0.063,0.69,0.068,1.166c-1.216,0.01-2.44-0.182-3.649-0.124
	C47.964,31.463,46.613,31.377,45.285,31.329C46.521,29.581,46.417,31.37,45.285,31.329z M21.507,46.434
	c0.17-0.633,0.554-1.015,0.839-1.118c0.464,3.394,1.268,7.197,3.81,9.695C22.902,52.931,20.779,49.134,21.507,46.434
	C21.677,45.801,20.779,49.134,21.507,46.434z M70.215,53.232c-0.754-1.152-1.442-2.679-2.572-3.526
	c0.641-1.17,0.445-2.799,0.089-4.031c1.209,1.578,2.548,3.101,4.06,4.396C71.287,51.135,70.751,52.185,70.215,53.232
	C69.928,52.793,70.353,52.962,70.215,53.232z"/>
</svg>
