<?xml version="1.0" encoding="utf-8"?>
<!-- Generator: Adobe Illustrator 16.0.0, SVG Export Plug-In . SVG Version: 6.00 Build 0)  -->
<!DOCTYPE svg PUBLIC "-//W3C//DTD SVG 1.1//EN" "http://www.w3.org/Graphics/SVG/1.1/DTD/svg11.dtd">
<svg version="1.1" id="Layer_1" xmlns="http://www.w3.org/2000/svg" xmlns:xlink="http://www.w3.org/1999/xlink" x="0px" y="0px"
	 width="90px" height="90px" viewBox="0 0 90 90" enable-background="new 0 0 90 90" xml:space="preserve">
<g>
	<path d="M71.041,46.073c-0.377-7.48-1.66-13.827-5.797-20.265c-3.488-5.426-8.557-9.923-14.807-11.814
		C36.188,9.682,23.88,19.582,18.618,32.235c-2.357,5.667-2.451,11.439-2.604,17.49c-0.11,4.352,2.096,9.102,3.657,13.133
		c0.368,0.95,0.966,1.558,2.086,1.679c1.033,0.112,1.792-0.909,2.243,0.07c0.688,1.497,1.298,3.055,2.084,4.504
		c1.141,2.102,3.539,3.73,5.265,5.322c0.746,0.688,1.675,1.842,2.794,1.843c0.831,0,1.609-0.054,2.184-0.733
		c0.962-1.139,0.638-2.262,2.198-1.601c2.989,1.266,5.127,1.753,8.232,0.746c1.272-0.412,2.719-1.766,3.425-0.27
		c0.719,1.524,2.188,2.426,3.799,1.574c2.333-1.232,4.461-3.911,6.3-5.761c1.388-1.396,1.982-3.609,2.808-5.376
		c0.524-1.123,0.415-0.509,1.566-0.329c1.333,0.209,2.467-0.501,2.915-1.715c1.157-3.137,2.081-6.376,3.123-9.553
		C71.466,50.896,71.165,48.525,71.041,46.073z M50.822,69.833c-0.911,0-2.618,1.392-3.5,1.755c-1.108,0.455-2.426,1.045-3.65,1.045
		c-2.796,0-6.175-1.992-8.385-3.558c-3.799-2.691-6.606-6.901-8.679-10.998c-0.79-1.561-2.459-4.186-2.367-5.996
		c0.062-1.219,2.769-0.336,2.392-2.093c-0.474-2.175-0.979-4.266,0.671-5.885c1.637-1.606,2.263-2.523,4.496-2.069
		c1.508,0.308,3.012,0.64,4.517,0.962c0.628,0.135,2.747,0.963,3.383,0.442c0.632-0.517,0.23-1.722,0.934-2.283
		c1.415-1.128,3.31-1.745,4.817-2.783c3.073-2.114,5.885-4.817,7.844-8.011c0.382-0.623,0.852-2.142,1.624-1.111
		c1.198,1.599,1.999,3.488,2.654,5.362c0.359,1.029,1.599,3.543,1.185,4.644c0.084-0.224-2.289-0.302-2.559-0.257
		c-1.56,0.259-3.115,0.56-4.673,0.833c-1.001,0.176-3.504,0.152-4.258,0.835c-0.432,0.39,0.221,2.081,0.381,2.521
		c0.239,0.661,1.467,0.242,1.969,0.146c2.825-0.54,5.768-1.651,8.668-1.651c2.18,0,1.687,5.286,1.687,6.749
		c0,1.071-0.129,1.739,0.934,2.212c1.342,0.598,2.47,0.729,1.923,2.339c-1.182,3.477-2.833,6.812-4.944,9.819
		c-0.975,1.391-2.052,2.712-3.244,3.923C53.912,67.467,51.931,69.833,50.822,69.833z M33.361,38.744
		c1.07-0.97,2.209-1.874,3.345-2.766c1.328-1.043,1.845-1.265,1.12,0.689c-0.381,1.027-0.6,3.315-2.028,3.13
		C35.295,39.732,32.452,39.568,33.361,38.744z M68.265,52.41c-0.24,0.737-2.723,9.598-3.516,9.277
		c-1.542-0.622-1.975-2.08-2.93-0.25c-0.932,1.785-1.688,3.684-2.526,5.516c-0.648,1.318-6.087,7.089-6.669,6.361
		c-0.596-0.744-1.121-1.274-0.309-1.786c1.149-0.723,2.206-1.637,3.189-2.568c2.107-1.997,3.902-4.316,5.424-6.783
		c1.476-2.394,2.701-4.943,3.666-7.585c1.091-2.986,0.477-4.512-2.423-5.796c0.009-2.087-0.1-4.215-0.455-6.274
		c-0.203-1.178-0.947-1.866-0.772-2.94c0.233-1.43-0.481-3.149-0.897-4.486c-1.247-3.997-4.641-12.316-8.665-5.826
		c-1.435,2.313-3.378,4.319-5.49,6.023c-2.065,1.665-4.805,2.534-6.757,4.248c0.425-1.415,1.326-2.869,1.337-4.374
		c0.017-2.268-2.446-2.818-4.034-1.737c-1.706,1.161-6.12,3.617-5.481,6.211c-2.581-0.393-4.867,2.298-6.36,4.115
		c-0.373,0.453-0.564,0.968-0.613,1.552c-0.057,0.684-0.002,1.383,0.057,2.063c0.152,1.731,0.47,1.673-0.845,2.561
		c-2.53,1.706-0.045,5.995,0.877,7.973c1.69,3.626,3.882,7.085,6.621,10.012c1.063,1.137,2.221,2.199,3.506,3.083
		c0.962,0.662,1.897,1.446,0.298,2.466c-0.668,0.418-4.41-3.75-4.943-4.264c-1.4-1.35-1.919-2.96-2.758-4.688
		c-0.978-2.001-1.143-5.014-3.605-3.26c-1.571,1.119-1.549-0.511-1.963-1.784c-0.857-2.633-2.372-5.642-2.729-8.396
		c-0.218-1.681,0.146-3.667,0.229-5.347c0.105-2.14,0.088-4.336,0.365-6.463c0.787-6.06,4.66-12.522,8.832-16.821
		c5.08-5.235,12.421-7.89,19.669-6.512c8.944,1.699,15.306,9.281,18.649,17.357c1.264,3.053,1.998,5.909,2.113,9.164
		C68.464,45.542,69.308,49.445,68.265,52.41z"/>
</g>
</svg>
