<?xml version="1.0" encoding="utf-8"?>
<!-- Generator: Adobe Illustrator 16.0.0, SVG Export Plug-In . SVG Version: 6.00 Build 0)  -->
<!DOCTYPE svg PUBLIC "-//W3C//DTD SVG 1.1//EN" "http://www.w3.org/Graphics/SVG/1.1/DTD/svg11.dtd">
<svg version="1.1" id="Layer_1" xmlns="http://www.w3.org/2000/svg" xmlns:xlink="http://www.w3.org/1999/xlink" x="0px" y="0px"
	 width="90px" height="90px" viewBox="0 0 90 90" enable-background="new 0 0 90 90" xml:space="preserve">
<g>
	<path d="M66.667,49.212C66.9,49.009,66.999,48.923,66.667,49.212c-1.95,1.697-0.57,0.496-0.002,0.001
		c-1.233,1.074-2.397,2.218-3.607,3.306c-0.442,0.397-2.503-3.366-3.082-3.979c-1.277-1.354-2.646-2.691-4.301-3.574
		c-1.614-0.86-4.092-2.302-5.842-2.149c1.294-0.363,2.497-2.624,2.514-5.445l0.008-1.386l-0.291-0.593
		c-1.308-2.663-3.365,0.604-3.81,1.961c-0.449,1.372-1.017,3.821,0.152,5.008c-0.42-0.384-2.363-0.239-2.896-0.081
		c2.476-1.135,2.168-9.95-0.904-9.038c-2.757,0.819-2.901,8.042-0.327,9.079c-1.071-0.223-2.272-0.117-3.254,0.297
		c3.332-1.902-1.18-10.433-3.156-7.57c-1.222,1.768-0.328,7.174,2.079,7.738c-0.225-0.043-0.637,0.014-0.971,0.116
		c-0.084,0.008-1.069,0.392-1.391,0.498c-1.025,0.338-2.036,0.834-2.969,1.37c-1.977,1.135-3.646,2.55-5.135,4.285
		c-1.093,1.271-1.61,4.335-3.452,2.647c-0.378-0.346-3.616-3.63-3.802-2.313c-0.139,0.982,0.334,2.015,0.497,2.974
		c0.25,1.472,0.277,2.983,0.552,4.448c0.289,1.54,0.794,3.795,1.883,4.985c0.754,0.824,1.42,0.168,2.235,0.578
		c0.945,0.473,1.267,1.883,1.88,2.695c1.458,1.929,3.371,3.635,5.525,4.755c6.577,3.42,16.098,3.498,22.156-1.172
		c1.632-1.258,3.151-2.61,4.225-4.4c0.809-1.349,1.004-1.72,2.483-1.976c1.156-0.2,1.862-1.6,2.193-2.585
		c0.753-2.24,0.911-4.484,1.274-6.795C67.242,52.195,68.478,47.637,66.667,49.212z"/>
	<path d="M50.932,29.606c-0.672-0.097-1.234-0.188-1.25-0.204c-0.235-0.22,1.708-2.508,2.664-3.135
		c0.791-0.519,0.832-0.515,1.137,0.105c3.626,7.367,14.631,6.801,17.394-0.896c2.521-7.021-3.146-13.916-10.496-12.773
		c-2.313,0.36-4.565,1.73-6.021,3.666l-0.435,0.579l-0.893,0.141c-5.708,0.902-10.557,5.576-11.995,11.562
		c-0.19,0.791-0.194,0.797-0.556,0.798c-2.049,0.005-7.421,1.295-10.564,2.536c-22.59,8.923-22.901,33.51-0.542,42.871
		c18.524,7.754,42.272-0.151,46.966-15.633C80.524,45.422,69.212,32.237,50.932,29.606z M55.209,18.978
		c0.173-0.125,0.335-0.363,0.674-0.855c1.793-2.604,4.369-3.699,7.57-3.217c2.692,0.406,5.44,3.233,5.755,5.921
		c0.336,2.874-0.369,4.917-2.302,6.669c-1.02,0.924-1.208,1.027-3.268,1.794c-0.561,0.209-2.818,0.227-3.281,0.026
		c-0.167-0.073-0.654-0.267-1.083-0.432c-1.829-0.705-3.37-2.269-4.019-4.08c-0.245-0.683-0.408-1.116-0.591-1.366
		C54.561,22.123,54.639,20.536,55.209,18.978z M63.477,70.887c-17.686,10.173-43.712,2.96-47.93-13.284
		c-3.244-12.494,9.124-24.786,26.165-26c1.093-0.078,1.086-0.07,1.325-1.431c0.981-5.611,5.2-9.96,10.414-10.887
		c-0.354,1.286-0.48,2.678-0.376,4.142c-0.005,0.001-0.008,0.002-0.013,0.004c-2.857,0.959-5.181,3.532-5.994,6.638
		c-0.333,1.271-0.231,1.498,0.674,1.499c3.713,0.007,10.072,1.693,14.155,3.754C78.622,43.761,79.42,61.715,63.477,70.887z"/>
</g>
</svg>
