<?xml version="1.0" encoding="utf-8"?>
<!-- Generator: Adobe Illustrator 16.0.0, SVG Export Plug-In . SVG Version: 6.00 Build 0)  -->
<!DOCTYPE svg PUBLIC "-//W3C//DTD SVG 1.1//EN" "http://www.w3.org/Graphics/SVG/1.1/DTD/svg11.dtd">
<svg version="1.1" id="Layer_1" xmlns="http://www.w3.org/2000/svg" xmlns:xlink="http://www.w3.org/1999/xlink" x="0px" y="0px"
	 width="90px" height="90px" viewBox="0 0 90 90" enable-background="new 0 0 90 90" xml:space="preserve">
<g id="svgg_6_">
	<path id="path0_2_" fill="#050404" d="M42.534,16.021c-13.036,1.284-23.811,10.604-26.098,23.664
		c-2.152,12.292,4.099,24.931,15.289,30.529c11.126,5.566,24.961,3.266,33.608-5.702c8.506-8.823,10.348-22.588,4.638-33.403
		C64.82,21.353,53.641,14.928,42.534,16.021 M47.759,18.496c11.827,1.384,21.37,10.923,22.965,22.696
		c1.558,11.498-5.012,23.094-15.712,27.597c-9.771,4.112-21.564,1.957-29.039-5.626c-8.412-8.533-10-21.928-3.771-32.153
		C27.54,22.246,37.556,17.303,47.759,18.496 M36.99,34.058c-1.849,0.94-0.886,5.967-0.879,7.509
		c0.004,1.213-0.901,9.141,2.568,6.896c1.674-1.083,0.75-5.416,0.756-7.145C39.44,39.987,40.502,32.277,36.99,34.058 M50.134,34.001
		c-2.161,0.994-1.068,6.937-1.072,8.691c-0.002,1.06-0.53,8.482,2.951,5.555c1.368-1.15,0.521-5.79,0.521-7.229
		C52.534,39.747,53.511,32.439,50.134,34.001"/>
</g>
</svg>
