<?xml version="1.0" encoding="utf-8"?>
<!-- Generator: Adobe Illustrator 16.0.0, SVG Export Plug-In . SVG Version: 6.00 Build 0)  -->
<!DOCTYPE svg PUBLIC "-//W3C//DTD SVG 1.1//EN" "http://www.w3.org/Graphics/SVG/1.1/DTD/svg11.dtd">
<svg version="1.1" id="Layer_1" xmlns="http://www.w3.org/2000/svg" xmlns:xlink="http://www.w3.org/1999/xlink" x="0px" y="0px"
	 width="89.984px" height="89.994px" viewBox="0 0 89.984 89.994" enable-background="new 0 0 89.984 89.994" xml:space="preserve">
<g>
	<path d="M41.488,16.608c2.278,0,4.523,1.483,4.523,3.71l-0.019,24.402h-5.162l-0.037-19.99c0,0-3.665,11.603-5.021,15.908
		c-0.594,1.882-1.626,3.829-3.647,3.829c-0.008,0-0.015,0-0.022,0v0.014c-0.007,0-0.014,0-0.022,0c-2.021,0-3.054-1.934-3.647-3.815
		c-1.356-4.305-5.021-15.88-5.021-15.88l-0.038,20.047h-5.162l-0.019-24.458c0-2.238,2.27-3.744,4.559-3.743
		c1.84,0,3.692,0.97,4.396,3.312c1.829,6.098,4.955,15.298,4.955,15.298s3.126-9.2,4.956-15.298
		C37.766,17.587,39.637,16.608,41.488,16.608 M41.488,14.581c-3.046,0-5.487,1.831-6.372,4.779
		c-0.864,2.882-2.031,6.495-3.014,9.478c-0.981-2.982-2.149-6.596-3.013-9.478c-0.881-2.934-3.309-4.756-6.337-4.756
		c-1.579,0-3.174,0.529-4.374,1.452c-1.428,1.097-2.213,2.63-2.213,4.318l0.02,24.46l0.001,2.026h2.025h5.162h2.024l0.003-2.023
		l0.013-6.999c0.427,1.349,0.806,2.55,1.085,3.437c0.436,1.382,0.975,2.455,1.65,3.285c1.037,1.274,2.397,1.948,3.931,1.948h0.037
		l2.013-0.014v-0.429c0.721-0.328,1.371-0.843,1.93-1.531c0.672-0.83,1.211-1.905,1.646-3.288c0.279-0.887,0.659-2.089,1.085-3.439
		l0.013,6.917l0.004,2.023h2.023h5.162h2.026l0.001-2.025l0.02-24.402c0-1.685-0.782-3.212-2.202-4.301
		C44.629,15.092,43.084,14.581,41.488,14.581L41.488,14.581z"/>
	<path d="M65.59,14.58c1.79,0,3.24,1.451,3.24,3.24c0,1.791-1.45,3.241-3.24,3.241s-3.241-1.45-3.241-3.241
		C62.349,16.031,63.8,14.58,65.59,14.58 M65.59,12.553c-2.904,0-5.268,2.363-5.268,5.268c0,2.905,2.363,5.269,5.268,5.269
		s5.269-2.363,5.269-5.269C70.858,14.916,68.494,12.553,65.59,12.553L65.59,12.553z"/>
	<path d="M54.327,14.58c1.79,0,3.241,1.451,3.241,3.24c0,1.791-1.451,3.241-3.241,3.241s-3.24-1.45-3.24-3.241
		C51.087,16.031,52.537,14.58,54.327,14.58 M54.327,12.553c-2.904,0-5.269,2.363-5.269,5.268c0,2.905,2.364,5.269,5.269,5.269
		c2.905,0,5.268-2.363,5.268-5.269C59.595,14.916,57.232,12.553,54.327,12.553L54.327,12.553z"/>
	<path d="M56.984,26v19h-5V26H56.984 M58.984,24H57.03h-5.293h-1.753v1.969v18.696V47h1.753h5.293h1.954v-2.335V25.969V24L58.984,24
		z"/>
	<path d="M67.984,26v19h-5V26H67.984 M69.984,24h-1.69H63h-2.016v1.969v18.696V47H63h5.294h1.69v-2.335V25.969V24L69.984,24z"/>
</g>
<path d="M55.227,51.116l-1.422,3.743l-0.987-2.181l-2.567,0.86c-3.158,1.057-10.884-4.209-17.7-8.854l-1.056-0.718l-1.25,0.262
	l-14.607,3.061l-4.605,0.966l2.819,3.768l8.983,12.007l0.762,1.016l1.258,0.162l1.19,0.152c7.664,0.98,16.352,2.092,17.755,4.818
	l1.305,2.534l2.316-1.046l-1.427,3.756c-2.558,6.383,1.69,5.055,4.222,3.709l4.478-2.399l1.192-0.639l0.311-1.316l0.682-2.888
	c1.952,0.584,3.611,1.271,4.956,2.352l1.397,1.123l1.65-0.699l4.54-1.922l2.854-1.209l-1.301-2.813l-2.055-4.443l-0.762-1.648
	l-1.813-0.09c-1.739-0.086-3.4-0.659-5.266-1.534l1.376-2.686l0.601-1.17l-0.455-1.235l-1.755-4.769
	C60.12,49.498,57.629,45.143,55.227,51.116z M25.236,62.231l-8.983-12.006l14.606-3.062c8.569,5.84,15.818,10.733,20.343,9.22
	l1.682,3.715l-0.984,2.59l-14.956-5.682l-2.615,0.077l1.904,1.793l14.957,5.682l-0.969,2.549l-3.754,1.697
	C44.255,64.51,35.521,63.555,25.236,62.231z M59.786,56.95l-2.754,5.37c3.046,1.604,5.928,3.055,9.165,3.214l2.055,4.445
	l-4.541,1.922c-2.526-2.029-5.703-2.881-9.045-3.704l-1.391,5.89l-4.479,2.399l2.132-5.608l1.875-4.937l1.243-3.272L55.9,57.79
	l2.13-5.608L59.786,56.95z"/>
</svg>
