<?xml version="1.0" encoding="utf-8"?>
<!-- Generator: Adobe Illustrator 16.0.0, SVG Export Plug-In . SVG Version: 6.00 Build 0)  -->
<!DOCTYPE svg PUBLIC "-//W3C//DTD SVG 1.1//EN" "http://www.w3.org/Graphics/SVG/1.1/DTD/svg11.dtd">
<svg version="1.1" id="Layer_1" xmlns="http://www.w3.org/2000/svg" xmlns:xlink="http://www.w3.org/1999/xlink" x="0px" y="0px"
	 width="90px" height="90px" viewBox="0 0 90 90" enable-background="new 0 0 90 90" xml:space="preserve">
<path d="M69.089,45.085c-0.01-0.006,0.105-0.645,0.257-1.42c0.809-4.15,0.815-5.956,0.034-9.501
	c-2.73-12.405-14.536-20.863-27.193-19.481c-8.318,0.908-14.718,5.064-19.334,12.558c-0.094,0.151-0.609,0.522-1.426,1.025
	c-5.601,3.449-11.544,8.151-12.978,10.266c-1.381,2.037-1.146,4.198,0.524,4.84c0.926,0.355,4.186,0.292,8.933-0.173
	c1.32-0.129,2.458-0.235,2.529-0.235c0.113,0,0.711,2.606,0.614,2.677c-0.013,0.01-0.229,0.152-0.48,0.316
	c-4.997,3.267-2.346,12.985,3.967,14.542c0.657,0.163,0.716,0.193,0.793,0.42c0.189,0.556,1.167,2.371,1.721,3.198
	c3.092,4.612,7.774,7.598,13.422,8.558c11.293,1.919,21.123-2.938,24.755-12.23l0.219-0.559l0.751-0.283
	C72.234,57.323,74.094,47.994,69.089,45.085z M45.667,37.001l-8.021-0.102c-0.237-0.492-0.742-1.138-1.75-2.059
	c-1.102-1.007-2.602-2.15-4.224-3.22c-0.23-0.152-0.563-0.38-0.728-0.498c-0.225-0.161-0.601-0.387-0.873-0.526
	c-0.175-0.088-0.387-0.228-0.438-0.271c-0.251-0.211-0.682-0.447-0.976-0.577c-0.211-0.093-0.574-0.284-0.776-0.409
	c-0.33-0.204-0.85-0.432-1.235-0.542c-0.108-0.031-0.311-0.089-0.5-0.15c0.23-0.376,0.603-0.902,0.858-1.262
	c0.331-0.467,0.744-1.052,0.918-1.3c1.324-1.886,6.24-5.643,8.092-6.184c0.265-0.077,0.877-0.349,0.946-0.379
	c0.279-0.125,0.847-0.32,1.214-0.417c0.425-0.113,0.999-0.291,1.268-0.41c0.249-0.098,1.583-0.354,3.017-0.479
	c0.919-0.08,1.17-0.123,1.308-0.168c0.054-0.006,0.185-0.017,0.445-0.017c1.862,0,5.631,0.445,6.238,0.688
	c0.306,0.123,0.948,0.315,1.397,0.434c0.442,0.117,0.85,0.27,0.936,0.313c0.254,0.146,0.621,0.309,0.867,0.387
	c0.336,0.117,2.105,1.025,2.391,1.227c0.188,0.14,0.473,0.317,0.678,0.421c0.425,0.215,1.593,1.088,3.243,2.553
	c0.864,0.767,2.46,2.665,3.104,3.693c0.22,0.352,0.513,0.819,0.65,1.04c0.356,0.57,1.194,2.284,1.401,2.866
	c0.112,0.313,0.291,0.766,0.409,1.005c0.047,0.115,0.199,0.596,0.347,1.186c0.145,0.578,0.34,1.3,0.429,1.546
	c0.034,0.116,0.126,0.627,0.187,1.237l0.048,0.469c0.044,0.427,0.088,0.863,0.109,1.19c-0.176-0.029-0.38-0.066-0.599-0.107
	l-0.362-0.066l-0.001,0.008c-0.64-0.149-2.155-0.3-6.279-0.563C56.804,37.392,51.562,37.099,45.667,37.001z M24.673,38.979
	c-0.714,0.093-1.752,0.205-2.32,0.25c-0.615,0.048-1.538,0.159-2.058,0.247c-2.035,0.345-6.128,0.613-8.337,0.617
	c0.869-0.948,2.722-2.619,6.188-5.156c0.858-0.628,1.178-0.848,3.102-2.13l0.054-0.036c1.766-1.177,1.766-1.177,2.821-1.807
	l0.026-0.016c0.512-0.305,0.646-0.328,0.674-0.328c0.005,0,0.051,0.001,0.198,0.06c0.191,0.076,0.619,0.231,0.973,0.354
	c0.276,0.096,0.647,0.267,0.783,0.352c0.255,0.159,0.687,0.389,0.982,0.525c0.199,0.091,0.457,0.246,0.533,0.306
	c0.218,0.172,0.568,0.395,0.834,0.529c0.236,0.12,1.311,0.812,2.09,1.375c0.196,0.141,0.633,0.455,0.97,0.698
	c1.226,0.88,2.292,1.855,2.895,2.496c-0.229,0.046-0.469,0.099-0.67,0.145c-0.438,0.101-1.498,0.291-2.317,0.414
	c-0.754,0.114-1.696,0.267-1.992,0.331c-0.228,0.041-1.954,0.284-3.218,0.462C25.89,38.804,24.979,38.933,24.673,38.979z
	 M64.746,57.688c-0.941,0.163-0.899,0.117-1.514,1.688c-2.949,7.542-9.659,11.654-18.605,11.403
	c-8.23-0.231-14.465-4.27-17.159-11.115c-0.488-1.241-0.508-1.259-1.307-1.26c-3.894-0.003-7.245-6.2-5.095-9.419
	c0.497-0.746,1.396-1.367,2.24-1.548c0.67-0.144,0.749-0.054,1.159,1.328c0.767,2.584,1.476,3.683,1.485,2.303
	c0.004-0.69,0.102-2.654,0.23-4.646c0.066-1.016,0.327-3.512,0.574-5.516c0.143-0.02,0.288-0.041,0.436-0.062
	c2.638-0.372,3.237-0.459,3.375-0.49c0.144-0.032,0.92-0.164,1.856-0.306c0.895-0.135,1.984-0.331,2.482-0.445
	c0.472-0.108,0.982-0.208,1.146-0.23c0.251-0.033,0.641-0.085,0.989-0.278l1.82,0.022c-0.032,1.351,0.343,3.893,0.804,4.804
	c0.524,1.035,1.571,0.946,2.479-0.209c0.541-0.689,0.629-0.658,0.957,0.343c0.878,2.685,3.092,2.481,4.407-0.405
	c0.346-0.76,0.449-0.765,0.932-0.045c0.818,1.222,2.024,1.202,2.68-0.047c0.508-0.968,0.982-2.908,1.107-4.167
	c5.023,0.201,9.229,0.494,11.409,0.688c0.025,0.265,0.064,0.587,0.109,0.979c0.462,4.027,0.68,6.797,0.681,8.682
	c0.001,1.693,0.206,1.762,0.831,0.276c0.197-0.468,0.506-1.334,0.687-1.926c0.386-1.263,0.401-1.285,0.843-1.285
	c1.134,0,2.5,1.327,2.882,2.8C70.448,52.606,67.662,57.183,64.746,57.688z"/>
</svg>
