<?xml version="1.0" encoding="utf-8"?>
<!-- Generator: Adobe Illustrator 16.0.0, SVG Export Plug-In . SVG Version: 6.00 Build 0)  -->
<!DOCTYPE svg PUBLIC "-//W3C//DTD SVG 1.1//EN" "http://www.w3.org/Graphics/SVG/1.1/DTD/svg11.dtd">
<svg version="1.1" id="Layer_1" xmlns="http://www.w3.org/2000/svg" xmlns:xlink="http://www.w3.org/1999/xlink" x="0px" y="0px"
	 width="90px" height="90px" viewBox="0 0 90 90" enable-background="new 0 0 90 90" xml:space="preserve">
<path d="M60.583,44.895c-0.896-0.385-2.902-0.68-3.458-1.478c-0.464-0.667-0.729-1.667-1.604-2.832
	c-0.569-0.759-1.348-1.367-1.354-2.138c0.913-1.587,1.545-3.324,1.734-5.151c0.017-0.161,0.034-0.323,0.05-0.484
	c1.366,0.192,2.743,0.289,4.11,0.079c3.027-0.464,3.096-1.217,4.75-1.625c1.112-0.274,2.488-0.01,3.719-0.422
	c1.339-0.448,3.321-1.307,4.454-2.104c2.521-1.773,2.565-4.924-0.302-6.037c-2.875-1.116-5.644-3.064-7.958-5.078
	c-1.188-1.033-2.235-2.391-3.885-2.671c-2.077-0.352-3.22,1.479-4.523,2.723c-0.32,0.305-3.59,3.082-3.766,2.755
	c-0.737-1.378-0.78-2.777-1.913-4.021c-2.071-2.274-5.443-2.825-8.336-2.106c-1.62,0.402-2.86,1.423-3.844,2.779
	c-0.383,0.528-0.919,2.863-1.083,3.083c-0.688,0.921-5.215-3.647-5.98-4.32c-1.999-1.755-4.165-0.636-5.759,0.964
	c-1.792,1.797-3.965,3.277-6.154,4.546c-1.471,0.853-4.748,1.606-5.075,3.519c-0.448,2.617,1.921,4.341,4.343,4.817
	c1.063,0.21,1.847,1.008,2.951,1.233c0.922,0.189,2.242-0.022,3.065,0.184c1.017,0.254,1.826,0.907,2.859,1.249
	c1.399,0.461,3.059,0.856,4.532,0.782c1.902-0.097,1.497-0.703,1.873,1.193c0.272,1.371,0.708,2.813,1.506,3.978
	c0.349,0.507-2.399,4.229-2.806,5.078c-0.306,0.641-2.083,0.849-2.673,1.076c-1.394,0.536-2.744,1.191-4.038,1.936
	c-4.727,2.72-8.411,6.813-9.869,12.148c-1.031,3.772-0.928,9.683,3.835,10.789c5.542,1.286,6.413-5.636,7.547-9.401
	c-1.031,5,1.936,9.367,6.54,10.28c1.83,0.362,2.062,1.066,3.648,2.168c1.959,1.36,4.347,2.034,6.719,2.085
	c2.17,0.047,4.364-0.423,6.296-1.42c1.771-0.913,2.707-2.468,4.629-2.788c4.688-0.78,7.446-5.223,6.76-9.731
	c0.893,3.927,2.525,10.188,7.779,8.734c4.67-1.293,4.545-7.45,3.451-11.147C71.492,51.821,66.477,47.42,60.583,44.895z
	 M52.51,23.667c2.302-1.089,4.048-2.631,5.872-4.386c2.34-2.255,2.309-1.679,4.735,0.399c1.887,1.615,3.668,2.917,5.779,4.195
	c1,0.606,2.21,0.992,3.188,1.583c0.09,0.859-0.927,1.418-1.568,1.641c-0.618,0.214-1.354,0.021-1.83,0.471
	c-0.657,0.62-1.294,0.88-2.202,0.928c-1.861,0-2.103-0.286-3.767,0.672c-0.976,0.563-2.113,1.037-3.236,1.157
	c-1.345,0.145-3.043,0.22-4.203-0.53c-0.513-0.332-0.51-1.16-1.277-2.296c-1.688-1.875-1.545-1.747-1.625-2.688
	C52.343,24.434,51.82,23.994,52.51,23.667z M39.639,20.354c0.76-2.944,4.106-4.35,6.906-3.382c3.239,1.117,3.309,3.356,3.531,6.325
	c-0.107,0.344-1.718,1.023-2.48,0.387c-1.168-0.976-2.547-2.853-4.175-1.381c-0.517,0.461-1.363,1.671-2.437,1.666
	c-0.859-0.004-1.766-0.231-1.734-0.953C39.292,22.049,39.395,21.296,39.639,20.354z M48.958,28.333
	c-0.509,1.4-3.33,0.415-4.189,0.415c-0.569,0-3.675,1.127-3.847-0.17c-0.106-0.801-0.125-1.156-0.578-1.75
	c-0.355-0.466-0.64-0.858-0.828-1.347c-0.282-0.704,0.583-0.294,1.406-0.356c1.302-0.071,2.141-1.014,3.106-1.73
	c0.89-0.66,1.464,0.091,2.146,0.722c1.527,1.416,2.279,1.04,4.092,0.649c0.172,0.234-0.157,0.764-0.656,1.406
	C48.963,27.004,49.333,27.302,48.958,28.333z M38.844,27.625c0.787,0.754,0.491,1.231,0.808,2.179
	c0.437,1.305,1.829,1.266,2.848,0.915c1.198-0.415,2.546-0.506,3.78-0.196c0.958,0.24,2.038,0.588,3.012-0.043
	c2.25-1.459,0.521-4.209,2.577-2.41c1.113,0.974,1.563,3.296,1.12,5.539c-0.249,1.259-0.729,2.369-1.393,3.48
	c-0.283,0.474-1.075-0.126-2.554-0.422c-2.959-0.592-7.247-0.889-10,0.5c-1.961,0.989-2.408-4.216-2.411-5.541
	C36.629,31.079,38.094,26.906,38.844,27.625z M34.521,29.875c-2.57,1.316-5.647,0.446-8.042-1.021
	c-1.885-1.155-3.992,0.402-5.638-1.294c-0.281-0.29-5.439-1.624-3.171-2.388c1.852-0.63,3.478-1.861,5.153-2.843
	c2.553-1.496,4.06-3.188,5.969-4.579c0.908-0.661,2.875,2.531,3.813,3.23c0.974,0.729,2.913,1.892,3.986,2.464
	c0.533,0.285,0.457,0.243,0.895,0.571c-0.131,0.252-0.206,1.069-0.062,1.558c-0.425,0.736-1.16,1.159-1.641,2.021
	C35.321,28.418,35.656,29.334,34.521,29.875z M39.972,38.606c1.707-0.86,3.816-0.987,5.689-0.877
	c1.152,0.068,2.313,0.253,3.409,0.626c0.669,0.228,1.577,0.665,2.327,1.207c1.042,0.875,2.193,1.72,2.911,2.967
	c1.133,1.969,1.708,4.227,1.982,6.467c0.224,1.831,0.229,3.813,0.048,5.647c-1.528-1.396-5.794-3.146-7.873-2.67
	c2.489-5.083-9.464-5.349-7.218-0.032c-2.254-0.448-6.069,1.338-7.825,2.686C32.491,48.514,34.335,41.481,39.972,38.606z
	 M28.126,58.067c0.577-1.605,1.758-3.681,3.056-4.793C32.001,55.369,29.688,56.406,28.126,58.067z M48.742,68.71
	c-1.637,3.402-7.437,3.102-8.04-0.916c0.646-0.464,4.175-2.973,4.425-2.733C46.246,66.136,49.484,67.162,48.742,68.71z
	 M56.108,67.012c-1.037,0.404-2.51,0.03-3.436,0.469c-1.192,0.564-1.057,1.267-2.374,1.95c1.451-2.837-2.146-4.124-4.817-5.931
	c-1.177-0.796-3.201,1.713-4.138,2.289c-2.091,1.286-2.985,1.992-1.677,4.207c-1.558-0.871-1.508-2.012-2.81-2.442
	c-1.292-0.427-2.573-0.12-3.826-0.838c-2.451-1.405-3.329-5.001-2.074-7.483c1.147-2.269,3.854-4.097,6.183-4.953
	c0.537-0.197,3.658-0.652,3.812-0.96c1.434,0.646,2.086,1.692,3.88,1.692c1.8,0,2.484-1.056,3.949-1.665
	c1.162-0.233,3.067,0.687,4.123,1.094c2.324,0.896,5.377,2.869,6.146,5.374C59.876,62.503,58.867,65.935,56.108,67.012z
	 M58.436,54.246c0.002-0.418-0.122-0.543,0.088-0.801c0.537-0.532,2.516,3.771,2.67,3.862
	C60.859,57.107,58.435,54.393,58.436,54.246z"/>
</svg>
