<?xml version="1.0" encoding="utf-8"?>
<!-- Generator: Adobe Illustrator 16.0.0, SVG Export Plug-In . SVG Version: 6.00 Build 0)  -->
<!DOCTYPE svg PUBLIC "-//W3C//DTD SVG 1.1//EN" "http://www.w3.org/Graphics/SVG/1.1/DTD/svg11.dtd">
<svg version="1.1" id="Layer_1" xmlns="http://www.w3.org/2000/svg" xmlns:xlink="http://www.w3.org/1999/xlink" x="0px" y="0px"
	 width="90px" height="90px" viewBox="0 0 90 90" enable-background="new 0 0 90 90" xml:space="preserve">
<path d="M76.639,43.577c-0.568-0.632-1.771-0.887-2.721-0.578c-0.183,0.06-0.185,0.056-0.134-0.318
	c0.618-4.547-0.651-10.528-3.019-14.229c-0.184-0.289-0.254-0.467-0.208-0.532c0.038-0.054,0.251-0.358,0.474-0.675
	c1.714-2.44,1.6-5.917-0.217-6.589c-1.311-0.484-2.385-0.019-3.29,1.425c-0.01,0.015-0.154,0.004-0.321-0.024l-0.304-0.051
	l-0.04-0.495c-0.069-0.857-0.171-0.997-2.369-3.235c-1.795-1.828-2.514-2.381-4.172-3.212c-3.213-1.609-7.293-1.861-10.03-0.62
	l-0.511,0.231l-0.819-0.437c-2.112-1.125-2.207-1.251-2.902-3.847c-0.464-1.735-0.655-2.131-1.199-2.499
	c-0.594-0.401-1.568-0.513-2.29-0.264c-0.557,0.192-0.993,0.565-1.217,1.041c-0.263,0.557-1.184,3.58-1.342,4.401l-0.129,0.675
	L38.909,13.7c-6.4-0.314-12.974,2.586-16.049,7.081c-1.011,1.478-2.368,4.799-2.543,6.224c-0.041,0.329-0.183,0.714-0.5,1.349
	c-0.821,1.646-1.322,3.256-1.619,5.204c-0.176,1.158-0.292,1.348-1.3,2.149c-1.126,0.895-1.42,0.977-3.881,1.08
	c-2.097,0.088-2.515,0.164-3.027,0.555c-0.809,0.617-1.073,2.038-0.563,3.035c0.572,1.121,3.354,2.982,5.524,3.696l0.888,0.292
	l0.008,1.249c0.022,3.087,0.834,6.072,2.256,8.289c0.279,0.435,0.433,0.776,0.52,1.154c0.708,3.102,3.077,6.488,5.653,8.081
	c0.579,0.358,0.087,1.415-1.595,3.43c-1.462,1.752-1.717,2.27-1.579,3.208c0.288,1.949,1.79,2.474,4.348,1.52
	c0.654-0.244,1.196-0.433,1.204-0.421c0.008,0.013,0.199,0.37,0.423,0.795c0.635,1.203,1.257,2.099,2.762,3.98
	c1.892,2.364,1.989,2.437,3.193,2.43c1.483-0.009,2.353-0.901,2.346-2.408c-0.002-0.38,0.024-0.542,0.082-0.508
	c0.046,0.027,0.328,0.211,0.625,0.408c5.576,3.698,11.714,3.667,17.063-0.086c0.417-0.292,0.77-0.532,0.783-0.532
	s0.04,0.339,0.059,0.753c0.084,1.873,1.739,2.951,3.384,2.203c1.111-0.505,4.481-5.054,5.421-7.318
	c0.353-0.85,0.221-0.836,1.92-0.196c2.372,0.894,3.784,0.592,4.285-0.917c0.387-1.166,0.136-1.877-1.243-3.528
	c-1.3-1.556-1.634-2.034-1.851-2.649c-0.264-0.75-0.271-0.735,0.583-1.54c2.141-2.019,3.611-4.643,4.063-7.253l0.135-0.778
	l0.395-0.139c2.513-0.887,4.557-2.865,5.356-5.183C77.384,45.664,77.434,44.462,76.639,43.577z M74.495,46.724
	c-0.769,2.683-2.4,4.226-5.221,4.939c-0.88,0.222-0.934,0.278-0.875,0.913c0.18,1.927-1.023,4.854-2.757,6.711
	c-1.27,1.359-1.5,1.166-0.534-0.448c1.413-2.36,2.166-4.54,2.38-6.89c0.104-1.133,0.11-1.14,1.051-1.211
	c1.884-0.141,3.772-1.298,4.526-2.773c0.372-0.729,0.29-0.808-0.623-0.588c-0.899,0.215-1.796,0.175-2.415-0.109
	c-0.72-0.331-0.737-0.47-0.219-1.797c2.067-5.298,0.541-13.254-3.324-17.31c-0.76-0.798-0.82-0.91-0.597-1.117
	c0.093-0.087,0.212-0.158,0.262-0.158c0.185,0,1.317-0.617,1.64-0.894c0.539-0.461,0.455-0.586-0.47-0.702
	c-0.823-0.103-1.912-0.391-2.557-0.676c-0.428-0.189-0.552-0.318-1.36-1.411c-1.378-1.863-3.652-3.248-6.197-3.773
	c-1.145-0.237-1.136-0.374,0.028-0.415c0.833-0.029,1.625,0.063,2.715,0.312c1.232,0.283,0.934-0.25-0.632-1.127
	c-3.353-1.881-7.374-1.776-8.976,0.233c-0.343,0.43-0.531,0.438-0.855,0.034c-0.302-0.376-0.761-0.683-2.089-1.399
	c-1.847-0.996-2.855-1.821-3.396-2.778c-0.313-0.554-0.525-0.851-0.607-0.851c-0.312,0-0.425,2.01-0.17,3.016
	c0.301,1.19,0.253,1.249-0.791,0.966c-6.084-1.647-14.088,0.958-17.064,5.554c-0.539,0.833-0.412,0.854,0.688,0.118
	c1.716-1.147,4.455-2.205,5.847-2.258c0.849-0.032,0.718,0.104-0.997,1.039c-5.732,3.125-9.228,7.868-9.587,13.009
	c-0.067,0.968-0.101,1.043-0.806,1.862c-1.544,1.792-3.037,2.717-4.98,3.088c-0.343,0.065-0.702,0.135-0.797,0.155
	c-1.025,0.214,1.692,1.276,3.825,1.495c0.972,0.1,0.985,0.133,0.682,1.746c-0.63,3.355,0.235,7.091,2.202,9.505
	c0.514,0.63,0.683,0.949,0.916,1.726c0.49,1.634,1.646,3.784,2.855,5.306c1.16,1.462,1.664,2.015,2.094,2.302
	c0.783,0.523,0.642,2.228-0.346,4.174c-0.595,1.17-0.532,1.226,0.72,0.633c0.971-0.46,0.966-0.463,1.353,0.898
	c0.327,1.152,0.938,2.461,1.628,3.493c1.084,1.619,1.13,1.595,1.13-0.606c0-1.889,0.036-1.751-0.691-2.625
	c-1.113-1.336-1.502-2.017-2.045-3.582c-0.378-1.089-0.364-1.201,0.146-1.207c0.34-0.004,0.327-0.145-0.116-1.204
	c-0.25-0.597-0.466-1.154-0.657-1.688l2.676,1.6c0.597,0.312,1.198,0.571,1.794,0.773c0.361,0.123,0.723,0.232,1.183,0.232
	c0.429,0,0.829-0.097,1.349-0.234c0.668-0.176,1.255-0.265,1.745-0.265c0.799,0,1.167,0.231,1.373,0.404
	c0.288,0.242,0.987,0.763,1.498,1.132c0.176,0.126,0.551,0.391,1.003,0.71c0.894,0.631,2.236,1.578,2.673,1.909
	c0.282,0.229,0.633,0.353,1.005,0.353c0.792,0,1.322-0.498,2.377-1.49c0.103-0.098,0.207-0.195,0.308-0.289
	c0.09-0.083,0.255-0.206,0.313-0.242c0.264-0.15,0.729-0.48,1.05-0.725c0.303-0.231,0.764-0.568,1.006-0.738
	c0.274-0.191,0.655-0.483,0.869-0.683c0.176-0.118,0.866-0.332,1.797-0.332c0.675,0,1.082,0.116,1.215,0.184
	c0.409,0.208,0.815,0.31,1.245,0.31c0.429,0,0.855-0.096,1.422-0.319c0.296-0.116,0.651-0.245,0.771-0.283
	c0.396-0.125,1.176-0.564,2.329-1.224c1.184-0.664,1.892-1.106,2.337-1.608c-0.278,1.233-0.651,2.229-1.23,3.341
	c-0.392,0.75-0.402,0.786-0.28,0.96c0.332,0.474-0.469,2.034-1.961,3.817c-0.76,0.908-0.721,0.751-0.702,2.78
	c0.022,2.359,0.059,2.39,1.077,0.903c1.084-1.583,2.099-4.298,2.099-5.614c0-0.541,0.287-0.633,0.823-0.265
	c0.418,0.288,1.732,0.919,1.913,0.919c0.248,0,0.208-0.217-0.174-0.936c-0.725-1.368-1.027-2.755-0.712-3.265
	c0.292-0.471,0.589-0.466,0.663,0.012c0.342,2.209,0.64,2.865,2.098,4.617c1.619,1.945,1.5,1.971-2.193,0.483
	c-1.711-0.689-1.623-0.708-1.918,0.403c-0.633,2.385-1.56,4.002-3.929,6.858c-0.976,1.175-1.043,1.085-0.826-1.105
	c0.244-2.448,0.214-3.666-0.089-3.666c-0.035,0-0.416,0.322-0.847,0.714c-3.682,3.359-5.857,4.719-8.379,5.237
	c-4.703,0.967-8.571-0.448-13.388-4.9c-0.858-0.793-0.963-0.86-1.097-0.7c-0.125,0.151-0.055,2.215,0.122,3.566
	c0.29,2.214,0.098,2.145-2.134-0.768c-1.165-1.519-1.858-2.759-2.349-4.194c-0.34-0.999-0.242-0.987-2.166-0.253
	c-2.797,1.066-2.894,1.024-1.503-0.65c1.68-2.023,2.141-3.064,2.184-4.93c0.022-0.931-0.015-1.018-0.519-1.227
	c-2.291-0.95-4.921-4.38-5.543-7.229c-0.178-0.817-0.297-1.106-0.824-1.997c-1.481-2.508-2.126-5.698-1.754-8.677
	c0.063-0.508,0.115-0.961,0.116-1.006c0.001-0.227-0.224-0.35-0.842-0.458c-1.986-0.348-3.59-1.058-5.006-2.215
	c-1.036-0.847-0.941-0.935,1.078-1.002c2.793-0.092,4.077-0.648,5.888-2.552c0.783-0.823,0.857-0.966,0.929-1.806
	c0.187-2.186,1.074-4.81,2.231-6.598c0.675-1.044,0.769-1.298,0.494-1.337c-0.531-0.075,0.409-2.807,1.552-4.511
	c3.05-4.545,10.058-7.162,16.273-6.076c1.258,0.22,1.204,0.266,1.204-1.035c0-1.336,0.275-2.606,0.975-4.5
	c0.174-0.471,0.404-0.431,0.584,0.101c0.071,0.212,0.257,0.838,0.412,1.391c0.598,2.13,1.221,2.815,3.821,4.208
	c0.657,0.351,1.304,0.723,1.437,0.824c0.332,0.253,0.549,0.232,1-0.095c2.034-1.475,5.565-1.505,8.583-0.073
	c1.484,0.705,2.083,1.153,3.646,2.729c1.525,1.538,1.69,1.798,1.144,1.798c-0.371,0-0.389,0.086-0.101,0.485
	c0.138,0.191,0.454,0.63,0.703,0.977c0.484,0.674,0.655,0.795,1.518,1.076c1.694,0.552,2.521,0.484,3.327-0.27
	c0.551-0.515,0.701-0.381,0.542,0.484c-0.19,1.031-0.897,2.062-1.911,2.785c-0.614,0.438-0.619,0.534-0.061,1.23
	c1.47,1.832,2.527,4.043,3.206,6.704c0.894,3.502,0.773,8.185-0.277,10.697c-0.511,1.224,0.934,1.294,2.948,0.144
	C74.83,45.19,74.91,45.272,74.495,46.724z M62.913,55.875c-0.214,0.298-0.362,0.509-0.469,0.686
	c-0.125,0.153-0.141,0.141-0.367,0.412c-0.56,0.697-2.394,2.268-3.545,2.929c-1.073,0.616-1.618,0.899-1.894,0.986
	c-0.169,0.053-0.562,0.197-0.871,0.319c-0.361,0.143-0.626,0.212-0.857,0.212c-0.191,0-0.36-0.048-0.543-0.141
	c-0.472-0.241-1.181-0.353-1.917-0.353c-1.14,0-2.347,0.268-2.844,0.74c-0.128,0.122-0.447,0.37-0.707,0.552
	c-0.261,0.182-0.737,0.531-1.059,0.776c-0.321,0.245-0.717,0.52-0.877,0.611c-0.161,0.091-0.432,0.296-0.602,0.454
	c-0.652,0.606-1.418,1.365-1.632,1.365c-0.017,0-0.03-0.004-0.04-0.014c-0.626-0.479-3.186-2.268-3.738-2.666
	c-0.553-0.398-1.186-0.875-1.407-1.061c-0.61-0.512-1.39-0.767-2.368-0.767c-0.628,0-1.339,0.106-2.137,0.315
	c-0.467,0.124-0.728,0.183-0.956,0.183c-0.21,0-0.394-0.051-0.687-0.15c-1.47-0.498-2.969-1.389-4.369-2.596
	c-0.196-0.169-1.007-0.978-1.744-1.702c-0.119-0.18-0.274-0.378-0.501-0.663c-1.9-2.374-3.62-5.671-4.735-9.077
	c-0.479-1.465-0.456-1.48,1.632-1.022c1.645,0.36,8.453,1.944,8.513,1.979c0.028,0.018,0.232-0.011,0.453-0.062
	c0.598-0.138,0.645-0.048,0.588,1.136c-0.075,1.579-0.109,1.61-1.5,1.362c-1.88-0.334-3.652-0.464-3.805-0.279
	c-0.264,0.318,1.728,3.709,2.943,5.011c1.804,1.931,3.089,2.309,6.486,1.902c2.805-0.336,4.068,0.084,4.629,1.541
	c0.823,2.133,0.978,2.241,1.393,0.959c0.789-2.438,1.702-3.615,5.497-7.099c2.844-2.612,3.673-3.497,4.591-4.904
	c0.827-1.269,1.163-1.159,0.745,0.243c-0.081,0.27-0.235,0.808-0.344,1.195c-0.209,0.747-0.794,2.14-1.078,2.564
	c-0.106,0.158-0.533,0.479-1.134,0.85c-1.536,0.95-1.968,1.429-2.845,3.158c-0.924,1.821-0.921,1.855,0.102,1.419
	c0.628-0.268,0.871-0.28,2.354-0.119c3.458,0.377,4.095,0.325,5.404-0.443c1.402-0.822,4.488-5.015,4.488-6.097
	c0-0.298-2.487-0.044-5.042,0.514c-1.782,0.39-1.885,0.3-0.917-0.799c0.98-1.113,1.747-2.323,1.971-3.114
	c0.215-0.763,0.47-0.757,0.863,0.019c0.304,0.599,0.083,0.615,3.942-0.273c4.283-0.986,5.263-1.18,5.427-1.078
	c0.693,0.434-1.919,6.504-4.114,9.56C63.146,55.552,63.021,55.725,62.913,55.875C62.913,55.875,62.913,55.875,62.913,55.875
	L62.913,55.875z M36.367,50.78c0.312-0.279,0.879-0.827,1.262-1.216c0.967-0.985,1.14-1.064,1.183-0.545
	c0.014,0.168-0.056,0.524-0.167,0.844c-0.105,0.305-0.249,0.954-0.32,1.443c-0.15,1.038-0.216,1.236-0.413,1.236
	c-0.118,0-1.492-0.595-1.945-0.842C35.681,51.544,35.787,51.3,36.367,50.78z M40.998,53.171c0.964-0.938,1.202-0.84,0.772,0.318
	c-0.31,0.835-0.381,1.175-0.442,2.118c-0.081,1.243-0.164,1.242-0.838-0.014C39.865,54.429,39.906,54.233,40.998,53.171z"/>
</svg>
