<?xml version="1.0" encoding="utf-8"?>
<!-- Generator: Adobe Illustrator 16.0.0, SVG Export Plug-In . SVG Version: 6.00 Build 0)  -->
<!DOCTYPE svg PUBLIC "-//W3C//DTD SVG 1.1//EN" "http://www.w3.org/Graphics/SVG/1.1/DTD/svg11.dtd">
<svg version="1.1" id="Layer_1" xmlns="http://www.w3.org/2000/svg" xmlns:xlink="http://www.w3.org/1999/xlink" x="0px" y="0px"
	 width="90px" height="90px" viewBox="0 0 90 90" enable-background="new 0 0 90 90" xml:space="preserve">
<g>
	<path d="M45,6.125C23.53,6.125,6.125,23.53,6.125,45S23.53,83.875,45,83.875c21.47,0,38.875-17.405,38.875-38.875
		S66.47,6.125,45,6.125z M45,73.875c-15.922,0-28.875-12.953-28.875-28.875S29.078,16.125,45,16.125S73.875,29.078,73.875,45
		S60.922,73.875,45,73.875z"/>
	<path d="M19.167,45c0,1.361,0.107,2.696,0.31,4H29V24.726C23.013,29.457,19.167,36.777,19.167,45z"/>
	<path d="M45,19.167c-1.361,0-2.696,0.107-4,0.31V49h29.524c0.203-1.304,0.31-2.639,0.31-4C70.833,30.732,59.268,19.167,45,19.167z"
		/>
	<path d="M29,65.263V54h-8.22C22.444,58.476,25.321,62.354,29,65.263z"/>
	<path d="M41,70.522c1.304,0.203,2.639,0.311,4,0.311c11.102,0,20.565-7.004,24.22-16.833H41V70.522z"/>
</g>
</svg>
