<?xml version="1.0" encoding="utf-8"?>
<!-- Generator: Adobe Illustrator 16.0.0, SVG Export Plug-In . SVG Version: 6.00 Build 0)  -->
<!DOCTYPE svg PUBLIC "-//W3C//DTD SVG 1.1//EN" "http://www.w3.org/Graphics/SVG/1.1/DTD/svg11.dtd">
<svg version="1.1" id="Layer_1" xmlns="http://www.w3.org/2000/svg" xmlns:xlink="http://www.w3.org/1999/xlink" x="0px" y="0px"
	 width="90px" height="90px" viewBox="0 0 90 90" enable-background="new 0 0 90 90" xml:space="preserve">
<path d="M75.31,39.536c-0.425-2.087,0.082-4.47-0.26-6.669c-0.441-2.837-1.455-5.42-3.055-7.805
	c-3.385-5.047-7.706-10.815-13.262-13.567c-12.439-6.161-29.7-2.57-36.862,9.769c-1.746,3.007-2.626,6.238-3.855,9.455
	c-1.475,3.859-2.954,7.573-3.505,11.704c-0.444,3.325-0.373,6.804,1.07,9.894c0.713,1.525,1.737,2.889,2.984,4.02
	c0.717,0.65,2.359,1.127,2.826,1.857c0.704,1.102,1.433,2.178,2.285,3.172c0.751,0.877,2.151,1.863,2.179,3.148
	c0.035,1.586-1.548,2.648-1.962,4.094c-0.224,0.783-0.143,1.59,0.197,2.326c-0.359,0.717-0.462,1.545-0.266,2.326
	c0.701,2.787,4.918,3.002,7.142,3.676c2.853,0.865,5.643,1.867,8.349,3.123c1.667,0.771,3.591,2.223,5.46,2.344
	c2.203,0.15,4.597-1.738,6.533-2.611c2.762-1.244,5.623-2.209,8.521-3.076c2.478-0.74,6.794-1.018,6.461-4.613
	c-0.108-1.168-0.413-1.396-0.375-2.525c0.062-1.803-1.461-2.816-2.032-4.391c-0.514-1.418,0.374-2.568,1.303-3.561
	c1.399-1.494,2.67-3.15,3.735-4.898c0.66-1.08,0.972-0.729,1.995-1.453c1.467-1.039,2.6-2.748,3.35-4.355
	C75.902,47.402,76.07,43.291,75.31,39.536z M61.379,68.607c-0.778-0.154-1.964-0.795-2.774-0.551
	c-0.481-0.559-1.621-1.668-2.449-1.121c-1.633,1.082,3,4.43,3.705,4.996c-2.248,0.613-4.51,1.32-6.693,2.133
	c-1.447,0.539-2.871,1.141-4.273,1.783c-1.25,0.572-3.209,2.189-4.512,1.545c-4.588-2.264-9.245-4.063-14.171-5.455
	c0.815-0.66,4.485-3.172,3.896-4.492c-0.537-1.199-2.208,0.17-2.699,0.662c-0.769-0.271-2.305,0.416-3.113,0.52
	c3.644-5.779-1.128-8.127-3.069-11.697c0.932,1.34,1.951,2.038,3.405,2.512c0.371,0.764,0.675,1.176,1.072,1.965
	c0.699,1.393,1.567,2.701,2.573,3.893c2.442,2.893,6.191,5.24,9.671,6.688c5.001,2.082,9.8-1.621,13.498-4.799
	c1.673-1.438,3.147-3.15,4.255-5.063c0.635-1.098,1.151-2.254,1.696-3.396c0.623-0.668,1.813-0.975,2.541-1.58
	C61.015,60.9,58.244,63.943,61.379,68.607z M61.232,56.916c-1.649,1.074-2.047,2.842-3.055,4.516
	c-1.279,2.127-2.999,3.873-4.976,5.357c-2.242,1.686-5.58,4.521-8.578,4.191c-2.578-0.281-5.139-2.166-7.245-3.531
	c-2.283-1.48-4.225-3.217-5.551-5.619c-1.207-2.188-1.4-4.029-3.664-5.131c-2.63-1.279-3.295-3.608-3.372-6.37
	c1.59,1.633,5.584,6.202,6.521,5.015c0.722-0.914,0.059-1.49-0.142-2.607c-0.361-2.014-0.557-4.111-0.188-6.125
	c0.41-2.238,0.128-2.58,2.224-1.942c1.583,0.482,3.161,0.983,4.75,1.446c0.768,0.225,1.552,0.432,2.359,0.432
	c1.292,0,1.844-1.209,0.58-1.808c-2.735-1.296-5.889-1.883-8.862-2.272c0.813-2.707,1.894-5.377,3.412-7.767
	c2.299,3.446,4.378,6.557,7.417,9.392c0.587,0.548,2.017,2.458,2.952,2.244c1.582,0,1.502-1.76,1.61-4.275
	c0.733,0.701,1.274,1.626,2.019,2.317c-0.672,0.227-1.743,0.665-1.19,1.667c0.485,0.881,1.728,0.432,2.453,0.289
	c1.058,0.004,1.7,1.244,3.012,1.391c0.388,0.043,1.119,0.172,1.33-0.662c0.521-2.063,0.515-2.02,2.165-2.377
	c0.536-0.116,2.179-0.911,1.399-1.802c-0.58-0.664-2.149-0.153-2.898-0.086c0.372-2.139,0.596-4.288,0.868-6.442
	c3.274,4.771,4.638,9.159,3.482,14.833c-0.136,0.662-1.277,4.326,1.156,2.813c2.54-1.578,3.109-1.891,4.239-3.332
	C65.331,53.598,64.039,55.695,61.232,56.916z M70.667,50.667c0.188-1.688,0.559-5.643-0.138-7.22
	c-0.435-1.041-1.512,1.186-1.591,2.03c-0.223,2.375-0.063,3.897-1.854,7.105c0.19-0.752,0.786-7.499-1.439-6.479
	c-1.117,0.514-0.943,1.186-1.396,2.184c-0.686,1.807-1.379,1.841-2.358,2.53c1-6.083,0.154-8.868-3.314-14.395
	c-0.465-0.741-1.354-2.743-2.453-2.743c-1.26,0-1.204,2.408-1.284,3.198c-0.299,2.963-0.772,5.78-1.473,8.622
	c-0.834-0.603-1.127-0.959-2.116-2.065c-0.939-1.053-2.032-2.681-3.016-3.703c-2.794-2.906-3.063,1.547-3.065,3.983
	c-3.11-2.65-5.308-5.324-7.577-8.72c-0.618-0.924-1.515-3.246-2.936-1.998c-0.967,0.847-1.533,2.456-2.095,3.602
	c-2.813,5.739-3.749,11.022-3.02,16.043c-1.225-1.336-1.52-1.871-2.978-3.643c-0.904-1.098-1.084-1.512-2.074-2.504
	c-2.066-2.072-2.338,3.399-2.199,3.952c-0.323-0.989-0.159-0.431-0.44-1.919c-0.215-1.135-0.092-2.569-0.553-3.632
	c-0.511-1.178-1.456-0.053-1.644,0.626c-0.536,1.94-0.557,4.092-0.083,6.045c-4.103-6.621,0.506-14.588,2.528-21.051
	c2.458-7.871,6.88-13.879,14.853-16.718c6.791-2.418,15.784-1.885,21.887,2.212c2.755,1.85,4.457,4.447,6.595,6.9
	c2.577,2.95,5.17,6.272,5.855,10.234c-0.167-0.328-2.692-4.757-3.182-2.639c-0.295,1.28,1.285,3.388,1.789,4.584
	C71.65,39.261,74.583,45.478,70.667,50.667z"/>
</svg>
