<?xml version="1.0" encoding="utf-8"?>
<!-- Generator: Adobe Illustrator 16.0.0, SVG Export Plug-In . SVG Version: 6.00 Build 0)  -->
<!DOCTYPE svg PUBLIC "-//W3C//DTD SVG 1.1//EN" "http://www.w3.org/Graphics/SVG/1.1/DTD/svg11.dtd">
<svg version="1.1" id="Layer_1" xmlns="http://www.w3.org/2000/svg" xmlns:xlink="http://www.w3.org/1999/xlink" x="0px" y="0px"
	 width="90px" height="90px" viewBox="0 0 90 90" enable-background="new 0 0 90 90" xml:space="preserve">
<path d="M67.295,48.229c-0.94-1.125-0.623-5.757-0.562-8.063c0.041-1.547-0.465-2.155-1.775-2.844
	c-1.318-0.692-0.792-2.364-0.693-3.586c0.29-3.613,0.901-7.251,0.8-10.884c-0.093-3.305-1.434-5.687-2.753-8.591
	c-0.706-1.555-2.327-5.055-4.622-3.676c-1.058,0.636-1.394,1.959-2.127,2.877c-1.417,1.775-3.327,3.11-5.207,4.35
	c-6.792,4.48-14.697,7.084-21.299,11.861c-2.8,2.027-4.207,4.178-4.753,7.564c-0.337,2.093-1.191,1.135-2.191,2.329
	c-0.978,1.169-0.68,3.766-0.638,5.14c0.042,1.352,0.678,3.483-0.78,4.269c-1.383,0.745-2.6,1.552-3.613,2.782
	c-2.401,2.917-2.698,6.773-2.822,10.399c-0.055,1.602-0.734,8.17,1.475,8.723c1.78,0.445,3.967-2.213,5.103-3.242
	c5.817-5.269,13.873-0.288,20.539-0.751c8.79-0.611,17.118-5.749,26.042-5.8c1.382-0.009,3.168,0.43,4.322-0.554
	c1.058-0.902,2.042-1.689,1.956-4.383C73.353,53.155,69.015,50.287,67.295,48.229z M62.475,40.285
	c0.416-0.348,0.928-1.058,1.189-0.915c0.582,0.231,1.008,0.208,1.039,0.911c0.064,1.446-0.096,3.524-0.203,4.948
	c-0.041,0.543-0.12,0.936-0.146,1.479c-0.034,0.728-1.919,0.549-2.664,0.649c-2.348,0.319-4.653,0.94-7.021,1.111
	c-0.042-2.896-0.023-5.791,0.067-8.686C56.681,40.001,60.804,41.411,62.475,40.285z M30.793,32.978
	c4.09-3.303,9.372-5.18,14.006-7.589c4.871-2.531,10.253-6.076,14.035-10.117c0.5,1.271,0.881,1.792,1.292,2.688
	c0.342,0.748,0.438,1.108,0.75,1.771c0.527,1.119,0.542,2.177,0.59,3.46c0.177,4.787-0.89,9.51-0.896,14.291
	c-2.077-0.409-4.204-0.395-6.294-0.697c0.316-1.547,2.003-4.082,0.82-5.584c-1.499-1.902-7.308,0.622-9.072,1.318
	c-5.691,2.248-11.848,6.079-13.656,12.316c-1.447-1.57-4.908-1.688-4.92-4.42C27.587,37.546,28.5,34.834,30.793,32.978z
	 M50.351,47.365c-0.962,2.608-4.275,2.417-6.539,2.471c-1.602,0.039-8.644,0.74-9.356-1.149c-0.648-1.719,1.373-4.759,2.332-6.083
	c-1.367,2.436-1.346,7.942,2.577,5.639c1.995-1.172,3.576-2.911,5.499-4.192c1.024-0.683,5.645-3.407,4.219-5.113
	c-2.041-2.442-9.382,0.383-11.136,2.158c3.664-3.979,8.895-6.15,14.109-7.204C51.78,35.388,51,38.024,51,38.951
	C51,41.422,51.334,44.697,50.351,47.365z M38.719,45c0.313-1.5,0.833-2.943,4.104-3.237C41.56,42.688,39.957,44.043,38.719,45z
	 M24.793,43.429c0.592,0.592,2.93,1.353,2.134,2.191c-0.648,0.684-1.419,1.279-2.178,1.835
	C24.998,46.816,24.781,44.219,24.793,43.429z M44.287,61.926c-3.71,3.104-8.83,0.537-12.916-0.082
	c-4.614-0.698-9.531,0.206-13.216,3.187c-0.153-3.94-0.742-8.927,2.723-11.721c1.64-1.323,3.768-1.883,5.337-3.309
	c0.923-0.838,2.069-2.865,3.496-2.82c1.409,0.045,2.565,4.146,3.252,5.173c1.321,1.971,3.421,3.42,5.577,4.339
	C41.063,57.769,48.654,57.759,44.287,61.926z M67.942,56.725c-0.48,1.028-0.637,0.863-2.153,1.028
	c-2.045,0.223-4.083,0.517-6.107,0.884c-3.708,0.671-7.377,1.576-10.95,2.775c3.501-6.555-7.977-6.631-11.128-8.963
	c4.339,0.238,11.232,1.972,14.423-2.044c1.308,2.316,5.485,0.53,7.448,0.394c1.544-0.108,3.5-0.942,4.985-0.185
	c1.736,0.885,3.406,3.62,4.597,5.134C68.546,55.914,68.174,56.24,67.942,56.725z"/>
</svg>
