<?xml version="1.0" encoding="utf-8"?>
<!-- Generator: Adobe Illustrator 16.0.0, SVG Export Plug-In . SVG Version: 6.00 Build 0)  -->
<!DOCTYPE svg PUBLIC "-//W3C//DTD SVG 1.1//EN" "http://www.w3.org/Graphics/SVG/1.1/DTD/svg11.dtd">
<svg version="1.1" id="Layer_1" xmlns="http://www.w3.org/2000/svg" xmlns:xlink="http://www.w3.org/1999/xlink" x="0px" y="0px"
	 width="90px" height="90px" viewBox="0 0 90 90" enable-background="new 0 0 90 90" xml:space="preserve">
<path d="M75.793,43.73c-1.211-7.536-8.086-12.622-15.633-12.832c1.395-2.339,1.766-5.264,1.576-7.939
	c-0.089-1.244-1.553-8.465-3.524-4.457c-1.448,2.937-12.825,9.842-14.011,5.737c-0.82-2.842-0.669-6.197,0.568-8.364
	c0.275-0.481,4.626-5.414,0.986-4.495c-5.525,1.396-11.732,8.855-6.949,14.322c-4.047,0.418-7.643,1.908-10.799,4.478
	c-3.586,2.92-6.18,7.042-10.021,9.634c-1.302,0.878-7.409,1.181-6.499,3.05c1.663,3.415,6.976,6.001,10.588,6.276
	c-1.326,2.445-3.609,5.098-6.027,6.528c-2.08,0.612,0.189,2.524,1.432,2.53c1.852,0.009,3.586-0.002,5.422-0.223
	c1.734-0.208,1.551,1.845,2.002,3.39c0.342,1.169,0.842,2.343,1.105,3.53c0.33,1.481-6.111,4.581-2.421,5.389
	c1.746,0.383,3.667,0.437,5.442,0.293c2.777-0.224,4.668-1.505,5.064-0.586c1.059,2.454,5.083,4.445,7.419,5.714
	c8.367,4.542,14.604-1.027,18.837-8.322c0.945,1.262,1.901,2.518,2.895,3.742c1.369,1.688,3.299,1.5,2.334-1.061
	c-1.581-4.195-1.895-9.066-1.848-13.506c1.482,1.065,4.021,3.129,5.961,3.129c1.996,0,0.679-3.348,0.604-4.353
	c-0.349-4.73-0.578-9.189-3.323-12.645c1.945,0.38,3.883,1.047,5.559,2.121C73.844,45.65,76.219,46.375,75.793,43.73z M56.48,66.621
	c-1.725,2.584-5.314,8.014-9.034,7.442c-2.651-0.408-9.886-3.608-10.347-6.659c-0.262-1.702-0.061-3.555-0.064-5.278
	c-0.01-3.122,0.207-2.401,2.956-3.856c2.583-1.367,4.317-2.914,4.595-2.735c1.006,0.647,4.932,2.58,5.607,0.585
	c2.127,1.966,4.805,3.621,7.555,4.552C59.643,61.313,57.449,65.168,56.48,66.621z M46.256,53.086
	c0.251-0.346,0.484-0.705,0.699-1.075c0.371,0.687,0.794,1.339,1.27,1.958C47.574,53.663,46.918,53.369,46.256,53.086z
	 M57.861,51.149c0.494,0.571,0.961,1.047,1.48,1.6c-0.395,0.058-0.781,0.147-1.161,0.266C58.07,52.464,57.805,51.701,57.861,51.149z
	 M59.909,54.865c-0.132,0.646-0.288,2.24-0.585,3.005C58.668,56.23,58.452,55.773,59.909,54.865z M61.438,65.49
	c-0.234-0.325-0.754-0.447-1.781-0.57c1.075-2.886,1.494-6.066,2.092-9.073c0,3.822,0.206,7.623,0.984,11.376
	C62.29,66.653,61.859,66.075,61.438,65.49z M65.639,40.47c-3.478-0.382-1.313,2.092-0.225,3.465
	c2.838,3.579,2.395,8.979,3.127,13.226c-2.828-1.417-5.182-3.37-7.479-5.513c-0.768-0.713-6.053-7.63-5.606-3.049
	c0.321,3.299,0.998,6.644,1.921,9.777c-3.322-1.465-6.52-3.684-8.408-6.855c-0.948-1.591-2.057-3.565-3.466-0.986
	c-0.785,1.436-1.528,2.394-2.71,3.44c-1.371,1.218-2.957,2.189-4.614,2.966c-0.77,0.36-2.458,0.708-2.868,1.626
	c-0.959,2.14-0.469,6.645-0.201,8.978c-0.953-1.344-2.932,0.091-4.035,0.413c-1.779,0.519-3.461,0.758-5.295,0.601
	c1.943-1.455,2.559-2.953,1.799-5.268c1.929,2.107,7.726,5.514,6.272,0.176c-0.603-2.21-0.39-4.712-3.292-4.155
	c3.007-2.609,1.691-6.021-2.217-4.709c-3.336,1.12-5.835,1.671-9.573,1.577c1.917-1.55,4.75-4.447,5.364-6.853
	c1.416,2.063,5.318,3.433,7.687,2.352c1.825-0.833-3.955-3.923-4.756-3.981c2.177-1.045,1.331-0.839,3.239,0.233
	c1.834,1.031,3.973,1.608,6.057,1.829c4.109,0.437-1.729-4.203-3.438-4.505c1.907-0.709,1.558-1.091,3.099,0.005
	c1.621,1.153,3.59,1.543,5.547,1.296c5.032-0.635,1.434-2.738-1.207-3.631c3.119-0.846,3.418,0.884,6.549,1.386
	c3.891,0.624,0.846-1.977-0.631-2.644c2.296-0.492,3,1.198,5.393,0.876c2.931-0.395-2.197-2.643-2.241-2.425
	c-0.007,0.034,3.392-3.408,1.749-3.401c-0.943,0.003-1.771,0.237-2.537,0.81c-1.645,1.231-0.737,1.399-2.9,1.871
	c1.674-1.405,2.449-5.55-1.076-3.178c-1.221,0.821-2.473,2.05-2.878,3.519c-0.233,0.846-0.47,0.628-2.145,1.087
	c1.017-1.695,1.524-6.692-1.741-3.972c-1.288,1.071-2.51,2.4-3.181,3.957c-0.851,1.976-0.012,1.66-1.804,2.346
	c1.707-2.423,1.473-7.808-2.442-4.141c-1.233,1.156-1.907,2.754-1.859,4.487c0.043,1.56,0.009,1.165-1.923,2.096
	c0.635-1.174,0.469-1.462,0.285-2.865c-0.066-0.512-0.969-3.777-1.906-3.367c-3.461,1.513-2.504,5.689-1.43,8.154
	c-1.004-0.792-3.029-0.609-4.209-1.071c-1.921-0.751-3.796-1.879-5.238-3.367c8.406-0.377,12.218-11.08,19.605-14.149
	c1.455-0.605,10.622-1.197,7.286-3.826c-0.97-1.708-2.271-2.315-1.853-4.605c0.373-2.039,1.748-4.164,3.826-5.617
	c-1.855,3.082-2.83,12.611,2.328,12.843C49.095,27.896,55.47,25.355,59.033,21c0.947,2.511,0.986,5.362-0.115,7.954
	c-1.381,3.253-2.178,3.647,1.965,3.979c5.745,0.461,10.863,4.409,12.424,10.012C70.996,41.556,68.307,40.765,65.639,40.47z
	 M27.384,59.218c-0.868-2.667,0.667-2.384,2.862-3.189C30.909,57.111,28.191,58.731,27.384,59.218z M31.234,61.212
	c0.194,0.969,0.291,1.898,0.406,2.385c-1.19-0.573-2.004-0.924-2.846-1.945C29.607,61.507,30.426,61.383,31.234,61.212z"/>
</svg>
