<?xml version="1.0" encoding="utf-8"?>
<!-- Generator: Adobe Illustrator 16.0.0, SVG Export Plug-In . SVG Version: 6.00 Build 0)  -->
<!DOCTYPE svg PUBLIC "-//W3C//DTD SVG 1.1//EN" "http://www.w3.org/Graphics/SVG/1.1/DTD/svg11.dtd">
<svg version="1.1" id="Layer_1" xmlns="http://www.w3.org/2000/svg" xmlns:xlink="http://www.w3.org/1999/xlink" x="0px" y="0px"
	 width="90px" height="90px" viewBox="0 0 90 90" enable-background="new 0 0 90 90" xml:space="preserve">
<path d="M78.625,53.063c-1.44-2.651-1.914-8.07-1.906-8.844c0.002-0.218-0.051-0.561-0.094-0.875c-0.026-0.192-0.179-0.773-0.188-1
	c0.619-0.092,1.611-0.146,1.955-0.694c0.632-1.008,0.602-2.527,0.098-3.362c-3.959-6.569-7.675-13.466-11.042-18.331
	c-1.349-1.949-2.729-3.533-4.216-4.843c-2.374-2.091-5.832-2.333-8.226-2.333c-0.495,0-0.978,0.012-1.443,0.029
	c-2.001,0.075-4.039,0.354-6.059,0.827c-0.263,0.062-0.588,0.177-0.939,0.304c-0.48,0.175-1.063,0.386-1.539,0.383
	c-3.039-1.012-6.463-1.527-10.201-1.532c-6.998,0-10.266,4.087-13.812,9.43c-1.857,2.798-3.507,5.733-5.104,8.573
	c-1.113,1.979-2.264,4.027-3.469,5.998l-0.059,0.096c-0.571,0.93-2.088,3.398-0.119,4.813c0.375,0.269,0.712,0.416,1,0.496
	c-0.011,0.081-0.022,0.153-0.029,0.203c-0.192,1.323-0.271,2.644-0.346,3.921c-0.11,1.854-0.213,3.607-0.638,5.364
	c-0.126,0.524-0.343,1.059-0.552,1.575c-0.455,1.123-0.926,2.286-0.431,3.385c0.25,0.555,0.703,0.997,1.375,1.332
	c-0.013,0.199-0.034,0.438-0.05,0.634c-0.074,0.857-0.167,1.937-0.06,2.793l0.048,0.412c0.29,2.369,0.519,4.287,2.419,5.027
	c0.333,0.13,0.74,0.155,1.179,0.155c0.003,0,0.006,0,0.008,0c0.151,0,0.279,0.618,0.413,1.003c0.212,0.611,0.431,1.149,0.773,1.767
	c0.743,1.344,1.805,2.886,3.434,2.886c0.523,0,1.051-0.166,1.577-0.495c0.448,0.301,1.133,0.781,1.72,1.193
	c1.935,1.356,2.893,2.015,3.321,2.189l0.204,0.084c0.833,0.345,2.09,0.868,3.236,0.868c1.182,0,2.034-0.562,2.405-1.561
	c0.138-0.014,0.342-0.026,0.633-0.026c1.387,0,3.536,0.256,5.105,0.442c0.872,0.104,1.502,0.179,1.824,0.189
	c2.987,0.097,5.969,0.03,8.955-0.039c1.062-0.024,2.125-0.048,3.188-0.065c1.319-0.021,2.281-0.08,3.589-0.331
	c0.054-0.01,0.104-0.02,0.149-0.027c0.05,0.1,0.115,0.205,0.199,0.312c0.467,0.592,1.573,1.268,3.683,0.789
	c2.154-0.487,3.783-1.264,5.621-2.68c0.396-0.305,0.733-0.593,1.02-0.839c0.111-0.095,0.235-0.201,0.346-0.293
	c0.373,0.238,0.808,0.364,1.272,0.364h0c0.554,0,1.138-0.185,1.645-0.519c2.039-1.345,2.45-2.853,2.779-4.064
	c0.145-0.533,0.272-1,0.524-1.405c0.109-0.019,0.264-0.036,0.369-0.047c0.254-0.027,0.5-0.058,0.691-0.11
	c1.775-0.482,2.27-2.425,2.566-3.589c0.101-0.394,0.129-1.038,0.169-2.143c0.026-0.696-0.224-2.43-0.128-2.98
	c0.74-0.365,1.265-0.663,1.563-1.438C79.446,55.355,79.249,54.209,78.625,53.063z M74.708,54.672
	c-0.177-0.156-0.843-0.708-0.954-0.566c-0.275,0.353,0.877,2.734,0.981,3.143c0.409,1.6,0.563,3.294,0.207,4.919
	c-1.12,5.11-1.474-2.422-3.046-2.422c0.991,0-0.453,7.121-1.121,8.347c-0.556,1.021-1.155,2.331-1.723,1.993
	c-0.586-0.349-0.831-2.931-1.531-2.931c-0.159,0-1,2.388-1.884,3.485c-1.332,1.653-3.941,3.157-6.107,3.304
	c-1.398,0.095,0.05-2.673-1.159-2.25c-2.005,0.703-3.789,1.126-5.937,1.267c2.543-1.731,4.808-4.519,6.714-6.917
	c2.03-2.554,3.807-4.901,4.354-8.183c1.437,1.354,4.455-2.422,5.218-3.322c1.874-2.211,3.168-5.825,2.112-8.668
	c-1.248-3.358-3.318-1.371-4.378,0.862c-1.178,2.483-1.49,5.459-2.546,8.03c0.573-4.033,0.819-7.122,0.932-10.693
	c0.035-1.101,0.314-3.776-1.339-6.902c-1.313-2.646-1.987-4.69-4.225-5.573c-2.817-1.111-1.614,4.556-1.478,5.833
	c-0.715-1.336-3.312-6.42-5.335-5.479c-1.255,0.583-0.297,7.478-0.308,8.663c-0.938-2-5.325-12.673-7.872-11.188
	c-1.525,0.889-2.846,3.759-3.658,5.266c-1.122,2.042-1.73,3.551-2.718,5.662c-0.068-1.585,0.136-2.799,0.249-4.381
	c0.074-1.034,0.144-2.181-0.045-3.208c-0.661-3.599-5.167,2.959-5.424,3.427c0.101-1.096,0.82-6.701-2.401-4.422
	c-1.391,0.984-2.474,3.068-3.724,5.547c-1.833,3.647-1.56,7.115-1.473,8.282c0.229,3.094,0.537,6.208,0.911,9.289
	c-0.689-1.727-3.167-14.071-6.462-10.409c-1.937,2.152-1.186,5.621,0.062,8.018c0.717,1.378,4.718,7.272,6.765,5.453
	c1.178,7.076,6.167,11.836,10.958,14.999c-1.563-0.146-3.178-0.327-4.673-0.832c-1.762-0.595-1.403-0.444-1.543,1.262
	c-0.19,2.32-6.816-2.677-7.46-3.69c-0.212-0.334-0.99-2.829-1.403-2.229c-0.672,0.975-0.912,3.679-2.241,1.922
	c-1.121-1.48-1.694-3.37-1.93-5.19c-0.055-0.423-0.105-4.41-0.116-4.407c-1.497,0.351-2.163,7.348-2.845,2.049
	c-0.203-1.578,0.313-6.563,1.141-7.734c-0.631-0.083-3.497,3.052-2.403,0.443c0.971-2.314,1.225-4.814,1.535-7.28
	c0.232-1.851-0.188-3.943,0.588-5.683c0.393-0.88,2.733-5.461,3.416-5.527c-1.531,0.148-3.43,2.439-4.806,3.217
	c-1.274,0.721-0.428-0.548-0.108-1.105c2.301-4.006,4.421-8.074,6.89-11.982c2.121-3.356,4.81-8.97,8.917-10.327
	c2.765-0.913,5.936-0.744,8.779-0.375c2.467,0.32,5.008,1.676,7.385,0.917c3.988-1.273,9.554-1.982,13.57-0.439
	c3.415,1.313,5.739,5.722,7.587,8.585c2.689,4.167,4.961,8.5,7.43,12.794c0.134,0.232,1.685,2.476,0.722,2.077
	c-1.689-0.699-3.424-3.198-5.162-3.394c0.285,0.032,2.127,3.198,2.43,3.67c0.8,1.25,1.407,2.556,1.407,4.064
	c0,2.404,0.248,4.823,0.711,7.181c0.116,0.592,1.678,3.645,1.271,3.936C76.224,54.999,75.406,55.219,74.708,54.672z M27.321,42.406
	c0.681,2.109,5.405,3.063,7.179,3.647c1.859,0.612,10.544,5.603,9.383,0.41c-0.567-2.536-1.861-1.736-3.632-2.593
	c-0.656-0.317-1.515-0.402-1.21-1.177c0.304-0.773,0.641-1.505,1.005-2.252c1.467-3.001,3.001-6.071,4.888-8.831
	c2.008,2.771,3.458,5.922,5.018,8.954c0.331,0.64,0.573,1.296,0.884,1.942c0.477,0.996,0.183,0.927-0.8,1.372
	c-1.971,0.887-3.506,0.164-3.72,3.184c-0.302,4.267,6.451-0.008,8.141-0.573c2.07-0.692,7.289-1.334,8.368-3.699
	c0.041,3.402-0.32,6.079-0.692,9.968c-0.36,3.77-1.717,8.409-3.865,11.113c-2.262,2.847-3.865,4.852-6.638,7.252
	c-1.715,1.484-5.7,0.695-7.728,0.691c-2.356-0.005-4.55,0.37-6.423-1.197c-2.955-2.472-4.449-3.241-7.493-8.211
	c-1.407-2.297-2.06-7.376-2.347-10.66C27.363,48.592,26.991,45,27.258,41.09C27.445,41.559,27.157,41.9,27.321,42.406z
	 M29.314,36.731c0.404-0.81,0.922-1.72,1.187-2.077c-0.152,0.948-0.253,1.898-0.352,2.853C29.854,37.266,29.54,37.038,29.314,36.731
	z M35.787,41.377c-0.479-0.31-2.162-1.19-2.641-1.725c0.479-1.527,2.487-3.763,3.011-4.434C35.965,37.23,35.654,39.36,35.787,41.377
	z M54.028,35.245c0.771,0.976,1.469,2.014,2.055,3.111c0.264,0.495,0.53,0.996,0.751,1.513c-0.881,0.629-1.812,1.197-2.741,1.75
	C54.122,39.497,54.15,37.366,54.028,35.245z M59.479,34.671c0.882,1.359,1.667,2,0.318,3.103
	C59.677,36.742,59.583,35.706,59.479,34.671z M66.219,54.199c1.033-2.694,1.281-4.899,2.698-7.408
	C69.708,49.708,68.122,52.268,66.219,54.199z M23.697,54.163c-2.063-1.788-4.197-5.184-2.845-7.489
	c0.587,1.785,1.204,3.227,1.955,4.939C23.274,52.675,23.333,53.054,23.697,54.163z"/>
</svg>
