<?xml version="1.0" encoding="utf-8"?>
<!-- Generator: Adobe Illustrator 16.0.0, SVG Export Plug-In . SVG Version: 6.00 Build 0)  -->
<!DOCTYPE svg PUBLIC "-//W3C//DTD SVG 1.1//EN" "http://www.w3.org/Graphics/SVG/1.1/DTD/svg11.dtd">
<svg version="1.1" id="Layer_1" xmlns="http://www.w3.org/2000/svg" xmlns:xlink="http://www.w3.org/1999/xlink" x="0px" y="0px"
	 width="90px" height="90px" viewBox="0 0 90 90" enable-background="new 0 0 90 90" xml:space="preserve">
<path id="path0_4_" fill="#050504" d="M48.557,70.718c3.515-0.321,6.951-1.346,10.059-3.019c2.73-1.47,7.039-4.1,8.27-7.111
	c0.88-2.153-1.463-3.164-2.929-3.996c-2.679-1.521-5.357-3.044-8.036-4.566c-2.397-1.362-4.798-2.723-7.195-4.085
	c-1.44-0.818-2.884-1.633-4.324-2.452c-0.25-0.143-1.563-0.654-1.661-1.007c-0.11-0.403,5.686-3.448,6.337-3.833
	c3.709-2.197,7.418-4.395,11.128-6.59c3.064-1.814,9.37-3.835,5.414-8.02c-3.97-4.2-9.126-7.104-14.834-8.111
	c-10.783-1.904-22.146,3.078-27.726,12.567C12.162,49.029,27.187,72.676,48.557,70.718 M44.036,68.404
	c-12.272-1.053-22.118-11.408-22.351-23.767c-0.225-11.889,8.401-22.335,20.09-24.379c5.434-0.95,11.129-0.048,15.967,2.615
	c2.318,1.276,5.078,3.107,6.585,5.335c0.572,0.847-3.171,2.494-3.716,2.82c-6.621,3.965-13.268,7.889-19.904,11.827
	c-0.586,0.347-3.166,1.31-2.053,2.07c2.422,1.653,5.155,2.958,7.702,4.406c5.771,3.278,11.599,6.475,17.325,9.831
	c2.428,1.424-5.084,5.879-6.398,6.553C53.233,67.791,48.581,68.795,44.036,68.404"/>
</svg>
