<?xml version="1.0" encoding="utf-8"?>
<!-- Generator: Adobe Illustrator 16.0.0, SVG Export Plug-In . SVG Version: 6.00 Build 0)  -->
<!DOCTYPE svg PUBLIC "-//W3C//DTD SVG 1.1//EN" "http://www.w3.org/Graphics/SVG/1.1/DTD/svg11.dtd">
<svg version="1.1" id="Layer_1" xmlns="http://www.w3.org/2000/svg" xmlns:xlink="http://www.w3.org/1999/xlink" x="0px" y="0px"
	 width="90px" height="90px" viewBox="0 0 90 90" enable-background="new 0 0 90 90" xml:space="preserve">
<path d="M73.973,35.595c4.137-7.628,4.586-11.673,1.366-12.307c-1.964-0.386-5.687,1.229-9.913,4.298
	c-4.238,3.078-8.896,8.561-11.574,13.622c-0.237,0.448-0.44,0.827-0.454,0.844c-0.013,0.016-0.433-0.091-0.933-0.238
	c-4.92-1.451-9.926-1.442-14.748,0.026c-1.2,0.364-1.055,0.396-1.406-0.302c-1.643-3.267-4.613-7.295-7.687-10.422
	c-4.739-4.822-11.538-8.558-14.2-7.802c-2.983,0.848-2.413,5.052,1.689,12.46c2.825,5.103,4.791,7.743,8.568,11.501
	c1.018,1.013,1.835,1.881,1.817,1.929c-0.02,0.048-0.273,0.454-0.567,0.902c-3.065,4.696-3.588,10.965-1.31,15.722
	c2.096,4.376,6.346,7.482,12.579,9.193c8.238,2.26,18.53,0.505,24.07-4.105c6.177-5.142,7.326-13.973,2.726-20.942
	c-0.274-0.417-0.509-0.777-0.521-0.803c-0.012-0.024,0.825-0.893,1.86-1.929C69.103,43.473,71.33,40.47,73.973,35.595z
	 M60.604,49.866l0.091,0.107c3.646,4.33,4.43,9.738,2.361,14.265c0.261-0.787,0.414-1.64,0.417-2.521
	c0.004-1.297-0.266-2.229-0.803-2.768c-0.528-0.53-1.293-0.658-2.226-0.362c-1.269,0.402-2.529,1.637-3.371,3.301
	c-0.875,1.729-1.127,3.556-0.676,4.887c0.408,1.202,1.187,1.865,2.19,1.865c0,0,0,0,0.001,0c0.643,0,1.328-0.456,1.975-0.94
	C57.268,71.132,51.467,73,45.047,73c-0.001,0-0.001,0-0.002,0c-5.562,0-10.896-1.327-14.42-3.884C30.831,69.166,31,69.289,31,69.289
	v0.046c1,0,1.971-0.624,2.352-1.753c0.682-2.012,0.122-5.227-1.968-6.823c-0.535-0.409-1.23-0.777-1.654-0.847
	c-0.159-0.025-0.328-0.055-0.411-0.069c-0.024-0.003-0.045-0.004-0.084-0.004c-0.137,0-0.362,0.029-0.574,0.074
	c-1.109,0.234-1.781,1.232-1.847,2.738c-0.039,0.894,0.145,1.891,0.495,2.839c-2.76-4.734-2.033-11.466,1.905-15.676
	c0.356-0.381,0.574-0.63,0.558-0.951c-0.018-0.357-0.311-0.628-0.918-1.16c-1.979-1.73-3.89-3.669-5.522-5.601
	c-0.436-0.517-1.009-1.17-1.278-1.458c-0.779-0.835-0.871-1.269-0.811-1.382c0.167-0.31,0.156-0.477,0.062-1.432
	c-0.312-3.159-0.036-6.923,0.613-8.392c0.041-0.093,0.117-0.271,0.165-0.426c0.112,0.062,0.301,0.182,0.618,0.412
	c4.628,3.363,9.434,9.255,11.957,14.659c0.3,0.644,0.482,1.032,0.952,1.032c0.225,0,0.474-0.094,0.894-0.26
	c2.807-1.107,5.543-1.646,8.366-1.646c2.866,0,5.746,0.556,8.802,1.696c0.176,0.066,0.334,0.12,0.493,0.12
	c0.48,0,0.692-0.426,1.209-1.456c2.823-5.645,8.426-12.287,12.309-14.611c0.015,0.041,0.031,0.085,0.048,0.131l0.01,0.024
	c0.791,2.164,1.021,4.641,0.746,8.029c-0.127,1.557-0.135,1.711,0.017,2.047c0.095,0.207-0.149,0.857-0.744,1.4
	c-0.137,0.124-0.586,0.64-0.94,1.065c-1.695,2.031-4.037,4.439-5.694,5.857l-0.134,0.113C59.818,48.63,59.703,48.798,60.604,49.866z
	"/>
</svg>
