<?xml version="1.0" encoding="utf-8"?>
<!-- Generator: Adobe Illustrator 16.0.0, SVG Export Plug-In . SVG Version: 6.00 Build 0)  -->
<!DOCTYPE svg PUBLIC "-//W3C//DTD SVG 1.1//EN" "http://www.w3.org/Graphics/SVG/1.1/DTD/svg11.dtd">
<svg version="1.1" id="Layer_1" xmlns="http://www.w3.org/2000/svg" xmlns:xlink="http://www.w3.org/1999/xlink" x="0px" y="0px"
	 width="90px" height="90px" viewBox="0 0 90 90" enable-background="new 0 0 90 90" xml:space="preserve">
<path d="M77.699,43.526c-0.107-0.277-1.004-0.933-1.977-1.181c-1.405-0.358-2.932-0.309-4.308-0.756
	c0.642-1.096,3.551-5.222,1.29-6.033c-1.458-0.523-2.988,0.283-4.495-0.403c-1.643-0.749-2.684-2.375-3.498-3.913
	c-2.074-3.924-3.748-8.012-6.85-11.284c-1.596-1.685-3.52-3.243-5.706-4.083c-1.959-0.752-4.188,0.396-6.004-0.464
	c-1.675-0.793-2.477-2.39-4.626-2.024c-2.292,0.39-4.845,1.65-6.938,2.638c-4.396,2.074-7.706,5.844-10.387,9.806
	c-1.25,1.848-2.337,3.804-3.291,5.819c-0.711,1.502-1.049,4.571-2.779,5.31c-1.257,0.537-3.574-0.454-3.813,1.549
	c-0.203,1.71,1.058,3.582,2.061,4.856c-3.873-0.842-2.777,2.704-1.408,4.776c2.361,3.573,5.932,6.453,9.881,8.087
	c-0.913,1.255-4.268,8.85-1.475,9.631c1.908,0.534,3.998-2.937,5.312-3.87c-0.208,1.331,0.099,2.686-0.057,4.022
	c-0.161,1.393-1.155,2.431-1.897,3.557c-1.458,2.214-1.921,4.64,1.467,3.912c3.182-0.683,6.553-0.237,9.702,0.404
	c1.188,0.242,6.485,2.512,6.998,0.5c-0.093,1.934,7.259-0.624,8.261-0.784c2.938-0.469,5.569-0.327,8.481-0.06
	c2.358,0.217,3.191-0.771,1.992-2.979c-0.904-1.665-2.007-3.212-3.166-4.707c-1.592-2.052-2.651-2.692-1.151-5.03
	c0.725,0.656,4.166,4.438,4.466,1.725c0.209-1.888-0.385-4.193-1.063-5.943c-0.725-1.871,1.364-2.661,2.644-3.674
	c2.623-2.075,3.818-5.166,7.193-5.981c1.291-0.312,5.961-1.272,5.141-3.42c0.06,0.154,0.119,0.31,0.178,0.464
	C77.818,43.837,77.758,43.682,77.699,43.526C77.562,43.17,78.035,44.402,77.699,43.526z M44.326,16.298
	c1.215,1.196,1.171,2.263,1.731,3.852C45.48,19.253,45.011,16.971,44.326,16.298C44.96,16.923,44.083,16.06,44.326,16.298z
	 M17.784,47.417c-0.323-0.281-0.593-0.864-0.793-1.207c0.883,0.136,1.884,0.28,2.716-0.165c0.231,3.223,3.096,5.471,5.405,7.351
	C22.254,52.038,19.645,49.985,17.784,47.417C17.688,47.334,19.63,49.965,17.784,47.417z M20.9,45.85
	c0.014-0.878,1.398-1.104,2.035-1.148c0.959-0.065,1.369,0.672,1.73,1.451c1.202,2.59,3.365,4.814,5.475,6.709
	c0.859,0.771,3.698,3.516,3.134,0.775c-0.563-2.729-1.166-6.01-0.263-8.729c1.801,0.765,4.323,2.04,6.296,2.101
	c0.279,0.009,3.005-0.248,3.033-0.107c-0.121-0.607-1.801-5.428-0.035-3.758c1.693,1.601,3.225,3.23,5.142,4.587
	c1.892,1.339,2.692,1.849,2.543-0.671c1.574,0.027,5.068-0.667,5.801-2.288c2.286,0.521,1.503,4.456,1.32,6.047
	c-0.311,2.708-0.022,5.53-0.952,8.143c-1.102,3.094-5.266,5.434-8.278,6.186c-6.408,1.601-12.058-3.284-14.962-8.474
	c-0.281-0.503-0.988-1.97-1.785-1.732c-0.909,0.338-0.153,0.988-1.379,0.314c-1.031-0.566-2.033-1.271-2.942-2.015
	C24.678,51.497,20.851,48.966,20.9,45.85C20.914,44.937,20.86,48.367,20.9,45.85z M33.092,42.668
	c0.239-1.504,0.331-6.031,1.769-7.115c0.746-0.562,4.629,7.881,4.975,8.81C37.6,43.765,35.42,42.852,33.092,42.668
	C33.349,41.051,35.386,42.849,33.092,42.668z M50.115,42.395c0.932,0.384,1.763,1.011,2.765,1.223
	c-1.182,0.354-2.438,0.496-3.547,1.069c-0.156-0.534,0.739-0.344-0.333-0.635c0-0.088,0.28-0.719,0.327-0.296
	C49.273,43.252,49.25,42.039,50.115,42.395C51.045,42.777,49.23,42.03,50.115,42.395z M25.703,60.903
	c0.173-0.725,0.391-1.431,0.782-2.063c0.07-0.114,0.812-1.363,0.409-0.836c0.548-0.719,1.197-1.517,1.022-2.492
	c0.744,0.481,1.54,0.87,2.331,1.267c0.528,0.74,0.648,1.66,1.095,2.439c0.468,0.815,1.103,1.516,1.739,2.201
	c-0.639,0.581-1.245,1.197-1.828,1.834c0.113-1.455,1.268-4.144-0.938-4.686C28.616,58.15,26.844,59.89,25.703,60.903
	C25.845,60.306,26.884,59.854,25.703,60.903z M28.714,70.981c0.887-1.455,1.463-3.088,2.461-4.479
	c1.135-1.582,2.81-2.696,3.947-4.287c1.087,0.984,1.133,2.899,1.778,4.153c0.989,1.92,2.075,3.799,3.368,5.531
	C36.501,71.038,32.574,70.338,28.714,70.981C29.649,69.448,32.559,70.341,28.714,70.981z M44.921,74.249
	c0.097-1.093-1.504-2.243-2.12-2.99c-1.211-1.468-2.284-3.05-3.203-4.716c3.22,1.78,7.133,2.001,10.451,0.346
	c-0.799,1.439-1.719,2.813-2.759,4.089C46.52,71.922,45.143,72.989,44.921,74.249C44.994,73.42,45.078,73.356,44.921,74.249z
	 M60.882,70.321c-3.888,0.216-7.768,0.813-11.553,1.724c1.327-1.713,2.508-3.542,3.485-5.478c-0.192,2.409,2.408-0.249,2.98-0.859
	c0.954-1.019,0.963-0.77,2.017,0.374C58.997,67.369,59.947,68.849,60.882,70.321C57.104,70.531,59.641,68.366,60.882,70.321z
	 M62.992,51.966c-0.486,0.076-0.909,0.671-1.296,0.938c0.491-1.813,0.532-3.893,1.561-5.519c0.853-1.347,3.323-0.795,4.633-0.948
	C66.801,48.689,64.964,50.475,62.992,51.966C62.718,52.009,64.965,50.474,62.992,51.966z M66.688,45.367
	c-2.587,0.336-4.303,0.574-5.109,3.372c-0.441,1.529-0.577,3.137-1.29,4.583c-0.985,1.997-0.42,2.825,0.129,4.872
	c-1.138-0.842-2.431-0.276-3.151,0.797c0.835-3.202,0.837-6.482,1.107-9.756c0.302-3.67-0.567-4.583-3.668-6.193
	c-1.199-0.622-5.339-3.203-6.239-1.084c-0.668,1.573,0.008,3.508,0.164,5.121c-2.533-1.558-4.516-3.807-6.45-6.028
	c-1.562-1.793-3.091-2.179-2.449,0.768c-0.37-1.696-2.815-8.12-5.278-7.402c-1.972,0.574-2.151,5.632-2.377,7.168
	c-0.543,3.695-0.632,7.461-0.157,11.169c-2.235-1.74-4.44-3.814-5.87-6.285c-1.271-2.196-2.826-3.962-5.456-2.259
	c-0.363-1.789-2.434-2.653-3.116-4.294c4.333-0.527,5.161-5.956,6.888-9.142c2.325-4.289,5.378-8.217,9.437-10.987
	c1.769-1.208,3.689-2.183,5.697-2.928c1.279-0.475,2.161-1.288,2.751,0.149c0.633,1.54,1.372,3.035,2.17,4.496
	c1.126,2.062,5.965,12.115,9.132,10.922c2.336-0.88-1.032-4.145-1.66-5.072c-1.499-2.213-2.707-4.625-3.614-7.138
	c-0.488-1.351-1.066-1.997,0.62-2.203c0.813-0.1,1.637,0.008,2.412,0.267c1.936,0.647,3.532,2.108,4.848,3.62
	c2.518,2.893,3.999,6.262,5.695,9.646c1.698,3.386,4.16,6.783,8.344,6.732c-1.437,2.749-2.441,5.28,1.425,6.21
	C70.007,44.925,68.347,45.166,66.688,45.367C66.598,45.379,68.349,45.166,66.688,45.367z"/>
</svg>
