<?xml version="1.0" encoding="utf-8"?>
<!-- Generator: Adobe Illustrator 16.0.0, SVG Export Plug-In . SVG Version: 6.00 Build 0)  -->
<!DOCTYPE svg PUBLIC "-//W3C//DTD SVG 1.1//EN" "http://www.w3.org/Graphics/SVG/1.1/DTD/svg11.dtd">
<svg version="1.1" id="Layer_1" xmlns="http://www.w3.org/2000/svg" xmlns:xlink="http://www.w3.org/1999/xlink" x="0px" y="0px"
	 width="90px" height="90px" viewBox="0 0 90 90" enable-background="new 0 0 90 90" xml:space="preserve">
<path d="M72.481,65.529c-4.908-4.116-5.29-10.226-5.642-16.213c1.311-0.007,3.398,0.277,4.045-1.186
	c0.467-1.054,0.132-1.958-1.019-2.756c-1.258-0.872-2.286-2.026-3.278-3.18c-0.035-0.729-0.567-2.662,0.303-2.771
	c2.411-0.302,1.185-3.937,0.532-5.183l-0.33-0.631l0.379-0.446c3.678-4.336,3.133-11.927-1.116-15.553
	c-1.911-1.631-3.365-1.945-4.366-0.943c-1.279,1.279,0.245,3.979,0.444,5.483l-0.4-0.381c-0.997-0.951-2.299-1.431-3.574-1.316
	l-0.476,0.043l-0.742-0.495c-1.929-1.288-4.142-2.187-6.473-2.331c-1.027-0.063-2.062,0.021-3.066,0.242
	c-0.82,0.181-1.939,0.918-2.758,0.867c-0.702-0.044-1.512-0.606-2.211-0.786c-1.076-0.275-2.191-0.38-3.3-0.321
	c-2.379,0.125-4.667,0.997-6.637,2.313l-0.769,0.513l-0.484-0.043c-1.325-0.118-2.553,0.334-3.586,1.318l-0.396,0.377
	c0.117-0.956,0.366-1.898,0.667-2.813c0.7-2.128-0.389-3.662-2.255-3.181c-0.506,0.131-1.536,0.773-2.341,1.46
	c-2.29,1.954-3.456,4.979-3.563,7.94c-0.057,1.566,0.178,3.149,0.726,4.619c0.254,0.68,0.574,1.333,0.963,1.946
	c0.273,0.432,1.317,1.313,0.952,1.827c-0.977,1.371-2.032,5.126,0.53,5.47l0.275,0.036c-0.006,0.843-0.051,1.682-0.102,2.521
	c-0.746,0.898-1.521,1.761-2.38,2.556c-0.961,0.889-2.22,1.288-2.221,2.754c-0.001,1.515,0.63,1.937,2.993,2.009l1.369,0.042
	c-0.356,3.591-0.301,7.169-1.619,10.594c-0.536,1.393-1.283,2.696-2.246,3.837c-0.922,1.093-2.922,2.115-3.078,3.604
	c-0.083,0.797,0.211,1.495,0.79,1.878c1.651,1.093,9.193,0.26,10.854-1.198l0.263-0.231c2.241-0.035,4.475-0.016,6.707,0.187
	c1.852,1.869,3.757,3.091,6.386,3.602c2.851,0.554,5.826,0.521,8.637-0.233c1.278-0.343,2.537-0.886,3.606-1.675
	c0.719-0.53,1.324-1.196,2.046-1.729c2.109-0.152,4.221-0.143,6.334-0.15l0.265,0.231c1.089,0.955,4.28,1.647,7.607,1.653
	c3.055,0.004,3.898-0.388,4.037-1.878C73.851,66.911,73.605,66.473,72.481,65.529C68.778,62.424,73.605,66.473,72.481,65.529z
	 M50.345,43.603c0.48,0.932,1.97,0.535,2.797,1.049c0.944,0.584,1.984,1.016,2.979,1.505c0.213,3.574-0.785,8.203-3.387,10.806
	c-1.481,1.483-3.399,2.668-5.254,3.628c-0.801,0.416-1.701,1.018-2.642,0.94c-1.012-0.084-2.002-0.727-2.861-1.209
	c-3.958-2.222-6.14-4.352-6.867-6.703c-0.358-1.158-0.716-2.219-0.851-3.429c-0.091-0.813-0.142-1.63-0.183-2.444
	c-0.025-0.479-0.222-1.32,0-1.781c0.473-0.493,1.663-0.787,2.271-1.126c0.441-0.246,0.857-0.592,1.386-0.594
	c0.471-0.003,0.946-0.128,1.256-0.507c0.121-0.148,0.3-0.444,0.279-0.874c1.106-0.932,2.232-1.809,3.105-2.977
	c0.072,0.36,0.184,0.754,0.345,1.182c0.398,1.057,1.12,2.452,2.477,2.237c1.339-0.212,1.806-1.872,2.109-2.979
	c0.051-0.186,0.09-0.37,0.118-0.554c0.883,1.055,2.09,2.276,2.896,2.874C50.211,42.909,50.159,43.244,50.345,43.603
	C50.673,44.239,50.159,43.244,50.345,43.603z M37.961,66.309c-0.026-0.073-0.057-0.153-0.089-0.237
	c1.818,1.713,4.891,1.925,7.248,1.925c2.331,0,5.613-0.241,7.27-2.136c-0.102,0.311-0.379,0.797-0.923,1.213
	c-2.074,1.59-5.202,1.76-7.704,1.578C42.171,68.536,38.64,68.175,37.961,66.309C37.935,66.236,38.388,67.483,37.961,66.309z
	 M50.676,64.124c-0.411,0.755-1.731,1.01-2.478,1.17c-1.733,0.37-3.566,0.405-5.321,0.184c-1.057-0.134-2.543-0.326-3.345-1.123
	c-0.377-0.376-0.505-0.861-1.018-1.125c-0.541-0.278-1.168-0.226-1.711,0.021c-0.512-1.601-0.924-3.254-1.229-4.907
	c1.297,1.307,2.804,2.233,4.291,3.296c1.105,0.789,2.638,1.583,3.957,1.92c2.246,0.574,4.245-0.703,6.092-1.839
	c1.675-1.029,3.452-2.153,4.757-3.639c-0.355,1.906-0.775,3.574-1.307,5.226c-0.302-0.139-0.624-0.213-0.949-0.213
	C51.677,63.094,51.026,63.479,50.676,64.124C50.279,64.852,51.026,63.479,50.676,64.124z M44.979,37.076
	c0.3,0,0.567,0.128,0.781,0.349c0.129,0.246,0.271,0.484,0.396,0.681c0.177,0.521,0.202,1.192,0.006,1.908
	c-0.172,0.628-0.385,1.646-0.977,2.043c-0.69,0.465-1.208-1.006-1.359-1.406c-0.33-0.877-0.436-1.626-0.324-2.214
	c0.331-0.436,0.583-0.802,0.743-1.126C44.466,37.173,44.717,37.076,44.979,37.076z M44.876,35.897
	c0.036-0.063,0.068-0.127,0.098-0.192c0.047,0.065,0.103,0.131,0.159,0.195C45.048,35.89,44.962,35.889,44.876,35.897
	C44.884,35.884,44.911,35.896,44.876,35.897z M47.302,35.47c-0.292-0.181-0.612-0.317-0.963-0.278
	c-0.329-0.286-0.371-0.703-0.669-1.001c-1.026-1.026-1.606,0.854-2.186,1.232c-1.052-0.193-2.085,0.504-3.204,0.185
	c-0.331-0.094-1.026-0.567-1.27-0.806c-0.52-1.545-0.752-2.844-2.735-2.587c-2.543,0.329-4.597,2.612-5.104,5.614
	c-0.09-0.041-0.178-0.079-0.258-0.111c-1.672-0.68-1.026-3.111-3.085-3.111c-0.808,0.008-1.777,0.144-2.529,0.445
	c0.353-0.512,1.08-1.042,1.035-1.729c-0.062-0.928-1.609-1.822-2.138-2.553c-0.768-1.063-1.154-2.299-1.336-3.586
	c-0.37-2.634,0.568-5.514,2.238-7.176c-0.725,3.124-0.353,5.647,1.095,7.336c0.682,0.796,1.988,1.618,2.387,0.093
	c0.344-1.313,0.313-2.721,1.39-3.727c-0.155,1.542,0.31,3.09,1.026,4.415c0.943,1.739,2.437,2.902,4.203,3.277
	c2.041,0.433,3.749-0.712,5.695-1.065c0.753-0.082,1.473,0.229,2.041,0.708c0.551,0.465,0.876,1.243,1.513,1.597
	c0.624,0.346,1.287,0.049,1.661-0.496c0.459-0.666,0.765-1.166,1.529-1.53c1.186-0.565,2.274-0.021,3.455,0.368
	c0.904,0.298,1.527,0.472,2.474,0.472c2.248,0,4.021-1.056,5.269-3.139c0.814-1.36,1.313-3.089,1.092-4.666l-0.216-0.332
	c0.009-0.011,0.017-0.022,0.026-0.032c1.972,0.404,0.777,3.865,1.945,4.834c0.163,0.134,0.351,0.2,0.563,0.2
	c1.053,0,2.22-1.901,2.577-2.966c0.472-1.404,0.468-3.32,0.01-5.274c1.567,1.599,2.4,3.898,2.286,6.315
	c-0.067,1.42-0.467,2.828-1.209,4.044c-0.354,0.578-0.783,1.11-1.281,1.569c-0.415,0.383-1.04,0.754-1.063,1.389
	c-0.024,0.644,0.685,1.13,1.013,1.619c-0.926-0.268-2.479-0.744-3.367-0.203c-1.092,0.668-0.863,2.279-2.124,2.867
	c-0.109,0.051-0.242,0.114-0.371,0.178c-0.08-0.892-0.406-1.557-0.672-2.391c-0.232-0.737-1.761-2.309-2.475-2.547
	c-1.075-0.379-2.175-1.068-3.366-0.632c-0.557,0.204-0.857,0.703-0.929,1.275c-0.094,0.759-0.307,1.274-0.974,1.738
	c-0.287,0.2-0.944,0.401-1.766,0.401C47.904,35.704,47.476,35.578,47.302,35.47C47.061,35.321,47.476,35.578,47.302,35.47z
	 M37.071,35.391c-0.006-0.025-0.012-0.06-0.016-0.098C37.059,35.326,37.063,35.358,37.071,35.391z M32.083,24.81
	c0.981-0.678,1.785-1.579,2.805-2.229c1.153-0.735,2.446-1.343,3.809-1.559c1.381-0.219,2.847,0.041,4.141,0.54
	c0.693,0.266,1.362,0.75,2.13,0.75c0.743,0,1.415-0.445,2.072-0.733c3.816-1.671,7.553,0.296,10.395,2.859
	c0.198,0.044,0.372,0.129,0.532,0.262c-0.125,0.872-0.414,1.811-0.869,2.572c-0.88,1.469-2.002,2.152-3.528,2.152
	c-2.436,0-4.305-1.832-6.802-0.642c-0.792,0.377-1.365,0.816-1.817,1.406c-1.229-1.417-3.055-2.237-4.915-1.729
	c-1.393,0.381-2.942,1.267-4.411,0.956c-1.177-0.249-2.186-1.052-2.841-2.259C32.343,26.348,32.191,25.748,32.083,24.81
	C32.229,24.709,32.195,25.783,32.083,24.81z M27.485,61.429c-0.105,0.267-0.277,0.948-0.353,1.271
	c-0.569,2.413-1.475,3.168-4.215,3.509c-0.498,0.062-1.009,0.114-1.486,0.152c2.997-3.352,4.04-7.391,4.632-11.727
	c0.172-1.254,0.207-2.548,0.284-3.814c0.067-1.083,0.403-2.693,0.008-3.736c-0.394-1.034-1.438-1.01-2.369-0.987
	c0.958-0.976,1.958-2.151,2.286-2.792c0.906-1.773,0.617-4.613,0.697-6.564c0.233-0.041,0.464-0.074,0.637-0.092
	c0.238,1.16,1.36,2.469,2.543,2.95c0.664,0.27,1.32,0.793,2.069,0.475c0.892-0.38,0.849-1.505,1.033-2.297
	c0.376-1.618,1.512-3.318,3.284-3.548c0.026-0.004,0.053-0.007,0.078-0.01c0.083,0.437,0.311,0.809,0.468,1.218
	c0.279,1.074,2.223,2.005,2.644,2.124c0.566,0.161,1.184,0.17,1.769,0.152c-0.593,0.753-1.143,1.504-1.84,2.165
	c-0.724,0.686-2.059,1.361-2.371,2.365c-1.283,0.159-2.307,1.177-3.498,1.619c-1.585,0.59-1.843,1.503-1.777,3.087
	c0.093,2.26,0.233,4.443,0.946,6.596c-0.349,0.626,0.038,1.694,0.144,2.346c0.168,1.037,0.337,2.074,0.534,3.104
	c0.327,1.714,0.76,3.433,1.31,5.089c-1.743-2.193-2.948-4.697-4.355-7.097c-0.146-0.248-0.447-0.764-1.101-0.768
	c-1.075,0-1.329,1.356-1.388,1.939C27.995,59.175,27.863,60.467,27.485,61.429C27.38,61.695,27.619,61.087,27.485,61.429z
	 M55.247,64.085c1.021-3.106,1.61-6.328,2.025-9.565c0.07-0.551,0.276-1.173,0.145-1.726c-0.138-0.576,0.118-1.084,0.301-1.652
	c0.365-1.136,0.391-2.411,0.42-3.595c0.052-2.017,0.066-2.626-1.173-3.238c-0.63-0.312-1.276-0.589-1.889-0.933
	c-0.785-0.44-1.594-1.048-2.509-1.136c-0.006-0.045-0.015-0.091-0.026-0.137c-0.185-0.753-1.088-1.103-1.619-1.589
	c-0.925-0.851-1.76-1.786-2.522-2.783c1.034,0.021,2.194-0.16,3.062-0.762c1.004-0.697,1.685-1.745,1.807-2.741
	c0.594,0.063,1.052,0.394,1.603,0.596c0.295,0.186,1.087,1.005,1.257,1.303c0.235,0.689,0.508,1.21,0.572,1.943
	c0.049,0.569,0.182,2.084,1.532,2.084c0.62,0,1.173-0.382,1.716-0.635c1.009-0.471,1.848-1.425,2.243-2.554
	c0.031-0.087,0.076-0.216,0.118-0.327c0.201,0.029,0.414,0.069,0.614,0.109c0.083,1.854,0.105,3.821,0.381,5.655
	c0.223,1.481,1.395,2.663,2.414,3.683l-1.262-0.044l-0.953,0.955c0.011,6.729,0.261,14.127,5.014,19.377
	c-1.35-0.098-2.926-0.234-4.171-0.816c-1.822-1.971-2.196-4.979-2.581-7.554c-0.102-0.672-0.448-1.371-1.215-1.371
	c-1.059,0-1.506,1.381-1.922,2.139C57.615,60.614,56.511,62.402,55.247,64.085C55.263,64.036,55.383,63.903,55.247,64.085z
	 M27.996,65.853c1.075-1.529,1.696-4.061,1.867-5.929c1.118,2.065,2.394,4.383,4.05,6.067C32.131,65.88,29.339,65.809,27.996,65.853
	C28.493,65.146,29.339,65.809,27.996,65.853z M59.612,65.867c-1.397,0.003-2.47,0.025-3.268,0.068
	c1.53-1.608,2.692-3.752,3.777-5.677c0.259,1.831,0.733,4.085,1.812,5.619C61.442,65.861,60.718,65.863,59.612,65.867
	C58.215,65.87,60.718,65.863,59.612,65.867z"/>
</svg>
