<?xml version="1.0" encoding="utf-8"?>
<!-- Generator: Adobe Illustrator 16.0.0, SVG Export Plug-In . SVG Version: 6.00 Build 0)  -->
<!DOCTYPE svg PUBLIC "-//W3C//DTD SVG 1.1//EN" "http://www.w3.org/Graphics/SVG/1.1/DTD/svg11.dtd">
<svg version="1.1" id="Layer_1" xmlns="http://www.w3.org/2000/svg" xmlns:xlink="http://www.w3.org/1999/xlink" x="0px" y="0px"
	 width="90px" height="90px" viewBox="0 0 90 90" enable-background="new 0 0 90 90" xml:space="preserve">
<g>
	<path d="M77.648,45.431c-0.405-0.839-1.233-1.45-1.918-2.047c-1.205-1.051-2.368-2.142-3.554-3.215
		c-1.003-0.91-2.02-1.803-3.027-2.704c-0.528-0.472-1.082-0.913-1.617-1.377c-0.3-0.258-0.99-0.667-1.146-1.043
		c-0.049-0.117,1.706-1.119,1.869-1.215c1.004-0.592,2.024-1.214,2.752-2.133c0.32-0.4,0.487-1.178,0.376-1.743
		c-0.218-1.108-0.664-1.478-2.615-2.171c-3.127-1.108-6.371-1.982-9.693-2.204c-1.438-0.095-2.883-0.065-4.315,0.094
		c-0.603,0.067-1.231,0.244-1.836,0.249c-0.221,0.002-0.94-1.259-1.087-1.453c-1.469-1.945-3.062-3.838-4.792-5.558
		c-0.858-0.853-1.748-1.677-2.665-2.465c-0.489-0.422-1.131-1.141-1.774-1.327c-1.858-0.54-3.241,0.825-3.246,3.206
		c-0.001,0.489-0.008,0.509-0.132,0.418c-1.911-1.401-3.97-2.736-6.06-3.861c-1.059-0.57-2.141-1.101-3.227-1.617
		c-0.759-0.36-1.568-0.837-2.39-1.04c-0.759-0.187-0.738-0.187-1.513,0.026c-0.982,0.27-1.404,0.706-1.607,1.666
		c-0.296,1.415-0.012,3.098,0.08,4.521c0.158,2.417,0.379,4.831,0.666,7.235c0.127,1.074,0.276,2.146,0.442,3.216
		c0.089,0.561,0.228,0.652-0.34,0.685c-0.83,0.051-1.662,0.057-2.492,0.085c-1.563,0.055-3.126,0.153-4.68,0.333
		c-0.896,0.104-2.021,0.139-2.842,0.561c-1.11,0.575-1.357,2.53-0.47,3.714c0.994,1.328,2.416,2.426,3.693,3.464
		c0.169,0.139,1.237,0.807,1.237,1.06c0,0.281-1.113,0.988-1.302,1.144c-1.328,1.099-2.633,2.228-3.925,3.367
		c-0.596,0.526-1.218,1.021-1.839,1.52c-0.525,0.421-1.119,0.827-1.423,1.446c-0.434,0.885-0.193,1.756,0.015,2.661
		c2.147,2.086,4.813,3.587,7.436,5c0.93,0.502,1.881,0.963,2.809,1.462c0.194,0.104,0.402,0.134,0.369,0.361
		c-0.078,0.543-0.164,1.085-0.244,1.628c-0.151,1.036-0.293,2.074-0.403,3.114c-0.058,0.557-0.186,1.195-0.098,1.754
		c0.365,2.263,2.344,2.953,4.035,1.406l0.626-0.572c-0.008,0.545,0.071,1.073,0.16,1.608l-0.698,0.661
		c-4.35,4.138-3.967,7.72,1.13,10.574c4.063,2.275,14.002,4.848,16.361,4.233c1.789-0.465,2.226-2.51,0.844-3.959
		c-0.307-0.322-0.133-0.303,0.22-0.213c0.766,0.194,1.498,0.242,2.275,0.057c0.689-0.162,0.694-0.157,0.251,0.312
		c-1.024,1.083-0.91,2.807,0.234,3.514c0.714,0.441,1.613,0.441,2.423,0.381c1.723-0.129,3.429-0.549,5.104-0.946
		c3.875-0.92,7.835-2.077,11.166-4.328c2.445-1.65,3.218-4.278,1.964-6.674c-0.729-1.391-1.985-2.462-3.072-3.571
		c0.371-1.471,0.266-3.121,0.37-4.629c0.03-0.44,0.232-0.857,0.39-0.808c0.058,0.018,0.245,0.086,0.417,0.15
		c1.19,0.451,2.791-0.019,3.139-0.923c0.334-0.864,0.292-1.538-0.186-3.013c-0.225-0.695-0.248-0.644,0.441-1.019
		c2.936-1.593,5.652-3.64,8.252-5.727C77.989,47.947,78.249,46.671,77.648,45.431C77.367,44.846,78.249,46.671,77.648,45.431z
		 M66.048,57.164c-0.668-0.063-1.242-0.704-1.908-0.704c-0.212,0.024-0.312,0.199-0.407,0.373c-0.308,0.549-0.612,1.095-0.947,1.627
		c-0.375,0.598-0.498,1.2-0.567,1.899c-0.077,0.763-0.122,1.529-0.172,2.293c-0.027,0.384,0.025,0.972-0.188,1.328
		c-0.398,0.63-1.893-1.855-2.517-1.052c-0.178,0.226-0.27,0.386-0.256,0.542c-0.016,0.078-0.015,0.146,0.011,0.188
		c0.04,0.063-0.712,1.099-0.788,1.221c-0.247,0.391-0.498,0.78-0.757,1.165c-0.148,0.219-1.129,1.688-1.336,1.117
		c-0.213-0.582,0.308-1.749,0.422-2.345c0.203-1.037,0.386-2.077,0.513-3.127c0.218-1.828,0.341-3.67,0.403-5.508
		c0.023-0.744,0.039-1.491,0.019-2.236c-0.01-0.408,0.023-0.925-0.139-1.31c-0.518-1.218-2.615-0.216-3.451,0.03
		c-1.277,0.377-2.538,0.778-3.772,1.285c-0.192,0.077-1.247,0.691-1.247,0.237c0-0.559,1.141-0.972,1.534-1.121
		c1.28-0.486,2.711-0.78,4.059-1.004c1.903-0.32,1.894-0.267,0.288-1.639c-1.09-0.932-2.113-1.94-3.032-3.04
		c-0.132-0.157-0.495-0.737-0.771-0.542c-0.367,0.259-0.561,0.933-0.749,1.313c-0.37,0.75-3.915,6.495-4.47,5.87
		c-0.519-0.582-0.735-1.643-0.972-2.361c-0.181-0.555-0.349-1.113-0.495-1.679c-0.131-0.498-0.172-1.066-0.382-1.537
		c-0.203-0.459-0.553,0.311-0.648,0.475c-0.256,0.432-0.54,0.847-0.828,1.256c-0.303,0.427-0.612,0.849-0.94,1.255
		c-0.142,0.18-0.352,0.534-0.579,0.621c-0.395,0.146-0.827-1.839-0.875-2.041c-0.08-0.338-0.407-3.063-0.719-2.948
		c-0.382,0.138-0.707,0.632-0.977,0.912c-0.32,0.335-0.655,0.657-0.99,0.978c-0.666,0.634-1.337,1.279-2.063,1.845
		c-1.18,0.924-1.146,1.061,0.318,1.287c2.33,0.358,5.194,1.369,5.458,1.928c0.391,0.82-1.033,0.046-1.325-0.074
		c-0.735-0.301-1.482-0.576-2.235-0.831c-0.644-0.22-1.302-0.386-1.954-0.577c-0.86-0.25-1.634-0.622-2.444-0.066
		c-0.304,0.206-0.515,0.407-0.568,0.54c-0.275,0.66-0.063,1.791-0.05,2.481c0.023,1.299,0.067,2.597,0.149,3.893
		c0.064,1.003,0.213,1.996,0.347,2.991c0.112,0.836,0.255,1.67,0.419,2.496c0.117,0.592,0.465,1.335,0.453,1.93
		c-0.009,0.496-0.083,0.981-0.557,0.423c-0.424-0.497-0.78-1.049-1.122-1.604c-0.496-0.807-0.945-1.604-1.342-2.448
		c-0.439-0.987-1.537,0.275-2.006,0.636c-0.818,0.606-0.814-0.235-0.856-0.912c-0.058-1.032-0.067-2.075-0.199-3.103
		c-0.062-0.477-0.177-0.884-0.511-1.24c-0.488-0.517-1.383,0.844-1.665,1.146c-0.539,0.586-1.051,1.214-1.637,1.754
		c-0.122,0.111-0.476,0.441-0.559,0.122c-0.115-0.44,0.061-1.083,0.109-1.523c0.102-0.909,0.222-1.818,0.357-2.724
		c0.16-1.063,0.993-2.963-0.314-3.509c-1.589-0.67-3.128-1.548-4.637-2.386c-1.755-1.013-3.53-2.038-5.129-3.289
		c-0.646-0.531-0.647-0.754-0.312-1.013c3.161-2.395,6.027-5.178,9.125-7.654c0.929-0.74,0.945-0.67-0.409-1.713
		c-1.943-1.497-3.36-2.72-4.746-4.1c-1.079-1.076-1.059-1.162,0.317-1.308c1.982-0.206,3.97-0.395,5.966-0.433
		c0.953-0.018,1.907-0.003,2.862,0.011c0.406,0.004,1.217,0.16,1.584-0.036c0.291-0.163,0.044-1.033,0.006-1.254
		c-0.134-0.764-0.287-1.524-0.392-2.292c-0.206-1.48-0.444-2.951-0.573-4.44c-0.141-1.643-0.283-3.284-0.405-4.93
		c-0.098-1.321-0.352-2.719-0.223-4.044c0.083-0.458,0.338-0.505,0.905-0.275c1.661,0.731,3.282,1.613,4.859,2.51
		c0.717,0.407,1.41,0.853,2.121,1.267c0.732,0.43,1.398,0.992,2.149,1.382c1.144,0.593,2.163,1.58,3.175,2.372
		c0.162,0.127,1.156,1.085,1.4,0.995c0.199-0.064,0.2-0.444,0.218-0.602c0.088-0.8,0.094-1.61,0.125-2.414
		c0.028-0.729,0.045-1.466,0.13-2.191c0.017-0.122,0.036-0.539,0.251-0.479c0.291,0.101,0.566,0.425,0.792,0.624
		c0.524,0.46,1.028,0.944,1.527,1.434c2.253,2.212,4.334,4.538,6.205,7.079c0.343,0.467,0.847,1.576,1.511,1.687
		c0.358,0.06,0.763-0.057,1.112-0.108c0.937-0.14,1.877-0.241,2.821-0.295c2.455-0.14,4.922,0.059,7.317,0.602
		c0.628,0.144,1.25,0.305,1.866,0.487c0.513,0.151,1.194,0.531,1.73,0.531c0.277,0,0.65,0.232,0.9,0.336
		c0.294,0.12,0.788,0.233,1.021,0.461c0.35,0.344-2.178,1.749-2.466,1.938c-1.105,0.725-2.229,1.428-3.372,2.091
		c-0.632,0.366-0.604,0.448,0.489,1.348c3.906,3.212,7.583,6.678,11.38,10.015c0.948,0.832,0.965,0.876,0.506,1.303
		c-1.656,1.533-5.788,4.347-8.978,6.114c-1.044,0.577-1.071,0.641-0.729,1.598C65.714,54.988,66.638,57.244,66.048,57.164
		C66.044,57.163,66.067,57.167,66.048,57.164z M30.608,70.344c0.146,0.484,0.484,0.996,0.743,1.433
		c0.386,0.649,0.893,1.229,1.421,1.768c1.056,1.072,2.261,1.872,3.512,2.693c-2.49-0.598-4.978-1.345-7.291-2.458
		c-1.186-0.572-2.617-1.285-3.385-2.409c-0.44-0.644-0.204-1.284,0.177-1.901c1.087-1.76,2.921-3.112,4.555-4.32
		c0.228,0.37,0.441,0.75,0.67,1.121C30.155,67.861,30.189,69.443,30.608,70.344C30.729,70.74,30.189,69.443,30.608,70.344z
		 M38.194,71.373c0.377,2.298,1.661,4.058,3.161,5.748c-0.398-0.285-0.935-0.444-1.37-0.679c-0.491-0.267-0.999-0.483-1.485-0.751
		c-0.997-0.55-1.979-1.116-2.907-1.778c-1.532-1.093-2.786-2.493-3.551-4.205c-0.16-0.313-0.248-1.032,0.013-1.892
		c0.083,0.106,0.166,0.209,0.249,0.309c0.636,0.748,1.73,1.129,2.507,0.319c1.088,1.029,2.15,1.917,3.361,2.774
		C38.177,71.268,38.186,71.318,38.194,71.373C38.258,71.754,38.186,71.318,38.194,71.373z M42.389,53.418
		c-0.07-0.146-0.163-0.3-0.315-0.46c0.47-0.46,0.858-1.009,1.245-1.534c0.417,1.394,0.993,3.003,1.463,3.531
		c0.91,1.02,2.079,0.5,2.829-0.379c0.437,2.113,2.822,0.765,4.001,0.324c1.443-0.538,3.031-1.152,4.555-1.409
		c0.135,2.048-0.041,4.151-0.212,6.191c-0.101,1.205-0.24,2.403-0.447,3.594c-0.193,1.113-0.587,2.267-0.697,3.387
		c-1.241,1.419-3.149,2.42-4.673,3.505c-1.019,0.725-2.096,1.381-3.223,1.934c-0.538,0.265-1.311,0.732-1.943,0.685
		c-0.592-0.046-1.201-0.382-1.721-0.64c-1.061-0.523-2.068-1.152-3.041-1.823c-0.826-0.568-1.711-1.091-2.458-1.76
		c-0.848-0.757-1.665-1.548-2.487-2.331c-0.217-1.172-0.578-2.315-0.758-3.51c-0.138-0.903-0.284-1.822-0.366-2.732
		c-0.184-2.098-0.27-4.254-0.201-6.359c0.041-0.029,0.082-0.058,0.124-0.083c1.357,0.241,2.757,0.758,4.051,1.234
		c1.189,0.438,3.313,1.848,4.27,0.332C42.691,54.631,42.692,54.06,42.389,53.418C42.318,53.272,42.692,54.06,42.389,53.418z
		 M50.704,74.616c0-0.184,0.233-0.432,0.313-0.593c0.156-0.317,0.284-0.653,0.389-0.99c0.187-0.614,0.412-1.223,0.569-1.845
		c1.219-0.908,2.519-1.681,3.668-2.688c0.797,0.429,1.648,0.046,2.219-0.557c0.076,0.341,0.139,0.644,0.164,0.808
		c0.169,1.068-0.939,3.192-3.025,4.759c-1.263,0.948-2.565,1.783-3.982,2.486c-0.822,0.405-1.857,0.78-2.537,1.4
		c0.431-0.521,0.929-0.98,1.354-1.507C50.057,75.616,50.704,75.001,50.704,74.616z M59.573,68.507
		c-0.051-0.335-0.308-1.502-0.497-2.242c0.204-0.315,0.435-0.678,0.686-1.083c1.812,1.354,3.541,2.967,4.377,4.095
		c0.643,0.868,0.628,1.354,0.563,1.645c-0.17,0.74-0.921,1.284-1.506,1.684c-0.922,0.629-1.926,1.121-2.952,1.55
		c-2.076,0.866-4.205,1.473-6.372,2.055c0.721-0.438,1.398-0.939,2.071-1.446C58.336,72.965,59.862,70.335,59.573,68.507
		C59.522,68.172,59.862,70.335,59.573,68.507z M49.684,51.899c0.674-0.965,1.233-1.898,1.723-2.856
		c0.545,0.596,1.194,1.239,1.867,1.853C52.082,51.149,50.809,51.416,49.684,51.899C50.357,50.935,50.264,51.65,49.684,51.899z
		 M39.06,51.471c-0.58-0.186-1.186-0.351-1.781-0.487c0.434-0.392,0.911-0.836,1.338-1.248
		C38.735,50.321,38.881,50.901,39.06,51.471C38.479,51.286,39.025,51.365,39.06,51.471z M41.838,77.972
		c-0.015,0.016-0.061,0.023-0.124,0.028c0.04-0.167,0.034-0.32-0.016-0.461C41.861,77.769,41.903,77.907,41.838,77.972
		C41.823,77.987,41.903,77.907,41.838,77.972z"/>
	<path d="M29.087,57.734c-0.145-0.593-0.294-1.119-0.331-1.166c-0.25-0.329-0.754,0.463-0.875,0.605
		c-0.521,0.618-0.553,0.695-0.402,0.977c0.645,1.22,1.465,2.359,2.095,2.912c0.649,0.569,0.371-0.354,0.268-0.708
		C29.585,59.481,29.302,58.618,29.087,57.734C28.942,57.142,29.23,58.328,29.087,57.734z"/>
	<path d="M62.644,55.568c-0.427-0.228-0.68-0.367-0.847-0.367c-0.509,0-0.7,2.12-0.785,2.474c-0.259,1.084-0.761,2.208-0.89,3.31
		c-0.076,0.637,0.937-0.512,1.079-0.678c0.562-0.651,0.996-1.412,1.444-2.144C63.813,56.255,63.813,56.19,62.644,55.568
		C62.217,55.341,63.813,56.19,62.644,55.568z"/>
</g>
</svg>
