<?xml version="1.0" encoding="utf-8"?>
<!-- Generator: Adobe Illustrator 16.0.0, SVG Export Plug-In . SVG Version: 6.00 Build 0)  -->
<!DOCTYPE svg PUBLIC "-//W3C//DTD SVG 1.1//EN" "http://www.w3.org/Graphics/SVG/1.1/DTD/svg11.dtd">
<svg version="1.1" id="Layer_1" xmlns="http://www.w3.org/2000/svg" xmlns:xlink="http://www.w3.org/1999/xlink" x="0px" y="0px"
	 width="90px" height="90px" viewBox="0 0 90 90" enable-background="new 0 0 90 90" xml:space="preserve">
<g>
	<path d="M76.101,49.326c-1.831-2.292-3.855-4.423-6.228-6.161c-0.538-0.394-1.574-0.742-1.428-1.525
		c0.328-1.743,0.675-3.483,0.961-5.233c0.604-3.686,1.499-8.198-1.224-11.261c-3.695-4.156-9.641-6.551-14.71-8.464
		c-5.199-1.961-9.463-3.322-14.872-1.737c-5.521,1.618-11.179,3.863-15.999,7.039c-4.176,2.751-5.943,5.576-5.472,10.526
		c0.272,2.871,0.902,5.682,1.457,8.507c0.377,1.924-1.756,2.829-3.04,3.982c-1.733,1.556-5.125,4.485-5.125,6.641
		c0,0.827,0.096,1.504,0.906,1.875c0.869,0.398,3.418-0.332,3.859,0.109c0.248,0.259-0.221,2.197-0.208,2.604
		c0.027,0.844,0.341,1.314,1.104,1.729c1.604,0.872,3.113-1.099,3.934,0.021c1.338,1.826,0.695,2.63,0.437,4.801
		c-0.153,1.288,0.003,2.691,1.484,2.922c1.03,0.16,3.336-0.075,4.836-0.606c1.566-0.555,1.605,0.039,2.785,1.206
		c3.644,3.651,7.758,7.135,13.148,7.337c4.886,0.184,8.816-2.133,12.342-5.329c1.306-1.183,2.532-2.448,3.771-3.7
		c0.301-0.303,3.549,0.845,4.305,0.92c3.59,0.358,4.594-2.5,2.86-6.377c-0.146-0.327,1.072-1.908,1.252-1.873
		c1.071,0.207,1.295,0.757,2.525,0.761c0.9,0.003,2.063-0.754,2.331-1.636c0.197-0.646-0.201-2.246,0.122-2.562
		c0.745-0.746,2.829,0.349,3.972-0.844C77.405,51.729,77.001,50.452,76.101,49.326z M21.026,28.967
		c1.229-4.243,9.025-6.42,12.548-8.163c2.483-1.222,5.62-2.216,8.339-2.693c2.387-0.416,4.392,0.218,6.708,0.944
		c4.588,1.438,9.206,3.375,13.26,5.972c2.938,1.882,4.369,3.381,4.174,6.909c-0.163,2.961-0.675,5.719-1.294,8.614
		c-1.69-1.066-3.446-1.701-5.302-2.447c-0.572-0.235-1.251-0.302-1.271-0.979c-0.021-1.063-0.053-2.697-0.305-3.673
		c-0.403-1.566-1.066-3.064-1.962-4.412c-3.761-5.657-11.166-7.915-17.466-5.467c-5.798,2.253-9.042,7.776-9.254,13.828
		c-2.313,0.959-4.59,1.952-6.709,3.303C21.812,36.906,20.414,32.879,21.026,28.967z M57.474,39.221
		c1.973,0.676,3.704,1.582,5.548,2.508c2.558,1.29,2.375,2.243,0.596,4.342c-1.264,1.491-3.198,0.943-5.034,0.179
		c-2.454-1.021-6.146-1.891-8.791-2.083c-3.83-0.279-7.139-0.101-10.979,0.146c-2.568,0.165-5.321,0.989-7.813,1.646
		c-2.235,0.59-5.208,1.833-6.749,0.167c-1.511-1.634-2.542-2.729-0.952-3.692c1.884-1.141,3.92-2.432,6.039-3.073
		c2.501-0.757,1.512-2.362,1.999-4.507c0.708-3.111,2.073-5.545,4.559-7.623c4.512-3.771,10.646-3.731,15.216-0.5
		c1.969,1.393,3.849,3.889,4.619,6.121c0.438,1.27,0.762,2.642,0.804,3.988C56.573,38.077,56.646,38.938,57.474,39.221z
		 M20.862,51.854c-0.838,0.739-1.674,1.555-1.317,2.775c-0.42,0.273-1.59,1.348-2.171,1.141c-1.066-0.381,1.589-4.891,0.171-4.814
		c-1.458,0.079-6.188,1.827-4.031-0.804c1.927-2.351,4.163-4.539,6.796-6.084c0.479,1.394,1.573,3.014,2.708,3.958
		c0.57,0.474,1.076,0.848,1.134,1.132c0.211,1.038,0.219,2.108,0.327,3.162C23.679,50.49,22.171,50.537,20.862,51.854z
		 M23.353,63.528c-1.527,0.207-0.166-2.918,0.003-3.517c1.093,0.991,2.505,1.783,3.901,2.244
		C26.059,62.84,24.68,63.348,23.353,63.528z M57.689,59.349c-0.68,0.343-1.607,2.354-2.134,2.956
		c-2.247,2.571-5.298,5.593-8.562,6.814c-4.255,1.591-8.119-0.011-11.429-2.671c-1.592-1.279-3.121-2.672-4.463-4.214
		c-1.456-1.673-2.269-2.196-4.19-3.186c1.627-0.837,0.588-4.628,0.453-6.007c-0.095-0.966-0.235-1.929-0.3-2.897
		c-0.065-0.981-0.055-0.867,1.478-1.268c5.138-1.345,10.014-2.5,15.356-2.5c4.433,0,8.917,0.133,13.132,1.625
		c1.043,0.369,2.844,0.656,2.793,1.264c-0.071,0.851-0.165,1.699-0.25,2.549c-0.154,1.55-1.41,6.079,0.072,7.309
		C60.042,59.445,57.559,59.415,57.689,59.349z M63.422,63.484c-1.303-0.244-2.548-0.683-3.714-1.321
		c1.469-0.435,2.863-1.398,3.966-2.438C63.674,60.771,65.68,63.709,63.422,63.484z M70.88,51.165
		c-2.422-0.446-1.474,0.718-1.136,2.531c0.401,2.147,0.176,2.481-1.706,1.18c-1.738-1.202,0.258-0.552-0.385-1.696
		c-0.267-0.474-0.904-0.908-1.289-1.294c-1.679-1.685-3.174-1.731-4.042,0.598c0.108-1.095-0.062-3.214,0.959-3.608
		c2.109-0.815,3.276-3.086,3.79-4.718c2.26,1.611,4.21,3.241,6.087,5.297c0.386,0.422,1.347,1.255,1.353,1.899
		C74.516,51.895,71.095,51.205,70.88,51.165z"/>
	<path d="M46.284,28.549c-3.828-0.67-7.435,0.073-9.811,3.458c-0.977,1.39-2.39,4.199-1.188,5.809
		c0.999,1.334,3.452,0.577,4.859,0.455c1.889-0.163,3.773-0.402,5.67-0.153c1.536,0.203,4.043,0.918,5.54,0.408
		C56.137,36.893,49.077,29.027,46.284,28.549z M47.158,34.913c-2.899-0.253-5.831-0.14-8.711,0.201
		c1.898-4.765,8.824-4.693,10.682,0.051C48.473,35.077,47.815,34.987,47.158,34.913z"/>
</g>
</svg>
