<?xml version="1.0" encoding="utf-8"?>
<!-- Generator: Adobe Illustrator 16.0.0, SVG Export Plug-In . SVG Version: 6.00 Build 0)  -->
<!DOCTYPE svg PUBLIC "-//W3C//DTD SVG 1.1//EN" "http://www.w3.org/Graphics/SVG/1.1/DTD/svg11.dtd">
<svg version="1.1" id="Layer_1" xmlns="http://www.w3.org/2000/svg" xmlns:xlink="http://www.w3.org/1999/xlink" x="0px" y="0px"
	 width="90px" height="90px" viewBox="0 0 90 90" enable-background="new 0 0 90 90" xml:space="preserve">
<path d="M73.076,39.198c0.279-0.573,0.911-2.217,1.135-2.814c0.323-1.282,0.157-3.114-1.117-3.821
	c-0.989-0.548-1.816,0.59-2.027-0.575c-0.571-3.15-1.779-6.371-3.619-9c-3.664-5.232-9.485-8.643-15.648-10.051
	c-14.027-3.206-30.936,3.474-33.402,19.042c-0.226,1.425-1.731,0.534-2.822,0.824c-1.449,0.385-1.217,1.473-1.137,2.635
	c0.115,1.681,1.069,3.045,1.861,4.488c0.937,1.704,2.882,3.685,3.326,5.566c0.337,1.431-0.714,3.726-0.998,5.12
	c-0.417,2.053-0.851,4.104-1.324,6.145c-0.764,3.286-3.758,7.634-0.709,10.459c2.512,2.329,6.373,3.194,9.613,3.922
	c1.81,0.407,3.616,0.705,5.456,0.923c1.692,0.201,4.075,1.646,5.709,1.069c3.487-1.229-1.228-6.465,0.007-6.845
	c1.482-0.457,3.311-0.166,4.823-0.07c2.222,0.14,4.439-0.118,6.663-0.059c1.647,0.044,5.141-0.242,3.125,2.238
	c-1.768,2.174-0.916,5.565,2.38,4.393c5.396-1.919,11.324-1.46,16.495-4.389c2.083-1.179,3.705-3.02,2.858-5.538
	c-1.03-3.065-1.915-6.055-2.588-9.231c-0.379-1.786-0.728-3.578-1.068-5.371c-0.406-2.133-0.713-2.962,0.488-4.822
	C71.448,42.053,72.354,40.68,73.076,39.198z M17.52,35.997c1.231,0.337,1.228,0.995,1.421,2.735
	C18.397,37.776,17.867,36.803,17.52,35.997z M67.643,55.209c-0.841-1.236-2.111-3.271-2.109-4.161
	c0.005-2.052,0.14-1.977,1.24-3.628c0.65,3.347,1.176,6.008,1.917,9.337C68.305,56.183,68.031,55.781,67.643,55.209z M67.5,58.887
	c-1.327,0.041-2.147,0.003-3.475-0.082c0.47-1.424,0.906-2.364,1.003-3.872C66.022,56.381,66.549,57.411,67.5,58.887z
	 M65.292,46.125c-0.002-0.219,0.21-3.088,0.249-2.721c0.334-0.091,1.035-0.276,1.286-0.34
	C66.346,43.901,65.762,45.281,65.292,46.125z M50.796,15.819c-1.551,0.018-1.636-0.052-3.171,0.181
	c-1.261,0.191-2.543,0.992-3.833,0.667c-2.934-0.739-3.223-1.013-6.296-0.916C43.027,14.129,45.253,14.254,50.796,15.819z
	 M23.938,45.75c-0.016,0.43-0.047,0.603-0.066,1.032c-1.161-1.549-1.464-2.164-2.457-3.823c0.959,0.704,1.442,0.682,2.627,0.708
	C23.982,44.494,23.969,44.922,23.938,45.75z M24.097,54.169c0.087,1.875,0.396,2.881,0.97,4.662
	c-1.591,0.122-2.31,0.044-3.901-0.003C22.348,57.055,22.888,55.924,24.097,54.169z M22.151,48.146
	c0.913,1.229,1.891,2.104,0.863,3.783c-1.02,1.666-1.429,2.504-2.494,4.14C21.141,53.24,21.633,50.994,22.151,48.146z
	 M22.759,67.053c-1.255-0.449-2.674-0.942-3.726-1.79c-1.434-1.155-0.07-2.61,0.311-4.045c0.165-0.608,2.455-0.271,3.188-0.269
	c2.928,0.008,2.845-0.534,3.823,1.508c1.516,3.163,2.579,4.056,4.896,6.583C27.823,68.527,26.032,68.226,22.759,67.053z
	 M34.403,63.806c-0.388-1.772-0.503-1.68-0.889-3.318c1.617,1.582,1.961,1.805,3.988,2.856
	C36.177,63.476,35.695,63.463,34.403,63.806z M45.015,63.065c-2.972,0.087-4.815-0.707-7.346-2.012
	c-1.979-1.014-4.691-3.517-5.169-5.772c-0.842-3.974-1.282-8.074-1.805-12.056c1.072,0.346,2.276,0.588,3.398,0.243
	c1.873-0.575,0.491-2.733,2.234-2.922c0.784-0.085,1.643-0.261,2.219,0.406c0.43,0.497,0.997,0.508,1.723,0.4
	c1.086-0.161,1.271-0.629,2.116,0.396c0.538,0.653,1.031,1.522,1.943,1.683c1.143,0.201,1.686-1.019,2.288-1.723
	c0.499-0.582,1.059-0.527,1.688-0.374c0.877,0.213,1.847-0.131,2.383-0.727c1.085,0.093,1.94,0.22,3.025,0.3
	c-0.002,0.739-0.186,1.443,0.256,2.091c1,1.467,3.564,0.313,4.844-0.031c-0.103,3.184-0.691,6.152-1.125,9.313
	c-0.414,3.024-2.442,4.961-4.722,6.818C50.534,61.081,48.258,62.969,45.015,63.065z M48.876,35.275
	c0.479,0.037,1.332-0.254,1.791-0.483c-0.604,1.104-0.208,1.958,0.604,2.521c0.493,0.341,2.656,1.234,2.647,1.416
	c-1.084,0.064-3.046-0.712-3.919,0.006c-0.275,0.225-0.578,0.516-1.156,0.656c-0.579,0.141-1.011-0.208-1.011-0.208
	C48.822,38.181,49.025,36.641,48.876,35.275z M53.882,36.093c-0.631-0.117-0.89,0.018-1.026-0.426
	c-0.25-0.813,0.689-1.431,0.302-2.579c-0.611-1.808-3.566-0.897-4.566,0.015c-0.384-1.546-1.118-2.481-2.528-2.979
	c2.231-0.889,3.144-2.336,5.708-1.583c1.278,0.375,1.653,0.574,1.855,2.479C53.797,32.627,53.894,35.232,53.882,36.093z
	 M44.508,39.625c-1.298-1.174-2.529-2.172-2.125-4.002c0.336-1.513,1.553-3.583,3.173-2.185
	C47.969,35.521,46.108,38.415,44.508,39.625z M50.7,26.242c-1.113-0.175-1.7,0.029-2.764,0.54c-1.044,0.502-2.253,1.449-3.358,1.624
	c-2.688-0.885-4.891-3.016-7.834-1.5c0.91-1.762,2.465-3.167,4.602-2.456c1.163,0.388,2.381,3.302,3.685,2.583
	c1.379-0.761,1.577-2.361,3.438-2.596c1.489-0.188,2.448,0.875,3.625,2.219C51.673,26.528,50.684,26.24,50.7,26.242z M38.167,28.583
	c2.104-0.3,3.131,0.692,4.938,1.521c-1.811,0.624-1.957,1.168-2.573,2.935c-0.87-0.91-2.43-1.743-3.597-0.904
	c-1.974,1.417,0.503,2.47-1.357,3.678c0.063-2.01,0.109-3.657,0.485-5.594C36.345,28.763,37.245,28.763,38.167,28.583z
	 M38.344,36.391c0.516-0.484,0.339-1.073,0.178-1.745c0.844,0.359,0.833,0.911,1.646,1.021c-0.277,1.465-0.231,2.144,0.753,3.241
	c-0.42-0.179-0.936,0.902-2.045-0.252c-0.666-0.693-2.446,0.091-3.69,0.093C35.169,38.554,37.526,37.158,38.344,36.391z
	 M50.929,63.278c2.52-1.609,3.588-2.552,5.655-4.695c-0.42,2.132-0.82,3.072-1.521,5.073C54.933,63.965,51.657,63.341,50.929,63.278
	z M58.417,59.667c0.581-3.06,1.263-5.757,1.678-8.673c0.399-2.811,0.812-5.883,0.855-8.722c0.054-3.408-3.396-0.64-5.169-0.896
	c-0.122-4.991,0.918-10.091-1.323-14.75c-1.98-4.119-6.427-6.063-9.802-2c-4.031-4.938-9.376-1.567-10.219,2.969
	c-0.736,3.959-1.036,7.646-1.125,11.75c-0.041,1.867,0.502,2.506-1.529,1.866c-4.342-1.363-2.956,3.089-2.613,5.834
	c0.863,6.929,1.57,14.12,4.244,20.654c-3.901-2.965-6.63-8.352-7.301-13.127c-0.386-2.744-0.119-5.691,0.115-8.442
	c0.117-1.374,0.742-4.115-1.23-4.438c-2.447-0.402-3.938-1.127-4.125-3.834c-0.149-2.167,0.491-5.101,1.013-7.238
	c1.223-5.005,5.035-10.294,10.038-12.074c2.575-0.916,5.244-0.794,7.924-0.611c1.309,0.089,2.402,0.542,3.645,0.901
	c1.682,0.486,3.124-0.484,4.76-0.736c5.587-0.86,10.734,0.408,14.739,4.566c3.535,3.674,5.194,9.425,5.089,14.389
	c-0.023,1.091,0.111,2.686-0.744,3.538c-0.921,0.916-2.388,0.591-3.392,1.252c-1.476,0.971-0.494,5.56-0.411,7.016
	c0.604,6.56-2.741,14.397-7.381,18.808C57.186,65.331,57.941,62.172,58.417,59.667z M70.229,62.3
	c0.59,1.554,0.883,2.306-0.631,3.278c-1.182,0.76-2.604,1.209-3.929,1.649c-1.927,0.639-3.91,1.086-5.904,1.457
	c-0.611,0.114-0.428,0.028-1.264,0.19c1.656-1.952,3.007-3.399,4.166-6.167c0.916-2.188,0.795-1.885,3.59-1.765
	c0.836,0.036,1.742,0.091,2.577-0.006C70.097,60.791,69.784,61.129,70.229,62.3z M70.796,35.977c0.048,0.82-0.6,1.186-0.714,1.398
	C70.111,36.574,69.885,36.229,70.796,35.977z"/>
</svg>
