<?xml version="1.0" encoding="utf-8"?>
<!-- Generator: Adobe Illustrator 16.0.0, SVG Export Plug-In . SVG Version: 6.00 Build 0)  -->
<!DOCTYPE svg PUBLIC "-//W3C//DTD SVG 1.1//EN" "http://www.w3.org/Graphics/SVG/1.1/DTD/svg11.dtd">
<svg version="1.1" id="Layer_1" xmlns="http://www.w3.org/2000/svg" xmlns:xlink="http://www.w3.org/1999/xlink" x="0px" y="0px"
	 width="90px" height="90px" viewBox="0 0 90 90" enable-background="new 0 0 90 90" xml:space="preserve">
<path d="M73.502,41.623c-1.54-3.034-2.705-5.167-4.576-8.008c0,0.006,4.208,1.784,4.418,1.586c0.938-0.877-3.867-7.32-4.523-8.183
	c-0.385-0.507-2.575-2.821-3.82-4.164c-0.579-0.625,2.662-0.103,3.458-0.114c2.347-0.033,2.958-0.167,1.498-1.092
	c-5.077-3.217-10.965-5.269-16.476-7.62c-4.164-1.776-8.583-0.611-13.005-0.243c-1.917,0.159-5.151-0.216-6.899,0.65
	c-1.028,0.509-1.938,1.656-2.759,2.417c-1.396,1.294-3.088,3.654-5.033,4.136c-2.501,0.62-3.106,0.911-4.326,3.302
	c-2.755,5.401-5.124,12.328-5.562,18.394c-0.125,1.729,2.468-1.725,2.944-1.488c0.586,0.291,1.458,4.108,0.664,4.46
	c-2.269,1.004-2.703,4.276-2.343,6.387c0.228,1.333,0.729,2.613,1.394,3.787c0.428,0.757,2.056,2.147,2.113,2.984
	c-0.009-0.14-8.475-2.878-6.418,2.181c1.032,2.538,2.456,5.689,3.542,8.204c1.175,2.724,1.787,3.792,3.374,5.801
	c2.797,3.541,5.018-5.773,5.314-6.951c0.21-0.84,0.81-2.955,0.937-3.559c-0.016,0.077,4.458,4.5,6.417,5.917
	c4.584,3.315,8.717,4.322,12.555,3.084c3.875-1.25,7.834-4.126,10.153-6.417c1.162-1.146,2.099-2.626,2.715-0.712
	c0.574,1.78,1.78,11.424,5.336,9.262c0.996-0.604,1.563-2.208,2.02-3.172c0.699-1.476,1.398-2.948,2.096-4.423
	c0.639-1.35,1.337-2.503,1.979-3.852c0.65-1.367,2.697-4.393,1.168-5.766c-1.185-1.063-5.961,0.891-6.174,0.389
	c-0.576-1.353,2.856-1.523,2.866-1.571c0.493-2.356-0.479-5.662-0.737-8.044c-0.099-0.903-1.576-6.718-1.276-6.996
	c0.487-0.452,4.812,1.87,5.381,2.104c0.317,0.131,2.556,1.356,2.933,0.983C75.397,44.737,73.742,42.093,73.502,41.623z
	 M66.153,61.083c0.207-0.296,4.037-0.968,4.037-0.903c0,0.563-1.682,4.363-2.203,4.363C67.596,64.542,65.915,61.424,66.153,61.083z
	 M50.016,47.725c1.465-0.002,1.783-0.002,3.188,0c1.056,0,2.993-0.248,3.979,0.22c2.256,1.069,1.604,2.356,0.599,4.17
	c-0.666,1.201-0.939,1.147-2.24,1.147c-1.583,0-7.118,0.363-7.536-0.293c-1.459-2.293-1.859-2.854-0.334-4.293
	C48.831,47.586,49.139,47.725,50.016,47.725z M44.203,43.991c1.157,0.696,2.01,1.137,3.125,1.9c0.28,0.19-0.655,0.924-0.983,1.209
	c-0.773,0.675-1.427,1.308-2.177,1.225c-0.565-0.063-1.191,0.128-1.586-0.751c-0.679-1.513-2.104-3.794-2.142-5.48
	C40.433,41.771,43.993,43.865,44.203,43.991z M38.35,53.042c-1.337,0.962-6.279,0.416-7.943,0.386
	c-0.859-0.017-1.36-0.207-2.281-1.734c-0.781-1.297-0.789-2.105,0.21-3.119c0.797-0.809,3.274-0.584,8.04-0.615
	C39.188,47.941,40.739,50.868,38.35,53.042z M26.855,46.736c0.604-2.204,1.061-5.989,2.345-7.217
	c0.331,0.113,3.947,4.932,4.404,5.791c0.583,1.098-2.426,0.77-4.938,0.973C27.896,46.344,26.552,47.842,26.855,46.736z
	 M19.404,62.762c-0.175,0.328-0.862,2.328-1.385,1.438c-0.632-1.076-1.166-2.234-1.648-3.384c-0.583-1.388,1.222-0.525,2.035-0.323
	C20.259,60.953,20.302,61.08,19.404,62.762z M21.667,72.658c-0.336-0.692-1.693-3.106-1.542-3.958
	c0.077-0.43,3.124,0.109,3.292,0.833C23.497,69.875,22.9,75.202,21.667,72.658z M25.392,64.459c-0.312,1.031-0.724,2.99-1.353,1.284
	c-0.445-1.208-1.028-2.358-1.542-3.539c-0.545-1.243,2.06-0.302,2.526-0.12C26.167,62.533,25.743,63.299,25.392,64.459z
	 M58.692,62.02c-1.426,2.756-4.221,5.041-6.586,6.949c-4.057,3.272-9.648,5.008-15.063,1.771c-2.826-1.689-4.583-3.255-6.868-5.564
	c-0.825-0.834-1.69-1.683-2.283-2.707c-0.335-0.58-0.667-2.246-1.461-2.246c-1.934,0-3.718-2.088-4.827-3.346
	c-1.724-1.955-3.557-5.066-2.48-7.598c1.346-3.164,2.007,0.855,2.341,2.326c0.107,0.471,1.297,5.273,1.64,5.219
	c0.365-0.059,1.13-2.332,1.359-2.128c0.908,0.806,0.365,2.669,1.927,4.06c0.109-1.141,0.373-4.354,0.4-5.061
	c0.059-1.523,0.948,0.509,1.599,0.816c1.833,0.887,5.283,0.541,7.392,0.541c1.135,0,2.597-0.021,3.544-0.821
	c0.279-0.235,0.946-1.933,1.281-1.722c0.679,0.429,1.27,1.072,1.853,1.615c1.851,1.725,3.635,3.526,5.547,5.184
	c0.037,0.031,1.077,0.955,0.895,0.396c-0.396-1.219-1.215-2.39-1.822-3.505c-0.688-1.26-1.459-2.123-2.445-4.282
	c-0.165-0.359-0.674-1.156-0.32-1.365c0.356-0.209,0.646,0.418,1.546,2.109c0.563,1.188,0.975,1.791,2.271,1.947
	c1.756,0.212,3.137,0.139,4.901,0.131c1.198-0.005,3.556,0.119,4.547,0.047c0.442-0.031,1.938-1.469,1.915-1.104
	c-0.049,0.777-0.771,4.875-0.086,5.213c0.244,0.121,2.351-4.373,2.83-4.446c0.959-0.146,2.035,1.129,2.556,1.455
	c0.992,0.62-0.849,1.795-1.298,2.183c-0.964,0.826-2.104,1.735-3.331,2.135C59.114,60.564,59.199,61.041,58.692,62.02z
	 M62.035,66.221c-0.552,1.069-0.729-0.056-0.925-0.688c-0.121-0.397-1.118-2.794-0.741-3.06c0.345-0.242,3.354-1.285,3.547-0.785
	C64.206,62.461,62.389,65.534,62.035,66.221z M65.43,70.359c-0.457,1.022-0.912,2.071-1.476,3.041
	c-0.504,0.866-0.991-1.731-1.047-1.917c-0.556-1.824,0.356-1.68,1.981-2.104C66.007,69.088,65.791,69.549,65.43,70.359z"/>
</svg>
