<?xml version="1.0" encoding="utf-8"?>
<!-- Generator: Adobe Illustrator 16.0.0, SVG Export Plug-In . SVG Version: 6.00 Build 0)  -->
<!DOCTYPE svg PUBLIC "-//W3C//DTD SVG 1.1//EN" "http://www.w3.org/Graphics/SVG/1.1/DTD/svg11.dtd">
<svg version="1.1" id="Layer_1" xmlns="http://www.w3.org/2000/svg" xmlns:xlink="http://www.w3.org/1999/xlink" x="0px" y="0px"
	 width="90px" height="90px" viewBox="0 0 90 90" enable-background="new 0 0 90 90" xml:space="preserve">
<g>
	<path d="M69.825,26.434c-0.462-0.822-2.236-1.159-4.192-0.795c-2.226,0.413-4.698,1.466-5.231,2.226
		c-0.414,0.591,0.207,1.577,2.098,3.334c1.762,1.638,2.748,2.756,3.93,4.458c1.067,1.538,1.152,1.57,1.614,0.612
		C69.564,33.104,70.542,27.711,69.825,26.434z"/>
	<path d="M74.928,31.66c0.809-4.521,0.578-7.521-0.71-9.236c-2.242-2.985-11.58-2.222-17.064,1.394
		c-0.927,0.611-0.878,0.6-1.464,0.341c-0.37-0.163-0.476-0.263-0.659-0.615c-2.149-4.141-6.744-6.489-11.152-5.698
		c-2.863,0.514-5.304,2.144-7.019,4.687l-0.479,0.711l-1.142,0.384l-1.142,0.384l-0.797-0.481
		c-5.047-3.046-12.609-3.89-15.931-1.777c-2.563,1.629-2.396,8.702,0.39,16.549c0.411,1.157,0.413,0.968-0.028,2.188
		c-6.421,17.749,7.349,36.256,26.977,36.256c13.131,0,24.061-8.078,27.633-20.424c1.195-4.13,1.149-9.626-0.12-14.162l-0.257-0.919
		l0.174-0.342C72.994,39.222,74.42,34.497,74.928,31.66z M69.648,42.297c0.264,0.793,0.735,2.973,0.931,4.31
		c0.059,0.403,0.104,1.554,0.105,2.697c0.02,17.304-17.822,29.271-34.984,23.468c-13.711-4.638-20.744-19.426-15.452-32.49
		c0.336-0.828,0.326-1.109-0.078-2.195c-2.191-5.891-3.011-12.485-1.75-14.064c1.76-2.203,10.201-0.95,14.383,2.135
		c0.748,0.552,0.824,0.553,2.229,0.021c0.608-0.229,1.446-0.513,1.862-0.629c0.906-0.254,0.97-0.309,1.764-1.517
		c2.098-3.189,5.402-4.593,8.763-3.72c2.283,0.593,4.074,2.081,5.38,4.468l0.575,2.877c-0.022,0.87-0.146,1.272-0.436,2.218
		c-0.09,0.294-0.194,0.635-0.314,1.051c-0.379,1.315-0.445,1.834-0.114,2.515c0.097,0.2,0.291,0.604,0.691,0.604
		c0.025,0,0.052-0.002,0.079-0.005c0.481-0.062,0.583-0.561,0.699-1.139c0.241-1.189,0.771-1.633,1.957-1.635
		c0.646,0,1.203-0.001,1.203-0.566c0-0.556-0.564-0.891-1.174-1.173c-0.618-0.283-0.618-0.283-0.736-0.984
		c-0.012-0.068-0.208-1.214-0.471-2.1c0.089,0.037,0.184,0.077,0.286,0.119c1.55,0.648,1.599,0.65,2.208,0.113
		c3.691-3.265,12.483-4.956,14.815-2.851c1.642,1.485,0.569,9.288-2.169,15.765C69.285,41.044,69.273,41.17,69.648,42.297z"/>
	<path d="M29.861,27.512c-1.948-1.469-5.831-2.375-7.884-1.84c-0.777,0.203-0.979,0.372-1.199,1.013
		c-0.482,1.398,0.198,5.597,1.352,8.353c0.343,0.816,0.407,0.802,1.259-0.297c1.712-2.212,3.648-4.047,5.935-5.629
		C30.571,28.25,30.625,28.088,29.861,27.512z"/>
	<path d="M58.084,34.037c-0.593-0.088-0.778,0.575-1.04,1.489c-1.356,4.736-6.29,6.98-11.995,5.457
		c-0.924-0.246-1.669-0.533-2.042-0.787c-0.203-0.137-0.57-0.35-0.836-0.484c-0.204-0.104-0.537-0.336-0.713-0.497
		c-0.229-0.211-0.541-0.466-0.707-0.582c-1.808-1.249-3.12-4.663-3.12-8.115c0-1.612,0-2.046-0.491-2.185
		c-0.097-0.027-0.429-0.088-0.668,0.3h0c-0.033,0.053-0.087,0.142-0.234,0.804c-0.068,0.31-0.22,0.91-0.338,1.339
		c-0.223,0.809-0.31,4.184-0.007,4.836c0.024,0.065,0.098,0.339,0.175,0.722c0.851,4.233,4.684,7.462,9.768,8.227
		c0.917,0.138,1.795,0.206,2.637,0.206c3.015,0,5.568-0.886,7.75-2.679c1.446-1.188,2.429-3.663,2.447-6.161
		C58.677,34.84,58.683,34.122,58.084,34.037z"/>
</g>
</svg>
