<?xml version="1.0" encoding="utf-8"?>
<!-- Generator: Adobe Illustrator 16.0.0, SVG Export Plug-In . SVG Version: 6.00 Build 0)  -->
<!DOCTYPE svg PUBLIC "-//W3C//DTD SVG 1.1//EN" "http://www.w3.org/Graphics/SVG/1.1/DTD/svg11.dtd">
<svg version="1.1" id="Layer_1" xmlns="http://www.w3.org/2000/svg" xmlns:xlink="http://www.w3.org/1999/xlink" x="0px" y="0px"
	 width="90px" height="90px" viewBox="0 0 90 90" enable-background="new 0 0 90 90" xml:space="preserve">
<path d="M77.479,50.143c-0.946-0.823-1.84-2.42-3.968-7.087l-1.021-2.24l-0.059-1.2c-0.336-6.789-4.678-12.12-13.024-15.989
	c-0.545-0.253-1.14-0.58-1.32-0.726c-3.409-2.769-10.552-4.406-16.408-3.761c-6.048,0.666-10.816,2.935-17.543,8.348
	c-2.34,1.882-3.028,2.393-4.109,3.043c-1.15,0.693-3.461,2.149-4.808,3.03c-0.517,0.338-1.687,1.101-2.6,1.694
	C10.155,36.857,10,37.04,10,38.336c0,1.21,0.434,1.796,1.836,2.484c1.103,0.541,4.111,1.29,5.312,1.321
	c0.162,0.004,0.117,0.038-0.193,0.144c-1.387,0.473-1.812,1.368-1.549,3.258l0.086,0.62l-0.818,1.201
	c-1.95,2.862-1.279,4.393,2.204,5.03l0.558,0.102l0.484,0.88c0.675,1.225,1.158,1.952,1.906,2.867l0.644,0.787l-0.147,0.373
	c-1.575,3.985-0.266,10.604,2.338,11.828c1.696,0.796,3.713-0.737,6.007-4.568c0.278-0.466,0.521-0.847,0.538-0.847
	c0.017,0,0.473,0.335,1.013,0.744c7.277,5.506,17.533,5.983,26.214,1.217c0.654-0.359,0.868-0.365,0.985-0.026
	c0.356,1.021,1.489,2.966,1.917,3.29c2.343,1.774,6.987-1.922,8.146-6.482c0.072-0.282,0.148-0.374,0.464-0.555
	c4.058-2.327,7.421-5.116,9.854-8.171C78.765,52.615,78.64,51.152,77.479,50.143z M17.66,45.708
	c-0.158-1.16-0.074-1.283,0.731-1.068c0.08,0.021,0.15,0.04,0.216,0.056c-0.35,0.405-0.659,0.775-0.934,1.114
	C17.669,45.776,17.665,45.744,17.66,45.708z M24.323,50.302c0.086-0.026,0.156-0.043,0.213-0.055
	c-0.011,0.09-0.032,0.213-0.075,0.378c-0.304,1.181-0.737,2.389-1.195,3.667c-0.089,0.248-0.179,0.498-0.269,0.75
	c-0.834-0.816-1.783-2.162-2.465-3.529l-0.115-0.231c-0.051-0.102-0.102-0.203-0.15-0.302
	C21.866,50.856,23.527,50.543,24.323,50.302z M39.1,45.155c-0.253,0.4-0.544,0.943-0.771,1.383
	c-0.146,0.212-0.301,0.425-0.458,0.642c-0.169,0.232-0.339,0.465-0.503,0.704c-0.261-0.157-0.622-0.337-1.1-0.569
	c-0.289-0.141-0.525-0.255-0.728-0.352C36.764,46.466,37.995,45.882,39.1,45.155z M52.778,64.138
	c-8.175,3.597-18.113,1.651-23.117-4.526l-0.322-0.398c-0.077-0.237-0.085-0.274-0.152-0.499c-0.043-0.146-0.044-0.388-0.074-0.646
	c-0.002-0.044-0.012-0.266-0.013-0.3c-0.008-0.31-0.021-0.49-0.038-0.837c0.004-0.287-0.021-0.58-0.013-0.825
	c0.022-0.607-0.026-1.149-0.077-1.596c-0.082-0.707-0.212-1.39-0.337-2.051c-0.188-0.99-0.366-1.927-0.386-2.909
	c0.484-0.438,2.582-1.036,3.585-1.314c0.185,0.056,0.4,0.118,0.657,0.189c0.697,0.194,1.664,0.464,2.148,0.601
	c0.857,0.24,1.422,0.401,1.806,0.497c-0.125,0.313-0.222,0.639-0.276,0.98c-0.087,0.548,0.1,0.903,0.271,1.104
	c0.174,0.204,0.501,0.446,1.069,0.446c0.409,0,0.9-0.129,1.461-0.383c0.393-0.178,0.786-0.352,1.179-0.522
	c0.58-0.1,0.949-0.222,1.365-0.452c0.232-0.127,0.695-0.299,0.991-0.368c0.443-0.104,0.942-0.3,1.27-0.5
	c0.206-0.126,0.574-0.29,0.788-0.351c0.321-0.091,0.754-0.282,1.009-0.443c0.17-0.108,0.53-0.287,0.771-0.381
	c0.063-0.025,0.618-0.246,0.849-0.462c0.053-0.042,0.286-0.179,0.563-0.303c0.299-0.134,0.739-0.372,0.966-0.551
	c0.027-0.021,0.06-0.045,0.096-0.069c2.745-1.454,5.324-3.245,7.632-5.896c0.822,1.613,1.831,3.122,2.878,4.58
	c-0.058-0.049-0.119-0.1-0.186-0.154c-2.019-1.653-1.96-1.626-2.78-1.273c-0.286,0.122-1.258,0.587-2.16,1.033
	s-3.021,1.477-4.707,2.291c-3.954,1.908-3.819,1.81-3.002,2.185c0.746,0.342,0.931,0.33,2.709-0.165
	c0.88-0.245,2.014-0.559,2.52-0.698c0.507-0.139,1.406-0.39,2-0.557c0.595-0.167,1.692-0.472,2.44-0.677
	c0.748-0.204,1.522-0.419,1.721-0.477c0.197-0.057,0.647-0.185,1-0.284c0.591-0.166,0.927-0.276,1.025-0.424
	c0.239,0.327,0.479,0.652,0.718,0.976l0.182,0.246c0.287,0.387,0.239,1.162,0.029,2.079c-0.015,0.038-0.029,0.075-0.046,0.11
	c-0.16,0.341-0.358,0.944-0.453,1.375c-0.079,0.367-0.246,0.834-0.345,1.024c-0.155,0.297-0.354,0.819-0.453,1.188
	c-0.029,0.11-0.074,0.247-0.125,0.39c-0.055,0.132-0.107,0.26-0.157,0.38c-0.035,0.086-0.07,0.171-0.105,0.255
	c-0.002,0.005-0.005,0.011-0.007,0.016c-0.094,0.188-0.173,0.383-0.243,0.596c-0.262,0.647-0.474,1.21-0.583,1.644
	c-0.179,0.712-0.38,2.18-0.379,3.808c-0.237,0.144-0.501,0.379-0.624,0.494C56.309,62.266,54.528,63.368,52.778,64.138z
	 M65.475,55.311c-0.32-2.151-0.622-4.182-0.315-5.981c0.088-0.516,0.608-1.222,1.127-1.852c0.18-0.136,0.356-0.237,0.513-0.283
	c0.234-0.068,0.573-0.224,0.787-0.363c0.423-0.274,2.188-1.091,2.666-1.255c-0.061,0.309-0.169,0.779-0.281,1.266
	c-0.83,3.599-2.481,6.71-4.488,8.524C65.479,55.348,65.477,55.329,65.475,55.311z M66.156,45.134
	c-0.168,0.22-0.389,0.479-0.623,0.753c-0.826,0.968-1.763,2.065-1.951,3.173c-0.234,1.378-0.16,2.847,0.012,4.324
	c0.012,0.231,0.025,0.468,0.042,0.712c0.117,1.746,0.168,2.486,0.458,2.849c0.356,2.639,0.487,5.088-0.803,6.992
	c-0.666,0.983-1.783,1.865-2.228,2.048c-1.815-1.093-1.736-6.419-1.195-8.564c0.127-0.505,0.486-1.372,0.865-2.291
	c1.236-2.99,2.638-6.379,1.358-8.108l-0.183-0.247c-1.563-2.114-3.179-4.3-4.298-6.661c-0.296-0.625-0.797-0.693-0.998-0.693
	c-0.528,0-0.934,0.39-1.261,0.771c-3.761,4.386-8.423,6.35-13.358,8.43c-1.2,0.505-2.439,1.028-3.684,1.591
	c-0.198,0.09-0.355,0.146-0.478,0.181c0.226-0.754,0.765-1.495,1.331-2.273c0.787-1.083,1.601-2.202,1.731-3.569
	c0.017-0.174,0.068-0.705-0.289-1.098c-0.2-0.221-0.483-0.342-0.796-0.342c-0.389,0-0.81,0.175-1.409,0.586
	c-1.713,1.172-3.873,1.978-5.763,2.641c-0.211,0.073-0.601,0.181-1.052,0.306c-2.987,0.826-4.944,1.465-4.939,2.766
	c0.005,1.183,0.214,2.284,0.416,3.348c0.125,0.662,0.244,1.287,0.318,1.935c0.038,0.326,0.112,1.243,0.143,1.788
	c0.073,1.304,0.15,1.925,0.221,2.943c-0.041,0.921-2.531,4.565-3.535,5.756c-0.075,0.089-0.214,0.254-0.35,0.406
	c-0.009-0.016-0.017-0.033-0.025-0.05c-1.511-3.003-0.611-6.293,0.519-9.528c0.171-0.268,0.265-0.58,0.39-1.076
	c0.008-0.03,0.017-0.063,0.027-0.098c0-0.001,0.001-0.002,0.001-0.003c0.043-0.118,0.085-0.237,0.128-0.355
	c0.051-0.126,0.105-0.246,0.151-0.328c0.191-0.34,0.299-0.667,0.406-1.278c0.206-0.62,0.397-1.238,0.554-1.846
	c0.14-0.542,0.275-1.328-0.162-1.894c-0.18-0.231-0.521-0.508-1.126-0.508c-0.254,0-0.536,0.048-0.863,0.147
	c-0.364,0.111-1.1,0.273-1.975,0.41c-0.193,0.012-0.401,0.023-0.632,0.036l-0.273,0.014c-0.765,0.039-1.271,0.064-1.616,0.199
	c-0.128,0.004-0.255,0.006-0.38,0.006c-0.94,0-1.442-0.114-1.698-0.208c0.166-0.415,0.789-1.529,3.112-4.145
	c1.65-1.859,3.312-3.522,3.474-3.671c0.454-0.403,1.021-0.905,0.764-1.581c-0.277-0.733-1.087-0.734-2.7-0.735
	c-3.445-0.002-6.716-0.542-7.972-0.957c0.774-0.679,2.542-1.6,3.389-2.042c0.582-0.304,1.085-0.566,1.408-0.773
	c0.455-0.291,0.912-0.578,1.368-0.864c1.594-1,3.242-2.035,4.773-3.242c5.568-4.391,10.726-8.083,17.463-8.791
	c0.695-0.073,1.42-0.11,2.153-0.11c6.075,0,12.328,2.572,13.121,5.396l0.011,0.036c0.223,0.669,0.41,1.358,0.56,2.047
	c0.26,1.549,1.953,1.74,3.076,1.866c0.435,0.049,0.885,0.1,1.125,0.199c1.794,0.747,3.365,2.335,4.311,4.358
	C67.981,38.919,67.719,43.085,66.156,45.134z M74.689,53.733c-2.285,2.453-5.048,4.603-8.059,6.271
	c-0.34,0.188-0.559,0.309-0.706,0.417c0.044-1.194-0.076-2.428-0.242-3.663c2.46-1.885,4.495-5.474,5.458-9.648
	c0.437-1.895,0.492-2.138,0.086-2.544L71.21,44.55c-0.377-0.381-0.684-0.296-1.146-0.169l-0.063,0.017
	c-0.321,0.087-1.267,0.505-2.046,0.885c1.43-2.636,1.569-6.841,0.214-9.741c-1.111-2.379-2.987-4.259-5.146-5.158
	c-0.449-0.187-0.989-0.248-1.561-0.312c-0.888-0.1-1.626-0.21-1.679-0.549l-0.008-0.044c-0.161-0.746-0.363-1.492-0.604-2.218
	c-0.147-0.517-0.407-1.011-0.755-1.48c0.074,0.035,0.152,0.071,0.237,0.108c7.212,3.252,11.253,8.295,11.544,14.407l0.063,1.32
	l0.617,1.36c0.58,1.278,0.758,1.671,1.665,3.68c0.347,0.768,1.067,2.149,1.689,3.234c0.387,0.676,0.789,1.23,1.262,1.741
	C76.065,52.248,76.061,52.262,74.689,53.733z"/>
</svg>
