<?xml version="1.0" encoding="utf-8"?>
<!-- Generator: Adobe Illustrator 16.0.0, SVG Export Plug-In . SVG Version: 6.00 Build 0)  -->
<!DOCTYPE svg PUBLIC "-//W3C//DTD SVG 1.1//EN" "http://www.w3.org/Graphics/SVG/1.1/DTD/svg11.dtd">
<svg version="1.1" id="Layer_1" xmlns="http://www.w3.org/2000/svg" xmlns:xlink="http://www.w3.org/1999/xlink" x="0px" y="0px"
	 width="90px" height="90px" viewBox="0 0 90 90" enable-background="new 0 0 90 90" xml:space="preserve">
<g>
	<path d="M77.423,60.344c-1.826-2.34-4.128-3.651-6.314-5.568c4.667-4.457,2.896-9.823-1.396-13.83
		c-1.081-1.01-2.364-1.876-3.313-3.015c-1.034-1.238-0.758-2.095-0.573-3.602c0.144-1.173,2.833-4.48,3.044-7.344
		c0.374-5.104-6.25-9.741-9.819-12.446c-4.061-3.077-9.429-5.891-13.889-1.88c-0.837,0.753-3.366-1.502-4.526-1.817
		c-2.703-0.736-5.399,0.443-7.718,1.795c-2.739,1.596-5.25,3.694-7.548,5.866c-1.753,1.656-4.52,4.197-4.986,6.689
		c-0.479,2.556,0.761,5.127,2.028,7.248c0.861,1.44,1.098,2.851,1.217,4.507c0.115,1.611-1.53,2.439-2.661,3.462
		c-4.317,3.903-7.451,9.737-2.076,14.312c-1.303,1.456-3.268,2.28-4.685,3.657c-1.771,1.722-2.763,3.786-2.594,6.287
		c0.172,2.54,7.95,9.335,8.091,5.218c0.828,1.336,6.953,2.523,8.739,0.921c1.271-1.141,0.722-2.529-0.236-3.446
		c-1.949-1.863,0.802-2.345,2.523-2.231c1.415,0.093,5.209,0.248,6.083,1.202c1.518,1.654,2.238,2.229,4.542,2.609
		c2.674,0.441,6.212,0.427,8.813-0.392c0.933-0.294,1.753-1.103,2.43-1.797c1.342-1.376,1.505-1.359,3.45-1.411
		c1.898-0.051,4.874-1.199,6.422,0.504c0.718,0.791-1.541,2.382-1.22,3.721c0.525,2.185,3.145,1.837,4.742,1.634
		c0.407-0.053,4.377-0.96,4.271-1.296c0.82,2.571,3.373,1.025,4.76-0.087C77.697,67.666,79.941,63.574,77.423,60.344z
		 M30.858,62.911c-1.179-0.134-1.513-0.053-3.266,0.542c-2.258,0.766-2.967,3.245-1.138,5.049c1.459,1.44-2.142,0.789-2.806,0.658
		c-2.042-0.399-4.11-1.512-5.041-3.458c-0.863-1.804,2.873-2.706,4.231-3.321c2.159-0.979,4.639-2.36,5.727-4.581
		c0.563-1.146,1.438-0.147,1.906-1.193c0.425-0.947-1.24-2.311-1.608-3.096c-1.21-2.575-0.947-5.602-0.26-8.279
		c-0.337,3.631,1.293,6.632,2.095,10.063c0.773,3.311,2.308,5.405,4.36,8.082C33.917,63.229,32.151,63.058,30.858,62.911z
		 M51.858,64.318c-0.651,0.766-0.928,1.149-1.765,1.869c-2.412,1.529-6.844,1.141-9.438,0.27c-1.345-0.451-1.791-1.733-2.656-2.77
		c-1.521-1.82-3.089-3.829-4.156-5.969c-0.921-1.846-1.226-4.313-1.929-6.313c-0.899-2.56-1.212-4.739-0.978-7.438
		c0.158-1.8-0.918-4.734,1.874-4.611c2.432,0.106,4.778-0.147,7.126,0.518c1.8,0.508,2.893,1.848,4.61,2.288
		c1.647,0.422,3.479-2.2,5.088-2.507c2.156-0.409,4.073-0.279,6.269-0.28c1.214-0.001,2.722-0.65,3.221,0.655
		c0.412,1.082-0.281,2.16-0.344,3.219c-0.135,2.283,0.677,4.059,0.031,6.406c-0.657,2.389-1.672,4.745-2.239,7.16
		c-0.481,2.053-2.495,3.747-3.604,5.527C52.537,63.036,52.342,63.75,51.858,64.318z M43.146,28.478
		c1.824,0.824,2.921,0.432,4.604-0.417c1.433-0.721,3.033-1.294,4.644-1.403c0.938,1.497,1.678,3.106,2.448,4.693
		c-1.553-0.038-3.659-0.075-5.357,0.068c-1.574,0.133-2.662-1.355-3.761-1.985c-1.646-0.944-3.399,1.167-4.599,1.985
		c-1.137,0.775-4.104-0.093-5.643-0.059c0.657-1.421,1.438-2.792,2.034-4.236C37.891,26.219,39.914,27.018,43.146,28.478z
		 M38.655,25.063c0.461-0.837,0.863-1.705,1.367-2.519c1.558,1.121,2.627,2.826,3.546,4.476
		C42.04,26.191,40.18,25.357,38.655,25.063z M46.56,26.854c0.939-1.654,2.233-3.081,3.718-4.264
		c0.493,0.801,0.884,1.657,1.312,2.493C49.824,25.35,48.127,26.018,46.56,26.854z M38.391,33.016
		c1.59,0.054,1.864,0.599,3.301-0.349c0.963-0.635,2.094-1.604,3.139-2.102c1.141,0.463,1.923,1.698,3.012,2.291
		c1.074,0.582,2.403,0.036,3.549,0.003c1.319-0.039,2.86-0.064,4.219,0.188c0.871,1.531,2.083,3.367,2.998,4.87
		c-2.338,0.055-4.678,0.067-7.017,0.086c-2.71,0.021-3.936,0.732-6.069,2.313c-1.122,0.83-3.989-2.104-5.715-2.326
		c-2.596-0.333-5.366-0.029-7.983-0.081c0.386-0.888,1.611-2.994,2.477-4.286C34.969,32.625,36.854,32.964,38.391,33.016z
		 M71.03,66.212c-1.33,2.35-5.561,2.837-6.613,2.79s-0.73-0.413-0.313-0.897c1.173-1.359,0.683-3.252-0.794-4.284
		c-2.608-1.824-5.679-0.3-8.519-0.505c1.081-1.385,2.222-2.711,3.232-4.148c1.044-1.488,1.083-3.7,1.596-5.409
		c0.451-1.5,0.995-2.965,1.419-4.474c0.619-2.195-0.04-3.897-0.016-6.068c1.117,3.394,2.044,7.496,0.188,10.807
		c-0.396,0.705-2.58,2.832-0.54,3.125c0.968,0.139,2.258,2.619,3.271,3.356c1.651,1.204,3.565,1.94,5.425,2.767
		C71.201,64.085,72.102,64.319,71.03,66.212z M73.722,66.938c0.331-5.768-9.051-5.343-11.141-10.033
		c-0.151-0.482-0.457-0.83-0.916-1.045c0.542-0.678,0.972-1.441,1.289-2.249c0.641-1.63,0.805-3.379,0.656-5.113
		c-0.215-2.527-0.925-4.994-1.838-7.353c-1.115-2.873-2.877-5.438-4.495-8.044c-1.364-2.202-2.229-4.732-3.576-6.992
		c-0.627-1.051-1.884-5.469-3.637-4.996c-2.167,0.585-4.04,3.849-5.044,5.618c-1.318-2.236-4.375-8.101-6.719-4.03
		c-1.971,3.422-3.43,7.137-5.394,10.553c-3.516,6.115-9.661,15.443-4.396,22.382c-1.021,0.068-1.205,1.687-1.735,2.347
		c-1.13,1.411-2.857,2.36-4.468,3.109c-2.765,1.286-6.196,2.259-6.007,5.938c-3.333-3.503-0.597-6.178,2.632-8.412
		c1.097-0.758,2.864-1.703,3.465-2.945c0.786-1.623-0.838-2.604-1.844-3.582c-2.581-2.511-1.432-5.575,0.829-7.859
		c2.639-2.667,4.989-4.748,6.793-8.135c0.491-0.923,2.207-2.958,1.826-4.076c-0.412-1.203-2.484-0.789-3.395-0.769
		c-1.005,0.022-1.447,0.202-2.021-0.713c-0.453-0.723-0.735-1.253-1.04-2.052c-0.468-1.226-0.588-2.414,0.085-3.552
		c2.451-4.148,7.226-7.781,11.359-10.102c2.563-1.438,5.151-1.924,7.532,0.269c1.172,1.079,1.899,2.598,3.425,0.977
		c1.377-1.464,2.688-2.795,4.892-2.563c4.775,0.503,10.152,5.957,13.126,9.354c1.694,1.935,2.615,3.627,1.447,6.172
		c-0.302,0.658-0.272,0.68-0.67,1.285c-0.516,0.786-1.258,0.773-2.12,0.706c-2.813-0.219-3.151,0.745-2.281,2.719
		c1.397,3.152,3.522,6.182,6.126,8.489c2.275,2.019,6.58,5.874,3.692,9.164c-0.862,0.981-2.877,1.932-2.814,3.445
		c0.066,1.607,2.101,2.533,3.227,3.324c1.51,1.061,3.119,2.106,4.153,3.677C76.024,63.815,75.131,65.419,73.722,66.938z
		 M25.651,33.411c0.614-0.126,0.877,0.021,1.676,0.024c-0.981,1.649-0.364,0.795-1.382,2.424
		C25.928,34.938,26.018,34.186,25.651,33.411z M63.925,33.174c-0.279,0.95-0.191,1.123-0.28,2.157
		c-0.576-1.089-0.636-1.221-1.27-2.268C63.146,33.042,63.312,33.024,63.925,33.174z"/>
	<path d="M43.4,39.217c1.837,1.411,4.424-0.455,4.516-2.631c0.069-1.641,0.326-2.685-0.466-3.43
		c-0.663-0.623-1.638-1.737-2.627-1.737c-0.885,0-3.091,1.69-3.091,3.342C41.732,36.942,41.554,37.809,43.4,39.217z M43.271,34.208
		c1.452-1.387,1.766-1.451,3.22-0.025c0.012,1.739,0.086,4.21-1.483,4.271C42.969,38.531,43.271,35.257,43.271,34.208z"/>
</g>
</svg>
