<?xml version="1.0" encoding="utf-8"?>
<!-- Generator: Adobe Illustrator 16.0.0, SVG Export Plug-In . SVG Version: 6.00 Build 0)  -->
<!DOCTYPE svg PUBLIC "-//W3C//DTD SVG 1.1//EN" "http://www.w3.org/Graphics/SVG/1.1/DTD/svg11.dtd">
<svg version="1.1" id="Layer_1" xmlns="http://www.w3.org/2000/svg" xmlns:xlink="http://www.w3.org/1999/xlink" x="0px" y="0px"
	 width="90px" height="90px" viewBox="0 0 90 90" enable-background="new 0 0 90 90" xml:space="preserve">
<g>
	<path d="M78.987,34.117l-0.648-1.891l-0.55-0.221c-1.248-0.5-2.485,0.224-3.612,0.699c-1.302,0.551-2.718,0.925-4.12,1.101
		c-0.048-2.75-0.03-6.343-1.437-8.816c-0.41-0.721-1.403-1.174-2.213-0.937c-0.75,0.221-1.341,0.787-1.878,1.327
		c-0.262,0.263-1.319,1.603-1.778,1.439c-0.283-0.102-0.625-1.953-0.729-2.25c-0.352-1.009-0.753-2.005-1.265-2.945
		c-0.584-1.07-1.815-1.47-2.95-0.958c-1.398,0.631-2.477,2.319-3.24,3.582c-1.019,1.684-2.071,3.47-2.659,5.357
		c-0.142,0.455-6.086-0.346-6.743-0.362c-2.939-0.071-5.785,0.61-8.692,0.686c-0.5,0.013-1.006-1.853-1.201-2.248
		c-0.472-0.958-0.991-1.895-1.579-2.788c-0.917-1.395-2.5-3.9-4.333-4.137c-1.223-0.157-2.137,0.801-2.526,1.868
		c-0.56,1.537-1.113,3.071-1.55,4.648c-0.086,0.314-0.332,0.005-0.475-0.119c-0.971-0.845-2.27-2.241-3.576-2.49
		c-0.996-0.189-1.945,0.378-2.236,1.344c-0.8,2.653-1.299,5.709-0.947,8.473c-1.368-0.144-2.771-0.444-4.058-0.937
		c-1.217-0.466-2.648-1.341-3.973-0.741l-0.361,0.163c-1.403,1.987,0.056,5.644,0.992,7.521c0.677,1.357,1.409,2.691,2.267,3.944
		c0.43,0.627,0.891,1.232,1.388,1.808c0.435,0.502,1.349,1.264,1.576,1.88c0.028,0.077-1.138,0.063-1.184,0.068
		c-0.747,0.084-1.486,0.434-1.792,1.161c-0.791,1.878,1.095,4.944,2.045,6.504c1.122,1.843,2.676,3.614,4.604,4.645
		c0.464,0.247,0.671,0.272,0.423,0.738c-0.404,0.756-0.247,1.618,0.178,2.328c1.22,2.036,3.792,2.901,5.976,3.37
		c2.073,0.444,4.28,0.269,6.391,0.276c1.165,1.016,3.165,1.156,4.64,1.365c2.226,0.314,4.529,0.44,6.776,0.443
		c2.355,0.002,4.727-0.213,7.061-0.524c1.777-0.238,3.364-0.573,4.765-1.738c2.822,0.247,5.673,0.152,8.402-0.684
		c1.392-0.427,2.725-1.109,3.714-2.201c0.77-0.85,1.438-2.143,0.861-3.274l-0.18-0.353c1.751-1.327,3.357-2.418,4.583-4.3
		c1.215-1.866,2.402-4.241,2.537-6.497c0.028-0.486-0.116-1.061-0.454-1.424c-0.652-0.704-1.9-0.567-2.781-0.609
		c1.698-2.111,3.29-4.162,4.51-6.597C77.89,38.951,79.185,36.264,78.987,34.117z M27.221,30.721
		c0.597-0.886,0.697-2.224,0.995-3.237c0.334-1.142,0.696-2.281,1.157-3.379c2.133,2.209,3.292,5.005,4.553,7.746
		c0.322,0.7,0.778,1.245,1.628,1.175c2.073-0.172,4.159-0.557,6.237-0.765c-0.203,1.236-0.112,2.505-0.324,3.75
		c-1.166,0.259-2.357,0.567-3.481,0.977c-0.834,0.304-2.539,0.616-2.277,1.859c0.341,1.622,3.896,2.195,5.164,2.46
		c-0.024,0.5-0.204,0.969-0.259,1.464c-4.75-1.436-9.597-2.546-14.386-3.845c0.041-1.515,0.172-3.033,0.479-4.517
		C26.934,33.307,27.466,31.851,27.221,30.721C27.456,30.373,27.28,30.993,27.221,30.721C27.533,30.258,27.28,30.993,27.221,30.721z
		 M44.456,33.145c0.105,1.2,0.093,3.609,1.208,4.402c0.535,0.38,1.229,0.326,1.84,0.466c0.673,0.155,1.3,0.466,1.983,0.579
		c-0.866,0.329-1.77,0.59-2.648,0.884c-0.76,0.254-1.242,0.761-1.223,1.586c0.017,0.729,0.13,1.527,0.254,2.248
		c0.128,0.745,0.555,1.398,1.384,1.398c1.078-0.003,2.474-0.7,3.512-1.011c1.444-0.433,2.942-0.708,4.366-1.205
		c1.383-0.481,2.779-0.829,4.184-1.236c1.316-0.382,2.931-0.642,4.106-1.366c0.082,0.019,0.154,0.026,0.208,0.028
		c-0.529,0.371-0.871,0.847-1.444,1.199c-0.616,0.381-1.216,0.782-1.786,1.229c-1.275,0.999-2.69,1.819-4.035,2.729
		c-2.877,1.942-5.668,4.018-8.563,5.925c-0.806-1.308-1.549-3.471-2.937-4.279c-0.929-0.54-1.861,0.645-2.302,1.315
		c-0.645,0.98-1.192,2.012-1.787,3.022c-0.555-0.505-1.358-0.748-1.977-1.172c-0.743-0.509-1.439-1.081-2.188-1.584
		c-1.555-1.042-3.192-1.951-4.734-3.017c-1.155-0.798-2.324-1.554-3.501-2.317c-1.203-0.777-2.997-1.286-3.752-2.569
		c0.04,0.068,0.149-0.033,0.216-0.058c0.88,0.749,2.608,0.9,3.697,1.188c1.365,0.36,2.736,0.696,4.104,1.048
		c1.407,0.361,2.809,0.741,4.218,1.091c0.793,0.196,1.585,0.394,2.371,0.618c0.682,0.195,1.365,0.563,2.096,0.387
		c0.793-0.192,1.152-0.933,1.165-1.698c0.106-0.931,0.688-2.232-0.106-3.025c-0.407-0.407-1.002-0.469-1.537-0.577
		c-0.715-0.144-1.371-0.479-2.075-0.661c0.929-0.3,1.894-0.621,2.853-0.806c0.915-0.177,1.498-0.543,1.682-1.482
		c0.146-0.752,0.226-1.517,0.273-2.28c0.038-0.629-0.11-1.312,0.153-1.91c0.209-0.025,0.433,0.015,0.638,0.048
		C44.398,32.495,44.426,32.813,44.456,33.145C44.524,33.917,44.426,32.813,44.456,33.145z M58.6,23.883
		c1.952,4.465,3.25,9.658,3.565,14.53c-2.178,0.852-4.554,1.302-6.79,1.99c-1.317,0.405-2.651,0.862-3.994,1.168
		c-1.183,0.27-2.577,0.578-3.688,1.056c-0.034-0.467-0.093-0.927-0.171-1.388c1.042-0.283,2.109-0.673,3.103-1.09
		c0.767-0.32,1.948-0.565,1.907-1.634c-0.043-1.134-1.542-1.479-2.411-1.708c-1.111-0.294-2.171-0.664-3.313-0.83
		c-0.284-1.262-0.39-2.521-0.553-3.801c1.708,0.118,3.417,0.231,5.112,0.475c1.092,0.155,2.35,0.225,2.836-0.992
		c1.133-2.832,4.148-7.782,4.148-7.782L58.6,23.883z M57.016,46.876c0.502-0.445,1.182-0.72,1.725-1.134
		c0.215,1.185,0.567,2.311,0.75,3.509c0.187,1.218,0.3,2.799,0.776,3.941c0.255,0.612,0.898,0.981,1.541,0.724
		c0.825-0.329,1.045-1.315,1.203-2.092c0.233-1.144,0.509-2.277,0.728-3.426c0.238-1.246,0.447-2.503,0.577-3.766
		c0.061-0.601-0.186-2.681,0.271-3.088c1.037-0.926,3.821-1.712,3.97-3.337c0.045-0.493-0.268-0.955-0.733-1.113
		c2.565,0.214,5.292-0.521,7.678-1.406c-1.528,5.109-4.688,9.149-8.794,12.443c-0.657,0.527-1.245,1.479-0.496,2.212
		c1.234,1.207,4.352,0.39,5.861,0.361c-0.702,1.708-1.281,3.272-2.574,4.648c-1.224,1.302-2.792,2.293-4.519,2.766
		c-0.832,0.228-1.671,0.237-2.516,0.374c-0.8,0.13-1.62,0.673-1.417,1.613c0.122,0.563,0.614,0.854,1.108,1.061
		c0.919,0.384,1.892,0.645,2.834,0.962c-1.524,1.056-3.406,1.428-5.227,1.457c-0.921,0.016-1.833,0.086-2.755,0.037
		c-0.898-0.048-2.24-0.479-3.036,0.101c-0.364,0.265-0.477,0.68-0.776,0.987c-1.285,0.907-3.847,0.775-5.341,0.869
		c-2.17,0.137-4.246,0.25-6.422,0.109c3.577-1.385,7.131-2.727,10.646-4.271c2.551-1.12,6.139-2.338,7.113-5.26
		c0.383-1.15,0.219-2.598-0.735-3.439c-0.543-0.479-1.339-0.756-1.984-1.078c-1.879-0.1-3.749-0.306-5.628-0.406
		C52.784,49.639,55.136,48.547,57.016,46.876C57.128,46.777,56.944,46.941,57.016,46.876C57.519,46.431,56.944,46.941,57.016,46.876
		z M56.797,46.809c0.122,0,0.275-0.044,0.446-0.117C57.209,46.713,57.043,46.809,56.797,46.809z M63.938,34.73
		c-0.287-1.265-0.421-2.534-0.83-3.77c1.092-0.853,2.151-1.767,3.167-2.709c0.336,1.627,0.729,3.308,0.562,4.977
		c-0.067,0.671-0.275,1.221-0.484,1.85c-0.28,0.844,0.013,1.739,0.938,1.941c-0.979,0.02-1.998,0.496-2.92,0.792
		C64.312,36.797,64.159,35.703,63.938,34.73C63.854,34.359,64.159,35.703,63.938,34.73C63.65,33.466,64.159,35.703,63.938,34.73z
		 M62.006,44.432c-0.316,1.078-0.292,2.274-0.458,3.378c-0.216-1.163-0.649-2.349-0.775-3.518c0.384-0.433,0.954-0.712,1.428-1.032
		C62.144,43.801,62.081,44.179,62.006,44.432C61.926,44.705,62.081,44.179,62.006,44.432C61.69,45.51,62.081,44.179,62.006,44.432z
		 M47.299,53.302c0.564,0.302,1.258,0.202,1.871,0.224c1.043,0.037,2.086,0.059,3.13,0.096c1.006,0.035,3.873-0.232,4.563,0.754
		c0.29,0.414,0.101,1.187-0.013,1.618c-0.569,1.089-2.224,1.765-3.285,2.25c-1.683,0.771-3.398,1.475-5.065,2.278
		c-1.339,0.646-2.824,1.248-4.238,1.704c-1.724,0.556-3.403,1.507-5.173,1.894c-0.843-2.347-1.775-4.916-3.261-6.941
		c-0.928-1.264-2.245-0.622-2.775,0.602c-0.631,1.457-0.75,3.17-0.782,4.739c-1.341-1.884-2.403-3.795-2.021-6.195
		c0.182-1.148,0.963-2.199,2.1-2.548c1.289-0.395,2.794-0.289,4.125-0.297c1.601-0.009,3.202-0.005,4.803-0.005
		c1.283-1.367,1.89-3.154,3.027-4.63c0.538,0.741,0.943,1.543,1.436,2.308C46.216,51.893,46.458,52.853,47.299,53.302
		C47.516,53.418,46.772,53.021,47.299,53.302C47.827,53.585,46.772,53.021,47.299,53.302z M34.4,64.864l0.012-0.012
		c-0.107-0.1-0.175-0.232-0.25-0.357c-0.012-1.881-0.087-3.834,0.498-5.647c1.073,1.843,1.944,3.845,2.633,5.86
		c-0.697,0.184-1.539,0.182-2.199,0.451C34.702,65.109,34.535,65.028,34.4,64.864z M32.851,51.326
		c-1.109,0.249-1.959,0.492-2.869,1.162c-1.11,0.817-1.885,2.312-2.121,3.655c-0.503,2.881,1.001,5.7,2.725,7.851
		c-2.248,0.025-4.874,0.073-6.769-1.322c0.952-0.33,2.104-0.592,2.944-1.153c0.698-0.465,1.093-1.409,0.462-2.112
		c-0.89-0.991-3.239-0.662-4.44-1.027c-1.616-0.492-2.876-1.443-3.969-2.712c-0.925-1.072-2.247-2.81-2.451-4.261
		c1.109-0.021,2.217,0.043,3.325,0.085c0.822,0.031,2.125,0.282,2.707-0.481c0.802-1.055-0.396-2.071-1.183-2.663
		c-1.127-0.851-2.155-1.726-3.133-2.755c-2.481-2.607-4.445-5.631-5.473-9.098c2.314,0.813,5.01,1.471,7.483,1.291
		c-0.462,0.28-0.615,0.891-0.354,1.357c0.345,0.618,1.102,0.962,1.666,1.34c0.801,0.537,1.593,1.088,2.383,1.642
		c0.291,2.121,0.566,4.246,0.972,6.349c0.329,1.702,0.434,4.073,1.53,5.502c0.5,0.651,1.455,0.719,1.934,0.008
		c0.662-0.983,0.525-2.59,0.768-3.727c0.293-1.372,0.458-2.769,0.76-4.14c2.506,1.682,5.048,3.303,7.534,4.997
		C35.501,51.141,33.331,51.219,32.851,51.326C31.257,51.684,33.331,51.219,32.851,51.326C31.742,51.575,33.331,51.219,32.851,51.326
		z M21.438,34.919l-0.213-0.491c-0.028-1.953,0.036-3.737,0.42-5.656c1.058,0.878,2.394,1.595,3.35,2.568
		c-0.024,1.015-0.456,2.062-0.593,3.073c-0.177,1.312-0.402,2.631-0.499,3.952c-0.916-0.323-1.994-0.621-2.959-0.729
		C22.143,37.219,21.82,35.798,21.438,34.919z M27.509,45.471c-0.18,0.886-0.272,1.789-0.484,2.668
		c-0.205-1.451-0.58-2.854-0.706-4.321c0.442,0.294,0.88,0.606,1.329,0.89C27.621,44.917,27.551,45.263,27.509,45.471
		C27.426,45.88,27.551,45.263,27.509,45.471C27.329,46.356,27.551,45.263,27.509,45.471z"/>
	<path d="M41.576,54.102c-1.209,0.398-1.326,1.598-0.699,2.58c0.607,0.951,1.566,1.937,2.515,2.558
		c1.195,0.783,2.023-0.063,2.869-0.887c0.762-0.743,1.965-1.776,1.872-2.966c-0.052-0.657-0.567-1.207-1.198-1.366
		C45.429,53.638,43.062,53.611,41.576,54.102C40.899,54.325,42.264,53.874,41.576,54.102C40.367,54.5,42.264,53.874,41.576,54.102z
		 M45.208,56.739c-0.429,0.427-0.701,0.678-0.872,0.825c-0.645-0.48-1.293-1.073-1.756-1.735c1.145-0.12,2.329-0.132,3.476-0.036
		C45.908,55.995,45.652,56.298,45.208,56.739C44.779,57.166,45.652,56.298,45.208,56.739C44.779,57.166,45.652,56.298,45.208,56.739
		z"/>
</g>
</svg>
