<?xml version="1.0" encoding="utf-8"?>
<!-- Generator: Adobe Illustrator 16.0.0, SVG Export Plug-In . SVG Version: 6.00 Build 0)  -->
<!DOCTYPE svg PUBLIC "-//W3C//DTD SVG 1.1//EN" "http://www.w3.org/Graphics/SVG/1.1/DTD/svg11.dtd">
<svg version="1.1" id="Layer_1" xmlns="http://www.w3.org/2000/svg" xmlns:xlink="http://www.w3.org/1999/xlink" x="0px" y="0px"
	 width="90px" height="90px" viewBox="0 0 90 90" enable-background="new 0 0 90 90" xml:space="preserve">
<path fill="#040506" d="M75.953,43.21c-0.42-0.832-0.771-1.983-1.407-4.608c-1.027-4.24-1.272-5.185-1.677-6.439
	c-0.233-0.727-0.594-1.878-0.801-2.561c-0.351-1.152-0.568-1.805-1.168-3.501c-0.241-0.683-0.634-1.557-1.23-2.738
	c-0.581-1.152-0.891-1.637-2.093-3.27c-0.464-0.63-1.912-2.02-2.477-2.376c-0.259-0.164-0.619-0.417-0.8-0.563
	c-0.796-0.641-2.718-1.401-4.619-1.828l-0.931-0.209l-0.821-0.826c-2.685-2.706-6.936-3.73-12.94-3.12
	c-1.965,0.199-4.429,0.726-8.76,1.87c-1.142,0.302-3.346,0.974-6.04,1.84c-1.078,0.347-2.755,0.886-3.727,1.197
	c-1.873,0.602-2.271,0.798-2.809,1.385c-0.776,0.847-0.772,2.524,0.008,3.253c0.28,0.261,0.312,0.202-0.615,1.137
	c-0.951,0.959-2.309,2.547-2.646,3.093c-0.127,0.207-0.351,0.524-0.497,0.704c-0.752,0.93-1.792,2.819-4.106,7.466
	c-0.973,1.953-1.854,3.664-1.958,3.8c-1.353,1.773-1.023,4.189,0.648,4.747c0.565,0.188,0.572,0.213,0.197,0.787
	c-1.362,2.089-1.562,2.836-1.133,4.224c0.492,1.595,2.462,2.033,5.047,1.125l0.29-0.102l0.098,0.452
	c0.256,1.188,0.255,1.171,0.077,1.828c-0.434,1.603-0.218,3.827,0.575,5.905c0.307,0.804,1.129,2.36,1.356,2.565
	c0.094,0.085,0.259,0.328,0.367,0.54c0.254,0.502,2.305,2.577,2.958,2.994c0.27,0.172,0.63,0.421,0.8,0.553
	c0.329,0.255,0.811,0.541,1.586,0.941c0.41,0.212,0.485,0.286,0.535,0.526c0.031,0.154,0.154,0.766,0.273,1.36
	c0.512,2.562,1.415,5.168,2.632,7.596c0.482,0.961,0.729,1.342,1.436,2.212c1.07,1.317,3.672,1.143,4.173-0.281
	c0.302-0.856,0.204-0.85,1.194-0.081c1.834,1.424,3.758,2.276,6.24,2.767c1.039,0.205,4.329,0.207,5.36,0.003
	c2.091-0.413,4.148-1.217,5.227-2.039c0.2-0.152,0.546-0.385,0.769-0.516c0.223-0.132,0.604-0.408,0.845-0.615
	c0.9-0.77,0.93-0.775,0.977-0.207c0.107,1.293,0.829,1.842,2.418,1.842c1.531,0,2.193-0.56,3.214-2.72
	c0.862-1.823,1.451-3.668,2.388-7.479c0.624-2.54,0.566-2.372,0.849-2.471c0.346-0.121,1.426-0.812,2.452-1.57
	c1.861-1.374,3.832-4.063,4.539-6.191c0.116-0.351,0.2-0.453,0.56-0.684c1.048-0.67,1.107-0.897,1.16-4.521l0.042-2.917l0.298-0.062
	C76.247,47.021,76.962,45.21,75.953,43.21z M33.066,47.604c0.129,0.044,0.521,0.177,0.58,0.243c0.066,0.075,0.165,0.497,0.202,0.656
	c0.154,0.66,0.793,2.431,1.268,2.877c0.092,0.086,0.371,0.348,0.789,0.348c0.605,0,0.917-0.484,1.114-0.967
	c0.504,1.645,1.431,3.32,2.637,3.32c1.943,0,5.544-2.592,7.813-5.09c-0.123,0.936-0.102,1.475,0.229,1.858
	c0.194,0.226,0.467,0.35,0.77,0.35c0,0,0,0,0,0c0.425,0,0.835-0.242,1.359-0.634c0.589-0.439,1.217-0.708,2.797-1.196
	c0.958-0.296,2.241-0.722,3.35-1.111c0.372-0.131,1.084-0.376,1.582-0.545c1.163-0.396,1.977-0.737,1.845-1.535
	c-0.021-0.122-0.164-0.733-1.011-0.733c-0.339,0-0.86,0.085-1.55,0.253c-0.508,0.123-1.153,0.271-1.408,0.321
	c-0.291,0.058-0.932,0.228-1.46,0.387c-0.022,0.007-0.044,0.014-0.066,0.021c2.245-2.632,4.226-5.492,5.367-7.762
	c0.017,0.072,0.034,0.149,0.052,0.23c0.448,2.017,1.399,4.381,2.544,6.324l0.092,0.155c0.646,1.095,0.646,1.095,0.6,3.497
	l-0.006,0.314c-0.047,2.514-0.152,4.233-0.402,6.57l-0.243,2.28c-0.066,0.622-0.155,1.581-0.196,2.138
	c-0.047,0.618-0.121,1.052-0.239,1.406c-0.115,0.346-0.301,0.965-0.413,1.38c-0.464,1.717-1.134,2.664-3.585,5.07
	c-5.137,5.038-7.329,6.3-11.168,6.428c-4.021,0.138-6.221-0.934-11.474-5.858c-1.779-1.667-3.021-3.116-3.5-4.079
	c-0.421-0.849-1.181-3.19-1.227-3.609c-0.003-0.377-0.083-1.104-0.397-3.609c-0.577-4.608-0.492-5.294,0.244-7.075
	c1.213-2.931,1.327-3.154,1.65-3.467C31.836,47.118,32.353,47.361,33.066,47.604z M32.129,45.498
	c0.102-0.373,0.552-1.334,1.491-2.836c-0.074,0.593-0.108,1.136-0.142,1.979c-0.008,0.189-0.023,0.586-0.051,0.885
	c-0.325-0.046-0.675-0.069-0.911-0.069C32.367,45.456,32.239,45.472,32.129,45.498z M69.171,54.19
	c-0.72,2.172-2.73,4.575-4.801,5.796c0.358-0.924,0.786-2.168,1.033-3.03c0.167-0.58,0.312-1.053,0.343-1.136
	c0.138-0.363,0.799-3.281,0.993-4.259c0.005-0.022,0.009-0.045,0.014-0.066c0.1,0.084,0.201,0.171,0.292,0.248
	c0.681,0.581,1.642,1.239,2.285,1.564c0.035,0.018,0.064,0.032,0.088,0.046C69.372,53.586,69.231,54.01,69.171,54.19z
	 M26.895,59.645c-2.443-1.653-4.23-4.316-4.621-6.765c0.295,0.52,0.622,0.825,1.112,0.825c0.838,0,1.163-0.758,1.558-2.565
	c0.52,2.956,1.431,6.272,2.413,8.808C27.22,59.86,27.067,59.761,26.895,59.645z M33.372,72.853
	c-0.507,0.508-2.606-4.157-3.306-7.314c0.604,1.058,1.736,2.382,3.376,3.947c-0.049,0.239-0.035,0.659-0.003,1.271
	C33.532,72.526,33.527,72.698,33.372,72.853z M58.933,72.941c-0.035-0.055-0.064-1.035-0.064-2.18v-1.857
	c1.904-1.889,2.786-2.996,3.332-4.313C60.871,70.014,59.447,73.736,58.933,72.941z M71.92,44.262c-0.913-0.732-0.98-0.604-0.684,1.3
	c0.148,0.948,0.18,1.561,0.211,3.982c0.04,3.154,0.043,3.13-0.451,3.335c-0.001,0-0.001,0-0.002,0.001
	c-0.095-0.38-0.368-0.71-0.942-1c-0.535-0.271-1.381-0.853-1.969-1.354c-0.874-0.745-1.168-0.995-1.63-0.995
	c-0.442,0-0.705,0.289-0.804,0.398c-0.068,0.076-0.277,0.307-0.479,1.32c-0.244,1.224-0.834,3.743-0.919,4
	c-0.073,0.191-0.285,0.911-0.386,1.266c-0.077,0.268-0.173,0.577-0.28,0.904l0.159-1.492c0.254-2.389,0.362-4.146,0.41-6.71
	l0.006-0.313c0.052-2.696,0.055-2.857-0.822-4.342l-0.091-0.154c-1.064-1.807-1.946-3.997-2.36-5.859
	c-0.322-1.448-0.535-2.406-1.439-2.406c-0.464,0-0.748,0.329-0.842,0.438c-0.154,0.178-0.494,0.829-0.751,1.345
	c-1.143,2.28-3.296,5.342-5.621,7.99c-0.502,0.571-0.968,1.183-0.679,1.821c0.032,0.071,0.083,0.159,0.158,0.244
	c-1.337,0.428-2.017,0.727-2.651,1.167c0.011-0.081,0.023-0.17,0.038-0.266c0.198-1.322,0.152-1.926-0.177-2.307
	c-0.179-0.208-0.438-0.328-0.709-0.328c-0.514,0-0.893,0.403-1.196,0.797c-2.084,2.712-5.895,5.364-7.304,5.438
	c-0.272-0.167-0.912-1.101-1.308-2.704c-0.146-0.589-0.416-1.686-1.314-1.686c-0.687,0-1.042,0.658-1.273,1.269
	c-0.167-0.405-0.332-0.868-0.414-1.22c-0.169-0.724-0.333-1.146-0.656-1.45c0.266-0.461,0.295-1.19,0.327-1.985
	c0.058-1.431,0.112-1.912,0.386-3.432c0.152-0.841,0.176-1.366-0.133-1.736c-0.17-0.203-0.419-0.32-0.683-0.32
	c-0.586,0-1.011,0.499-1.8,1.692c-0.873,1.321-2.338,3.685-2.338,4.679c0,0.003,0,0.005,0,0.008
	c-0.594,0.57-0.747,0.914-2.032,4.021c-0.875,2.113-0.938,3.146-0.393,7.569c-0.677-2.127-1.266-4.521-1.625-6.687
	c-0.312-1.875-0.5-3.007-1.49-3.007c-0.313,0-0.594,0.146-0.834,0.438c-0.096,0.116-0.227,0.274-0.495,1.613
	c-0.067,0.339-0.212,1.065-0.363,1.694c-0.006-0.014-0.012-0.028-0.018-0.043c-0.409-0.996-0.823-1.659-1.513-1.659
	c-0.069,0-0.135,0.006-0.196,0.017c0.01-0.026,0.019-0.051,0.029-0.078c0.113-0.307,0.108-0.392-0.077-1.28
	c-0.203-0.971-0.346-2.44-0.35-3.596c-0.004-1.001-0.216-1.074-1.128-0.391c-1.671,1.252-4.074,1.972-4.074,1.22
	c0-0.154,0.705-1.477,1.179-2.21c1.325-2.051,2.981-4.925,2.981-5.173c0-0.304-0.231-0.304-0.859-0.002
	c-0.894,0.431-1.471,0.653-2.401,0.925c-1.248,0.365-1.414,0.177-0.779-0.885c0.197-0.33,0.358-0.63,0.359-0.665
	c0-0.036,0.174-0.36,0.386-0.721c0.212-0.359,0.486-0.87,0.609-1.135c1.992-4.283,4.198-8.2,5.503-9.772
	c1.537-1.853,2.078-2.389,4.167-4.133c2.039-1.703,2.028-1.655,0.468-2.042c-1.773-0.439-1.816-0.751-0.172-1.239
	c1.183-0.352,1.704-0.516,2.28-0.719c0.491-0.173,2.164-0.711,4.04-1.301c0.33-0.104,1.104-0.329,1.72-0.502
	c0.616-0.173,1.426-0.407,1.8-0.521c1.131-0.342,4.113-1.073,4.777-1.171c0.343-0.051,1.01-0.18,1.482-0.287
	c1.457-0.331,6.706-0.461,7.941-0.196c2.085,0.446,3.452,1.178,4.92,2.632c1.155,1.145,1.035,1.076,2.341,1.326
	c5.434,1.039,9.16,5.394,11.092,12.965c0.09,0.353,0.31,1.072,0.489,1.601c0.393,1.156,1.093,3.56,1.248,4.279
	c0.567,2.644,1.61,6.541,1.979,7.4C74.065,45.199,73.314,45.38,71.92,44.262z"/>
</svg>
