<?xml version="1.0" encoding="utf-8"?>
<!-- Generator: Adobe Illustrator 16.0.0, SVG Export Plug-In . SVG Version: 6.00 Build 0)  -->
<!DOCTYPE svg PUBLIC "-//W3C//DTD SVG 1.1//EN" "http://www.w3.org/Graphics/SVG/1.1/DTD/svg11.dtd">
<svg version="1.1" id="Layer_1" xmlns="http://www.w3.org/2000/svg" xmlns:xlink="http://www.w3.org/1999/xlink" x="0px" y="0px"
	 width="90px" height="90px" viewBox="0 0 90 90" enable-background="new 0 0 90 90" xml:space="preserve">
<path d="M73.81,66.606c-1.135-1.006-2.279-2.015-3.307-3.133c-0.956-1.04-1.728-2.208-2.516-3.364
	c-1.092-1.602-1.618-3.202-1.51-5.127c0.035-0.604-0.04-1.167-0.057-1.764c-0.022-0.761,0.24-1.532,0.467-2.247
	c1.84-5.793,3.379-11.777,1.814-17.795c-0.552-2.129-1.508-4.02-2.576-5.931c0-0.987,0.004-1.975-0.002-2.962
	c-0.006-1.219-0.206-2.39-0.349-3.597c-0.066-0.563-0.486-0.877-0.732-1.366c-0.388-0.763-1.172-1.51-1.773-2.109
	c-1.057-1.053-2.188-2.051-3.426-2.884c-1.044-0.701-2.123-1.355-3.151-2.077c-1.371-0.963-3.079-1.589-4.603-2.285
	c-0.494-0.226-0.999-0.444-1.541-0.515c-0.587-0.077-1.548-0.192-2.093,0.101c-0.835,0.449-1.216,1.984-1.509,2.781
	c-0.291,0.795-0.541,1.603-0.816,2.403c-0.106,0.308-0.207,1.135-0.559,1.259c-0.582,0.206-1.303,0.036-1.915,0.165
	c-0.712,0.148-1.44,0.196-2.157,0.319c-1.384,0.237-2.857,0.476-4.198,0.891c-0.815,0.253-0.906-0.167-1.535-0.621
	c-0.484-0.35-1.044-0.477-1.61-0.621c-2.415,0.617-4.28,2.275-5.862,4.128c-0.683,0.8-1.208,1.687-1.733,2.596
	c-0.568,0.989-1.392,2.229-1.45,3.38c-0.032,0.643-0.396,1.342-0.79,1.856c-0.244,0.319-0.366,0.798-0.439,1.186
	c-0.094,0.481-0.321,0.941-0.488,1.399c-0.501,1.375-0.927,2.996-1.071,4.456c-0.215,2.183-0.186,4.553,0.017,6.736
	c0.271,2.964,1.05,5.858,1.574,8.772c0.229,1.271,0.551,2.471,0.563,3.769c0.015,1.421-0.252,2.745-0.799,4.063
	c-0.63,1.516-1.755,2.872-2.827,4.1c-1.188,1.361-2.581,2.459-3.946,3.627c-0.441,0.377-0.81,0.773-0.843,1.377
	c-0.036,0.693,0.021,1.6,0.657,2.022c1.359,0.904,2.988,0.135,4.404-0.187c0.907-0.206,2.031-0.645,2.97-0.52
	c0.412,0.055,0.803-0.111,1.202-0.187c0.552-0.105,1.11-0.169,1.666-0.244c1.185-0.158,2.405-0.479,3.593-0.481
	c1.978,2.004,3.942,3.546,6.63,4.422c1.29,0.421,2.663,0.887,4.023,1.007c1.428,0.126,2.874,0.116,4.307,0.096
	c1.506-0.021,3.017-0.064,4.518-0.198c1.385-0.123,2.713-0.54,4.004-1.056c0.786-0.314,1.669-0.545,2.383-1.01
	c0.723-0.473,1.449-0.97,2.101-1.539c0.588-0.514,1.19-1.389,1.928-1.688c0.548-0.222,1.563,0.221,2.123,0.292
	c2.361,0.301,4.728,0.613,7.039,1.188c0.565,0.141,1.133,0.281,1.697,0.435c0.669,0.183,1.123,0.044,1.781-0.133
	C74.273,69.471,74.729,67.423,73.81,66.606C73.647,66.463,74.251,66.999,73.81,66.606z M53.642,26.753
	c0.115,0.824,0.518,1.602,0.678,2.421c0.176,0.896,0.434,1.78,0.611,2.68c-3.111,0.647-6.144,2.261-8.616,4.232
	c0.145-2.797,0.893-5.693,1.697-8.37c0.806-2.677,1.717-5.309,2.603-7.959c0.705,1.16,1.193,2.33,1.739,3.553
	C52.848,24.417,53.348,25.573,53.642,26.753C53.659,26.875,53.576,26.493,53.642,26.753z M53.331,21.951
	c0.005,0.014,0.015,0.062,0.015,0.131C53.346,22.044,53.342,22,53.331,21.951z M48.095,63.111c-0.745,0.733-1.678,1.208-2.637,1.552
	c-1.21-0.375-2.123-1.073-3.059-1.891c-0.938-0.82-1.95-1.543-2.87-2.388c-1.944-1.784-3.761-3.71-5.297-5.861
	c-0.369-0.516-0.372-0.927-0.409-1.561c-0.067-1.179-0.1-2.359-0.124-3.54c-0.052-2.507-0.074-5.019,0.092-7.522
	c1.88,0.59,3.732,1.266,5.551,2.013c0.927,0.38,2.193,1.239,3.131,0.456c0.771-0.643,0.479-1.823-0.299-2.316
	c-1.29-0.821-2.912-1.24-4.36-1.694c-1.246-0.393-2.497-0.763-3.774-1.041c0.224-1.552,0.438-3.101,0.782-4.633
	c1.651,0.354,3.293,0.906,4.856,1.537c1.519,0.612,3.135,1.272,4.459,2.253c0.803,0.593,1.583,0.703,2.419,0.086
	c1.009-0.743,1.94-1.551,3.016-2.207c1.667-1.015,3.442-1.853,5.331-2.361c0.24,1.84,0.523,3.669,0.728,5.517
	c-1.217,0.279-2.427,0.674-3.615,1.059c-1.142,0.372-2.805,0.723-3.717,1.53c-0.695,0.616-1.066,1.786-0.132,2.393
	c0.832,0.541,1.673-0.097,2.47-0.352c1.763-0.562,3.465-1.368,5.223-1.966c0.136,2.004,0.131,4.021,0.124,6.029
	c-0.007,1.774,0.036,3.586-0.159,5.354c-0.083,0.745-0.167,1.568-0.341,2.295c-0.089,0.375-0.438,0.669-0.672,0.953
	c-0.342,0.413-0.683,0.822-1.049,1.212c-0.903,0.964-1.867,1.875-2.858,2.747C49.987,61.567,48.963,62.256,48.095,63.111
	C47.799,63.403,48.389,62.82,48.095,63.111z M41.823,69.834c0.238-1.422,0.526-2.843,0.842-4.25
	c0.887,0.495,1.784,0.853,2.749,1.152c1.073-0.186,1.852-0.615,2.792-1.178c0.262,1.59,0.592,3.16,0.985,4.72
	c-2.449,0.378-5.021,0.365-7.472,0.005C41.77,70.109,41.804,69.947,41.823,69.834C41.944,69.102,41.804,69.947,41.823,69.834z
	 M41.083,34.538c-1.08-0.423-2.157-0.863-3.264-1.209c-0.975-0.304-1.986-0.486-2.951-0.818c0.354-1.66,0.904-3.354,1.447-4.961
	c2.061,2.439,3.995,4.964,5.972,7.484C41.934,34.878,41.538,34.716,41.083,34.538C38.29,33.443,41.538,34.716,41.083,34.538z
	 M56.807,59.801c0.211-0.781,0.861-2.421,0.375-3.176c0.253-0.726,0.31-1.529,0.389-2.287c0.139-1.32,0.267-2.645,0.303-3.973
	c0.078-2.774,0.054-5.585-0.175-8.352c-0.038-0.468-0.064-0.97-0.21-1.422c-0.049-0.156,0.037-0.4,0.039-0.569
	c0.012-0.638-0.082-1.282-0.173-1.913c-0.293-2.01-0.544-4.019-0.89-6.021l-0.055-0.006c-0.043-1.248-0.46-2.565-0.787-3.763
	c-0.384-1.404-0.801-2.866-1.354-4.211c-0.408-0.988-2.646-7.522-4.362-6.044c-0.532,0.459-0.682,1.294-0.894,1.931
	c-0.322,0.967-0.671,1.925-1.002,2.89c-0.364,1.059-0.751,2.15-1.044,3.228c-0.833,3.069-1.703,6.103-2.061,9.277
	c-0.022,0.194-0.028,0.385-0.037,0.58c-1.869-2.358-3.642-4.819-5.564-7.124c-0.397-0.478-0.73-1.189-1.255-1.54
	c-0.618-0.413-0.853-1.312-1.655-1.482c-1.505-0.318-1.842,2.572-2.137,3.502c-0.193,0.602-0.346,1.217-0.531,1.82
	c-0.108,0.355-0.203,0.717-0.278,1.082c-0.071,0.334-0.022,0.708-0.145,1.009c-0.498,1.208-0.648,2.61-0.844,3.895
	c-0.419,2.744-0.635,5.494-0.666,8.282c-0.024,2.061-0.007,4.124,0.091,6.181c0.044,0.946,0.079,1.914,0.266,2.844
	c0.055,0.273-0.083,0.437-0.104,0.717c-0.044,0.57,0.072,1.162,0.153,1.722c-0.467-0.568-0.91-1.943-1.891-1.347
	c-0.471,0.287-0.571,0.846-0.649,1.346c-0.084,0.519-0.316,1.021-0.519,1.501c-1.076,2.552-3.524,4.394-5.752,5.912
	c1.863-2.114,3.505-4.703,3.989-7.52c0.544-3.168-0.271-6.354-1.051-9.409c0.452,0.716,0.992,1.573,1.7,2.069
	c0.556,0.389,1.317,0.127,1.399-0.589c0.079-0.711-0.216-1.577-0.303-2.285c-0.111-0.899-0.208-1.798-0.314-2.699
	c-0.17-1.464-0.069-3.035-0.387-4.472c-0.409-1.852-2.723,0.099-3.156,0.913c-0.283-3.971,0.281-8.132,2.296-11.615
	c0.214-0.367,0.447-0.737,0.518-1.162c0.057-0.335,0.024-0.68,0.092-1.013c0.185-0.904,0.793-1.831,1.264-2.606
	c1.152-1.9,2.709-3.427,4.614-4.563c0.486,0.461,0.909,1.148,1.523,1.456c0.896,0.45,1.862-0.185,2.702-0.465
	c1.934-0.643,3.944-1.017,5.979-1.11c0.968-0.044,1.938-0.013,2.903-0.086c0.623-0.048,0.914-0.568,1.124-1.098
	c0.718-1.819,1.222-3.757,1.847-5.611c4.745,2.149,9.491,4.695,12.629,8.993c0.056,1.368,0.209,2.725,0.293,4.09
	c0.053,0.834-0.001,1.703,0.166,2.525c0.13,0.647,0.586,1.173,0.891,1.747c0.754,1.425,1.343,2.92,1.671,4.499
	c0.404,1.937,0.406,3.93,0.332,5.903c-0.484-0.848-2.163-2.352-2.713-0.729c-0.381,1.125-0.251,2.539-0.328,3.713
	c-0.098,1.486-0.316,2.978-0.378,4.464c-0.019,0.417,0.018,0.876,0.408,1.124c0.688,0.436,1.243-0.309,1.58-0.806
	c-0.4,1.383-0.909,2.78-1.184,4.194c-0.259,1.354-0.125,2.755,0.217,4.08c0.902,3.501,3.106,6.614,5.471,9.282
	c-1.277-0.771-2.532-1.591-3.66-2.571c-1.251-1.088-2.537-2.156-3.33-3.64c-0.298-0.559-0.543-1.43-1.119-1.753
	c-0.883-0.495-1.339,0.686-1.695,1.254c-1.204,1.925-2.44,3.809-4.052,5.431C55.875,62.961,56.307,61.643,56.807,59.801
	C56.974,59.182,56.307,61.643,56.807,59.801z M64.947,44.336c-0.041,0.195-0.29,0.757-0.608,1.364
	c0.153-1.684,0.243-3.375,0.343-5.063c0.402,0.519,0.59,1.229,0.637,1.875C65.366,43.188,65.087,43.696,64.947,44.336
	C64.906,44.531,65,44.097,64.947,44.336z M26.238,41.966c0.098-0.715,0.381-1.266,0.839-1.639c0.167,2.168,0.349,4.323,0.618,6.481
	C26.594,45.152,26.044,43.359,26.238,41.966C26.336,41.25,26.044,43.359,26.238,41.966z M39.081,70.942
	c-1.784-0.473-3.474-1.287-4.943-2.403c-0.779-0.592-1.478-1.257-2.08-2.029c-0.437-0.56-0.787-0.581-1.48-0.559
	c-3.23,0.105-6.509,0.895-9.662,1.554c0.1-0.056,0.188-0.123,0.269-0.203c-0.112,0.137,0.085-0.042,0.125-0.067
	c0.185-0.117,0.374-0.226,0.563-0.334c0.582-0.329,1.186-0.622,1.737-1.005c1.011-0.704,2.006-1.396,2.958-2.18
	c1.994-1.642,3.641-3.553,4.394-6.06c0.613,0.676,1.15,2.286,2.242,2.286c1.352,0,0.593-2.199,0.49-2.881
	c1.106,1.375,2.302,2.679,3.567,3.91c0.649,0.632,1.319,1.244,2.009,1.832c0.575,0.488,1.34,0.917,1.829,1.486
	c-0.071,1.018-0.462,2.179-0.671,3.184c-0.144,0.684-0.275,1.372-0.392,2.061c-0.091,0.549-0.526,0.982-0.367,1.57
	C39.483,71.051,39.269,70.992,39.081,70.942C38.742,70.853,39.269,70.992,39.081,70.942z M68.189,67.208
	c-1.559-0.332-3.125-0.624-4.698-0.877c-0.894-0.144-1.783-0.277-2.687-0.34c-0.507-0.035-1.335-0.232-1.729,0.179
	c-0.666,0.694-1.21,1.435-1.964,2.054c-0.815,0.667-1.706,1.248-2.65,1.71c-1.021,0.499-2.169,0.949-3.287,1.163
	c0.175-0.538-0.271-1.498-0.417-2.036c-0.175-0.635-0.288-1.271-0.415-1.918c-0.19-0.975-0.36-1.948-0.521-2.928
	c1.939-1.7,3.961-3.25,5.687-5.188c-0.381,1.6-0.885,3.203-1.547,4.71c-0.31,0.706-0.659,1.392-1.032,2.067
	c-0.219,0.396-0.523,0.857-0.256,1.311c0.195,0.333,0.603,0.447,0.956,0.318c0.712-0.259,1.38-0.93,1.936-1.431
	c0.731-0.66,1.412-1.375,2.049-2.127c1.152-1.358,2.117-2.882,3.045-4.396c1.857,3.657,5.638,6.045,9.084,8.058
	C69.225,67.43,68.706,67.318,68.189,67.208C67.732,67.11,68.647,67.305,68.189,67.208z"/>
</svg>
