<?xml version="1.0" encoding="utf-8"?>
<!-- Generator: Adobe Illustrator 16.0.0, SVG Export Plug-In . SVG Version: 6.00 Build 0)  -->
<!DOCTYPE svg PUBLIC "-//W3C//DTD SVG 1.1//EN" "http://www.w3.org/Graphics/SVG/1.1/DTD/svg11.dtd">
<svg version="1.1" id="Layer_1" xmlns="http://www.w3.org/2000/svg" xmlns:xlink="http://www.w3.org/1999/xlink" x="0px" y="0px"
	 width="90px" height="90px" viewBox="0 0 90 90" enable-background="new 0 0 90 90" xml:space="preserve">
<g>
	<path fill="#04090D" d="M33.993,29.122c0.611-0.642,3.665,2.203,2.555-0.228c-0.114-0.251-0.341-0.824-0.508-1.284
		c0.039,0.108,0.072,0.2-0.007-0.018c-0.081-0.223-0.044-0.123-0.004-0.012c-0.202-0.567-1.791-5.537-2.675-4.651
		c-0.426,0.426-0.431,1.237-0.525,1.787c-0.143,0.834-0.327,1.66-0.445,2.498c-0.192,1.365-0.443,2.866-0.32,4.248
		C32.231,33.329,33.609,29.524,33.993,29.122z"/>
	<path fill="#04090D" d="M56.153,22.941c-0.141-0.273-0.404-0.42-0.665-0.159c-0.751,0.753-1.208,2.437-1.571,3.407
		c-0.174,0.467-1.579,3.809-0.813,3.809c0.659,0,1.152-0.783,1.765-0.972c0.682-0.209,0.978,0.637,1.165,1.122
		c0.128,0.333,1.334,2.937,1.413,1.627c0.093-1.528-0.243-3.111-0.418-4.622C56.872,25.802,56.784,24.174,56.153,22.941z"/>
	<path fill="#04090D" d="M79.601,53.723c-0.735-1.107-0.488-0.735-0.006-0.009c-1.801-2.708-4.309-5.04-6.646-7.271
		c-2.643-2.522-5.398-4.929-8.346-7.09c-0.227-4.578-0.751-9.126-1.582-13.636c-0.504-2.738-1.091-5.468-1.854-8.146
		c-0.51-1.788-1.027-4.24-2.571-5.456c-2.255-1.773-4.504,0.318-5.697,2.219c-2.544,4.056-4.252,8.728-5.932,13.192
		c-1.403-0.145-2.852-0.053-4.262-0.053c-1.337-3.592-2.814-7.156-4.527-10.587c-1.011-2.023-2.504-5.453-5.224-5.453
		c-0.888,0-1.708,0.393-2.309,1.106c-0.918,1.092-1.392,2.549-1.817,3.884c-0.824,2.59-1.4,5.261-1.923,7.925
		c-0.973,4.97-1.503,9.923-1.81,14.968c-3.008,2.176-5.885,4.664-8.541,7.255c-2.4,2.342-5.401,4.979-6.943,8.015
		c-1.048,2.063-0.852,4.544,0.537,6.807c0.976,1.591,2.397,2.856,4.003,3.648c2.11,1.069,4.623,1.362,7.028,0.354
		c0.002-0.001,0.003-0.001,0.005-0.002c0.049,0.593,0.151,1.147,0.31,1.669c0.4,1.309,1.141,2.382,2.208,3.212
		c1.609,1.312,3.826,1.903,5.881,1.78c2.169-0.101,4.168-0.939,5.215-2.404c0.158-0.222,0.238-0.35,0.358-0.396
		c1.725,0.662,3.495,1.237,5.283,1.703c1.617,0.42,3.369,0.932,5.046,0.737c3.008-0.347,6.215-1.354,8.985-2.537
		c0.091-0.008,0.155,0.01,0.215,0.054c0.139,0.199,0.288,0.39,0.449,0.57c3.681,4.648,13.356,1.803,13.382-4.055
		c0.002-0.605,1.724,0.154,2.26,0.22c0.917,0.113,1.851,0.067,2.754-0.125c1.76-0.375,3.389-1.295,4.661-2.562
		c2.533-2.521,3.468-6.423,1.411-9.529C80.542,55.142,82.341,57.852,79.601,53.723z M49.436,48.031
		c0.328-5.385,0.479-10.876,1.445-16.192c0.377-2.075,1.549-4.269,2.35-6.232c0.92-2.256,1.871-4.51,2.987-6.677
		c0.93,3.226,1.574,6.555,2.112,9.866c0.434,2.67,0.764,5.355,0.954,8.055c0.146,2.079,0,4.276,0.44,6.323
		c-3.37,1.85-6.887,3.542-10.314,5.293L49.436,48.031z M30.077,41.107c0.287-1.124,0.176-2.365,0.241-3.514
		c0.115-2.03,0.345-4.056,0.614-6.07c0.565-4.237,1.332-8.48,2.525-12.59c0.919,1.815,1.734,3.684,2.514,5.562
		c0.654,1.574,1.28,3.16,1.887,4.753c0.318,0.834,0.849,1.707,1.063,2.56c0.571,2.266,0.696,4.818,0.875,7.148
		c0.243,3.159,0.452,6.334,0.601,9.5c-3.533-1.803-7.236-3.508-10.664-5.493c0.117-0.687,0.276-1.561,0.335-1.821
		C30.06,41.183,30.053,41.207,30.077,41.107z M36.802,64.377c-3.208-1.328-7.303-2.933-8.845-6.3
		c1.574,0.737,3.143,1.462,4.677,2.282c2.165,1.157,4.447,2.173,5.505,4.523C37.633,64.705,37.184,64.535,36.802,64.377z
		 M51.851,64.632c0.475-0.973,0.835-1.55,1.072-1.716c2.603-1.83,5.495-3.271,8.383-4.578c-1.36,2.453-3.833,3.472-6.051,4.923
		C54.173,63.798,52.981,64.21,51.851,64.632z M71.366,63.497c-1.838-0.054-3.169-1.081-4.395-2.37
		c-0.401-0.422-0.926-1.388-1.543-1.62c-0.294-0.14,0.15,1.964,0.178,2.085c0.992,4.259,0.278,6.434-2.469,7.52
		c-1.82,0.718-4.096,0.801-5.706-0.462c-0.728-0.567-1.187-1.36-1.409-2.248c-0.063-0.22-0.196-0.3-0.419-0.253
		c3.263-1.301,7.873-4.082,8.687-7.814c0.188-0.86,0.194-3.044-0.044-3.53c-0.845-1.725-11.635,4.909-12.933,5.821
		c-0.915,0.643-1.455,1.717-1.936,2.692c-0.483,0.981-0.913,1.988-1.337,2.995c-0.191,0.454-0.97,1.691-0.646,2.224
		c0.107,0.176,0.321,0.193,0.414,0.201c0.103,0.006,0.206-0.001,0.308-0.023c-0.938,0.233-1.933,0.499-2.889,0.593
		c-1.087,0.13-2.039-0.23-3.098-0.424c0.034-0.002,0.065-0.005,0.091-0.012c0.171-0.043,0.252-0.147,0.291-0.229
		c0.258-0.546-0.471-1.751-0.671-2.278c-0.373-0.979-0.831-1.979-1.284-2.924c-0.888-1.852-2.26-3.149-4.063-4.109
		c-1.738-0.924-3.436-1.915-5.196-2.805c-0.827-0.418-1.708-0.809-2.563-1.166c-0.884-0.371-1.998-1.034-2.978-1.034
		c-1.287-0.001-0.837,2.883-0.837,3.746l0.381,0.917c1.464,3.524,5.303,5.884,8.702,7.27c-0.309-0.029-0.447,0.283-0.546,0.521
		c-0.345,0.814-0.76,1.483-1.479,2.019c-1.538,1.106-3.612,1.06-5.319,0.399c-3.026-1.173-3.778-3.631-2.532-8.283
		c0.332-1.24,0.347-1.32,0.256-1.41c-0.192-0.191-0.55,0.278-0.644,0.388c-1.448,1.617-2.871,3.351-5.167,3.63
		c-3.806,0.46-9.093-4.164-6.666-8.117c1.812-2.951,4.628-5.522,7.123-7.883c1.326-1.256,2.735-2.414,4.122-3.601
		c0.759-0.648,1.552-1.255,2.334-1.874c0.439-0.349,1.648-0.957,1.853-1.508c-0.128,0.589-0.47,2.528-0.514,2.937
		c-0.093,0.859,0.411,1.291,1.652,1.993c0.626,0.354,0.824,0.449,0.905,0.476h0c2.325,0.849,4.542,2.275,6.744,3.402
		c0.848,0.434,6.352,4.021,7.012,3.121c0.607-0.829,0.104-3.278,0.057-4.226c-0.081-1.649-0.208-3.297-0.313-4.945
		c-0.154-2.432-0.234-4.879-0.561-7.295c-0.268-1.985-0.277-4.094-1.113-5.935c0.347,0.418,0.928,0.005,1.275-0.193
		c1.426,0,2.985-0.171,4.393,0.06c0.445,0.073,1.253,0.588,1.631,0.097c-0.786,1.644-0.705,3.83-0.948,5.616
		c-0.31,2.284-0.404,4.585-0.556,6.883c-0.125,1.897-0.263,3.794-0.38,5.692c-0.06,0.96-0.644,3.398,0.127,4.219
		c0.817,0.871,5.313-2.252,6.235-2.725c2.828-1.449,5.83-2.743,8.563-4.355c1.261-0.745,1.331-0.95,0.923-2.741
		c-0.093-0.411-0.152-1.066-0.206-2.336c0.064,0.555,0.176,0.658,0.463,0.753c0.902,0.297,1.82,1.319,2.547,1.902
		c1.001,0.802,1.96,1.649,2.929,2.489c1.723,1.492,3.373,3.065,4.984,4.678c1.859,1.86,5.167,4.469,5.066,7.388
		C78.137,60.934,74.658,63.589,71.366,63.497z"/>
</g>
</svg>
