<?xml version="1.0" encoding="utf-8"?>
<!-- Generator: Adobe Illustrator 16.0.0, SVG Export Plug-In . SVG Version: 6.00 Build 0)  -->
<!DOCTYPE svg PUBLIC "-//W3C//DTD SVG 1.1//EN" "http://www.w3.org/Graphics/SVG/1.1/DTD/svg11.dtd">
<svg version="1.1" id="Layer_1" xmlns="http://www.w3.org/2000/svg" xmlns:xlink="http://www.w3.org/1999/xlink" x="0px" y="0px"
	 width="90px" height="90px" viewBox="0 0 90 90" enable-background="new 0 0 90 90" xml:space="preserve">
<path d="M75.666,54.625c-0.854-3.417-2.188-5.188-4.114-10.283c-1.248-3.301,0.714-6.739-0.795-10.035
	c-1.398-3.059-1.332-6.344-3.084-9.369c-0.922-1.59-2.079-3.029-3.313-4.394c-2.018-2.231-1.04-0.856-0.865-2.554
	c0.653-6.327-8.166-9.813-13.201-8.752c-1.373,0.289-2.59,0.852-3.675,1.744c-0.582,0.479-0.872,1.015-1.025,1.746
	c-0.892,0-1.782,0.036-2.671,0.11c-3.503,0.291-6.966,1.171-10.141,2.692c-6.051,2.898-10.754,8.021-12.488,14.563
	c-0.761,2.871-2.088,6.365-1.506,9.356c0.751,3.851-1.273,6.774-2.739,10.217c-1.309,3.073-2.141,6.306-2.084,9.663
	c0.052,3.046,0.515,7.519,2.681,9.879c2.138,2.329,7.007,2.544,9.938,2.309c1.865-0.15,3.554-0.736,5.221-1.561
	c0.177-0.088,1.537-0.601,2.266-1.594c3.134,2.231,6.334,4.227,10.305,4.346c2.021,0.061,4.286-0.842,6.114-1.658
	c2.178-0.975,4.33-1.781,6.022-3.248c0.193,0.699,0.799,1.463,0.833,1.492c1.105,0.948,2.691,1.52,4.08,1.869
	c3.16,0.799,6.918,0.492,9.964-0.659C76.788,68.463,76.824,59.125,75.666,54.625z M22.53,30.18
	c1.615-6.895,8.331-12.125,14.837-14.105c3.353-1.021,6.563-1.096,10.021-0.971c0.748,0.025,0.46-1.34,0.46-1.83
	c0-0.982,1.665-1.541,2.412-1.748c3.087-0.861,6.751,0.236,9.079,2.385c0.919,0.848,2.04,2.286,1.94,3.633
	c-0.114,1.555-2.251,1.4-0.474,2.809c2.742,2.174,4.862,5.096,6.195,8.324c0.703,1.701,0.891,3.536,1.151,5.341
	c0.113,0.784,0.7,1.37,0.86,2.138c0.268,1.291,0.208,2.636-0.005,3.929c-0.076,0-0.619-0.208-0.695-0.208
	c0.345-2.107-0.43-4.515-0.771-4.959c-1.575-2.045-0.892,3.073-1.195,4.16c-1.945-1.105-4.115-1.701-6.182-2.528
	c0.224-1.796,0.473-3.791,0.308-5.602c-0.152-1.675-3.085-1.94-4.389-2.278c-2.696-0.698-5.468-1.036-8.233-1.313
	c-8.97-0.896-18.629,1.871-26.042,6.914C21.804,32.866,22.195,31.607,22.53,30.18z M58.347,32.311c0,0.748-0.017,2.011-0.114,2.754
	c-12.136-3.146-25.109-1.987-36.246,3.839c-0.274-1.697-0.356-2.038,1.109-3.119c1.446-1.067,3.03-1.972,4.68-2.687
	c3.719-1.614,7.46-2.74,11.47-3.355c3.807-0.584,7.537-0.566,11.343,0.012c1.964,0.298,3.909,0.713,5.828,1.222
	C57.505,31.264,58.348,31.053,58.347,32.311z M58.319,62.037c-3.377,3.41-11.565,9.971-16.653,7.379
	c-13.416-7.375-11.323-8.947-10.182-10.133c0.96-0.998,2.391-1.402,3.72-1.766c1.584-0.434,3.433-0.15,4.933-0.76
	c2.655-1.079,4.306-4.41,7.46-1.756c1.048,0.883,1.795,1.723,3.224,1.93c1.666,0.242,3.267,0.438,4.881,0.955
	C58.006,58.625,60.63,59.705,58.319,62.037z M54.785,55.441c-1.333-0.322-2.932-0.164-4.2-0.612
	c-0.958-0.339-1.682-1.544-2.563-2.079c-1.179-0.715-2.571-0.914-3.928-0.738c-2.614,0.303-3.688,2.818-6.318,2.975
	c-2.944,0.176-6.188,1.164-8.313,3.302c0.098-3.296,1.289-6.396,2.096-9.554c0.392-1.537,0.159-3.016,1.665-3.016
	c0.89-0.001,2.215-0.221,2.885-0.891c1.1,2.996,8.321,2.408,10.77,2.271c2.156-0.119,6.185,0.441,7.08-2.516
	c0.692,0.66,1.692,1.142,2.605,1.131c2.279-0.027,1.646,0.88,2.154,3.223c0.757,3.482,1.673,6.053,1.897,9.416
	C59.2,56.599,56.515,55.859,54.785,55.441z M68.887,47.395c2.642,5.463,4.011,9.934,3.049,16.04
	c-0.339,2.147-0.778,3.401-2.972,4.053c-2.643,0.784-7.184,0.731-9.184-1.331c2.24-3.148,3.377-6.406,2.896-10.123
	c-0.305-2.348-1.035-4.607-1.668-6.879c-0.385-1.383-0.392-4.857-1.988-5.397c-0.664-0.225-1.421-0.2-2.107-0.298
	c-1.554-0.221-2.01-0.658-2.059-2.125c-0.036-1.076-0.362-4.239-1.638-2.07c-0.917,1.557-0.442,4.67-2.375,5.11
	c-2.193,0.5-4.564,0.587-6.807,0.516c-1.611-0.052-5.539,0.132-6.085-1.575c-0.396-1.241-0.333-4.049-1.618-4.764
	c-1.27-0.707-0.988,2.33-1.27,3.637c-0.396,1.844-3.109,0.949-4.291,1.875c-1.067,0.836-1.266,3.043-1.584,4.219
	c-0.565,2.087-1.192,4.189-1.616,6.314c-0.825,4.138-0.946,8.695,2.554,11.779c-2.608,1.215-7.654,2.133-10.258,0.68
	c-2.479-1.385-2.243-7.357-2.158-9.752c0.13-3.651,2.197-7.006,3.599-10.273c0.67-1.561,0.869-4.469,2.271-5.305
	c1.899-1.133,3.936-2.028,6.029-2.732c7.688-2.586,15.604-3.034,23.534-1.752c3.703,0.598,7.505,1.594,10.925,3.147
	c0.839,0.381,1.659,0.805,2.446,1.284c1.042,0.634,0.854,1.15,1.14,2.272C67.89,44.877,68.732,47.085,68.887,47.395"/>
</svg>
