<?xml version="1.0" encoding="utf-8"?>
<!-- Generator: Adobe Illustrator 16.0.0, SVG Export Plug-In . SVG Version: 6.00 Build 0)  -->
<!DOCTYPE svg PUBLIC "-//W3C//DTD SVG 1.1//EN" "http://www.w3.org/Graphics/SVG/1.1/DTD/svg11.dtd">
<svg version="1.1" id="Layer_1" xmlns="http://www.w3.org/2000/svg" xmlns:xlink="http://www.w3.org/1999/xlink" x="0px" y="0px"
	 width="90px" height="90px" viewBox="0 0 90 90" enable-background="new 0 0 90 90" xml:space="preserve">
<path d="M75.047,41.016c-1.36-0.099-2.588-0.571-3.707-1.345c-3.702-2.56-6.251-6.511-9.695-9.39
	c-3.271-2.734-6.994-4.317-11.239-4.728c4.866-5.197-0.924-12.177-6.05-14.129c-3.198-1.217-1.862,1.422-0.548,2.979
	c2.221,2.628,2.574,5.826,1.662,9.072c-0.216,0.762-0.259,2.031-1.144,2.079c-1.479,0.08-2.947,0.087-4.387-0.3
	c-3.163-0.851-6.204-2.933-8.098-5.611c-0.486-0.688-0.961-2.398-2.016-2.398c-1.368,0-1.68,2.648-1.859,3.584
	c-0.625,3.262-0.398,7.108,1.404,9.989c-3.979,0.071-7.881,1.58-10.805,4.293c-1.417,1.314-2.587,2.891-3.426,4.633
	c-0.553,1.149-2.152,4.492-1.148,5.669c0.735,0.926,1.848-0.228,2.537-0.691c1.808-1.214,3.947-1.938,6.078-2.324
	c-2.604,3.062-2.921,7.609-3.32,11.423c-0.103,0.983-1.283,5.002-0.14,5.559c1.669,0.813,5.351-2.234,6.563-3.123
	c0.073,5.044-0.724,9.738-2.129,14.544c-0.323,1.105,0.603,2.032,1.571,1.183c1.498-1.314,2.676-3.27,3.86-4.858
	c2.48,4.346,7.238,10.772,12.883,10.358c2.988-0.22,5.841-1.653,8.25-3.36c2.219-1.572,4.314-2.474,5.485-5.049
	c2.103,1.251,4.794,1.469,7.183,1.34c2.267-0.123,6.035-0.893,2.632-3.187c-1.389-0.937-2.434-1.777-1.867-3.46
	c0.74-2.201,1.448-4.477,1.844-6.768c1.025,0.251,1.171,0.25,1.64,0.344c1.141,0.094,1.965,0.332,3.038,0.332
	c1.026,0,4.198,0.846,3.996-1.163c-0.104-1.016-2.481-2.084-3.203-2.827c-1.407-1.448-2.537-3.128-3.713-4.76
	c3.863-0.193,8.327-2.755,10.531-5.917C79.12,40.987,76.148,41.096,75.047,41.016z M30.781,55.368
	c-0.194,0.946-0.461,1.885-0.749,2.806c-0.246-1.21-0.512-2.421-0.727-3.638C29.759,54.874,30.303,55.072,30.781,55.368z
	 M29.786,52.719c0.65-0.65,1.277-1.325,1.87-2.028c-0.033,0.206-0.067,0.411-0.101,0.617c-0.089,0.575-0.188,1.147-0.3,1.718
	C30.828,52.874,30.259,52.708,29.786,52.719z M51.898,68.027c0.509,1.143-5.613,4.512-6.536,4.948
	c-1.866,0.881-4.043,1.741-5.964,0.597c-4.571-2.722-7.738-7.783-8.842-12.87c2.913-0.01,6.697-3.006,8.688-4.878
	c0.342,2.137,4.65,0.07,5.508-0.483c0.579-0.377,6.157,3.537,7.41,3.982C52.936,59.596,51.547,67.24,51.898,68.027z M40.826,54.124
	c0.612-0.757,1.154-1.572,1.605-2.436c0.219,0.374,1.134,1.202,0.614,1.431C42.301,53.441,41.555,53.765,40.826,54.124z
	 M67.133,47.112c1.184-2.071,1.097-4.425-0.161-6.45c-0.529-0.853-1.554-2.483-2.745-2.483c-1.395,0-2.22,2.25-2.536,3.292
	c-0.737-2.955-5.982-7.907-6.87-2.65c-1.711-2.547-6.729-6.725-6.799-0.804c-1.187-1.987-6.714-6.336-6.604-1.397
	c-0.545-0.422-3.631-1.841-4.425-1.069c-0.83,0.806,0.499,3.546,1.001,4.057c-3.646,1.583-1.678,4.463,1.642,3.625
	c-0.979,2.759,3.366,1.94,4.596,1.549c-1.801,2.919,6.045,2.728,7.26,2.372c-3.355,4.587,3.037,3.455,5.452,2.672
	c-1.334,2.331,0.608,2.981,2.604,2.981c2.305,0,4.788-0.839,6.295-2.656c1.495,2.149,3.05,4.389,5.135,6.014
	c-2.012,0.075-3.965-0.402-5.95-0.404c-0.824-0.001-0.516,0.331-1.141-0.157c-0.458-0.358-1.198-0.509-1.73-0.669
	c-1.291-0.389-3.245-1.675-4.347-0.334c-1.584,1.928-0.12,3.481,1.434,4.783c-3.461-0.63-3.046,2.277-3.832,4.952
	c-1.33,4.531,5.745-0.411,6.696-1.567c-0.831,2.621-0.514,4.111,1.815,5.792c-2.166,0.214-4.536,0.191-6.589-0.625
	c-1.373-0.545-2.602-1.679-3.43,0.289c0.72-1.813,0.223-5.085,0.246-7.12c0.012-1.044,0.338-2.765-0.832-3.325
	c-1.881-0.9-3.752-1.581-5.469-2.817c-1.406-1.013-2.154-1.745-3.113-3.031c-0.645-0.863-2.047-4.254-3.378-2.098
	c-2.457,3.979-5.121,6.719-9.529,8.617c0.85-2.818,1.313-5.644,1.784-8.574c0.153-0.95,0.516-2.082-0.166-2.886
	c-0.948-1.118-2.481,1.697-2.895,2.208c-0.861,1.065-1.991,1.956-2.788,3.065c-0.82,1.144-0.18,2.889,0.069,4.113
	c0.579,2.914,0.971,6.03,2.104,8.796c-1.317-1.519-2.91,1.598-3.512,2.382c0.872-3.96,1.331-8.248,1.06-12.303
	c-0.223-3.318-5.613,1.389-6.827,1.977c0.783-4.246,0.325-9.402,2.903-13.114c0.535-0.771,3.796-3.764,0.985-3.764
	c-2.938,0-6.226,1.115-8.695,2.664c1.392-5.377,6.041-9.366,11.486-10.222c1.237-0.194,2.586,0.027,3.792-0.262
	c1.768-0.425-0.06-2.312-0.464-3.062c-1.494-2.767-1.5-6.408-0.682-9.376c2.969,4.751,8.481,7.487,13.998,7.268
	c5.325-0.211,4.129-9.891,2.09-12.977c1.848,1.205,3.451,2.986,4.046,5.15c0.679,2.467-0.354,3.66-1.733,5.458
	c-1.805,1.417-0.329,2.152,1.214,2.334c2.074,0.156,4.138,0.528,6.066,1.329c4.428,1.839,7.505,5.586,10.726,8.967
	c2.537,2.663,5.27,5.113,9.12,5.223C73.484,45.04,70.162,46.948,67.133,47.112z M65.158,49.198
	c-1.265,2.186-4.915,3.161-7.422,2.408c-1.072-0.322,0.92-2.396,1.27-2.685c0.379-0.314,4.057-1.781,4.51-1.612
	c-0.393-0.388-1.535-0.908-1.907-1.031c-0.629-0.208-0.971,0.453-1.391,0.797c-1.707,1.399-4.085,2.085-6.225,2.435
	c-2.267,0.37-3.171,0.05-1.518-1.994c0.6-0.741,1.353-1.346,2.202-1.776c0.542-0.274,2.643-0.498,2.914-0.943
	c0.177-0.292-2.549-1.119-3.267-0.436c-1.66,1.577-3.833,2.302-6.107,2.103c-1.152-0.101-4.294-0.377-2.458-1.831
	c0.65-0.515,4.091-1.723,4.282-2.258c0.065-0.202-2.216-0.739-2.465-0.739c-0.357,0-0.959,0.808-1.22,1.002
	c-0.817,0.608-1.793,1.015-2.769,1.289c-6.472,1.816-0.332-3.474,0.357-3.112c-1.854-0.972-3.766,1.612-5.797,1.612
	c-3.61,0,1.34-2.085,1.766-2.38c-0.21,0.146-4.428-5.155,0.023-3.156c1.648,0.74,1.71,1.909,2.486,3.277
	c0.291,0.511,2.724,0.333,2.726,0.339c-0.617-1.492-2.589-1.751-2.727-3.787c-0.184-2.714,2.274-0.817,3.33,0.137
	c1.146,1.035,2.021,2.296,1.916,3.88c-0.055,0.806,2.53,0.763,2.529,0.8c0.031-1.241-1.311-2.392-1.16-3.923
	c0.27-2.73,1.827-1.579,3.196-0.279c1.235,1.171,2.605,2.772,2.814,4.537c0.145,1.216,0.407,1.807,1.955,1.807
	c-0.864-0.506-2.798-10.858,2.637-4.083c1.078,1.343,1.509,3.083,0.974,4.744c-0.339,1.056,1.977,2.015,2.88,2.015
	c0.122-0.206,0.054-0.396-0.205-0.57c-0.978-1.436-1.075-3.093-0.401-4.679c0.463-1.089,0.998-2.547,2.124-1.342
	c1.212,1.298,2.167,2.974,1.954,4.81C66.814,45.877,64.562,48.146,65.158,49.198z M58.847,56.427
	c0.158-1.185,2.082,0.017,2.791,0.23c1.356,0.409,0.915,1.406,0.471,2.632C61.078,58.694,59.348,57.556,58.847,56.427z
	 M60.827,61.49c-0.905,1.153-2.169,2.101-3.503,2.699c0.284-1.023,0.57-2.055,0.779-3.097C58.891,61.047,60.217,61.276,60.827,61.49
	z"/>
</svg>
