<?xml version="1.0" encoding="utf-8"?>
<!-- Generator: Adobe Illustrator 16.0.0, SVG Export Plug-In . SVG Version: 6.00 Build 0)  -->
<!DOCTYPE svg PUBLIC "-//W3C//DTD SVG 1.1//EN" "http://www.w3.org/Graphics/SVG/1.1/DTD/svg11.dtd">
<svg version="1.1" id="Layer_1" xmlns="http://www.w3.org/2000/svg" xmlns:xlink="http://www.w3.org/1999/xlink" x="0px" y="0px"
	 width="90px" height="90px" viewBox="0 0 90 90" enable-background="new 0 0 90 90" xml:space="preserve">
<path d="M71.676,34.853c-1.284-4.883-3.52-8.072-6.581-10.503c-0.612-0.486-2.296-1.312-2.938-1.756
	c-0.503-0.348-0.348-2.401-0.454-2.962c-0.468-2.462-1.581-4.833-3.425-6.564c-8.909-8.365-20.066,0.712-25.815,7.843
	c-3.422,4.245-7.177,7.972-10.979,11.868c-3.964,4.062-7.618,8.852-8.355,14.651c-0.358,2.821,0.08,5.675,1.127,8.311
	c0.748,1.882,1.354,3.875,3.892,3.51c2.525-0.364,2.656-1.203,2.125-2.854c-0.453-1.409-0.748-2.524-0.625-4
	c-0.01,0.115,0.275-2.259,0.375-2.188c0.351,0.251,0.215,1.284,0.272,1.665c0.255,1.708,0.671,3.394,1.255,5.02
	c1.078,2.999,2.727,5.749,4.8,8.162c1.896,2.207,4.112,3.964,6.344,5.803c2.969,2.448-0.542,3.816,0.229,6.548
	c0.771,2.733,3.76,1.14,5.077-0.061c0.905-0.824,1.713-1.701,2.408-2.707c0.508-0.734,1.471,1.075,1.839,1.372
	c2.302,1.861,4.726-0.931,3.411-3.252c-0.155-0.273-2.354-4.097-2.315-4.066c0.675,0.542,1.41,0.971,1.856,1.274
	c1.54,1.046,3.262,1.998,5.16,2.114c3.465,0.212,6.241-2.443,8.729-4.467c-0.786,1.995-2.324,3.744-2.979,5.749
	c-0.637,1.951,0.912,3.982,3.074,2.998c2.106-0.958,3.714-4.189,4.976-6.018c1.609-2.334,3.066-4.775,4.322-7.319
	C72.888,54.091,74.212,44.521,71.676,34.853z M37.661,72.868c-0.189-3.765-4.36-5.633-6.742-7.919
	c-3.523-3.379-6.04-7.801-7.012-12.595c-0.478-2.352-0.574-4.748-0.244-7.126c0.132-0.946,1.479-6-1.304-4.431
	c-3.875,2.185-5.291,7.328-5.393,11.427c-1.648-12.334,10.725-19.715,17.551-28.123c3.324-4.095,7.193-9.1,12.615-10.358
	c4.353-1.01,9.505,0.638,11.001,5.187c-1.239-1.398-3.144-2.092-4.938-2.404c-2.811-0.519-5.916-0.198-8.318,1.469
	c-0.986,0.684-1.891,1.66-2.102,2.885c-0.223,1.299-2.065,1.613-3.223,2.342c-5.047,3.179-7.373,8.096-8.74,13.591
	c-1.618,6.504-0.862,14.331,1.438,20.563c1.193,3.231,2.806,5.915,4.5,8.875c0.617,1.081,1.528,2.137,2.239,3.167
	C39.692,70.437,38.38,71.885,37.661,72.868z M56.967,21.256c-4.304-1.183-7.584-1.003-11.959-0.131
	C46.782,17.773,55.667,17.792,56.967,21.256z M50.719,68.707c-4.298-0.097-8.707-5.672-10.755-8.954
	c-1.203-1.93-0.991-5.532-0.964-7.722c0.04-3.104,0.538-4.915,1.176-7.947c2.115,4.426,4.546,7.694,8.355,10.822
	c1.92,1.577,4.529,3,6.873,3.868c1.705,0.631,3.359-0.937,1.752-2.368c-3.157-3.103-6.577-7.159-8.031-11.407
	c2.197,2.073,4.769,3.654,7.719,4.438c0.834,0.221,8.816,2.011,6.569-1.187c1.248,0.666,0.604,3.639,0.486,4.745
	c-0.259,2.441-1.356,4.651-2.642,6.708C59.362,62.735,54.818,68.8,50.719,68.707z M70.25,49.688
	c-0.484,4.856-1.509,7.991-3.662,12.352c-0.972,1.968-2.07,3.872-3.271,5.708c-0.656,1.002-2.277,4.384-3.573,4.697
	c0.204-0.049,1.477-3.633,1.586-3.896c1.042-2.504,1.573-5.202,2.327-7.806c0.469-1.618,1.863-4.437,2.188-6.711
	c0.268-1.883,0.913-5.08-0.438-6.656c-1.136-1.324-3.486-2.054-4.836-3.172c-1.483-1.229-3.197-3.792-5.087-4.355
	c-2.419-0.721-0.292,2.969,0.111,3.509c1.423,1.907,3.36,3.164,5.214,4.636c-3.312-0.472-6.669-1.769-9.338-3.749
	c-1.875-1.391-3.259-3.917-5.824-3.664c0.668,5.782,3.635,10.795,7.705,15.077c-3.358-2.164-5.694-4.089-8.145-7.322
	c-0.882-1.165-4.413-9.028-5.996-8.046c-1.259,0.782-1.413,2.579-1.586,4.025c-0.316,2.651-0.581,5.13-0.614,7.817
	c-0.055,4.417,0.12,8.542,1.438,12.739c-5.159-6.955-6.766-16.285-5.899-24.72c0.395-3.845,1.527-7.144,3.575-10.442
	c2.267-3.651,5.497-5.312,9.375-6.5c4.418-1.353,9.165-0.675,13.419,0.821c4.036,1.423,6.595,3.338,8.742,7.115
	C71.16,37.295,70.938,42.856,70.25,49.688z"/>
</svg>
