<?xml version="1.0" encoding="utf-8"?>
<!-- Generator: Adobe Illustrator 16.0.0, SVG Export Plug-In . SVG Version: 6.00 Build 0)  -->
<!DOCTYPE svg PUBLIC "-//W3C//DTD SVG 1.1//EN" "http://www.w3.org/Graphics/SVG/1.1/DTD/svg11.dtd">
<svg version="1.1" id="Layer_1" xmlns="http://www.w3.org/2000/svg" xmlns:xlink="http://www.w3.org/1999/xlink" x="0px" y="0px"
	 width="90px" height="90px" viewBox="0 0 90 90" enable-background="new 0 0 90 90" xml:space="preserve">
<g>
	<path d="M65.677,50.22c-0.422,0.422-2.306,2.478-2.762,2.315c-0.956-0.34-1.762-2.269-2.276-3.06
		c-1.92-2.952-5.811-6.382-10.558-6.752c2.289-0.643,3.729-6.957,1.209-8.242c-2.656-1.354-4.408,6.332-2.884,7.881
		c-0.828-0.175-2.016-0.188-2.896-0.081c2.351-1.078,2.435-7.913,0.049-8.992c-3.236-1.463-4.432,7.764-1.28,9.033
		c-1.154-0.117-2.77-0.09-3.933,0.221c2.643-1.509,0.692-7.444-1.742-8.252c-2.754-0.915-2.598,7.769,0.438,8.479
		c-1.787,0.531-2.625,1.039-3.711,1.609c-2.235,1.174-4.258,2.719-5.849,4.677c-1.451,1.787-2.263,4.501-3.409,3.588
		c-0.834-0.665-0.571-0.67-1.657-1.396c-1.771-1.182-1.826,0.372-1.674,1.488c0.379,2.785,0.483,3.849,1.054,6.309
		c0.229,0.984,0.669,1.992,1.363,2.751c0.77,0.841,1.929,0.097,2.735,0.961c0.622,0.668,0.837,1.592,1.381,2.311
		c0.923,1.222,2.004,2.328,3.214,3.267c7.59,5.892,19.596,5.161,26.476-1.38c1.295-1.231,2.284-4.027,4.057-4.538
		c2.622-0.755,3.107-3.121,3.538-5.613c0.327-1.892,0.441-2.867,0.772-4.757C67.443,51.417,66.981,49.086,65.677,50.22z"/>
	<path d="M75.59,45.797c-4.194-9.625-14.755-14.766-24.658-16.191c-1.89,0.04-1.45-0.29-0.551-1.395
		c0.667-0.82,1.525-1.882,2.542-2.285c0.413-0.164,1.679,2.233,2.02,2.61c0.956,1.057,2.158,1.875,3.485,2.391
		c4.873,1.893,10.657-0.458,12.449-5.45c2.115-5.892-1.857-12.425-8.199-12.873c-3.212-0.227-5.896,0.896-8.062,3.441
		c-1.769,1.445-5.006,1.829-7.121,3.25c-2.561,1.722-4.563,4.232-5.727,7.085c-0.239,0.586-0.569,3.066-1.287,3.068
		c-1.498,0.003-3.025,0.375-4.476,0.711c-6.081,1.41-11.971,3.954-16.503,8.35c-7.387,7.167-8.905,18.198-2.835,26.702
		c11.424,16.003,38.839,16.513,52.959,4.076C76.287,63.421,79.231,54.154,75.59,45.797z M55.209,18.978
		c1.291-1.822,2.038-2.817,3.932-3.622c1.764-0.75,4.016-0.807,5.771-0.004c3.874,1.77,5.692,6.753,3.408,10.474
		C63.544,33.604,52.144,27.352,55.209,18.978z M63.477,70.887c-8.563,4.926-19.203,5.89-28.681,3.355
		c-8.402-2.246-16.943-7.76-19.249-16.64c-2.558-9.85,4.78-18.534,13.161-22.6c2.475-1.201,5.102-2.083,7.79-2.662
		c2.014-0.433,6.12,0.214,6.538-2.17c0.929-5.312,5.18-9.409,9.62-10.858c-0.684,1.513-0.183,4.433-0.094,4.406
		c-1.697,0.57-2.677,1.409-3.764,2.822c-0.922,1.2-1.632,2.668-1.877,4.171c-0.215,1.324,1.078,0.893,2.808,1.081
		c7.424,0.805,14.646,3.727,19.705,8.966C79.06,50.726,74.683,64.44,63.477,70.887z"/>
</g>
</svg>
