<?xml version="1.0" encoding="utf-8"?>
<!-- Generator: Adobe Illustrator 16.0.0, SVG Export Plug-In . SVG Version: 6.00 Build 0)  -->
<!DOCTYPE svg PUBLIC "-//W3C//DTD SVG 1.1//EN" "http://www.w3.org/Graphics/SVG/1.1/DTD/svg11.dtd">
<svg version="1.1" id="Layer_1" xmlns="http://www.w3.org/2000/svg" xmlns:xlink="http://www.w3.org/1999/xlink" x="0px" y="0px"
	 width="90px" height="90px" viewBox="0 0 90 90" enable-background="new 0 0 90 90" xml:space="preserve">
<path d="M70.609,17.766c-1.599-0.443-2.337,0.429-3.253,1.58c-1.312,1.648-1.758,1.479-3.819,1.573
	c-4.072,0.185-8.187,1.103-12,2.535c-3.225,1.211-6.296,2.886-8.931,5.119c-1.324,1.122-2.531,2.381-3.582,3.763
	c-1.261,1.657-2.924,1.997-4.726,2.78c-2.871,1.248-2.131,5.728-4.675,7.352c-1.601,1.025-3.307,2.024-5.188,2.414
	c-1.88,0.39-4.838-0.411-6.479,0.661c-1.084,0.709-1.462,2.676-2.048,3.75c-0.948,1.741-1.917,2.42-1.965,4.497
	c-0.056,2.454,0.745,9.454,4.434,5.511c2.589-2.765,5.648-4.27,9.39-4.701c1.768-0.204,2.803-0.391,4.574-0.564
	c1.723-0.169,1.166,1.936,2.907,2.449c1.682,0.496,0.845,0.858-0.093,1.773c-1.399,1.364-2.811,2.723-4.34,3.944
	c-1.481,1.184-3.051,1.708-4.865,2.181c-1.309,0.343-3.349,0.205-3.807,1.844c-0.919,3.289,6.352,4.346,8.391,4.945
	c5.063,1.488,3.419-2.743,6.215-5.162c2.879-2.49,5.854-4.821,9.086-6.844c3.154-1.979,5.781-1.672,9.039-3.583
	c2.438-1.429,6.004-3.629,8-5.625c1.666-1.666,0.65-4.5-1.685-4.372c1.158-1.113,2.841-2.205,2.226-4.086
	c-0.708-2.167-2.203-1.084-4.114-0.827c0.329-0.044,3.877-4.337,4.251-4.749c1.841-2.025,3.674-4.057,5.532-6.066
	c1.992-2.155,2.133-4.74,2.439-7.557C71.659,21.067,72.322,18.242,70.609,17.766z M35.859,54.375c-0.32,0.12-0.621-0.875-0.67-1.086
	c-0.084-0.358,0.964-0.431,0.928-0.018C36.078,53.715,36.162,54.262,35.859,54.375z M69.305,23.495
	c-0.191,1.158-0.398,3.302-1.414,4.626c-1.752,2.284-3.918,4.263-5.851,6.399c-0.584,0.645-8.19,9.47-8.41,9.36
	c0.938,0.469,3.207-0.424,4.157-0.64c0.297-0.067,3.089-1.165,3.415-0.838c0.85,0.843-8.943,6.68-8.896,7.418
	c0.03,0.451,6.86-2.82,8.925-1.956c0.831,0.348-7.497,5.792-8.272,6.173c-2.116,1.038-4.424,1.508-6.545,2.493
	c-1.964,0.911-3.762,2.229-5.523,3.475c-2.758,1.95-7.354,4.713-7.841,8.323c-0.263,1.962-1.673,0.981-3.074,0.558
	c-0.429-0.13-5.7-1.787-5.569-2.011c0.296-0.508,2.053-0.513,2.527-0.646c1.419-0.398,2.852-0.835,4.105-1.633
	c2.461-1.564,4.568-3.905,6.652-5.924c1.638-1.588,4.821-3.814,5.629-5.991c0.223-0.602-0.227-1.166-0.883-1.4
	c-0.647-0.231-1.352-0.514-2.167-0.489c-1.272,0.038-2.268,0.419-2.552,0.396c-0.681-0.056-1.494-0.191-2.125-0.109
	c-1.438,0.188-2.041,0.72-3,0.844c-3.173,0.41-6.033,0.547-9.091,1.528c-2.524,0.811-4.104,1.951-5.996,3.762
	c-0.998,0.961-1.317-0.685-1.382-1.212c-0.178-1.46-0.173-3.066,0.675-4.238c0.687-0.949,1.176-2.021,1.662-3.081
	c0.723-1.579,1.459-1.413,3.118-1.466c3.039-0.096,5.501-0.784,8.11-2.34c2.415-1.44,3.043-2.731,3.991-5.316
	c1.202-3.276,3.672-2.55,5.946-4.679c1.979-1.853,3.37-4.049,5.6-5.707c2.578-1.917,5.499-3.353,8.546-4.355
	c2.849-0.937,5.818-1.495,8.808-1.711c1.094-0.079,3.549,0.393,4.443-0.366c0.417-0.354,1.981-2.701,2.525-2.601
	C69.935,20.211,69.356,23.088,69.305,23.495z M37.983,55.463c0.076-0.841,0.321-1.958,0.688-2.354
	c0.183-0.197,1.244-0.339,1.516-0.109C40.967,53.659,37.952,55.396,37.983,55.463z"/>
</svg>
