<?xml version="1.0" encoding="utf-8"?>
<!-- Generator: Adobe Illustrator 16.0.0, SVG Export Plug-In . SVG Version: 6.00 Build 0)  -->
<!DOCTYPE svg PUBLIC "-//W3C//DTD SVG 1.1//EN" "http://www.w3.org/Graphics/SVG/1.1/DTD/svg11.dtd">
<svg version="1.1" id="Layer_1" xmlns="http://www.w3.org/2000/svg" xmlns:xlink="http://www.w3.org/1999/xlink" x="0px" y="0px"
	 width="90px" height="90px" viewBox="0 0 90 90" enable-background="new 0 0 90 90" xml:space="preserve">
<path d="M77.281,45.219c-0.468-3.571-1.948-6.456-4.165-9.242c-1.114-1.4-2.339-2.707-3.6-3.975
	c-1.029-1.036-1.185-2.545-1.77-3.881c-2.681-6.126-8.22-10.71-14.51-12.796c-6.739-2.235-14.456-1.643-20.758,1.639
	c-3.053,1.589-5.733,3.84-7.806,6.589c-1.037,1.376-1.92,2.868-2.622,4.442c-0.625,1.402-0.797,2.963-1.895,4.036
	c-5.661,5.535-9.882,12.749-7.45,20.876c0.908,3.035,2.777,5.808,5.403,7.61c1.302,0.894,3.085,1.143,4.272,2.129
	c1.662,1.382,3.087,2.946,4.884,4.191c3.063,2.122,6.538,3.588,10.176,4.383c1.702,0.374,1.384,0.754,2.445,1.914
	c1.018,1.112,4.454,0.532,5.805,0.529c1.198-0.003,3.637,0.417,4.372-0.852c0.909-1.568,1.507-1.405,3.35-1.893
	c4.033-1.068,7.785-2.923,11.026-5.559c1.021-0.831,1.938-1.76,2.889-2.667c0.9-0.858,2.485-1.077,3.563-1.707
	c2.129-1.243,3.815-3.128,4.948-5.308C77.652,52.194,77.785,49.048,77.281,45.219z M26.109,25.828
	c5.07-7.678,14.279-10.443,23.198-8.72c4.058,0.784,7.99,2.544,11.114,5.273c1.548,1.353,2.887,2.949,3.896,4.742
	c0.338,0.6,1.313,1.993,1.055,2.728c-0.362,1.025-1.666,1.51-2.044,2.613c-0.803,2.347-0.893,5.532-1.009,8.002
	c-2.219,0.709-4.29,1.775-6.544,2.451c-5.543,1.662-11.844,1.998-17.537,0.985c-2.516-0.448-5.036-1.152-7.405-2.114
	c-1.128-0.458-2.247-0.956-3.431-1.254c-0.07-1.322-0.359-2.634-0.498-3.951c-0.274-2.594-0.29-4.255-2.154-6.163
	C23.633,29.278,25.34,26.993,26.109,25.828z M43.708,61.305c-0.516-0.911-0.111-1.791-0.949-2.617
	c-1.807-1.782-4.281-3.187-6.336-4.681c-2.032-1.478-4.139-2.853-6.126-4.393c-1.106-0.857-2.122-1.341-2.216-2.785
	c-0.092-1.423-0.229-2.844-0.449-4.253c5.082,2.727,11.675,3.72,17.372,3.72c3.059,0,6.125-0.288,9.108-0.973
	c2.589-0.595,6.108-1.334,8.302-2.876c-0.121,1.233,0.146,4.573-0.749,5.573c-1.239,1.384-3.288,2.424-4.77,3.545
	c-1.974,1.495-4.028,2.88-5.995,4.385c-1.908,1.46-4.252,2.86-4.541,4.909C46.254,61.854,44.479,61.324,43.708,61.305z
	 M45.094,65.297c-1.859,0.063-1.344-0.016-1.381-1.239c0.209,0.005,2.488-0.037,2.488-0.037
	C46.202,64.837,46.453,65.251,45.094,65.297z M27.794,63.507c-2.321-1.798-7.893-6.212-7.629-9.532
	c0.183-2.475,2.593-1.756,3.472-0.101c1.135,2.138,2.186,3.358,3.918,5.043c1.95,1.898,4.101,3.344,6.545,4.537
	c2.85,1.391,3.94,2.156,5.254,5.131C35.215,67.624,31.181,66.133,27.794,63.507z M62.074,63.359
	c-3.356,2.646-7.376,4.434-11.591,5.152c1.05-2.291,1.305-3.357,3.727-4.384c2.134-0.986,6.899-3.537,10.306-7.293
	c1.038-1.144,1.18-3.719,2.701-4.392c1.339-0.592,2.549,1.398,2.209,2.527C68.453,58.198,64.639,61.338,62.074,63.359z
	 M74.208,52.968c-1.646,2.697-2.646,4.774-5.698,6.215c1.162-1.433,2.841-2.665,2.881-4.657c0.039-1.921-1.236-3.737-3.194-4.041
	c-1.879-0.292-3.439,1.067-3.767,2.871c-0.377,2.101-2.105,3.454-3.721,4.648c-1.694,1.253-3.51,2.352-5.26,3.524
	c-1.528,1.024-3.585,1.586-4.808,2.984c-0.976,1.115-2.043,3.533-2.17,4.988c-0.206,2.366-2.929,1.613-4.731,1.643
	c-2.213,0.036-2.22-0.372-2.551-2.234c-0.239-1.344-1.292-3.42-2.188-4.441c-1.407-1.604-3.889-2.343-5.651-3.516
	c-2.128-1.416-4.109-2.907-6.121-4.46c-2.52-1.945-1.813-6.468-5.985-5.981c-1.765,0.204-2.827,2.095-2.943,3.71
	c-0.155,2.181,1.623,3.453,2.875,4.984c-4.321-1.186-6.362-6.763-6.486-10.732c-0.167-5.337,2.52-9.1,5.772-13.051
	c0.036,2.217,0.049,4.458,0.54,6.632c0.221,0.976,0.517,2.029,0.985,2.923c0.199,0.379,1.302,1.255,1.248,0.219
	c-0.223-4.302-1.77-8.949,0.131-13.158c1.708,0.773,1.683,2.881,1.957,4.469c0.238,1.375,0.482,2.749,0.821,4.103
	c-0.677,0.478-0.562,1.56-0.47,2.257c0.227,1.732,0.069,4.395,0.91,5.913c1.023,1.849,4.038,3.248,5.709,4.473
	c2.026,1.487,4.048,2.979,6.074,4.466c1.781,1.306,3.081,1.91,3.515,4.06c0.004,0.975,0.409,2.722,0.431,3.93
	c0.014,0.745,0.227,1.784,0.228,2.456c0,1.086,0.98,1.4,1.863,1.423c1.052,0.027,2.855,0.238,2.855-1.305
	c0-0.8,0.043-2.476,0.084-3.303c0.136-2.729,0.353-4.242,1.095-4.891c0.943-0.826,2.055-1.573,3.065-2.311
	c2.312-1.685,4.606-3.393,6.908-5.091c1.465-1.081,4.396-2.397,5.169-4.141c0.719-1.62,0.388-3.974,0.63-5.721
	c0.106-0.771,0.227-1.883-0.609-2.327c0.187-1.239,0.444-2.465,0.686-3.694c0.35-1.778,0.288-3.736,2-4.777
	c1.918,3.025,0.885,8.636,0.369,11.909c-0.545,3.458,1.437,0.351,1.809-1.196c0.571-2.38,0.793-4.827,0.75-7.271
	c2.283,2.392,4.495,5.268,5.319,8.53C75.157,46.465,75.607,50.674,74.208,52.968z"/>
</svg>
