<?xml version="1.0" encoding="utf-8"?>
<!-- Generator: Adobe Illustrator 16.0.0, SVG Export Plug-In . SVG Version: 6.00 Build 0)  -->
<!DOCTYPE svg PUBLIC "-//W3C//DTD SVG 1.1//EN" "http://www.w3.org/Graphics/SVG/1.1/DTD/svg11.dtd">
<svg version="1.1" id="Layer_1" xmlns="http://www.w3.org/2000/svg" xmlns:xlink="http://www.w3.org/1999/xlink" x="0px" y="0px"
	 width="90px" height="90px" viewBox="0 0 90 90" enable-background="new 0 0 90 90" xml:space="preserve">
<g>
	<path fill="#040404" d="M72.176,31.258c-0.558-0.165-0.977-0.19-6.414-0.376c-7.47-0.256-15.805-0.547-18.079-0.632
		c-1.166-0.044-2.732-0.099-3.48-0.123s-2.8-0.096-4.56-0.16c-2.726-0.1-4.182-0.154-5.048-0.154c-1.063,0-1.241,0.083-1.792,0.271
		c-1.477,0.504-2.849,1.848-3.469,3.398c-0.457,1.139-0.46,1.21-0.433,9.938l0.025,7.987l0.184,0.601
		c0.649,2.124,2.098,3.624,4.012,4.154c0.405,0.112,0.936,0.166,1.942,0.166c0.727,0,1.702-0.028,3.058-0.081
		c1.101-0.043,4.597-0.169,7.769-0.279c3.173-0.11,7.241-0.254,9.04-0.318c1.8-0.065,5.342-0.191,7.871-0.28
		c8.212-0.287,8.829-0.316,9.321-0.445c1.561-0.406,2.961-1.751,3.551-3.637l0.326-0.6v-7.6v-7.601l-0.391-0.742
		C75.01,32.98,73.658,31.698,72.176,31.258z M75,43.087v1.316c-1,2.706-2.063,5.182-4.398,6.322c-1.563,0.763-2.346,0.84-8.44,0.96
		c-17.607,0.348-16.869,0.354-18.496-0.132c-7.859-2.347-8.824-13.494-1.472-17.188c1.956-0.982,2.71-1.063,8.704-0.924
		c1.781,0.042,5.429,0.116,8.113,0.165c9.703,0.177,10.256,0.211,12.072,1.266C73.154,36.075,74,38.336,75,40.806V43.087z"/>
	<path fill="#040404" d="M48.496,34.938c-0.518,0-1.032,0.077-1.527,0.23c-2.527,0.78-4.355,3.03-4.771,5.871
		c-0.437,2.991,0.752,5.826,3.104,7.398c0.968,0.646,2.06,0.989,3.159,0.989c1.701,0,3.373-0.812,4.588-2.225
		c1.433-1.669,2.055-3.941,1.705-6.234C54.23,37.53,51.54,34.938,48.496,34.938z M48.461,48.228c-0.83,0-1.682-0.245-2.492-0.787
		c-4.121-2.756-3.277-9.695,1.354-11.125c0.39-0.12,0.783-0.177,1.174-0.177c2.372,0,4.629,2.108,5.071,5.011
		C54.16,45.039,51.456,48.228,48.461,48.228z"/>
	<path fill="#040404" d="M49.62,37.293c-0.367-0.124-0.741-0.184-1.112-0.184c-1.474,0-2.896,0.941-3.666,2.529
		c-1.804,3.718,0.736,7.646,3.658,7.646c0.859,0,1.752-0.34,2.577-1.125C53.804,43.563,52.959,38.418,49.62,37.293z"/>
	<path fill="#040404" d="M65.804,35.22c-0.406,0-0.821,0.046-1.234,0.136c-3.096,0.673-5.334,4.192-4.886,7.686
		c0.454,3.541,2.991,6.11,6.033,6.11c1.508,0,2.927-0.626,4.102-1.81c2.074-2.089,2.647-5.28,1.46-8.132
		C70.254,36.749,68.156,35.22,65.804,35.22z M68.967,46.496c-0.991,0.998-2.137,1.455-3.25,1.455c-2.288,0-4.441-1.928-4.843-5.063
		c-0.369-2.877,1.458-5.819,3.95-6.361c0.336-0.072,0.663-0.107,0.979-0.107C70.142,36.42,72.506,42.932,68.967,46.496z"/>
	<path fill="#040404" d="M66.731,37.53c-0.339-0.114-0.676-0.168-1.006-0.168c-2.414,0-4.45,2.866-3.853,5.928
		c0.416,2.132,2.139,3.738,3.882,3.738c0.169,0,0.339-0.015,0.508-0.046C70.616,46.173,70.975,38.959,66.731,37.53z"/>
	<path fill="#040404" d="M78.717,34.239c-0.344-2.697-2.39-5.094-5.194-6.085c-1.088-0.385-2.005-0.468-6.88-0.624
		c-2.126-0.068-6.413-0.227-12.727-0.471L52.11,26.99l-0.639-0.648c-1.126-1.143-2.802-1.586-4.586-1.212
		c-0.601,0.125-1.201,0.475-1.811,1.054l-0.583,0.554l-2.064-0.086c-10.097-0.423-10.237-0.423-12.346-0.042
		c-1.529,0.276-2.361,0.423-6.96,1.23c-1.254,0.22-2.466,0.437-2.693,0.48s-0.707,0.116-1.065,0.161
		c-2.607,0.327-4.626,2.059-5.511,4.726c-0.22,0.662-0.183,0.613-0.902,1.185c-1.478,1.171-2.585,3.113-2.832,4.967
		c-0.157,1.185-0.157,6.138,0.001,7.248c0.263,1.846,1.396,3.583,2.842,4.353c0.493,0.264,0.502,0.276,0.601,0.928
		c0.163,1.075,0.938,2.712,1.688,3.562c1.261,1.432,2.207,1.882,4.873,2.318c0.836,0.137,1.988,0.334,2.561,0.439
		c0.904,0.166,2.122,0.382,6.08,1.074c0.483,0.084,1.312,0.23,1.84,0.325c0.786,0.141,1.22,0.168,2.398,0.153l1.438-0.019
		l0.131,0.366c0.248,0.693,1.058,1.309,1.781,1.628L37,61.925v2.427c0,4.097-0.136,4.361,4.661,5.208L42.922,70h4.36h4.36
		l1.399-0.43c4.868-0.871,4.892-0.985,4.94-5.015l0.03-2.587l0.544-0.296c0.935-0.472,1.436-1.229,1.563-2.345l0.057-0.497
		l0.573-0.052c0.315-0.025,2.644-0.121,5.173-0.21c5.15-0.179,6.158-0.249,7.08-0.487c2.921-0.758,5.319-3.336,5.689-6.114
		C78.83,50.936,78.852,35.298,78.717,34.239z M49.266,27.477c0.272,0.14,0.523,0.377,0.701,0.646
		c-0.591-0.047-1.594-0.063-3.664-0.074C47.008,27.24,48.266,26.965,49.266,27.477z M56.582,59.926
		c-0.947,0.299-0.856-0.053-0.883,3.411c-0.025,3.329-0.012,3.247-0.525,3.353c-0.139,0.028-0.539,0.155-0.892,0.281
		c-0.517,0.186-0.955,0.262-2.28,0.395c-0.901,0.091-2,0.208-2.439,0.26c-1.035,0.124-3.386,0.12-4.76-0.007
		c-3.169-0.293-4.117-0.423-4.761-0.653c-0.352-0.126-0.729-0.254-0.84-0.283c-0.497-0.134-0.479-0.015-0.479-3.252
		c0-3.423,0.056-3.188-0.82-3.455c-1.028-0.315-1.243-0.546-1.259-1.449c0.019,0,0.034,0.001,0.046,0.002
		c0.079,0.005,0.188,0.007,0.351,0.007c0.995,0,4.009-0.085,7.167-0.202c3.8-0.141,7.752-0.285,8.997-0.328
		c1.337-0.047,2.886-0.121,3.452-0.166c0.363-0.028,0.7-0.054,1.024-0.077c0.001,0.087,0.002,0.18,0.002,0.284
		C57.683,59.501,57.626,59.598,56.582,59.926z M76,43.207v8.12l-0.082,0.756c-0.703,2.014-2.132,3.379-4.136,3.797
		c-0.545,0.113-1.3,0.151-8.505,0.408c-3.391,0.121-4.586,0.185-6.737,0.354c-0.55,0.043-2.069,0.116-3.39,0.163
		c-1.319,0.046-5.363,0.193-8.994,0.328c-3.195,0.119-6.155,0.201-7.119,0.201c-0.131,0-0.223-0.001-0.275-0.004
		c-0.127-0.009-0.307-0.012-0.521-0.012c-0.533,0-1.275,0.022-1.919,0.061c-0.955,0.057-1.543,0.089-1.989,0.089
		c-0.62,0-0.969-0.062-1.65-0.204c-1.164-0.243-6.345-1.167-9.28-1.656c-1.056-0.175-2.082-0.356-2.28-0.401
		c-1.844-0.426-3.177-2.275-3.359-4.664c-0.094-1.225-0.104-1.24-0.917-1.376c-0.998-0.166-1.885-1.104-2.34-2.473
		c-0.246-0.741-0.378-5.147-0.19-6.359c0.284-1.829,1.219-3.337,2.661-4.297c0.661-0.438,0.736-0.544,0.909-1.271
		c0.514-2.147,1.875-3.47,3.877-3.764c0.462-0.068,1.128-0.175,1.479-0.237c0.353-0.063,0.964-0.171,1.36-0.24
		c6.287-1.103,8.248-1.466,8.8-1.633c0.167-0.05,0.372-0.074,0.778-0.074c0.392,0,0.969,0.022,1.877,0.068
		c4.054,0.204,8.705,0.343,12.104,0.36c3.05,0.016,3.807,0.042,4.2,0.144c0.527,0.136,0.743,0.146,7.12,0.376
		c2.42,0.087,5.372,0.195,6.561,0.239c1.188,0.044,3.132,0.116,4.319,0.16c2.817,0.104,3.336,0.148,3.96,0.339
		c1.533,0.467,2.543,1.472,3.258,2.901C76.217,34.678,76,34.094,76,43.207z"/>
</g>
</svg>
