<?xml version="1.0" encoding="utf-8"?>
<!-- Generator: Adobe Illustrator 16.0.0, SVG Export Plug-In . SVG Version: 6.00 Build 0)  -->
<!DOCTYPE svg PUBLIC "-//W3C//DTD SVG 1.1//EN" "http://www.w3.org/Graphics/SVG/1.1/DTD/svg11.dtd">
<svg version="1.1" id="Layer_1" xmlns="http://www.w3.org/2000/svg" xmlns:xlink="http://www.w3.org/1999/xlink" x="0px" y="0px"
	 width="90px" height="90px" viewBox="0 0 90 90" enable-background="new 0 0 90 90" xml:space="preserve">
<path d="M73.728,56.268c-0.45-1.549-2.123-3.114-3.126-4.31c-1.281-1.528-2.701-2.937-3.94-4.498
	c-0.014-2.914-0.027-5.829-0.042-8.743l-0.215-0.424c-0.499-0.984-2.383-0.838-2.336-1.631c0.074-1.268,0.157-2.537,0.262-3.803
	c0.292-3.546,0.874-7.013,0.598-10.584c-0.117-1.517-0.295-3.102-0.824-4.54c-0.168-0.459-0.416-0.786-0.68-1.185
	c-0.509-0.769-0.548-1.811-1.026-2.623c-0.292-0.497-1.09-0.873-1.25-1.375c-0.252-0.791-0.765-1.528-1.511-1.922
	c-1.635-0.862-2.544,0.29-3.223,1.555c-1.542,2.871-5.251,5.059-7.844,6.823c-3.043,2.07-6.336,3.591-9.643,5.186
	c-3.225,1.556-6.488,3.145-9.445,5.176c-2.075,1.427-3.914,3.17-4.795,5.581c-0.22,0.603-0.536,3.777-0.963,3.951
	c-0.843,0.346-1.593,0.132-1.884,1.213c-0.685,2.537-0.236,5.68-0.236,8.308l-0.815,0.43c-2.771,1.462-4.844,3.491-5.704,6.565
	c-0.77,2.753-0.733,5.646-0.698,8.481c0.017,1.35,0.051,2.701,0.143,4.049c0.065,0.958,0.042,2.124,0.98,2.686
	c1.373,0.822,2.644-0.159,3.395-1.264c1.06-1.56,2.801-2.623,4.514-3.325c3.11-1.278,6.202-1.018,9.407-0.232
	c2.914,0.714,5.595,1.706,8.621,1.242c3.607-0.552,7.058-1.973,10.546-2.991c3.192-0.934,6.478-1.468,9.745-2.065
	c2.526-0.463,5.172-1.167,7.747-0.938c1.162,0.103,2.345,0.014,2.776-1.322c0.286-0.885,0.359-0.587,0.968-1.234
	C73.771,57.929,73.946,57.017,73.728,56.268C73.503,55.493,74.037,57.33,73.728,56.268z M63.307,39.275
	c0.521,0.055,1.284,0.024,1.305,0.685c0.034,1.044,0.031,2.089,0.037,3.132c0.008,1.362,0.009,2.727,0.013,4.089
	c-1.193-0.047-2.66,0.471-3.872,0.578c-2.042,0.181-4.083,0.563-6.12,0.711c-0.03-2.072,0.004-6.688,0.067-8.686
	c1.773,0.198,3.545,0.197,5.301,0.545C61.283,40.554,62.793,40.796,63.307,39.275C64.294,39.379,63.037,40.073,63.307,39.275z
	 M27.424,40.789c0.071-2.349,0.453-4.906,2.134-6.678c2.112-2.225,5.18-3.629,7.864-5.003c7.358-3.769,15.057-7.009,20.823-13.17
	c0.161,0.814,0.738,1.511,1.617,1.502c0.168,0.957,0.253,2.247,1.3,2.68c0.981,5.834-0.585,11.528-0.592,17.36
	c-2.082-0.41-4.201-0.395-6.294-0.697c0.279-1.366,1.167-2.891,1.203-4.271c0.049-1.922-2.005-2.388-3.451-1.624
	c-0.758,0.4-1.713,0.205-2.5,0.563c-0.626,0.283-1.17,0.36-1.844,0.541c-1.291,0.347-2.833,0.963-4.044,1.556
	c-4.66,2.286-9.737,5.992-11.271,11.286c-0.656-0.712-1.539-1.158-2.521-1.111c-0.511-0.893-1.636-1.46-2.458-2.008
	C27.404,41.448,27.413,41.144,27.424,40.789C27.47,39.252,27.413,41.144,27.424,40.789z M51.297,38.934
	c0.085,0.804-0.213,1.607-0.214,2.419c-0.001,1.127-0.167,2.24-0.319,3.354c-0.105,0.767,0.009,1.844-0.329,2.546
	c-0.514,1.07-0.833,1.402-1.704,2.137c-2.591,0.442-5.204,0.514-7.828,0.43c-0.937-0.029-1.841-0.187-2.774-0.242
	c-0.677-0.038-1.354-0.068-2.029-0.127c-0.655-0.058-1.158-0.419-1.794-0.472c-0.021-0.041-0.044-0.084-0.067-0.128
	c0.5-1.017,0.507-2.305,0.96-3.35c0.434-1,0.96-2.015,1.599-2.896c-0.819,1.46-1.729,8.049,1.806,5.96
	c2.557-1.511,4.855-3.687,7.279-5.417c0.987-0.704,3.17-1.75,3.411-3.064c0.242-1.318-1.067-1.952-2.194-1.82
	c-3.156,0.369-6.774,0.427-9.152,2.833c3.638-3.95,8.975-6.167,14.108-7.204C51.737,35.621,51.105,37.117,51.297,38.934
	C51.338,39.319,51.156,37.602,51.297,38.934z M39.068,44.582c0.594-1.668,2.123-2.48,3.754-2.819
	C41.561,42.688,40.306,43.625,39.068,44.582C39.296,43.942,39.584,44.183,39.068,44.582z M24.793,43.429
	c0.69,0.69,1.684,1.109,2.456,1.705c0.002,0.025,0.004,0.052,0.007,0.078c-0.901,0.683-1.596,1.574-2.507,2.243
	C24.744,46.35,24.763,44.687,24.793,43.429C24.965,43.602,24.763,44.687,24.793,43.429z M44.227,61.992
	c-3.603,3.229-7.985,0.768-11.974,0.003c-4.995-0.958-10.062-0.229-14.098,3.035c-0.147-3.774-0.631-9.015,2.683-11.687
	c1.489-1.2,3.348-1.821,4.889-2.94c1.292-0.939,2.644-3.065,4.214-3.373c1.126,1.172,1.657,3.222,2.523,4.618
	c1.104,1.779,2.669,3.226,4.485,4.26c2.064,1.177,4.395,1.827,6.74,2.133C46.593,58.419,45.971,60.43,44.227,61.992
	C43.021,63.073,45.647,60.72,44.227,61.992z M67.942,56.725c-0.071,0.161-0.168,0.459-0.136,0.833
	c-6.332,0.535-13.053,1.834-19.074,3.854c1.375-2.573-0.62-5.788-3.29-6.372c-2.775-0.608-5.481-0.846-7.838-2.591
	c2.302,0.127,4.554,0.333,6.876,0.277c2.608-0.062,5.794-0.116,7.546-2.321c0.997,1.766,4.061,0.752,5.537,0.567
	c2.204-0.275,4.523-0.204,6.683-0.77c1.629,1.826,3.297,3.621,4.811,5.545C68.607,55.905,68.177,56.194,67.942,56.725
	C67.871,56.886,68.177,56.194,67.942,56.725z"/>
</svg>
