<?xml version="1.0" encoding="utf-8"?>
<!-- Generator: Adobe Illustrator 16.0.0, SVG Export Plug-In . SVG Version: 6.00 Build 0)  -->
<!DOCTYPE svg PUBLIC "-//W3C//DTD SVG 1.1//EN" "http://www.w3.org/Graphics/SVG/1.1/DTD/svg11.dtd">
<svg version="1.1" id="Layer_1" xmlns="http://www.w3.org/2000/svg" xmlns:xlink="http://www.w3.org/1999/xlink" x="0px" y="0px"
	 width="90px" height="90px" viewBox="0 0 90 90" enable-background="new 0 0 90 90" xml:space="preserve">
<g>
	<path d="M63.916,18.563c-0.045,0.117-0.171,0.533-0.281,0.925c-0.237,0.846-1.14,3.574-1.519,4.595
		c-0.737,1.984-1.371,4.415-1.56,5.976c-0.1,0.829-0.064,0.943,0.58,1.874c0.439,0.635,1.261,1.973,1.261,2.055
		c0,0.164,0.675,1.413,0.764,1.413c0.287,0,0.851-3.002,1.081-5.768C64.661,24.599,64.442,17.178,63.916,18.563z"/>
	<path d="M78.663,50.995c-0.468-0.155-0.526-0.201-0.679-0.524c-0.4-0.852-0.994-1.138-2.547-1.228
		c-3.147-0.184-5.134-2.267-7.746-8.123c-1.022-2.294-0.973-2.096-0.718-2.827c0.718-2.057,1.234-4.97,1.589-8.955
		c0.446-5.028-0.401-10.807-2.126-14.498c-0.278-0.594-0.554-1.224-0.612-1.4c-0.403-1.199-2.136-1.771-3.356-1.106
		c-0.547,0.298-0.8,0.626-1.149,1.496c-1.371,3.409-2.82,4.947-7.284,7.733c-0.79,0.494-1.645,1.037-1.896,1.207
		c-0.597,0.403-0.487,0.469-1.314-0.79c-0.398-0.604-1.25-1.775-1.893-2.603c-1.262-1.622-1.653-2.181-1.838-2.617
		c-0.399-0.947-0.521-1.159-0.824-1.438c-0.791-0.729-2.36-0.747-3.147-0.036c-0.288,0.261-0.43,0.503-0.907,1.555
		c-0.195,0.431-0.798,1.258-2.426,3.331c-0.444,0.567-1.069,1.426-1.388,1.91c-0.318,0.483-0.614,0.923-0.659,0.977
		c-0.061,0.074-0.189,0.023-0.532-0.209c-0.249-0.168-0.938-0.604-1.532-0.969c-4.72-2.897-6.347-4.536-7.646-7.704
		c-0.8-1.946-1.796-2.528-3.394-1.979c-0.517,0.178-1.098,0.75-1.267,1.248c-0.059,0.174-0.336,0.802-0.615,1.396
		c-2.704,5.746-2.945,16.58-0.523,23.473c0.226,0.644,0.232,0.605-0.362,1.98c-2.854,6.592-4.835,8.765-8.152,8.948
		c-1.512,0.084-2.105,0.376-2.509,1.232c-0.147,0.313-0.213,0.365-0.65,0.514C9.478,51.352,9.004,52.025,9,53.205
		c-0.006,1.421,0.46,1.926,2.337,2.534c5.089,1.651,10.767,5.786,17.326,12.621c3.686,3.838,5.668,5.326,8.674,6.509
		c4.84,1.904,11.441,1.64,15.972-0.639c2.496-1.256,3.366-1.972,7.729-6.354c7.089-7.122,12.08-10.693,17.093-12.23
		c1.547-0.474,2.068-1.08,2.065-2.4C80.192,52.047,79.715,51.346,78.663,50.995z M47.479,49.96c0.187,2.32,0.926,3.627,2.727,4.819
		c2.222,1.472,2.785,1.525,9.515,1.774c4.414,0.162,4.691,1.049,4.777,2.482c0.042,0.685,0.044,0.726-0.897,1.548
		c-1.708,1.488-2.791,2.524-5.523,5.275c-4.059,4.089-5.51,5.151-8.169,5.981c-1.565,0.489-3.354,0.747-5.169,0.747
		c-2.608,0-5.085-0.52-6.975-1.462c-1.967-0.98-2.866-1.724-6.417-5.298c-1.666-1.678-3.57-3.531-4.244-4.133l-0.063-0.057
		c-1.077-0.961-1.727-1.541-1.962-1.871c-0.099-0.139-0.111-0.156-0.105-0.744V58.99c0.01-1.005,0.458-1.587,1.546-2.008
		c0.789-0.305,1.942-0.412,4.935-0.457c4.176-0.063,5.507-0.331,7.494-1.507c2.368-1.401,3.091-2.939,3.091-6.586
		c0-3.567-0.287-5.128-1.809-9.821c-0.632-1.949-0.966-3.453-1.118-5.027c-0.264-2.729,0.055-4.863,0.303-5.269
		c0.295-0.329,0.622-1.101,0.752-1.424c0.668-1.664,1.188-2.487,3.278-5.18c0.457-0.588,0.971-1.262,1.346-1.767
		c0.365,0.505,0.887,1.199,1.331,1.775c1.893,2.455,2.571,3.559,3.3,5.366c0.128,0.316,0.419,0.938,0.701,1.26
		c0.016,0.019,0.03,0.035,0.045,0.052c0.027,0.171,0.071,0.43,0.14,0.832c0.313,1.822,0.167,4.994-0.307,6.655
		c-0.118,0.413-0.277,1.027-0.34,1.338c-0.039,0.19-0.188,0.713-0.339,1.158C47.707,43.146,47.19,46.394,47.479,49.96z
		 M13.628,52.919c0.917-0.002,0.967-0.057,0.499-0.557c-0.565-0.604-0.517-0.653,0.835-0.829c3.544-0.46,6.027-3.16,8.914-9.693
		c1.298-2.938,1.263-2.783,0.883-3.883c-2.26-6.534-2.227-16.035,0.074-21.5c0.244-0.58,0.444-1.087,0.444-1.126
		c0-0.303,0.404-0.548,0.581-0.352c0.069,0.077,0.2,0.328,0.291,0.559c1.229,3.128,3.331,5.236,8.33,8.358
		c2.287,1.429,2.775,1.808,3.558,2.858c-0.058,0.117-0.105,0.204-0.133,0.247c-1.024,1.17-0.963,4.928-0.785,6.774
		c0.167,1.727,0.528,3.357,1.207,5.452c1.455,4.489,1.711,5.866,1.711,9.204c0,0.362-0.007,0.692-0.021,0.995
		c-0.455-0.521-0.862-1.025-1.485-1.832l-1.168-1.51c-0.53-0.686-2.912-4.186-3.246-4.741c-0.078-0.185-0.232-0.457-0.533-0.967
		c-0.9-1.527-2.015-3.72-2.385-4.693c-0.267-0.702-0.569-1.497-1.444-1.497c-0.354,0-0.619,0.156-0.788,0.274
		c-0.768,0.538-1.85,2.955-2.19,4.047c-0.836,2.677-0.351,5.571,1.208,7.203c2.947,3.086,7.208,5.608,10.854,6.428
		c0.157,0.035,0.294,0.063,0.417,0.085c-0.319,0.413-0.753,0.733-1.327,1.072c-1.565,0.927-2.495,1.168-6.506,1.229
		c-3.346,0.05-4.555,0.178-5.625,0.591c-2.313,0.894-2.813,2.589-2.825,3.854v0.032c-0.004,0.335,0.005,0.611,0.039,0.858
		c-2.305-1.999-6.807-4.736-9.754-5.866C11.425,53.293,11.553,52.923,13.628,52.919z M37.65,49.715
		c-2.876-1.019-5.961-3.019-8.221-5.384c-1.038-1.087-1.352-3.285-0.745-5.227c0.213-0.682,0.576-1.481,0.899-2.097
		c0.525,1.19,1.47,3.019,2.276,4.386c0.207,0.351,0.337,0.585,0.392,0.688c0.116,0.289,0.477,0.824,1.591,2.461
		c0.687,1.009,1.606,2.338,1.938,2.767l1.167,1.509C37.213,49.161,37.44,49.453,37.65,49.715z M76.157,54.004
		c-3.024,1.143-7.018,3.577-9.69,5.857c0.042-0.275,0.049-0.584,0.027-0.946c-0.208-3.433-2.718-4.213-6.7-4.36
		c-6.679-0.247-6.746-0.292-8.484-1.442c-0.452-0.3-0.796-0.585-1.058-0.904c0.201-0.04,0.434-0.097,0.711-0.165
		c0.502-0.125,0.843-0.257,1.102-0.449c-0.025,0.119-0.05,0.239-0.072,0.361c-0.236,1.275-0.262,1.234,0.92,1.447
		c5.641,1.018,10.251-3.314,10.494-9.859c0.051-1.356,0.066-1.785-0.5-1.729l0.251-0.217l-0.152-1.395
		c-0.162-1.479-0.591-2.715-1.482-4.263c-0.595-1.033-0.987-1.716-1.79-1.716c-0.689,0-1.036,0.568-1.149,0.755
		c-0.159,0.26-0.238,0.443-0.275,0.597c-0.172,0.432-1.272,2.696-1.826,3.706c-1.557,2.836-4.244,6.785-6.118,8.989
		c-0.362,0.425-0.668,0.784-0.922,1.095c-0.188-3.108,0.323-6.058,1.773-10.343c0.146-0.43,0.337-1.072,0.404-1.402
		c0.041-0.203,0.173-0.729,0.304-1.188c0.548-1.924,0.714-5.448,0.355-7.541c-0.094-0.545-0.15-0.893-0.165-0.988
		c-0.031-0.332-0.217-0.567-0.479-0.864c-0.035-0.046-0.117-0.185-0.205-0.36c0.049-0.058,0.102-0.123,0.16-0.198
		c0.552-0.701,1.343-1.336,2.713-2.177c5.418-3.325,7.303-5.124,8.843-8.442c0.524-1.131,0.72-1.242,0.973-0.558
		c0.076,0.206,0.267,0.663,0.423,1.015c2.36,5.306,2.423,15.11,0.139,21.622c-0.352,0.999-0.352,1.002,0.323,2.618
		c3.195,7.665,5.883,10.681,9.835,11.038c0.966,0.088,1.02,0.177,0.464,0.771c-0.468,0.5-0.444,0.518,0.763,0.573
		C77.998,53.03,78.021,53.301,76.157,54.004z M61.017,40.421l0.029,0.266c-0.099,0.042-0.216,0.087-0.338,0.127
		c-1.408,0.466-2.679,1.036-3.812,1.708c0.495-0.799,0.951-1.571,1.338-2.277c0.015-0.026,1.018-1.885,1.612-3.204
		C60.559,38.296,60.889,39.252,61.017,40.421z M60.236,36.055c0.025-0.088,0.039-0.16,0.041-0.213
		c-0.002,0.08-0.013,0.148-0.025,0.2C60.247,36.047,60.241,36.051,60.236,36.055z"/>
	<path d="M26.871,34.42c0.552-1.117,1.012-1.9,1.657-2.82l0.45-0.64l-0.05-0.694c-0.077-1.088-0.642-3.352-1.384-5.546
		c-0.6-1.772-1.35-4.027-1.887-5.675c-0.204-0.625-0.334-0.734-0.414-0.349c-0.588,2.851-0.283,11.037,0.563,15.184
		C26.201,35.802,26.192,35.797,26.871,34.42z"/>
	<path d="M44.772,57.911c-0.688,0-1.387-0.112-2.492-0.403c-0.744-0.195-1.118-0.293-1.466-0.293c-0.402,0-0.681,0.139-0.864,0.23
		c-0.554,0.276-0.96,0.805-1.145,1.487c-0.21,0.775-0.091,1.612,0.318,2.239c0.845,1.292,3.943,3.724,5.303,3.979
		c0.106,0.021,0.218,0.03,0.332,0.03c1.312,0,3.096-1.387,3.802-1.982c1.109-0.937,2.433-2.298,2.436-3.467
		c0.002-0.525-0.06-1.287-0.611-1.84c-0.381-0.382-0.915-0.576-1.588-0.576c-0.43,0-0.936,0.073-1.592,0.231
		C46.13,57.806,45.425,57.911,44.772,57.911z M48.797,59.315c0.076,0,0.13,0.005,0.165,0.011c0.015,0.06,0.033,0.174,0.034,0.374
		c-0.211,0.913-3.282,3.444-4.222,3.479c-0.676-0.164-3.313-2.086-3.976-3.102c-0.185-0.282-0.061-0.766,0.046-0.844
		c0.008-0.004,0.017-0.009,0.024-0.013c0.169,0.028,0.557,0.13,0.904,0.221c1.269,0.333,2.138,0.469,2.999,0.469
		c0.821,0,1.662-0.121,2.9-0.42C48.158,59.375,48.536,59.315,48.797,59.315z"/>
</g>
</svg>
