<?xml version="1.0" encoding="utf-8"?>
<!-- Generator: Adobe Illustrator 16.0.0, SVG Export Plug-In . SVG Version: 6.00 Build 0)  -->
<!DOCTYPE svg PUBLIC "-//W3C//DTD SVG 1.1//EN" "http://www.w3.org/Graphics/SVG/1.1/DTD/svg11.dtd">
<svg version="1.1" id="Layer_1" xmlns="http://www.w3.org/2000/svg" xmlns:xlink="http://www.w3.org/1999/xlink" x="0px" y="0px"
	 width="90px" height="90px" viewBox="0 0 90 90" enable-background="new 0 0 90 90" xml:space="preserve">
<g>
	<path d="M69.932,49.325c-0.861-1.177-1.484-2.016-1.601-4.053c-0.122-2.128,0.258-3.598,0.625-5.042
		c0.578-2.275,1.177-4.58-0.521-8.429L68.04,31h-0.978c-0.88,0-1.747,0.072-2.602,0.207c0.209-0.433,0.41-0.872,0.602-1.332
		c0.574-1.38,1.235-2.944,1.67-4.375c0.207-0.683,0.534-2.325-0.42-2.531c-1.633-0.725-3.574-0.726-5.313-0.594
		c-1.076,0.082-1.612,0.219-2.844,0.5c-0.514,0.117-0.898,0.256-1.528,0.487c-0.238,0.087-0.837,0.26-1.066,0.369
		c-0.548,0.262-1.057-0.151-1.421-0.559c-1.763-1.973-3.643-2.933-5.608-4.691c-1.018-0.911-3.527-2.714-3.532-4.273
		c-0.005,1.46-2.271,3.127-3.22,3.991c-1.717,1.563-3.626,2.926-5.265,4.572c-0.427,0.428-0.829,0.88-1.201,1.355
		c-0.375-0.269-0.78-0.493-1.202-0.681c-0.892-0.396-1.85-0.63-2.813-0.765c-1.863-0.261-3.799-0.185-5.645,0.175
		c-0.518,0.101-2.926,0.564-2.694,1.282c0.441,1.366,0.86,2.715,1.428,4.039c0.445,1.038,0.927,2.071,1.458,3.076
		C24.893,31.083,23.922,31,22.938,31H21.96l-0.395,0.801c-1.698,3.849-1.101,6.107-0.522,8.382c0.367,1.444,0.747,2.938,0.625,5.065
		c-0.116,2.037-0.74,2.888-1.602,4.065c-1.293,1.765-2.903,3.96-2.903,10.104C17.163,70.82,35,73.833,45,73.833
		s27.837-3.007,27.837-14.411C72.837,53.279,71.225,51.089,69.932,49.325z M64.547,24.657c-0.446,2.409-1.688,5.206-3.244,7.402
		c-0.651,0.257-1.293,0.561-1.922,0.919c-0.586,0.336-0.787,0.329-1.928,0.183c1.578-1.933,3.361-3.448,4.602-6.599
		c-2.305-0.125-3.685,1.784-5.148,3.281c0.281-1.188,0.031-2.688-0.909-3.908C58.566,24.649,61.721,24.032,64.547,24.657z
		 M54.594,27.688c0.586,2.089-0.028,3.702-1.356,5.014c-0.797-0.063-1.714-0.122-2.765-0.17c0.425-0.659,0.806-1.346,1.11-2.073
		c0.978-2.33,0.737-5.55-0.833-7.646C52.335,24.151,54.003,25.582,54.594,27.688z M37.607,24.615c1.432-1.58,3.103-3.02,4.8-4.308
		c0.86-0.653,1.849-1.137,2.593-1.932c0.488,1,1.683,1.838,2.389,2.706c1.066,1.311,2.122,2.719,2.688,4.328
		c0.878,2.497-0.291,4.999-1.781,7.046c-0.994-0.024-2.088-0.038-3.295-0.038c-3.383,0-5.877,0.123-7.77,0.274
		c-1.006-0.877-1.841-1.952-1.887-3.347C35.283,27.519,36.438,25.904,37.607,24.615z M25.438,24.969
		c2.737-0.605,6.055-0.29,8.565,0.967c-0.644,1.086-0.892,1.926-0.994,3.07c-1.464-1.497-3.021-2.649-5.181-2.865
		c1.829,2.875,3.71,4.433,5.102,7.018c-1.486,0.185-1.664,0.19-2.311-0.18c-0.444-0.253-0.896-0.472-1.352-0.674
		C27.625,30.163,26.268,27.481,25.438,24.969z M45,70.833c-10,0-24.837-3.1-24.837-11.417c0-5.162,1.184-6.773,2.325-8.332
		c0.941-1.286,2.01-2.744,2.176-5.667c0.148-2.59-0.31-4.389-0.713-5.976c-0.475-1.866-0.832-3.272-0.015-5.59
		c1.805,0.148,3.548,0.696,5.194,1.637c1.606,0.916,2.6,0.792,4.579,0.547c1.868-0.232,4.995-0.621,11.29-0.621
		s9.422,0.389,11.29,0.621c1.977,0.245,2.972,0.369,4.579-0.547c1.646-0.941,3.39-1.489,5.194-1.637
		c0.817,2.318,0.46,3.725-0.015,5.59c-0.402,1.587-0.86,3.386-0.712,5.976c0.166,2.923,1.235,4.381,2.177,5.667
		c1.142,1.558,2.323,3.169,2.323,8.332C69.837,67.734,55,70.833,45,70.833z"/>
	<path d="M36.625,39.313C37.313,45.75,39,49.438,42.25,52.323c2.875-1.864,7.313-4.823,10.063-8.948
		c-3.707-2.75-8.386-4.071-14.804-4.071C37.218,39.304,36.924,39.307,36.625,39.313z M50.185,43.747
		c-2.329,2.927-5.522,5.193-7.757,6.669c-2.204-2.297-3.454-5.222-4.102-9.604C43.256,40.904,47.08,41.848,50.185,43.747z"/>
	<path d="M32.375,51.969c0.719,1.719,2.219,3.688,3.938,4.344c0.625-1.469,1.219-3.422,0.906-6.844
		C35.875,49.563,33.188,50.781,32.375,51.969z M35.514,53.995c-0.502-0.491-0.956-1.102-1.313-1.719
		c0.435-0.309,1.023-0.627,1.604-0.873C35.798,52.438,35.685,53.278,35.514,53.995z"/>
	<g>
		<path d="M50.667,64.25c-1.25,0.083-2.416,0.417-2.583,2.917C49.834,66.75,50.501,65.667,50.667,64.25z"/>
	</g>
	<g>
		<path d="M40.666,67.167c-0.167-2.5-1.333-2.834-2.583-2.917C38.249,65.667,38.916,66.75,40.666,67.167z"/>
	</g>
</g>
</svg>
