<?xml version="1.0" encoding="utf-8"?>
<!-- Generator: Adobe Illustrator 16.0.0, SVG Export Plug-In . SVG Version: 6.00 Build 0)  -->
<!DOCTYPE svg PUBLIC "-//W3C//DTD SVG 1.1//EN" "http://www.w3.org/Graphics/SVG/1.1/DTD/svg11.dtd">
<svg version="1.1" id="Layer_1" xmlns="http://www.w3.org/2000/svg" xmlns:xlink="http://www.w3.org/1999/xlink" x="0px" y="0px"
	 width="90px" height="90px" viewBox="0 0 90 90" enable-background="new 0 0 90 90" xml:space="preserve">
<g>
	<path d="M74.5,36.031c-0.054-0.165,0.272-1.038,0.094-1.625c-0.471-1.542-2.165-1.969-3.146-3.103
		c-1.043-1.208-1.049-3.145-1.544-4.604c-0.724-2.131-1.685-4.188-2.88-6.095c-2.032-3.246-4.779-6.036-8.217-7.778
		c-3.841-1.947-7.359-1.83-11.511-1.795c-1.84,0.016-3.673-0.764-5.511-0.932c-2.199-0.201-4.408-0.104-6.544,0.482
		c-3.628,0.996-6.803,3.192-9.485,5.778c-2.876,2.772-5.21,6.35-8.116,9.086c-0.953,0.898-2.627,2.213-3.019,3.043
		c-0.62,1.315,0.848,2.65,2.256,2.512c-1.153,1.354-4.439,3.344-3.771,5.425c0.637,1.978,3.172,1.41,4.727,1.379
		c-0.181,1.743-1.556,3.405-2.083,5.069c-0.245,0.773-0.354,1.66,0.218,2.361c0.866,1.063,1.42,0.06,1.438,1.641
		c0.016,1.493-0.025,3.081-0.396,4.542c-0.395,1.56-2.206,3.436-0.524,4.893c1.418,1.229,2.645-0.656,3.889-0.247
		c0.5,0.165,2.355,3.121,2.34,3.648c-0.031,1.047-1.699,2.402-2.265,3.201c-1.044,1.477-2.045,3.111-2.514,4.875
		c-0.891,3.351,0.934,6.758,4.488,7.272c3.441,0.498,6.964-1.137,10.308,0.388c3.206,1.462,5.763,2.812,9.395,3.007
		c3.125,0.168,5.272,0.156,8.204-0.963c3.563-1.361,5.763-2.991,10.88-2.571c2.897,0.238,6.264,0.486,8.041-2.323
		c1.795-2.837,0.273-6.375-1.332-8.912c-0.722-1.143-1.649-2.054-2.482-3.102c-0.985-1.239-0.844-1.161,0.895-3.426
		c1.395-1.817,1.954,0.015,3.788-0.388c1.268-0.278,1.259-1.241,1.256-2.437c-0.008-3.755-0.875-7.729,0.173-7.959
		c1.104-0.243,2.211-1.207,1.723-2.583c-0.499-1.405,0.619-1.76,1.427-2.369c0.652-0.492,1.242-1.115,1.598-1.863
		C76.866,38.358,76.249,36.031,74.5,36.031z M30.438,72.618c-3.748-0.267-11.563,1.882-10.524-3.673
		c0.312-1.668,1.349-3.19,2.257-4.587c0.51-0.785,0.853-1.304,1.449-2.025c1.229-1.487,1.243-1.034,2.725-0.052
		c1.126,0.747,4.176,1.625,3.712-1.3c1.151,0.027,0.489-0.69,1.56,0.456c0.813,0.87,1.718,1.647,2.67,2.359
		c-1.745,1.227-2.779,1.063-2.412,3.537c0.297,1.999,0.438,3.896,1.283,5.735C32.775,72.904,30.851,72.647,30.438,72.618z
		 M53.766,68.391c-0.343,1.086-0.788,3.069-1.313,4.456c-0.516,1.362-3.674,1.873-4.976,2.125
		c-3.113,0.603-11.373,0.907-12.333-2.95c-0.344-1.383-1.313-3.867-0.997-5.281c1.392-0.649,4.4,1.724,5.834,2.138
		c2.535,0.733,5.092,0.809,7.647,0.129c1.911-0.508,4.406-2.62,6.34-2.226C53.954,67.482,54.141,67.203,53.766,68.391z
		 M39.396,50.979c2.261,1.552,5.931-1.442,7.459-2.479c2.526-1.715,5.052-2.561,8.041-3.333c0.75-0.194,1.52-0.164,2.25,0.125
		c1.079,0.427,0.817,0.608,0.604,1.375c-0.41,1.48-0.794,2.99-1.229,4.458c-1.021,3.44-1.92,6.152-4.677,8.719
		c-2.061,1.918-4.136,3.613-6.844,4.472c-2.453,0.777-6.24-2.241-8.031-3.659c-2.523-1.998-4.425-4.136-5.386-7.219
		c-0.905-2.901-1.721-5.62-1.909-8.653c2.645,0.537,4.213,1.274,6.795,2.059c0.959,0.291,2.48,0.561,2.135,1.674
		C38.288,49.529,38.429,50.315,39.396,50.979z M67.109,67.078c0.958,1.978,0.788,5.114-1.673,5.669
		c-3.343,0.753-7.192-1.132-10.895,0.274c0.703-1.66,1.125-3.582,1.501-5.342c0.519-2.426-0.93-2.959-2.735-3.898
		c0.711-0.532,1.396-1.099,2.04-1.711c0.911-0.868,0.812-1.217,1.985-1.127c-0.989,2.713,1.927,2.229,3.229,1.525
		c0.76-0.409,1.6-0.977,2.252-1.533c0.62,0.644,0.95,1.036,1.51,1.731C65.547,64.188,66.484,65.719,67.109,67.078z M73.406,39.297
		c-0.844,0.656-2.469,1.047-3.901,2.121c-0.523,0.393-0.398,1.769,0.357,2.122c0.149,0.07,1.412,0.362,1.049,0.726
		c-0.431,0.431-1.148,0.249-1.666,0.456c-0.685,0.274-0.605,1.44-0.629,2.013c-0.027,0.704,0.389,7.618,0.361,7.627
		c-0.501,0.175-1.408-0.615-1.714-0.938c-1.317-1.384-1.796,0.535-2.332,1.674c-0.633,1.343-3.808,4.927-5.992,5.928
		c0.991-1.036,2.998-4.855,3.061-5.441c0.252-2.342-1.486-0.438-1.896,0.225c-0.13,0.209-1.679,2.224-1.681,2.192
		c-0.033-0.439,0.037-0.52,0.057-1.063c0.061-1.687-1.578,0.767-1.688,1.021c-0.354,0.823-1.323,1.979-2.084,2.624
		c-0.026-0.063-0.192-0.147-0.219-0.211c1.947-2.085,2.394-2.729,3.417-6.34c0.542-1.912,1.097-3.309,1.5-5.063
		c0.259-1.13,0.866-3.019,0.531-4.219c-0.255-0.906-2.182-1.279-2.938-1.605c-1.785-0.771-4.662,0.66-6.375,1.124
		c-2.221,0.603-3.716,1.653-5.625,2.856c-0.599,0.377-3.406,2.695-4.156,2.156c-0.842-0.605,0.542-1.85-0.036-2.698
		c-0.941-1.382-3.435-1.641-4.893-2.117c-1.542-0.504-8.238-3.895-8.408-0.623c-0.147,2.854,0.896,6.261,1.618,8.97
		c1.105,4.143,2.734,5.594,4.359,7.516c-0.734-0.031-1.641-0.516-2.578-2.297c-0.223-0.424-0.815-2.381-1.471-1.169
		c-0.182,0.337-0.223,1.422-0.259,1.437c-0.803,0.323-2.805-4.887-3.313-4.424c-0.642,0.587-0.083,2.868,0.178,3.5
		c0.489,1.188,0.899,1.76,1.583,2.875c0.245,0.399-0.696-0.13-0.581-0.045c-0.947-0.699-1.841-1.449-2.632-2.325
		c-1.266-1.404-2.016-2.965-2.938-4.569c-0.749-1.301-1.357,0.027-2.213,0.632c-1.412,0.998,0.104-3.161,0.177-3.823
		c0.103-0.925,0.83-5.955-0.465-6.086c-2.293-0.232-0.254-2.402,0.365-3.756c0.363-0.794,1.823-4.527,1.172-5.311
		c-0.84-1.009-3.634,1.661-4.688,0.61c0.937-1.465,2.419-2.731,3.568-4.034c0.294-0.333,3.484-4.274,3.423-4.288
		c-1.672-0.351-3.62,2.417-5.462,1.583c0.528,0.238,4.482-4.505,4.833-4.914c2.221-2.585,4.306-5.318,6.9-7.551
		c2.554-2.197,5.544-3.701,8.92-4.062c3.484-0.373,6.65,1.133,10.048,0.933c6.546-0.386,12.163,1.6,16.123,7.073
		c1.897,2.622,3.16,5.596,3.959,8.723c0.31,1.213,0.563,2.573,1.39,3.563c0.648,0.779,2.264,1.356,2.687,2.208
		c0.219,0.44-2.014,0.018-2.122-0.003c-0.893-0.17-0.545,1.057-0.388,1.479c0.634,1.695,2.858,2.06,3.74,2.117
		C74.371,38.459,73.854,38.949,73.406,39.297z"/>
	<path d="M53.677,41.356c-0.291-0.236-0.104-0.083-0.008-0.006c-1.771-1.436-1.905-1.112-2.888,0.729
		c-0.343,0.374-0.987,1.256,0.046,1.03c0.334-0.074,3.678-0.816,3.51-1.18C54.15,41.699,53.93,41.508,53.677,41.356z"/>
	<path d="M32.958,39.244c-0.681,0-1.847,1.654-2.396,2.086c-0.328,0.255,1.297,0.656,1.953,0.822
		c0.273,0.069,3.01,1.085,3.298,0.772C35.861,42.872,33.466,39.244,32.958,39.244z"/>
</g>
</svg>
