<?xml version="1.0" encoding="utf-8"?>
<!-- Generator: Adobe Illustrator 16.0.0, SVG Export Plug-In . SVG Version: 6.00 Build 0)  -->
<!DOCTYPE svg PUBLIC "-//W3C//DTD SVG 1.1//EN" "http://www.w3.org/Graphics/SVG/1.1/DTD/svg11.dtd">
<svg version="1.1" id="Layer_1" xmlns="http://www.w3.org/2000/svg" xmlns:xlink="http://www.w3.org/1999/xlink" x="0px" y="0px"
	 width="90px" height="90px" viewBox="0 0 90 90" enable-background="new 0 0 90 90" xml:space="preserve">
<path d="M69.089,45.085c-0.037-0.022,0.86-7.525,0.729-8.525c-0.444-3.366-1.535-6.652-3.252-9.583
	c-3.184-5.433-8.423-9.543-14.446-11.37c-6.218-1.886-13.228-1.26-19.003,1.729c-2.781,1.439-5.233,3.443-7.28,5.807
	c-1.106,1.279-2.098,2.657-2.984,4.097c-0.797,1.283-3.393,2.262-4.63,3.105c-1.528,1.042-15.555,10.603-9.249,13.026
	c2.223,0.854,5.593,0.13,7.864-0.073c0.373-0.033,3.521-0.593,3.66-0.223c0.112,0.297,0.809,2.376,0.552,2.565
	c-3.908,3.007-3.901,8.106-0.882,11.933c0.733,0.931,1.643,1.729,2.692,2.285c0.926,0.49,2.169,0.441,2.624,1.434
	c1.355,2.958,3.407,5.58,5.999,7.554c8.73,6.648,23.169,5.574,30.404-2.828c0.779-0.905,1.473-1.885,2.068-2.92
	c0.499-0.868,0.815-2.528,1.489-3.211c0.374-0.379,1.44-0.563,1.902-0.829c1.085-0.627,2.012-1.508,2.736-2.527
	C72.414,53.259,73.107,47.421,69.089,45.085z M36.96,19.522c3.618-1.619,9.694-2.319,13.489-0.803c4.49,1.8,8.201,3.48,11.396,7.384
	c2.818,3.444,4.509,7.751,4.8,12.183c-6.846-1.141-14.042-1.17-20.978-1.285c-1.337-0.017-2.674-0.034-4.011-0.051
	c-1.01-0.013-3.082,0.378-4.011-0.051c-1.156-2.399-4.259-4.101-6.362-5.541c-1.591-1.089-3.299-2.12-5.138-2.712
	C28.717,24.446,32.492,21.473,36.96,19.522z M11.958,40.092c3.232-3.524,7.624-6.402,11.712-8.858
	c3.019-1.813,9.505,4.051,11.411,6.078c-3.45,0.697-6.93,1.14-10.408,1.667C20.468,39.528,16.205,40.084,11.958,40.092z
	 M64.746,57.688c-1.263,0.219-1.337,1.316-1.801,2.384c-0.671,1.542-1.538,3.001-2.606,4.302c-1.931,2.352-4.486,4.113-7.341,5.154
	c-6.134,2.239-13.866,1.678-19.327-2.026c-2.606-1.768-4.642-4.263-5.912-7.141c-0.683-1.546-0.593-1.755-2.177-2.004
	c-1.438-0.225-2.654-1.217-3.516-2.344c-1.528-2.001-2.62-5.518-0.559-7.561c3.591-3.559,3.45,3.749,4.314,3.2
	c0.436-0.276,0.22-2.871,0.243-3.295c0.104-1.894,0.27-3.775,0.48-5.66c0.077-0.695-0.165-1.741,0.646-1.854
	c0.875-0.124,1.75-0.246,2.625-0.373c0.871-0.126,1.736-0.291,2.606-0.423c1.104-0.167,6.373-1.869,6.447-0.288
	c0.061,1.263,0.083,3.746,1.166,4.646c1.087,0.903,2.549-1.567,2.853-0.925c0.465,0.984,0.812,2.592,2.252,2.459
	c0.874-0.081,2.951-2.789,2.92-2.814c1.313,1.026,2.367,2.278,3.309-0.127c0.275-0.705,0.472-1.445,0.628-2.185
	c0.368-1.744,0.504-1.418,2.329-1.333c2.086,0.098,4.171,0.215,6.254,0.359c1.425,0.099,2.987-0.335,3.165,1.216
	c0.238,2.081,0.461,4.166,0.593,6.257c0.024,0.388,0.251,3.809,0.356,3.733c1.099-0.784,0.954-3.015,1.649-4.074
	c0.915-1.394,3.158,1.99,3.324,2.631C70.451,52.617,67.909,57.14,64.746,57.688z"/>
</svg>
