<?xml version="1.0" encoding="utf-8"?>
<!-- Generator: Adobe Illustrator 16.0.0, SVG Export Plug-In . SVG Version: 6.00 Build 0)  -->
<!DOCTYPE svg PUBLIC "-//W3C//DTD SVG 1.1//EN" "http://www.w3.org/Graphics/SVG/1.1/DTD/svg11.dtd">
<svg version="1.1" id="Layer_1" xmlns="http://www.w3.org/2000/svg" xmlns:xlink="http://www.w3.org/1999/xlink" x="0px" y="0px"
	 width="90px" height="90px" viewBox="0 0 90 90" enable-background="new 0 0 90 90" xml:space="preserve">
<g>
	<path d="M43.854,19.143c-5.299,0.346-9.781,7.824-7.152,11.934c0.737,1.152,0.439,1.114,8.347,1.075
		c7.21-0.035,6.92-0.013,7.506-0.554c1.859-1.713,1.435-5.965-0.885-8.877C49.41,19.881,47.303,18.917,43.854,19.143z
		 M50.685,30.332l-0.162,0.2l-4.277,0.022c-5.331,0.028-4.908,0.163-5.022-1.599c-0.07-1.076-0.311-4.083-0.487-6.064
		c-0.149-1.686-0.147-1.688,1.491-1.872c1.993-0.224,2.456-0.246,2.677-0.128c0.337,0.18,0.351,0.906,0.116,5.844
		c-0.066,1.388-0.102,1.347,1.074,1.208c3.422-0.404,3.998-0.419,4.271-0.116C50.69,28.186,50.925,30.035,50.685,30.332z"/>
	<path d="M67.61,43.643l-0.396-0.41l0.371-0.939c2.538-6.415,1.005-14.55-3.934-20.881c-5.196-6.662-13.336-10.168-21.531-9.275
		c-14.745,1.608-25.375,17.366-20.358,30.179l0.354,0.904l-0.424,0.463c-4,4.363-0.534,13.55,6.443,17.078
		c0.796,0.403,0.814,0.418,0.906,0.771c2.455,9.384,7.992,14.528,15.626,14.517c6.15-0.009,10.626-3.092,13.604-9.371
		c0.911-1.921,1.251-2.844,1.868-5.071c0.12-0.434,0.134-0.448,0.585-0.633c3.631-1.485,7.117-5.526,8.145-9.442
		c0.311-1.183,0.364-1.535,0.409-2.68C69.367,46.63,68.806,44.88,67.61,43.643z M61.613,42.014
		c-0.551,0.005-1.006,0.328-1.563,0.846c-0.262,0.245-0.548,0.46-0.612,0.498c-0.114,0.06-0.222,0.121-0.323,0.185
		c-0.294-0.075-0.618-0.109-0.959-0.146c-0.666-0.071-1.474-0.393-3.601-1.435c-2.644-1.294-2.779-1.356-3.622-1.676
		c-2.035-0.771-4.418-1.232-6.375-1.232c-0.488,0-0.949,0.028-1.371,0.084c-1.245,0.164-3.18,0.572-3.906,0.872
		c-0.278,0.114-0.694,0.27-0.908,0.34c-0.412,0.135-1.982,0.887-2.754,1.266c-3.269,1.603-3.684,1.746-4.545,1.833
		c-0.228,0.023-0.458,0.046-0.682,0.098c-0.103-0.055-0.191-0.094-0.249-0.12c-0.094-0.043-0.393-0.244-0.655-0.49
		c-0.446-0.419-0.868-0.815-1.516-0.815c-0.554,0-0.928,0.298-1.186,0.53c-0.162-0.089-0.33-0.176-0.47-0.244
		c-1.281-0.62-2.549-5.746-1.636-10.11c1.871-8.947,9.494-15.779,18.537-16.613c0.558-0.051,1.125-0.077,1.686-0.077
		c9.899,0,18.801,7.879,20.268,17.938c0.247,1.695,0.126,3.846-0.325,5.755c-0.482,2.045-1.135,2.944-1.374,3.058
		c-0.209,0.09-0.388,0.187-0.54,0.287C62.544,42.274,62.069,42.014,61.613,42.014z M22.375,49.55c0.448,3.717,3.36,8.205,7.609,9.64
		C25.725,57.751,22.815,53.266,22.375,49.55z M59.064,59.022c-0.619,0.118-0.629,0.136-1.044,1.774
		c-2.09,8.258-6.809,12.852-13.192,12.845c-6.441-0.007-11.242-4.605-13.283-12.722c-0.38-1.513-0.421-1.584-1.017-1.754
		c-6.503-1.861-10.762-12.138-5.996-14.47c0.219-0.107,0.367-0.175,0.556-0.229c0.061,0.035,0.122,0.071,0.184,0.101
		c0.273,0.132,0.543,0.288,0.605,0.331c0.207,0.147,0.533,0.343,0.979,0.343c0.091,0,0.177-0.01,0.261-0.025
		c0.044,0.217,0.094,0.478,0.153,0.795c0.721,3.856,2.423,10.732,2.808,11.34c0.187,0.295,0.426,0.215,1.171-0.391
		c0.939-0.764,0.928-0.688,0.426-3.064c-0.403-1.908-0.914-4.933-1.215-7.161l0.663-0.878c0.051-0.006,0.114-0.013,0.193-0.021
		c1.336-0.135,2.035-0.436,5.361-2.066c1.241-0.609,2.265-1.076,2.445-1.14c0.269-0.088,0.74-0.264,1.075-0.402
		c0.388-0.16,2.023-0.542,3.307-0.712c0.317-0.042,0.673-0.063,1.056-0.063c1.681,0,3.746,0.402,5.524,1.077
		c0.75,0.285,0.846,0.329,3.417,1.588c2.45,1.2,3.396,1.558,4.4,1.666c0.186,0.02,0.333,0.037,0.442,0.053
		c0.25,0.301,0.543,0.407,0.771,0.439c-0.401,2.876-0.82,5.379-1.258,7.517c-0.516,2.513-0.551,2.281,0.469,3.094
		c0.76,0.606,0.917,0.662,1.097,0.385c0.202-0.308,1.184-3.652,1.804-6.14c0.181-0.727,0.38-1.518,0.442-1.76
		c0.225-0.874,0.55-2.533,0.747-3.729c0.112,0.021,0.193,0.022,0.205,0.022c0.312,0,0.548-0.113,0.712-0.224
		c1.028-0.036,1.306-0.625,1.38-0.979c4.001,1.504,2.663,8.937-2.685,12.965C61.243,58.019,59.55,58.93,59.064,59.022z
		 M60.921,58.451c3.917-2.254,6.246-6.457,6.35-9.767C67.196,51.99,64.87,56.178,60.921,58.451z"/>
	<path d="M56.365,58.243c-0.74,0.375-2.155,0.894-3.216,1.179l-1.159,0.311L51.349,60.4c-3.449,3.594-9.238,3.63-12.959,0.08
		l-0.642-0.612l-1.28-0.323c-1.31-0.331-2.556-0.762-3.48-1.205c-0.616-0.295-0.763-0.307-0.888-0.074
		c-0.155,0.29-0.043,2.606,0.164,3.371c1.657,6.125,7.556,7.98,11.761,3.699c0.558-0.568,0.535-0.573,1.395,0.256
		c4.71,4.537,11.46,1.108,11.706-5.947C57.183,58.056,57.085,57.877,56.365,58.243z"/>
</g>
</svg>
