<?xml version="1.0" encoding="utf-8"?>
<!-- Generator: Adobe Illustrator 16.0.0, SVG Export Plug-In . SVG Version: 6.00 Build 0)  -->
<!DOCTYPE svg PUBLIC "-//W3C//DTD SVG 1.1//EN" "http://www.w3.org/Graphics/SVG/1.1/DTD/svg11.dtd">
<svg version="1.1" id="Layer_1" xmlns="http://www.w3.org/2000/svg" xmlns:xlink="http://www.w3.org/1999/xlink" x="0px" y="0px"
	 width="90px" height="90px" viewBox="0 0 90 90" enable-background="new 0 0 90 90" xml:space="preserve">
<path d="M55.277,33.296l0.05-0.484l0.468,0.061c2.701,0.348,5.538-0.24,7.931-1.644l0.543-0.317l0.405,0.075
	c1.535,0.283,3.461-0.106,4.509-0.912c0.272-0.209,0.461-0.292,0.813-0.353c1.42-0.247,2.739-1.037,3.569-2.139
	c0.547-0.727,0.631-1.025,0.632-2.242c0.001-1.624-0.281-2.04-1.678-2.475c-2.308-0.717-7.21-3.919-9.337-6.1
	c-2.296-2.354-4.463-2.471-6.299-0.34c-1.095,1.271-2.468,2.469-4.217,3.677c-0.773,0.535-0.71,0.544-0.854-0.111
	c-0.947-4.283-4.635-6.576-9.387-5.838c-3.069,0.477-5.24,2.459-6.041,5.514c-0.078,0.3-0.143,0.603-0.143,0.672
	c0,0.22-0.15,0.146-1.081-0.532c-1.649-1.202-2.833-2.253-3.871-3.435c-0.868-0.988-1.719-1.408-2.861-1.411
	c-1.291-0.003-1.904,0.328-3.419,1.849c-2.375,2.381-7.232,5.491-9.624,6.163c-1.092,0.306-1.568,1.447-1.323,3.175
	c0.228,1.609,1.976,3.134,4.062,3.544c0.509,0.101,0.676,0.168,0.914,0.367c0.941,0.792,2.983,1.21,4.52,0.927l0.405-0.075
	l0.543,0.317c2.671,1.566,5.73,2.105,8.572,1.509c0.056-0.011,0.114,0.21,0.172,0.66c0.242,1.872,0.891,3.793,1.66,4.914
	c0.273,0.397,0.279,0.382-0.358,1.055c-0.843,0.891-1.848,2.487-2.304,3.663c-0.247,0.635-0.146,0.562-1.208,0.883
	c-3.699,1.116-7.882,3.522-10.428,6c-5.578,5.426-7.423,14.395-3.72,18.082c1.884,1.876,5.155,1.994,6.955,0.252
	c1.071-1.038,1.751-2.58,2.477-5.621c0.181-0.757,0.373-1.519,0.427-1.694l0.099-0.317L26.82,61.16
	c-0.252,4.84,2.823,8.666,7.371,9.172l0.746,0.083l0.556,0.592c4.376,4.66,12.941,4.616,17.521-0.091l0.496-0.51l0.494-0.048
	c4.516-0.427,7.353-3.522,7.636-8.333l0.05-0.847l0.205,0.883c1.272,5.479,2.771,7.407,5.759,7.413
	c7.431,0.012,7.7-11.722,0.441-19.232c-2.515-2.602-6.666-5.04-10.759-6.321L56.5,43.66l-0.354-0.81
	c-0.597-1.367-1.346-2.538-2.299-3.591l-0.473-0.522l0.167-0.29C54.532,36.727,55.095,35.057,55.277,33.296z M38.891,25.481
	c-0.077-0.191-0.055-0.292-0.047-0.305c0.005-0.004,0.033-0.016,0.088-0.016c0.094,0,0.217,0.033,0.345,0.094
	c0.308,0.146,0.643,0.279,1.01,0.279l0,0c0.66,0,1.18-0.388,2.167-1.317c0.587-0.553,1.008-0.895,1.252-1.018
	c0.183-0.092,0.305-0.133,0.396-0.133c0.263,0,0.73,0.386,1.447,1.05c1.004,0.932,1.509,1.399,2.2,1.399
	c0.294,0,0.581-0.089,0.899-0.195c0.323-0.108,0.487-0.141,0.58-0.146c0.055,0.065,0.096,0.169,0.118,0.268
	c-0.208,0.119-0.394,0.302-0.604,0.514c-0.914,0.919-1.106,1.51-0.894,2.745c0.063,0.369,0.015,0.585-0.046,0.657
	c-0.047,0.056-0.167,0.063-0.234,0.063c-0.129,0-0.356-0.029-0.697-0.169c-0.805-0.33-1.747-0.504-2.726-0.504
	c-0.925,0-1.866,0.157-2.724,0.451c-0.419,0.146-0.735,0.22-0.938,0.22c-0.05,0-0.08-0.006-0.095-0.009
	c-0.029-0.05-0.115-0.264-0.079-0.975c0.065-1.277-0.051-1.762-0.945-2.508c-0.156-0.13-0.292-0.242-0.43-0.328
	C38.921,25.563,38.907,25.524,38.891,25.481z M36.006,31.626c-0.006-2.379,0.672-3.744,2.343-4.706
	c0.037,0.03,0.076,0.063,0.113,0.094c0.466,0.391,0.484,0.405,0.437,1.352c-0.036,0.719-0.008,1.523,0.472,2.029
	c0.276,0.289,0.65,0.437,1.112,0.437c0.37,0,0.814-0.094,1.398-0.295c0.711-0.246,1.493-0.376,2.263-0.376
	c0.796,0,1.554,0.138,2.19,0.399c0.445,0.182,0.86,0.274,1.233,0.274c0.691,0,1.096-0.308,1.313-0.565
	c0.253-0.301,0.521-0.858,0.359-1.807c-0.135-0.784-0.092-0.912,0.508-1.516c0.058-0.059,0.12-0.12,0.173-0.172
	c0.075,0.042,0.167,0.096,0.255,0.147c1.931,1.129,2.853,3.612,2.293,6.178c-0.065,0.302-0.151,0.733-0.19,0.964
	c-0.192,1.132-0.975,2.722-1.787,3.656c-0.083-0.04-0.18-0.09-0.261-0.131c-0.149-0.076-0.319-0.163-0.51-0.249
	c-1.507-0.678-3.505-1.051-5.626-1.051c-2.123,0-4.034,0.376-5.384,1.057c-0.106,0.054-0.207,0.106-0.302,0.157
	c-0.11,0.059-0.247,0.131-0.351,0.177C36.721,36.191,36.012,34.103,36.006,31.626z M51.537,23.838
	c1.963-0.929,4.842-3.108,6.845-5.181c0.543-0.562,0.998-0.975,1.126-1.065c0.133-0.055,0.237-0.081,0.326-0.081
	c0.28,0,0.684,0.293,1.437,1.048c1.239,1.239,3.215,2.788,5.035,3.947c0.241,0.153,0.715,0.46,1.053,0.683
	c0.528,0.346,0.73,0.448,0.85,0.479c0.06,0.029,0.188,0.099,0.348,0.195c0.895,0.543,2.09,1.12,2.722,1.313
	c0.292,0.089,0.401,0.143,0.443,0.168c0.002,0.019,0.004,0.05,0.004,0.1c-0.003,0.671-1.338,1.725-2.58,1.817l-0.823,0.063
	l-0.525,0.496c-0.464,0.438-1.152,0.68-1.938,0.68h0c-0.339,0-0.685-0.046-1.026-0.136c-0.324-0.087-0.572-0.147-0.813-0.147
	c-0.412,0-0.703,0.173-1.132,0.459c-0.913,0.607-1.458,0.857-1.755,0.959c-0.238,0.082-0.57,0.221-0.755,0.315
	c-0.529,0.27-1.474,0.431-2.527,0.431c-1.252,0-2.477-0.224-3.197-0.582c-0.448-0.223-0.682-0.334-0.917-0.342
	c-0.03-0.102-0.061-0.202-0.095-0.301c-0.073-0.24-0.143-0.447-0.193-0.569c-0.095-0.229-0.237-0.477-0.408-0.729
	c-0.531-0.887-1.258-1.632-2.155-2.156c-0.03-0.018-0.058-0.033-0.086-0.049c-0.018-0.08-0.035-0.229-0.044-0.312
	c-0.031-0.279-0.095-0.782-0.144-1.14C50.835,24.157,51.108,24.041,51.537,23.838z M39.014,20.354
	c0.465-1.801,1.948-3.219,3.689-3.525c0.227-0.04,0.591-0.062,1.026-0.062c0.88,0,1.863,0.092,2.191,0.205
	c2.376,0.819,3.356,2.359,3.496,5.495c0.017,0.379,0.05,1.024,0.082,1.447c-0.073,0.002-0.153,0.003-0.237,0.005
	c-0.586,0.014-0.824,0.052-1.267,0.276l-0.176,0.09l-0.141-0.064c-0.087-0.039-0.352-0.191-0.931-0.752
	c-1.253-1.213-2.021-1.686-2.741-1.686c-0.426,0-0.821,0.17-1.208,0.52c-0.063,0.057-0.12,0.101-0.156,0.128
	c-0.148,0.048-0.364,0.217-0.937,0.802c-0.649,0.662-1.126,0.997-1.419,0.997c-0.044,0-0.114-0.007-0.212-0.064
	c-0.314-0.186-0.633-0.233-1.112-0.257c-0.069-0.004-0.132-0.008-0.189-0.012C38.773,23.011,38.904,20.779,39.014,20.354z
	 M33.97,29.645c-1.375,0.704-2.866,0.909-4.676,0.645c-1.267-0.185-3.096-0.948-3.994-1.665c-0.303-0.242-0.587-0.443-0.999-0.443
	c-0.181,0-0.358,0.04-0.522,0.082c-0.676,0.174-1.079,0.263-1.405,0.263c-0.254,0-0.498-0.052-0.859-0.147
	c-0.518-0.136-0.767-0.272-1.066-0.58l-0.462-0.477l-0.867-0.065c-1.343-0.101-2.628-1.208-2.641-1.817c0-0.021,0-0.038,0-0.052
	c0.129-0.066,0.428-0.168,0.567-0.215c0.824-0.28,2.875-1.343,3.919-2.03l1.376-0.907c1.958-1.288,3.575-2.564,4.677-3.689
	c0.789-0.806,0.943-0.918,1.208-1.015c0.092-0.034,0.157-0.051,0.205-0.051c0.26,0,0.899,0.627,1.645,1.383
	c1.781,1.806,2.602,2.456,5.489,4.352c0.362,0.238,1.527,0.82,2.104,0.961c-0.021,0.155-0.061,0.31-0.121,0.458
	c-0.187,0.469-0.218,0.684-0.168,1.15l0.008,0.071c-1.303,0.819-2.122,1.901-2.515,3.366c-0.006,0.018-0.013,0.034-0.019,0.053
	c-0.2,0.021-0.402,0.125-0.822,0.339L33.97,29.645z M44.208,55.012c1.359,0,2.641-0.489,3.609-1.379
	c0.129-0.117,0.291-0.266,0.34-0.286c0,0,0.012-0.003,0.046-0.003c0.165,0,0.492,0.065,0.944,0.155
	c2.273,0.452,5.171,1.706,5.631,2.206c0.191,0.207,0.661,0.613,1.006,0.89c2.29,1.838,2.881,2.896,2.874,5.146
	c-0.011,3.411-1.958,5.534-5.21,5.679l-1.401,0.062l-0.454,0.551c-0.871,1.057-1.824,1.855-2.92,2.425
	c0.276-0.341,0.517-0.72,0.716-1.134c0.682-1.416,0.759-2.224-0.642-2.982c-1.438-0.777-2.354-1.422-3.266-2.298
	c-0.444-0.427-0.795-0.764-1.276-0.764c-0.475,0-0.779,0.341-0.96,0.546c-0.639,0.716-2,1.712-3.312,2.419
	c-0.931,0.503-1.446,0.842-1.217,1.953c0.194,0.94,0.586,1.718,1.104,2.341c-1.151-0.583-2.13-1.382-2.764-2.313
	c-0.499-0.733-0.983-0.779-2.129-0.819c-3.073-0.107-5.133-2.41-5.126-5.73c0.004-2.076,0.802-3.435,3.047-5.194
	c0.422-0.331,0.665-0.536,0.793-0.719c0.234-0.18,1.034-0.677,1.598-0.943c1.28-0.605,2.463-0.979,4.362-1.378
	c0.309-0.063,0.576-0.12,0.705-0.12c0.015,0,0.023,0.001,0.023,0c0.065,0.029,0.264,0.218,0.408,0.356
	C41.643,54.537,42.875,55.012,44.208,55.012z M40.077,67.794c0.133-0.096,0.41-0.244,0.526-0.308
	c1.43-0.771,2.881-1.835,3.644-2.666c0.097,0.088,0.201,0.188,0.255,0.24c1.011,0.972,2.013,1.679,3.572,2.522
	c0.26,0.141,0.349,0.218,0.377,0.247c-0.002,0.08-0.055,0.296-0.335,0.88c-0.72,1.497-2.174,2.391-3.889,2.391
	c-1.727,0-3.674-0.986-4.129-3.19C40.089,67.86,40.082,67.823,40.077,67.794z M27.672,57.527c0.514-1.43,1.582-3.076,2.582-3.979
	l0.303-0.273l0.049,0.28c0.027,0.153,0.051,0.408,0.054,0.564c0.004,0.272-0.025,0.311-0.635,0.848
	c-1.047,0.921-1.811,1.83-2.301,2.739C27.44,58.233,27.431,58.201,27.672,57.527z M57.811,54.246
	c0.022-0.059,0.041-0.279,0.041-0.491c0-0.495,0.084-0.458,0.783,0.345c0.72,0.829,1.149,1.459,1.588,2.336
	c0.459,0.916,0.496,1.15,0.083,0.531c-0.276-0.414-1.629-1.838-2.265-2.385C57.871,54.438,57.785,54.312,57.811,54.246z
	 M55.664,48.996c0.116,0.95,0.171,4.82,0.077,5.421c-0.013,0.083-0.022,0.157-0.029,0.227c-0.978-0.893-4.184-2.111-6.288-2.53
	c-0.571-0.112-0.916-0.182-1.22-0.182c-0.136,0-0.254,0.017-0.365,0.042c0.414-0.846,0.354-1.839-0.474-2.757
	c-0.817-0.903-2.457-1.475-3.661-1.275c-2.552,0.424-3.771,2.372-3.083,4c-0.098-0.02-0.201-0.034-0.315-0.034
	c-0.275,0-0.577,0.063-0.995,0.15c-2.018,0.423-3.286,0.826-4.676,1.483c-0.347,0.165-0.833,0.436-1.27,0.707
	c-0.228,0.143-0.417,0.263-0.569,0.379c-0.003-0.022-0.006-0.045-0.01-0.068c-0.246-1.523-0.078-5.284,0.318-7.115
	c0.054-0.252,0.165-0.775,0.247-1.162c0.572-2.723,2.354-5.61,4.181-6.774c0.247-0.158,0.373-0.249,0.374-0.372
	c0.018,0.001,0.035,0.003,0.053,0.003c0.381,0,0.72-0.179,1.111-0.387c0.087-0.046,0.18-0.095,0.277-0.145
	c1.139-0.574,2.87-0.904,4.747-0.904c1.898,0,3.738,0.338,5.047,0.926c0.159,0.072,0.305,0.147,0.446,0.219
	c0.363,0.186,0.678,0.347,1.025,0.347c0.038,0.078,0.146,0.151,0.319,0.27C53.456,41.181,55.117,44.528,55.664,48.996z"/>
</svg>
