<?xml version="1.0" encoding="utf-8"?>
<!-- Generator: Adobe Illustrator 16.0.0, SVG Export Plug-In . SVG Version: 6.00 Build 0)  -->
<!DOCTYPE svg PUBLIC "-//W3C//DTD SVG 1.1//EN" "http://www.w3.org/Graphics/SVG/1.1/DTD/svg11.dtd">
<svg version="1.1" id="Layer_1" xmlns="http://www.w3.org/2000/svg" xmlns:xlink="http://www.w3.org/1999/xlink" x="0px" y="0px"
	 width="90px" height="90px" viewBox="0 0 90 90" enable-background="new 0 0 90 90" xml:space="preserve">
<path d="M68.364,17c-8.974,0-14.224,0-23.196,0c-5.994,0-13.763,0-16.626,0c-2.204,0-4.338,0-6.541,0
	c-1.853,0-3.833,0.813-4.874,2.314c-1.443,2.082-1.19,7.764-1.192,11.266c-0.003,4.646-0.006,9.151-0.008,13.797
	c-0.003,4.418-0.006,8.766-0.008,13.184c-0.002,2.209-0.003,4.384-0.005,6.593c-0.001,2.249-0.528,4.886,0.755,6.816
	c0.811,1.22,1.896,2.568,3.163,3.298c1.549,0.893,4.281,0.73,6.054,0.73c4.648,0,9.296,0,13.943,0c9.162,0,18.325,0,27.487,0
	c2.046,0,3.453-0.715,4.924-2.269C72.77,72.172,74,70.25,74,68.833c0-1.051,0-1.348,0-2.399c0-7.085,0-14.17,0-21.255
	c0-6.952,0-13.904,0-20.855c0-1.12,0-0.58,0-1.699C74,19.313,70.455,17,68.364,17z M30.09,65.589
	c0.002,1.732,0.05,4.094,0.027,5.826c-2.345,0.052-5.086,0.182-7.416-0.126c-4.877-0.644-3.255-7.97-3.305-11.391
	c3.569,0.052,7.139,0.051,10.708-0.01C30.077,61.788,30.089,63.689,30.09,65.589z M39.563,53.203
	c1.798-0.004,4.723,0.054,6.521,0.063c1.439,0.006,2.878,0.017,4.316,0.03c0.025,1.141,0.031,2.282,0.047,3.423
	c0.036,2.591,0.497,3.191,3.118,3.226c1.265,0.017,2.528,0.018,3.793,0.043c0.025,1.313,0.035,2.626,0.041,3.939
	c0.012,2.645-0.117,5.909-0.117,8.667c-7.886,0.115-16.096-0.205-24.798-0.052c-0.047-2.453,0.078-5.729,0.074-8.265
	c-0.002-1.43-0.001-2.859,0.019-4.289c1.208-0.024,2.416-0.025,3.624-0.04c2.882-0.035,3.313-0.572,3.359-3.463
	C39.569,55.77,39.554,53.919,39.563,53.203z M59.75,71.219c-0.027-2.894,0.129-8.377,0.08-11.271
	c3.605,0.079,7.439,0.116,11.045,0.01c-0.03,1.706,0.033,3.91-0.034,5.921c-0.133,3.954-0.651,5.511-4.735,5.511
	C64.632,71.391,59.75,71.219,59.75,71.219z M70.644,39.438c0.003,2.201,0.01,7.003,0.012,9.204c0.001,1.834-0.001,3.668-0.011,5.502
	c-0.004,0.733-0.01,1.467-0.017,2.201c-0.017,1.691-0.679,1.275-2.132,1.21c-1.19-0.053-13.621-0.159-15.282-0.21
	c-0.035-1.414-0.095-2.841-0.077-4.255c0.04-3.28-2.47-2.52-5.005-2.522c-3.083-0.002-6.333-0.3-9.4-0.02
	c-1.303,0.12-1.767,0.959-1.809,2.177c-0.033,0.917-0.031,1.833-0.027,2.75c0.006,1.39,0.525,1.827-1.095,1.847
	c-3.643,0.045-7.285,0.11-10.928,0.125c-1.821,0.008-3.644,0.003-5.465-0.022c-0.032-2.198-0.046-4.396-0.051-6.594
	c-0.008-3.664-0.054-7.569-0.06-11.233c1.626,0,2.726-0.015,3.682-0.015c1.078,0,2.646-1.61,2.682-2.583
	c0.05-1.337-0.021-1.454-0.016-2.792c0.031-0.729,0.313-1.208,1.579-1.14c1.11-0.011,2.222-0.021,3.333-0.031
	c4.074-0.034,8.149-0.055,12.224-0.063c3.705-0.007,7.41-0.003,11.114,0.011c1.853,0.007,3.704,0.018,5.557,0.031
	c1.111,0.008,2.021,0.015,3.132,0.024c1.643,0.015,1.712,0.234,1.697,1.896c-0.039,4.358-0.406,4.438,1.312,4.451
	C66.114,39.393,70.644,39.438,70.644,39.438z M66.656,37.24c-0.001-0.916,0.04-3.015,0.001-3.803
	c-0.084-1.688-1.84-2.772-2.735-2.777c-0.971-0.005-3.081-0.001-4.517-0.01c-5.624-0.033-11.249-0.03-16.874-0.026
	c-5.546,0.005-9.996,0.131-15.678,0.056c-3.079-0.041-3.583,2.631-3.523,4.357c0.074,2.15,0.21,2.204-1.963,2.205
	c-1.159,0-1.95-0.083-3.284-0.056c0.001-0.491-0.084-10.958,0.209-13.604c0.114-5.938,4.618-4.384,12.958-4.396
	c6.642-0.01,13.295-0.066,19.938-0.063c3.321,0.002,6.632,0.063,9.952,0.064c2.812,0,7.626-0.458,9.083,0.833
	c1.887,1.673,1.73,3.833,1.732,6.655c0.002,3.548-0.052,6.993,0.014,10.541C70.125,37.25,68.506,37.257,66.656,37.24z"/>
</svg>
