<?xml version="1.0" encoding="utf-8"?>
<!-- Generator: Adobe Illustrator 16.0.0, SVG Export Plug-In . SVG Version: 6.00 Build 0)  -->
<!DOCTYPE svg PUBLIC "-//W3C//DTD SVG 1.1//EN" "http://www.w3.org/Graphics/SVG/1.1/DTD/svg11.dtd">
<svg version="1.1" id="Layer_1" xmlns="http://www.w3.org/2000/svg" xmlns:xlink="http://www.w3.org/1999/xlink" x="0px" y="0px"
	 width="90px" height="90px" viewBox="0 0 90 90" enable-background="new 0 0 90 90" xml:space="preserve">
<path fill="#040506" d="M75.953,43.21c-1.88-3.721-2.243-8.35-3.494-12.345c-1.475-4.71-3.014-9.669-7.011-12.893
	c-1.899-1.532-4.099-2.272-6.456-2.802c-0.473-0.105-0.698-0.581-1.062-0.88c-0.916-0.923-2.019-1.641-3.214-2.147
	c-4.959-2.103-10.731-1.044-15.77,0.2c-2.956,0.73-5.859,1.605-8.757,2.537c-1.955,0.629-5.088,1.001-6.536,2.582
	c-0.75,0.817-0.838,2.463,0.008,3.253c0.517,0.48-1.315,1.869-1.648,2.243c-1.135,1.272-2.204,2.662-3.07,4.136
	c-1.49,2.538-2.729,5.223-4.062,7.844c-0.889,1.748-3.216,4.763-0.956,6.433c1.149,0.85,1.131,0.413,0.246,1.896
	c-0.665,1.116-1.013,2.131-0.619,3.405c0.69,2.235,3.727,1.637,5.337,1.023c0.458,1.891-0.211,3.572,0.054,5.493
	c0.319,2.306,1.353,4.659,2.896,6.419c1.204,1.373,2.584,2.606,4.184,3.502c2.283,1.278,2.263,5.608,3.27,7.997
	c0.819,1.941,1.986,5.125,4.588,4.95c1.174-0.079,1.607-0.677,2.048-1.651c0.176-0.389,2.727,1.556,3.145,1.773
	c4.236,2.206,10.755,2.367,14.7-0.642c0.704-0.536,1.437-1.028,2.14-1.567c0.642-0.493,0.509,0.887,0.772,1.281
	c1.375,2.065,4.134,0.319,4.943-1.192c1.062-1.983,1.707-4.155,2.276-6.321c0.378-1.438,0.333-3.776,1.714-4.556
	c2.532-1.429,4.607-3.513,5.962-6.091c0.492-0.937,0.592-1.721,1.466-2.34c0.545-0.386,0.717-0.909,0.791-1.556
	c0.207-1.835,0.121-3.735,0.148-5.582c0.004-0.271,1.256-0.52,1.529-0.736C76.663,45.973,76.552,44.396,75.953,43.21
	C75.532,42.378,76.962,45.21,75.953,43.21z M33.066,47.604c0.816,0.278,2.515,6.665,3.953,3.157
	c0.696,2.272,1.899,3.949,4.358,2.876c2.315-1.01,4.406-2.79,6.091-4.646c-0.247,1.88,0.73,2.792,2.359,1.574
	c1.691-1.261,4.189-1.619,6.147-2.308c0.849-0.299,4.076-0.895,3.344-2.324c-0.653-1.274-4.377,0.163-5.412,0.492
	c2.031-2.382,3.957-4.956,5.367-7.762c0.724,3.15,3.34,6.121,3.303,9.314c-0.039,3.373-0.326,6.705-0.666,10.058
	c-0.404,3.782-1.019,6.549-3.75,9.313c-2.686,2.719-5.792,6.074-9.709,6.874c-2.924,0.598-5.931,0.205-8.466-1.395
	c-3.339-2.106-7.657-5.519-9.07-9.322c-1.161-3.124-1.479-6.76-1.577-10.067c-0.06-2.011,0.803-5.265,2.267-6.68
	C31.908,47.229,32.577,47.438,33.066,47.604C33.195,47.648,32.353,47.361,33.066,47.604z M32.129,45.498
	c0.272-1,0.951-1.972,1.491-2.836c-0.118,0.952-0.104,1.91-0.193,2.863C32.993,45.437,32.561,45.428,32.129,45.498
	C32.231,45.125,32.239,45.472,32.129,45.498z M69.171,54.19c-0.781,2.355-2.676,4.543-4.801,5.796
	c1.067-2.755,1.792-5.602,2.383-8.491C67.792,52.366,69.633,52.8,69.171,54.19C68.452,56.362,69.231,54.01,69.171,54.19z
	 M26.895,59.645c-2.261-1.53-4.183-4.021-4.621-6.765c1.342,2.363,2.424-0.617,2.67-1.74c0.526,2.992,1.315,5.973,2.413,8.808
	C27.203,59.847,27.049,59.745,26.895,59.645C24.452,57.991,27.067,59.761,26.895,59.645z M33.372,72.853
	c-0.545,0.546-3.168-6.692-3.306-7.314c0.855,1.498,2.139,2.767,3.376,3.947C33.277,70.293,33.99,72.236,33.372,72.853
	C32.865,73.36,33.527,72.698,33.372,72.853z M58.933,72.941c-0.464-0.723-0.064-2.936-0.064-3.844c0-1.013,2.809-3.245,3.332-4.507
	c-0.538,2.193-1.12,4.399-1.939,6.507C60.203,71.246,59.313,73.529,58.933,72.941C58.898,72.887,59.447,73.736,58.933,72.941z
	 M71.92,44.262c-1.536-1.232-0.526,2.688-0.502,3.6c0.036,1.388,0.609,3.985-0.424,5.019c-0.244-0.977-4.531-4.382-5.455-2.8
	c-1.155,1.977-1.227,5.104-1.954,7.339c0.296-2.784,0.515-5.558,0.572-8.358c0.068-3.339-1.345-4.939-2.502-7.993
	c-0.518-1.366-0.57-3.295-1.402-4.496c-1.151-1.662-2.374,1.335-2.733,1.993c-0.825,1.507-6.857,8.234-5.806,9.415
	c-0.919,0.294-1.852,0.611-2.651,1.167c0.182-1.31-0.219-4.476-2.044-2.104c-1.317,1.714-3.027,3.193-4.847,4.352
	c-1.324,0.843-2.417,1.675-3.212-0.021c-0.519-1.106-1.834-5.464-3.14-2.014c-0.383-0.933-1.064-2.343-0.874-3.213
	c0.345-1.577,0.228-3.271,0.517-4.874c0.188-1.039-0.326-2.953-1.64-1.658c-1.169,1.152-2.098,2.937-2.804,4.403
	c-0.747,1.553-1.511,3.115-2.189,4.746c-1.209,2.91-1.131,5.301-0.746,8.422c-0.909-2.854-1.004-6.15-2.116-8.893
	c-1.293-3.189-2.579,2.478-2.691,2.944c-0.301-0.701-0.746-1.856-1.727-1.686c0.322-0.87-0.511-5.938-0.966-5.713
	c-0.987,0.49-5.825,3.603-4.076,0.429c0.352-0.638,3.677-6.451,3.406-6.451c-1.911-0.004-5.358,3.067-3.373-0.639
	c3.079-5.744,5.453-11.265,10.551-15.521c0.192-0.16,2.171-1.462,1.339-1.799c-0.416-0.169-3.125-0.632-1.827-1.208
	c2.343-1.041,5.108-1.706,7.559-2.432c4.275-1.266,8.565-2.518,13.047-2.655c2.523-0.077,4.994-0.101,7.241,1.242
	c1.135,0.679,1.98,2.104,3.181,2.587c1.131,0.455,2.39,0.508,3.532,0.998c5.781,2.482,7.273,8.412,9.105,13.813
	c0.92,2.709,1.482,5.497,2.208,8.259C72.804,41.691,74.923,46.671,71.92,44.262C71.007,43.529,73.314,45.38,71.92,44.262z"/>
</svg>
