<?xml version="1.0" encoding="utf-8"?>
<!-- Generator: Adobe Illustrator 16.0.0, SVG Export Plug-In . SVG Version: 6.00 Build 0)  -->
<!DOCTYPE svg PUBLIC "-//W3C//DTD SVG 1.1//EN" "http://www.w3.org/Graphics/SVG/1.1/DTD/svg11.dtd">
<svg version="1.1" id="Layer_1" xmlns="http://www.w3.org/2000/svg" xmlns:xlink="http://www.w3.org/1999/xlink" x="0px" y="0px"
	 width="90px" height="90px" viewBox="0 0 90 90" enable-background="new 0 0 90 90" xml:space="preserve">
<g>
	<path d="M72.895,33.781c-0.668-1.313-1.419-2.577-2.35-3.724c0.92-0.474,1.486-1.454,1.432-2.488
		c-0.052-1.019-0.725-1.794-1.483-2.408c-1.92-1.554-4.155-2.639-6.386-3.653c1.493-1.164,1.126-3.371-0.313-4.395
		c-2.056-1.463-5.11-2.219-7.549-2.734c-2.9-0.611-5.901-0.736-8.85-0.478c-0.038-3.303-4.54-2.656-6.649-2.137
		c-1.712,0.422-3.349,1.109-4.78,2.146c-1.664,1.205-3.073,2.789-4.159,4.527c-3.174-0.676-6.597-0.016-9.47,1.435
		c-1.506,0.761-3.836,1.867-4.45,3.578c-0.522,1.455,0.396,3.036,1.903,3.351c-1.148,1.788-2.256,3.653-2.99,5.655
		c-0.72,1.965-2.02,4.506-1.501,6.642c0.323,1.332,1.544,2.269,2.93,2.038c0.032,1.467,0.129,2.896,0.636,4.283
		c0.207,0.568,0.06,1.348,0.191,1.963c0.179,0.829,0.468,1.635,0.79,2.418c0.633,1.537,1.451,2.996,2.398,4.359
		c0.44,0.636,0.904,1.257,1.424,1.829c0.513,0.566,1.329,0.976,1.769,1.575c0.388,0.53,0.845,0.763,1.05,1.41
		c0.201,0.634,0.46,1.245,0.762,1.838c0.753,1.475,1.751,2.808,2.807,4.076c2.08,2.501,4.271,5.155,7.091,6.85
		c2.027,1.218,4.315,1.705,6.667,1.526c2.072-0.159,3.995-0.707,5.739-1.854c2.129-1.401,3.883-3.341,5.514-5.276
		c0.009,1.623-0.599,4.974,0.934,6.089c0.796,0.58,1.913,0.509,2.639-0.146c0.165-0.147,0.308-0.318,0.438-0.497
		c0.168-0.233,0.353-0.225,0.608-0.293c0.545-0.146,1.008-0.48,1.466-0.793c0.354,1.279,0.621,3.019,2.06,3.512
		c1.421,0.486,2.353-0.599,3.206-1.547c1.117,0.628,2.34,0.104,3.451-0.244c0.897-0.279,1.925-0.425,2.629-1.105
		c1.102-1.062,0.672-2.464,0.106-3.667c-2.424-5.154-4.874-10.3-7.344-15.433c1.353,0.488,2.936,0.218,3.669-1.131
		c0.691-1.271,0.144-2.582-0.565-3.692c4.077,0.337,3.208-5.911,2.316-8.219c1.032,0.114,2.071-0.337,2.62-1.234
		c-0.033,0.055-0.066,0.108-0.099,0.162c0.035-0.057,0.069-0.113,0.104-0.17C74.087,36.436,73.517,35.001,72.895,33.781z
		 M52.884,65.132c0.727-0.833,2.063-2.363-0.039,0.045c-0.489,0.56-0.389,0.445-0.104,0.118c-1.599,1.829-3.346,3.776-5.577,4.828
		c-1.788,0.843-3.917,0.983-5.855,0.695c-2.806-0.418-4.936-2.363-6.826-4.334c-2.128-2.217-4.566-4.854-5.654-7.781
		c1.778-0.715,1.677-2.771,1.458-4.356c-0.363-2.617-0.374-5.238-0.621-7.863c0.623,0.114,1.226,0.297,1.846,0.429
		c-0.082,0.758,0.204,1.522,0.743,2.061c0.719,0.716,1.747,0.941,2.667,1.279c1.024,0.375,2.104,0.851,3.177,1.061
		c0.879,0.171,1.866,0.14,2.638-0.361c0.609-0.396,1.643,0.44,2.458,0.459c0.365,0.007,0.727-0.064,1.054-0.229
		c0.246-0.126,0.464-0.288,0.656-0.488c0.167,0.164,0.354,0.303,0.558,0.414c0.818,0.447,1.827,0.458,2.713,0.235
		c1.069-0.268,2.252-0.698,3.239-1.189c1.569,0.941,3.036,2.249,4.761,2.91c-0.153,1.786-0.406,3.949,1.593,4.821
		C57.547,59.295,56.071,61.476,52.884,65.132z M28.719,44.253c0.088-0.264,0.161-0.51,0.22-0.782c0.075-0.357,0.29-0.68,0.438-1.014
		c0.842,0.95,1.771,1.842,2.727,2.677c-1.066-0.224-2.102-0.491-3.182-0.664C28.856,44.392,28.789,44.319,28.719,44.253z
		 M65.316,56.875c0.547,0.71,0.845,1.752,1.223,2.557c0.561,1.191,1.128,2.376,1.695,3.563c0.533,1.117,1.063,2.238,1.592,3.358
		c0.304,0.645,1.585,2.438,1.316,3.175c-0.181,0.49-3.337,1.421-3.784,1.108c-0.351-0.245-0.735-0.845-1.235-0.656
		c-0.961,0.366-1.26,1.655-2.138,2.076c-0.474,0.229-1.129-3.927-1.571-4.157c-1.167-0.613-2.717,1.977-3.552,1.324
		c-0.232-0.181-0.456-0.438-0.695-0.137c-0.25,0.316-0.398,0.714-0.599,1.062c-0.133,0.228-0.37,0.648-0.39,0.184
		c-0.112-2.462-0.056-4.932-0.082-7.396c1.645-2.181,2.404-3.702,2.54-4.991c0.838-0.305,1.395-1.134,2.004-1.743
		c0.805-0.804,1.462-1.744,2.068-2.702C64.217,54.555,64.603,55.942,65.316,56.875z M71.256,36.418
		c-0.006,0.018-0.014,0.035-0.021,0.053c-0.011,0.012-0.022,0.025-0.033,0.038c-0.26,0.257-0.835-0.113-1.096-0.241
		c-0.021-0.01-0.036-0.017-0.026-0.013c-0.862-0.403-1.741-0.763-2.617-1.135c-0.563-0.24-1.489-0.893-2.118-0.842
		c-0.038,0.004-0.074,0.013-0.11,0.024c-0.12,0.044-0.176,0.145-0.15,0.282c0.2,0.628,1.197,1.407,1.559,1.928
		c0.544,0.785,1.011,1.632,1.421,2.495c0.394,0.833,0.729,1.719,0.809,2.643c0.057,0.579,0.405,2.506-0.101,3.035
		c-0.026,0.032-0.054,0.054-0.09,0.069c-0.429,0.188-1.436-0.77-1.753-0.986c-0.549-0.374-1.069-0.786-1.61-1.17
		c-0.807-0.575-1.608-1.133-2.41-1.718C62.586,40.645,61.724,40,61.243,40c0,0-0.001,0-0.001,0c0.098,0,2.304,4.548,2.773,5.077
		c0.595,0.672,1.068,1.373,1.531,2.147c0.24,0.399,1.542,1.967,1.263,2.492c-0.004,0.01,0.208,0.017,0.204,0.024
		C66.792,50.07,66,49.619,66,49.509c0-0.001,0-0.002,0-0.002c-1-0.415-1.818-0.783-2.596-1.29c-0.642-0.419-2.038-1.508-2.34-0.31
		c-0.359,1.433-0.688,2.881-1.071,4.31c-0.116,0.432-0.99,3.628-1.336,3.384c-0.633-0.443,0.051-3.874,0.099-4.576
		c0.066-0.979,0.154-1.959,0.206-2.94c0.031-0.576,0.239-1.532,0.026-2.091c-0.268-0.715-1.707-1.349-2.313-1.787
		c-0.884-0.641-1.764-1.272-2.611-1.961c-0.693-0.564-0.862-0.072-0.3,0.878c0.957,1.618,1.526,3.384,2.372,5.043
		c0.129,0.256,1.8,2.992,0.831,2.607c-2.237-0.896-4.25-3.987-6.775-2.712c-0.798,0.403-2.197,0.981-3.103,0.99
		c-0.853,0.01-0.581-0.282,0.588-0.626c0.719-0.213,1.354-0.623,2.066-0.855c0.975-0.318,0.962-0.89-0.034-1.404
		c-2.058-1.066-3.858-2.763-5.654-4.202c-0.893-0.715-1.789-1.422-2.656-2.169c-0.178-0.153-2.072-1.943-2.26-1.456
		c-0.229,0.596,0.855,2.572,1.18,3.083c0.693,1.091,0.898,2.485,1.521,3.618c0.563,1.024,0.805,2.164,1.215,3.244
		c0.599,1.573-1.688-0.209-2.211-0.509c-2.202-1.263-4.39-2.359-6.438-3.889c-1.224-0.915-2.362-2.042-3.358-3.196
		c-0.339-0.394-1.496-2.864-2.006-2.636c-0.658,0.293-1.244,1.91-1.524,2.52c-0.539,1.171-0.832,2.426-1.356,3.593
		c-0.219,0.485-0.545,1.234,0.104,1.531c0.254,0.116,0.676,0.116,0.842,0.378c0.204,0.32,0.17,0.828,0.188,1.188
		c0.052,1.09,0.066,2.182,0.133,3.271c0.107,1.763,0.397,3.503,0.549,5.26c0.118,1.372-0.691,0.01-0.683-0.003
		c0.369-0.589-0.578-2.191-0.75-2.797c-0.28-0.99-0.568-1.981-0.757-2.995c-0.314-1.679-0.509-1.877-0.934-0.944
		c-0.393,0.862-0.671,0.39-1.153-0.19c-0.546-0.657-1.04-1.376-1.444-2.13c-0.992-1.853-1.559-3.368-1.616-5.51
		c-0.046-1.687,0.31-2.945,0.812-4.558c0.36-0.95,1.229-1.967,1.429-2.94c0.063-0.344-0.309-0.253-0.566-0.121
		c-1.942,1.048-2.901,3.208-4.204,4.865c-0.252,0.332-0.375,0.355-0.443,0.118c-0.411-1.105,0.613-3.244,0.972-4.242
		c0.552-1.533,1.261-2.945,2.01-4.389c0.754-1.282,1.545-2.566,2.566-3.657c0.723-0.79,1.716-1.452,2.334-2.323
		c0.151-0.226-0.031-0.316-0.33-0.339c-0.93-0.015-1.89,0.165-2.798,0.36c-0.619,0.134-1.573,0.67-2.185,0.414
		c-0.374-0.147,1.8-1.604,1.917-1.675c1.162-0.702,2.396-1.364,3.724-1.679c1.189-0.297,2.415-0.468,3.641-0.468
		c1.082-0.008,2.325,0.67,3.341,0.477c0.656-0.112,1.102-1.532,1.46-2.037c0.72-1.015,1.564-1.956,2.521-2.753
		c2.065-1.724,5.125-2.869,7.821-2.484c0.335,0.044,0.402,0.132,0.206,0.301c-1.301,1.213-3.624,1.692-4.286,3.59
		c-0.166,0.504,0.592,0.229,1.109,0.005c2.867-1.334,6.348-1.58,9.468-1.471c2.155,0.08,4.308,0.41,6.388,0.98
		c1.076,0.294,2.133,0.655,3.163,1.083c0.502,0.21,1.444,0.465,1.82,0.933c0.132,0.125,0.205,0.258,0.109,0.364
		c-0.021,0.024-0.044,0.042-0.073,0.057c-0.955,0.597-2.926,0.358-4.024,0.496c-0.674,0.085-2.695,0.102-3.163,0.711
		c-0.009,0.01-0.015,0.021-0.018,0.033c-0.006,0.027,0.006,0.054,0.033,0.08c0.894,0.672,2.736,0.886,3.809,1.222
		c1.342,0.519,2.683,0.988,4,1.577c0.924,0.413,1.83,0.812,2.717,1.311c0.69,0.38,1.372,0.792,2.028,1.229
		c0.404,0.269,1.446,0.813,1.601,1.365c0.011,0.03,0.021,0.111-0.004,0.136c-0.336,0.774-3.585-0.427-4.265,0.115
		c-0.042,0.034-0.073,0.056-0.074,0.107c0.033,0.37,0.931,0.934,1.219,1.206c0.773,0.731,1.527,1.489,2.201,2.315
		c0.535,0.655,1.011,1.354,1.441,2.082C70.354,34.104,71.516,35.741,71.256,36.418z"/>
</g>
</svg>
